%TF.GenerationSoftware,KiCad,Pcbnew,6.0.11-2627ca5db0~126~ubuntu22.04.1*%
%TF.CreationDate,2023-03-13T11:49:13-04:00*%
%TF.ProjectId,obd-feather,6f62642d-6665-4617-9468-65722e6b6963,1.0*%
%TF.SameCoordinates,Original*%
%TF.FileFunction,Legend,Top*%
%TF.FilePolarity,Positive*%
%FSLAX46Y46*%
G04 Gerber Fmt 4.6, Leading zero omitted, Abs format (unit mm)*
G04 Created by KiCad (PCBNEW 6.0.11-2627ca5db0~126~ubuntu22.04.1) date 2023-03-13 11:49:13*
%MOMM*%
%LPD*%
G01*
G04 APERTURE LIST*
%ADD10C,0.150000*%
%ADD11C,0.127000*%
%ADD12C,0.120000*%
%ADD13C,0.203200*%
%ADD14C,0.010000*%
G04 APERTURE END LIST*
D10*
X131530476Y-119261190D02*
X131825714Y-119261190D01*
X131973333Y-119335000D01*
X132120952Y-119482619D01*
X132194761Y-119777857D01*
X132194761Y-120294523D01*
X132120952Y-120589761D01*
X131973333Y-120737380D01*
X131825714Y-120811190D01*
X131530476Y-120811190D01*
X131382857Y-120737380D01*
X131235238Y-120589761D01*
X131161428Y-120294523D01*
X131161428Y-119777857D01*
X131235238Y-119482619D01*
X131382857Y-119335000D01*
X131530476Y-119261190D01*
X133375714Y-119999285D02*
X133597142Y-120073095D01*
X133670952Y-120146904D01*
X133744761Y-120294523D01*
X133744761Y-120515952D01*
X133670952Y-120663571D01*
X133597142Y-120737380D01*
X133449523Y-120811190D01*
X132859047Y-120811190D01*
X132859047Y-119261190D01*
X133375714Y-119261190D01*
X133523333Y-119335000D01*
X133597142Y-119408809D01*
X133670952Y-119556428D01*
X133670952Y-119704047D01*
X133597142Y-119851666D01*
X133523333Y-119925476D01*
X133375714Y-119999285D01*
X132859047Y-119999285D01*
X134409047Y-120811190D02*
X134409047Y-119261190D01*
X134778095Y-119261190D01*
X134999523Y-119335000D01*
X135147142Y-119482619D01*
X135220952Y-119630238D01*
X135294761Y-119925476D01*
X135294761Y-120146904D01*
X135220952Y-120442142D01*
X135147142Y-120589761D01*
X134999523Y-120737380D01*
X134778095Y-120811190D01*
X134409047Y-120811190D01*
X135959047Y-120811190D02*
X135959047Y-119261190D01*
X136697142Y-120811190D02*
X136697142Y-119261190D01*
X137435238Y-120220714D02*
X138616190Y-120220714D01*
X139870952Y-119999285D02*
X139354285Y-119999285D01*
X139354285Y-120811190D02*
X139354285Y-119261190D01*
X140092380Y-119261190D01*
X141273333Y-120737380D02*
X141125714Y-120811190D01*
X140830476Y-120811190D01*
X140682857Y-120737380D01*
X140609047Y-120589761D01*
X140609047Y-119999285D01*
X140682857Y-119851666D01*
X140830476Y-119777857D01*
X141125714Y-119777857D01*
X141273333Y-119851666D01*
X141347142Y-119999285D01*
X141347142Y-120146904D01*
X140609047Y-120294523D01*
X142675714Y-120811190D02*
X142675714Y-119999285D01*
X142601904Y-119851666D01*
X142454285Y-119777857D01*
X142159047Y-119777857D01*
X142011428Y-119851666D01*
X142675714Y-120737380D02*
X142528095Y-120811190D01*
X142159047Y-120811190D01*
X142011428Y-120737380D01*
X141937619Y-120589761D01*
X141937619Y-120442142D01*
X142011428Y-120294523D01*
X142159047Y-120220714D01*
X142528095Y-120220714D01*
X142675714Y-120146904D01*
X143192380Y-119777857D02*
X143782857Y-119777857D01*
X143413809Y-119261190D02*
X143413809Y-120589761D01*
X143487619Y-120737380D01*
X143635238Y-120811190D01*
X143782857Y-120811190D01*
X144299523Y-120811190D02*
X144299523Y-119261190D01*
X144963809Y-120811190D02*
X144963809Y-119999285D01*
X144890000Y-119851666D01*
X144742380Y-119777857D01*
X144520952Y-119777857D01*
X144373333Y-119851666D01*
X144299523Y-119925476D01*
X146292380Y-120737380D02*
X146144761Y-120811190D01*
X145849523Y-120811190D01*
X145701904Y-120737380D01*
X145628095Y-120589761D01*
X145628095Y-119999285D01*
X145701904Y-119851666D01*
X145849523Y-119777857D01*
X146144761Y-119777857D01*
X146292380Y-119851666D01*
X146366190Y-119999285D01*
X146366190Y-120146904D01*
X145628095Y-120294523D01*
X147030476Y-120811190D02*
X147030476Y-119777857D01*
X147030476Y-120073095D02*
X147104285Y-119925476D01*
X147178095Y-119851666D01*
X147325714Y-119777857D01*
X147473333Y-119777857D01*
X149170952Y-120811190D02*
X149170952Y-119261190D01*
X149909047Y-119777857D02*
X149909047Y-120811190D01*
X149909047Y-119925476D02*
X149982857Y-119851666D01*
X150130476Y-119777857D01*
X150351904Y-119777857D01*
X150499523Y-119851666D01*
X150573333Y-119999285D01*
X150573333Y-120811190D01*
X151090000Y-119777857D02*
X151680476Y-119777857D01*
X151311428Y-119261190D02*
X151311428Y-120589761D01*
X151385238Y-120737380D01*
X151532857Y-120811190D01*
X151680476Y-120811190D01*
X152787619Y-120737380D02*
X152640000Y-120811190D01*
X152344761Y-120811190D01*
X152197142Y-120737380D01*
X152123333Y-120589761D01*
X152123333Y-119999285D01*
X152197142Y-119851666D01*
X152344761Y-119777857D01*
X152640000Y-119777857D01*
X152787619Y-119851666D01*
X152861428Y-119999285D01*
X152861428Y-120146904D01*
X152123333Y-120294523D01*
X153525714Y-120811190D02*
X153525714Y-119777857D01*
X153525714Y-120073095D02*
X153599523Y-119925476D01*
X153673333Y-119851666D01*
X153820952Y-119777857D01*
X153968571Y-119777857D01*
X154263809Y-119777857D02*
X154854285Y-119777857D01*
X154485238Y-120811190D02*
X154485238Y-119482619D01*
X154559047Y-119335000D01*
X154706666Y-119261190D01*
X154854285Y-119261190D01*
X156035238Y-120811190D02*
X156035238Y-119999285D01*
X155961428Y-119851666D01*
X155813809Y-119777857D01*
X155518571Y-119777857D01*
X155370952Y-119851666D01*
X156035238Y-120737380D02*
X155887619Y-120811190D01*
X155518571Y-120811190D01*
X155370952Y-120737380D01*
X155297142Y-120589761D01*
X155297142Y-120442142D01*
X155370952Y-120294523D01*
X155518571Y-120220714D01*
X155887619Y-120220714D01*
X156035238Y-120146904D01*
X157437619Y-120737380D02*
X157290000Y-120811190D01*
X156994761Y-120811190D01*
X156847142Y-120737380D01*
X156773333Y-120663571D01*
X156699523Y-120515952D01*
X156699523Y-120073095D01*
X156773333Y-119925476D01*
X156847142Y-119851666D01*
X156994761Y-119777857D01*
X157290000Y-119777857D01*
X157437619Y-119851666D01*
X158692380Y-120737380D02*
X158544761Y-120811190D01*
X158249523Y-120811190D01*
X158101904Y-120737380D01*
X158028095Y-120589761D01*
X158028095Y-119999285D01*
X158101904Y-119851666D01*
X158249523Y-119777857D01*
X158544761Y-119777857D01*
X158692380Y-119851666D01*
X158766190Y-119999285D01*
X158766190Y-120146904D01*
X158028095Y-120294523D01*
X160463809Y-119777857D02*
X160832857Y-120811190D01*
X161201904Y-119777857D01*
X162604285Y-120811190D02*
X161718571Y-120811190D01*
X162161428Y-120811190D02*
X162161428Y-119261190D01*
X162013809Y-119482619D01*
X161866190Y-119630238D01*
X161718571Y-119704047D01*
X163268571Y-120663571D02*
X163342380Y-120737380D01*
X163268571Y-120811190D01*
X163194761Y-120737380D01*
X163268571Y-120663571D01*
X163268571Y-120811190D01*
X164301904Y-119261190D02*
X164449523Y-119261190D01*
X164597142Y-119335000D01*
X164670952Y-119408809D01*
X164744761Y-119556428D01*
X164818571Y-119851666D01*
X164818571Y-120220714D01*
X164744761Y-120515952D01*
X164670952Y-120663571D01*
X164597142Y-120737380D01*
X164449523Y-120811190D01*
X164301904Y-120811190D01*
X164154285Y-120737380D01*
X164080476Y-120663571D01*
X164006666Y-120515952D01*
X163932857Y-120220714D01*
X163932857Y-119851666D01*
X164006666Y-119556428D01*
X164080476Y-119408809D01*
X164154285Y-119335000D01*
X164301904Y-119261190D01*
X134918571Y-123960000D02*
X134847142Y-123888571D01*
X134704285Y-123674285D01*
X134632857Y-123531428D01*
X134561428Y-123317142D01*
X134490000Y-122960000D01*
X134490000Y-122674285D01*
X134561428Y-122317142D01*
X134632857Y-122102857D01*
X134704285Y-121960000D01*
X134847142Y-121745714D01*
X134918571Y-121674285D01*
X136132857Y-123317142D02*
X135990000Y-123388571D01*
X135704285Y-123388571D01*
X135561428Y-123317142D01*
X135490000Y-123245714D01*
X135418571Y-123102857D01*
X135418571Y-122674285D01*
X135490000Y-122531428D01*
X135561428Y-122460000D01*
X135704285Y-122388571D01*
X135990000Y-122388571D01*
X136132857Y-122460000D01*
X136632857Y-123960000D02*
X136704285Y-123888571D01*
X136847142Y-123674285D01*
X136918571Y-123531428D01*
X136990000Y-123317142D01*
X137061428Y-122960000D01*
X137061428Y-122674285D01*
X136990000Y-122317142D01*
X136918571Y-122102857D01*
X136847142Y-121960000D01*
X136704285Y-121745714D01*
X136632857Y-121674285D01*
X138847142Y-122031428D02*
X138918571Y-121960000D01*
X139061428Y-121888571D01*
X139418571Y-121888571D01*
X139561428Y-121960000D01*
X139632857Y-122031428D01*
X139704285Y-122174285D01*
X139704285Y-122317142D01*
X139632857Y-122531428D01*
X138775714Y-123388571D01*
X139704285Y-123388571D01*
X140632857Y-121888571D02*
X140775714Y-121888571D01*
X140918571Y-121960000D01*
X140990000Y-122031428D01*
X141061428Y-122174285D01*
X141132857Y-122460000D01*
X141132857Y-122817142D01*
X141061428Y-123102857D01*
X140990000Y-123245714D01*
X140918571Y-123317142D01*
X140775714Y-123388571D01*
X140632857Y-123388571D01*
X140490000Y-123317142D01*
X140418571Y-123245714D01*
X140347142Y-123102857D01*
X140275714Y-122817142D01*
X140275714Y-122460000D01*
X140347142Y-122174285D01*
X140418571Y-122031428D01*
X140490000Y-121960000D01*
X140632857Y-121888571D01*
X141704285Y-122031428D02*
X141775714Y-121960000D01*
X141918571Y-121888571D01*
X142275714Y-121888571D01*
X142418571Y-121960000D01*
X142490000Y-122031428D01*
X142561428Y-122174285D01*
X142561428Y-122317142D01*
X142490000Y-122531428D01*
X141632857Y-123388571D01*
X142561428Y-123388571D01*
X143061428Y-121888571D02*
X143990000Y-121888571D01*
X143490000Y-122460000D01*
X143704285Y-122460000D01*
X143847142Y-122531428D01*
X143918571Y-122602857D01*
X143990000Y-122745714D01*
X143990000Y-123102857D01*
X143918571Y-123245714D01*
X143847142Y-123317142D01*
X143704285Y-123388571D01*
X143275714Y-123388571D01*
X143132857Y-123317142D01*
X143061428Y-123245714D01*
X146561428Y-121960000D02*
X146418571Y-121888571D01*
X146204285Y-121888571D01*
X145990000Y-121960000D01*
X145847142Y-122102857D01*
X145775714Y-122245714D01*
X145704285Y-122531428D01*
X145704285Y-122745714D01*
X145775714Y-123031428D01*
X145847142Y-123174285D01*
X145990000Y-123317142D01*
X146204285Y-123388571D01*
X146347142Y-123388571D01*
X146561428Y-123317142D01*
X146632857Y-123245714D01*
X146632857Y-122745714D01*
X146347142Y-122745714D01*
X147918571Y-123388571D02*
X147918571Y-122602857D01*
X147847142Y-122460000D01*
X147704285Y-122388571D01*
X147418571Y-122388571D01*
X147275714Y-122460000D01*
X147918571Y-123317142D02*
X147775714Y-123388571D01*
X147418571Y-123388571D01*
X147275714Y-123317142D01*
X147204285Y-123174285D01*
X147204285Y-123031428D01*
X147275714Y-122888571D01*
X147418571Y-122817142D01*
X147775714Y-122817142D01*
X147918571Y-122745714D01*
X148490000Y-122388571D02*
X148847142Y-123388571D01*
X149204285Y-122388571D01*
X149775714Y-123388571D02*
X149775714Y-122388571D01*
X149775714Y-121888571D02*
X149704285Y-121960000D01*
X149775714Y-122031428D01*
X149847142Y-121960000D01*
X149775714Y-121888571D01*
X149775714Y-122031428D01*
X150490000Y-122388571D02*
X150490000Y-123388571D01*
X150490000Y-122531428D02*
X150561428Y-122460000D01*
X150704285Y-122388571D01*
X150918571Y-122388571D01*
X151061428Y-122460000D01*
X151132857Y-122602857D01*
X151132857Y-123388571D01*
X152990000Y-123388571D02*
X152990000Y-121888571D01*
X152990000Y-122602857D02*
X153847142Y-122602857D01*
X153847142Y-123388571D02*
X153847142Y-121888571D01*
X155204285Y-122388571D02*
X155204285Y-123388571D01*
X154561428Y-122388571D02*
X154561428Y-123174285D01*
X154632857Y-123317142D01*
X154775714Y-123388571D01*
X154990000Y-123388571D01*
X155132857Y-123317142D01*
X155204285Y-123245714D01*
X155918571Y-123388571D02*
X155918571Y-122388571D01*
X155918571Y-122674285D02*
X155990000Y-122531428D01*
X156061428Y-122460000D01*
X156204285Y-122388571D01*
X156347142Y-122388571D01*
X157061428Y-123388571D02*
X156918571Y-123317142D01*
X156847142Y-123174285D01*
X156847142Y-121888571D01*
X157632857Y-123388571D02*
X157632857Y-121888571D01*
X157632857Y-122460000D02*
X157775714Y-122388571D01*
X158061428Y-122388571D01*
X158204285Y-122460000D01*
X158275714Y-122531428D01*
X158347142Y-122674285D01*
X158347142Y-123102857D01*
X158275714Y-123245714D01*
X158204285Y-123317142D01*
X158061428Y-123388571D01*
X157775714Y-123388571D01*
X157632857Y-123317142D01*
X159632857Y-122388571D02*
X159632857Y-123388571D01*
X158990000Y-122388571D02*
X158990000Y-123174285D01*
X159061428Y-123317142D01*
X159204285Y-123388571D01*
X159418571Y-123388571D01*
X159561428Y-123317142D01*
X159632857Y-123245714D01*
X160132857Y-122388571D02*
X160704285Y-122388571D01*
X160347142Y-121888571D02*
X160347142Y-123174285D01*
X160418571Y-123317142D01*
X160561428Y-123388571D01*
X160704285Y-123388571D01*
%TO.C,RN1*%
X164357380Y-102300476D02*
X163881190Y-102633809D01*
X164357380Y-102871904D02*
X163357380Y-102871904D01*
X163357380Y-102490952D01*
X163405000Y-102395714D01*
X163452619Y-102348095D01*
X163547857Y-102300476D01*
X163690714Y-102300476D01*
X163785952Y-102348095D01*
X163833571Y-102395714D01*
X163881190Y-102490952D01*
X163881190Y-102871904D01*
X164357380Y-101871904D02*
X163357380Y-101871904D01*
X164357380Y-101300476D01*
X163357380Y-101300476D01*
X164357380Y-100300476D02*
X164357380Y-100871904D01*
X164357380Y-100586190D02*
X163357380Y-100586190D01*
X163500238Y-100681428D01*
X163595476Y-100776666D01*
X163643095Y-100871904D01*
X171409180Y-100187600D02*
X171647276Y-100187600D01*
X171552038Y-100425695D02*
X171647276Y-100187600D01*
X171552038Y-99949504D01*
X171837752Y-100330457D02*
X171647276Y-100187600D01*
X171837752Y-100044742D01*
%TO.C,U9*%
X145848095Y-85112380D02*
X145848095Y-85921904D01*
X145895714Y-86017142D01*
X145943333Y-86064761D01*
X146038571Y-86112380D01*
X146229047Y-86112380D01*
X146324285Y-86064761D01*
X146371904Y-86017142D01*
X146419523Y-85921904D01*
X146419523Y-85112380D01*
X146943333Y-86112380D02*
X147133809Y-86112380D01*
X147229047Y-86064761D01*
X147276666Y-86017142D01*
X147371904Y-85874285D01*
X147419523Y-85683809D01*
X147419523Y-85302857D01*
X147371904Y-85207619D01*
X147324285Y-85160000D01*
X147229047Y-85112380D01*
X147038571Y-85112380D01*
X146943333Y-85160000D01*
X146895714Y-85207619D01*
X146848095Y-85302857D01*
X146848095Y-85540952D01*
X146895714Y-85636190D01*
X146943333Y-85683809D01*
X147038571Y-85731428D01*
X147229047Y-85731428D01*
X147324285Y-85683809D01*
X147371904Y-85636190D01*
X147419523Y-85540952D01*
%TO.C,U5*%
X114046095Y-121245380D02*
X114046095Y-122054904D01*
X114093714Y-122150142D01*
X114141333Y-122197761D01*
X114236571Y-122245380D01*
X114427047Y-122245380D01*
X114522285Y-122197761D01*
X114569904Y-122150142D01*
X114617523Y-122054904D01*
X114617523Y-121245380D01*
X115569904Y-121245380D02*
X115093714Y-121245380D01*
X115046095Y-121721571D01*
X115093714Y-121673952D01*
X115188952Y-121626333D01*
X115427047Y-121626333D01*
X115522285Y-121673952D01*
X115569904Y-121721571D01*
X115617523Y-121816809D01*
X115617523Y-122054904D01*
X115569904Y-122150142D01*
X115522285Y-122197761D01*
X115427047Y-122245380D01*
X115188952Y-122245380D01*
X115093714Y-122197761D01*
X115046095Y-122150142D01*
X113792000Y-118705380D02*
X113792000Y-118943476D01*
X113553904Y-118848238D02*
X113792000Y-118943476D01*
X114030095Y-118848238D01*
X113649142Y-119133952D02*
X113792000Y-118943476D01*
X113934857Y-119133952D01*
X113792000Y-118705380D02*
X113792000Y-118943476D01*
X113553904Y-118848238D02*
X113792000Y-118943476D01*
X114030095Y-118848238D01*
X113649142Y-119133952D02*
X113792000Y-118943476D01*
X113934857Y-119133952D01*
%TO.C,D16*%
X139055714Y-103792380D02*
X139055714Y-102792380D01*
X139293809Y-102792380D01*
X139436666Y-102840000D01*
X139531904Y-102935238D01*
X139579523Y-103030476D01*
X139627142Y-103220952D01*
X139627142Y-103363809D01*
X139579523Y-103554285D01*
X139531904Y-103649523D01*
X139436666Y-103744761D01*
X139293809Y-103792380D01*
X139055714Y-103792380D01*
X140579523Y-103792380D02*
X140008095Y-103792380D01*
X140293809Y-103792380D02*
X140293809Y-102792380D01*
X140198571Y-102935238D01*
X140103333Y-103030476D01*
X140008095Y-103078095D01*
X141436666Y-102792380D02*
X141246190Y-102792380D01*
X141150952Y-102840000D01*
X141103333Y-102887619D01*
X141008095Y-103030476D01*
X140960476Y-103220952D01*
X140960476Y-103601904D01*
X141008095Y-103697142D01*
X141055714Y-103744761D01*
X141150952Y-103792380D01*
X141341428Y-103792380D01*
X141436666Y-103744761D01*
X141484285Y-103697142D01*
X141531904Y-103601904D01*
X141531904Y-103363809D01*
X141484285Y-103268571D01*
X141436666Y-103220952D01*
X141341428Y-103173333D01*
X141150952Y-103173333D01*
X141055714Y-103220952D01*
X141008095Y-103268571D01*
X140960476Y-103363809D01*
D11*
%TO.C,S1*%
X174424342Y-112674342D02*
X174511428Y-112703371D01*
X174656571Y-112703371D01*
X174714628Y-112674342D01*
X174743657Y-112645314D01*
X174772685Y-112587257D01*
X174772685Y-112529200D01*
X174743657Y-112471142D01*
X174714628Y-112442114D01*
X174656571Y-112413085D01*
X174540457Y-112384057D01*
X174482400Y-112355028D01*
X174453371Y-112326000D01*
X174424342Y-112267942D01*
X174424342Y-112209885D01*
X174453371Y-112151828D01*
X174482400Y-112122800D01*
X174540457Y-112093771D01*
X174685600Y-112093771D01*
X174772685Y-112122800D01*
X175353257Y-112703371D02*
X175004914Y-112703371D01*
X175179085Y-112703371D02*
X175179085Y-112093771D01*
X175121028Y-112180857D01*
X175062971Y-112238914D01*
X175004914Y-112267942D01*
D10*
%TO.C,U12*%
X123851904Y-83572380D02*
X123851904Y-84381904D01*
X123899523Y-84477142D01*
X123947142Y-84524761D01*
X124042380Y-84572380D01*
X124232857Y-84572380D01*
X124328095Y-84524761D01*
X124375714Y-84477142D01*
X124423333Y-84381904D01*
X124423333Y-83572380D01*
X125423333Y-84572380D02*
X124851904Y-84572380D01*
X125137619Y-84572380D02*
X125137619Y-83572380D01*
X125042380Y-83715238D01*
X124947142Y-83810476D01*
X124851904Y-83858095D01*
X125804285Y-83667619D02*
X125851904Y-83620000D01*
X125947142Y-83572380D01*
X126185238Y-83572380D01*
X126280476Y-83620000D01*
X126328095Y-83667619D01*
X126375714Y-83762857D01*
X126375714Y-83858095D01*
X126328095Y-84000952D01*
X125756666Y-84572380D01*
X126375714Y-84572380D01*
X125348104Y-74303771D02*
X125681438Y-74303771D01*
X125824295Y-74827580D02*
X125348104Y-74827580D01*
X125348104Y-73827580D01*
X125824295Y-73827580D01*
X126252866Y-74827580D02*
X126252866Y-73827580D01*
X126824295Y-74827580D01*
X126824295Y-73827580D01*
X124867095Y-79133000D02*
X124771857Y-79085380D01*
X124629000Y-79085380D01*
X124486142Y-79133000D01*
X124390904Y-79228238D01*
X124343285Y-79323476D01*
X124295666Y-79513952D01*
X124295666Y-79656809D01*
X124343285Y-79847285D01*
X124390904Y-79942523D01*
X124486142Y-80037761D01*
X124629000Y-80085380D01*
X124724238Y-80085380D01*
X124867095Y-80037761D01*
X124914714Y-79990142D01*
X124914714Y-79656809D01*
X124724238Y-79656809D01*
X125343285Y-80085380D02*
X125343285Y-79085380D01*
X125914714Y-80085380D01*
X125914714Y-79085380D01*
X126390904Y-80085380D02*
X126390904Y-79085380D01*
X126629000Y-79085380D01*
X126771857Y-79133000D01*
X126867095Y-79228238D01*
X126914714Y-79323476D01*
X126962333Y-79513952D01*
X126962333Y-79656809D01*
X126914714Y-79847285D01*
X126867095Y-79942523D01*
X126771857Y-80037761D01*
X126629000Y-80085380D01*
X126390904Y-80085380D01*
X123998490Y-81579980D02*
X124331823Y-82579980D01*
X124665157Y-81579980D01*
X125141347Y-82579980D02*
X125046109Y-82532361D01*
X124998490Y-82484742D01*
X124950871Y-82389504D01*
X124950871Y-82103790D01*
X124998490Y-82008552D01*
X125046109Y-81960933D01*
X125141347Y-81913314D01*
X125284204Y-81913314D01*
X125379442Y-81960933D01*
X125427061Y-82008552D01*
X125474680Y-82103790D01*
X125474680Y-82389504D01*
X125427061Y-82484742D01*
X125379442Y-82532361D01*
X125284204Y-82579980D01*
X125141347Y-82579980D01*
X126331823Y-81913314D02*
X126331823Y-82579980D01*
X125903252Y-81913314D02*
X125903252Y-82437123D01*
X125950871Y-82532361D01*
X126046109Y-82579980D01*
X126188966Y-82579980D01*
X126284204Y-82532361D01*
X126331823Y-82484742D01*
X126665157Y-81913314D02*
X127046109Y-81913314D01*
X126808014Y-81579980D02*
X126808014Y-82437123D01*
X126855633Y-82532361D01*
X126950871Y-82579980D01*
X127046109Y-82579980D01*
X124898490Y-76329980D02*
X125231823Y-77329980D01*
X125565157Y-76329980D01*
X125898490Y-77329980D02*
X125898490Y-76663314D01*
X125898490Y-76329980D02*
X125850871Y-76377600D01*
X125898490Y-76425219D01*
X125946109Y-76377600D01*
X125898490Y-76329980D01*
X125898490Y-76425219D01*
X126374680Y-76663314D02*
X126374680Y-77329980D01*
X126374680Y-76758552D02*
X126422300Y-76710933D01*
X126517538Y-76663314D01*
X126660395Y-76663314D01*
X126755633Y-76710933D01*
X126803252Y-76806171D01*
X126803252Y-77329980D01*
%TO.C,U10*%
X160056854Y-112664980D02*
X160056854Y-113474504D01*
X160104473Y-113569742D01*
X160152092Y-113617361D01*
X160247330Y-113664980D01*
X160437807Y-113664980D01*
X160533045Y-113617361D01*
X160580664Y-113569742D01*
X160628283Y-113474504D01*
X160628283Y-112664980D01*
X161628283Y-113664980D02*
X161056854Y-113664980D01*
X161342569Y-113664980D02*
X161342569Y-112664980D01*
X161247330Y-112807838D01*
X161152092Y-112903076D01*
X161056854Y-112950695D01*
X162247330Y-112664980D02*
X162342569Y-112664980D01*
X162437807Y-112712600D01*
X162485426Y-112760219D01*
X162533045Y-112855457D01*
X162580664Y-113045933D01*
X162580664Y-113284028D01*
X162533045Y-113474504D01*
X162485426Y-113569742D01*
X162437807Y-113617361D01*
X162342569Y-113664980D01*
X162247330Y-113664980D01*
X162152092Y-113617361D01*
X162104473Y-113569742D01*
X162056854Y-113474504D01*
X162009235Y-113284028D01*
X162009235Y-113045933D01*
X162056854Y-112855457D01*
X162104473Y-112760219D01*
X162152092Y-112712600D01*
X162247330Y-112664980D01*
X157103950Y-106670580D02*
X157103950Y-106908676D01*
X156865854Y-106813438D02*
X157103950Y-106908676D01*
X157342045Y-106813438D01*
X156961092Y-107099152D02*
X157103950Y-106908676D01*
X157246807Y-107099152D01*
%TO.C,U7*%
X131847380Y-115226904D02*
X132656904Y-115226904D01*
X132752142Y-115179285D01*
X132799761Y-115131666D01*
X132847380Y-115036428D01*
X132847380Y-114845952D01*
X132799761Y-114750714D01*
X132752142Y-114703095D01*
X132656904Y-114655476D01*
X131847380Y-114655476D01*
X131847380Y-114274523D02*
X131847380Y-113607857D01*
X132847380Y-114036428D01*
X132327619Y-111100000D02*
X132089523Y-111100000D01*
X132184761Y-110861904D02*
X132089523Y-111100000D01*
X132184761Y-111338095D01*
X131899047Y-110957142D02*
X132089523Y-111100000D01*
X131899047Y-111242857D01*
%TO.C,U1*%
X183348095Y-72802380D02*
X183348095Y-73611904D01*
X183395714Y-73707142D01*
X183443333Y-73754761D01*
X183538571Y-73802380D01*
X183729047Y-73802380D01*
X183824285Y-73754761D01*
X183871904Y-73707142D01*
X183919523Y-73611904D01*
X183919523Y-72802380D01*
X184919523Y-73802380D02*
X184348095Y-73802380D01*
X184633809Y-73802380D02*
X184633809Y-72802380D01*
X184538571Y-72945238D01*
X184443333Y-73040476D01*
X184348095Y-73088095D01*
%TO.C,J2*%
X132916666Y-90462380D02*
X132916666Y-91176666D01*
X132869047Y-91319523D01*
X132773809Y-91414761D01*
X132630952Y-91462380D01*
X132535714Y-91462380D01*
X133345238Y-90557619D02*
X133392857Y-90510000D01*
X133488095Y-90462380D01*
X133726190Y-90462380D01*
X133821428Y-90510000D01*
X133869047Y-90557619D01*
X133916666Y-90652857D01*
X133916666Y-90748095D01*
X133869047Y-90890952D01*
X133297619Y-91462380D01*
X133916666Y-91462380D01*
%TO.C,F1*%
X109278571Y-79043333D02*
X109278571Y-79376666D01*
X109802380Y-79376666D02*
X108802380Y-79376666D01*
X108802380Y-78900476D01*
X109802380Y-77995714D02*
X109802380Y-78567142D01*
X109802380Y-78281428D02*
X108802380Y-78281428D01*
X108945238Y-78376666D01*
X109040476Y-78471904D01*
X109088095Y-78567142D01*
%TO.C,D13*%
X154235714Y-112582380D02*
X154235714Y-111582380D01*
X154473809Y-111582380D01*
X154616666Y-111630000D01*
X154711904Y-111725238D01*
X154759523Y-111820476D01*
X154807142Y-112010952D01*
X154807142Y-112153809D01*
X154759523Y-112344285D01*
X154711904Y-112439523D01*
X154616666Y-112534761D01*
X154473809Y-112582380D01*
X154235714Y-112582380D01*
X155759523Y-112582380D02*
X155188095Y-112582380D01*
X155473809Y-112582380D02*
X155473809Y-111582380D01*
X155378571Y-111725238D01*
X155283333Y-111820476D01*
X155188095Y-111868095D01*
X156092857Y-111582380D02*
X156711904Y-111582380D01*
X156378571Y-111963333D01*
X156521428Y-111963333D01*
X156616666Y-112010952D01*
X156664285Y-112058571D01*
X156711904Y-112153809D01*
X156711904Y-112391904D01*
X156664285Y-112487142D01*
X156616666Y-112534761D01*
X156521428Y-112582380D01*
X156235714Y-112582380D01*
X156140476Y-112534761D01*
X156092857Y-112487142D01*
%TO.C,D12*%
X151925714Y-108142380D02*
X151925714Y-107142380D01*
X152163809Y-107142380D01*
X152306666Y-107190000D01*
X152401904Y-107285238D01*
X152449523Y-107380476D01*
X152497142Y-107570952D01*
X152497142Y-107713809D01*
X152449523Y-107904285D01*
X152401904Y-107999523D01*
X152306666Y-108094761D01*
X152163809Y-108142380D01*
X151925714Y-108142380D01*
X153449523Y-108142380D02*
X152878095Y-108142380D01*
X153163809Y-108142380D02*
X153163809Y-107142380D01*
X153068571Y-107285238D01*
X152973333Y-107380476D01*
X152878095Y-107428095D01*
X153830476Y-107237619D02*
X153878095Y-107190000D01*
X153973333Y-107142380D01*
X154211428Y-107142380D01*
X154306666Y-107190000D01*
X154354285Y-107237619D01*
X154401904Y-107332857D01*
X154401904Y-107428095D01*
X154354285Y-107570952D01*
X153782857Y-108142380D01*
X154401904Y-108142380D01*
%TO.C,D11*%
X151105714Y-100422380D02*
X151105714Y-99422380D01*
X151343809Y-99422380D01*
X151486666Y-99470000D01*
X151581904Y-99565238D01*
X151629523Y-99660476D01*
X151677142Y-99850952D01*
X151677142Y-99993809D01*
X151629523Y-100184285D01*
X151581904Y-100279523D01*
X151486666Y-100374761D01*
X151343809Y-100422380D01*
X151105714Y-100422380D01*
X152629523Y-100422380D02*
X152058095Y-100422380D01*
X152343809Y-100422380D02*
X152343809Y-99422380D01*
X152248571Y-99565238D01*
X152153333Y-99660476D01*
X152058095Y-99708095D01*
X153581904Y-100422380D02*
X153010476Y-100422380D01*
X153296190Y-100422380D02*
X153296190Y-99422380D01*
X153200952Y-99565238D01*
X153105714Y-99660476D01*
X153010476Y-99708095D01*
%TO.C,C19*%
X133197142Y-87812857D02*
X133244761Y-87860476D01*
X133292380Y-88003333D01*
X133292380Y-88098571D01*
X133244761Y-88241428D01*
X133149523Y-88336666D01*
X133054285Y-88384285D01*
X132863809Y-88431904D01*
X132720952Y-88431904D01*
X132530476Y-88384285D01*
X132435238Y-88336666D01*
X132340000Y-88241428D01*
X132292380Y-88098571D01*
X132292380Y-88003333D01*
X132340000Y-87860476D01*
X132387619Y-87812857D01*
X133292380Y-86860476D02*
X133292380Y-87431904D01*
X133292380Y-87146190D02*
X132292380Y-87146190D01*
X132435238Y-87241428D01*
X132530476Y-87336666D01*
X132578095Y-87431904D01*
X133292380Y-86384285D02*
X133292380Y-86193809D01*
X133244761Y-86098571D01*
X133197142Y-86050952D01*
X133054285Y-85955714D01*
X132863809Y-85908095D01*
X132482857Y-85908095D01*
X132387619Y-85955714D01*
X132340000Y-86003333D01*
X132292380Y-86098571D01*
X132292380Y-86289047D01*
X132340000Y-86384285D01*
X132387619Y-86431904D01*
X132482857Y-86479523D01*
X132720952Y-86479523D01*
X132816190Y-86431904D01*
X132863809Y-86384285D01*
X132911428Y-86289047D01*
X132911428Y-86098571D01*
X132863809Y-86003333D01*
X132816190Y-85955714D01*
X132720952Y-85908095D01*
%TO.C,C17*%
X126947142Y-87562857D02*
X126994761Y-87610476D01*
X127042380Y-87753333D01*
X127042380Y-87848571D01*
X126994761Y-87991428D01*
X126899523Y-88086666D01*
X126804285Y-88134285D01*
X126613809Y-88181904D01*
X126470952Y-88181904D01*
X126280476Y-88134285D01*
X126185238Y-88086666D01*
X126090000Y-87991428D01*
X126042380Y-87848571D01*
X126042380Y-87753333D01*
X126090000Y-87610476D01*
X126137619Y-87562857D01*
X127042380Y-86610476D02*
X127042380Y-87181904D01*
X127042380Y-86896190D02*
X126042380Y-86896190D01*
X126185238Y-86991428D01*
X126280476Y-87086666D01*
X126328095Y-87181904D01*
X126042380Y-86277142D02*
X126042380Y-85610476D01*
X127042380Y-86039047D01*
%TO.C,C11*%
X156769642Y-119067142D02*
X156722023Y-119114761D01*
X156579166Y-119162380D01*
X156483928Y-119162380D01*
X156341071Y-119114761D01*
X156245833Y-119019523D01*
X156198214Y-118924285D01*
X156150595Y-118733809D01*
X156150595Y-118590952D01*
X156198214Y-118400476D01*
X156245833Y-118305238D01*
X156341071Y-118210000D01*
X156483928Y-118162380D01*
X156579166Y-118162380D01*
X156722023Y-118210000D01*
X156769642Y-118257619D01*
X157722023Y-119162380D02*
X157150595Y-119162380D01*
X157436309Y-119162380D02*
X157436309Y-118162380D01*
X157341071Y-118305238D01*
X157245833Y-118400476D01*
X157150595Y-118448095D01*
X158674404Y-119162380D02*
X158102976Y-119162380D01*
X158388690Y-119162380D02*
X158388690Y-118162380D01*
X158293452Y-118305238D01*
X158198214Y-118400476D01*
X158102976Y-118448095D01*
%TO.C,R25*%
X164965142Y-81606380D02*
X164631809Y-81130190D01*
X164393714Y-81606380D02*
X164393714Y-80606380D01*
X164774666Y-80606380D01*
X164869904Y-80654000D01*
X164917523Y-80701619D01*
X164965142Y-80796857D01*
X164965142Y-80939714D01*
X164917523Y-81034952D01*
X164869904Y-81082571D01*
X164774666Y-81130190D01*
X164393714Y-81130190D01*
X165346095Y-80701619D02*
X165393714Y-80654000D01*
X165488952Y-80606380D01*
X165727047Y-80606380D01*
X165822285Y-80654000D01*
X165869904Y-80701619D01*
X165917523Y-80796857D01*
X165917523Y-80892095D01*
X165869904Y-81034952D01*
X165298476Y-81606380D01*
X165917523Y-81606380D01*
X166822285Y-80606380D02*
X166346095Y-80606380D01*
X166298476Y-81082571D01*
X166346095Y-81034952D01*
X166441333Y-80987333D01*
X166679428Y-80987333D01*
X166774666Y-81034952D01*
X166822285Y-81082571D01*
X166869904Y-81177809D01*
X166869904Y-81415904D01*
X166822285Y-81511142D01*
X166774666Y-81558761D01*
X166679428Y-81606380D01*
X166441333Y-81606380D01*
X166346095Y-81558761D01*
X166298476Y-81511142D01*
%TO.C,D18*%
X117712380Y-79862285D02*
X116712380Y-79862285D01*
X116712380Y-79624190D01*
X116760000Y-79481333D01*
X116855238Y-79386095D01*
X116950476Y-79338476D01*
X117140952Y-79290857D01*
X117283809Y-79290857D01*
X117474285Y-79338476D01*
X117569523Y-79386095D01*
X117664761Y-79481333D01*
X117712380Y-79624190D01*
X117712380Y-79862285D01*
X117712380Y-78338476D02*
X117712380Y-78909904D01*
X117712380Y-78624190D02*
X116712380Y-78624190D01*
X116855238Y-78719428D01*
X116950476Y-78814666D01*
X116998095Y-78909904D01*
X117140952Y-77767047D02*
X117093333Y-77862285D01*
X117045714Y-77909904D01*
X116950476Y-77957523D01*
X116902857Y-77957523D01*
X116807619Y-77909904D01*
X116760000Y-77862285D01*
X116712380Y-77767047D01*
X116712380Y-77576571D01*
X116760000Y-77481333D01*
X116807619Y-77433714D01*
X116902857Y-77386095D01*
X116950476Y-77386095D01*
X117045714Y-77433714D01*
X117093333Y-77481333D01*
X117140952Y-77576571D01*
X117140952Y-77767047D01*
X117188571Y-77862285D01*
X117236190Y-77909904D01*
X117331428Y-77957523D01*
X117521904Y-77957523D01*
X117617142Y-77909904D01*
X117664761Y-77862285D01*
X117712380Y-77767047D01*
X117712380Y-77576571D01*
X117664761Y-77481333D01*
X117617142Y-77433714D01*
X117521904Y-77386095D01*
X117331428Y-77386095D01*
X117236190Y-77433714D01*
X117188571Y-77481333D01*
X117140952Y-77576571D01*
%TO.C,R21*%
X164662380Y-86494857D02*
X164186190Y-86828190D01*
X164662380Y-87066285D02*
X163662380Y-87066285D01*
X163662380Y-86685333D01*
X163710000Y-86590095D01*
X163757619Y-86542476D01*
X163852857Y-86494857D01*
X163995714Y-86494857D01*
X164090952Y-86542476D01*
X164138571Y-86590095D01*
X164186190Y-86685333D01*
X164186190Y-87066285D01*
X163757619Y-86113904D02*
X163710000Y-86066285D01*
X163662380Y-85971047D01*
X163662380Y-85732952D01*
X163710000Y-85637714D01*
X163757619Y-85590095D01*
X163852857Y-85542476D01*
X163948095Y-85542476D01*
X164090952Y-85590095D01*
X164662380Y-86161523D01*
X164662380Y-85542476D01*
X164662380Y-84590095D02*
X164662380Y-85161523D01*
X164662380Y-84875809D02*
X163662380Y-84875809D01*
X163805238Y-84971047D01*
X163900476Y-85066285D01*
X163948095Y-85161523D01*
%TO.C,C2*%
X123166142Y-110656666D02*
X123213761Y-110704285D01*
X123261380Y-110847142D01*
X123261380Y-110942380D01*
X123213761Y-111085238D01*
X123118523Y-111180476D01*
X123023285Y-111228095D01*
X122832809Y-111275714D01*
X122689952Y-111275714D01*
X122499476Y-111228095D01*
X122404238Y-111180476D01*
X122309000Y-111085238D01*
X122261380Y-110942380D01*
X122261380Y-110847142D01*
X122309000Y-110704285D01*
X122356619Y-110656666D01*
X122356619Y-110275714D02*
X122309000Y-110228095D01*
X122261380Y-110132857D01*
X122261380Y-109894761D01*
X122309000Y-109799523D01*
X122356619Y-109751904D01*
X122451857Y-109704285D01*
X122547095Y-109704285D01*
X122689952Y-109751904D01*
X123261380Y-110323333D01*
X123261380Y-109704285D01*
%TO.C,C14*%
X135677142Y-103547142D02*
X135629523Y-103594761D01*
X135486666Y-103642380D01*
X135391428Y-103642380D01*
X135248571Y-103594761D01*
X135153333Y-103499523D01*
X135105714Y-103404285D01*
X135058095Y-103213809D01*
X135058095Y-103070952D01*
X135105714Y-102880476D01*
X135153333Y-102785238D01*
X135248571Y-102690000D01*
X135391428Y-102642380D01*
X135486666Y-102642380D01*
X135629523Y-102690000D01*
X135677142Y-102737619D01*
X136629523Y-103642380D02*
X136058095Y-103642380D01*
X136343809Y-103642380D02*
X136343809Y-102642380D01*
X136248571Y-102785238D01*
X136153333Y-102880476D01*
X136058095Y-102928095D01*
X137486666Y-102975714D02*
X137486666Y-103642380D01*
X137248571Y-102594761D02*
X137010476Y-103309047D01*
X137629523Y-103309047D01*
%TO.C,U6*%
X133001800Y-104354380D02*
X133001800Y-105163904D01*
X133049419Y-105259142D01*
X133097038Y-105306761D01*
X133192276Y-105354380D01*
X133382752Y-105354380D01*
X133477990Y-105306761D01*
X133525609Y-105259142D01*
X133573228Y-105163904D01*
X133573228Y-104354380D01*
X134477990Y-104354380D02*
X134287514Y-104354380D01*
X134192276Y-104402000D01*
X134144657Y-104449619D01*
X134049419Y-104592476D01*
X134001800Y-104782952D01*
X134001800Y-105163904D01*
X134049419Y-105259142D01*
X134097038Y-105306761D01*
X134192276Y-105354380D01*
X134382752Y-105354380D01*
X134477990Y-105306761D01*
X134525609Y-105259142D01*
X134573228Y-105163904D01*
X134573228Y-104925809D01*
X134525609Y-104830571D01*
X134477990Y-104782952D01*
X134382752Y-104735333D01*
X134192276Y-104735333D01*
X134097038Y-104782952D01*
X134049419Y-104830571D01*
X134001800Y-104925809D01*
X134782000Y-109942380D02*
X134782000Y-110180476D01*
X134543904Y-110085238D02*
X134782000Y-110180476D01*
X135020095Y-110085238D01*
X134639142Y-110370952D02*
X134782000Y-110180476D01*
X134924857Y-110370952D01*
X134782000Y-109942380D02*
X134782000Y-110180476D01*
X134543904Y-110085238D02*
X134782000Y-110180476D01*
X135020095Y-110085238D01*
X134639142Y-110370952D02*
X134782000Y-110180476D01*
X134924857Y-110370952D01*
%TO.C,C7*%
X150373142Y-93638666D02*
X150420761Y-93686285D01*
X150468380Y-93829142D01*
X150468380Y-93924380D01*
X150420761Y-94067238D01*
X150325523Y-94162476D01*
X150230285Y-94210095D01*
X150039809Y-94257714D01*
X149896952Y-94257714D01*
X149706476Y-94210095D01*
X149611238Y-94162476D01*
X149516000Y-94067238D01*
X149468380Y-93924380D01*
X149468380Y-93829142D01*
X149516000Y-93686285D01*
X149563619Y-93638666D01*
X149468380Y-93305333D02*
X149468380Y-92638666D01*
X150468380Y-93067238D01*
%TO.C,R26*%
X155805142Y-82114380D02*
X155471809Y-81638190D01*
X155233714Y-82114380D02*
X155233714Y-81114380D01*
X155614666Y-81114380D01*
X155709904Y-81162000D01*
X155757523Y-81209619D01*
X155805142Y-81304857D01*
X155805142Y-81447714D01*
X155757523Y-81542952D01*
X155709904Y-81590571D01*
X155614666Y-81638190D01*
X155233714Y-81638190D01*
X156186095Y-81209619D02*
X156233714Y-81162000D01*
X156328952Y-81114380D01*
X156567047Y-81114380D01*
X156662285Y-81162000D01*
X156709904Y-81209619D01*
X156757523Y-81304857D01*
X156757523Y-81400095D01*
X156709904Y-81542952D01*
X156138476Y-82114380D01*
X156757523Y-82114380D01*
X157614666Y-81114380D02*
X157424190Y-81114380D01*
X157328952Y-81162000D01*
X157281333Y-81209619D01*
X157186095Y-81352476D01*
X157138476Y-81542952D01*
X157138476Y-81923904D01*
X157186095Y-82019142D01*
X157233714Y-82066761D01*
X157328952Y-82114380D01*
X157519428Y-82114380D01*
X157614666Y-82066761D01*
X157662285Y-82019142D01*
X157709904Y-81923904D01*
X157709904Y-81685809D01*
X157662285Y-81590571D01*
X157614666Y-81542952D01*
X157519428Y-81495333D01*
X157328952Y-81495333D01*
X157233714Y-81542952D01*
X157186095Y-81590571D01*
X157138476Y-81685809D01*
%TO.C,D14*%
X129341714Y-101504380D02*
X129341714Y-100504380D01*
X129579809Y-100504380D01*
X129722666Y-100552000D01*
X129817904Y-100647238D01*
X129865523Y-100742476D01*
X129913142Y-100932952D01*
X129913142Y-101075809D01*
X129865523Y-101266285D01*
X129817904Y-101361523D01*
X129722666Y-101456761D01*
X129579809Y-101504380D01*
X129341714Y-101504380D01*
X130865523Y-101504380D02*
X130294095Y-101504380D01*
X130579809Y-101504380D02*
X130579809Y-100504380D01*
X130484571Y-100647238D01*
X130389333Y-100742476D01*
X130294095Y-100790095D01*
X131722666Y-100837714D02*
X131722666Y-101504380D01*
X131484571Y-100456761D02*
X131246476Y-101171047D01*
X131865523Y-101171047D01*
%TO.C,D17*%
X109842380Y-75004285D02*
X108842380Y-75004285D01*
X108842380Y-74766190D01*
X108890000Y-74623333D01*
X108985238Y-74528095D01*
X109080476Y-74480476D01*
X109270952Y-74432857D01*
X109413809Y-74432857D01*
X109604285Y-74480476D01*
X109699523Y-74528095D01*
X109794761Y-74623333D01*
X109842380Y-74766190D01*
X109842380Y-75004285D01*
X109842380Y-73480476D02*
X109842380Y-74051904D01*
X109842380Y-73766190D02*
X108842380Y-73766190D01*
X108985238Y-73861428D01*
X109080476Y-73956666D01*
X109128095Y-74051904D01*
X108842380Y-73147142D02*
X108842380Y-72480476D01*
X109842380Y-72909047D01*
%TO.C,U3*%
X139939533Y-108722423D02*
X139939533Y-109531947D01*
X139987152Y-109627185D01*
X140034771Y-109674804D01*
X140130009Y-109722423D01*
X140320485Y-109722423D01*
X140415723Y-109674804D01*
X140463342Y-109627185D01*
X140510961Y-109531947D01*
X140510961Y-108722423D01*
X140891914Y-108722423D02*
X141510961Y-108722423D01*
X141177628Y-109103376D01*
X141320485Y-109103376D01*
X141415723Y-109150995D01*
X141463342Y-109198614D01*
X141510961Y-109293852D01*
X141510961Y-109531947D01*
X141463342Y-109627185D01*
X141415723Y-109674804D01*
X141320485Y-109722423D01*
X141034771Y-109722423D01*
X140939533Y-109674804D01*
X140891914Y-109627185D01*
X138176000Y-105624380D02*
X138176000Y-105862476D01*
X137937904Y-105767238D02*
X138176000Y-105862476D01*
X138414095Y-105767238D01*
X138033142Y-106052952D02*
X138176000Y-105862476D01*
X138318857Y-106052952D01*
X138176000Y-105624380D02*
X138176000Y-105862476D01*
X137937904Y-105767238D02*
X138176000Y-105862476D01*
X138414095Y-105767238D01*
X138033142Y-106052952D02*
X138176000Y-105862476D01*
X138318857Y-106052952D01*
%TO.C,C8*%
X145137142Y-93638666D02*
X145184761Y-93686285D01*
X145232380Y-93829142D01*
X145232380Y-93924380D01*
X145184761Y-94067238D01*
X145089523Y-94162476D01*
X144994285Y-94210095D01*
X144803809Y-94257714D01*
X144660952Y-94257714D01*
X144470476Y-94210095D01*
X144375238Y-94162476D01*
X144280000Y-94067238D01*
X144232380Y-93924380D01*
X144232380Y-93829142D01*
X144280000Y-93686285D01*
X144327619Y-93638666D01*
X144660952Y-93067238D02*
X144613333Y-93162476D01*
X144565714Y-93210095D01*
X144470476Y-93257714D01*
X144422857Y-93257714D01*
X144327619Y-93210095D01*
X144280000Y-93162476D01*
X144232380Y-93067238D01*
X144232380Y-92876761D01*
X144280000Y-92781523D01*
X144327619Y-92733904D01*
X144422857Y-92686285D01*
X144470476Y-92686285D01*
X144565714Y-92733904D01*
X144613333Y-92781523D01*
X144660952Y-92876761D01*
X144660952Y-93067238D01*
X144708571Y-93162476D01*
X144756190Y-93210095D01*
X144851428Y-93257714D01*
X145041904Y-93257714D01*
X145137142Y-93210095D01*
X145184761Y-93162476D01*
X145232380Y-93067238D01*
X145232380Y-92876761D01*
X145184761Y-92781523D01*
X145137142Y-92733904D01*
X145041904Y-92686285D01*
X144851428Y-92686285D01*
X144756190Y-92733904D01*
X144708571Y-92781523D01*
X144660952Y-92876761D01*
%TO.C,Q9*%
X167036761Y-89955619D02*
X166941523Y-89908000D01*
X166846285Y-89812761D01*
X166703428Y-89669904D01*
X166608190Y-89622285D01*
X166512952Y-89622285D01*
X166560571Y-89860380D02*
X166465333Y-89812761D01*
X166370095Y-89717523D01*
X166322476Y-89527047D01*
X166322476Y-89193714D01*
X166370095Y-89003238D01*
X166465333Y-88908000D01*
X166560571Y-88860380D01*
X166751047Y-88860380D01*
X166846285Y-88908000D01*
X166941523Y-89003238D01*
X166989142Y-89193714D01*
X166989142Y-89527047D01*
X166941523Y-89717523D01*
X166846285Y-89812761D01*
X166751047Y-89860380D01*
X166560571Y-89860380D01*
X167465333Y-89860380D02*
X167655809Y-89860380D01*
X167751047Y-89812761D01*
X167798666Y-89765142D01*
X167893904Y-89622285D01*
X167941523Y-89431809D01*
X167941523Y-89050857D01*
X167893904Y-88955619D01*
X167846285Y-88908000D01*
X167751047Y-88860380D01*
X167560571Y-88860380D01*
X167465333Y-88908000D01*
X167417714Y-88955619D01*
X167370095Y-89050857D01*
X167370095Y-89288952D01*
X167417714Y-89384190D01*
X167465333Y-89431809D01*
X167560571Y-89479428D01*
X167751047Y-89479428D01*
X167846285Y-89431809D01*
X167893904Y-89384190D01*
X167941523Y-89288952D01*
%TO.C,Q7*%
X157306261Y-93879619D02*
X157211023Y-93832000D01*
X157115785Y-93736761D01*
X156972928Y-93593904D01*
X156877690Y-93546285D01*
X156782452Y-93546285D01*
X156830071Y-93784380D02*
X156734833Y-93736761D01*
X156639595Y-93641523D01*
X156591976Y-93451047D01*
X156591976Y-93117714D01*
X156639595Y-92927238D01*
X156734833Y-92832000D01*
X156830071Y-92784380D01*
X157020547Y-92784380D01*
X157115785Y-92832000D01*
X157211023Y-92927238D01*
X157258642Y-93117714D01*
X157258642Y-93451047D01*
X157211023Y-93641523D01*
X157115785Y-93736761D01*
X157020547Y-93784380D01*
X156830071Y-93784380D01*
X157591976Y-92784380D02*
X158258642Y-92784380D01*
X157830071Y-93784380D01*
%TO.C,U8*%
X159766095Y-76578380D02*
X159766095Y-77387904D01*
X159813714Y-77483142D01*
X159861333Y-77530761D01*
X159956571Y-77578380D01*
X160147047Y-77578380D01*
X160242285Y-77530761D01*
X160289904Y-77483142D01*
X160337523Y-77387904D01*
X160337523Y-76578380D01*
X160956571Y-77006952D02*
X160861333Y-76959333D01*
X160813714Y-76911714D01*
X160766095Y-76816476D01*
X160766095Y-76768857D01*
X160813714Y-76673619D01*
X160861333Y-76626000D01*
X160956571Y-76578380D01*
X161147047Y-76578380D01*
X161242285Y-76626000D01*
X161289904Y-76673619D01*
X161337523Y-76768857D01*
X161337523Y-76816476D01*
X161289904Y-76911714D01*
X161242285Y-76959333D01*
X161147047Y-77006952D01*
X160956571Y-77006952D01*
X160861333Y-77054571D01*
X160813714Y-77102190D01*
X160766095Y-77197428D01*
X160766095Y-77387904D01*
X160813714Y-77483142D01*
X160861333Y-77530761D01*
X160956571Y-77578380D01*
X161147047Y-77578380D01*
X161242285Y-77530761D01*
X161289904Y-77483142D01*
X161337523Y-77387904D01*
X161337523Y-77197428D01*
X161289904Y-77102190D01*
X161242285Y-77054571D01*
X161147047Y-77006952D01*
%TO.C,R34*%
X135637142Y-96182380D02*
X135303809Y-95706190D01*
X135065714Y-96182380D02*
X135065714Y-95182380D01*
X135446666Y-95182380D01*
X135541904Y-95230000D01*
X135589523Y-95277619D01*
X135637142Y-95372857D01*
X135637142Y-95515714D01*
X135589523Y-95610952D01*
X135541904Y-95658571D01*
X135446666Y-95706190D01*
X135065714Y-95706190D01*
X135970476Y-95182380D02*
X136589523Y-95182380D01*
X136256190Y-95563333D01*
X136399047Y-95563333D01*
X136494285Y-95610952D01*
X136541904Y-95658571D01*
X136589523Y-95753809D01*
X136589523Y-95991904D01*
X136541904Y-96087142D01*
X136494285Y-96134761D01*
X136399047Y-96182380D01*
X136113333Y-96182380D01*
X136018095Y-96134761D01*
X135970476Y-96087142D01*
X137446666Y-95515714D02*
X137446666Y-96182380D01*
X137208571Y-95134761D02*
X136970476Y-95849047D01*
X137589523Y-95849047D01*
%TO.C,J1*%
X122152380Y-99653333D02*
X122866666Y-99653333D01*
X123009523Y-99700952D01*
X123104761Y-99796190D01*
X123152380Y-99939047D01*
X123152380Y-100034285D01*
X123152380Y-98653333D02*
X123152380Y-99224761D01*
X123152380Y-98939047D02*
X122152380Y-98939047D01*
X122295238Y-99034285D01*
X122390476Y-99129523D01*
X122438095Y-99224761D01*
%TO.C,C4*%
X124691333Y-120057142D02*
X124643714Y-120104761D01*
X124500857Y-120152380D01*
X124405619Y-120152380D01*
X124262761Y-120104761D01*
X124167523Y-120009523D01*
X124119904Y-119914285D01*
X124072285Y-119723809D01*
X124072285Y-119580952D01*
X124119904Y-119390476D01*
X124167523Y-119295238D01*
X124262761Y-119200000D01*
X124405619Y-119152380D01*
X124500857Y-119152380D01*
X124643714Y-119200000D01*
X124691333Y-119247619D01*
X125548476Y-119485714D02*
X125548476Y-120152380D01*
X125310380Y-119104761D02*
X125072285Y-119819047D01*
X125691333Y-119819047D01*
%TO.C,C13*%
X139177142Y-96117142D02*
X139129523Y-96164761D01*
X138986666Y-96212380D01*
X138891428Y-96212380D01*
X138748571Y-96164761D01*
X138653333Y-96069523D01*
X138605714Y-95974285D01*
X138558095Y-95783809D01*
X138558095Y-95640952D01*
X138605714Y-95450476D01*
X138653333Y-95355238D01*
X138748571Y-95260000D01*
X138891428Y-95212380D01*
X138986666Y-95212380D01*
X139129523Y-95260000D01*
X139177142Y-95307619D01*
X140129523Y-96212380D02*
X139558095Y-96212380D01*
X139843809Y-96212380D02*
X139843809Y-95212380D01*
X139748571Y-95355238D01*
X139653333Y-95450476D01*
X139558095Y-95498095D01*
X140462857Y-95212380D02*
X141081904Y-95212380D01*
X140748571Y-95593333D01*
X140891428Y-95593333D01*
X140986666Y-95640952D01*
X141034285Y-95688571D01*
X141081904Y-95783809D01*
X141081904Y-96021904D01*
X141034285Y-96117142D01*
X140986666Y-96164761D01*
X140891428Y-96212380D01*
X140605714Y-96212380D01*
X140510476Y-96164761D01*
X140462857Y-96117142D01*
%TO.C,Q10*%
X167918571Y-79897619D02*
X167823333Y-79850000D01*
X167728095Y-79754761D01*
X167585238Y-79611904D01*
X167490000Y-79564285D01*
X167394761Y-79564285D01*
X167442380Y-79802380D02*
X167347142Y-79754761D01*
X167251904Y-79659523D01*
X167204285Y-79469047D01*
X167204285Y-79135714D01*
X167251904Y-78945238D01*
X167347142Y-78850000D01*
X167442380Y-78802380D01*
X167632857Y-78802380D01*
X167728095Y-78850000D01*
X167823333Y-78945238D01*
X167870952Y-79135714D01*
X167870952Y-79469047D01*
X167823333Y-79659523D01*
X167728095Y-79754761D01*
X167632857Y-79802380D01*
X167442380Y-79802380D01*
X168823333Y-79802380D02*
X168251904Y-79802380D01*
X168537619Y-79802380D02*
X168537619Y-78802380D01*
X168442380Y-78945238D01*
X168347142Y-79040476D01*
X168251904Y-79088095D01*
X169442380Y-78802380D02*
X169537619Y-78802380D01*
X169632857Y-78850000D01*
X169680476Y-78897619D01*
X169728095Y-78992857D01*
X169775714Y-79183333D01*
X169775714Y-79421428D01*
X169728095Y-79611904D01*
X169680476Y-79707142D01*
X169632857Y-79754761D01*
X169537619Y-79802380D01*
X169442380Y-79802380D01*
X169347142Y-79754761D01*
X169299523Y-79707142D01*
X169251904Y-79611904D01*
X169204285Y-79421428D01*
X169204285Y-79183333D01*
X169251904Y-78992857D01*
X169299523Y-78897619D01*
X169347142Y-78850000D01*
X169442380Y-78802380D01*
%TO.C,R5*%
X120737333Y-117292380D02*
X120404000Y-116816190D01*
X120165904Y-117292380D02*
X120165904Y-116292380D01*
X120546857Y-116292380D01*
X120642095Y-116340000D01*
X120689714Y-116387619D01*
X120737333Y-116482857D01*
X120737333Y-116625714D01*
X120689714Y-116720952D01*
X120642095Y-116768571D01*
X120546857Y-116816190D01*
X120165904Y-116816190D01*
X121642095Y-116292380D02*
X121165904Y-116292380D01*
X121118285Y-116768571D01*
X121165904Y-116720952D01*
X121261142Y-116673333D01*
X121499238Y-116673333D01*
X121594476Y-116720952D01*
X121642095Y-116768571D01*
X121689714Y-116863809D01*
X121689714Y-117101904D01*
X121642095Y-117197142D01*
X121594476Y-117244761D01*
X121499238Y-117292380D01*
X121261142Y-117292380D01*
X121165904Y-117244761D01*
X121118285Y-117197142D01*
%TO.C,Q3*%
X178207619Y-77819238D02*
X178160000Y-77914476D01*
X178064761Y-78009714D01*
X177921904Y-78152571D01*
X177874285Y-78247809D01*
X177874285Y-78343047D01*
X178112380Y-78295428D02*
X178064761Y-78390666D01*
X177969523Y-78485904D01*
X177779047Y-78533523D01*
X177445714Y-78533523D01*
X177255238Y-78485904D01*
X177160000Y-78390666D01*
X177112380Y-78295428D01*
X177112380Y-78104952D01*
X177160000Y-78009714D01*
X177255238Y-77914476D01*
X177445714Y-77866857D01*
X177779047Y-77866857D01*
X177969523Y-77914476D01*
X178064761Y-78009714D01*
X178112380Y-78104952D01*
X178112380Y-78295428D01*
X177112380Y-77533523D02*
X177112380Y-76914476D01*
X177493333Y-77247809D01*
X177493333Y-77104952D01*
X177540952Y-77009714D01*
X177588571Y-76962095D01*
X177683809Y-76914476D01*
X177921904Y-76914476D01*
X178017142Y-76962095D01*
X178064761Y-77009714D01*
X178112380Y-77104952D01*
X178112380Y-77390666D01*
X178064761Y-77485904D01*
X178017142Y-77533523D01*
%TO.C,U2*%
X139566495Y-113009280D02*
X139566495Y-113818804D01*
X139614114Y-113914042D01*
X139661733Y-113961661D01*
X139756971Y-114009280D01*
X139947447Y-114009280D01*
X140042685Y-113961661D01*
X140090304Y-113914042D01*
X140137923Y-113818804D01*
X140137923Y-113009280D01*
X140566495Y-113104519D02*
X140614114Y-113056900D01*
X140709352Y-113009280D01*
X140947447Y-113009280D01*
X141042685Y-113056900D01*
X141090304Y-113104519D01*
X141137923Y-113199757D01*
X141137923Y-113294995D01*
X141090304Y-113437852D01*
X140518876Y-114009280D01*
X141137923Y-114009280D01*
X138176000Y-109688380D02*
X138176000Y-109926476D01*
X137937904Y-109831238D02*
X138176000Y-109926476D01*
X138414095Y-109831238D01*
X138033142Y-110116952D02*
X138176000Y-109926476D01*
X138318857Y-110116952D01*
X138176000Y-109688380D02*
X138176000Y-109926476D01*
X137937904Y-109831238D02*
X138176000Y-109926476D01*
X138414095Y-109831238D01*
X138033142Y-110116952D02*
X138176000Y-109926476D01*
X138318857Y-110116952D01*
%TO.C,C6*%
X140647142Y-89076666D02*
X140694761Y-89124285D01*
X140742380Y-89267142D01*
X140742380Y-89362380D01*
X140694761Y-89505238D01*
X140599523Y-89600476D01*
X140504285Y-89648095D01*
X140313809Y-89695714D01*
X140170952Y-89695714D01*
X139980476Y-89648095D01*
X139885238Y-89600476D01*
X139790000Y-89505238D01*
X139742380Y-89362380D01*
X139742380Y-89267142D01*
X139790000Y-89124285D01*
X139837619Y-89076666D01*
X139742380Y-88219523D02*
X139742380Y-88410000D01*
X139790000Y-88505238D01*
X139837619Y-88552857D01*
X139980476Y-88648095D01*
X140170952Y-88695714D01*
X140551904Y-88695714D01*
X140647142Y-88648095D01*
X140694761Y-88600476D01*
X140742380Y-88505238D01*
X140742380Y-88314761D01*
X140694761Y-88219523D01*
X140647142Y-88171904D01*
X140551904Y-88124285D01*
X140313809Y-88124285D01*
X140218571Y-88171904D01*
X140170952Y-88219523D01*
X140123333Y-88314761D01*
X140123333Y-88505238D01*
X140170952Y-88600476D01*
X140218571Y-88648095D01*
X140313809Y-88695714D01*
%TO.C,Q4*%
X169544761Y-90177619D02*
X169449523Y-90130000D01*
X169354285Y-90034761D01*
X169211428Y-89891904D01*
X169116190Y-89844285D01*
X169020952Y-89844285D01*
X169068571Y-90082380D02*
X168973333Y-90034761D01*
X168878095Y-89939523D01*
X168830476Y-89749047D01*
X168830476Y-89415714D01*
X168878095Y-89225238D01*
X168973333Y-89130000D01*
X169068571Y-89082380D01*
X169259047Y-89082380D01*
X169354285Y-89130000D01*
X169449523Y-89225238D01*
X169497142Y-89415714D01*
X169497142Y-89749047D01*
X169449523Y-89939523D01*
X169354285Y-90034761D01*
X169259047Y-90082380D01*
X169068571Y-90082380D01*
X170354285Y-89415714D02*
X170354285Y-90082380D01*
X170116190Y-89034761D02*
X169878095Y-89749047D01*
X170497142Y-89749047D01*
%TO.C,R18*%
X151836380Y-88018857D02*
X151360190Y-88352190D01*
X151836380Y-88590285D02*
X150836380Y-88590285D01*
X150836380Y-88209333D01*
X150884000Y-88114095D01*
X150931619Y-88066476D01*
X151026857Y-88018857D01*
X151169714Y-88018857D01*
X151264952Y-88066476D01*
X151312571Y-88114095D01*
X151360190Y-88209333D01*
X151360190Y-88590285D01*
X151836380Y-87066476D02*
X151836380Y-87637904D01*
X151836380Y-87352190D02*
X150836380Y-87352190D01*
X150979238Y-87447428D01*
X151074476Y-87542666D01*
X151122095Y-87637904D01*
X151264952Y-86495047D02*
X151217333Y-86590285D01*
X151169714Y-86637904D01*
X151074476Y-86685523D01*
X151026857Y-86685523D01*
X150931619Y-86637904D01*
X150884000Y-86590285D01*
X150836380Y-86495047D01*
X150836380Y-86304571D01*
X150884000Y-86209333D01*
X150931619Y-86161714D01*
X151026857Y-86114095D01*
X151074476Y-86114095D01*
X151169714Y-86161714D01*
X151217333Y-86209333D01*
X151264952Y-86304571D01*
X151264952Y-86495047D01*
X151312571Y-86590285D01*
X151360190Y-86637904D01*
X151455428Y-86685523D01*
X151645904Y-86685523D01*
X151741142Y-86637904D01*
X151788761Y-86590285D01*
X151836380Y-86495047D01*
X151836380Y-86304571D01*
X151788761Y-86209333D01*
X151741142Y-86161714D01*
X151645904Y-86114095D01*
X151455428Y-86114095D01*
X151360190Y-86161714D01*
X151312571Y-86209333D01*
X151264952Y-86304571D01*
%TO.C,R10*%
X153492206Y-77668380D02*
X153158873Y-77192190D01*
X152920778Y-77668380D02*
X152920778Y-76668380D01*
X153301730Y-76668380D01*
X153396968Y-76716000D01*
X153444587Y-76763619D01*
X153492206Y-76858857D01*
X153492206Y-77001714D01*
X153444587Y-77096952D01*
X153396968Y-77144571D01*
X153301730Y-77192190D01*
X152920778Y-77192190D01*
X154444587Y-77668380D02*
X153873159Y-77668380D01*
X154158873Y-77668380D02*
X154158873Y-76668380D01*
X154063635Y-76811238D01*
X153968397Y-76906476D01*
X153873159Y-76954095D01*
X155063635Y-76668380D02*
X155158873Y-76668380D01*
X155254111Y-76716000D01*
X155301730Y-76763619D01*
X155349349Y-76858857D01*
X155396968Y-77049333D01*
X155396968Y-77287428D01*
X155349349Y-77477904D01*
X155301730Y-77573142D01*
X155254111Y-77620761D01*
X155158873Y-77668380D01*
X155063635Y-77668380D01*
X154968397Y-77620761D01*
X154920778Y-77573142D01*
X154873159Y-77477904D01*
X154825540Y-77287428D01*
X154825540Y-77049333D01*
X154873159Y-76858857D01*
X154920778Y-76763619D01*
X154968397Y-76716000D01*
X155063635Y-76668380D01*
%TO.C,C16*%
X124027142Y-75652857D02*
X124074761Y-75700476D01*
X124122380Y-75843333D01*
X124122380Y-75938571D01*
X124074761Y-76081428D01*
X123979523Y-76176666D01*
X123884285Y-76224285D01*
X123693809Y-76271904D01*
X123550952Y-76271904D01*
X123360476Y-76224285D01*
X123265238Y-76176666D01*
X123170000Y-76081428D01*
X123122380Y-75938571D01*
X123122380Y-75843333D01*
X123170000Y-75700476D01*
X123217619Y-75652857D01*
X124122380Y-74700476D02*
X124122380Y-75271904D01*
X124122380Y-74986190D02*
X123122380Y-74986190D01*
X123265238Y-75081428D01*
X123360476Y-75176666D01*
X123408095Y-75271904D01*
X123122380Y-73843333D02*
X123122380Y-74033809D01*
X123170000Y-74129047D01*
X123217619Y-74176666D01*
X123360476Y-74271904D01*
X123550952Y-74319523D01*
X123931904Y-74319523D01*
X124027142Y-74271904D01*
X124074761Y-74224285D01*
X124122380Y-74129047D01*
X124122380Y-73938571D01*
X124074761Y-73843333D01*
X124027142Y-73795714D01*
X123931904Y-73748095D01*
X123693809Y-73748095D01*
X123598571Y-73795714D01*
X123550952Y-73843333D01*
X123503333Y-73938571D01*
X123503333Y-74129047D01*
X123550952Y-74224285D01*
X123598571Y-74271904D01*
X123693809Y-74319523D01*
%TO.C,D10*%
X159821714Y-88844380D02*
X159821714Y-87844380D01*
X160059809Y-87844380D01*
X160202666Y-87892000D01*
X160297904Y-87987238D01*
X160345523Y-88082476D01*
X160393142Y-88272952D01*
X160393142Y-88415809D01*
X160345523Y-88606285D01*
X160297904Y-88701523D01*
X160202666Y-88796761D01*
X160059809Y-88844380D01*
X159821714Y-88844380D01*
X161345523Y-88844380D02*
X160774095Y-88844380D01*
X161059809Y-88844380D02*
X161059809Y-87844380D01*
X160964571Y-87987238D01*
X160869333Y-88082476D01*
X160774095Y-88130095D01*
X161964571Y-87844380D02*
X162059809Y-87844380D01*
X162155047Y-87892000D01*
X162202666Y-87939619D01*
X162250285Y-88034857D01*
X162297904Y-88225333D01*
X162297904Y-88463428D01*
X162250285Y-88653904D01*
X162202666Y-88749142D01*
X162155047Y-88796761D01*
X162059809Y-88844380D01*
X161964571Y-88844380D01*
X161869333Y-88796761D01*
X161821714Y-88749142D01*
X161774095Y-88653904D01*
X161726476Y-88463428D01*
X161726476Y-88225333D01*
X161774095Y-88034857D01*
X161821714Y-87939619D01*
X161869333Y-87892000D01*
X161964571Y-87844380D01*
%TO.C,Q12*%
X151188571Y-113643619D02*
X151093333Y-113596000D01*
X150998095Y-113500761D01*
X150855238Y-113357904D01*
X150760000Y-113310285D01*
X150664761Y-113310285D01*
X150712380Y-113548380D02*
X150617142Y-113500761D01*
X150521904Y-113405523D01*
X150474285Y-113215047D01*
X150474285Y-112881714D01*
X150521904Y-112691238D01*
X150617142Y-112596000D01*
X150712380Y-112548380D01*
X150902857Y-112548380D01*
X150998095Y-112596000D01*
X151093333Y-112691238D01*
X151140952Y-112881714D01*
X151140952Y-113215047D01*
X151093333Y-113405523D01*
X150998095Y-113500761D01*
X150902857Y-113548380D01*
X150712380Y-113548380D01*
X152093333Y-113548380D02*
X151521904Y-113548380D01*
X151807619Y-113548380D02*
X151807619Y-112548380D01*
X151712380Y-112691238D01*
X151617142Y-112786476D01*
X151521904Y-112834095D01*
X152474285Y-112643619D02*
X152521904Y-112596000D01*
X152617142Y-112548380D01*
X152855238Y-112548380D01*
X152950476Y-112596000D01*
X152998095Y-112643619D01*
X153045714Y-112738857D01*
X153045714Y-112834095D01*
X152998095Y-112976952D01*
X152426666Y-113548380D01*
X153045714Y-113548380D01*
%TO.C,R20*%
X154884380Y-83954857D02*
X154408190Y-84288190D01*
X154884380Y-84526285D02*
X153884380Y-84526285D01*
X153884380Y-84145333D01*
X153932000Y-84050095D01*
X153979619Y-84002476D01*
X154074857Y-83954857D01*
X154217714Y-83954857D01*
X154312952Y-84002476D01*
X154360571Y-84050095D01*
X154408190Y-84145333D01*
X154408190Y-84526285D01*
X153979619Y-83573904D02*
X153932000Y-83526285D01*
X153884380Y-83431047D01*
X153884380Y-83192952D01*
X153932000Y-83097714D01*
X153979619Y-83050095D01*
X154074857Y-83002476D01*
X154170095Y-83002476D01*
X154312952Y-83050095D01*
X154884380Y-83621523D01*
X154884380Y-83002476D01*
X153884380Y-82383428D02*
X153884380Y-82288190D01*
X153932000Y-82192952D01*
X153979619Y-82145333D01*
X154074857Y-82097714D01*
X154265333Y-82050095D01*
X154503428Y-82050095D01*
X154693904Y-82097714D01*
X154789142Y-82145333D01*
X154836761Y-82192952D01*
X154884380Y-82288190D01*
X154884380Y-82383428D01*
X154836761Y-82478666D01*
X154789142Y-82526285D01*
X154693904Y-82573904D01*
X154503428Y-82621523D01*
X154265333Y-82621523D01*
X154074857Y-82573904D01*
X153979619Y-82526285D01*
X153932000Y-82478666D01*
X153884380Y-82383428D01*
%TO.C,R4*%
X124820380Y-105068666D02*
X124344190Y-105402000D01*
X124820380Y-105640095D02*
X123820380Y-105640095D01*
X123820380Y-105259142D01*
X123868000Y-105163904D01*
X123915619Y-105116285D01*
X124010857Y-105068666D01*
X124153714Y-105068666D01*
X124248952Y-105116285D01*
X124296571Y-105163904D01*
X124344190Y-105259142D01*
X124344190Y-105640095D01*
X124153714Y-104211523D02*
X124820380Y-104211523D01*
X123772761Y-104449619D02*
X124487047Y-104687714D01*
X124487047Y-104068666D01*
%TO.C,R35*%
X138887142Y-99872380D02*
X138553809Y-99396190D01*
X138315714Y-99872380D02*
X138315714Y-98872380D01*
X138696666Y-98872380D01*
X138791904Y-98920000D01*
X138839523Y-98967619D01*
X138887142Y-99062857D01*
X138887142Y-99205714D01*
X138839523Y-99300952D01*
X138791904Y-99348571D01*
X138696666Y-99396190D01*
X138315714Y-99396190D01*
X139220476Y-98872380D02*
X139839523Y-98872380D01*
X139506190Y-99253333D01*
X139649047Y-99253333D01*
X139744285Y-99300952D01*
X139791904Y-99348571D01*
X139839523Y-99443809D01*
X139839523Y-99681904D01*
X139791904Y-99777142D01*
X139744285Y-99824761D01*
X139649047Y-99872380D01*
X139363333Y-99872380D01*
X139268095Y-99824761D01*
X139220476Y-99777142D01*
X140744285Y-98872380D02*
X140268095Y-98872380D01*
X140220476Y-99348571D01*
X140268095Y-99300952D01*
X140363333Y-99253333D01*
X140601428Y-99253333D01*
X140696666Y-99300952D01*
X140744285Y-99348571D01*
X140791904Y-99443809D01*
X140791904Y-99681904D01*
X140744285Y-99777142D01*
X140696666Y-99824761D01*
X140601428Y-99872380D01*
X140363333Y-99872380D01*
X140268095Y-99824761D01*
X140220476Y-99777142D01*
%TO.C,U4*%
X111760095Y-116165380D02*
X111760095Y-116974904D01*
X111807714Y-117070142D01*
X111855333Y-117117761D01*
X111950571Y-117165380D01*
X112141047Y-117165380D01*
X112236285Y-117117761D01*
X112283904Y-117070142D01*
X112331523Y-116974904D01*
X112331523Y-116165380D01*
X113236285Y-116498714D02*
X113236285Y-117165380D01*
X112998190Y-116117761D02*
X112760095Y-116832047D01*
X113379142Y-116832047D01*
X113538000Y-115149380D02*
X113538000Y-115387476D01*
X113299904Y-115292238D02*
X113538000Y-115387476D01*
X113776095Y-115292238D01*
X113395142Y-115577952D02*
X113538000Y-115387476D01*
X113680857Y-115577952D01*
X113538000Y-115149380D02*
X113538000Y-115387476D01*
X113299904Y-115292238D02*
X113538000Y-115387476D01*
X113776095Y-115292238D01*
X113395142Y-115577952D02*
X113538000Y-115387476D01*
X113680857Y-115577952D01*
%TO.C,R16*%
X159136912Y-87089427D02*
X158660722Y-87422760D01*
X159136912Y-87660855D02*
X158136912Y-87660855D01*
X158136912Y-87279903D01*
X158184532Y-87184665D01*
X158232151Y-87137046D01*
X158327389Y-87089427D01*
X158470246Y-87089427D01*
X158565484Y-87137046D01*
X158613103Y-87184665D01*
X158660722Y-87279903D01*
X158660722Y-87660855D01*
X159136912Y-86137046D02*
X159136912Y-86708474D01*
X159136912Y-86422760D02*
X158136912Y-86422760D01*
X158279770Y-86517998D01*
X158375008Y-86613236D01*
X158422627Y-86708474D01*
X158136912Y-85279903D02*
X158136912Y-85470379D01*
X158184532Y-85565617D01*
X158232151Y-85613236D01*
X158375008Y-85708474D01*
X158565484Y-85756093D01*
X158946436Y-85756093D01*
X159041674Y-85708474D01*
X159089293Y-85660855D01*
X159136912Y-85565617D01*
X159136912Y-85375141D01*
X159089293Y-85279903D01*
X159041674Y-85232284D01*
X158946436Y-85184665D01*
X158708341Y-85184665D01*
X158613103Y-85232284D01*
X158565484Y-85279903D01*
X158517865Y-85375141D01*
X158517865Y-85565617D01*
X158565484Y-85660855D01*
X158613103Y-85708474D01*
X158708341Y-85756093D01*
%TO.C,Q13*%
X147124571Y-113643619D02*
X147029333Y-113596000D01*
X146934095Y-113500761D01*
X146791238Y-113357904D01*
X146696000Y-113310285D01*
X146600761Y-113310285D01*
X146648380Y-113548380D02*
X146553142Y-113500761D01*
X146457904Y-113405523D01*
X146410285Y-113215047D01*
X146410285Y-112881714D01*
X146457904Y-112691238D01*
X146553142Y-112596000D01*
X146648380Y-112548380D01*
X146838857Y-112548380D01*
X146934095Y-112596000D01*
X147029333Y-112691238D01*
X147076952Y-112881714D01*
X147076952Y-113215047D01*
X147029333Y-113405523D01*
X146934095Y-113500761D01*
X146838857Y-113548380D01*
X146648380Y-113548380D01*
X148029333Y-113548380D02*
X147457904Y-113548380D01*
X147743619Y-113548380D02*
X147743619Y-112548380D01*
X147648380Y-112691238D01*
X147553142Y-112786476D01*
X147457904Y-112834095D01*
X148362666Y-112548380D02*
X148981714Y-112548380D01*
X148648380Y-112929333D01*
X148791238Y-112929333D01*
X148886476Y-112976952D01*
X148934095Y-113024571D01*
X148981714Y-113119809D01*
X148981714Y-113357904D01*
X148934095Y-113453142D01*
X148886476Y-113500761D01*
X148791238Y-113548380D01*
X148505523Y-113548380D01*
X148410285Y-113500761D01*
X148362666Y-113453142D01*
%TO.C,R15*%
X176854380Y-82430857D02*
X176378190Y-82764190D01*
X176854380Y-83002285D02*
X175854380Y-83002285D01*
X175854380Y-82621333D01*
X175902000Y-82526095D01*
X175949619Y-82478476D01*
X176044857Y-82430857D01*
X176187714Y-82430857D01*
X176282952Y-82478476D01*
X176330571Y-82526095D01*
X176378190Y-82621333D01*
X176378190Y-83002285D01*
X176854380Y-81478476D02*
X176854380Y-82049904D01*
X176854380Y-81764190D02*
X175854380Y-81764190D01*
X175997238Y-81859428D01*
X176092476Y-81954666D01*
X176140095Y-82049904D01*
X175854380Y-80573714D02*
X175854380Y-81049904D01*
X176330571Y-81097523D01*
X176282952Y-81049904D01*
X176235333Y-80954666D01*
X176235333Y-80716571D01*
X176282952Y-80621333D01*
X176330571Y-80573714D01*
X176425809Y-80526095D01*
X176663904Y-80526095D01*
X176759142Y-80573714D01*
X176806761Y-80621333D01*
X176854380Y-80716571D01*
X176854380Y-80954666D01*
X176806761Y-81049904D01*
X176759142Y-81097523D01*
%TO.C,R14*%
X172077142Y-76270380D02*
X171743809Y-75794190D01*
X171505714Y-76270380D02*
X171505714Y-75270380D01*
X171886666Y-75270380D01*
X171981904Y-75318000D01*
X172029523Y-75365619D01*
X172077142Y-75460857D01*
X172077142Y-75603714D01*
X172029523Y-75698952D01*
X171981904Y-75746571D01*
X171886666Y-75794190D01*
X171505714Y-75794190D01*
X173029523Y-76270380D02*
X172458095Y-76270380D01*
X172743809Y-76270380D02*
X172743809Y-75270380D01*
X172648571Y-75413238D01*
X172553333Y-75508476D01*
X172458095Y-75556095D01*
X173886666Y-75603714D02*
X173886666Y-76270380D01*
X173648571Y-75222761D02*
X173410476Y-75937047D01*
X174029523Y-75937047D01*
%TO.C,D8*%
X160471904Y-79700380D02*
X160471904Y-78700380D01*
X160710000Y-78700380D01*
X160852857Y-78748000D01*
X160948095Y-78843238D01*
X160995714Y-78938476D01*
X161043333Y-79128952D01*
X161043333Y-79271809D01*
X160995714Y-79462285D01*
X160948095Y-79557523D01*
X160852857Y-79652761D01*
X160710000Y-79700380D01*
X160471904Y-79700380D01*
X161614761Y-79128952D02*
X161519523Y-79081333D01*
X161471904Y-79033714D01*
X161424285Y-78938476D01*
X161424285Y-78890857D01*
X161471904Y-78795619D01*
X161519523Y-78748000D01*
X161614761Y-78700380D01*
X161805238Y-78700380D01*
X161900476Y-78748000D01*
X161948095Y-78795619D01*
X161995714Y-78890857D01*
X161995714Y-78938476D01*
X161948095Y-79033714D01*
X161900476Y-79081333D01*
X161805238Y-79128952D01*
X161614761Y-79128952D01*
X161519523Y-79176571D01*
X161471904Y-79224190D01*
X161424285Y-79319428D01*
X161424285Y-79509904D01*
X161471904Y-79605142D01*
X161519523Y-79652761D01*
X161614761Y-79700380D01*
X161805238Y-79700380D01*
X161900476Y-79652761D01*
X161948095Y-79605142D01*
X161995714Y-79509904D01*
X161995714Y-79319428D01*
X161948095Y-79224190D01*
X161900476Y-79176571D01*
X161805238Y-79128952D01*
%TO.C,R19*%
X148994650Y-83624206D02*
X148661317Y-83148016D01*
X148423222Y-83624206D02*
X148423222Y-82624206D01*
X148804174Y-82624206D01*
X148899412Y-82671826D01*
X148947031Y-82719445D01*
X148994650Y-82814683D01*
X148994650Y-82957540D01*
X148947031Y-83052778D01*
X148899412Y-83100397D01*
X148804174Y-83148016D01*
X148423222Y-83148016D01*
X149947031Y-83624206D02*
X149375603Y-83624206D01*
X149661317Y-83624206D02*
X149661317Y-82624206D01*
X149566079Y-82767064D01*
X149470841Y-82862302D01*
X149375603Y-82909921D01*
X150423222Y-83624206D02*
X150613698Y-83624206D01*
X150708936Y-83576587D01*
X150756555Y-83528968D01*
X150851793Y-83386111D01*
X150899412Y-83195635D01*
X150899412Y-82814683D01*
X150851793Y-82719445D01*
X150804174Y-82671826D01*
X150708936Y-82624206D01*
X150518460Y-82624206D01*
X150423222Y-82671826D01*
X150375603Y-82719445D01*
X150327984Y-82814683D01*
X150327984Y-83052778D01*
X150375603Y-83148016D01*
X150423222Y-83195635D01*
X150518460Y-83243254D01*
X150708936Y-83243254D01*
X150804174Y-83195635D01*
X150851793Y-83148016D01*
X150899412Y-83052778D01*
%TO.C,R6*%
X120573333Y-123642380D02*
X120240000Y-123166190D01*
X120001904Y-123642380D02*
X120001904Y-122642380D01*
X120382857Y-122642380D01*
X120478095Y-122690000D01*
X120525714Y-122737619D01*
X120573333Y-122832857D01*
X120573333Y-122975714D01*
X120525714Y-123070952D01*
X120478095Y-123118571D01*
X120382857Y-123166190D01*
X120001904Y-123166190D01*
X121430476Y-122642380D02*
X121240000Y-122642380D01*
X121144761Y-122690000D01*
X121097142Y-122737619D01*
X121001904Y-122880476D01*
X120954285Y-123070952D01*
X120954285Y-123451904D01*
X121001904Y-123547142D01*
X121049523Y-123594761D01*
X121144761Y-123642380D01*
X121335238Y-123642380D01*
X121430476Y-123594761D01*
X121478095Y-123547142D01*
X121525714Y-123451904D01*
X121525714Y-123213809D01*
X121478095Y-123118571D01*
X121430476Y-123070952D01*
X121335238Y-123023333D01*
X121144761Y-123023333D01*
X121049523Y-123070952D01*
X121001904Y-123118571D01*
X120954285Y-123213809D01*
%TO.C,R23*%
X163012380Y-91590857D02*
X162536190Y-91924190D01*
X163012380Y-92162285D02*
X162012380Y-92162285D01*
X162012380Y-91781333D01*
X162060000Y-91686095D01*
X162107619Y-91638476D01*
X162202857Y-91590857D01*
X162345714Y-91590857D01*
X162440952Y-91638476D01*
X162488571Y-91686095D01*
X162536190Y-91781333D01*
X162536190Y-92162285D01*
X162107619Y-91209904D02*
X162060000Y-91162285D01*
X162012380Y-91067047D01*
X162012380Y-90828952D01*
X162060000Y-90733714D01*
X162107619Y-90686095D01*
X162202857Y-90638476D01*
X162298095Y-90638476D01*
X162440952Y-90686095D01*
X163012380Y-91257523D01*
X163012380Y-90638476D01*
X162012380Y-90305142D02*
X162012380Y-89686095D01*
X162393333Y-90019428D01*
X162393333Y-89876571D01*
X162440952Y-89781333D01*
X162488571Y-89733714D01*
X162583809Y-89686095D01*
X162821904Y-89686095D01*
X162917142Y-89733714D01*
X162964761Y-89781333D01*
X163012380Y-89876571D01*
X163012380Y-90162285D01*
X162964761Y-90257523D01*
X162917142Y-90305142D01*
%TO.C,R11*%
X151963380Y-76207857D02*
X151487190Y-76541190D01*
X151963380Y-76779285D02*
X150963380Y-76779285D01*
X150963380Y-76398333D01*
X151011000Y-76303095D01*
X151058619Y-76255476D01*
X151153857Y-76207857D01*
X151296714Y-76207857D01*
X151391952Y-76255476D01*
X151439571Y-76303095D01*
X151487190Y-76398333D01*
X151487190Y-76779285D01*
X151963380Y-75255476D02*
X151963380Y-75826904D01*
X151963380Y-75541190D02*
X150963380Y-75541190D01*
X151106238Y-75636428D01*
X151201476Y-75731666D01*
X151249095Y-75826904D01*
X151963380Y-74303095D02*
X151963380Y-74874523D01*
X151963380Y-74588809D02*
X150963380Y-74588809D01*
X151106238Y-74684047D01*
X151201476Y-74779285D01*
X151249095Y-74874523D01*
%TO.C,U11*%
X166921904Y-92402380D02*
X166921904Y-93211904D01*
X166969523Y-93307142D01*
X167017142Y-93354761D01*
X167112380Y-93402380D01*
X167302857Y-93402380D01*
X167398095Y-93354761D01*
X167445714Y-93307142D01*
X167493333Y-93211904D01*
X167493333Y-92402380D01*
X168493333Y-93402380D02*
X167921904Y-93402380D01*
X168207619Y-93402380D02*
X168207619Y-92402380D01*
X168112380Y-92545238D01*
X168017142Y-92640476D01*
X167921904Y-92688095D01*
X169445714Y-93402380D02*
X168874285Y-93402380D01*
X169160000Y-93402380D02*
X169160000Y-92402380D01*
X169064761Y-92545238D01*
X168969523Y-92640476D01*
X168874285Y-92688095D01*
X172590000Y-99407619D02*
X172590000Y-99169523D01*
X172828095Y-99264761D02*
X172590000Y-99169523D01*
X172351904Y-99264761D01*
X172732857Y-98979047D02*
X172590000Y-99169523D01*
X172447142Y-98979047D01*
%TO.C,R12*%
X177157142Y-72970380D02*
X176823809Y-72494190D01*
X176585714Y-72970380D02*
X176585714Y-71970380D01*
X176966666Y-71970380D01*
X177061904Y-72018000D01*
X177109523Y-72065619D01*
X177157142Y-72160857D01*
X177157142Y-72303714D01*
X177109523Y-72398952D01*
X177061904Y-72446571D01*
X176966666Y-72494190D01*
X176585714Y-72494190D01*
X178109523Y-72970380D02*
X177538095Y-72970380D01*
X177823809Y-72970380D02*
X177823809Y-71970380D01*
X177728571Y-72113238D01*
X177633333Y-72208476D01*
X177538095Y-72256095D01*
X178490476Y-72065619D02*
X178538095Y-72018000D01*
X178633333Y-71970380D01*
X178871428Y-71970380D01*
X178966666Y-72018000D01*
X179014285Y-72065619D01*
X179061904Y-72160857D01*
X179061904Y-72256095D01*
X179014285Y-72398952D01*
X178442857Y-72970380D01*
X179061904Y-72970380D01*
%TO.C,R27*%
X173352380Y-87072857D02*
X172876190Y-87406190D01*
X173352380Y-87644285D02*
X172352380Y-87644285D01*
X172352380Y-87263333D01*
X172400000Y-87168095D01*
X172447619Y-87120476D01*
X172542857Y-87072857D01*
X172685714Y-87072857D01*
X172780952Y-87120476D01*
X172828571Y-87168095D01*
X172876190Y-87263333D01*
X172876190Y-87644285D01*
X172447619Y-86691904D02*
X172400000Y-86644285D01*
X172352380Y-86549047D01*
X172352380Y-86310952D01*
X172400000Y-86215714D01*
X172447619Y-86168095D01*
X172542857Y-86120476D01*
X172638095Y-86120476D01*
X172780952Y-86168095D01*
X173352380Y-86739523D01*
X173352380Y-86120476D01*
X172352380Y-85787142D02*
X172352380Y-85120476D01*
X173352380Y-85549047D01*
%TO.C,Q2*%
X169837619Y-76775238D02*
X169790000Y-76870476D01*
X169694761Y-76965714D01*
X169551904Y-77108571D01*
X169504285Y-77203809D01*
X169504285Y-77299047D01*
X169742380Y-77251428D02*
X169694761Y-77346666D01*
X169599523Y-77441904D01*
X169409047Y-77489523D01*
X169075714Y-77489523D01*
X168885238Y-77441904D01*
X168790000Y-77346666D01*
X168742380Y-77251428D01*
X168742380Y-77060952D01*
X168790000Y-76965714D01*
X168885238Y-76870476D01*
X169075714Y-76822857D01*
X169409047Y-76822857D01*
X169599523Y-76870476D01*
X169694761Y-76965714D01*
X169742380Y-77060952D01*
X169742380Y-77251428D01*
X168837619Y-76441904D02*
X168790000Y-76394285D01*
X168742380Y-76299047D01*
X168742380Y-76060952D01*
X168790000Y-75965714D01*
X168837619Y-75918095D01*
X168932857Y-75870476D01*
X169028095Y-75870476D01*
X169170952Y-75918095D01*
X169742380Y-76489523D01*
X169742380Y-75870476D01*
%TO.C,R13*%
X163314142Y-73096380D02*
X162980809Y-72620190D01*
X162742714Y-73096380D02*
X162742714Y-72096380D01*
X163123666Y-72096380D01*
X163218904Y-72144000D01*
X163266523Y-72191619D01*
X163314142Y-72286857D01*
X163314142Y-72429714D01*
X163266523Y-72524952D01*
X163218904Y-72572571D01*
X163123666Y-72620190D01*
X162742714Y-72620190D01*
X164266523Y-73096380D02*
X163695095Y-73096380D01*
X163980809Y-73096380D02*
X163980809Y-72096380D01*
X163885571Y-72239238D01*
X163790333Y-72334476D01*
X163695095Y-72382095D01*
X164599857Y-72096380D02*
X165218904Y-72096380D01*
X164885571Y-72477333D01*
X165028428Y-72477333D01*
X165123666Y-72524952D01*
X165171285Y-72572571D01*
X165218904Y-72667809D01*
X165218904Y-72905904D01*
X165171285Y-73001142D01*
X165123666Y-73048761D01*
X165028428Y-73096380D01*
X164742714Y-73096380D01*
X164647476Y-73048761D01*
X164599857Y-73001142D01*
%TO.C,Q5*%
X153828761Y-90323619D02*
X153733523Y-90276000D01*
X153638285Y-90180761D01*
X153495428Y-90037904D01*
X153400190Y-89990285D01*
X153304952Y-89990285D01*
X153352571Y-90228380D02*
X153257333Y-90180761D01*
X153162095Y-90085523D01*
X153114476Y-89895047D01*
X153114476Y-89561714D01*
X153162095Y-89371238D01*
X153257333Y-89276000D01*
X153352571Y-89228380D01*
X153543047Y-89228380D01*
X153638285Y-89276000D01*
X153733523Y-89371238D01*
X153781142Y-89561714D01*
X153781142Y-89895047D01*
X153733523Y-90085523D01*
X153638285Y-90180761D01*
X153543047Y-90228380D01*
X153352571Y-90228380D01*
X154685904Y-89228380D02*
X154209714Y-89228380D01*
X154162095Y-89704571D01*
X154209714Y-89656952D01*
X154304952Y-89609333D01*
X154543047Y-89609333D01*
X154638285Y-89656952D01*
X154685904Y-89704571D01*
X154733523Y-89799809D01*
X154733523Y-90037904D01*
X154685904Y-90133142D01*
X154638285Y-90180761D01*
X154543047Y-90228380D01*
X154304952Y-90228380D01*
X154209714Y-90180761D01*
X154162095Y-90133142D01*
%TO.C,R29*%
X157951142Y-100940380D02*
X157617809Y-100464190D01*
X157379714Y-100940380D02*
X157379714Y-99940380D01*
X157760666Y-99940380D01*
X157855904Y-99988000D01*
X157903523Y-100035619D01*
X157951142Y-100130857D01*
X157951142Y-100273714D01*
X157903523Y-100368952D01*
X157855904Y-100416571D01*
X157760666Y-100464190D01*
X157379714Y-100464190D01*
X158332095Y-100035619D02*
X158379714Y-99988000D01*
X158474952Y-99940380D01*
X158713047Y-99940380D01*
X158808285Y-99988000D01*
X158855904Y-100035619D01*
X158903523Y-100130857D01*
X158903523Y-100226095D01*
X158855904Y-100368952D01*
X158284476Y-100940380D01*
X158903523Y-100940380D01*
X159379714Y-100940380D02*
X159570190Y-100940380D01*
X159665428Y-100892761D01*
X159713047Y-100845142D01*
X159808285Y-100702285D01*
X159855904Y-100511809D01*
X159855904Y-100130857D01*
X159808285Y-100035619D01*
X159760666Y-99988000D01*
X159665428Y-99940380D01*
X159474952Y-99940380D01*
X159379714Y-99988000D01*
X159332095Y-100035619D01*
X159284476Y-100130857D01*
X159284476Y-100368952D01*
X159332095Y-100464190D01*
X159379714Y-100511809D01*
X159474952Y-100559428D01*
X159665428Y-100559428D01*
X159760666Y-100511809D01*
X159808285Y-100464190D01*
X159855904Y-100368952D01*
D12*
%TO.C,RN1*%
X164921000Y-100581300D02*
X164921000Y-102638700D01*
X171779000Y-100581300D02*
X171779000Y-102638700D01*
%TO.C,U9*%
X143944000Y-87840000D02*
X144174000Y-87840000D01*
X145254000Y-90560000D02*
X143944000Y-90560000D01*
X148664000Y-87840000D02*
X148434000Y-87840000D01*
X148664000Y-90560000D02*
X147354000Y-90560000D01*
X148434000Y-86700000D02*
X148434000Y-87840000D01*
X143944000Y-90560000D02*
X143944000Y-87840000D01*
X148664000Y-87840000D02*
X148664000Y-90560000D01*
%TO.C,U5*%
X117345705Y-118706900D02*
X116334295Y-118706900D01*
X116334295Y-120815100D02*
X117345705Y-120815100D01*
X116535200Y-118706900D02*
G75*
G03*
X117144800Y-118706900I304800J0D01*
G01*
%TO.C,D16*%
X138480000Y-100620000D02*
X142380000Y-100620000D01*
X138480000Y-100620000D02*
X138480000Y-102620000D01*
X138480000Y-102620000D02*
X142380000Y-102620000D01*
D13*
%TO.C,S1*%
X177047800Y-113062600D02*
X172729800Y-113062600D01*
X172729800Y-119158600D02*
X177047800Y-119158600D01*
X177936800Y-115114920D02*
X177936800Y-117126600D01*
X171840800Y-115084440D02*
X171840800Y-117126600D01*
X176666800Y-116110600D02*
G75*
G03*
X176666800Y-116110600I-1778000J0D01*
G01*
D12*
%TO.C,U12*%
X129852300Y-82202600D02*
X129852300Y-83532600D01*
X127192300Y-80932600D02*
X127192300Y-73252600D01*
X129852300Y-83532600D02*
X128522300Y-83532600D01*
X129852300Y-73252600D02*
X127192300Y-73252600D01*
X129852300Y-80932600D02*
X127192300Y-80932600D01*
X129852300Y-80932600D02*
X129852300Y-73252600D01*
%TO.C,U10*%
X163365050Y-106926100D02*
X159123250Y-106926100D01*
X159123250Y-112183900D02*
X163365050Y-112183900D01*
%TO.C,U7*%
X131555000Y-114465000D02*
X131555000Y-116415000D01*
X126435000Y-114465000D02*
X126435000Y-116415000D01*
X131555000Y-114465000D02*
X131555000Y-111015000D01*
X126435000Y-114465000D02*
X126435000Y-112515000D01*
%TO.C,U1*%
X208037500Y-75610000D02*
X208037500Y-121330000D01*
X184957500Y-75610000D02*
X184957500Y-121330000D01*
X205387500Y-123980000D02*
X187607500Y-123980000D01*
X184637500Y-80420000D02*
X184637500Y-78420000D01*
X205387500Y-72960000D02*
X187607500Y-72960000D01*
X184957500Y-121330000D02*
G75*
G03*
X187607500Y-123980000I2650000J0D01*
G01*
X187607500Y-72960000D02*
G75*
G03*
X184957500Y-75610000I0J-2650000D01*
G01*
X208037500Y-75610000D02*
G75*
G03*
X205387500Y-72960000I-2650000J0D01*
G01*
X205387500Y-123980000D02*
G75*
G03*
X208037500Y-121330000I0J2650000D01*
G01*
%TO.C,J2*%
X134930000Y-88090000D02*
X134930000Y-86760000D01*
X134930000Y-91960000D02*
X137590000Y-91960000D01*
X134930000Y-89360000D02*
X134930000Y-91960000D01*
X134930000Y-89360000D02*
X137590000Y-89360000D01*
X134930000Y-86760000D02*
X136260000Y-86760000D01*
X137590000Y-89360000D02*
X137590000Y-91960000D01*
%TO.C,F1*%
X113710000Y-80096252D02*
X113710000Y-77323748D01*
X110290000Y-80096252D02*
X110290000Y-77323748D01*
%TO.C,D13*%
X159080000Y-115220000D02*
X155180000Y-115220000D01*
X159080000Y-115220000D02*
X159080000Y-113220000D01*
X159080000Y-113220000D02*
X155180000Y-113220000D01*
%TO.C,D12*%
X150860000Y-104780000D02*
X154760000Y-104780000D01*
X150860000Y-104780000D02*
X150860000Y-106780000D01*
X150860000Y-106780000D02*
X154760000Y-106780000D01*
%TO.C,D11*%
X156240000Y-100930000D02*
X149340000Y-100930000D01*
X156240000Y-104230000D02*
X156240000Y-100930000D01*
X156240000Y-104230000D02*
X149340000Y-104230000D01*
%TO.C,C19*%
X131665000Y-86268748D02*
X131665000Y-86791252D01*
X130195000Y-86268748D02*
X130195000Y-86791252D01*
%TO.C,C17*%
X127625000Y-84322500D02*
X127625000Y-88407500D01*
X129495000Y-88407500D02*
X129495000Y-84322500D01*
X129495000Y-84322500D02*
X127625000Y-84322500D01*
%TO.C,C11*%
X157673752Y-117765000D02*
X157151248Y-117765000D01*
X157673752Y-116295000D02*
X157151248Y-116295000D01*
%TO.C,R25*%
X165380936Y-82069000D02*
X165835064Y-82069000D01*
X165380936Y-83539000D02*
X165835064Y-83539000D01*
%TO.C,D18*%
X114990000Y-76780000D02*
X114990000Y-80680000D01*
X116990000Y-76780000D02*
X114990000Y-76780000D01*
X116990000Y-76780000D02*
X116990000Y-80680000D01*
%TO.C,R21*%
X161825000Y-85624936D02*
X161825000Y-86079064D01*
X163295000Y-85624936D02*
X163295000Y-86079064D01*
%TO.C,C2*%
X122582000Y-114017248D02*
X122582000Y-114539752D01*
X124052000Y-114017248D02*
X124052000Y-114539752D01*
%TO.C,C14*%
X136405252Y-100865000D02*
X135882748Y-100865000D01*
X136405252Y-102335000D02*
X135882748Y-102335000D01*
%TO.C,U6*%
X128089100Y-110566200D02*
X132330900Y-110566200D01*
X132330900Y-105333800D02*
X128089100Y-105333800D01*
%TO.C,C7*%
X147601000Y-93210748D02*
X147601000Y-93733252D01*
X149071000Y-93210748D02*
X149071000Y-93733252D01*
%TO.C,R26*%
X156220936Y-82577000D02*
X156675064Y-82577000D01*
X156220936Y-84047000D02*
X156675064Y-84047000D01*
%TO.C,D14*%
X133956000Y-100202000D02*
X133956000Y-96902000D01*
X133956000Y-100202000D02*
X128556000Y-100202000D01*
X133956000Y-96902000D02*
X128556000Y-96902000D01*
%TO.C,D17*%
X117360000Y-75330000D02*
X111960000Y-75330000D01*
X117360000Y-75330000D02*
X117360000Y-72030000D01*
X117360000Y-72030000D02*
X111960000Y-72030000D01*
%TO.C,U3*%
X141207143Y-105911043D02*
X140195733Y-105911043D01*
X140195733Y-108019243D02*
X141207143Y-108019243D01*
X140396638Y-105911043D02*
G75*
G03*
X141006238Y-105911043I304800J0D01*
G01*
%TO.C,C8*%
X147039000Y-93210748D02*
X147039000Y-93733252D01*
X145569000Y-93210748D02*
X145569000Y-93733252D01*
%TO.C,Q9*%
X165064000Y-85852000D02*
X165064000Y-87527000D01*
X168184000Y-85852000D02*
X168184000Y-85202000D01*
X168184000Y-85852000D02*
X168184000Y-86502000D01*
X165064000Y-85852000D02*
X165064000Y-85202000D01*
%TO.C,Q7*%
X157401500Y-89372000D02*
X156751500Y-89372000D01*
X157401500Y-92492000D02*
X159076500Y-92492000D01*
X157401500Y-92492000D02*
X156751500Y-92492000D01*
X157401500Y-89372000D02*
X158051500Y-89372000D01*
%TO.C,U8*%
X160528000Y-73066000D02*
X158328000Y-73066000D01*
X160528000Y-76286000D02*
X158328000Y-76286000D01*
X160528000Y-76286000D02*
X164128000Y-76286000D01*
X160528000Y-73066000D02*
X162728000Y-73066000D01*
%TO.C,R34*%
X135916936Y-96801000D02*
X136371064Y-96801000D01*
X135916936Y-98271000D02*
X136371064Y-98271000D01*
%TO.C,J1*%
X122154667Y-102580651D02*
X122587680Y-102330651D01*
X121693342Y-82780651D02*
X121693342Y-113750651D01*
X121693342Y-113750651D02*
X107803342Y-113750651D01*
X122587680Y-102830651D02*
X122154667Y-102580651D01*
X107803342Y-82780651D02*
X121693342Y-82780651D01*
X122587680Y-102330651D02*
X122587680Y-102830651D01*
%TO.C,C4*%
X123856248Y-120645000D02*
X124378752Y-120645000D01*
X123856248Y-122115000D02*
X124378752Y-122115000D01*
%TO.C,C13*%
X140118752Y-98255000D02*
X139596248Y-98255000D01*
X140118752Y-96785000D02*
X139596248Y-96785000D01*
%TO.C,Q10*%
X169672000Y-83348000D02*
X169022000Y-83348000D01*
X169672000Y-80228000D02*
X170322000Y-80228000D01*
X169672000Y-83348000D02*
X171347000Y-83348000D01*
X169672000Y-80228000D02*
X169022000Y-80228000D01*
%TO.C,R5*%
X120565936Y-114581000D02*
X121020064Y-114581000D01*
X120565936Y-116051000D02*
X121020064Y-116051000D01*
%TO.C,Q3*%
X173700000Y-77724000D02*
X173700000Y-77074000D01*
X176820000Y-77724000D02*
X176820000Y-76049000D01*
X173700000Y-77724000D02*
X173700000Y-78374000D01*
X176820000Y-77724000D02*
X176820000Y-78374000D01*
%TO.C,U2*%
X141221705Y-110197900D02*
X140210295Y-110197900D01*
X140210295Y-112306100D02*
X141221705Y-112306100D01*
X140411200Y-110197900D02*
G75*
G03*
X141020800Y-110197900I304800J0D01*
G01*
%TO.C,C6*%
X141445000Y-88521252D02*
X141445000Y-87998748D01*
X142915000Y-88521252D02*
X142915000Y-87998748D01*
%TO.C,Q4*%
X168620000Y-86789500D02*
X168620000Y-86139500D01*
X171740000Y-86789500D02*
X171740000Y-87439500D01*
X171740000Y-86789500D02*
X171740000Y-86139500D01*
X168620000Y-86789500D02*
X168620000Y-88464500D01*
%TO.C,R18*%
X150595000Y-88603064D02*
X150595000Y-88148936D01*
X149125000Y-88603064D02*
X149125000Y-88148936D01*
%TO.C,R10*%
X153680936Y-75919000D02*
X154135064Y-75919000D01*
X153680936Y-74449000D02*
X154135064Y-74449000D01*
%TO.C,C16*%
X122650000Y-80680000D02*
X122650000Y-72445000D01*
X122650000Y-72445000D02*
X118130000Y-72445000D01*
X118130000Y-72445000D02*
X118130000Y-80680000D01*
%TO.C,D10*%
X161528000Y-87086000D02*
X161528000Y-83186000D01*
X159528000Y-87086000D02*
X159528000Y-83186000D01*
X159528000Y-87086000D02*
X161528000Y-87086000D01*
%TO.C,Q12*%
X149692000Y-110556000D02*
X149692000Y-111206000D01*
X152812000Y-110556000D02*
X152812000Y-111206000D01*
X152812000Y-110556000D02*
X152812000Y-108881000D01*
X149692000Y-110556000D02*
X149692000Y-109906000D01*
%TO.C,R20*%
X153643000Y-84063064D02*
X153643000Y-83608936D01*
X152173000Y-84063064D02*
X152173000Y-83608936D01*
%TO.C,R4*%
X124014000Y-108574064D02*
X124014000Y-108119936D01*
X125484000Y-108574064D02*
X125484000Y-108119936D01*
%TO.C,R35*%
X136371064Y-100303000D02*
X135916936Y-100303000D01*
X136371064Y-98833000D02*
X135916936Y-98833000D01*
%TO.C,U4*%
X117091705Y-115150900D02*
X116080295Y-115150900D01*
X116080295Y-117259100D02*
X117091705Y-117259100D01*
X116281200Y-115150900D02*
G75*
G03*
X116890800Y-115150900I304800J0D01*
G01*
%TO.C,R16*%
X157707000Y-87148936D02*
X157707000Y-87603064D01*
X156237000Y-87148936D02*
X156237000Y-87603064D01*
%TO.C,Q13*%
X146136000Y-110556000D02*
X146136000Y-109906000D01*
X149256000Y-110556000D02*
X149256000Y-108881000D01*
X149256000Y-110556000D02*
X149256000Y-111206000D01*
X146136000Y-110556000D02*
X146136000Y-111206000D01*
%TO.C,R15*%
X175487000Y-81560936D02*
X175487000Y-82015064D01*
X174017000Y-81560936D02*
X174017000Y-82015064D01*
%TO.C,R14*%
X172947064Y-73433000D02*
X172492936Y-73433000D01*
X172947064Y-74903000D02*
X172492936Y-74903000D01*
%TO.C,D8*%
X163160000Y-80280000D02*
X159260000Y-80280000D01*
X163160000Y-82280000D02*
X163160000Y-80280000D01*
X163160000Y-82280000D02*
X159260000Y-82280000D01*
%TO.C,R19*%
X149410444Y-84086826D02*
X149864572Y-84086826D01*
X149410444Y-85556826D02*
X149864572Y-85556826D01*
%TO.C,REF\u002A\u002A*%
G36*
X178955814Y-88038931D02*
G01*
X179039635Y-88483555D01*
X179348920Y-88611053D01*
X179658206Y-88738551D01*
X180029246Y-88486246D01*
X180133157Y-88415996D01*
X180227087Y-88353272D01*
X180306652Y-88300938D01*
X180367470Y-88261857D01*
X180405157Y-88238893D01*
X180415421Y-88233942D01*
X180433910Y-88246676D01*
X180473420Y-88281882D01*
X180529522Y-88335062D01*
X180597787Y-88401718D01*
X180673786Y-88477354D01*
X180753092Y-88557472D01*
X180831275Y-88637574D01*
X180903907Y-88713164D01*
X180966559Y-88779745D01*
X181014803Y-88832818D01*
X181044210Y-88867887D01*
X181051241Y-88879623D01*
X181041123Y-88901260D01*
X181012759Y-88948662D01*
X180969129Y-89017193D01*
X180913218Y-89102215D01*
X180848006Y-89199093D01*
X180810219Y-89254350D01*
X180741343Y-89355248D01*
X180680140Y-89446299D01*
X180629578Y-89522970D01*
X180592628Y-89580728D01*
X180572258Y-89615043D01*
X180569197Y-89622254D01*
X180576136Y-89642748D01*
X180595051Y-89690513D01*
X180623087Y-89758832D01*
X180657391Y-89840989D01*
X180695109Y-89930270D01*
X180733387Y-90019958D01*
X180769370Y-90103338D01*
X180800206Y-90173694D01*
X180823039Y-90224310D01*
X180835017Y-90248471D01*
X180835724Y-90249422D01*
X180854531Y-90254036D01*
X180904618Y-90264328D01*
X180980793Y-90279287D01*
X181077865Y-90297901D01*
X181190643Y-90319159D01*
X181256442Y-90331418D01*
X181376950Y-90354362D01*
X181485797Y-90376195D01*
X181577476Y-90395722D01*
X181646481Y-90411748D01*
X181687304Y-90423079D01*
X181695511Y-90426674D01*
X181703548Y-90451006D01*
X181710033Y-90505959D01*
X181714970Y-90585108D01*
X181718364Y-90682026D01*
X181720218Y-90790287D01*
X181720538Y-90903465D01*
X181719327Y-91015135D01*
X181716590Y-91118868D01*
X181712331Y-91208241D01*
X181706555Y-91276826D01*
X181699267Y-91318197D01*
X181694895Y-91326810D01*
X181668764Y-91337133D01*
X181613393Y-91351892D01*
X181536107Y-91369352D01*
X181444230Y-91387780D01*
X181412158Y-91393741D01*
X181257524Y-91422066D01*
X181135375Y-91444876D01*
X181041673Y-91463080D01*
X180972384Y-91477583D01*
X180923471Y-91489292D01*
X180890897Y-91499115D01*
X180870628Y-91507956D01*
X180858626Y-91516724D01*
X180856947Y-91518457D01*
X180840184Y-91546371D01*
X180814614Y-91600695D01*
X180782788Y-91674777D01*
X180747260Y-91761965D01*
X180710583Y-91855608D01*
X180675311Y-91949052D01*
X180643996Y-92035647D01*
X180619193Y-92108740D01*
X180603454Y-92161678D01*
X180599332Y-92187811D01*
X180599676Y-92188726D01*
X180613641Y-92210086D01*
X180645322Y-92257084D01*
X180691391Y-92324827D01*
X180748518Y-92408423D01*
X180813373Y-92502982D01*
X180831843Y-92529854D01*
X180897699Y-92627275D01*
X180955650Y-92716163D01*
X181002538Y-92791412D01*
X181035207Y-92847920D01*
X181050500Y-92880581D01*
X181051241Y-92884593D01*
X181038392Y-92905684D01*
X181002888Y-92947464D01*
X180949293Y-93005445D01*
X180882171Y-93075135D01*
X180806087Y-93152045D01*
X180725604Y-93231683D01*
X180645287Y-93309561D01*
X180569699Y-93381186D01*
X180503405Y-93442070D01*
X180450969Y-93487721D01*
X180416955Y-93513650D01*
X180407545Y-93517883D01*
X180385643Y-93507912D01*
X180340800Y-93481020D01*
X180280321Y-93441736D01*
X180233789Y-93410117D01*
X180149475Y-93352098D01*
X180049626Y-93283784D01*
X179949473Y-93215579D01*
X179895627Y-93179075D01*
X179713371Y-93055800D01*
X179560381Y-93138520D01*
X179490682Y-93174759D01*
X179431414Y-93202926D01*
X179391311Y-93218991D01*
X179381103Y-93221226D01*
X179368829Y-93204722D01*
X179344613Y-93158082D01*
X179310263Y-93085609D01*
X179267588Y-92991606D01*
X179218394Y-92880374D01*
X179164490Y-92756215D01*
X179107684Y-92623432D01*
X179049782Y-92486327D01*
X178992593Y-92349202D01*
X178937924Y-92216358D01*
X178887584Y-92092098D01*
X178843380Y-91980725D01*
X178807119Y-91886539D01*
X178780609Y-91813844D01*
X178765658Y-91766941D01*
X178763254Y-91750833D01*
X178782311Y-91730286D01*
X178824036Y-91696933D01*
X178879706Y-91657702D01*
X178884378Y-91654599D01*
X179028264Y-91539423D01*
X179144283Y-91405053D01*
X179231430Y-91255784D01*
X179288699Y-91095913D01*
X179315086Y-90929737D01*
X179309585Y-90761552D01*
X179271190Y-90595655D01*
X179198895Y-90436342D01*
X179177626Y-90401487D01*
X179066996Y-90260737D01*
X178936302Y-90147714D01*
X178790064Y-90063003D01*
X178632808Y-90007194D01*
X178469057Y-89980874D01*
X178303333Y-89984630D01*
X178140162Y-90019050D01*
X177984065Y-90084723D01*
X177839567Y-90182235D01*
X177794869Y-90221813D01*
X177681112Y-90345703D01*
X177598218Y-90476124D01*
X177541356Y-90622315D01*
X177509687Y-90767088D01*
X177501869Y-90929860D01*
X177527938Y-91093440D01*
X177585245Y-91252298D01*
X177671144Y-91400906D01*
X177782986Y-91533735D01*
X177918123Y-91645256D01*
X177935883Y-91657011D01*
X177992150Y-91695508D01*
X178034923Y-91728863D01*
X178055372Y-91750160D01*
X178055669Y-91750833D01*
X178051279Y-91773871D01*
X178033876Y-91826157D01*
X178005268Y-91903390D01*
X177967265Y-92001268D01*
X177921674Y-92115491D01*
X177870303Y-92241758D01*
X177814962Y-92375767D01*
X177757458Y-92513218D01*
X177699601Y-92649808D01*
X177643198Y-92781237D01*
X177590058Y-92903205D01*
X177541990Y-93011409D01*
X177500801Y-93101549D01*
X177468301Y-93169323D01*
X177446297Y-93210430D01*
X177437436Y-93221226D01*
X177410360Y-93212819D01*
X177359697Y-93190272D01*
X177294183Y-93157613D01*
X177258159Y-93138520D01*
X177105168Y-93055800D01*
X176922912Y-93179075D01*
X176829875Y-93242228D01*
X176728015Y-93311727D01*
X176632562Y-93377165D01*
X176584750Y-93410117D01*
X176517505Y-93455273D01*
X176460564Y-93491057D01*
X176421354Y-93512938D01*
X176408619Y-93517563D01*
X176390083Y-93505085D01*
X176349059Y-93470252D01*
X176289525Y-93416678D01*
X176215458Y-93347983D01*
X176130835Y-93267781D01*
X176077315Y-93216286D01*
X175983681Y-93124286D01*
X175902759Y-93041999D01*
X175837823Y-92972945D01*
X175792142Y-92920644D01*
X175768989Y-92888616D01*
X175766768Y-92882116D01*
X175777076Y-92857394D01*
X175805561Y-92807405D01*
X175849063Y-92737212D01*
X175904423Y-92651875D01*
X175968480Y-92556456D01*
X175986697Y-92529854D01*
X176053073Y-92433167D01*
X176112622Y-92346117D01*
X176162016Y-92273595D01*
X176197925Y-92220493D01*
X176217019Y-92191703D01*
X176218864Y-92188726D01*
X176216105Y-92165782D01*
X176201462Y-92115336D01*
X176177487Y-92044041D01*
X176146734Y-91958547D01*
X176111756Y-91865507D01*
X176075107Y-91771574D01*
X176039339Y-91683399D01*
X176007006Y-91607634D01*
X175980662Y-91550931D01*
X175962858Y-91519943D01*
X175961593Y-91518457D01*
X175950706Y-91509601D01*
X175932318Y-91500843D01*
X175902394Y-91491277D01*
X175856897Y-91479996D01*
X175791791Y-91466093D01*
X175703039Y-91448663D01*
X175586607Y-91426798D01*
X175438458Y-91399591D01*
X175406382Y-91393741D01*
X175311314Y-91375374D01*
X175228435Y-91357405D01*
X175165070Y-91341569D01*
X175128542Y-91329600D01*
X175123644Y-91326810D01*
X175115573Y-91302072D01*
X175109013Y-91246790D01*
X175103967Y-91167389D01*
X175100441Y-91070296D01*
X175098439Y-90961938D01*
X175097964Y-90848740D01*
X175099023Y-90737128D01*
X175101618Y-90633529D01*
X175105754Y-90544368D01*
X175111437Y-90476072D01*
X175118669Y-90435066D01*
X175123029Y-90426674D01*
X175147302Y-90418208D01*
X175202574Y-90404435D01*
X175283338Y-90386550D01*
X175384088Y-90365748D01*
X175499317Y-90343223D01*
X175562098Y-90331418D01*
X175681213Y-90309151D01*
X175787435Y-90288979D01*
X175875573Y-90271915D01*
X175940434Y-90258969D01*
X175976826Y-90251155D01*
X175982816Y-90249422D01*
X175992939Y-90229890D01*
X176014338Y-90182843D01*
X176044161Y-90115003D01*
X176079555Y-90033091D01*
X176117668Y-89943828D01*
X176155647Y-89853935D01*
X176190640Y-89770135D01*
X176219794Y-89699147D01*
X176240257Y-89647694D01*
X176249177Y-89622497D01*
X176249343Y-89621396D01*
X176239231Y-89601519D01*
X176210883Y-89555777D01*
X176167277Y-89488717D01*
X176111394Y-89404884D01*
X176046213Y-89308826D01*
X176008321Y-89253650D01*
X175939275Y-89152481D01*
X175877950Y-89060630D01*
X175827337Y-88982744D01*
X175790429Y-88923469D01*
X175770218Y-88887451D01*
X175767299Y-88879377D01*
X175779847Y-88860584D01*
X175814537Y-88820457D01*
X175866937Y-88763493D01*
X175932616Y-88694185D01*
X176007144Y-88617031D01*
X176086087Y-88536525D01*
X176165017Y-88457163D01*
X176239500Y-88383440D01*
X176305106Y-88319852D01*
X176357404Y-88270894D01*
X176391961Y-88241061D01*
X176403522Y-88233942D01*
X176422346Y-88243953D01*
X176467369Y-88272078D01*
X176534213Y-88315454D01*
X176618501Y-88371218D01*
X176715856Y-88436506D01*
X176789293Y-88486246D01*
X177160333Y-88738551D01*
X177778905Y-88483555D01*
X177862725Y-88038931D01*
X177946546Y-87594307D01*
X178871994Y-87594307D01*
X178955814Y-88038931D01*
G37*
D14*
X178955814Y-88038931D02*
X179039635Y-88483555D01*
X179348920Y-88611053D01*
X179658206Y-88738551D01*
X180029246Y-88486246D01*
X180133157Y-88415996D01*
X180227087Y-88353272D01*
X180306652Y-88300938D01*
X180367470Y-88261857D01*
X180405157Y-88238893D01*
X180415421Y-88233942D01*
X180433910Y-88246676D01*
X180473420Y-88281882D01*
X180529522Y-88335062D01*
X180597787Y-88401718D01*
X180673786Y-88477354D01*
X180753092Y-88557472D01*
X180831275Y-88637574D01*
X180903907Y-88713164D01*
X180966559Y-88779745D01*
X181014803Y-88832818D01*
X181044210Y-88867887D01*
X181051241Y-88879623D01*
X181041123Y-88901260D01*
X181012759Y-88948662D01*
X180969129Y-89017193D01*
X180913218Y-89102215D01*
X180848006Y-89199093D01*
X180810219Y-89254350D01*
X180741343Y-89355248D01*
X180680140Y-89446299D01*
X180629578Y-89522970D01*
X180592628Y-89580728D01*
X180572258Y-89615043D01*
X180569197Y-89622254D01*
X180576136Y-89642748D01*
X180595051Y-89690513D01*
X180623087Y-89758832D01*
X180657391Y-89840989D01*
X180695109Y-89930270D01*
X180733387Y-90019958D01*
X180769370Y-90103338D01*
X180800206Y-90173694D01*
X180823039Y-90224310D01*
X180835017Y-90248471D01*
X180835724Y-90249422D01*
X180854531Y-90254036D01*
X180904618Y-90264328D01*
X180980793Y-90279287D01*
X181077865Y-90297901D01*
X181190643Y-90319159D01*
X181256442Y-90331418D01*
X181376950Y-90354362D01*
X181485797Y-90376195D01*
X181577476Y-90395722D01*
X181646481Y-90411748D01*
X181687304Y-90423079D01*
X181695511Y-90426674D01*
X181703548Y-90451006D01*
X181710033Y-90505959D01*
X181714970Y-90585108D01*
X181718364Y-90682026D01*
X181720218Y-90790287D01*
X181720538Y-90903465D01*
X181719327Y-91015135D01*
X181716590Y-91118868D01*
X181712331Y-91208241D01*
X181706555Y-91276826D01*
X181699267Y-91318197D01*
X181694895Y-91326810D01*
X181668764Y-91337133D01*
X181613393Y-91351892D01*
X181536107Y-91369352D01*
X181444230Y-91387780D01*
X181412158Y-91393741D01*
X181257524Y-91422066D01*
X181135375Y-91444876D01*
X181041673Y-91463080D01*
X180972384Y-91477583D01*
X180923471Y-91489292D01*
X180890897Y-91499115D01*
X180870628Y-91507956D01*
X180858626Y-91516724D01*
X180856947Y-91518457D01*
X180840184Y-91546371D01*
X180814614Y-91600695D01*
X180782788Y-91674777D01*
X180747260Y-91761965D01*
X180710583Y-91855608D01*
X180675311Y-91949052D01*
X180643996Y-92035647D01*
X180619193Y-92108740D01*
X180603454Y-92161678D01*
X180599332Y-92187811D01*
X180599676Y-92188726D01*
X180613641Y-92210086D01*
X180645322Y-92257084D01*
X180691391Y-92324827D01*
X180748518Y-92408423D01*
X180813373Y-92502982D01*
X180831843Y-92529854D01*
X180897699Y-92627275D01*
X180955650Y-92716163D01*
X181002538Y-92791412D01*
X181035207Y-92847920D01*
X181050500Y-92880581D01*
X181051241Y-92884593D01*
X181038392Y-92905684D01*
X181002888Y-92947464D01*
X180949293Y-93005445D01*
X180882171Y-93075135D01*
X180806087Y-93152045D01*
X180725604Y-93231683D01*
X180645287Y-93309561D01*
X180569699Y-93381186D01*
X180503405Y-93442070D01*
X180450969Y-93487721D01*
X180416955Y-93513650D01*
X180407545Y-93517883D01*
X180385643Y-93507912D01*
X180340800Y-93481020D01*
X180280321Y-93441736D01*
X180233789Y-93410117D01*
X180149475Y-93352098D01*
X180049626Y-93283784D01*
X179949473Y-93215579D01*
X179895627Y-93179075D01*
X179713371Y-93055800D01*
X179560381Y-93138520D01*
X179490682Y-93174759D01*
X179431414Y-93202926D01*
X179391311Y-93218991D01*
X179381103Y-93221226D01*
X179368829Y-93204722D01*
X179344613Y-93158082D01*
X179310263Y-93085609D01*
X179267588Y-92991606D01*
X179218394Y-92880374D01*
X179164490Y-92756215D01*
X179107684Y-92623432D01*
X179049782Y-92486327D01*
X178992593Y-92349202D01*
X178937924Y-92216358D01*
X178887584Y-92092098D01*
X178843380Y-91980725D01*
X178807119Y-91886539D01*
X178780609Y-91813844D01*
X178765658Y-91766941D01*
X178763254Y-91750833D01*
X178782311Y-91730286D01*
X178824036Y-91696933D01*
X178879706Y-91657702D01*
X178884378Y-91654599D01*
X179028264Y-91539423D01*
X179144283Y-91405053D01*
X179231430Y-91255784D01*
X179288699Y-91095913D01*
X179315086Y-90929737D01*
X179309585Y-90761552D01*
X179271190Y-90595655D01*
X179198895Y-90436342D01*
X179177626Y-90401487D01*
X179066996Y-90260737D01*
X178936302Y-90147714D01*
X178790064Y-90063003D01*
X178632808Y-90007194D01*
X178469057Y-89980874D01*
X178303333Y-89984630D01*
X178140162Y-90019050D01*
X177984065Y-90084723D01*
X177839567Y-90182235D01*
X177794869Y-90221813D01*
X177681112Y-90345703D01*
X177598218Y-90476124D01*
X177541356Y-90622315D01*
X177509687Y-90767088D01*
X177501869Y-90929860D01*
X177527938Y-91093440D01*
X177585245Y-91252298D01*
X177671144Y-91400906D01*
X177782986Y-91533735D01*
X177918123Y-91645256D01*
X177935883Y-91657011D01*
X177992150Y-91695508D01*
X178034923Y-91728863D01*
X178055372Y-91750160D01*
X178055669Y-91750833D01*
X178051279Y-91773871D01*
X178033876Y-91826157D01*
X178005268Y-91903390D01*
X177967265Y-92001268D01*
X177921674Y-92115491D01*
X177870303Y-92241758D01*
X177814962Y-92375767D01*
X177757458Y-92513218D01*
X177699601Y-92649808D01*
X177643198Y-92781237D01*
X177590058Y-92903205D01*
X177541990Y-93011409D01*
X177500801Y-93101549D01*
X177468301Y-93169323D01*
X177446297Y-93210430D01*
X177437436Y-93221226D01*
X177410360Y-93212819D01*
X177359697Y-93190272D01*
X177294183Y-93157613D01*
X177258159Y-93138520D01*
X177105168Y-93055800D01*
X176922912Y-93179075D01*
X176829875Y-93242228D01*
X176728015Y-93311727D01*
X176632562Y-93377165D01*
X176584750Y-93410117D01*
X176517505Y-93455273D01*
X176460564Y-93491057D01*
X176421354Y-93512938D01*
X176408619Y-93517563D01*
X176390083Y-93505085D01*
X176349059Y-93470252D01*
X176289525Y-93416678D01*
X176215458Y-93347983D01*
X176130835Y-93267781D01*
X176077315Y-93216286D01*
X175983681Y-93124286D01*
X175902759Y-93041999D01*
X175837823Y-92972945D01*
X175792142Y-92920644D01*
X175768989Y-92888616D01*
X175766768Y-92882116D01*
X175777076Y-92857394D01*
X175805561Y-92807405D01*
X175849063Y-92737212D01*
X175904423Y-92651875D01*
X175968480Y-92556456D01*
X175986697Y-92529854D01*
X176053073Y-92433167D01*
X176112622Y-92346117D01*
X176162016Y-92273595D01*
X176197925Y-92220493D01*
X176217019Y-92191703D01*
X176218864Y-92188726D01*
X176216105Y-92165782D01*
X176201462Y-92115336D01*
X176177487Y-92044041D01*
X176146734Y-91958547D01*
X176111756Y-91865507D01*
X176075107Y-91771574D01*
X176039339Y-91683399D01*
X176007006Y-91607634D01*
X175980662Y-91550931D01*
X175962858Y-91519943D01*
X175961593Y-91518457D01*
X175950706Y-91509601D01*
X175932318Y-91500843D01*
X175902394Y-91491277D01*
X175856897Y-91479996D01*
X175791791Y-91466093D01*
X175703039Y-91448663D01*
X175586607Y-91426798D01*
X175438458Y-91399591D01*
X175406382Y-91393741D01*
X175311314Y-91375374D01*
X175228435Y-91357405D01*
X175165070Y-91341569D01*
X175128542Y-91329600D01*
X175123644Y-91326810D01*
X175115573Y-91302072D01*
X175109013Y-91246790D01*
X175103967Y-91167389D01*
X175100441Y-91070296D01*
X175098439Y-90961938D01*
X175097964Y-90848740D01*
X175099023Y-90737128D01*
X175101618Y-90633529D01*
X175105754Y-90544368D01*
X175111437Y-90476072D01*
X175118669Y-90435066D01*
X175123029Y-90426674D01*
X175147302Y-90418208D01*
X175202574Y-90404435D01*
X175283338Y-90386550D01*
X175384088Y-90365748D01*
X175499317Y-90343223D01*
X175562098Y-90331418D01*
X175681213Y-90309151D01*
X175787435Y-90288979D01*
X175875573Y-90271915D01*
X175940434Y-90258969D01*
X175976826Y-90251155D01*
X175982816Y-90249422D01*
X175992939Y-90229890D01*
X176014338Y-90182843D01*
X176044161Y-90115003D01*
X176079555Y-90033091D01*
X176117668Y-89943828D01*
X176155647Y-89853935D01*
X176190640Y-89770135D01*
X176219794Y-89699147D01*
X176240257Y-89647694D01*
X176249177Y-89622497D01*
X176249343Y-89621396D01*
X176239231Y-89601519D01*
X176210883Y-89555777D01*
X176167277Y-89488717D01*
X176111394Y-89404884D01*
X176046213Y-89308826D01*
X176008321Y-89253650D01*
X175939275Y-89152481D01*
X175877950Y-89060630D01*
X175827337Y-88982744D01*
X175790429Y-88923469D01*
X175770218Y-88887451D01*
X175767299Y-88879377D01*
X175779847Y-88860584D01*
X175814537Y-88820457D01*
X175866937Y-88763493D01*
X175932616Y-88694185D01*
X176007144Y-88617031D01*
X176086087Y-88536525D01*
X176165017Y-88457163D01*
X176239500Y-88383440D01*
X176305106Y-88319852D01*
X176357404Y-88270894D01*
X176391961Y-88241061D01*
X176403522Y-88233942D01*
X176422346Y-88243953D01*
X176467369Y-88272078D01*
X176534213Y-88315454D01*
X176618501Y-88371218D01*
X176715856Y-88436506D01*
X176789293Y-88486246D01*
X177160333Y-88738551D01*
X177778905Y-88483555D01*
X177862725Y-88038931D01*
X177946546Y-87594307D01*
X178871994Y-87594307D01*
X178955814Y-88038931D01*
D12*
%TO.C,R6*%
X120075000Y-120252936D02*
X120075000Y-120707064D01*
X121545000Y-120252936D02*
X121545000Y-120707064D01*
%TO.C,R23*%
X161263000Y-91175064D02*
X161263000Y-90720936D01*
X159793000Y-91175064D02*
X159793000Y-90720936D01*
%TO.C,R11*%
X154167064Y-72417000D02*
X153712936Y-72417000D01*
X154167064Y-73887000D02*
X153712936Y-73887000D01*
%TO.C,U11*%
X168200000Y-93825000D02*
X170400000Y-93825000D01*
X168200000Y-93825000D02*
X166000000Y-93825000D01*
X168200000Y-99295000D02*
X166000000Y-99295000D01*
X168200000Y-99295000D02*
X171800000Y-99295000D01*
%TO.C,R12*%
X177572936Y-73433000D02*
X178027064Y-73433000D01*
X177572936Y-74903000D02*
X178027064Y-74903000D01*
%TO.C,R27*%
X171985000Y-81560936D02*
X171985000Y-82015064D01*
X173455000Y-81560936D02*
X173455000Y-82015064D01*
%TO.C,Q2*%
X170144000Y-77724000D02*
X170144000Y-79399000D01*
X170144000Y-77724000D02*
X170144000Y-77074000D01*
X173264000Y-77724000D02*
X173264000Y-78374000D01*
X173264000Y-77724000D02*
X173264000Y-77074000D01*
%TO.C,R13*%
X160501064Y-72163000D02*
X160046936Y-72163000D01*
X160501064Y-73633000D02*
X160046936Y-73633000D01*
%TO.C,Q5*%
X153924000Y-88936000D02*
X155599000Y-88936000D01*
X153924000Y-88936000D02*
X153274000Y-88936000D01*
X153924000Y-85816000D02*
X154574000Y-85816000D01*
X153924000Y-85816000D02*
X153274000Y-85816000D01*
%TO.C,R29*%
X157305000Y-103436263D02*
X157305000Y-104883737D01*
X160015000Y-103436263D02*
X160015000Y-104883737D01*
%TD*%
M02*
