M48
; DRILL file {KiCad 6.0.11-2627ca5db0~126~ubuntu22.04.1} date Mon 13 Mar 2023 11:49:09 AM EDT
; FORMAT={-:-/ absolute / inch / decimal}
; #@! TF.CreationDate,2023-03-13T11:49:09-04:00
; #@! TF.GenerationSoftware,Kicad,Pcbnew,6.0.11-2627ca5db0~126~ubuntu22.04.1
; #@! TF.FileFunction,Plated,1,4,PTH
FMAT,2
INCH
; #@! TA.AperFunction,Plated,PTH,ViaDrill
T1C0.0157
; #@! TA.AperFunction,Plated,PTH,ComponentDrill
T2C0.0315
; #@! TA.AperFunction,Plated,PTH,ComponentDrill
T3C0.0394
; #@! TA.AperFunction,Plated,PTH,ComponentDrill
T4C0.0400
; #@! TA.AperFunction,Plated,PTH,ComponentDrill
T5C0.1260
%
G90
G05
T1
X4.36Y-3.935
X4.395Y-4.01
X4.4235Y-3.9793
X4.4348Y-3.7748
X4.445Y-4.665
X4.48Y-4.565
X4.49Y-4.745
X4.5034Y-4.6511
X4.505Y-4.075
X4.535Y-4.51
X4.536Y-4.629
X4.54Y-4.115
X4.561Y-2.9839
X4.5689Y-3.2264
X4.59Y-4.585
X4.6Y-4.74
X4.62Y-4.63
X4.6356Y-4.785
X4.6437Y-4.5114
X4.65Y-4.2
X4.6606Y-4.6524
X4.6913Y-4.1362
X4.8Y-3.72
X4.8425Y-3.8583
X4.89Y-4.42
X4.9553Y-4.275
X4.9571Y-4.4067
X4.965Y-3.88
X4.985Y-4.7776
X4.9925Y-3.5272
X5.0016Y-4.6705
X5.0421Y-4.1307
X5.0551Y-4.4787
X5.0606Y-3.5382
X5.1028Y-4.3319
X5.1547Y-3.5098
X5.1622Y-4.1996
X5.202Y-4.6035
X5.2091Y-4.4091
X5.24Y-3.98
X5.2602Y-4.0398
X5.28Y-4.1
X5.2921Y-4.2701
X5.2953Y-4.2157
X5.4098Y-4.3539
X5.4232Y-4.1886
X5.54Y-4.26
X5.54Y-4.44
X5.548Y-4.2083
X5.55Y-4.1285
X5.5744Y-3.9189
X5.5933Y-4.148
X5.5935Y-4.322
X5.5992Y-3.589
X5.602Y-3.8394
X5.6575Y-4.0008
X5.66Y-4.22
X5.66Y-4.38
X5.7Y-4.24
X5.7Y-4.38
X5.7285Y-4.3343
X5.739Y-4.45
X5.74Y-3.78
X5.8Y-3.88
X5.8543Y-4.2547
X5.96Y-2.88
X5.96Y-3.5
X6.02Y-3.0298
X6.02Y-3.2
X6.0402Y-4.3067
X6.0512Y-4.4941
X6.0866Y-4.6094
X6.1035Y-4.3343
X6.12Y-3.22
X6.12Y-3.34
X6.14Y-2.98
X6.14Y-3.64
X6.1417Y-4.1646
X6.1478Y-2.9368
X6.1482Y-2.88
X6.1594Y-4.3417
X6.1678Y-3.6122
X6.1732Y-4.237
X6.1795Y-3.3433
X6.195Y-2.87
X6.2205Y-3.1811
X6.24Y-3.46
X6.24Y-3.5
X6.26Y-2.96
X6.32Y-3.36
X6.32Y-3.48
X6.3748Y-2.9158
X6.4Y-3.2803
X6.4Y-3.62
X6.4075Y-3.8862
X6.4402Y-3.7388
X6.4424Y-3.8587
X6.45Y-3.8201
X6.4572Y-3.8956
X6.4583Y-4.1764
X6.48Y-2.9
X6.48Y-3.48
X6.4809Y-2.9499
X6.5169Y-4.2823
X6.5268Y-4.3878
X6.5402Y-3.0925
X6.5425Y-3.9976
X6.56Y-3.44
X6.5739Y-3.7107
X6.6035Y-4.3378
X6.6111Y-3.4867
X6.6181Y-3.3189
X6.6311Y-3.9976
X6.68Y-3.1
X6.7055Y-3.9965
X6.72Y-3.32
X6.7382Y-3.5264
X6.75Y-3.9988
X6.7894Y-3.7118
X6.7894Y-4.0421
X6.7912Y-3.8688
X6.8Y-3.3213
X6.8071Y-3.7622
X6.863Y-3.1102
X6.8737Y-3.3143
X6.8934Y-2.9666
X6.8969Y-2.9201
X6.9764Y-3.111
X7.1Y-2.92
X7.1791Y-3.8925
X7.2193Y-4.1807
X7.4067Y-2.9642
X7.4445Y-3.585
X7.4768Y-4.0244
X7.572Y-4.1693
X7.6492Y-4.2736
X7.7614Y-4.3744
X7.822Y-4.4283
X7.8618Y-4.4937
X7.8768Y-4.6189
X7.8941Y-4.0272
T2
X7.3361Y-3.1268
X7.3361Y-3.2268
X7.3361Y-3.3268
X7.3361Y-3.4268
X7.3361Y-3.5268
X7.3361Y-3.6268
X7.3361Y-3.7268
X7.3361Y-3.8268
X7.3361Y-3.9268
X7.3361Y-4.0268
X7.3361Y-4.1268
X7.3361Y-4.2268
X7.3361Y-4.3268
X7.3361Y-4.4268
X7.3361Y-4.5268
X7.3361Y-4.6268
X8.1361Y-3.5268
X8.1361Y-3.6268
X8.1361Y-3.7268
X8.1361Y-3.8268
X8.1361Y-3.9268
X8.1361Y-4.0268
X8.1361Y-4.1268
X8.1361Y-4.2268
X8.1361Y-4.3268
X8.1361Y-4.4268
X8.1361Y-4.5268
X8.1361Y-4.6268
T3
X4.5706Y-3.678
X4.5706Y-3.7681
X4.5706Y-3.8583
X4.5706Y-3.9485
X4.5706Y-4.0386
X4.6486Y-3.7231
X4.6486Y-3.8132
X4.6486Y-3.9034
X4.6486Y-3.9935
X4.6486Y-4.0837
X4.7265Y-3.678
X4.7265Y-3.7681
X4.7265Y-3.8583
X4.7265Y-3.9485
X4.7265Y-4.0386
X5.0599Y-2.9363
X5.0599Y-3.0363
X5.0599Y-3.1363
X5.0599Y-3.2363
X5.3646Y-3.4681
X5.3646Y-3.5681
T4
X6.7574Y-4.4823
X6.7574Y-4.6603
X7.0134Y-4.4823
X7.0134Y-4.6603
T5
X4.6706Y-3.3766
X4.6706Y-4.3609
T0
M30
