%TF.GenerationSoftware,KiCad,Pcbnew,6.0.11-2627ca5db0~126~ubuntu22.04.1*%
%TF.CreationDate,2023-03-13T11:49:13-04:00*%
%TF.ProjectId,obd-feather,6f62642d-6665-4617-9468-65722e6b6963,1.0*%
%TF.SameCoordinates,Original*%
%TF.FileFunction,Paste,Top*%
%TF.FilePolarity,Positive*%
%FSLAX46Y46*%
G04 Gerber Fmt 4.6, Leading zero omitted, Abs format (unit mm)*
G04 Created by KiCad (PCBNEW 6.0.11-2627ca5db0~126~ubuntu22.04.1) date 2023-03-13 11:49:13*
%MOMM*%
%LPD*%
G01*
G04 APERTURE LIST*
G04 Aperture macros list*
%AMRoundRect*
0 Rectangle with rounded corners*
0 $1 Rounding radius*
0 $2 $3 $4 $5 $6 $7 $8 $9 X,Y pos of 4 corners*
0 Add a 4 corners polygon primitive as box body*
4,1,4,$2,$3,$4,$5,$6,$7,$8,$9,$2,$3,0*
0 Add four circle primitives for the rounded corners*
1,1,$1+$1,$2,$3*
1,1,$1+$1,$4,$5*
1,1,$1+$1,$6,$7*
1,1,$1+$1,$8,$9*
0 Add four rect primitives between the rounded corners*
20,1,$1+$1,$2,$3,$4,$5,0*
20,1,$1+$1,$4,$5,$6,$7,0*
20,1,$1+$1,$6,$7,$8,$9,0*
20,1,$1+$1,$8,$9,$2,$3,0*%
%AMFreePoly0*
4,1,9,3.862500,-0.866500,0.737500,-0.866500,0.737500,-0.450000,-0.737500,-0.450000,-0.737500,0.450000,0.737500,0.450000,0.737500,0.866500,3.862500,0.866500,3.862500,-0.866500,3.862500,-0.866500,$1*%
G04 Aperture macros list end*
%ADD10R,0.558800X0.635000*%
%ADD11R,0.900000X1.300000*%
%ADD12FreePoly0,270.000000*%
%ADD13R,1.168400X0.254000*%
%ADD14R,0.900000X1.200000*%
%ADD15R,1.460500X0.533400*%
%ADD16RoundRect,0.150000X-0.150000X0.825000X-0.150000X-0.825000X0.150000X-0.825000X0.150000X0.825000X0*%
%ADD17RoundRect,0.250000X1.450000X-0.400000X1.450000X0.400000X-1.450000X0.400000X-1.450000X-0.400000X0*%
%ADD18R,3.500000X1.800000*%
%ADD19RoundRect,0.250000X-0.475000X0.337500X-0.475000X-0.337500X0.475000X-0.337500X0.475000X0.337500X0*%
%ADD20RoundRect,0.250000X-0.425000X0.537500X-0.425000X-0.537500X0.425000X-0.537500X0.425000X0.537500X0*%
%ADD21RoundRect,0.250000X0.337500X0.475000X-0.337500X0.475000X-0.337500X-0.475000X0.337500X-0.475000X0*%
%ADD22RoundRect,0.250000X-0.350000X-0.450000X0.350000X-0.450000X0.350000X0.450000X-0.350000X0.450000X0*%
%ADD23R,1.200000X0.900000*%
%ADD24RoundRect,0.250000X-0.450000X0.350000X-0.450000X-0.350000X0.450000X-0.350000X0.450000X0.350000X0*%
%ADD25R,1.981200X0.508000*%
%ADD26R,2.500000X1.800000*%
%ADD27RoundRect,0.150000X0.150000X-0.587500X0.150000X0.587500X-0.150000X0.587500X-0.150000X-0.587500X0*%
%ADD28RoundRect,0.150000X0.587500X0.150000X-0.587500X0.150000X-0.587500X-0.150000X0.587500X-0.150000X0*%
%ADD29RoundRect,0.100000X0.637500X0.100000X-0.637500X0.100000X-0.637500X-0.100000X0.637500X-0.100000X0*%
%ADD30RoundRect,0.250000X-0.337500X-0.475000X0.337500X-0.475000X0.337500X0.475000X-0.337500X0.475000X0*%
%ADD31RoundRect,0.150000X-0.150000X0.587500X-0.150000X-0.587500X0.150000X-0.587500X0.150000X0.587500X0*%
%ADD32RoundRect,0.250000X0.475000X-0.337500X0.475000X0.337500X-0.475000X0.337500X-0.475000X-0.337500X0*%
%ADD33RoundRect,0.250000X0.450000X-0.350000X0.450000X0.350000X-0.450000X0.350000X-0.450000X-0.350000X0*%
%ADD34RoundRect,0.250000X-1.025000X0.875000X-1.025000X-0.875000X1.025000X-0.875000X1.025000X0.875000X0*%
%ADD35RoundRect,0.250000X0.350000X0.450000X-0.350000X0.450000X-0.350000X-0.450000X0.350000X-0.450000X0*%
%ADD36RoundRect,0.250000X-1.075000X0.400000X-1.075000X-0.400000X1.075000X-0.400000X1.075000X0.400000X0*%
G04 APERTURE END LIST*
D10*
%TO.C,RN1*%
X171149999Y-100568600D03*
X170349999Y-100568600D03*
X169550000Y-100568600D03*
X168749999Y-100568600D03*
X167950001Y-100568600D03*
X167150000Y-100568600D03*
X166349999Y-100568600D03*
X165550001Y-100568600D03*
X165550001Y-102651400D03*
X166350001Y-102651400D03*
X167150000Y-102651400D03*
X167950001Y-102651400D03*
X168749999Y-102651400D03*
X169550000Y-102651400D03*
X170350001Y-102651400D03*
X171149999Y-102651400D03*
%TD*%
D11*
%TO.C,U9*%
X147804000Y-87250000D03*
D12*
X146304000Y-87337500D03*
D11*
X144804000Y-87250000D03*
%TD*%
D13*
%TO.C,U5*%
X115468400Y-119010999D03*
X115468400Y-119511000D03*
X115468400Y-120011000D03*
X115468400Y-120511001D03*
X118211600Y-120511001D03*
X118211600Y-120011000D03*
X118211600Y-119511000D03*
X118211600Y-119010999D03*
%TD*%
D14*
%TO.C,D16*%
X139080000Y-101620000D03*
X142380000Y-101620000D03*
%TD*%
D15*
%TO.C,U10*%
X158520000Y-107650000D03*
X158520000Y-108920000D03*
X158520000Y-110190000D03*
X158520000Y-111460000D03*
X163968300Y-111460000D03*
X163968300Y-110190000D03*
X163968300Y-108920000D03*
X163968300Y-107650000D03*
%TD*%
D16*
%TO.C,U7*%
X130900000Y-111990000D03*
X129630000Y-111990000D03*
X128360000Y-111990000D03*
X127090000Y-111990000D03*
X127090000Y-116940000D03*
X128360000Y-116940000D03*
X129630000Y-116940000D03*
X130900000Y-116940000D03*
%TD*%
D17*
%TO.C,F1*%
X112000000Y-80935000D03*
X112000000Y-76485000D03*
%TD*%
D14*
%TO.C,D13*%
X158480000Y-114220000D03*
X155180000Y-114220000D03*
%TD*%
%TO.C,D12*%
X151460000Y-105780000D03*
X154760000Y-105780000D03*
%TD*%
D18*
%TO.C,D11*%
X154340000Y-102580000D03*
X149340000Y-102580000D03*
%TD*%
D19*
%TO.C,C19*%
X130930000Y-85492500D03*
X130930000Y-87567500D03*
%TD*%
D20*
%TO.C,C17*%
X128560000Y-85370000D03*
X128560000Y-88245000D03*
%TD*%
D21*
%TO.C,C11*%
X158450000Y-117030000D03*
X156375000Y-117030000D03*
%TD*%
D22*
%TO.C,R25*%
X164608000Y-82804000D03*
X166608000Y-82804000D03*
%TD*%
D23*
%TO.C,D18*%
X115990000Y-77380000D03*
X115990000Y-80680000D03*
%TD*%
D24*
%TO.C,R21*%
X162560000Y-84852000D03*
X162560000Y-86852000D03*
%TD*%
D19*
%TO.C,C2*%
X123317000Y-113241000D03*
X123317000Y-115316000D03*
%TD*%
D21*
%TO.C,C14*%
X137181500Y-101600000D03*
X135106500Y-101600000D03*
%TD*%
D25*
%TO.C,U6*%
X132673800Y-109855000D03*
X132673800Y-108585000D03*
X132673800Y-107315000D03*
X132673800Y-106045000D03*
X127746200Y-106045000D03*
X127746200Y-107315000D03*
X127746200Y-108585000D03*
X127746200Y-109855000D03*
%TD*%
D19*
%TO.C,C7*%
X148336000Y-92434500D03*
X148336000Y-94509500D03*
%TD*%
D22*
%TO.C,R26*%
X155448000Y-83312000D03*
X157448000Y-83312000D03*
%TD*%
D26*
%TO.C,D14*%
X132556000Y-98552000D03*
X128556000Y-98552000D03*
%TD*%
%TO.C,D17*%
X115960000Y-73680000D03*
X111960000Y-73680000D03*
%TD*%
D13*
%TO.C,U3*%
X139329838Y-106215142D03*
X139329838Y-106715143D03*
X139329838Y-107215143D03*
X139329838Y-107715144D03*
X142073038Y-107715144D03*
X142073038Y-107215143D03*
X142073038Y-106715143D03*
X142073038Y-106215142D03*
%TD*%
D19*
%TO.C,C8*%
X146304000Y-92434500D03*
X146304000Y-94509500D03*
%TD*%
D27*
%TO.C,Q9*%
X165674000Y-86789500D03*
X167574000Y-86789500D03*
X166624000Y-84914500D03*
%TD*%
D28*
%TO.C,Q7*%
X158339000Y-91882000D03*
X158339000Y-89982000D03*
X156464000Y-90932000D03*
%TD*%
D29*
%TO.C,U8*%
X163390500Y-75651000D03*
X163390500Y-75001000D03*
X163390500Y-74351000D03*
X163390500Y-73701000D03*
X157665500Y-73701000D03*
X157665500Y-74351000D03*
X157665500Y-75001000D03*
X157665500Y-75651000D03*
%TD*%
D22*
%TO.C,R34*%
X135144000Y-97536000D03*
X137144000Y-97536000D03*
%TD*%
D30*
%TO.C,C4*%
X123080000Y-121380000D03*
X125155000Y-121380000D03*
%TD*%
D21*
%TO.C,C13*%
X140895000Y-97520000D03*
X138820000Y-97520000D03*
%TD*%
D28*
%TO.C,Q10*%
X170609500Y-82738000D03*
X170609500Y-80838000D03*
X168734500Y-81788000D03*
%TD*%
D22*
%TO.C,R5*%
X119793000Y-115316000D03*
X121793000Y-115316000D03*
%TD*%
D31*
%TO.C,Q3*%
X176210000Y-76786500D03*
X174310000Y-76786500D03*
X175260000Y-78661500D03*
%TD*%
D13*
%TO.C,U2*%
X139344400Y-110501999D03*
X139344400Y-111002000D03*
X139344400Y-111502000D03*
X139344400Y-112002001D03*
X142087600Y-112002001D03*
X142087600Y-111502000D03*
X142087600Y-111002000D03*
X142087600Y-110501999D03*
%TD*%
D32*
%TO.C,C6*%
X142180000Y-89297500D03*
X142180000Y-87222500D03*
%TD*%
D27*
%TO.C,Q4*%
X169230000Y-87727000D03*
X171130000Y-87727000D03*
X170180000Y-85852000D03*
%TD*%
D33*
%TO.C,R18*%
X149860000Y-89376000D03*
X149860000Y-87376000D03*
%TD*%
D22*
%TO.C,R10*%
X152908000Y-75184000D03*
X154908000Y-75184000D03*
%TD*%
D34*
%TO.C,C16*%
X120390000Y-73830000D03*
X120390000Y-80230000D03*
%TD*%
D23*
%TO.C,D10*%
X160528000Y-86486000D03*
X160528000Y-83186000D03*
%TD*%
D31*
%TO.C,Q12*%
X152202000Y-109618500D03*
X150302000Y-109618500D03*
X151252000Y-111493500D03*
%TD*%
D33*
%TO.C,R20*%
X152908000Y-84836000D03*
X152908000Y-82836000D03*
%TD*%
%TO.C,R4*%
X124749000Y-109347000D03*
X124749000Y-107347000D03*
%TD*%
D35*
%TO.C,R35*%
X137144000Y-99568000D03*
X135144000Y-99568000D03*
%TD*%
D13*
%TO.C,U4*%
X115214400Y-115454999D03*
X115214400Y-115955000D03*
X115214400Y-116455000D03*
X115214400Y-116955001D03*
X117957600Y-116955001D03*
X117957600Y-116455000D03*
X117957600Y-115955000D03*
X117957600Y-115454999D03*
%TD*%
D24*
%TO.C,R16*%
X156972000Y-86376000D03*
X156972000Y-88376000D03*
%TD*%
D31*
%TO.C,Q13*%
X147696000Y-111493500D03*
X146746000Y-109618500D03*
X148646000Y-109618500D03*
%TD*%
D24*
%TO.C,R15*%
X174752000Y-80788000D03*
X174752000Y-82788000D03*
%TD*%
D35*
%TO.C,R14*%
X173720000Y-74168000D03*
X171720000Y-74168000D03*
%TD*%
D14*
%TO.C,D8*%
X162560000Y-81280000D03*
X159260000Y-81280000D03*
%TD*%
D22*
%TO.C,R19*%
X148637508Y-84821826D03*
X150637508Y-84821826D03*
%TD*%
D24*
%TO.C,R6*%
X120810000Y-119480000D03*
X120810000Y-121480000D03*
%TD*%
D33*
%TO.C,R23*%
X160528000Y-91948000D03*
X160528000Y-89948000D03*
%TD*%
D35*
%TO.C,R11*%
X154940000Y-73152000D03*
X152940000Y-73152000D03*
%TD*%
D29*
%TO.C,U11*%
X171062500Y-98835000D03*
X171062500Y-98185000D03*
X171062500Y-97535000D03*
X171062500Y-96885000D03*
X171062500Y-96235000D03*
X171062500Y-95585000D03*
X171062500Y-94935000D03*
X171062500Y-94285000D03*
X165337500Y-94285000D03*
X165337500Y-94935000D03*
X165337500Y-95585000D03*
X165337500Y-96235000D03*
X165337500Y-96885000D03*
X165337500Y-97535000D03*
X165337500Y-98185000D03*
X165337500Y-98835000D03*
%TD*%
D22*
%TO.C,R12*%
X176800000Y-74168000D03*
X178800000Y-74168000D03*
%TD*%
D24*
%TO.C,R27*%
X172720000Y-80788000D03*
X172720000Y-82788000D03*
%TD*%
D27*
%TO.C,Q2*%
X170754000Y-78661500D03*
X172654000Y-78661500D03*
X171704000Y-76786500D03*
%TD*%
D35*
%TO.C,R13*%
X161274000Y-72898000D03*
X159274000Y-72898000D03*
%TD*%
D28*
%TO.C,Q5*%
X154861500Y-88326000D03*
X154861500Y-86426000D03*
X152986500Y-87376000D03*
%TD*%
D36*
%TO.C,R29*%
X158660000Y-102610000D03*
X158660000Y-105710000D03*
%TD*%
M02*
