%TF.GenerationSoftware,KiCad,Pcbnew,6.0.11-2627ca5db0~126~ubuntu22.04.1*%
%TF.CreationDate,2023-03-13T11:49:13-04:00*%
%TF.ProjectId,obd-feather,6f62642d-6665-4617-9468-65722e6b6963,1.0*%
%TF.SameCoordinates,Original*%
%TF.FileFunction,Legend,Bot*%
%TF.FilePolarity,Positive*%
%FSLAX46Y46*%
G04 Gerber Fmt 4.6, Leading zero omitted, Abs format (unit mm)*
G04 Created by KiCad (PCBNEW 6.0.11-2627ca5db0~126~ubuntu22.04.1) date 2023-03-13 11:49:13*
%MOMM*%
%LPD*%
G01*
G04 APERTURE LIST*
%ADD10C,0.150000*%
%ADD11C,0.127000*%
%ADD12C,0.120000*%
%ADD13C,0.203200*%
G04 APERTURE END LIST*
D10*
%TO.C,R32*%
X111432857Y-91252380D02*
X111766190Y-90776190D01*
X112004285Y-91252380D02*
X112004285Y-90252380D01*
X111623333Y-90252380D01*
X111528095Y-90300000D01*
X111480476Y-90347619D01*
X111432857Y-90442857D01*
X111432857Y-90585714D01*
X111480476Y-90680952D01*
X111528095Y-90728571D01*
X111623333Y-90776190D01*
X112004285Y-90776190D01*
X111099523Y-90252380D02*
X110480476Y-90252380D01*
X110813809Y-90633333D01*
X110670952Y-90633333D01*
X110575714Y-90680952D01*
X110528095Y-90728571D01*
X110480476Y-90823809D01*
X110480476Y-91061904D01*
X110528095Y-91157142D01*
X110575714Y-91204761D01*
X110670952Y-91252380D01*
X110956666Y-91252380D01*
X111051904Y-91204761D01*
X111099523Y-91157142D01*
X110099523Y-90347619D02*
X110051904Y-90300000D01*
X109956666Y-90252380D01*
X109718571Y-90252380D01*
X109623333Y-90300000D01*
X109575714Y-90347619D01*
X109528095Y-90442857D01*
X109528095Y-90538095D01*
X109575714Y-90680952D01*
X110147142Y-91252380D01*
X109528095Y-91252380D01*
%TO.C,D15*%
X125732380Y-89485714D02*
X124732380Y-89485714D01*
X124732380Y-89723809D01*
X124780000Y-89866666D01*
X124875238Y-89961904D01*
X124970476Y-90009523D01*
X125160952Y-90057142D01*
X125303809Y-90057142D01*
X125494285Y-90009523D01*
X125589523Y-89961904D01*
X125684761Y-89866666D01*
X125732380Y-89723809D01*
X125732380Y-89485714D01*
X125732380Y-91009523D02*
X125732380Y-90438095D01*
X125732380Y-90723809D02*
X124732380Y-90723809D01*
X124875238Y-90628571D01*
X124970476Y-90533333D01*
X125018095Y-90438095D01*
X124732380Y-91914285D02*
X124732380Y-91438095D01*
X125208571Y-91390476D01*
X125160952Y-91438095D01*
X125113333Y-91533333D01*
X125113333Y-91771428D01*
X125160952Y-91866666D01*
X125208571Y-91914285D01*
X125303809Y-91961904D01*
X125541904Y-91961904D01*
X125637142Y-91914285D01*
X125684761Y-91866666D01*
X125732380Y-91771428D01*
X125732380Y-91533333D01*
X125684761Y-91438095D01*
X125637142Y-91390476D01*
%TO.C,R3*%
X203336666Y-104442380D02*
X203670000Y-103966190D01*
X203908095Y-104442380D02*
X203908095Y-103442380D01*
X203527142Y-103442380D01*
X203431904Y-103490000D01*
X203384285Y-103537619D01*
X203336666Y-103632857D01*
X203336666Y-103775714D01*
X203384285Y-103870952D01*
X203431904Y-103918571D01*
X203527142Y-103966190D01*
X203908095Y-103966190D01*
X203003333Y-103442380D02*
X202384285Y-103442380D01*
X202717619Y-103823333D01*
X202574761Y-103823333D01*
X202479523Y-103870952D01*
X202431904Y-103918571D01*
X202384285Y-104013809D01*
X202384285Y-104251904D01*
X202431904Y-104347142D01*
X202479523Y-104394761D01*
X202574761Y-104442380D01*
X202860476Y-104442380D01*
X202955714Y-104394761D01*
X203003333Y-104347142D01*
%TO.C,R1*%
X190036666Y-119672380D02*
X190370000Y-119196190D01*
X190608095Y-119672380D02*
X190608095Y-118672380D01*
X190227142Y-118672380D01*
X190131904Y-118720000D01*
X190084285Y-118767619D01*
X190036666Y-118862857D01*
X190036666Y-119005714D01*
X190084285Y-119100952D01*
X190131904Y-119148571D01*
X190227142Y-119196190D01*
X190608095Y-119196190D01*
X189084285Y-119672380D02*
X189655714Y-119672380D01*
X189370000Y-119672380D02*
X189370000Y-118672380D01*
X189465238Y-118815238D01*
X189560476Y-118910476D01*
X189655714Y-118958095D01*
%TO.C,C15*%
X135867142Y-77847142D02*
X135914761Y-77799523D01*
X135962380Y-77656666D01*
X135962380Y-77561428D01*
X135914761Y-77418571D01*
X135819523Y-77323333D01*
X135724285Y-77275714D01*
X135533809Y-77228095D01*
X135390952Y-77228095D01*
X135200476Y-77275714D01*
X135105238Y-77323333D01*
X135010000Y-77418571D01*
X134962380Y-77561428D01*
X134962380Y-77656666D01*
X135010000Y-77799523D01*
X135057619Y-77847142D01*
X135962380Y-78799523D02*
X135962380Y-78228095D01*
X135962380Y-78513809D02*
X134962380Y-78513809D01*
X135105238Y-78418571D01*
X135200476Y-78323333D01*
X135248095Y-78228095D01*
X134962380Y-79704285D02*
X134962380Y-79228095D01*
X135438571Y-79180476D01*
X135390952Y-79228095D01*
X135343333Y-79323333D01*
X135343333Y-79561428D01*
X135390952Y-79656666D01*
X135438571Y-79704285D01*
X135533809Y-79751904D01*
X135771904Y-79751904D01*
X135867142Y-79704285D01*
X135914761Y-79656666D01*
X135962380Y-79561428D01*
X135962380Y-79323333D01*
X135914761Y-79228095D01*
X135867142Y-79180476D01*
%TO.C,C10*%
X157937142Y-108207142D02*
X157984761Y-108159523D01*
X158032380Y-108016666D01*
X158032380Y-107921428D01*
X157984761Y-107778571D01*
X157889523Y-107683333D01*
X157794285Y-107635714D01*
X157603809Y-107588095D01*
X157460952Y-107588095D01*
X157270476Y-107635714D01*
X157175238Y-107683333D01*
X157080000Y-107778571D01*
X157032380Y-107921428D01*
X157032380Y-108016666D01*
X157080000Y-108159523D01*
X157127619Y-108207142D01*
X158032380Y-109159523D02*
X158032380Y-108588095D01*
X158032380Y-108873809D02*
X157032380Y-108873809D01*
X157175238Y-108778571D01*
X157270476Y-108683333D01*
X157318095Y-108588095D01*
X157032380Y-109778571D02*
X157032380Y-109873809D01*
X157080000Y-109969047D01*
X157127619Y-110016666D01*
X157222857Y-110064285D01*
X157413333Y-110111904D01*
X157651428Y-110111904D01*
X157841904Y-110064285D01*
X157937142Y-110016666D01*
X157984761Y-109969047D01*
X158032380Y-109873809D01*
X158032380Y-109778571D01*
X157984761Y-109683333D01*
X157937142Y-109635714D01*
X157841904Y-109588095D01*
X157651428Y-109540476D01*
X157413333Y-109540476D01*
X157222857Y-109588095D01*
X157127619Y-109635714D01*
X157080000Y-109683333D01*
X157032380Y-109778571D01*
%TO.C,C9*%
X163987142Y-107630833D02*
X164034761Y-107583214D01*
X164082380Y-107440357D01*
X164082380Y-107345119D01*
X164034761Y-107202261D01*
X163939523Y-107107023D01*
X163844285Y-107059404D01*
X163653809Y-107011785D01*
X163510952Y-107011785D01*
X163320476Y-107059404D01*
X163225238Y-107107023D01*
X163130000Y-107202261D01*
X163082380Y-107345119D01*
X163082380Y-107440357D01*
X163130000Y-107583214D01*
X163177619Y-107630833D01*
X164082380Y-108107023D02*
X164082380Y-108297500D01*
X164034761Y-108392738D01*
X163987142Y-108440357D01*
X163844285Y-108535595D01*
X163653809Y-108583214D01*
X163272857Y-108583214D01*
X163177619Y-108535595D01*
X163130000Y-108487976D01*
X163082380Y-108392738D01*
X163082380Y-108202261D01*
X163130000Y-108107023D01*
X163177619Y-108059404D01*
X163272857Y-108011785D01*
X163510952Y-108011785D01*
X163606190Y-108059404D01*
X163653809Y-108107023D01*
X163701428Y-108202261D01*
X163701428Y-108392738D01*
X163653809Y-108487976D01*
X163606190Y-108535595D01*
X163510952Y-108583214D01*
%TO.C,R31*%
X203762857Y-119822380D02*
X204096190Y-119346190D01*
X204334285Y-119822380D02*
X204334285Y-118822380D01*
X203953333Y-118822380D01*
X203858095Y-118870000D01*
X203810476Y-118917619D01*
X203762857Y-119012857D01*
X203762857Y-119155714D01*
X203810476Y-119250952D01*
X203858095Y-119298571D01*
X203953333Y-119346190D01*
X204334285Y-119346190D01*
X203429523Y-118822380D02*
X202810476Y-118822380D01*
X203143809Y-119203333D01*
X203000952Y-119203333D01*
X202905714Y-119250952D01*
X202858095Y-119298571D01*
X202810476Y-119393809D01*
X202810476Y-119631904D01*
X202858095Y-119727142D01*
X202905714Y-119774761D01*
X203000952Y-119822380D01*
X203286666Y-119822380D01*
X203381904Y-119774761D01*
X203429523Y-119727142D01*
X201858095Y-119822380D02*
X202429523Y-119822380D01*
X202143809Y-119822380D02*
X202143809Y-118822380D01*
X202239047Y-118965238D01*
X202334285Y-119060476D01*
X202429523Y-119108095D01*
%TO.C,C12*%
X123197142Y-89694642D02*
X123244761Y-89647023D01*
X123292380Y-89504166D01*
X123292380Y-89408928D01*
X123244761Y-89266071D01*
X123149523Y-89170833D01*
X123054285Y-89123214D01*
X122863809Y-89075595D01*
X122720952Y-89075595D01*
X122530476Y-89123214D01*
X122435238Y-89170833D01*
X122340000Y-89266071D01*
X122292380Y-89408928D01*
X122292380Y-89504166D01*
X122340000Y-89647023D01*
X122387619Y-89694642D01*
X123292380Y-90647023D02*
X123292380Y-90075595D01*
X123292380Y-90361309D02*
X122292380Y-90361309D01*
X122435238Y-90266071D01*
X122530476Y-90170833D01*
X122578095Y-90075595D01*
X122387619Y-91027976D02*
X122340000Y-91075595D01*
X122292380Y-91170833D01*
X122292380Y-91408928D01*
X122340000Y-91504166D01*
X122387619Y-91551785D01*
X122482857Y-91599404D01*
X122578095Y-91599404D01*
X122720952Y-91551785D01*
X123292380Y-90980357D01*
X123292380Y-91599404D01*
%TO.C,Q11*%
X152623440Y-108225916D02*
X152718678Y-108178297D01*
X152813916Y-108083058D01*
X152956773Y-107940201D01*
X153052012Y-107892582D01*
X153147250Y-107892582D01*
X153099631Y-108130677D02*
X153194869Y-108083058D01*
X153290107Y-107987820D01*
X153337726Y-107797344D01*
X153337726Y-107464011D01*
X153290107Y-107273535D01*
X153194869Y-107178297D01*
X153099631Y-107130677D01*
X152909154Y-107130677D01*
X152813916Y-107178297D01*
X152718678Y-107273535D01*
X152671059Y-107464011D01*
X152671059Y-107797344D01*
X152718678Y-107987820D01*
X152813916Y-108083058D01*
X152909154Y-108130677D01*
X153099631Y-108130677D01*
X151718678Y-108130677D02*
X152290107Y-108130677D01*
X152004392Y-108130677D02*
X152004392Y-107130677D01*
X152099631Y-107273535D01*
X152194869Y-107368773D01*
X152290107Y-107416392D01*
X150766297Y-108130677D02*
X151337726Y-108130677D01*
X151052012Y-108130677D02*
X151052012Y-107130677D01*
X151147250Y-107273535D01*
X151242488Y-107368773D01*
X151337726Y-107416392D01*
%TO.C,R33*%
X111492857Y-89192380D02*
X111826190Y-88716190D01*
X112064285Y-89192380D02*
X112064285Y-88192380D01*
X111683333Y-88192380D01*
X111588095Y-88240000D01*
X111540476Y-88287619D01*
X111492857Y-88382857D01*
X111492857Y-88525714D01*
X111540476Y-88620952D01*
X111588095Y-88668571D01*
X111683333Y-88716190D01*
X112064285Y-88716190D01*
X111159523Y-88192380D02*
X110540476Y-88192380D01*
X110873809Y-88573333D01*
X110730952Y-88573333D01*
X110635714Y-88620952D01*
X110588095Y-88668571D01*
X110540476Y-88763809D01*
X110540476Y-89001904D01*
X110588095Y-89097142D01*
X110635714Y-89144761D01*
X110730952Y-89192380D01*
X111016666Y-89192380D01*
X111111904Y-89144761D01*
X111159523Y-89097142D01*
X110207142Y-88192380D02*
X109588095Y-88192380D01*
X109921428Y-88573333D01*
X109778571Y-88573333D01*
X109683333Y-88620952D01*
X109635714Y-88668571D01*
X109588095Y-88763809D01*
X109588095Y-89001904D01*
X109635714Y-89097142D01*
X109683333Y-89144761D01*
X109778571Y-89192380D01*
X110064285Y-89192380D01*
X110159523Y-89144761D01*
X110207142Y-89097142D01*
%TO.C,R2*%
X131096666Y-102562380D02*
X131430000Y-102086190D01*
X131668095Y-102562380D02*
X131668095Y-101562380D01*
X131287142Y-101562380D01*
X131191904Y-101610000D01*
X131144285Y-101657619D01*
X131096666Y-101752857D01*
X131096666Y-101895714D01*
X131144285Y-101990952D01*
X131191904Y-102038571D01*
X131287142Y-102086190D01*
X131668095Y-102086190D01*
X130715714Y-101657619D02*
X130668095Y-101610000D01*
X130572857Y-101562380D01*
X130334761Y-101562380D01*
X130239523Y-101610000D01*
X130191904Y-101657619D01*
X130144285Y-101752857D01*
X130144285Y-101848095D01*
X130191904Y-101990952D01*
X130763333Y-102562380D01*
X130144285Y-102562380D01*
%TO.C,R30*%
X204052855Y-113442379D02*
X204386188Y-112966189D01*
X204624283Y-113442379D02*
X204624283Y-112442379D01*
X204243331Y-112442379D01*
X204148093Y-112489999D01*
X204100474Y-112537618D01*
X204052855Y-112632856D01*
X204052855Y-112775713D01*
X204100474Y-112870951D01*
X204148093Y-112918570D01*
X204243331Y-112966189D01*
X204624283Y-112966189D01*
X203719521Y-112442379D02*
X203100474Y-112442379D01*
X203433807Y-112823332D01*
X203290950Y-112823332D01*
X203195712Y-112870951D01*
X203148093Y-112918570D01*
X203100474Y-113013808D01*
X203100474Y-113251903D01*
X203148093Y-113347141D01*
X203195712Y-113394760D01*
X203290950Y-113442379D01*
X203576664Y-113442379D01*
X203671902Y-113394760D01*
X203719521Y-113347141D01*
X202481426Y-112442379D02*
X202386188Y-112442379D01*
X202290950Y-112489999D01*
X202243331Y-112537618D01*
X202195712Y-112632856D01*
X202148093Y-112823332D01*
X202148093Y-113061427D01*
X202195712Y-113251903D01*
X202243331Y-113347141D01*
X202290950Y-113394760D01*
X202386188Y-113442379D01*
X202481426Y-113442379D01*
X202576664Y-113394760D01*
X202624283Y-113347141D01*
X202671902Y-113251903D01*
X202719521Y-113061427D01*
X202719521Y-112823332D01*
X202671902Y-112632856D01*
X202624283Y-112537618D01*
X202576664Y-112489999D01*
X202481426Y-112442379D01*
D11*
%TO.C,D4*%
X113116722Y-101631931D02*
X113116722Y-101022331D01*
X112971580Y-101022331D01*
X112884494Y-101051360D01*
X112826437Y-101109417D01*
X112797408Y-101167474D01*
X112768380Y-101283588D01*
X112768380Y-101370674D01*
X112797408Y-101486788D01*
X112826437Y-101544845D01*
X112884494Y-101602902D01*
X112971580Y-101631931D01*
X113116722Y-101631931D01*
X112245865Y-101225531D02*
X112245865Y-101631931D01*
X112391008Y-100993302D02*
X112536151Y-101428731D01*
X112158780Y-101428731D01*
D10*
%TO.C,Q6*%
X159607238Y-94527619D02*
X159702476Y-94480000D01*
X159797714Y-94384761D01*
X159940571Y-94241904D01*
X160035809Y-94194285D01*
X160131047Y-94194285D01*
X160083428Y-94432380D02*
X160178666Y-94384761D01*
X160273904Y-94289523D01*
X160321523Y-94099047D01*
X160321523Y-93765714D01*
X160273904Y-93575238D01*
X160178666Y-93480000D01*
X160083428Y-93432380D01*
X159892952Y-93432380D01*
X159797714Y-93480000D01*
X159702476Y-93575238D01*
X159654857Y-93765714D01*
X159654857Y-94099047D01*
X159702476Y-94289523D01*
X159797714Y-94384761D01*
X159892952Y-94432380D01*
X160083428Y-94432380D01*
X158797714Y-93432380D02*
X158988190Y-93432380D01*
X159083428Y-93480000D01*
X159131047Y-93527619D01*
X159226285Y-93670476D01*
X159273904Y-93860952D01*
X159273904Y-94241904D01*
X159226285Y-94337142D01*
X159178666Y-94384761D01*
X159083428Y-94432380D01*
X158892952Y-94432380D01*
X158797714Y-94384761D01*
X158750095Y-94337142D01*
X158702476Y-94241904D01*
X158702476Y-94003809D01*
X158750095Y-93908571D01*
X158797714Y-93860952D01*
X158892952Y-93813333D01*
X159083428Y-93813333D01*
X159178666Y-93860952D01*
X159226285Y-93908571D01*
X159273904Y-94003809D01*
D11*
%TO.C,D3*%
X119604971Y-105595057D02*
X118995371Y-105595057D01*
X118995371Y-105740200D01*
X119024400Y-105827285D01*
X119082457Y-105885342D01*
X119140514Y-105914371D01*
X119256628Y-105943400D01*
X119343714Y-105943400D01*
X119459828Y-105914371D01*
X119517885Y-105885342D01*
X119575942Y-105827285D01*
X119604971Y-105740200D01*
X119604971Y-105595057D01*
X118995371Y-106146600D02*
X118995371Y-106523971D01*
X119227600Y-106320771D01*
X119227600Y-106407857D01*
X119256628Y-106465914D01*
X119285657Y-106494942D01*
X119343714Y-106523971D01*
X119488857Y-106523971D01*
X119546914Y-106494942D01*
X119575942Y-106465914D01*
X119604971Y-106407857D01*
X119604971Y-106233685D01*
X119575942Y-106175628D01*
X119546914Y-106146600D01*
D10*
%TO.C,Q1*%
X138657738Y-103387619D02*
X138752976Y-103340000D01*
X138848214Y-103244761D01*
X138991071Y-103101904D01*
X139086309Y-103054285D01*
X139181547Y-103054285D01*
X139133928Y-103292380D02*
X139229166Y-103244761D01*
X139324404Y-103149523D01*
X139372023Y-102959047D01*
X139372023Y-102625714D01*
X139324404Y-102435238D01*
X139229166Y-102340000D01*
X139133928Y-102292380D01*
X138943452Y-102292380D01*
X138848214Y-102340000D01*
X138752976Y-102435238D01*
X138705357Y-102625714D01*
X138705357Y-102959047D01*
X138752976Y-103149523D01*
X138848214Y-103244761D01*
X138943452Y-103292380D01*
X139133928Y-103292380D01*
X137752976Y-103292380D02*
X138324404Y-103292380D01*
X138038690Y-103292380D02*
X138038690Y-102292380D01*
X138133928Y-102435238D01*
X138229166Y-102530476D01*
X138324404Y-102578095D01*
%TO.C,C1*%
X124279666Y-117213642D02*
X124327285Y-117261261D01*
X124470142Y-117308880D01*
X124565380Y-117308880D01*
X124708238Y-117261261D01*
X124803476Y-117166023D01*
X124851095Y-117070785D01*
X124898714Y-116880309D01*
X124898714Y-116737452D01*
X124851095Y-116546976D01*
X124803476Y-116451738D01*
X124708238Y-116356500D01*
X124565380Y-116308880D01*
X124470142Y-116308880D01*
X124327285Y-116356500D01*
X124279666Y-116404119D01*
X123327285Y-117308880D02*
X123898714Y-117308880D01*
X123613000Y-117308880D02*
X123613000Y-116308880D01*
X123708238Y-116451738D01*
X123803476Y-116546976D01*
X123898714Y-116594595D01*
D11*
%TO.C,D2*%
X113956011Y-106085277D02*
X113346411Y-106085277D01*
X113346411Y-106230420D01*
X113375440Y-106317505D01*
X113433497Y-106375562D01*
X113491554Y-106404591D01*
X113607668Y-106433620D01*
X113694754Y-106433620D01*
X113810868Y-106404591D01*
X113868925Y-106375562D01*
X113926982Y-106317505D01*
X113956011Y-106230420D01*
X113956011Y-106085277D01*
X113404468Y-106665848D02*
X113375440Y-106694877D01*
X113346411Y-106752934D01*
X113346411Y-106898077D01*
X113375440Y-106956134D01*
X113404468Y-106985162D01*
X113462525Y-107014191D01*
X113520582Y-107014191D01*
X113607668Y-106985162D01*
X113956011Y-106636820D01*
X113956011Y-107014191D01*
D10*
%TO.C,R9*%
X162218666Y-77668380D02*
X162552000Y-77192190D01*
X162790095Y-77668380D02*
X162790095Y-76668380D01*
X162409142Y-76668380D01*
X162313904Y-76716000D01*
X162266285Y-76763619D01*
X162218666Y-76858857D01*
X162218666Y-77001714D01*
X162266285Y-77096952D01*
X162313904Y-77144571D01*
X162409142Y-77192190D01*
X162790095Y-77192190D01*
X161742476Y-77668380D02*
X161552000Y-77668380D01*
X161456761Y-77620761D01*
X161409142Y-77573142D01*
X161313904Y-77430285D01*
X161266285Y-77239809D01*
X161266285Y-76858857D01*
X161313904Y-76763619D01*
X161361523Y-76716000D01*
X161456761Y-76668380D01*
X161647238Y-76668380D01*
X161742476Y-76716000D01*
X161790095Y-76763619D01*
X161837714Y-76858857D01*
X161837714Y-77096952D01*
X161790095Y-77192190D01*
X161742476Y-77239809D01*
X161647238Y-77287428D01*
X161456761Y-77287428D01*
X161361523Y-77239809D01*
X161313904Y-77192190D01*
X161266285Y-77096952D01*
%TO.C,D7*%
X167110095Y-74112380D02*
X167110095Y-73112380D01*
X166872000Y-73112380D01*
X166729142Y-73160000D01*
X166633904Y-73255238D01*
X166586285Y-73350476D01*
X166538666Y-73540952D01*
X166538666Y-73683809D01*
X166586285Y-73874285D01*
X166633904Y-73969523D01*
X166729142Y-74064761D01*
X166872000Y-74112380D01*
X167110095Y-74112380D01*
X166205333Y-73112380D02*
X165538666Y-73112380D01*
X165967238Y-74112380D01*
%TO.C,C3*%
X129453142Y-108185833D02*
X129500761Y-108138214D01*
X129548380Y-107995357D01*
X129548380Y-107900119D01*
X129500761Y-107757261D01*
X129405523Y-107662023D01*
X129310285Y-107614404D01*
X129119809Y-107566785D01*
X128976952Y-107566785D01*
X128786476Y-107614404D01*
X128691238Y-107662023D01*
X128596000Y-107757261D01*
X128548380Y-107900119D01*
X128548380Y-107995357D01*
X128596000Y-108138214D01*
X128643619Y-108185833D01*
X128548380Y-108519166D02*
X128548380Y-109138214D01*
X128929333Y-108804880D01*
X128929333Y-108947738D01*
X128976952Y-109042976D01*
X129024571Y-109090595D01*
X129119809Y-109138214D01*
X129357904Y-109138214D01*
X129453142Y-109090595D01*
X129500761Y-109042976D01*
X129548380Y-108947738D01*
X129548380Y-108662023D01*
X129500761Y-108566785D01*
X129453142Y-108519166D01*
%TO.C,R8*%
X168218380Y-76033333D02*
X167742190Y-75700000D01*
X168218380Y-75461904D02*
X167218380Y-75461904D01*
X167218380Y-75842857D01*
X167266000Y-75938095D01*
X167313619Y-75985714D01*
X167408857Y-76033333D01*
X167551714Y-76033333D01*
X167646952Y-75985714D01*
X167694571Y-75938095D01*
X167742190Y-75842857D01*
X167742190Y-75461904D01*
X167646952Y-76604761D02*
X167599333Y-76509523D01*
X167551714Y-76461904D01*
X167456476Y-76414285D01*
X167408857Y-76414285D01*
X167313619Y-76461904D01*
X167266000Y-76509523D01*
X167218380Y-76604761D01*
X167218380Y-76795238D01*
X167266000Y-76890476D01*
X167313619Y-76938095D01*
X167408857Y-76985714D01*
X167456476Y-76985714D01*
X167551714Y-76938095D01*
X167599333Y-76890476D01*
X167646952Y-76795238D01*
X167646952Y-76604761D01*
X167694571Y-76509523D01*
X167742190Y-76461904D01*
X167837428Y-76414285D01*
X168027904Y-76414285D01*
X168123142Y-76461904D01*
X168170761Y-76509523D01*
X168218380Y-76604761D01*
X168218380Y-76795238D01*
X168170761Y-76890476D01*
X168123142Y-76938095D01*
X168027904Y-76985714D01*
X167837428Y-76985714D01*
X167742190Y-76938095D01*
X167694571Y-76890476D01*
X167646952Y-76795238D01*
D11*
%TO.C,D1*%
X124470122Y-97741571D02*
X124470122Y-97131971D01*
X124324980Y-97131971D01*
X124237894Y-97161000D01*
X124179837Y-97219057D01*
X124150808Y-97277114D01*
X124121780Y-97393228D01*
X124121780Y-97480314D01*
X124150808Y-97596428D01*
X124179837Y-97654485D01*
X124237894Y-97712542D01*
X124324980Y-97741571D01*
X124470122Y-97741571D01*
X123541208Y-97741571D02*
X123889551Y-97741571D01*
X123715380Y-97741571D02*
X123715380Y-97131971D01*
X123773437Y-97219057D01*
X123831494Y-97277114D01*
X123889551Y-97306142D01*
D10*
%TO.C,C5*%
X155614666Y-79253142D02*
X155662285Y-79300761D01*
X155805142Y-79348380D01*
X155900380Y-79348380D01*
X156043238Y-79300761D01*
X156138476Y-79205523D01*
X156186095Y-79110285D01*
X156233714Y-78919809D01*
X156233714Y-78776952D01*
X156186095Y-78586476D01*
X156138476Y-78491238D01*
X156043238Y-78396000D01*
X155900380Y-78348380D01*
X155805142Y-78348380D01*
X155662285Y-78396000D01*
X155614666Y-78443619D01*
X154709904Y-78348380D02*
X155186095Y-78348380D01*
X155233714Y-78824571D01*
X155186095Y-78776952D01*
X155090857Y-78729333D01*
X154852761Y-78729333D01*
X154757523Y-78776952D01*
X154709904Y-78824571D01*
X154662285Y-78919809D01*
X154662285Y-79157904D01*
X154709904Y-79253142D01*
X154757523Y-79300761D01*
X154852761Y-79348380D01*
X155090857Y-79348380D01*
X155186095Y-79300761D01*
X155233714Y-79253142D01*
%TO.C,D6*%
X154204095Y-73178380D02*
X154204095Y-72178380D01*
X153966000Y-72178380D01*
X153823142Y-72226000D01*
X153727904Y-72321238D01*
X153680285Y-72416476D01*
X153632666Y-72606952D01*
X153632666Y-72749809D01*
X153680285Y-72940285D01*
X153727904Y-73035523D01*
X153823142Y-73130761D01*
X153966000Y-73178380D01*
X154204095Y-73178380D01*
X152775523Y-72178380D02*
X152966000Y-72178380D01*
X153061238Y-72226000D01*
X153108857Y-72273619D01*
X153204095Y-72416476D01*
X153251714Y-72606952D01*
X153251714Y-72987904D01*
X153204095Y-73083142D01*
X153156476Y-73130761D01*
X153061238Y-73178380D01*
X152870761Y-73178380D01*
X152775523Y-73130761D01*
X152727904Y-73083142D01*
X152680285Y-72987904D01*
X152680285Y-72749809D01*
X152727904Y-72654571D01*
X152775523Y-72606952D01*
X152870761Y-72559333D01*
X153061238Y-72559333D01*
X153156476Y-72606952D01*
X153204095Y-72654571D01*
X153251714Y-72749809D01*
%TO.C,R22*%
X154058857Y-93542380D02*
X154392190Y-93066190D01*
X154630285Y-93542380D02*
X154630285Y-92542380D01*
X154249333Y-92542380D01*
X154154095Y-92590000D01*
X154106476Y-92637619D01*
X154058857Y-92732857D01*
X154058857Y-92875714D01*
X154106476Y-92970952D01*
X154154095Y-93018571D01*
X154249333Y-93066190D01*
X154630285Y-93066190D01*
X153677904Y-92637619D02*
X153630285Y-92590000D01*
X153535047Y-92542380D01*
X153296952Y-92542380D01*
X153201714Y-92590000D01*
X153154095Y-92637619D01*
X153106476Y-92732857D01*
X153106476Y-92828095D01*
X153154095Y-92970952D01*
X153725523Y-93542380D01*
X153106476Y-93542380D01*
X152725523Y-92637619D02*
X152677904Y-92590000D01*
X152582666Y-92542380D01*
X152344571Y-92542380D01*
X152249333Y-92590000D01*
X152201714Y-92637619D01*
X152154095Y-92732857D01*
X152154095Y-92828095D01*
X152201714Y-92970952D01*
X152773142Y-93542380D01*
X152154095Y-93542380D01*
%TO.C,R7*%
X132916666Y-110514380D02*
X133250000Y-110038190D01*
X133488095Y-110514380D02*
X133488095Y-109514380D01*
X133107142Y-109514380D01*
X133011904Y-109562000D01*
X132964285Y-109609619D01*
X132916666Y-109704857D01*
X132916666Y-109847714D01*
X132964285Y-109942952D01*
X133011904Y-109990571D01*
X133107142Y-110038190D01*
X133488095Y-110038190D01*
X132583333Y-109514380D02*
X131916666Y-109514380D01*
X132345238Y-110514380D01*
%TO.C,R24*%
X165044380Y-88765142D02*
X164568190Y-88431809D01*
X165044380Y-88193714D02*
X164044380Y-88193714D01*
X164044380Y-88574666D01*
X164092000Y-88669904D01*
X164139619Y-88717523D01*
X164234857Y-88765142D01*
X164377714Y-88765142D01*
X164472952Y-88717523D01*
X164520571Y-88669904D01*
X164568190Y-88574666D01*
X164568190Y-88193714D01*
X164139619Y-89146095D02*
X164092000Y-89193714D01*
X164044380Y-89288952D01*
X164044380Y-89527047D01*
X164092000Y-89622285D01*
X164139619Y-89669904D01*
X164234857Y-89717523D01*
X164330095Y-89717523D01*
X164472952Y-89669904D01*
X165044380Y-89098476D01*
X165044380Y-89717523D01*
X164377714Y-90574666D02*
X165044380Y-90574666D01*
X163996761Y-90336571D02*
X164711047Y-90098476D01*
X164711047Y-90717523D01*
%TO.C,D9*%
X153868380Y-83081904D02*
X152868380Y-83081904D01*
X152868380Y-83320000D01*
X152916000Y-83462857D01*
X153011238Y-83558095D01*
X153106476Y-83605714D01*
X153296952Y-83653333D01*
X153439809Y-83653333D01*
X153630285Y-83605714D01*
X153725523Y-83558095D01*
X153820761Y-83462857D01*
X153868380Y-83320000D01*
X153868380Y-83081904D01*
X153868380Y-84129523D02*
X153868380Y-84320000D01*
X153820761Y-84415238D01*
X153773142Y-84462857D01*
X153630285Y-84558095D01*
X153439809Y-84605714D01*
X153058857Y-84605714D01*
X152963619Y-84558095D01*
X152916000Y-84510476D01*
X152868380Y-84415238D01*
X152868380Y-84224761D01*
X152916000Y-84129523D01*
X152963619Y-84081904D01*
X153058857Y-84034285D01*
X153296952Y-84034285D01*
X153392190Y-84081904D01*
X153439809Y-84129523D01*
X153487428Y-84224761D01*
X153487428Y-84415238D01*
X153439809Y-84510476D01*
X153392190Y-84558095D01*
X153296952Y-84605714D01*
%TO.C,R28*%
X148982857Y-115372380D02*
X149316190Y-114896190D01*
X149554285Y-115372380D02*
X149554285Y-114372380D01*
X149173333Y-114372380D01*
X149078095Y-114420000D01*
X149030476Y-114467619D01*
X148982857Y-114562857D01*
X148982857Y-114705714D01*
X149030476Y-114800952D01*
X149078095Y-114848571D01*
X149173333Y-114896190D01*
X149554285Y-114896190D01*
X148601904Y-114467619D02*
X148554285Y-114420000D01*
X148459047Y-114372380D01*
X148220952Y-114372380D01*
X148125714Y-114420000D01*
X148078095Y-114467619D01*
X148030476Y-114562857D01*
X148030476Y-114658095D01*
X148078095Y-114800952D01*
X148649523Y-115372380D01*
X148030476Y-115372380D01*
X147459047Y-114800952D02*
X147554285Y-114753333D01*
X147601904Y-114705714D01*
X147649523Y-114610476D01*
X147649523Y-114562857D01*
X147601904Y-114467619D01*
X147554285Y-114420000D01*
X147459047Y-114372380D01*
X147268571Y-114372380D01*
X147173333Y-114420000D01*
X147125714Y-114467619D01*
X147078095Y-114562857D01*
X147078095Y-114610476D01*
X147125714Y-114705714D01*
X147173333Y-114753333D01*
X147268571Y-114800952D01*
X147459047Y-114800952D01*
X147554285Y-114848571D01*
X147601904Y-114896190D01*
X147649523Y-114991428D01*
X147649523Y-115181904D01*
X147601904Y-115277142D01*
X147554285Y-115324761D01*
X147459047Y-115372380D01*
X147268571Y-115372380D01*
X147173333Y-115324761D01*
X147125714Y-115277142D01*
X147078095Y-115181904D01*
X147078095Y-114991428D01*
X147125714Y-114896190D01*
X147173333Y-114848571D01*
X147268571Y-114800952D01*
D11*
%TO.C,D5*%
X115261571Y-98483057D02*
X114651971Y-98483057D01*
X114651971Y-98628200D01*
X114681000Y-98715285D01*
X114739057Y-98773342D01*
X114797114Y-98802371D01*
X114913228Y-98831400D01*
X115000314Y-98831400D01*
X115116428Y-98802371D01*
X115174485Y-98773342D01*
X115232542Y-98715285D01*
X115261571Y-98628200D01*
X115261571Y-98483057D01*
X114651971Y-99382942D02*
X114651971Y-99092657D01*
X114942257Y-99063628D01*
X114913228Y-99092657D01*
X114884200Y-99150714D01*
X114884200Y-99295857D01*
X114913228Y-99353914D01*
X114942257Y-99382942D01*
X115000314Y-99411971D01*
X115145457Y-99411971D01*
X115203514Y-99382942D01*
X115232542Y-99353914D01*
X115261571Y-99295857D01*
X115261571Y-99150714D01*
X115232542Y-99092657D01*
X115203514Y-99063628D01*
D10*
%TO.C,C18*%
X115476857Y-81534642D02*
X115524476Y-81582261D01*
X115667333Y-81629880D01*
X115762571Y-81629880D01*
X115905428Y-81582261D01*
X116000666Y-81487023D01*
X116048285Y-81391785D01*
X116095904Y-81201309D01*
X116095904Y-81058452D01*
X116048285Y-80867976D01*
X116000666Y-80772738D01*
X115905428Y-80677500D01*
X115762571Y-80629880D01*
X115667333Y-80629880D01*
X115524476Y-80677500D01*
X115476857Y-80725119D01*
X114524476Y-81629880D02*
X115095904Y-81629880D01*
X114810190Y-81629880D02*
X114810190Y-80629880D01*
X114905428Y-80772738D01*
X115000666Y-80867976D01*
X115095904Y-80915595D01*
X113953047Y-81058452D02*
X114048285Y-81010833D01*
X114095904Y-80963214D01*
X114143523Y-80867976D01*
X114143523Y-80820357D01*
X114095904Y-80725119D01*
X114048285Y-80677500D01*
X113953047Y-80629880D01*
X113762571Y-80629880D01*
X113667333Y-80677500D01*
X113619714Y-80725119D01*
X113572095Y-80820357D01*
X113572095Y-80867976D01*
X113619714Y-80963214D01*
X113667333Y-81010833D01*
X113762571Y-81058452D01*
X113953047Y-81058452D01*
X114048285Y-81106071D01*
X114095904Y-81153690D01*
X114143523Y-81248928D01*
X114143523Y-81439404D01*
X114095904Y-81534642D01*
X114048285Y-81582261D01*
X113953047Y-81629880D01*
X113762571Y-81629880D01*
X113667333Y-81582261D01*
X113619714Y-81534642D01*
X113572095Y-81439404D01*
X113572095Y-81248928D01*
X113619714Y-81153690D01*
X113667333Y-81106071D01*
X113762571Y-81058452D01*
%TO.C,R17*%
X169806857Y-87954380D02*
X170140190Y-87478190D01*
X170378285Y-87954380D02*
X170378285Y-86954380D01*
X169997333Y-86954380D01*
X169902095Y-87002000D01*
X169854476Y-87049619D01*
X169806857Y-87144857D01*
X169806857Y-87287714D01*
X169854476Y-87382952D01*
X169902095Y-87430571D01*
X169997333Y-87478190D01*
X170378285Y-87478190D01*
X168854476Y-87954380D02*
X169425904Y-87954380D01*
X169140190Y-87954380D02*
X169140190Y-86954380D01*
X169235428Y-87097238D01*
X169330666Y-87192476D01*
X169425904Y-87240095D01*
X168521142Y-86954380D02*
X167854476Y-86954380D01*
X168283047Y-87954380D01*
%TO.C,Q8*%
X150915619Y-87788761D02*
X150868000Y-87693523D01*
X150772761Y-87598285D01*
X150629904Y-87455428D01*
X150582285Y-87360190D01*
X150582285Y-87264952D01*
X150820380Y-87312571D02*
X150772761Y-87217333D01*
X150677523Y-87122095D01*
X150487047Y-87074476D01*
X150153714Y-87074476D01*
X149963238Y-87122095D01*
X149868000Y-87217333D01*
X149820380Y-87312571D01*
X149820380Y-87503047D01*
X149868000Y-87598285D01*
X149963238Y-87693523D01*
X150153714Y-87741142D01*
X150487047Y-87741142D01*
X150677523Y-87693523D01*
X150772761Y-87598285D01*
X150820380Y-87503047D01*
X150820380Y-87312571D01*
X150248952Y-88312571D02*
X150201333Y-88217333D01*
X150153714Y-88169714D01*
X150058476Y-88122095D01*
X150010857Y-88122095D01*
X149915619Y-88169714D01*
X149868000Y-88217333D01*
X149820380Y-88312571D01*
X149820380Y-88503047D01*
X149868000Y-88598285D01*
X149915619Y-88645904D01*
X150010857Y-88693523D01*
X150058476Y-88693523D01*
X150153714Y-88645904D01*
X150201333Y-88598285D01*
X150248952Y-88503047D01*
X150248952Y-88312571D01*
X150296571Y-88217333D01*
X150344190Y-88169714D01*
X150439428Y-88122095D01*
X150629904Y-88122095D01*
X150725142Y-88169714D01*
X150772761Y-88217333D01*
X150820380Y-88312571D01*
X150820380Y-88503047D01*
X150772761Y-88598285D01*
X150725142Y-88645904D01*
X150629904Y-88693523D01*
X150439428Y-88693523D01*
X150344190Y-88645904D01*
X150296571Y-88598285D01*
X150248952Y-88503047D01*
D12*
%TO.C,R32*%
X114462936Y-90125000D02*
X114917064Y-90125000D01*
X114462936Y-91595000D02*
X114917064Y-91595000D01*
%TO.C,D15*%
X126060000Y-89020000D02*
X126060000Y-85120000D01*
X126060000Y-89020000D02*
X124060000Y-89020000D01*
X124060000Y-89020000D02*
X124060000Y-85120000D01*
%TO.C,R3*%
X202942936Y-103075000D02*
X203397064Y-103075000D01*
X202942936Y-101605000D02*
X203397064Y-101605000D01*
%TO.C,R1*%
X189642936Y-118305000D02*
X190097064Y-118305000D01*
X189642936Y-116835000D02*
X190097064Y-116835000D01*
%TO.C,C15*%
X131360000Y-77898748D02*
X131360000Y-79321252D01*
X134080000Y-77898748D02*
X134080000Y-79321252D01*
%TO.C,C10*%
X158525000Y-108588748D02*
X158525000Y-109111252D01*
X159995000Y-108588748D02*
X159995000Y-109111252D01*
%TO.C,C9*%
X162685000Y-108058752D02*
X162685000Y-107536248D01*
X161215000Y-108058752D02*
X161215000Y-107536248D01*
%TO.C,R31*%
X202742936Y-118105000D02*
X203197064Y-118105000D01*
X202742936Y-116635000D02*
X203197064Y-116635000D01*
%TO.C,C12*%
X123515000Y-87478752D02*
X123515000Y-86956248D01*
X122045000Y-87478752D02*
X122045000Y-86956248D01*
%TO.C,Q11*%
X150487500Y-111880000D02*
X149837500Y-111880000D01*
X150487500Y-108760000D02*
X152162500Y-108760000D01*
X150487500Y-108760000D02*
X149837500Y-108760000D01*
X150487500Y-111880000D02*
X151137500Y-111880000D01*
%TO.C,R33*%
X115027064Y-89415000D02*
X114572936Y-89415000D01*
X115027064Y-87945000D02*
X114572936Y-87945000D01*
%TO.C,R2*%
X130982936Y-104705000D02*
X131437064Y-104705000D01*
X130982936Y-103235000D02*
X131437064Y-103235000D01*
%TO.C,R30*%
X202692936Y-114175000D02*
X203147064Y-114175000D01*
X202692936Y-115645000D02*
X203147064Y-115645000D01*
D13*
%TO.C,D4*%
X111968280Y-102514400D02*
X111968280Y-101912420D01*
X111968280Y-104711500D02*
X112765840Y-104711500D01*
X111968280Y-101912420D02*
X112765840Y-101912420D01*
X111968280Y-104109520D02*
X111968280Y-104711500D01*
D12*
%TO.C,Q6*%
X162088000Y-90932000D02*
X162088000Y-92607000D01*
X162088000Y-90932000D02*
X162088000Y-90282000D01*
X158968000Y-90932000D02*
X158968000Y-90282000D01*
X158968000Y-90932000D02*
X158968000Y-91582000D01*
D13*
%TO.C,D3*%
X119885460Y-106743500D02*
X119885460Y-105945940D01*
X122082560Y-106743500D02*
X122684540Y-106743500D01*
X120487440Y-106743500D02*
X119885460Y-106743500D01*
X122684540Y-106743500D02*
X122684540Y-105945940D01*
D12*
%TO.C,Q1*%
X138562500Y-103680000D02*
X140237500Y-103680000D01*
X138562500Y-103680000D02*
X137912500Y-103680000D01*
X138562500Y-106800000D02*
X137912500Y-106800000D01*
X138562500Y-106800000D02*
X139212500Y-106800000D01*
%TO.C,C1*%
X127515000Y-115593752D02*
X127515000Y-115071248D01*
X126045000Y-115593752D02*
X126045000Y-115071248D01*
D13*
%TO.C,D2*%
X114838480Y-107233720D02*
X114236500Y-107233720D01*
X116433600Y-107233720D02*
X117035580Y-107233720D01*
X114236500Y-107233720D02*
X114236500Y-106436160D01*
X117035580Y-107233720D02*
X117035580Y-106436160D01*
D12*
%TO.C,R9*%
X162279064Y-74449000D02*
X161824936Y-74449000D01*
X162279064Y-75919000D02*
X161824936Y-75919000D01*
%TO.C,D7*%
X159676000Y-74152000D02*
X159676000Y-72152000D01*
X159676000Y-74152000D02*
X163576000Y-74152000D01*
X159676000Y-72152000D02*
X163576000Y-72152000D01*
%TO.C,C3*%
X126681000Y-108613752D02*
X126681000Y-108091248D01*
X128151000Y-108613752D02*
X128151000Y-108091248D01*
%TO.C,R8*%
X166851000Y-76427064D02*
X166851000Y-75972936D01*
X165381000Y-76427064D02*
X165381000Y-75972936D01*
D13*
%TO.C,D1*%
X124718680Y-96909540D02*
X123921120Y-96909540D01*
X124718680Y-94110460D02*
X123921120Y-94110460D01*
X124718680Y-94712440D02*
X124718680Y-94110460D01*
X124718680Y-96307560D02*
X124718680Y-96909540D01*
D12*
%TO.C,C5*%
X155186748Y-77951000D02*
X155709252Y-77951000D01*
X155186748Y-76481000D02*
X155709252Y-76481000D01*
%TO.C,D6*%
X154096000Y-75836000D02*
X152686000Y-75836000D01*
X152686000Y-73516000D02*
X154716000Y-73516000D01*
X152686000Y-73516000D02*
X152686000Y-74176000D01*
X152686000Y-75176000D02*
X152686000Y-75836000D01*
%TO.C,R22*%
X153188936Y-90705000D02*
X153643064Y-90705000D01*
X153188936Y-92175000D02*
X153643064Y-92175000D01*
%TO.C,R7*%
X130572936Y-109152000D02*
X134927064Y-109152000D01*
X130572936Y-105732000D02*
X134927064Y-105732000D01*
%TO.C,R24*%
X162333000Y-89180936D02*
X162333000Y-89635064D01*
X163803000Y-89180936D02*
X163803000Y-89635064D01*
%TO.C,D9*%
X154448000Y-82586000D02*
X154448000Y-86486000D01*
X154448000Y-82586000D02*
X156448000Y-82586000D01*
X156448000Y-82586000D02*
X156448000Y-86486000D01*
%TO.C,R28*%
X148192936Y-113745000D02*
X148647064Y-113745000D01*
X148192936Y-112275000D02*
X148647064Y-112275000D01*
D13*
%TO.C,D5*%
X113827560Y-98234500D02*
X114429540Y-98234500D01*
X112232440Y-98234500D02*
X111630460Y-98234500D01*
X114429540Y-98234500D02*
X114429540Y-99032060D01*
X111630460Y-98234500D02*
X111630460Y-99032060D01*
D12*
%TO.C,C18*%
X115115000Y-78376248D02*
X115115000Y-78898752D01*
X116585000Y-78376248D02*
X116585000Y-78898752D01*
%TO.C,R17*%
X168936936Y-86587000D02*
X169391064Y-86587000D01*
X168936936Y-85117000D02*
X169391064Y-85117000D01*
%TO.C,Q8*%
X151856000Y-87962500D02*
X151856000Y-88612500D01*
X151856000Y-87962500D02*
X151856000Y-87312500D01*
X154976000Y-87962500D02*
X154976000Y-87312500D01*
X154976000Y-87962500D02*
X154976000Y-89637500D01*
%TD*%
M02*
