%TF.GenerationSoftware,KiCad,Pcbnew,6.0.11-2627ca5db0~126~ubuntu22.04.1*%
%TF.CreationDate,2023-02-07T19:59:45-05:00*%
%TF.ProjectId,qwiic-obd,71776969-632d-46f6-9264-2e6b69636164,rev?*%
%TF.SameCoordinates,Original*%
%TF.FileFunction,Soldermask,Bot*%
%TF.FilePolarity,Negative*%
%FSLAX46Y46*%
G04 Gerber Fmt 4.6, Leading zero omitted, Abs format (unit mm)*
G04 Created by KiCad (PCBNEW 6.0.11-2627ca5db0~126~ubuntu22.04.1) date 2023-02-07 19:59:45*
%MOMM*%
%LPD*%
G01*
G04 APERTURE LIST*
G04 Aperture macros list*
%AMRoundRect*
0 Rectangle with rounded corners*
0 $1 Rounding radius*
0 $2 $3 $4 $5 $6 $7 $8 $9 X,Y pos of 4 corners*
0 Add a 4 corners polygon primitive as box body*
4,1,4,$2,$3,$4,$5,$6,$7,$8,$9,$2,$3,0*
0 Add four circle primitives for the rounded corners*
1,1,$1+$1,$2,$3*
1,1,$1+$1,$4,$5*
1,1,$1+$1,$6,$7*
1,1,$1+$1,$8,$9*
0 Add four rect primitives between the rounded corners*
20,1,$1+$1,$2,$3,$4,$5,0*
20,1,$1+$1,$4,$5,$6,$7,0*
20,1,$1+$1,$6,$7,$8,$9,0*
20,1,$1+$1,$8,$9,$2,$3,0*%
%AMFreePoly0*
4,1,6,1.000000,0.000000,0.500000,-0.750000,-0.500000,-0.750000,-0.500000,0.750000,0.500000,0.750000,1.000000,0.000000,1.000000,0.000000,$1*%
%AMFreePoly1*
4,1,6,0.500000,-0.750000,-0.650000,-0.750000,-0.150000,0.000000,-0.650000,0.750000,0.500000,0.750000,0.500000,-0.750000,0.500000,-0.750000,$1*%
G04 Aperture macros list end*
%ADD10FreePoly0,180.000000*%
%ADD11FreePoly1,180.000000*%
%ADD12RoundRect,0.250000X-0.350000X-0.450000X0.350000X-0.450000X0.350000X0.450000X-0.350000X0.450000X0*%
%ADD13FreePoly0,0.000000*%
%ADD14FreePoly1,0.000000*%
%ADD15R,0.900000X1.200000*%
%ADD16RoundRect,0.250000X-0.475000X0.337500X-0.475000X-0.337500X0.475000X-0.337500X0.475000X0.337500X0*%
%ADD17R,1.700000X1.700000*%
%ADD18O,1.700000X1.700000*%
%ADD19C,4.000000*%
%ADD20R,1.600000X1.600000*%
%ADD21C,1.600000*%
%ADD22O,1.600000X1.600000*%
%ADD23C,2.000000*%
%ADD24RoundRect,0.250000X0.450000X-0.350000X0.450000X0.350000X-0.450000X0.350000X-0.450000X-0.350000X0*%
%ADD25RoundRect,0.150000X0.150000X-0.587500X0.150000X0.587500X-0.150000X0.587500X-0.150000X-0.587500X0*%
%ADD26RoundRect,0.101600X-0.449580X0.398780X-0.449580X-0.398780X0.449580X-0.398780X0.449580X0.398780X0*%
%ADD27RoundRect,0.101600X-0.398780X-0.449580X0.398780X-0.449580X0.398780X0.449580X-0.398780X0.449580X0*%
%ADD28RoundRect,0.150000X0.587500X0.150000X-0.587500X0.150000X-0.587500X-0.150000X0.587500X-0.150000X0*%
%ADD29RoundRect,0.250000X0.475000X-0.337500X0.475000X0.337500X-0.475000X0.337500X-0.475000X-0.337500X0*%
%ADD30RoundRect,0.250000X0.337500X0.475000X-0.337500X0.475000X-0.337500X-0.475000X0.337500X-0.475000X0*%
%ADD31RoundRect,0.250000X-0.450000X0.350000X-0.450000X-0.350000X0.450000X-0.350000X0.450000X0.350000X0*%
%ADD32RoundRect,0.250000X0.350000X0.450000X-0.350000X0.450000X-0.350000X-0.450000X0.350000X-0.450000X0*%
%ADD33RoundRect,0.101600X0.449580X-0.398780X0.449580X0.398780X-0.449580X0.398780X-0.449580X-0.398780X0*%
%ADD34RoundRect,0.250000X-0.337500X-0.475000X0.337500X-0.475000X0.337500X0.475000X-0.337500X0.475000X0*%
%ADD35R,0.700000X0.450000*%
%ADD36R,1.200000X0.900000*%
%ADD37RoundRect,0.250000X1.075000X-0.400000X1.075000X0.400000X-1.075000X0.400000X-1.075000X-0.400000X0*%
%ADD38RoundRect,0.249999X-0.450001X-1.425001X0.450001X-1.425001X0.450001X1.425001X-0.450001X1.425001X0*%
%ADD39RoundRect,0.101600X0.398780X0.449580X-0.398780X0.449580X-0.398780X-0.449580X0.398780X-0.449580X0*%
G04 APERTURE END LIST*
D10*
%TO.C,JP1*%
X196325000Y-79000000D03*
D11*
X194875000Y-79000000D03*
%TD*%
D12*
%TO.C,R48*%
X196100000Y-89200000D03*
X198100000Y-89200000D03*
%TD*%
D13*
%TO.C,JP2*%
X204075000Y-83900000D03*
D14*
X205525000Y-83900000D03*
%TD*%
D15*
%TO.C,D18*%
X195900000Y-91500000D03*
X199200000Y-91500000D03*
%TD*%
D16*
%TO.C,C26*%
X185100000Y-84200000D03*
X185100000Y-82125000D03*
%TD*%
D17*
%TO.C,J4*%
X185557000Y-121641000D03*
D18*
X188097000Y-121641000D03*
X190637000Y-121641000D03*
X193177000Y-121641000D03*
%TD*%
D19*
%TO.C,J3*%
X118633342Y-110765651D03*
X118633342Y-85765651D03*
D20*
X120053342Y-102580651D03*
D21*
X120053342Y-100290651D03*
X120053342Y-98000651D03*
X120053342Y-95710651D03*
X120053342Y-93420651D03*
X118073342Y-103725651D03*
X118073342Y-101435651D03*
X118073342Y-99145651D03*
X118073342Y-96855651D03*
X118073342Y-94565651D03*
X116093342Y-102580651D03*
X116093342Y-100290651D03*
X116093342Y-98000651D03*
X116093342Y-95710651D03*
X116093342Y-93420651D03*
%TD*%
D20*
%TO.C,RN1*%
X183007000Y-118364000D03*
D22*
X185547000Y-118364000D03*
X188087000Y-118364000D03*
X190627000Y-118364000D03*
X193167000Y-118364000D03*
%TD*%
D23*
%TO.C,SW1*%
X192405000Y-111252000D03*
X185905000Y-111252000D03*
X192405000Y-106752000D03*
X185905000Y-106752000D03*
%TD*%
%TO.C,SW2*%
X182372000Y-73660000D03*
X188872000Y-73660000D03*
X188872000Y-78160000D03*
X182372000Y-78160000D03*
%TD*%
D24*
%TO.C,R4*%
X131572000Y-113268000D03*
X131572000Y-111268000D03*
%TD*%
D25*
%TO.C,Q7*%
X114808000Y-75184000D03*
X112908000Y-75184000D03*
X113858000Y-73309000D03*
%TD*%
D26*
%TO.C,D4*%
X113665000Y-102362000D03*
X113665000Y-104261920D03*
X111566960Y-103311960D03*
%TD*%
D25*
%TO.C,Q13*%
X161478000Y-91869500D03*
X159578000Y-91869500D03*
X160528000Y-89994500D03*
%TD*%
D27*
%TO.C,D3*%
X120335040Y-105046780D03*
X122234960Y-105046780D03*
X121285000Y-107144820D03*
%TD*%
D28*
%TO.C,Q4*%
X140637500Y-120462000D03*
X140637500Y-122362000D03*
X138762500Y-121412000D03*
%TD*%
D29*
%TO.C,C1*%
X127508000Y-110765500D03*
X127508000Y-108690500D03*
%TD*%
D12*
%TO.C,R58*%
X152416000Y-122936000D03*
X154416000Y-122936000D03*
%TD*%
D30*
%TO.C,C13*%
X126005500Y-74168000D03*
X123930500Y-74168000D03*
%TD*%
D31*
%TO.C,R5*%
X130048000Y-104156000D03*
X130048000Y-106156000D03*
%TD*%
D32*
%TO.C,R6*%
X129016000Y-114808000D03*
X127016000Y-114808000D03*
%TD*%
D27*
%TO.C,D2*%
X114686080Y-105537000D03*
X116586000Y-105537000D03*
X115636040Y-107635040D03*
%TD*%
D32*
%TO.C,R28*%
X163052000Y-75184000D03*
X161052000Y-75184000D03*
%TD*%
D15*
%TO.C,D13*%
X160276000Y-73152000D03*
X163576000Y-73152000D03*
%TD*%
D29*
%TO.C,C3*%
X126746000Y-122852000D03*
X126746000Y-120777000D03*
%TD*%
D31*
%TO.C,R23*%
X118364000Y-77740000D03*
X118364000Y-79740000D03*
%TD*%
D24*
%TO.C,R27*%
X166116000Y-77200000D03*
X166116000Y-75200000D03*
%TD*%
D33*
%TO.C,D1*%
X122936000Y-96012000D03*
X122936000Y-94112080D03*
X125034040Y-95062040D03*
%TD*%
D34*
%TO.C,C24*%
X154410500Y-77216000D03*
X156485500Y-77216000D03*
%TD*%
D35*
%TO.C,D12*%
X154416000Y-74026000D03*
X154416000Y-75326000D03*
X152416000Y-74676000D03*
%TD*%
D12*
%TO.C,R43*%
X152416000Y-91440000D03*
X154416000Y-91440000D03*
%TD*%
D36*
%TO.C,D20*%
X165762984Y-116718122D03*
X165762984Y-120018122D03*
%TD*%
D31*
%TO.C,R25*%
X118618000Y-73025000D03*
X118618000Y-75025000D03*
%TD*%
D12*
%TO.C,R26*%
X127540000Y-87527494D03*
X129540000Y-87527494D03*
%TD*%
D37*
%TO.C,R55*%
X153924000Y-120930000D03*
X153924000Y-117830000D03*
%TD*%
D29*
%TO.C,C30*%
X152400000Y-109749500D03*
X152400000Y-107674500D03*
%TD*%
D38*
%TO.C,R11*%
X129030000Y-120904000D03*
X135130000Y-120904000D03*
%TD*%
D31*
%TO.C,R45*%
X163068000Y-88408000D03*
X163068000Y-90408000D03*
%TD*%
D36*
%TO.C,D17*%
X155448000Y-83186000D03*
X155448000Y-86486000D03*
%TD*%
D30*
%TO.C,C11*%
X113139000Y-77057500D03*
X111064000Y-77057500D03*
%TD*%
D31*
%TO.C,R53*%
X156464000Y-115348000D03*
X156464000Y-117348000D03*
%TD*%
D39*
%TO.C,D5*%
X113979960Y-99931220D03*
X112080040Y-99931220D03*
X113030000Y-97833180D03*
%TD*%
D37*
%TO.C,R59*%
X150368000Y-120930000D03*
X150368000Y-117830000D03*
%TD*%
D34*
%TO.C,C23*%
X127442559Y-84640565D03*
X129517559Y-84640565D03*
%TD*%
D12*
%TO.C,R38*%
X168164000Y-85852000D03*
X170164000Y-85852000D03*
%TD*%
D16*
%TO.C,C10*%
X113157000Y-79375000D03*
X113157000Y-81450000D03*
%TD*%
D24*
%TO.C,R50*%
X163576000Y-118856000D03*
X163576000Y-116856000D03*
%TD*%
D16*
%TO.C,C22*%
X116459000Y-72898000D03*
X116459000Y-74973000D03*
%TD*%
D29*
%TO.C,C9*%
X122936000Y-88943000D03*
X122936000Y-86868000D03*
%TD*%
D25*
%TO.C,Q16*%
X154366000Y-88900000D03*
X152466000Y-88900000D03*
X153416000Y-87025000D03*
%TD*%
M02*
