%TF.GenerationSoftware,KiCad,Pcbnew,6.0.2+dfsg-1*%
%TF.CreationDate,2023-01-05T11:37:28-05:00*%
%TF.ProjectId,qwiic-obd,71776969-632d-46f6-9264-2e6b69636164,rev?*%
%TF.SameCoordinates,Original*%
%TF.FileFunction,Paste,Top*%
%TF.FilePolarity,Positive*%
%FSLAX46Y46*%
G04 Gerber Fmt 4.6, Leading zero omitted, Abs format (unit mm)*
G04 Created by KiCad (PCBNEW 6.0.2+dfsg-1) date 2023-01-05 11:37:28*
%MOMM*%
%LPD*%
G01*
G04 APERTURE LIST*
G04 Aperture macros list*
%AMRoundRect*
0 Rectangle with rounded corners*
0 $1 Rounding radius*
0 $2 $3 $4 $5 $6 $7 $8 $9 X,Y pos of 4 corners*
0 Add a 4 corners polygon primitive as box body*
4,1,4,$2,$3,$4,$5,$6,$7,$8,$9,$2,$3,0*
0 Add four circle primitives for the rounded corners*
1,1,$1+$1,$2,$3*
1,1,$1+$1,$4,$5*
1,1,$1+$1,$6,$7*
1,1,$1+$1,$8,$9*
0 Add four rect primitives between the rounded corners*
20,1,$1+$1,$2,$3,$4,$5,0*
20,1,$1+$1,$4,$5,$6,$7,0*
20,1,$1+$1,$6,$7,$8,$9,0*
20,1,$1+$1,$8,$9,$2,$3,0*%
%AMFreePoly0*
4,1,9,3.862500,-0.866500,0.737500,-0.866500,0.737500,-0.450000,-0.737500,-0.450000,-0.737500,0.450000,0.737500,0.450000,0.737500,0.866500,3.862500,0.866500,3.862500,-0.866500,3.862500,-0.866500,$1*%
G04 Aperture macros list end*
%ADD10RoundRect,0.250000X0.350000X0.450000X-0.350000X0.450000X-0.350000X-0.450000X0.350000X-0.450000X0*%
%ADD11RoundRect,0.250000X0.325000X0.450000X-0.325000X0.450000X-0.325000X-0.450000X0.325000X-0.450000X0*%
%ADD12RoundRect,0.250000X-0.450000X0.350000X-0.450000X-0.350000X0.450000X-0.350000X0.450000X0.350000X0*%
%ADD13RoundRect,0.250000X-0.350000X-0.450000X0.350000X-0.450000X0.350000X0.450000X-0.350000X0.450000X0*%
%ADD14R,0.635000X0.558800*%
%ADD15R,1.200000X0.900000*%
%ADD16R,1.168400X0.254000*%
%ADD17RoundRect,0.150000X-0.150000X0.587500X-0.150000X-0.587500X0.150000X-0.587500X0.150000X0.587500X0*%
%ADD18RoundRect,0.250000X-0.337500X-0.475000X0.337500X-0.475000X0.337500X0.475000X-0.337500X0.475000X0*%
%ADD19RoundRect,0.250000X0.475000X-0.337500X0.475000X0.337500X-0.475000X0.337500X-0.475000X-0.337500X0*%
%ADD20RoundRect,0.250000X0.450000X-0.350000X0.450000X0.350000X-0.450000X0.350000X-0.450000X-0.350000X0*%
%ADD21RoundRect,0.250000X0.337500X0.475000X-0.337500X0.475000X-0.337500X-0.475000X0.337500X-0.475000X0*%
%ADD22R,1.981200X0.508000*%
%ADD23R,0.609600X1.549400*%
%ADD24R,1.193800X1.803400*%
%ADD25RoundRect,0.250000X-0.475000X0.337500X-0.475000X-0.337500X0.475000X-0.337500X0.475000X0.337500X0*%
%ADD26R,2.500000X1.800000*%
%ADD27RoundRect,0.150000X0.587500X0.150000X-0.587500X0.150000X-0.587500X-0.150000X0.587500X-0.150000X0*%
%ADD28RoundRect,0.100000X0.100000X-0.637500X0.100000X0.637500X-0.100000X0.637500X-0.100000X-0.637500X0*%
%ADD29RoundRect,0.150000X-0.587500X-0.150000X0.587500X-0.150000X0.587500X0.150000X-0.587500X0.150000X0*%
%ADD30R,0.600000X0.700000*%
%ADD31RoundRect,0.150000X0.150000X-0.512500X0.150000X0.512500X-0.150000X0.512500X-0.150000X-0.512500X0*%
%ADD32R,1.800000X2.500000*%
%ADD33R,1.409700X0.355600*%
%ADD34RoundRect,0.150000X0.150000X-0.587500X0.150000X0.587500X-0.150000X0.587500X-0.150000X-0.587500X0*%
%ADD35RoundRect,0.100000X0.637500X0.100000X-0.637500X0.100000X-0.637500X-0.100000X0.637500X-0.100000X0*%
%ADD36R,2.000000X1.800000*%
%ADD37RoundRect,0.250000X-0.875000X-1.025000X0.875000X-1.025000X0.875000X1.025000X-0.875000X1.025000X0*%
%ADD38R,0.508000X1.270000*%
%ADD39RoundRect,0.237500X-0.287500X-0.237500X0.287500X-0.237500X0.287500X0.237500X-0.287500X0.237500X0*%
%ADD40R,0.900000X1.300000*%
%ADD41FreePoly0,270.000000*%
%ADD42RoundRect,0.100000X-0.637500X-0.100000X0.637500X-0.100000X0.637500X0.100000X-0.637500X0.100000X0*%
%ADD43R,0.900000X1.200000*%
%ADD44R,0.914400X0.508000*%
%ADD45RoundRect,0.237500X-0.237500X0.287500X-0.237500X-0.287500X0.237500X-0.287500X0.237500X0.287500X0*%
%ADD46RoundRect,0.100000X-0.100000X0.637500X-0.100000X-0.637500X0.100000X-0.637500X0.100000X0.637500X0*%
%ADD47RoundRect,0.250000X0.875000X1.025000X-0.875000X1.025000X-0.875000X-1.025000X0.875000X-1.025000X0*%
%ADD48R,1.308100X0.355600*%
%ADD49R,1.400000X0.300000*%
%ADD50R,0.600000X1.000000*%
%ADD51R,0.650000X0.350000*%
G04 APERTURE END LIST*
D10*
%TO.C,R621*%
X198612000Y-73660000D03*
X196612000Y-73660000D03*
%TD*%
D11*
%TO.C,D606*%
X198646000Y-75692000D03*
X196596000Y-75692000D03*
%TD*%
D12*
%TO.C,R407*%
X191516000Y-76692000D03*
X191516000Y-74692000D03*
%TD*%
D13*
%TO.C,R610*%
X164608000Y-82804000D03*
X166608000Y-82804000D03*
%TD*%
D14*
%TO.C,RN401*%
X178117178Y-101288460D03*
X178117178Y-100488460D03*
X178117178Y-99688461D03*
X178117178Y-98888460D03*
X178117178Y-98088462D03*
X178117178Y-97288461D03*
X178117178Y-96488460D03*
X178117178Y-95688462D03*
X176034378Y-95688462D03*
X176034378Y-96488462D03*
X176034378Y-97288461D03*
X176034378Y-98088462D03*
X176034378Y-98888460D03*
X176034378Y-99688461D03*
X176034378Y-100488462D03*
X176034378Y-101288460D03*
%TD*%
D15*
%TO.C,D502*%
X120396000Y-77342000D03*
X120396000Y-74042000D03*
%TD*%
D12*
%TO.C,R403*%
X137668000Y-85884000D03*
X137668000Y-87884000D03*
%TD*%
D16*
%TO.C,U205*%
X133959600Y-116089999D03*
X133959600Y-116590000D03*
X133959600Y-117090000D03*
X133959600Y-117590001D03*
X131216400Y-117590001D03*
X131216400Y-117090000D03*
X131216400Y-116590000D03*
X131216400Y-116089999D03*
%TD*%
D17*
%TO.C,Q704*%
X158430000Y-120474500D03*
X156530000Y-120474500D03*
X157480000Y-122349500D03*
%TD*%
D12*
%TO.C,R611*%
X162560000Y-84852000D03*
X162560000Y-86852000D03*
%TD*%
D13*
%TO.C,R801*%
X156988000Y-106680000D03*
X158988000Y-106680000D03*
%TD*%
D18*
%TO.C,C303*%
X119866500Y-112268000D03*
X121941500Y-112268000D03*
%TD*%
D19*
%TO.C,C516*%
X149352000Y-79269500D03*
X149352000Y-77194500D03*
%TD*%
D20*
%TO.C,R705*%
X180340000Y-115808000D03*
X180340000Y-113808000D03*
%TD*%
D21*
%TO.C,C403*%
X137181500Y-101600000D03*
X135106500Y-101600000D03*
%TD*%
D22*
%TO.C,U301*%
X132003800Y-123317000D03*
X132003800Y-122047000D03*
X132003800Y-120777000D03*
X132003800Y-119507000D03*
X127076200Y-119507000D03*
X127076200Y-120777000D03*
X127076200Y-122047000D03*
X127076200Y-123317000D03*
%TD*%
D23*
%TO.C,J103*%
X211312001Y-119888000D03*
X210312000Y-119888000D03*
X209312002Y-119888000D03*
X208312001Y-119888000D03*
D24*
X212612000Y-122412999D03*
X207012002Y-122412999D03*
%TD*%
D25*
%TO.C,C602*%
X148336000Y-92434500D03*
X148336000Y-94509500D03*
%TD*%
D20*
%TO.C,R203*%
X135636000Y-108696000D03*
X135636000Y-106696000D03*
%TD*%
D18*
%TO.C,C502*%
X130534500Y-80772000D03*
X132609500Y-80772000D03*
%TD*%
D13*
%TO.C,R602*%
X155448000Y-83312000D03*
X157448000Y-83312000D03*
%TD*%
D10*
%TO.C,R402*%
X212344000Y-115824000D03*
X210344000Y-115824000D03*
%TD*%
D25*
%TO.C,C701*%
X167939067Y-121193052D03*
X167939067Y-123268052D03*
%TD*%
%TO.C,C509*%
X111760000Y-78210500D03*
X111760000Y-80285500D03*
%TD*%
D18*
%TO.C,C401*%
X137646500Y-91440000D03*
X139721500Y-91440000D03*
%TD*%
D13*
%TO.C,R408*%
X112792000Y-114808000D03*
X114792000Y-114808000D03*
%TD*%
D26*
%TO.C,D402*%
X132556000Y-98552000D03*
X128556000Y-98552000D03*
%TD*%
D20*
%TO.C,R710*%
X178308000Y-117332000D03*
X178308000Y-115332000D03*
%TD*%
D27*
%TO.C,Q701*%
X157360988Y-117180297D03*
X157360988Y-115280297D03*
X155485988Y-116230297D03*
%TD*%
D28*
%TO.C,U403*%
X164857000Y-101414500D03*
X165507000Y-101414500D03*
X166157000Y-101414500D03*
X166807000Y-101414500D03*
X167457000Y-101414500D03*
X168107000Y-101414500D03*
X168757000Y-101414500D03*
X169407000Y-101414500D03*
X169407000Y-95689500D03*
X168757000Y-95689500D03*
X168107000Y-95689500D03*
X167457000Y-95689500D03*
X166807000Y-95689500D03*
X166157000Y-95689500D03*
X165507000Y-95689500D03*
X164857000Y-95689500D03*
%TD*%
D29*
%TO.C,Q501*%
X122936000Y-74808000D03*
X122936000Y-76708000D03*
X124811000Y-75758000D03*
%TD*%
D30*
%TO.C,D403*%
X135626715Y-95258337D03*
X134226715Y-95258337D03*
%TD*%
D20*
%TO.C,R506*%
X146812000Y-79232000D03*
X146812000Y-77232000D03*
%TD*%
D15*
%TO.C,D503*%
X118872000Y-85218000D03*
X118872000Y-88518000D03*
%TD*%
D31*
%TO.C,U501*%
X112334000Y-76321500D03*
X113284000Y-76321500D03*
X114234000Y-76321500D03*
X114234000Y-74046500D03*
X113284000Y-74046500D03*
X112334000Y-74046500D03*
%TD*%
D10*
%TO.C,R503*%
X121920000Y-83312000D03*
X119920000Y-83312000D03*
%TD*%
D30*
%TO.C,D401*%
X135587389Y-93598657D03*
X134187389Y-93598657D03*
%TD*%
D32*
%TO.C,D501*%
X114793938Y-81113127D03*
X114793938Y-85113127D03*
%TD*%
D16*
%TO.C,U203*%
X139329838Y-106215142D03*
X139329838Y-106715143D03*
X139329838Y-107215143D03*
X139329838Y-107715144D03*
X142073038Y-107715144D03*
X142073038Y-107215143D03*
X142073038Y-106715143D03*
X142073038Y-106215142D03*
%TD*%
D33*
%TO.C,U801*%
X157067250Y-108469001D03*
X157067250Y-109118999D03*
X157067250Y-109769001D03*
X157067250Y-110418999D03*
X157067250Y-111068998D03*
X157067250Y-111718999D03*
X157067250Y-112368998D03*
X157067250Y-113018999D03*
X162972750Y-113018999D03*
X162972750Y-112369001D03*
X162972750Y-111718999D03*
X162972750Y-111069001D03*
X162972750Y-110419002D03*
X162972750Y-109769001D03*
X162972750Y-109119002D03*
X162972750Y-108469001D03*
%TD*%
D12*
%TO.C,R501*%
X117856000Y-81296000D03*
X117856000Y-83296000D03*
%TD*%
D25*
%TO.C,C603*%
X146304000Y-92434500D03*
X146304000Y-94509500D03*
%TD*%
D27*
%TO.C,Q503*%
X122349500Y-81214000D03*
X122349500Y-79314000D03*
X120474500Y-80264000D03*
%TD*%
D17*
%TO.C,Q502*%
X128524000Y-79314000D03*
X126624000Y-79314000D03*
X127574000Y-81189000D03*
%TD*%
D34*
%TO.C,Q608*%
X165674000Y-86789500D03*
X167574000Y-86789500D03*
X166624000Y-84914500D03*
%TD*%
D27*
%TO.C,Q201*%
X133525500Y-112710000D03*
X133525500Y-110810000D03*
X131650500Y-111760000D03*
%TD*%
D19*
%TO.C,C513*%
X137160000Y-81301500D03*
X137160000Y-79226500D03*
%TD*%
D27*
%TO.C,Q604*%
X158339000Y-91882000D03*
X158339000Y-89982000D03*
X156464000Y-90932000D03*
%TD*%
D19*
%TO.C,C301*%
X120752249Y-122783341D03*
X120752249Y-120708341D03*
%TD*%
D35*
%TO.C,U602*%
X163390500Y-75651000D03*
X163390500Y-75001000D03*
X163390500Y-74351000D03*
X163390500Y-73701000D03*
X157665500Y-73701000D03*
X157665500Y-74351000D03*
X157665500Y-75001000D03*
X157665500Y-75651000D03*
%TD*%
D13*
%TO.C,R405*%
X135144000Y-97536000D03*
X137144000Y-97536000D03*
%TD*%
D18*
%TO.C,C304*%
X126470500Y-106172000D03*
X128545500Y-106172000D03*
%TD*%
D34*
%TO.C,Q203*%
X126558000Y-115237500D03*
X128458000Y-115237500D03*
X127508000Y-113362500D03*
%TD*%
D36*
%TO.C,X701*%
X176276000Y-104648000D03*
X176276000Y-109728000D03*
X180276000Y-109728000D03*
X180276000Y-104648000D03*
%TD*%
D21*
%TO.C,C402*%
X140737500Y-100584000D03*
X138662500Y-100584000D03*
%TD*%
D27*
%TO.C,Q606*%
X170609500Y-82738000D03*
X170609500Y-80838000D03*
X168734500Y-81788000D03*
%TD*%
D12*
%TO.C,R504*%
X124428035Y-79313976D03*
X124428035Y-81313976D03*
%TD*%
D37*
%TO.C,C501*%
X128016000Y-75692000D03*
X134416000Y-75692000D03*
%TD*%
D12*
%TO.C,R304*%
X123947425Y-109970381D03*
X123947425Y-111970381D03*
%TD*%
D13*
%TO.C,R404*%
X139700000Y-87884000D03*
X141700000Y-87884000D03*
%TD*%
D17*
%TO.C,Q603*%
X176210000Y-76786500D03*
X174310000Y-76786500D03*
X175260000Y-78661500D03*
%TD*%
D16*
%TO.C,U201*%
X139344400Y-110501999D03*
X139344400Y-111002000D03*
X139344400Y-111502000D03*
X139344400Y-112002001D03*
X142087600Y-112002001D03*
X142087600Y-111502000D03*
X142087600Y-111002000D03*
X142087600Y-110501999D03*
%TD*%
D13*
%TO.C,R205*%
X126508000Y-117348000D03*
X128508000Y-117348000D03*
%TD*%
D38*
%TO.C,U404*%
X112841999Y-112471200D03*
X113792000Y-112471200D03*
X114742001Y-112471200D03*
X114742001Y-110032800D03*
X112841999Y-110032800D03*
%TD*%
D13*
%TO.C,F501*%
X114622723Y-88350565D03*
X116622723Y-88350565D03*
%TD*%
D12*
%TO.C,R709*%
X160171152Y-120568417D03*
X160171152Y-122568417D03*
%TD*%
D13*
%TO.C,R301*%
X136160000Y-115316000D03*
X138160000Y-115316000D03*
%TD*%
D21*
%TO.C,C601*%
X146833500Y-84836000D03*
X144758500Y-84836000D03*
%TD*%
D34*
%TO.C,Q607*%
X169230000Y-87727000D03*
X171130000Y-87727000D03*
X170180000Y-85852000D03*
%TD*%
D20*
%TO.C,R603*%
X149860000Y-89376000D03*
X149860000Y-87376000D03*
%TD*%
D13*
%TO.C,R620*%
X152908000Y-75184000D03*
X154908000Y-75184000D03*
%TD*%
D37*
%TO.C,C504*%
X128372000Y-85852000D03*
X134772000Y-85852000D03*
%TD*%
%TO.C,C510*%
X128372000Y-90424000D03*
X134772000Y-90424000D03*
%TD*%
D15*
%TO.C,D602*%
X160528000Y-86486000D03*
X160528000Y-83186000D03*
%TD*%
D17*
%TO.C,Q702*%
X154874000Y-118950500D03*
X152974000Y-118950500D03*
X153924000Y-120825500D03*
%TD*%
D25*
%TO.C,C514*%
X144272000Y-77194500D03*
X144272000Y-79269500D03*
%TD*%
D20*
%TO.C,R607*%
X152908000Y-84836000D03*
X152908000Y-82836000D03*
%TD*%
D10*
%TO.C,R708*%
X163068000Y-114808000D03*
X161068000Y-114808000D03*
%TD*%
D16*
%TO.C,U204*%
X118008400Y-108469999D03*
X118008400Y-108970000D03*
X118008400Y-109470000D03*
X118008400Y-109970001D03*
X120751600Y-109970001D03*
X120751600Y-109470000D03*
X120751600Y-108970000D03*
X120751600Y-108469999D03*
%TD*%
D13*
%TO.C,R302*%
X122584731Y-120763268D03*
X124584731Y-120763268D03*
%TD*%
D10*
%TO.C,R406*%
X137144000Y-99568000D03*
X135144000Y-99568000D03*
%TD*%
D39*
%TO.C,L502*%
X139841000Y-81280000D03*
X141591000Y-81280000D03*
%TD*%
D16*
%TO.C,U202*%
X118008400Y-105929999D03*
X118008400Y-106430000D03*
X118008400Y-106930000D03*
X118008400Y-107430001D03*
X120751600Y-107430001D03*
X120751600Y-106930000D03*
X120751600Y-106430000D03*
X120751600Y-105929999D03*
%TD*%
D12*
%TO.C,R605*%
X156972000Y-86376000D03*
X156972000Y-88376000D03*
%TD*%
D17*
%TO.C,Q703*%
X151318000Y-118950500D03*
X149418000Y-118950500D03*
X150368000Y-120825500D03*
%TD*%
D24*
%TO.C,J101*%
X213120000Y-73675001D03*
X207520002Y-73675001D03*
D23*
X211820001Y-76200000D03*
X210820000Y-76200000D03*
X209820002Y-76200000D03*
X208820001Y-76200000D03*
%TD*%
D40*
%TO.C,U601*%
X147804000Y-87250000D03*
D41*
X146304000Y-87337500D03*
D40*
X144804000Y-87250000D03*
%TD*%
D10*
%TO.C,R502*%
X125400059Y-89754929D03*
X123400059Y-89754929D03*
%TD*%
D42*
%TO.C,U802*%
X146997500Y-108327000D03*
X146997500Y-108977000D03*
X146997500Y-109627000D03*
X146997500Y-110277000D03*
X146997500Y-110927000D03*
X146997500Y-111577000D03*
X146997500Y-112227000D03*
X146997500Y-112877000D03*
X146997500Y-113527000D03*
X146997500Y-114177000D03*
X152722500Y-114177000D03*
X152722500Y-113527000D03*
X152722500Y-112877000D03*
X152722500Y-112227000D03*
X152722500Y-111577000D03*
X152722500Y-110927000D03*
X152722500Y-110277000D03*
X152722500Y-109627000D03*
X152722500Y-108977000D03*
X152722500Y-108327000D03*
%TD*%
D12*
%TO.C,R618*%
X174752000Y-80788000D03*
X174752000Y-82788000D03*
%TD*%
D10*
%TO.C,R613*%
X173720000Y-74168000D03*
X171720000Y-74168000D03*
%TD*%
D20*
%TO.C,R409*%
X109728000Y-114808000D03*
X109728000Y-112808000D03*
%TD*%
D43*
%TO.C,D603*%
X162560000Y-81280000D03*
X159260000Y-81280000D03*
%TD*%
D13*
%TO.C,R604*%
X148637508Y-84821826D03*
X150637508Y-84821826D03*
%TD*%
D44*
%TO.C,U502*%
X139319000Y-77282040D03*
X139319000Y-78232000D03*
X139319000Y-79181960D03*
X142113000Y-79181960D03*
X142113000Y-77282040D03*
%TD*%
D45*
%TO.C,L501*%
X110744000Y-74309000D03*
X110744000Y-76059000D03*
%TD*%
D20*
%TO.C,R201*%
X135636000Y-112760000D03*
X135636000Y-110760000D03*
%TD*%
%TO.C,R305*%
X123952000Y-108188000D03*
X123952000Y-106188000D03*
%TD*%
%TO.C,R606*%
X160528000Y-91948000D03*
X160528000Y-89948000D03*
%TD*%
D46*
%TO.C,U701*%
X165567000Y-117025500D03*
X164917000Y-117025500D03*
X164267000Y-117025500D03*
X163617000Y-117025500D03*
X163617000Y-122750500D03*
X164267000Y-122750500D03*
X164917000Y-122750500D03*
X165567000Y-122750500D03*
%TD*%
D10*
%TO.C,R619*%
X154940000Y-73152000D03*
X152940000Y-73152000D03*
%TD*%
D47*
%TO.C,C515*%
X149352000Y-74168000D03*
X142952000Y-74168000D03*
%TD*%
D36*
%TO.C,X801*%
X147288000Y-121920000D03*
X147288000Y-116840000D03*
X143288000Y-116840000D03*
X143288000Y-121920000D03*
%TD*%
D28*
%TO.C,U401*%
X179589000Y-101414500D03*
X180239000Y-101414500D03*
X180889000Y-101414500D03*
X181539000Y-101414500D03*
X182189000Y-101414500D03*
X182839000Y-101414500D03*
X183489000Y-101414500D03*
X184139000Y-101414500D03*
X184139000Y-95689500D03*
X183489000Y-95689500D03*
X182839000Y-95689500D03*
X182189000Y-95689500D03*
X181539000Y-95689500D03*
X180889000Y-95689500D03*
X180239000Y-95689500D03*
X179589000Y-95689500D03*
%TD*%
D14*
%TO.C,RN402*%
X163133405Y-101185950D03*
X163133405Y-100385950D03*
X163133405Y-99585951D03*
X163133405Y-98785950D03*
X163133405Y-97985952D03*
X163133405Y-97185951D03*
X163133405Y-96385950D03*
X163133405Y-95585952D03*
X161050605Y-95585952D03*
X161050605Y-96385952D03*
X161050605Y-97185951D03*
X161050605Y-97985952D03*
X161050605Y-98785950D03*
X161050605Y-99585951D03*
X161050605Y-100385952D03*
X161050605Y-101185950D03*
%TD*%
D42*
%TO.C,U702*%
X170365500Y-111517000D03*
X170365500Y-112167000D03*
X170365500Y-112817000D03*
X170365500Y-113467000D03*
X170365500Y-114117000D03*
X170365500Y-114767000D03*
X170365500Y-115417000D03*
X170365500Y-116067000D03*
X176090500Y-116067000D03*
X176090500Y-115417000D03*
X176090500Y-114767000D03*
X176090500Y-114117000D03*
X176090500Y-113467000D03*
X176090500Y-112817000D03*
X176090500Y-112167000D03*
X176090500Y-111517000D03*
%TD*%
D48*
%TO.C,U603*%
X180994050Y-80345999D03*
X180994050Y-80996000D03*
X180994050Y-81646001D03*
X180994050Y-82296000D03*
X180994050Y-82945999D03*
X180994050Y-83596000D03*
X180994050Y-84245999D03*
X186797950Y-84246001D03*
X186797950Y-83596000D03*
X186797950Y-82946001D03*
X186797950Y-82296000D03*
X186797950Y-81646001D03*
X186797950Y-80996000D03*
X186797950Y-80346001D03*
%TD*%
D10*
%TO.C,R401*%
X210296000Y-113284000D03*
X208296000Y-113284000D03*
%TD*%
D25*
%TO.C,C508*%
X109728000Y-78210500D03*
X109728000Y-80285500D03*
%TD*%
D13*
%TO.C,R608*%
X176800000Y-74168000D03*
X178800000Y-74168000D03*
%TD*%
D12*
%TO.C,R612*%
X172720000Y-80788000D03*
X172720000Y-82788000D03*
%TD*%
D49*
%TO.C,U402*%
X137500000Y-93488000D03*
X137500000Y-93988000D03*
X137500000Y-94488000D03*
X137500000Y-94988000D03*
X137500000Y-95488000D03*
X141900000Y-95488000D03*
X141900000Y-94988000D03*
X141900000Y-94488000D03*
X141900000Y-93988000D03*
X141900000Y-93488000D03*
%TD*%
D27*
%TO.C,Q202*%
X133447000Y-108646000D03*
X133447000Y-106746000D03*
X131572000Y-107696000D03*
%TD*%
D34*
%TO.C,Q602*%
X170754000Y-78661500D03*
X172654000Y-78661500D03*
X171704000Y-76786500D03*
%TD*%
D50*
%TO.C,U302*%
X127120500Y-108620000D03*
X127120500Y-109820000D03*
X127895500Y-109820000D03*
X127895500Y-108620000D03*
D51*
X129058000Y-110195000D03*
X129058000Y-109545000D03*
X129058000Y-108895000D03*
X129058000Y-108245000D03*
X125958000Y-108245000D03*
X125958000Y-108895000D03*
X125958000Y-109545000D03*
X125958000Y-110195000D03*
%TD*%
D13*
%TO.C,R615*%
X166116000Y-73152000D03*
X168116000Y-73152000D03*
%TD*%
D27*
%TO.C,Q605*%
X154861500Y-88326000D03*
X154861500Y-86426000D03*
X152986500Y-87376000D03*
%TD*%
D21*
%TO.C,C505*%
X125497500Y-86868000D03*
X123422500Y-86868000D03*
%TD*%
D19*
%TO.C,C512*%
X115824000Y-77216000D03*
X115824000Y-75141000D03*
%TD*%
D20*
%TO.C,R707*%
X166116000Y-115300000D03*
X166116000Y-113300000D03*
%TD*%
M02*
