%TF.GenerationSoftware,KiCad,Pcbnew,6.0.2+dfsg-1*%
%TF.CreationDate,2023-01-05T11:37:29-05:00*%
%TF.ProjectId,qwiic-obd,71776969-632d-46f6-9264-2e6b69636164,rev?*%
%TF.SameCoordinates,Original*%
%TF.FileFunction,Soldermask,Bot*%
%TF.FilePolarity,Negative*%
%FSLAX46Y46*%
G04 Gerber Fmt 4.6, Leading zero omitted, Abs format (unit mm)*
G04 Created by KiCad (PCBNEW 6.0.2+dfsg-1) date 2023-01-05 11:37:29*
%MOMM*%
%LPD*%
G01*
G04 APERTURE LIST*
G04 Aperture macros list*
%AMRoundRect*
0 Rectangle with rounded corners*
0 $1 Rounding radius*
0 $2 $3 $4 $5 $6 $7 $8 $9 X,Y pos of 4 corners*
0 Add a 4 corners polygon primitive as box body*
4,1,4,$2,$3,$4,$5,$6,$7,$8,$9,$2,$3,0*
0 Add four circle primitives for the rounded corners*
1,1,$1+$1,$2,$3*
1,1,$1+$1,$4,$5*
1,1,$1+$1,$6,$7*
1,1,$1+$1,$8,$9*
0 Add four rect primitives between the rounded corners*
20,1,$1+$1,$2,$3,$4,$5,0*
20,1,$1+$1,$4,$5,$6,$7,0*
20,1,$1+$1,$6,$7,$8,$9,0*
20,1,$1+$1,$8,$9,$2,$3,0*%
G04 Aperture macros list end*
%ADD10R,1.700000X1.700000*%
%ADD11O,1.700000X1.700000*%
%ADD12C,2.000000*%
%ADD13R,1.600000X1.600000*%
%ADD14C,1.600000*%
%ADD15O,1.600000X1.600000*%
%ADD16R,1.879600X1.879600*%
%ADD17C,1.879600*%
%ADD18RoundRect,0.250000X0.450000X-0.350000X0.450000X0.350000X-0.450000X0.350000X-0.450000X-0.350000X0*%
%ADD19RoundRect,0.150000X0.150000X-0.587500X0.150000X0.587500X-0.150000X0.587500X-0.150000X-0.587500X0*%
%ADD20R,0.558800X0.914400*%
%ADD21R,0.797560X0.899160*%
%ADD22RoundRect,0.150000X0.587500X0.150000X-0.587500X0.150000X-0.587500X-0.150000X0.587500X-0.150000X0*%
%ADD23RoundRect,0.250000X0.475000X-0.337500X0.475000X0.337500X-0.475000X0.337500X-0.475000X-0.337500X0*%
%ADD24RoundRect,0.250000X-0.350000X-0.450000X0.350000X-0.450000X0.350000X0.450000X-0.350000X0.450000X0*%
%ADD25RoundRect,0.250000X-0.337500X-0.475000X0.337500X-0.475000X0.337500X0.475000X-0.337500X0.475000X0*%
%ADD26RoundRect,0.250000X-0.450000X0.350000X-0.450000X-0.350000X0.450000X-0.350000X0.450000X0.350000X0*%
%ADD27RoundRect,0.250000X0.350000X0.450000X-0.350000X0.450000X-0.350000X-0.450000X0.350000X-0.450000X0*%
%ADD28R,0.899160X0.797560*%
%ADD29R,0.900000X1.200000*%
%ADD30R,0.700000X0.450000*%
%ADD31R,1.200000X0.900000*%
%ADD32RoundRect,0.250000X1.075000X-0.400000X1.075000X0.400000X-1.075000X0.400000X-1.075000X-0.400000X0*%
%ADD33RoundRect,0.249999X-0.450001X-1.425001X0.450001X-1.425001X0.450001X1.425001X-0.450001X1.425001X0*%
%ADD34RoundRect,0.250000X0.337500X0.475000X-0.337500X0.475000X-0.337500X-0.475000X0.337500X-0.475000X0*%
G04 APERTURE END LIST*
D10*
%TO.C,JP601*%
X196596000Y-78740000D03*
D11*
X196596000Y-81280000D03*
X196596000Y-83820000D03*
%TD*%
D12*
%TO.C,SW401*%
X188872000Y-73660000D03*
X182372000Y-73660000D03*
X188872000Y-78160000D03*
X182372000Y-78160000D03*
%TD*%
D10*
%TO.C,J602*%
X192532000Y-79756000D03*
D11*
X192532000Y-82296000D03*
X192532000Y-84836000D03*
X192532000Y-87376000D03*
%TD*%
D10*
%TO.C,J401*%
X214884000Y-94508000D03*
D11*
X214884000Y-97048000D03*
X214884000Y-99588000D03*
X214884000Y-102128000D03*
%TD*%
D13*
%TO.C,J102*%
X122910331Y-102090000D03*
D14*
X122910331Y-99800000D03*
X122910331Y-97510000D03*
X122910331Y-95220000D03*
X122910331Y-92930000D03*
X120370331Y-103235000D03*
X120370331Y-100945000D03*
X120370331Y-98655000D03*
X120370331Y-96365000D03*
X120370331Y-94075000D03*
X117830331Y-102090000D03*
X117830331Y-99800000D03*
X117830331Y-97510000D03*
X117830331Y-95220000D03*
X117830331Y-92930000D03*
%TD*%
D13*
%TO.C,RN403*%
X211328000Y-91948000D03*
D15*
X211328000Y-94488000D03*
X211328000Y-97028000D03*
X211328000Y-99568000D03*
X211328000Y-102108000D03*
%TD*%
D12*
%TO.C,SW402*%
X116840000Y-121920000D03*
X110340000Y-121920000D03*
X116840000Y-117420000D03*
X110340000Y-117420000D03*
%TD*%
D16*
%TO.C,J601*%
X203200000Y-76200000D03*
D17*
X203200000Y-78740000D03*
X203200000Y-81280000D03*
X203200000Y-83820000D03*
X203200000Y-86360000D03*
X203200000Y-88900000D03*
%TD*%
D18*
%TO.C,R202*%
X131572000Y-113268000D03*
X131572000Y-111268000D03*
%TD*%
D19*
%TO.C,Q504*%
X112710000Y-77059000D03*
X110810000Y-77059000D03*
X111760000Y-75184000D03*
%TD*%
D20*
%TO.C,D101*%
X114742001Y-97713800D03*
X112841999Y-97713800D03*
X113792000Y-95326200D03*
%TD*%
D19*
%TO.C,Q609*%
X161478000Y-91869500D03*
X159578000Y-91869500D03*
X160528000Y-89994500D03*
%TD*%
D21*
%TO.C,D103*%
X123002040Y-105173780D03*
X124901960Y-105173780D03*
X123952000Y-107271820D03*
%TD*%
D22*
%TO.C,Q301*%
X140637500Y-120462000D03*
X140637500Y-122362000D03*
X138762500Y-121412000D03*
%TD*%
D23*
%TO.C,C302*%
X127508000Y-110765500D03*
X127508000Y-108690500D03*
%TD*%
D24*
%TO.C,R706*%
X152416000Y-122936000D03*
X154416000Y-122936000D03*
%TD*%
D25*
%TO.C,C506*%
X120882500Y-74676000D03*
X122957500Y-74676000D03*
%TD*%
D26*
%TO.C,R204*%
X130048000Y-104156000D03*
X130048000Y-106156000D03*
%TD*%
D27*
%TO.C,R206*%
X129016000Y-114808000D03*
X127016000Y-114808000D03*
%TD*%
D28*
%TO.C,D104*%
X113809780Y-104073960D03*
X113809780Y-102174040D03*
X115907820Y-103124000D03*
%TD*%
D27*
%TO.C,R617*%
X163052000Y-75184000D03*
X161052000Y-75184000D03*
%TD*%
D29*
%TO.C,D604*%
X163576000Y-73152000D03*
X160276000Y-73152000D03*
%TD*%
D18*
%TO.C,R614*%
X166116000Y-77200000D03*
X166116000Y-75200000D03*
%TD*%
D28*
%TO.C,D105*%
X125493780Y-94929960D03*
X125493780Y-93030040D03*
X127591820Y-93980000D03*
%TD*%
D25*
%TO.C,C604*%
X154410500Y-77216000D03*
X156485500Y-77216000D03*
%TD*%
D30*
%TO.C,D605*%
X154416000Y-74026000D03*
X154416000Y-75326000D03*
X152416000Y-74676000D03*
%TD*%
D24*
%TO.C,R601*%
X152416000Y-91440000D03*
X154416000Y-91440000D03*
%TD*%
D31*
%TO.C,D701*%
X165762984Y-116718122D03*
X165762984Y-120018122D03*
%TD*%
D24*
%TO.C,R505*%
X114840000Y-75184000D03*
X116840000Y-75184000D03*
%TD*%
D32*
%TO.C,R702*%
X153924000Y-120930000D03*
X153924000Y-117830000D03*
%TD*%
D23*
%TO.C,C801*%
X152400000Y-109749500D03*
X152400000Y-107674500D03*
%TD*%
D33*
%TO.C,R303*%
X129030000Y-120904000D03*
X135130000Y-120904000D03*
%TD*%
D26*
%TO.C,R616*%
X163068000Y-88408000D03*
X163068000Y-90408000D03*
%TD*%
D31*
%TO.C,D601*%
X155448000Y-83186000D03*
X155448000Y-86486000D03*
%TD*%
D34*
%TO.C,C507*%
X114829500Y-73152000D03*
X112754500Y-73152000D03*
%TD*%
D26*
%TO.C,R701*%
X156464000Y-115348000D03*
X156464000Y-117348000D03*
%TD*%
D20*
%TO.C,D102*%
X127442001Y-99745800D03*
X125541999Y-99745800D03*
X126492000Y-97358200D03*
%TD*%
D32*
%TO.C,R703*%
X150368000Y-120930000D03*
X150368000Y-117830000D03*
%TD*%
D24*
%TO.C,R609*%
X168164000Y-85852000D03*
X170164000Y-85852000D03*
%TD*%
D18*
%TO.C,R704*%
X163576000Y-118856000D03*
X163576000Y-116856000D03*
%TD*%
D25*
%TO.C,C511*%
X114786500Y-77216000D03*
X116861500Y-77216000D03*
%TD*%
D34*
%TO.C,C503*%
X116660223Y-88350565D03*
X114585223Y-88350565D03*
%TD*%
D19*
%TO.C,Q601*%
X154366000Y-88900000D03*
X152466000Y-88900000D03*
X153416000Y-87025000D03*
%TD*%
M02*
