M48
; DRILL file {KiCad 6.0.2+dfsg-1} date Fri 27 Jan 2023 10:21:06 AM EST
; FORMAT={-:-/ absolute / inch / decimal}
; #@! TF.CreationDate,2023-01-27T10:21:06-05:00
; #@! TF.GenerationSoftware,Kicad,Pcbnew,6.0.2+dfsg-1
; #@! TF.FileFunction,Plated,1,4,PTH
FMAT,2
INCH
; #@! TA.AperFunction,Plated,PTH,ViaDrill
T1C0.0157
; #@! TA.AperFunction,Plated,PTH,ComponentDrill
T2C0.0315
; #@! TA.AperFunction,Plated,PTH,ComponentDrill
T3C0.0394
; #@! TA.AperFunction,Plated,PTH,ComponentDrill
T4C0.0433
; #@! TA.AperFunction,Plated,PTH,ComponentDrill
T5C0.1260
%
G90
G05
T1
X4.3Y-3.595
X4.3092Y-2.9208
X4.3259Y-3.025
X4.3526Y-3.0838
X4.355Y-3.135
X4.36Y-3.935
X4.395Y-4.01
X4.4235Y-3.9793
X4.4348Y-3.7748
X4.435Y-2.84
X4.445Y-4.665
X4.48Y-4.565
X4.4826Y-2.9838
X4.49Y-4.745
X4.5034Y-4.6511
X4.505Y-4.075
X4.5138Y-3.1238
X4.52Y-3.035
X4.525Y-2.885
X4.535Y-4.51
X4.536Y-4.629
X4.54Y-3.57
X4.54Y-4.115
X4.5501Y-3.2499
X4.57Y-3.025
X4.59Y-4.585
X4.6Y-4.74
X4.62Y-4.63
X4.6356Y-4.785
X4.64Y-3.02
X4.645Y-4.515
X4.65Y-4.2
X4.654Y-4.661
X4.675Y-4.785
X4.73Y-4.645
X4.76Y-3.52
X4.8Y-2.98
X4.8Y-3.72
X4.8344Y-4.8551
X4.835Y-3.855
X4.855Y-3.985
X4.855Y-4.155
X4.88Y-4.64
X4.8835Y-4.2594
X4.89Y-4.42
X4.9123Y-3.42
X4.93Y-4.62
X4.93Y-4.715
X4.935Y-4.835
X4.94Y-3.09
X4.96Y-4.46
X4.965Y-3.88
X5.0204Y-4.2204
X5.0226Y-3.2774
X5.06Y-3.0538
X5.08Y-4.04
X5.08Y-4.86
X5.12Y-4.24
X5.12Y-4.3
X5.12Y-4.44
X5.12Y-4.64
X5.13Y-4.35
X5.14Y-3.56
X5.22Y-3.38
X5.24Y-3.78
X5.24Y-3.98
X5.26Y-4.32
X5.26Y-4.54
X5.2602Y-4.0398
X5.28Y-4.1
X5.3Y-3.12
X5.3Y-4.5
X5.34Y-3.2
X5.34Y-4.62
X5.34Y-4.66
X5.3798Y-4.7798
X5.38Y-4.74
X5.4Y-3.32
X5.42Y-3.02
X5.42Y-3.06
X5.42Y-3.28
X5.4388Y-4.24
X5.4398Y-4.4
X5.455Y-3.17
X5.48Y-3.72
X5.54Y-4.26
X5.54Y-4.44
X5.56Y-3.52
X5.56Y-3.6
X5.56Y-4.58
X5.56Y-4.64
X5.58Y-4.14
X5.58Y-4.32
X5.6Y-3.64
X5.6Y-3.96
X5.6179Y-3.2168
X5.62Y-4.72
X5.64Y-3.34
X5.64Y-3.7
X5.66Y-3.78
X5.66Y-4.22
X5.66Y-4.38
X5.6764Y-3.6724
X5.68Y-2.98
X5.7Y-4.24
X5.7Y-4.38
X5.7Y-4.44
X5.72Y-4.14
X5.74Y-3.78
X5.78Y-3.28
X5.8Y-3.88
X5.81Y-4.14
X5.8176Y-3.5926
X5.84Y-4.42
X5.84Y-4.5
X5.8702Y-4.4452
X5.88Y-4.4
X5.88Y-4.84
X5.915Y-4.115
X5.92Y-4.58
X5.9202Y-4.1602
X5.9292Y-3.1208
X5.9374Y-3.6721
X5.94Y-4.86
X5.95Y-3.245
X5.96Y-2.94
X5.96Y-2.88
X5.96Y-3.5
X5.96Y-4.46
X5.9602Y-4.1602
X5.9602Y-3.5598
X5.98Y-3.7
X6.0002Y-4.1602
X6.02Y-3.2
X6.0324Y-3.045
X6.04Y-4.1715
X6.0602Y-4.5798
X6.072Y-4.432
X6.0743Y-4.2743
X6.0998Y-4.4598
X6.1Y-4.54
X6.12Y-3.22
X6.12Y-3.34
X6.12Y-4.12
X6.12Y-4.16
X6.1277Y-4.4877
X6.14Y-2.98
X6.14Y-3.64
X6.1478Y-2.9368
X6.1482Y-2.88
X6.16Y-4.68
X6.16Y-4.82
X6.1678Y-3.6122
X6.18Y-3.345
X6.18Y-4.4802
X6.195Y-2.87
X6.22Y-3.14
X6.22Y-4.68
X6.24Y-3.08
X6.24Y-3.46
X6.24Y-3.5
X6.24Y-4.3
X6.24Y-4.36
X6.24Y-4.48
X6.24Y-4.82
X6.2586Y-4.5386
X6.26Y-2.96
X6.26Y-3.7715
X6.26Y-4.08
X6.26Y-4.4
X6.26Y-4.6
X6.28Y-4.68
X6.3Y-3.7715
X6.3Y-4.16
X6.32Y-3.36
X6.32Y-3.48
X6.32Y-4.6
X6.324Y-4.4316
X6.34Y-3.6722
X6.34Y-4.64
X6.3406Y-4.0394
X6.35Y-4.275
X6.36Y-4.46
X6.3649Y-4.3476
X6.3748Y-2.9158
X6.38Y-3.88
X6.38Y-3.76
X6.38Y-3.8
X6.38Y-3.84
X6.38Y-3.92
X6.38Y-3.96
X6.38Y-4.0
X6.38Y-4.62
X6.38Y-4.84
X6.4Y-3.29
X6.4Y-3.62
X6.4Y-3.7007
X6.4Y-4.88
X6.46Y-4.04
X6.4672Y-4.5328
X6.48Y-2.9
X6.48Y-3.06
X6.48Y-3.48
X6.48Y-4.38
X6.4809Y-2.9499
X6.4816Y-4.4962
X6.5Y-4.06
X6.515Y-4.33
X6.5158Y-3.6722
X6.52Y-3.62
X6.56Y-3.14
X6.56Y-3.44
X6.56Y-3.7
X6.58Y-4.8115
X6.5998Y-4.5802
X6.6Y-4.62
X6.6111Y-3.4867
X6.62Y-3.32
X6.6202Y-4.5198
X6.6203Y-4.4797
X6.64Y-4.42
X6.64Y-4.64
X6.64Y-4.68
X6.64Y-4.72
X6.675Y-4.17
X6.68Y-3.1
X6.685Y-4.8084
X6.7Y-3.5
X6.7Y-3.94
X6.7Y-4.34
X6.7Y-4.6
X6.72Y-3.32
X6.725Y-4.21
X6.76Y-4.24
X6.76Y-4.5
X6.76Y-4.54
X6.7915Y-4.3
X6.82Y-4.22
X6.84Y-3.32
X6.86Y-4.5115
X6.865Y-4.76
X6.8875Y-3.5925
X6.8998Y-3.3198
X6.9Y-2.88
X6.9Y-2.96
X6.92Y-4.02
X6.925Y-4.72
X6.925Y-4.8
X6.94Y-3.16
X6.94Y-4.6
X6.96Y-4.64
X6.9765Y-3.7805
X6.978Y-3.8219
X6.98Y-3.74
X6.98Y-3.96
X6.98Y-4.0
X6.9801Y-3.8611
X7.02Y-3.22
X7.02Y-3.38
X7.02Y-4.12
X7.02Y-4.325
X7.0602Y-3.2198
X7.1Y-2.92
X7.1Y-3.62
X7.1Y-4.04
X7.1002Y-3.6729
X7.12Y-3.42
X7.14Y-3.7
X7.18Y-3.16
X7.18Y-3.2
X7.18Y-3.62
X7.18Y-4.08
X7.224Y-4.216
X7.24Y-3.44
X7.28Y-4.06
X7.2962Y-3.2143
X7.3Y-3.76
X7.325Y-3.47
X7.365Y-3.955
X7.385Y-4.275
X7.42Y-3.28
X7.4344Y-4.09
X7.44Y-3.14
X7.44Y-3.38
X7.4744Y-3.95
X7.495Y-3.81
X7.5Y-3.7
X7.52Y-2.88
X7.535Y-3.6715
X7.5544Y-3.95
X7.715Y-3.49
X7.88Y-2.9
X7.9999Y-3.0606
X7.9999Y-3.5206
X7.9999Y-3.7006
X7.9999Y-4.3406
X7.9999Y-4.6406
X8.0399Y-3.2406
X8.0399Y-3.4806
X8.0399Y-3.6718
X8.0399Y-4.3006
X8.0399Y-4.6606
X8.0549Y-3.0906
X8.0999Y-3.0606
X8.1199Y-4.6406
X8.1399Y-3.0806
X8.1799Y-4.7206
T2
X7.205Y-4.66
X7.305Y-4.66
X7.405Y-4.66
X7.505Y-4.66
X7.605Y-4.66
T3
X4.5706Y-3.678
X4.5706Y-3.7681
X4.5706Y-3.8583
X4.5706Y-3.9485
X4.5706Y-4.0386
X4.6486Y-3.7231
X4.6486Y-3.8132
X4.6486Y-3.9034
X4.6486Y-3.9935
X4.6486Y-4.0837
X4.7265Y-3.678
X4.7265Y-3.7681
X4.7265Y-3.8583
X4.7265Y-3.9485
X4.7265Y-4.0386
X7.3054Y-4.789
X7.365Y-3.575
X7.4054Y-4.789
X7.465Y-3.575
X7.5054Y-4.789
X7.565Y-3.575
X7.58Y-3.14
X7.58Y-3.24
X7.58Y-3.34
X7.58Y-3.44
X7.6054Y-4.789
X7.665Y-3.575
X7.74Y-3.1
X7.74Y-3.2
X7.74Y-3.3
X7.765Y-3.575
X7.865Y-3.575
T4
X7.18Y-2.9
X7.18Y-3.0772
X7.3191Y-4.2028
X7.3191Y-4.38
X7.4359Y-2.9
X7.4359Y-3.0772
X7.575Y-4.2028
X7.575Y-4.38
T5
X4.6706Y-3.3766
X4.6706Y-4.3609
T0
M30
