%TF.GenerationSoftware,KiCad,Pcbnew,6.0.2+dfsg-1*%
%TF.CreationDate,2023-01-27T10:21:13-05:00*%
%TF.ProjectId,qwiic-obd,71776969-632d-46f6-9264-2e6b69636164,rev?*%
%TF.SameCoordinates,Original*%
%TF.FileFunction,Legend,Bot*%
%TF.FilePolarity,Positive*%
%FSLAX46Y46*%
G04 Gerber Fmt 4.6, Leading zero omitted, Abs format (unit mm)*
G04 Created by KiCad (PCBNEW 6.0.2+dfsg-1) date 2023-01-27 10:21:13*
%MOMM*%
%LPD*%
G01*
G04 APERTURE LIST*
%ADD10C,0.127000*%
%ADD11C,0.150000*%
%ADD12C,0.203200*%
%ADD13C,0.120000*%
G04 APERTURE END LIST*
D10*
%TO.C,D105*%
X124964734Y-97293611D02*
X124964734Y-96684011D01*
X124819591Y-96684011D01*
X124732505Y-96713040D01*
X124674448Y-96771097D01*
X124645420Y-96829154D01*
X124616391Y-96945268D01*
X124616391Y-97032354D01*
X124645420Y-97148468D01*
X124674448Y-97206525D01*
X124732505Y-97264582D01*
X124819591Y-97293611D01*
X124964734Y-97293611D01*
X124035820Y-97293611D02*
X124384162Y-97293611D01*
X124209991Y-97293611D02*
X124209991Y-96684011D01*
X124268048Y-96771097D01*
X124326105Y-96829154D01*
X124384162Y-96858182D01*
X123658448Y-96684011D02*
X123600391Y-96684011D01*
X123542334Y-96713040D01*
X123513305Y-96742068D01*
X123484277Y-96800125D01*
X123455248Y-96916240D01*
X123455248Y-97061382D01*
X123484277Y-97177497D01*
X123513305Y-97235554D01*
X123542334Y-97264582D01*
X123600391Y-97293611D01*
X123658448Y-97293611D01*
X123716505Y-97264582D01*
X123745534Y-97235554D01*
X123774562Y-97177497D01*
X123803591Y-97061382D01*
X123803591Y-96916240D01*
X123774562Y-96800125D01*
X123745534Y-96742068D01*
X123716505Y-96713040D01*
X123658448Y-96684011D01*
X122903705Y-96684011D02*
X123193991Y-96684011D01*
X123223020Y-96974297D01*
X123193991Y-96945268D01*
X123135934Y-96916240D01*
X122990791Y-96916240D01*
X122932734Y-96945268D01*
X122903705Y-96974297D01*
X122874677Y-97032354D01*
X122874677Y-97177497D01*
X122903705Y-97235554D01*
X122932734Y-97264582D01*
X122990791Y-97293611D01*
X123135934Y-97293611D01*
X123193991Y-97264582D01*
X123223020Y-97235554D01*
%TO.C,D104*%
X113956011Y-105504705D02*
X113346411Y-105504705D01*
X113346411Y-105649848D01*
X113375440Y-105736934D01*
X113433497Y-105794991D01*
X113491554Y-105824020D01*
X113607668Y-105853048D01*
X113694754Y-105853048D01*
X113810868Y-105824020D01*
X113868925Y-105794991D01*
X113926982Y-105736934D01*
X113956011Y-105649848D01*
X113956011Y-105504705D01*
X113956011Y-106433620D02*
X113956011Y-106085277D01*
X113956011Y-106259448D02*
X113346411Y-106259448D01*
X113433497Y-106201391D01*
X113491554Y-106143334D01*
X113520582Y-106085277D01*
X113346411Y-106810991D02*
X113346411Y-106869048D01*
X113375440Y-106927105D01*
X113404468Y-106956134D01*
X113462525Y-106985162D01*
X113578640Y-107014191D01*
X113723782Y-107014191D01*
X113839897Y-106985162D01*
X113897954Y-106956134D01*
X113926982Y-106927105D01*
X113956011Y-106869048D01*
X113956011Y-106810991D01*
X113926982Y-106752934D01*
X113897954Y-106723905D01*
X113839897Y-106694877D01*
X113723782Y-106665848D01*
X113578640Y-106665848D01*
X113462525Y-106694877D01*
X113404468Y-106723905D01*
X113375440Y-106752934D01*
X113346411Y-106810991D01*
X113549611Y-107536705D02*
X113956011Y-107536705D01*
X113317382Y-107391562D02*
X113752811Y-107246420D01*
X113752811Y-107623791D01*
%TO.C,D103*%
X119604971Y-105014485D02*
X118995371Y-105014485D01*
X118995371Y-105159628D01*
X119024400Y-105246714D01*
X119082457Y-105304771D01*
X119140514Y-105333800D01*
X119256628Y-105362828D01*
X119343714Y-105362828D01*
X119459828Y-105333800D01*
X119517885Y-105304771D01*
X119575942Y-105246714D01*
X119604971Y-105159628D01*
X119604971Y-105014485D01*
X119604971Y-105943400D02*
X119604971Y-105595057D01*
X119604971Y-105769228D02*
X118995371Y-105769228D01*
X119082457Y-105711171D01*
X119140514Y-105653114D01*
X119169542Y-105595057D01*
X118995371Y-106320771D02*
X118995371Y-106378828D01*
X119024400Y-106436885D01*
X119053428Y-106465914D01*
X119111485Y-106494942D01*
X119227600Y-106523971D01*
X119372742Y-106523971D01*
X119488857Y-106494942D01*
X119546914Y-106465914D01*
X119575942Y-106436885D01*
X119604971Y-106378828D01*
X119604971Y-106320771D01*
X119575942Y-106262714D01*
X119546914Y-106233685D01*
X119488857Y-106204657D01*
X119372742Y-106175628D01*
X119227600Y-106175628D01*
X119111485Y-106204657D01*
X119053428Y-106233685D01*
X119024400Y-106262714D01*
X118995371Y-106320771D01*
X118995371Y-106727171D02*
X118995371Y-107104542D01*
X119227600Y-106901342D01*
X119227600Y-106988428D01*
X119256628Y-107046485D01*
X119285657Y-107075514D01*
X119343714Y-107104542D01*
X119488857Y-107104542D01*
X119546914Y-107075514D01*
X119575942Y-107046485D01*
X119604971Y-106988428D01*
X119604971Y-106814257D01*
X119575942Y-106756200D01*
X119546914Y-106727171D01*
%TO.C,D102*%
X115261571Y-97902485D02*
X114651971Y-97902485D01*
X114651971Y-98047628D01*
X114681000Y-98134714D01*
X114739057Y-98192771D01*
X114797114Y-98221800D01*
X114913228Y-98250828D01*
X115000314Y-98250828D01*
X115116428Y-98221800D01*
X115174485Y-98192771D01*
X115232542Y-98134714D01*
X115261571Y-98047628D01*
X115261571Y-97902485D01*
X115261571Y-98831400D02*
X115261571Y-98483057D01*
X115261571Y-98657228D02*
X114651971Y-98657228D01*
X114739057Y-98599171D01*
X114797114Y-98541114D01*
X114826142Y-98483057D01*
X114651971Y-99208771D02*
X114651971Y-99266828D01*
X114681000Y-99324885D01*
X114710028Y-99353914D01*
X114768085Y-99382942D01*
X114884200Y-99411971D01*
X115029342Y-99411971D01*
X115145457Y-99382942D01*
X115203514Y-99353914D01*
X115232542Y-99324885D01*
X115261571Y-99266828D01*
X115261571Y-99208771D01*
X115232542Y-99150714D01*
X115203514Y-99121685D01*
X115145457Y-99092657D01*
X115029342Y-99063628D01*
X114884200Y-99063628D01*
X114768085Y-99092657D01*
X114710028Y-99121685D01*
X114681000Y-99150714D01*
X114651971Y-99208771D01*
X114710028Y-99644200D02*
X114681000Y-99673228D01*
X114651971Y-99731285D01*
X114651971Y-99876428D01*
X114681000Y-99934485D01*
X114710028Y-99963514D01*
X114768085Y-99992542D01*
X114826142Y-99992542D01*
X114913228Y-99963514D01*
X115261571Y-99615171D01*
X115261571Y-99992542D01*
%TO.C,D101*%
X113697294Y-101631931D02*
X113697294Y-101022331D01*
X113552151Y-101022331D01*
X113465065Y-101051360D01*
X113407008Y-101109417D01*
X113377980Y-101167474D01*
X113348951Y-101283588D01*
X113348951Y-101370674D01*
X113377980Y-101486788D01*
X113407008Y-101544845D01*
X113465065Y-101602902D01*
X113552151Y-101631931D01*
X113697294Y-101631931D01*
X112768380Y-101631931D02*
X113116722Y-101631931D01*
X112942551Y-101631931D02*
X112942551Y-101022331D01*
X113000608Y-101109417D01*
X113058665Y-101167474D01*
X113116722Y-101196502D01*
X112391008Y-101022331D02*
X112332951Y-101022331D01*
X112274894Y-101051360D01*
X112245865Y-101080388D01*
X112216837Y-101138445D01*
X112187808Y-101254560D01*
X112187808Y-101399702D01*
X112216837Y-101515817D01*
X112245865Y-101573874D01*
X112274894Y-101602902D01*
X112332951Y-101631931D01*
X112391008Y-101631931D01*
X112449065Y-101602902D01*
X112478094Y-101573874D01*
X112507122Y-101515817D01*
X112536151Y-101399702D01*
X112536151Y-101254560D01*
X112507122Y-101138445D01*
X112478094Y-101080388D01*
X112449065Y-101051360D01*
X112391008Y-101022331D01*
X111607237Y-101631931D02*
X111955580Y-101631931D01*
X111781408Y-101631931D02*
X111781408Y-101022331D01*
X111839465Y-101109417D01*
X111897522Y-101167474D01*
X111955580Y-101196502D01*
D11*
%TO.C,R202*%
X133674380Y-111148952D02*
X133198190Y-110815619D01*
X133674380Y-110577523D02*
X132674380Y-110577523D01*
X132674380Y-110958476D01*
X132722000Y-111053714D01*
X132769619Y-111101333D01*
X132864857Y-111148952D01*
X133007714Y-111148952D01*
X133102952Y-111101333D01*
X133150571Y-111053714D01*
X133198190Y-110958476D01*
X133198190Y-110577523D01*
X132769619Y-111529904D02*
X132722000Y-111577523D01*
X132674380Y-111672761D01*
X132674380Y-111910857D01*
X132722000Y-112006095D01*
X132769619Y-112053714D01*
X132864857Y-112101333D01*
X132960095Y-112101333D01*
X133102952Y-112053714D01*
X133674380Y-111482285D01*
X133674380Y-112101333D01*
X132674380Y-112720380D02*
X132674380Y-112815619D01*
X132722000Y-112910857D01*
X132769619Y-112958476D01*
X132864857Y-113006095D01*
X133055333Y-113053714D01*
X133293428Y-113053714D01*
X133483904Y-113006095D01*
X133579142Y-112958476D01*
X133626761Y-112910857D01*
X133674380Y-112815619D01*
X133674380Y-112720380D01*
X133626761Y-112625142D01*
X133579142Y-112577523D01*
X133483904Y-112529904D01*
X133293428Y-112482285D01*
X133055333Y-112482285D01*
X132864857Y-112529904D01*
X132769619Y-112577523D01*
X132722000Y-112625142D01*
X132674380Y-112720380D01*
X132769619Y-113434666D02*
X132722000Y-113482285D01*
X132674380Y-113577523D01*
X132674380Y-113815619D01*
X132722000Y-113910857D01*
X132769619Y-113958476D01*
X132864857Y-114006095D01*
X132960095Y-114006095D01*
X133102952Y-113958476D01*
X133674380Y-113387047D01*
X133674380Y-114006095D01*
%TO.C,Q504*%
X111865619Y-73198880D02*
X111818000Y-73103642D01*
X111722761Y-73008404D01*
X111579904Y-72865547D01*
X111532285Y-72770309D01*
X111532285Y-72675071D01*
X111770380Y-72722690D02*
X111722761Y-72627452D01*
X111627523Y-72532214D01*
X111437047Y-72484595D01*
X111103714Y-72484595D01*
X110913238Y-72532214D01*
X110818000Y-72627452D01*
X110770380Y-72722690D01*
X110770380Y-72913166D01*
X110818000Y-73008404D01*
X110913238Y-73103642D01*
X111103714Y-73151261D01*
X111437047Y-73151261D01*
X111627523Y-73103642D01*
X111722761Y-73008404D01*
X111770380Y-72913166D01*
X111770380Y-72722690D01*
X110770380Y-74056023D02*
X110770380Y-73579833D01*
X111246571Y-73532214D01*
X111198952Y-73579833D01*
X111151333Y-73675071D01*
X111151333Y-73913166D01*
X111198952Y-74008404D01*
X111246571Y-74056023D01*
X111341809Y-74103642D01*
X111579904Y-74103642D01*
X111675142Y-74056023D01*
X111722761Y-74008404D01*
X111770380Y-73913166D01*
X111770380Y-73675071D01*
X111722761Y-73579833D01*
X111675142Y-73532214D01*
X110770380Y-74722690D02*
X110770380Y-74817928D01*
X110818000Y-74913166D01*
X110865619Y-74960785D01*
X110960857Y-75008404D01*
X111151333Y-75056023D01*
X111389428Y-75056023D01*
X111579904Y-75008404D01*
X111675142Y-74960785D01*
X111722761Y-74913166D01*
X111770380Y-74817928D01*
X111770380Y-74722690D01*
X111722761Y-74627452D01*
X111675142Y-74579833D01*
X111579904Y-74532214D01*
X111389428Y-74484595D01*
X111151333Y-74484595D01*
X110960857Y-74532214D01*
X110865619Y-74579833D01*
X110818000Y-74627452D01*
X110770380Y-74722690D01*
X111103714Y-75913166D02*
X111770380Y-75913166D01*
X110722761Y-75675071D02*
X111437047Y-75436976D01*
X111437047Y-76056023D01*
%TO.C,Q609*%
X160559619Y-94527619D02*
X160654857Y-94480000D01*
X160750095Y-94384761D01*
X160892952Y-94241904D01*
X160988190Y-94194285D01*
X161083428Y-94194285D01*
X161035809Y-94432380D02*
X161131047Y-94384761D01*
X161226285Y-94289523D01*
X161273904Y-94099047D01*
X161273904Y-93765714D01*
X161226285Y-93575238D01*
X161131047Y-93480000D01*
X161035809Y-93432380D01*
X160845333Y-93432380D01*
X160750095Y-93480000D01*
X160654857Y-93575238D01*
X160607238Y-93765714D01*
X160607238Y-94099047D01*
X160654857Y-94289523D01*
X160750095Y-94384761D01*
X160845333Y-94432380D01*
X161035809Y-94432380D01*
X159750095Y-93432380D02*
X159940571Y-93432380D01*
X160035809Y-93480000D01*
X160083428Y-93527619D01*
X160178666Y-93670476D01*
X160226285Y-93860952D01*
X160226285Y-94241904D01*
X160178666Y-94337142D01*
X160131047Y-94384761D01*
X160035809Y-94432380D01*
X159845333Y-94432380D01*
X159750095Y-94384761D01*
X159702476Y-94337142D01*
X159654857Y-94241904D01*
X159654857Y-94003809D01*
X159702476Y-93908571D01*
X159750095Y-93860952D01*
X159845333Y-93813333D01*
X160035809Y-93813333D01*
X160131047Y-93860952D01*
X160178666Y-93908571D01*
X160226285Y-94003809D01*
X159035809Y-93432380D02*
X158940571Y-93432380D01*
X158845333Y-93480000D01*
X158797714Y-93527619D01*
X158750095Y-93622857D01*
X158702476Y-93813333D01*
X158702476Y-94051428D01*
X158750095Y-94241904D01*
X158797714Y-94337142D01*
X158845333Y-94384761D01*
X158940571Y-94432380D01*
X159035809Y-94432380D01*
X159131047Y-94384761D01*
X159178666Y-94337142D01*
X159226285Y-94241904D01*
X159273904Y-94051428D01*
X159273904Y-93813333D01*
X159226285Y-93622857D01*
X159178666Y-93527619D01*
X159131047Y-93480000D01*
X159035809Y-93432380D01*
X158226285Y-94432380D02*
X158035809Y-94432380D01*
X157940571Y-94384761D01*
X157892952Y-94337142D01*
X157797714Y-94194285D01*
X157750095Y-94003809D01*
X157750095Y-93622857D01*
X157797714Y-93527619D01*
X157845333Y-93480000D01*
X157940571Y-93432380D01*
X158131047Y-93432380D01*
X158226285Y-93480000D01*
X158273904Y-93527619D01*
X158321523Y-93622857D01*
X158321523Y-93860952D01*
X158273904Y-93956190D01*
X158226285Y-94003809D01*
X158131047Y-94051428D01*
X157940571Y-94051428D01*
X157845333Y-94003809D01*
X157797714Y-93956190D01*
X157750095Y-93860952D01*
%TO.C,Q301*%
X140747619Y-119559619D02*
X140842857Y-119512000D01*
X140938095Y-119416761D01*
X141080952Y-119273904D01*
X141176190Y-119226285D01*
X141271428Y-119226285D01*
X141223809Y-119464380D02*
X141319047Y-119416761D01*
X141414285Y-119321523D01*
X141461904Y-119131047D01*
X141461904Y-118797714D01*
X141414285Y-118607238D01*
X141319047Y-118512000D01*
X141223809Y-118464380D01*
X141033333Y-118464380D01*
X140938095Y-118512000D01*
X140842857Y-118607238D01*
X140795238Y-118797714D01*
X140795238Y-119131047D01*
X140842857Y-119321523D01*
X140938095Y-119416761D01*
X141033333Y-119464380D01*
X141223809Y-119464380D01*
X140461904Y-118464380D02*
X139842857Y-118464380D01*
X140176190Y-118845333D01*
X140033333Y-118845333D01*
X139938095Y-118892952D01*
X139890476Y-118940571D01*
X139842857Y-119035809D01*
X139842857Y-119273904D01*
X139890476Y-119369142D01*
X139938095Y-119416761D01*
X140033333Y-119464380D01*
X140319047Y-119464380D01*
X140414285Y-119416761D01*
X140461904Y-119369142D01*
X139223809Y-118464380D02*
X139128571Y-118464380D01*
X139033333Y-118512000D01*
X138985714Y-118559619D01*
X138938095Y-118654857D01*
X138890476Y-118845333D01*
X138890476Y-119083428D01*
X138938095Y-119273904D01*
X138985714Y-119369142D01*
X139033333Y-119416761D01*
X139128571Y-119464380D01*
X139223809Y-119464380D01*
X139319047Y-119416761D01*
X139366666Y-119369142D01*
X139414285Y-119273904D01*
X139461904Y-119083428D01*
X139461904Y-118845333D01*
X139414285Y-118654857D01*
X139366666Y-118559619D01*
X139319047Y-118512000D01*
X139223809Y-118464380D01*
X137938095Y-119464380D02*
X138509523Y-119464380D01*
X138223809Y-119464380D02*
X138223809Y-118464380D01*
X138319047Y-118607238D01*
X138414285Y-118702476D01*
X138509523Y-118750095D01*
%TO.C,C302*%
X125960047Y-111609142D02*
X126007666Y-111656761D01*
X126150523Y-111704380D01*
X126245761Y-111704380D01*
X126388619Y-111656761D01*
X126483857Y-111561523D01*
X126531476Y-111466285D01*
X126579095Y-111275809D01*
X126579095Y-111132952D01*
X126531476Y-110942476D01*
X126483857Y-110847238D01*
X126388619Y-110752000D01*
X126245761Y-110704380D01*
X126150523Y-110704380D01*
X126007666Y-110752000D01*
X125960047Y-110799619D01*
X125626714Y-110704380D02*
X125007666Y-110704380D01*
X125341000Y-111085333D01*
X125198142Y-111085333D01*
X125102904Y-111132952D01*
X125055285Y-111180571D01*
X125007666Y-111275809D01*
X125007666Y-111513904D01*
X125055285Y-111609142D01*
X125102904Y-111656761D01*
X125198142Y-111704380D01*
X125483857Y-111704380D01*
X125579095Y-111656761D01*
X125626714Y-111609142D01*
X124388619Y-110704380D02*
X124293380Y-110704380D01*
X124198142Y-110752000D01*
X124150523Y-110799619D01*
X124102904Y-110894857D01*
X124055285Y-111085333D01*
X124055285Y-111323428D01*
X124102904Y-111513904D01*
X124150523Y-111609142D01*
X124198142Y-111656761D01*
X124293380Y-111704380D01*
X124388619Y-111704380D01*
X124483857Y-111656761D01*
X124531476Y-111609142D01*
X124579095Y-111513904D01*
X124626714Y-111323428D01*
X124626714Y-111085333D01*
X124579095Y-110894857D01*
X124531476Y-110799619D01*
X124483857Y-110752000D01*
X124388619Y-110704380D01*
X123674333Y-110799619D02*
X123626714Y-110752000D01*
X123531476Y-110704380D01*
X123293380Y-110704380D01*
X123198142Y-110752000D01*
X123150523Y-110799619D01*
X123102904Y-110894857D01*
X123102904Y-110990095D01*
X123150523Y-111132952D01*
X123721952Y-111704380D01*
X123102904Y-111704380D01*
%TO.C,R706*%
X159107047Y-123896380D02*
X159440380Y-123420190D01*
X159678476Y-123896380D02*
X159678476Y-122896380D01*
X159297523Y-122896380D01*
X159202285Y-122944000D01*
X159154666Y-122991619D01*
X159107047Y-123086857D01*
X159107047Y-123229714D01*
X159154666Y-123324952D01*
X159202285Y-123372571D01*
X159297523Y-123420190D01*
X159678476Y-123420190D01*
X158773714Y-122896380D02*
X158107047Y-122896380D01*
X158535619Y-123896380D01*
X157535619Y-122896380D02*
X157440380Y-122896380D01*
X157345142Y-122944000D01*
X157297523Y-122991619D01*
X157249904Y-123086857D01*
X157202285Y-123277333D01*
X157202285Y-123515428D01*
X157249904Y-123705904D01*
X157297523Y-123801142D01*
X157345142Y-123848761D01*
X157440380Y-123896380D01*
X157535619Y-123896380D01*
X157630857Y-123848761D01*
X157678476Y-123801142D01*
X157726095Y-123705904D01*
X157773714Y-123515428D01*
X157773714Y-123277333D01*
X157726095Y-123086857D01*
X157678476Y-122991619D01*
X157630857Y-122944000D01*
X157535619Y-122896380D01*
X156345142Y-122896380D02*
X156535619Y-122896380D01*
X156630857Y-122944000D01*
X156678476Y-122991619D01*
X156773714Y-123134476D01*
X156821333Y-123324952D01*
X156821333Y-123705904D01*
X156773714Y-123801142D01*
X156726095Y-123848761D01*
X156630857Y-123896380D01*
X156440380Y-123896380D01*
X156345142Y-123848761D01*
X156297523Y-123801142D01*
X156249904Y-123705904D01*
X156249904Y-123467809D01*
X156297523Y-123372571D01*
X156345142Y-123324952D01*
X156440380Y-123277333D01*
X156630857Y-123277333D01*
X156726095Y-123324952D01*
X156773714Y-123372571D01*
X156821333Y-123467809D01*
%TO.C,C506*%
X126087047Y-72845142D02*
X126134666Y-72892761D01*
X126277523Y-72940380D01*
X126372761Y-72940380D01*
X126515619Y-72892761D01*
X126610857Y-72797523D01*
X126658476Y-72702285D01*
X126706095Y-72511809D01*
X126706095Y-72368952D01*
X126658476Y-72178476D01*
X126610857Y-72083238D01*
X126515619Y-71988000D01*
X126372761Y-71940380D01*
X126277523Y-71940380D01*
X126134666Y-71988000D01*
X126087047Y-72035619D01*
X125182285Y-71940380D02*
X125658476Y-71940380D01*
X125706095Y-72416571D01*
X125658476Y-72368952D01*
X125563238Y-72321333D01*
X125325142Y-72321333D01*
X125229904Y-72368952D01*
X125182285Y-72416571D01*
X125134666Y-72511809D01*
X125134666Y-72749904D01*
X125182285Y-72845142D01*
X125229904Y-72892761D01*
X125325142Y-72940380D01*
X125563238Y-72940380D01*
X125658476Y-72892761D01*
X125706095Y-72845142D01*
X124515619Y-71940380D02*
X124420380Y-71940380D01*
X124325142Y-71988000D01*
X124277523Y-72035619D01*
X124229904Y-72130857D01*
X124182285Y-72321333D01*
X124182285Y-72559428D01*
X124229904Y-72749904D01*
X124277523Y-72845142D01*
X124325142Y-72892761D01*
X124420380Y-72940380D01*
X124515619Y-72940380D01*
X124610857Y-72892761D01*
X124658476Y-72845142D01*
X124706095Y-72749904D01*
X124753714Y-72559428D01*
X124753714Y-72321333D01*
X124706095Y-72130857D01*
X124658476Y-72035619D01*
X124610857Y-71988000D01*
X124515619Y-71940380D01*
X123325142Y-71940380D02*
X123515619Y-71940380D01*
X123610857Y-71988000D01*
X123658476Y-72035619D01*
X123753714Y-72178476D01*
X123801333Y-72368952D01*
X123801333Y-72749904D01*
X123753714Y-72845142D01*
X123706095Y-72892761D01*
X123610857Y-72940380D01*
X123420380Y-72940380D01*
X123325142Y-72892761D01*
X123277523Y-72845142D01*
X123229904Y-72749904D01*
X123229904Y-72511809D01*
X123277523Y-72416571D01*
X123325142Y-72368952D01*
X123420380Y-72321333D01*
X123610857Y-72321333D01*
X123706095Y-72368952D01*
X123753714Y-72416571D01*
X123801333Y-72511809D01*
%TO.C,R204*%
X128850380Y-104036952D02*
X128374190Y-103703619D01*
X128850380Y-103465523D02*
X127850380Y-103465523D01*
X127850380Y-103846476D01*
X127898000Y-103941714D01*
X127945619Y-103989333D01*
X128040857Y-104036952D01*
X128183714Y-104036952D01*
X128278952Y-103989333D01*
X128326571Y-103941714D01*
X128374190Y-103846476D01*
X128374190Y-103465523D01*
X127945619Y-104417904D02*
X127898000Y-104465523D01*
X127850380Y-104560761D01*
X127850380Y-104798857D01*
X127898000Y-104894095D01*
X127945619Y-104941714D01*
X128040857Y-104989333D01*
X128136095Y-104989333D01*
X128278952Y-104941714D01*
X128850380Y-104370285D01*
X128850380Y-104989333D01*
X127850380Y-105608380D02*
X127850380Y-105703619D01*
X127898000Y-105798857D01*
X127945619Y-105846476D01*
X128040857Y-105894095D01*
X128231333Y-105941714D01*
X128469428Y-105941714D01*
X128659904Y-105894095D01*
X128755142Y-105846476D01*
X128802761Y-105798857D01*
X128850380Y-105703619D01*
X128850380Y-105608380D01*
X128802761Y-105513142D01*
X128755142Y-105465523D01*
X128659904Y-105417904D01*
X128469428Y-105370285D01*
X128231333Y-105370285D01*
X128040857Y-105417904D01*
X127945619Y-105465523D01*
X127898000Y-105513142D01*
X127850380Y-105608380D01*
X128183714Y-106798857D02*
X128850380Y-106798857D01*
X127802761Y-106560761D02*
X128517047Y-106322666D01*
X128517047Y-106941714D01*
%TO.C,R206*%
X129135047Y-113610380D02*
X129468380Y-113134190D01*
X129706476Y-113610380D02*
X129706476Y-112610380D01*
X129325523Y-112610380D01*
X129230285Y-112658000D01*
X129182666Y-112705619D01*
X129135047Y-112800857D01*
X129135047Y-112943714D01*
X129182666Y-113038952D01*
X129230285Y-113086571D01*
X129325523Y-113134190D01*
X129706476Y-113134190D01*
X128754095Y-112705619D02*
X128706476Y-112658000D01*
X128611238Y-112610380D01*
X128373142Y-112610380D01*
X128277904Y-112658000D01*
X128230285Y-112705619D01*
X128182666Y-112800857D01*
X128182666Y-112896095D01*
X128230285Y-113038952D01*
X128801714Y-113610380D01*
X128182666Y-113610380D01*
X127563619Y-112610380D02*
X127468380Y-112610380D01*
X127373142Y-112658000D01*
X127325523Y-112705619D01*
X127277904Y-112800857D01*
X127230285Y-112991333D01*
X127230285Y-113229428D01*
X127277904Y-113419904D01*
X127325523Y-113515142D01*
X127373142Y-113562761D01*
X127468380Y-113610380D01*
X127563619Y-113610380D01*
X127658857Y-113562761D01*
X127706476Y-113515142D01*
X127754095Y-113419904D01*
X127801714Y-113229428D01*
X127801714Y-112991333D01*
X127754095Y-112800857D01*
X127706476Y-112705619D01*
X127658857Y-112658000D01*
X127563619Y-112610380D01*
X126373142Y-112610380D02*
X126563619Y-112610380D01*
X126658857Y-112658000D01*
X126706476Y-112705619D01*
X126801714Y-112848476D01*
X126849333Y-113038952D01*
X126849333Y-113419904D01*
X126801714Y-113515142D01*
X126754095Y-113562761D01*
X126658857Y-113610380D01*
X126468380Y-113610380D01*
X126373142Y-113562761D01*
X126325523Y-113515142D01*
X126277904Y-113419904D01*
X126277904Y-113181809D01*
X126325523Y-113086571D01*
X126373142Y-113038952D01*
X126468380Y-112991333D01*
X126658857Y-112991333D01*
X126754095Y-113038952D01*
X126801714Y-113086571D01*
X126849333Y-113181809D01*
%TO.C,R617*%
X163171047Y-77668380D02*
X163504380Y-77192190D01*
X163742476Y-77668380D02*
X163742476Y-76668380D01*
X163361523Y-76668380D01*
X163266285Y-76716000D01*
X163218666Y-76763619D01*
X163171047Y-76858857D01*
X163171047Y-77001714D01*
X163218666Y-77096952D01*
X163266285Y-77144571D01*
X163361523Y-77192190D01*
X163742476Y-77192190D01*
X162313904Y-76668380D02*
X162504380Y-76668380D01*
X162599619Y-76716000D01*
X162647238Y-76763619D01*
X162742476Y-76906476D01*
X162790095Y-77096952D01*
X162790095Y-77477904D01*
X162742476Y-77573142D01*
X162694857Y-77620761D01*
X162599619Y-77668380D01*
X162409142Y-77668380D01*
X162313904Y-77620761D01*
X162266285Y-77573142D01*
X162218666Y-77477904D01*
X162218666Y-77239809D01*
X162266285Y-77144571D01*
X162313904Y-77096952D01*
X162409142Y-77049333D01*
X162599619Y-77049333D01*
X162694857Y-77096952D01*
X162742476Y-77144571D01*
X162790095Y-77239809D01*
X161266285Y-77668380D02*
X161837714Y-77668380D01*
X161552000Y-77668380D02*
X161552000Y-76668380D01*
X161647238Y-76811238D01*
X161742476Y-76906476D01*
X161837714Y-76954095D01*
X160932952Y-76668380D02*
X160266285Y-76668380D01*
X160694857Y-77668380D01*
%TO.C,D604*%
X168062476Y-74112380D02*
X168062476Y-73112380D01*
X167824380Y-73112380D01*
X167681523Y-73160000D01*
X167586285Y-73255238D01*
X167538666Y-73350476D01*
X167491047Y-73540952D01*
X167491047Y-73683809D01*
X167538666Y-73874285D01*
X167586285Y-73969523D01*
X167681523Y-74064761D01*
X167824380Y-74112380D01*
X168062476Y-74112380D01*
X166633904Y-73112380D02*
X166824380Y-73112380D01*
X166919619Y-73160000D01*
X166967238Y-73207619D01*
X167062476Y-73350476D01*
X167110095Y-73540952D01*
X167110095Y-73921904D01*
X167062476Y-74017142D01*
X167014857Y-74064761D01*
X166919619Y-74112380D01*
X166729142Y-74112380D01*
X166633904Y-74064761D01*
X166586285Y-74017142D01*
X166538666Y-73921904D01*
X166538666Y-73683809D01*
X166586285Y-73588571D01*
X166633904Y-73540952D01*
X166729142Y-73493333D01*
X166919619Y-73493333D01*
X167014857Y-73540952D01*
X167062476Y-73588571D01*
X167110095Y-73683809D01*
X165919619Y-73112380D02*
X165824380Y-73112380D01*
X165729142Y-73160000D01*
X165681523Y-73207619D01*
X165633904Y-73302857D01*
X165586285Y-73493333D01*
X165586285Y-73731428D01*
X165633904Y-73921904D01*
X165681523Y-74017142D01*
X165729142Y-74064761D01*
X165824380Y-74112380D01*
X165919619Y-74112380D01*
X166014857Y-74064761D01*
X166062476Y-74017142D01*
X166110095Y-73921904D01*
X166157714Y-73731428D01*
X166157714Y-73493333D01*
X166110095Y-73302857D01*
X166062476Y-73207619D01*
X166014857Y-73160000D01*
X165919619Y-73112380D01*
X164729142Y-73445714D02*
X164729142Y-74112380D01*
X164967238Y-73064761D02*
X165205333Y-73779047D01*
X164586285Y-73779047D01*
%TO.C,C301*%
X128783142Y-120695452D02*
X128830761Y-120647833D01*
X128878380Y-120504976D01*
X128878380Y-120409738D01*
X128830761Y-120266880D01*
X128735523Y-120171642D01*
X128640285Y-120124023D01*
X128449809Y-120076404D01*
X128306952Y-120076404D01*
X128116476Y-120124023D01*
X128021238Y-120171642D01*
X127926000Y-120266880D01*
X127878380Y-120409738D01*
X127878380Y-120504976D01*
X127926000Y-120647833D01*
X127973619Y-120695452D01*
X127878380Y-121028785D02*
X127878380Y-121647833D01*
X128259333Y-121314500D01*
X128259333Y-121457357D01*
X128306952Y-121552595D01*
X128354571Y-121600214D01*
X128449809Y-121647833D01*
X128687904Y-121647833D01*
X128783142Y-121600214D01*
X128830761Y-121552595D01*
X128878380Y-121457357D01*
X128878380Y-121171642D01*
X128830761Y-121076404D01*
X128783142Y-121028785D01*
X127878380Y-122266880D02*
X127878380Y-122362119D01*
X127926000Y-122457357D01*
X127973619Y-122504976D01*
X128068857Y-122552595D01*
X128259333Y-122600214D01*
X128497428Y-122600214D01*
X128687904Y-122552595D01*
X128783142Y-122504976D01*
X128830761Y-122457357D01*
X128878380Y-122362119D01*
X128878380Y-122266880D01*
X128830761Y-122171642D01*
X128783142Y-122124023D01*
X128687904Y-122076404D01*
X128497428Y-122028785D01*
X128259333Y-122028785D01*
X128068857Y-122076404D01*
X127973619Y-122124023D01*
X127926000Y-122171642D01*
X127878380Y-122266880D01*
X128878380Y-123552595D02*
X128878380Y-122981166D01*
X128878380Y-123266880D02*
X127878380Y-123266880D01*
X128021238Y-123171642D01*
X128116476Y-123076404D01*
X128164095Y-122981166D01*
%TO.C,R504*%
X118943082Y-82698404D02*
X119276415Y-82222214D01*
X119514511Y-82698404D02*
X119514511Y-81698404D01*
X119133558Y-81698404D01*
X119038320Y-81746024D01*
X118990701Y-81793643D01*
X118943082Y-81888881D01*
X118943082Y-82031738D01*
X118990701Y-82126976D01*
X119038320Y-82174595D01*
X119133558Y-82222214D01*
X119514511Y-82222214D01*
X118038320Y-81698404D02*
X118514511Y-81698404D01*
X118562130Y-82174595D01*
X118514511Y-82126976D01*
X118419273Y-82079357D01*
X118181177Y-82079357D01*
X118085939Y-82126976D01*
X118038320Y-82174595D01*
X117990701Y-82269833D01*
X117990701Y-82507928D01*
X118038320Y-82603166D01*
X118085939Y-82650785D01*
X118181177Y-82698404D01*
X118419273Y-82698404D01*
X118514511Y-82650785D01*
X118562130Y-82603166D01*
X117371654Y-81698404D02*
X117276415Y-81698404D01*
X117181177Y-81746024D01*
X117133558Y-81793643D01*
X117085939Y-81888881D01*
X117038320Y-82079357D01*
X117038320Y-82317452D01*
X117085939Y-82507928D01*
X117133558Y-82603166D01*
X117181177Y-82650785D01*
X117276415Y-82698404D01*
X117371654Y-82698404D01*
X117466892Y-82650785D01*
X117514511Y-82603166D01*
X117562130Y-82507928D01*
X117609749Y-82317452D01*
X117609749Y-82079357D01*
X117562130Y-81888881D01*
X117514511Y-81793643D01*
X117466892Y-81746024D01*
X117371654Y-81698404D01*
X116181177Y-82031738D02*
X116181177Y-82698404D01*
X116419273Y-81650785D02*
X116657368Y-82365071D01*
X116038320Y-82365071D01*
%TO.C,R614*%
X168218380Y-75080952D02*
X167742190Y-74747619D01*
X168218380Y-74509523D02*
X167218380Y-74509523D01*
X167218380Y-74890476D01*
X167266000Y-74985714D01*
X167313619Y-75033333D01*
X167408857Y-75080952D01*
X167551714Y-75080952D01*
X167646952Y-75033333D01*
X167694571Y-74985714D01*
X167742190Y-74890476D01*
X167742190Y-74509523D01*
X167218380Y-75938095D02*
X167218380Y-75747619D01*
X167266000Y-75652380D01*
X167313619Y-75604761D01*
X167456476Y-75509523D01*
X167646952Y-75461904D01*
X168027904Y-75461904D01*
X168123142Y-75509523D01*
X168170761Y-75557142D01*
X168218380Y-75652380D01*
X168218380Y-75842857D01*
X168170761Y-75938095D01*
X168123142Y-75985714D01*
X168027904Y-76033333D01*
X167789809Y-76033333D01*
X167694571Y-75985714D01*
X167646952Y-75938095D01*
X167599333Y-75842857D01*
X167599333Y-75652380D01*
X167646952Y-75557142D01*
X167694571Y-75509523D01*
X167789809Y-75461904D01*
X168218380Y-76985714D02*
X168218380Y-76414285D01*
X168218380Y-76700000D02*
X167218380Y-76700000D01*
X167361238Y-76604761D01*
X167456476Y-76509523D01*
X167504095Y-76414285D01*
X167551714Y-77842857D02*
X168218380Y-77842857D01*
X167170761Y-77604761D02*
X167885047Y-77366666D01*
X167885047Y-77985714D01*
%TO.C,C604*%
X156567047Y-79253142D02*
X156614666Y-79300761D01*
X156757523Y-79348380D01*
X156852761Y-79348380D01*
X156995619Y-79300761D01*
X157090857Y-79205523D01*
X157138476Y-79110285D01*
X157186095Y-78919809D01*
X157186095Y-78776952D01*
X157138476Y-78586476D01*
X157090857Y-78491238D01*
X156995619Y-78396000D01*
X156852761Y-78348380D01*
X156757523Y-78348380D01*
X156614666Y-78396000D01*
X156567047Y-78443619D01*
X155709904Y-78348380D02*
X155900380Y-78348380D01*
X155995619Y-78396000D01*
X156043238Y-78443619D01*
X156138476Y-78586476D01*
X156186095Y-78776952D01*
X156186095Y-79157904D01*
X156138476Y-79253142D01*
X156090857Y-79300761D01*
X155995619Y-79348380D01*
X155805142Y-79348380D01*
X155709904Y-79300761D01*
X155662285Y-79253142D01*
X155614666Y-79157904D01*
X155614666Y-78919809D01*
X155662285Y-78824571D01*
X155709904Y-78776952D01*
X155805142Y-78729333D01*
X155995619Y-78729333D01*
X156090857Y-78776952D01*
X156138476Y-78824571D01*
X156186095Y-78919809D01*
X154995619Y-78348380D02*
X154900380Y-78348380D01*
X154805142Y-78396000D01*
X154757523Y-78443619D01*
X154709904Y-78538857D01*
X154662285Y-78729333D01*
X154662285Y-78967428D01*
X154709904Y-79157904D01*
X154757523Y-79253142D01*
X154805142Y-79300761D01*
X154900380Y-79348380D01*
X154995619Y-79348380D01*
X155090857Y-79300761D01*
X155138476Y-79253142D01*
X155186095Y-79157904D01*
X155233714Y-78967428D01*
X155233714Y-78729333D01*
X155186095Y-78538857D01*
X155138476Y-78443619D01*
X155090857Y-78396000D01*
X154995619Y-78348380D01*
X153805142Y-78681714D02*
X153805142Y-79348380D01*
X154043238Y-78300761D02*
X154281333Y-79015047D01*
X153662285Y-79015047D01*
%TO.C,D605*%
X155156476Y-73178380D02*
X155156476Y-72178380D01*
X154918380Y-72178380D01*
X154775523Y-72226000D01*
X154680285Y-72321238D01*
X154632666Y-72416476D01*
X154585047Y-72606952D01*
X154585047Y-72749809D01*
X154632666Y-72940285D01*
X154680285Y-73035523D01*
X154775523Y-73130761D01*
X154918380Y-73178380D01*
X155156476Y-73178380D01*
X153727904Y-72178380D02*
X153918380Y-72178380D01*
X154013619Y-72226000D01*
X154061238Y-72273619D01*
X154156476Y-72416476D01*
X154204095Y-72606952D01*
X154204095Y-72987904D01*
X154156476Y-73083142D01*
X154108857Y-73130761D01*
X154013619Y-73178380D01*
X153823142Y-73178380D01*
X153727904Y-73130761D01*
X153680285Y-73083142D01*
X153632666Y-72987904D01*
X153632666Y-72749809D01*
X153680285Y-72654571D01*
X153727904Y-72606952D01*
X153823142Y-72559333D01*
X154013619Y-72559333D01*
X154108857Y-72606952D01*
X154156476Y-72654571D01*
X154204095Y-72749809D01*
X153013619Y-72178380D02*
X152918380Y-72178380D01*
X152823142Y-72226000D01*
X152775523Y-72273619D01*
X152727904Y-72368857D01*
X152680285Y-72559333D01*
X152680285Y-72797428D01*
X152727904Y-72987904D01*
X152775523Y-73083142D01*
X152823142Y-73130761D01*
X152918380Y-73178380D01*
X153013619Y-73178380D01*
X153108857Y-73130761D01*
X153156476Y-73083142D01*
X153204095Y-72987904D01*
X153251714Y-72797428D01*
X153251714Y-72559333D01*
X153204095Y-72368857D01*
X153156476Y-72273619D01*
X153108857Y-72226000D01*
X153013619Y-72178380D01*
X151775523Y-72178380D02*
X152251714Y-72178380D01*
X152299333Y-72654571D01*
X152251714Y-72606952D01*
X152156476Y-72559333D01*
X151918380Y-72559333D01*
X151823142Y-72606952D01*
X151775523Y-72654571D01*
X151727904Y-72749809D01*
X151727904Y-72987904D01*
X151775523Y-73083142D01*
X151823142Y-73130761D01*
X151918380Y-73178380D01*
X152156476Y-73178380D01*
X152251714Y-73130761D01*
X152299333Y-73083142D01*
%TO.C,R601*%
X154535047Y-93542380D02*
X154868380Y-93066190D01*
X155106476Y-93542380D02*
X155106476Y-92542380D01*
X154725523Y-92542380D01*
X154630285Y-92590000D01*
X154582666Y-92637619D01*
X154535047Y-92732857D01*
X154535047Y-92875714D01*
X154582666Y-92970952D01*
X154630285Y-93018571D01*
X154725523Y-93066190D01*
X155106476Y-93066190D01*
X153677904Y-92542380D02*
X153868380Y-92542380D01*
X153963619Y-92590000D01*
X154011238Y-92637619D01*
X154106476Y-92780476D01*
X154154095Y-92970952D01*
X154154095Y-93351904D01*
X154106476Y-93447142D01*
X154058857Y-93494761D01*
X153963619Y-93542380D01*
X153773142Y-93542380D01*
X153677904Y-93494761D01*
X153630285Y-93447142D01*
X153582666Y-93351904D01*
X153582666Y-93113809D01*
X153630285Y-93018571D01*
X153677904Y-92970952D01*
X153773142Y-92923333D01*
X153963619Y-92923333D01*
X154058857Y-92970952D01*
X154106476Y-93018571D01*
X154154095Y-93113809D01*
X152963619Y-92542380D02*
X152868380Y-92542380D01*
X152773142Y-92590000D01*
X152725523Y-92637619D01*
X152677904Y-92732857D01*
X152630285Y-92923333D01*
X152630285Y-93161428D01*
X152677904Y-93351904D01*
X152725523Y-93447142D01*
X152773142Y-93494761D01*
X152868380Y-93542380D01*
X152963619Y-93542380D01*
X153058857Y-93494761D01*
X153106476Y-93447142D01*
X153154095Y-93351904D01*
X153201714Y-93161428D01*
X153201714Y-92923333D01*
X153154095Y-92732857D01*
X153106476Y-92637619D01*
X153058857Y-92590000D01*
X152963619Y-92542380D01*
X151677904Y-93542380D02*
X152249333Y-93542380D01*
X151963619Y-93542380D02*
X151963619Y-92542380D01*
X152058857Y-92685238D01*
X152154095Y-92780476D01*
X152249333Y-92828095D01*
%TO.C,D701*%
X168092380Y-116677645D02*
X167092380Y-116677645D01*
X167092380Y-116915741D01*
X167140000Y-117058598D01*
X167235238Y-117153836D01*
X167330476Y-117201455D01*
X167520952Y-117249074D01*
X167663809Y-117249074D01*
X167854285Y-117201455D01*
X167949523Y-117153836D01*
X168044761Y-117058598D01*
X168092380Y-116915741D01*
X168092380Y-116677645D01*
X167092380Y-117582407D02*
X167092380Y-118249074D01*
X168092380Y-117820502D01*
X167092380Y-118820502D02*
X167092380Y-118915741D01*
X167140000Y-119010979D01*
X167187619Y-119058598D01*
X167282857Y-119106217D01*
X167473333Y-119153836D01*
X167711428Y-119153836D01*
X167901904Y-119106217D01*
X167997142Y-119058598D01*
X168044761Y-119010979D01*
X168092380Y-118915741D01*
X168092380Y-118820502D01*
X168044761Y-118725264D01*
X167997142Y-118677645D01*
X167901904Y-118630026D01*
X167711428Y-118582407D01*
X167473333Y-118582407D01*
X167282857Y-118630026D01*
X167187619Y-118677645D01*
X167140000Y-118725264D01*
X167092380Y-118820502D01*
X168092380Y-120106217D02*
X168092380Y-119534788D01*
X168092380Y-119820502D02*
X167092380Y-119820502D01*
X167235238Y-119725264D01*
X167330476Y-119630026D01*
X167378095Y-119534788D01*
%TO.C,R505*%
X121102380Y-74921952D02*
X120626190Y-74588619D01*
X121102380Y-74350523D02*
X120102380Y-74350523D01*
X120102380Y-74731476D01*
X120150000Y-74826714D01*
X120197619Y-74874333D01*
X120292857Y-74921952D01*
X120435714Y-74921952D01*
X120530952Y-74874333D01*
X120578571Y-74826714D01*
X120626190Y-74731476D01*
X120626190Y-74350523D01*
X120102380Y-75826714D02*
X120102380Y-75350523D01*
X120578571Y-75302904D01*
X120530952Y-75350523D01*
X120483333Y-75445761D01*
X120483333Y-75683857D01*
X120530952Y-75779095D01*
X120578571Y-75826714D01*
X120673809Y-75874333D01*
X120911904Y-75874333D01*
X121007142Y-75826714D01*
X121054761Y-75779095D01*
X121102380Y-75683857D01*
X121102380Y-75445761D01*
X121054761Y-75350523D01*
X121007142Y-75302904D01*
X120102380Y-76493380D02*
X120102380Y-76588619D01*
X120150000Y-76683857D01*
X120197619Y-76731476D01*
X120292857Y-76779095D01*
X120483333Y-76826714D01*
X120721428Y-76826714D01*
X120911904Y-76779095D01*
X121007142Y-76731476D01*
X121054761Y-76683857D01*
X121102380Y-76588619D01*
X121102380Y-76493380D01*
X121054761Y-76398142D01*
X121007142Y-76350523D01*
X120911904Y-76302904D01*
X120721428Y-76255285D01*
X120483333Y-76255285D01*
X120292857Y-76302904D01*
X120197619Y-76350523D01*
X120150000Y-76398142D01*
X120102380Y-76493380D01*
X120102380Y-77731476D02*
X120102380Y-77255285D01*
X120578571Y-77207666D01*
X120530952Y-77255285D01*
X120483333Y-77350523D01*
X120483333Y-77588619D01*
X120530952Y-77683857D01*
X120578571Y-77731476D01*
X120673809Y-77779095D01*
X120911904Y-77779095D01*
X121007142Y-77731476D01*
X121054761Y-77683857D01*
X121102380Y-77588619D01*
X121102380Y-77350523D01*
X121054761Y-77255285D01*
X121007142Y-77207666D01*
%TO.C,R502*%
X129659047Y-89629874D02*
X129992380Y-89153684D01*
X130230476Y-89629874D02*
X130230476Y-88629874D01*
X129849523Y-88629874D01*
X129754285Y-88677494D01*
X129706666Y-88725113D01*
X129659047Y-88820351D01*
X129659047Y-88963208D01*
X129706666Y-89058446D01*
X129754285Y-89106065D01*
X129849523Y-89153684D01*
X130230476Y-89153684D01*
X128754285Y-88629874D02*
X129230476Y-88629874D01*
X129278095Y-89106065D01*
X129230476Y-89058446D01*
X129135238Y-89010827D01*
X128897142Y-89010827D01*
X128801904Y-89058446D01*
X128754285Y-89106065D01*
X128706666Y-89201303D01*
X128706666Y-89439398D01*
X128754285Y-89534636D01*
X128801904Y-89582255D01*
X128897142Y-89629874D01*
X129135238Y-89629874D01*
X129230476Y-89582255D01*
X129278095Y-89534636D01*
X128087619Y-88629874D02*
X127992380Y-88629874D01*
X127897142Y-88677494D01*
X127849523Y-88725113D01*
X127801904Y-88820351D01*
X127754285Y-89010827D01*
X127754285Y-89248922D01*
X127801904Y-89439398D01*
X127849523Y-89534636D01*
X127897142Y-89582255D01*
X127992380Y-89629874D01*
X128087619Y-89629874D01*
X128182857Y-89582255D01*
X128230476Y-89534636D01*
X128278095Y-89439398D01*
X128325714Y-89248922D01*
X128325714Y-89010827D01*
X128278095Y-88820351D01*
X128230476Y-88725113D01*
X128182857Y-88677494D01*
X128087619Y-88629874D01*
X127373333Y-88725113D02*
X127325714Y-88677494D01*
X127230476Y-88629874D01*
X126992380Y-88629874D01*
X126897142Y-88677494D01*
X126849523Y-88725113D01*
X126801904Y-88820351D01*
X126801904Y-88915589D01*
X126849523Y-89058446D01*
X127420952Y-89629874D01*
X126801904Y-89629874D01*
%TO.C,R702*%
X154535047Y-115768380D02*
X154868380Y-115292190D01*
X155106476Y-115768380D02*
X155106476Y-114768380D01*
X154725523Y-114768380D01*
X154630285Y-114816000D01*
X154582666Y-114863619D01*
X154535047Y-114958857D01*
X154535047Y-115101714D01*
X154582666Y-115196952D01*
X154630285Y-115244571D01*
X154725523Y-115292190D01*
X155106476Y-115292190D01*
X154201714Y-114768380D02*
X153535047Y-114768380D01*
X153963619Y-115768380D01*
X152963619Y-114768380D02*
X152868380Y-114768380D01*
X152773142Y-114816000D01*
X152725523Y-114863619D01*
X152677904Y-114958857D01*
X152630285Y-115149333D01*
X152630285Y-115387428D01*
X152677904Y-115577904D01*
X152725523Y-115673142D01*
X152773142Y-115720761D01*
X152868380Y-115768380D01*
X152963619Y-115768380D01*
X153058857Y-115720761D01*
X153106476Y-115673142D01*
X153154095Y-115577904D01*
X153201714Y-115387428D01*
X153201714Y-115149333D01*
X153154095Y-114958857D01*
X153106476Y-114863619D01*
X153058857Y-114816000D01*
X152963619Y-114768380D01*
X152249333Y-114863619D02*
X152201714Y-114816000D01*
X152106476Y-114768380D01*
X151868380Y-114768380D01*
X151773142Y-114816000D01*
X151725523Y-114863619D01*
X151677904Y-114958857D01*
X151677904Y-115054095D01*
X151725523Y-115196952D01*
X152296952Y-115768380D01*
X151677904Y-115768380D01*
%TO.C,C801*%
X154027047Y-111609142D02*
X154074666Y-111656761D01*
X154217523Y-111704380D01*
X154312761Y-111704380D01*
X154455619Y-111656761D01*
X154550857Y-111561523D01*
X154598476Y-111466285D01*
X154646095Y-111275809D01*
X154646095Y-111132952D01*
X154598476Y-110942476D01*
X154550857Y-110847238D01*
X154455619Y-110752000D01*
X154312761Y-110704380D01*
X154217523Y-110704380D01*
X154074666Y-110752000D01*
X154027047Y-110799619D01*
X153455619Y-111132952D02*
X153550857Y-111085333D01*
X153598476Y-111037714D01*
X153646095Y-110942476D01*
X153646095Y-110894857D01*
X153598476Y-110799619D01*
X153550857Y-110752000D01*
X153455619Y-110704380D01*
X153265142Y-110704380D01*
X153169904Y-110752000D01*
X153122285Y-110799619D01*
X153074666Y-110894857D01*
X153074666Y-110942476D01*
X153122285Y-111037714D01*
X153169904Y-111085333D01*
X153265142Y-111132952D01*
X153455619Y-111132952D01*
X153550857Y-111180571D01*
X153598476Y-111228190D01*
X153646095Y-111323428D01*
X153646095Y-111513904D01*
X153598476Y-111609142D01*
X153550857Y-111656761D01*
X153455619Y-111704380D01*
X153265142Y-111704380D01*
X153169904Y-111656761D01*
X153122285Y-111609142D01*
X153074666Y-111513904D01*
X153074666Y-111323428D01*
X153122285Y-111228190D01*
X153169904Y-111180571D01*
X153265142Y-111132952D01*
X152455619Y-110704380D02*
X152360380Y-110704380D01*
X152265142Y-110752000D01*
X152217523Y-110799619D01*
X152169904Y-110894857D01*
X152122285Y-111085333D01*
X152122285Y-111323428D01*
X152169904Y-111513904D01*
X152217523Y-111609142D01*
X152265142Y-111656761D01*
X152360380Y-111704380D01*
X152455619Y-111704380D01*
X152550857Y-111656761D01*
X152598476Y-111609142D01*
X152646095Y-111513904D01*
X152693714Y-111323428D01*
X152693714Y-111085333D01*
X152646095Y-110894857D01*
X152598476Y-110799619D01*
X152550857Y-110752000D01*
X152455619Y-110704380D01*
X151169904Y-111704380D02*
X151741333Y-111704380D01*
X151455619Y-111704380D02*
X151455619Y-110704380D01*
X151550857Y-110847238D01*
X151646095Y-110942476D01*
X151741333Y-110990095D01*
%TO.C,R303*%
X133199047Y-123976380D02*
X133532380Y-123500190D01*
X133770476Y-123976380D02*
X133770476Y-122976380D01*
X133389523Y-122976380D01*
X133294285Y-123024000D01*
X133246666Y-123071619D01*
X133199047Y-123166857D01*
X133199047Y-123309714D01*
X133246666Y-123404952D01*
X133294285Y-123452571D01*
X133389523Y-123500190D01*
X133770476Y-123500190D01*
X132865714Y-122976380D02*
X132246666Y-122976380D01*
X132580000Y-123357333D01*
X132437142Y-123357333D01*
X132341904Y-123404952D01*
X132294285Y-123452571D01*
X132246666Y-123547809D01*
X132246666Y-123785904D01*
X132294285Y-123881142D01*
X132341904Y-123928761D01*
X132437142Y-123976380D01*
X132722857Y-123976380D01*
X132818095Y-123928761D01*
X132865714Y-123881142D01*
X131627619Y-122976380D02*
X131532380Y-122976380D01*
X131437142Y-123024000D01*
X131389523Y-123071619D01*
X131341904Y-123166857D01*
X131294285Y-123357333D01*
X131294285Y-123595428D01*
X131341904Y-123785904D01*
X131389523Y-123881142D01*
X131437142Y-123928761D01*
X131532380Y-123976380D01*
X131627619Y-123976380D01*
X131722857Y-123928761D01*
X131770476Y-123881142D01*
X131818095Y-123785904D01*
X131865714Y-123595428D01*
X131865714Y-123357333D01*
X131818095Y-123166857D01*
X131770476Y-123071619D01*
X131722857Y-123024000D01*
X131627619Y-122976380D01*
X130960952Y-122976380D02*
X130341904Y-122976380D01*
X130675238Y-123357333D01*
X130532380Y-123357333D01*
X130437142Y-123404952D01*
X130389523Y-123452571D01*
X130341904Y-123547809D01*
X130341904Y-123785904D01*
X130389523Y-123881142D01*
X130437142Y-123928761D01*
X130532380Y-123976380D01*
X130818095Y-123976380D01*
X130913333Y-123928761D01*
X130960952Y-123881142D01*
%TO.C,R616*%
X165044380Y-88288952D02*
X164568190Y-87955619D01*
X165044380Y-87717523D02*
X164044380Y-87717523D01*
X164044380Y-88098476D01*
X164092000Y-88193714D01*
X164139619Y-88241333D01*
X164234857Y-88288952D01*
X164377714Y-88288952D01*
X164472952Y-88241333D01*
X164520571Y-88193714D01*
X164568190Y-88098476D01*
X164568190Y-87717523D01*
X164044380Y-89146095D02*
X164044380Y-88955619D01*
X164092000Y-88860380D01*
X164139619Y-88812761D01*
X164282476Y-88717523D01*
X164472952Y-88669904D01*
X164853904Y-88669904D01*
X164949142Y-88717523D01*
X164996761Y-88765142D01*
X165044380Y-88860380D01*
X165044380Y-89050857D01*
X164996761Y-89146095D01*
X164949142Y-89193714D01*
X164853904Y-89241333D01*
X164615809Y-89241333D01*
X164520571Y-89193714D01*
X164472952Y-89146095D01*
X164425333Y-89050857D01*
X164425333Y-88860380D01*
X164472952Y-88765142D01*
X164520571Y-88717523D01*
X164615809Y-88669904D01*
X165044380Y-90193714D02*
X165044380Y-89622285D01*
X165044380Y-89908000D02*
X164044380Y-89908000D01*
X164187238Y-89812761D01*
X164282476Y-89717523D01*
X164330095Y-89622285D01*
X164044380Y-91050857D02*
X164044380Y-90860380D01*
X164092000Y-90765142D01*
X164139619Y-90717523D01*
X164282476Y-90622285D01*
X164472952Y-90574666D01*
X164853904Y-90574666D01*
X164949142Y-90622285D01*
X164996761Y-90669904D01*
X165044380Y-90765142D01*
X165044380Y-90955619D01*
X164996761Y-91050857D01*
X164949142Y-91098476D01*
X164853904Y-91146095D01*
X164615809Y-91146095D01*
X164520571Y-91098476D01*
X164472952Y-91050857D01*
X164425333Y-90955619D01*
X164425333Y-90765142D01*
X164472952Y-90669904D01*
X164520571Y-90622285D01*
X164615809Y-90574666D01*
%TO.C,D601*%
X153868380Y-82129523D02*
X152868380Y-82129523D01*
X152868380Y-82367619D01*
X152916000Y-82510476D01*
X153011238Y-82605714D01*
X153106476Y-82653333D01*
X153296952Y-82700952D01*
X153439809Y-82700952D01*
X153630285Y-82653333D01*
X153725523Y-82605714D01*
X153820761Y-82510476D01*
X153868380Y-82367619D01*
X153868380Y-82129523D01*
X152868380Y-83558095D02*
X152868380Y-83367619D01*
X152916000Y-83272380D01*
X152963619Y-83224761D01*
X153106476Y-83129523D01*
X153296952Y-83081904D01*
X153677904Y-83081904D01*
X153773142Y-83129523D01*
X153820761Y-83177142D01*
X153868380Y-83272380D01*
X153868380Y-83462857D01*
X153820761Y-83558095D01*
X153773142Y-83605714D01*
X153677904Y-83653333D01*
X153439809Y-83653333D01*
X153344571Y-83605714D01*
X153296952Y-83558095D01*
X153249333Y-83462857D01*
X153249333Y-83272380D01*
X153296952Y-83177142D01*
X153344571Y-83129523D01*
X153439809Y-83081904D01*
X152868380Y-84272380D02*
X152868380Y-84367619D01*
X152916000Y-84462857D01*
X152963619Y-84510476D01*
X153058857Y-84558095D01*
X153249333Y-84605714D01*
X153487428Y-84605714D01*
X153677904Y-84558095D01*
X153773142Y-84510476D01*
X153820761Y-84462857D01*
X153868380Y-84367619D01*
X153868380Y-84272380D01*
X153820761Y-84177142D01*
X153773142Y-84129523D01*
X153677904Y-84081904D01*
X153487428Y-84034285D01*
X153249333Y-84034285D01*
X153058857Y-84081904D01*
X152963619Y-84129523D01*
X152916000Y-84177142D01*
X152868380Y-84272380D01*
X153868380Y-85558095D02*
X153868380Y-84986666D01*
X153868380Y-85272380D02*
X152868380Y-85272380D01*
X153011238Y-85177142D01*
X153106476Y-85081904D01*
X153154095Y-84986666D01*
%TO.C,C507*%
X113768047Y-78970142D02*
X113815666Y-79017761D01*
X113958523Y-79065380D01*
X114053761Y-79065380D01*
X114196619Y-79017761D01*
X114291857Y-78922523D01*
X114339476Y-78827285D01*
X114387095Y-78636809D01*
X114387095Y-78493952D01*
X114339476Y-78303476D01*
X114291857Y-78208238D01*
X114196619Y-78113000D01*
X114053761Y-78065380D01*
X113958523Y-78065380D01*
X113815666Y-78113000D01*
X113768047Y-78160619D01*
X112863285Y-78065380D02*
X113339476Y-78065380D01*
X113387095Y-78541571D01*
X113339476Y-78493952D01*
X113244238Y-78446333D01*
X113006142Y-78446333D01*
X112910904Y-78493952D01*
X112863285Y-78541571D01*
X112815666Y-78636809D01*
X112815666Y-78874904D01*
X112863285Y-78970142D01*
X112910904Y-79017761D01*
X113006142Y-79065380D01*
X113244238Y-79065380D01*
X113339476Y-79017761D01*
X113387095Y-78970142D01*
X112196619Y-78065380D02*
X112101380Y-78065380D01*
X112006142Y-78113000D01*
X111958523Y-78160619D01*
X111910904Y-78255857D01*
X111863285Y-78446333D01*
X111863285Y-78684428D01*
X111910904Y-78874904D01*
X111958523Y-78970142D01*
X112006142Y-79017761D01*
X112101380Y-79065380D01*
X112196619Y-79065380D01*
X112291857Y-79017761D01*
X112339476Y-78970142D01*
X112387095Y-78874904D01*
X112434714Y-78684428D01*
X112434714Y-78446333D01*
X112387095Y-78255857D01*
X112339476Y-78160619D01*
X112291857Y-78113000D01*
X112196619Y-78065380D01*
X111529952Y-78065380D02*
X110863285Y-78065380D01*
X111291857Y-79065380D01*
%TO.C,R701*%
X158440380Y-115228952D02*
X157964190Y-114895619D01*
X158440380Y-114657523D02*
X157440380Y-114657523D01*
X157440380Y-115038476D01*
X157488000Y-115133714D01*
X157535619Y-115181333D01*
X157630857Y-115228952D01*
X157773714Y-115228952D01*
X157868952Y-115181333D01*
X157916571Y-115133714D01*
X157964190Y-115038476D01*
X157964190Y-114657523D01*
X157440380Y-115562285D02*
X157440380Y-116228952D01*
X158440380Y-115800380D01*
X157440380Y-116800380D02*
X157440380Y-116895619D01*
X157488000Y-116990857D01*
X157535619Y-117038476D01*
X157630857Y-117086095D01*
X157821333Y-117133714D01*
X158059428Y-117133714D01*
X158249904Y-117086095D01*
X158345142Y-117038476D01*
X158392761Y-116990857D01*
X158440380Y-116895619D01*
X158440380Y-116800380D01*
X158392761Y-116705142D01*
X158345142Y-116657523D01*
X158249904Y-116609904D01*
X158059428Y-116562285D01*
X157821333Y-116562285D01*
X157630857Y-116609904D01*
X157535619Y-116657523D01*
X157488000Y-116705142D01*
X157440380Y-116800380D01*
X158440380Y-118086095D02*
X158440380Y-117514666D01*
X158440380Y-117800380D02*
X157440380Y-117800380D01*
X157583238Y-117705142D01*
X157678476Y-117609904D01*
X157726095Y-117514666D01*
%TO.C,R703*%
X147423047Y-120848380D02*
X147756380Y-120372190D01*
X147994476Y-120848380D02*
X147994476Y-119848380D01*
X147613523Y-119848380D01*
X147518285Y-119896000D01*
X147470666Y-119943619D01*
X147423047Y-120038857D01*
X147423047Y-120181714D01*
X147470666Y-120276952D01*
X147518285Y-120324571D01*
X147613523Y-120372190D01*
X147994476Y-120372190D01*
X147089714Y-119848380D02*
X146423047Y-119848380D01*
X146851619Y-120848380D01*
X145851619Y-119848380D02*
X145756380Y-119848380D01*
X145661142Y-119896000D01*
X145613523Y-119943619D01*
X145565904Y-120038857D01*
X145518285Y-120229333D01*
X145518285Y-120467428D01*
X145565904Y-120657904D01*
X145613523Y-120753142D01*
X145661142Y-120800761D01*
X145756380Y-120848380D01*
X145851619Y-120848380D01*
X145946857Y-120800761D01*
X145994476Y-120753142D01*
X146042095Y-120657904D01*
X146089714Y-120467428D01*
X146089714Y-120229333D01*
X146042095Y-120038857D01*
X145994476Y-119943619D01*
X145946857Y-119896000D01*
X145851619Y-119848380D01*
X145184952Y-119848380D02*
X144565904Y-119848380D01*
X144899238Y-120229333D01*
X144756380Y-120229333D01*
X144661142Y-120276952D01*
X144613523Y-120324571D01*
X144565904Y-120419809D01*
X144565904Y-120657904D01*
X144613523Y-120753142D01*
X144661142Y-120800761D01*
X144756380Y-120848380D01*
X145042095Y-120848380D01*
X145137333Y-120800761D01*
X145184952Y-120753142D01*
%TO.C,C505*%
X131377201Y-84537517D02*
X131424820Y-84489898D01*
X131472439Y-84347041D01*
X131472439Y-84251803D01*
X131424820Y-84108945D01*
X131329582Y-84013707D01*
X131234344Y-83966088D01*
X131043868Y-83918469D01*
X130901011Y-83918469D01*
X130710535Y-83966088D01*
X130615297Y-84013707D01*
X130520059Y-84108945D01*
X130472439Y-84251803D01*
X130472439Y-84347041D01*
X130520059Y-84489898D01*
X130567678Y-84537517D01*
X130472439Y-85442279D02*
X130472439Y-84966088D01*
X130948630Y-84918469D01*
X130901011Y-84966088D01*
X130853392Y-85061326D01*
X130853392Y-85299422D01*
X130901011Y-85394660D01*
X130948630Y-85442279D01*
X131043868Y-85489898D01*
X131281963Y-85489898D01*
X131377201Y-85442279D01*
X131424820Y-85394660D01*
X131472439Y-85299422D01*
X131472439Y-85061326D01*
X131424820Y-84966088D01*
X131377201Y-84918469D01*
X130472439Y-86108945D02*
X130472439Y-86204184D01*
X130520059Y-86299422D01*
X130567678Y-86347041D01*
X130662916Y-86394660D01*
X130853392Y-86442279D01*
X131091487Y-86442279D01*
X131281963Y-86394660D01*
X131377201Y-86347041D01*
X131424820Y-86299422D01*
X131472439Y-86204184D01*
X131472439Y-86108945D01*
X131424820Y-86013707D01*
X131377201Y-85966088D01*
X131281963Y-85918469D01*
X131091487Y-85870850D01*
X130853392Y-85870850D01*
X130662916Y-85918469D01*
X130567678Y-85966088D01*
X130520059Y-86013707D01*
X130472439Y-86108945D01*
X130472439Y-87347041D02*
X130472439Y-86870850D01*
X130948630Y-86823231D01*
X130901011Y-86870850D01*
X130853392Y-86966088D01*
X130853392Y-87204184D01*
X130901011Y-87299422D01*
X130948630Y-87347041D01*
X131043868Y-87394660D01*
X131281963Y-87394660D01*
X131377201Y-87347041D01*
X131424820Y-87299422D01*
X131472439Y-87204184D01*
X131472439Y-86966088D01*
X131424820Y-86870850D01*
X131377201Y-86823231D01*
%TO.C,R609*%
X170283047Y-87954380D02*
X170616380Y-87478190D01*
X170854476Y-87954380D02*
X170854476Y-86954380D01*
X170473523Y-86954380D01*
X170378285Y-87002000D01*
X170330666Y-87049619D01*
X170283047Y-87144857D01*
X170283047Y-87287714D01*
X170330666Y-87382952D01*
X170378285Y-87430571D01*
X170473523Y-87478190D01*
X170854476Y-87478190D01*
X169425904Y-86954380D02*
X169616380Y-86954380D01*
X169711619Y-87002000D01*
X169759238Y-87049619D01*
X169854476Y-87192476D01*
X169902095Y-87382952D01*
X169902095Y-87763904D01*
X169854476Y-87859142D01*
X169806857Y-87906761D01*
X169711619Y-87954380D01*
X169521142Y-87954380D01*
X169425904Y-87906761D01*
X169378285Y-87859142D01*
X169330666Y-87763904D01*
X169330666Y-87525809D01*
X169378285Y-87430571D01*
X169425904Y-87382952D01*
X169521142Y-87335333D01*
X169711619Y-87335333D01*
X169806857Y-87382952D01*
X169854476Y-87430571D01*
X169902095Y-87525809D01*
X168711619Y-86954380D02*
X168616380Y-86954380D01*
X168521142Y-87002000D01*
X168473523Y-87049619D01*
X168425904Y-87144857D01*
X168378285Y-87335333D01*
X168378285Y-87573428D01*
X168425904Y-87763904D01*
X168473523Y-87859142D01*
X168521142Y-87906761D01*
X168616380Y-87954380D01*
X168711619Y-87954380D01*
X168806857Y-87906761D01*
X168854476Y-87859142D01*
X168902095Y-87763904D01*
X168949714Y-87573428D01*
X168949714Y-87335333D01*
X168902095Y-87144857D01*
X168854476Y-87049619D01*
X168806857Y-87002000D01*
X168711619Y-86954380D01*
X167902095Y-87954380D02*
X167711619Y-87954380D01*
X167616380Y-87906761D01*
X167568761Y-87859142D01*
X167473523Y-87716285D01*
X167425904Y-87525809D01*
X167425904Y-87144857D01*
X167473523Y-87049619D01*
X167521142Y-87002000D01*
X167616380Y-86954380D01*
X167806857Y-86954380D01*
X167902095Y-87002000D01*
X167949714Y-87049619D01*
X167997333Y-87144857D01*
X167997333Y-87382952D01*
X167949714Y-87478190D01*
X167902095Y-87525809D01*
X167806857Y-87573428D01*
X167616380Y-87573428D01*
X167521142Y-87525809D01*
X167473523Y-87478190D01*
X167425904Y-87382952D01*
%TO.C,C512*%
X115292047Y-83288142D02*
X115339666Y-83335761D01*
X115482523Y-83383380D01*
X115577761Y-83383380D01*
X115720619Y-83335761D01*
X115815857Y-83240523D01*
X115863476Y-83145285D01*
X115911095Y-82954809D01*
X115911095Y-82811952D01*
X115863476Y-82621476D01*
X115815857Y-82526238D01*
X115720619Y-82431000D01*
X115577761Y-82383380D01*
X115482523Y-82383380D01*
X115339666Y-82431000D01*
X115292047Y-82478619D01*
X114387285Y-82383380D02*
X114863476Y-82383380D01*
X114911095Y-82859571D01*
X114863476Y-82811952D01*
X114768238Y-82764333D01*
X114530142Y-82764333D01*
X114434904Y-82811952D01*
X114387285Y-82859571D01*
X114339666Y-82954809D01*
X114339666Y-83192904D01*
X114387285Y-83288142D01*
X114434904Y-83335761D01*
X114530142Y-83383380D01*
X114768238Y-83383380D01*
X114863476Y-83335761D01*
X114911095Y-83288142D01*
X113387285Y-83383380D02*
X113958714Y-83383380D01*
X113673000Y-83383380D02*
X113673000Y-82383380D01*
X113768238Y-82526238D01*
X113863476Y-82621476D01*
X113958714Y-82669095D01*
X113006333Y-82478619D02*
X112958714Y-82431000D01*
X112863476Y-82383380D01*
X112625380Y-82383380D01*
X112530142Y-82431000D01*
X112482523Y-82478619D01*
X112434904Y-82573857D01*
X112434904Y-82669095D01*
X112482523Y-82811952D01*
X113053952Y-83383380D01*
X112434904Y-83383380D01*
%TO.C,R704*%
X162504380Y-116736952D02*
X162028190Y-116403619D01*
X162504380Y-116165523D02*
X161504380Y-116165523D01*
X161504380Y-116546476D01*
X161552000Y-116641714D01*
X161599619Y-116689333D01*
X161694857Y-116736952D01*
X161837714Y-116736952D01*
X161932952Y-116689333D01*
X161980571Y-116641714D01*
X162028190Y-116546476D01*
X162028190Y-116165523D01*
X161504380Y-117070285D02*
X161504380Y-117736952D01*
X162504380Y-117308380D01*
X161504380Y-118308380D02*
X161504380Y-118403619D01*
X161552000Y-118498857D01*
X161599619Y-118546476D01*
X161694857Y-118594095D01*
X161885333Y-118641714D01*
X162123428Y-118641714D01*
X162313904Y-118594095D01*
X162409142Y-118546476D01*
X162456761Y-118498857D01*
X162504380Y-118403619D01*
X162504380Y-118308380D01*
X162456761Y-118213142D01*
X162409142Y-118165523D01*
X162313904Y-118117904D01*
X162123428Y-118070285D01*
X161885333Y-118070285D01*
X161694857Y-118117904D01*
X161599619Y-118165523D01*
X161552000Y-118213142D01*
X161504380Y-118308380D01*
X161837714Y-119498857D02*
X162504380Y-119498857D01*
X161456761Y-119260761D02*
X162171047Y-119022666D01*
X162171047Y-119641714D01*
%TO.C,C511*%
X115136142Y-72816452D02*
X115183761Y-72768833D01*
X115231380Y-72625976D01*
X115231380Y-72530738D01*
X115183761Y-72387880D01*
X115088523Y-72292642D01*
X114993285Y-72245023D01*
X114802809Y-72197404D01*
X114659952Y-72197404D01*
X114469476Y-72245023D01*
X114374238Y-72292642D01*
X114279000Y-72387880D01*
X114231380Y-72530738D01*
X114231380Y-72625976D01*
X114279000Y-72768833D01*
X114326619Y-72816452D01*
X114231380Y-73721214D02*
X114231380Y-73245023D01*
X114707571Y-73197404D01*
X114659952Y-73245023D01*
X114612333Y-73340261D01*
X114612333Y-73578357D01*
X114659952Y-73673595D01*
X114707571Y-73721214D01*
X114802809Y-73768833D01*
X115040904Y-73768833D01*
X115136142Y-73721214D01*
X115183761Y-73673595D01*
X115231380Y-73578357D01*
X115231380Y-73340261D01*
X115183761Y-73245023D01*
X115136142Y-73197404D01*
X115231380Y-74721214D02*
X115231380Y-74149785D01*
X115231380Y-74435500D02*
X114231380Y-74435500D01*
X114374238Y-74340261D01*
X114469476Y-74245023D01*
X114517095Y-74149785D01*
X115231380Y-75673595D02*
X115231380Y-75102166D01*
X115231380Y-75387880D02*
X114231380Y-75387880D01*
X114374238Y-75292642D01*
X114469476Y-75197404D01*
X114517095Y-75102166D01*
%TO.C,C503*%
X124973142Y-86786452D02*
X125020761Y-86738833D01*
X125068380Y-86595976D01*
X125068380Y-86500738D01*
X125020761Y-86357880D01*
X124925523Y-86262642D01*
X124830285Y-86215023D01*
X124639809Y-86167404D01*
X124496952Y-86167404D01*
X124306476Y-86215023D01*
X124211238Y-86262642D01*
X124116000Y-86357880D01*
X124068380Y-86500738D01*
X124068380Y-86595976D01*
X124116000Y-86738833D01*
X124163619Y-86786452D01*
X124068380Y-87691214D02*
X124068380Y-87215023D01*
X124544571Y-87167404D01*
X124496952Y-87215023D01*
X124449333Y-87310261D01*
X124449333Y-87548357D01*
X124496952Y-87643595D01*
X124544571Y-87691214D01*
X124639809Y-87738833D01*
X124877904Y-87738833D01*
X124973142Y-87691214D01*
X125020761Y-87643595D01*
X125068380Y-87548357D01*
X125068380Y-87310261D01*
X125020761Y-87215023D01*
X124973142Y-87167404D01*
X124068380Y-88357880D02*
X124068380Y-88453119D01*
X124116000Y-88548357D01*
X124163619Y-88595976D01*
X124258857Y-88643595D01*
X124449333Y-88691214D01*
X124687428Y-88691214D01*
X124877904Y-88643595D01*
X124973142Y-88595976D01*
X125020761Y-88548357D01*
X125068380Y-88453119D01*
X125068380Y-88357880D01*
X125020761Y-88262642D01*
X124973142Y-88215023D01*
X124877904Y-88167404D01*
X124687428Y-88119785D01*
X124449333Y-88119785D01*
X124258857Y-88167404D01*
X124163619Y-88215023D01*
X124116000Y-88262642D01*
X124068380Y-88357880D01*
X124068380Y-89024547D02*
X124068380Y-89643595D01*
X124449333Y-89310261D01*
X124449333Y-89453119D01*
X124496952Y-89548357D01*
X124544571Y-89595976D01*
X124639809Y-89643595D01*
X124877904Y-89643595D01*
X124973142Y-89595976D01*
X125020761Y-89548357D01*
X125068380Y-89453119D01*
X125068380Y-89167404D01*
X125020761Y-89072166D01*
X124973142Y-89024547D01*
%TO.C,Q601*%
X150915619Y-86836380D02*
X150868000Y-86741142D01*
X150772761Y-86645904D01*
X150629904Y-86503047D01*
X150582285Y-86407809D01*
X150582285Y-86312571D01*
X150820380Y-86360190D02*
X150772761Y-86264952D01*
X150677523Y-86169714D01*
X150487047Y-86122095D01*
X150153714Y-86122095D01*
X149963238Y-86169714D01*
X149868000Y-86264952D01*
X149820380Y-86360190D01*
X149820380Y-86550666D01*
X149868000Y-86645904D01*
X149963238Y-86741142D01*
X150153714Y-86788761D01*
X150487047Y-86788761D01*
X150677523Y-86741142D01*
X150772761Y-86645904D01*
X150820380Y-86550666D01*
X150820380Y-86360190D01*
X149820380Y-87645904D02*
X149820380Y-87455428D01*
X149868000Y-87360190D01*
X149915619Y-87312571D01*
X150058476Y-87217333D01*
X150248952Y-87169714D01*
X150629904Y-87169714D01*
X150725142Y-87217333D01*
X150772761Y-87264952D01*
X150820380Y-87360190D01*
X150820380Y-87550666D01*
X150772761Y-87645904D01*
X150725142Y-87693523D01*
X150629904Y-87741142D01*
X150391809Y-87741142D01*
X150296571Y-87693523D01*
X150248952Y-87645904D01*
X150201333Y-87550666D01*
X150201333Y-87360190D01*
X150248952Y-87264952D01*
X150296571Y-87217333D01*
X150391809Y-87169714D01*
X149820380Y-88360190D02*
X149820380Y-88455428D01*
X149868000Y-88550666D01*
X149915619Y-88598285D01*
X150010857Y-88645904D01*
X150201333Y-88693523D01*
X150439428Y-88693523D01*
X150629904Y-88645904D01*
X150725142Y-88598285D01*
X150772761Y-88550666D01*
X150820380Y-88455428D01*
X150820380Y-88360190D01*
X150772761Y-88264952D01*
X150725142Y-88217333D01*
X150629904Y-88169714D01*
X150439428Y-88122095D01*
X150201333Y-88122095D01*
X150010857Y-88169714D01*
X149915619Y-88217333D01*
X149868000Y-88264952D01*
X149820380Y-88360190D01*
X150820380Y-89645904D02*
X150820380Y-89074476D01*
X150820380Y-89360190D02*
X149820380Y-89360190D01*
X149963238Y-89264952D01*
X150058476Y-89169714D01*
X150106095Y-89074476D01*
D12*
%TO.C,D105*%
X124632720Y-95859600D02*
X124632720Y-96461580D01*
X124632720Y-96461580D02*
X123835160Y-96461580D01*
X124632720Y-94264480D02*
X124632720Y-93662500D01*
X124632720Y-93662500D02*
X123835160Y-93662500D01*
%TO.C,D104*%
X114838480Y-107233720D02*
X114236500Y-107233720D01*
X114236500Y-107233720D02*
X114236500Y-106436160D01*
X116433600Y-107233720D02*
X117035580Y-107233720D01*
X117035580Y-107233720D02*
X117035580Y-106436160D01*
%TO.C,D103*%
X120487440Y-106743500D02*
X119885460Y-106743500D01*
X119885460Y-106743500D02*
X119885460Y-105945940D01*
X122082560Y-106743500D02*
X122684540Y-106743500D01*
X122684540Y-106743500D02*
X122684540Y-105945940D01*
%TO.C,D102*%
X113827560Y-98234500D02*
X114429540Y-98234500D01*
X114429540Y-98234500D02*
X114429540Y-99032060D01*
X112232440Y-98234500D02*
X111630460Y-98234500D01*
X111630460Y-98234500D02*
X111630460Y-99032060D01*
%TO.C,D101*%
X111968280Y-102514400D02*
X111968280Y-101912420D01*
X111968280Y-101912420D02*
X112765840Y-101912420D01*
X111968280Y-104109520D02*
X111968280Y-104711500D01*
X111968280Y-104711500D02*
X112765840Y-104711500D01*
D13*
%TO.C,R202*%
X132307000Y-112495064D02*
X132307000Y-112040936D01*
X130837000Y-112495064D02*
X130837000Y-112040936D01*
%TO.C,Q504*%
X112298000Y-74246500D02*
X112298000Y-73596500D01*
X112298000Y-74246500D02*
X112298000Y-74896500D01*
X115418000Y-74246500D02*
X115418000Y-75921500D01*
X115418000Y-74246500D02*
X115418000Y-73596500D01*
%TO.C,Q609*%
X162088000Y-90932000D02*
X162088000Y-92607000D01*
X162088000Y-90932000D02*
X162088000Y-90282000D01*
X158968000Y-90932000D02*
X158968000Y-90282000D01*
X158968000Y-90932000D02*
X158968000Y-91582000D01*
%TO.C,Q301*%
X139700000Y-119852000D02*
X141375000Y-119852000D01*
X139700000Y-119852000D02*
X139050000Y-119852000D01*
X139700000Y-122972000D02*
X139050000Y-122972000D01*
X139700000Y-122972000D02*
X140350000Y-122972000D01*
%TO.C,C302*%
X128243000Y-109989252D02*
X128243000Y-109466748D01*
X126773000Y-109989252D02*
X126773000Y-109466748D01*
%TO.C,R706*%
X153188936Y-122201000D02*
X153643064Y-122201000D01*
X153188936Y-123671000D02*
X153643064Y-123671000D01*
%TO.C,C506*%
X125229252Y-74903000D02*
X124706748Y-74903000D01*
X125229252Y-73433000D02*
X124706748Y-73433000D01*
%TO.C,R204*%
X130783000Y-104928936D02*
X130783000Y-105383064D01*
X129313000Y-104928936D02*
X129313000Y-105383064D01*
%TO.C,R206*%
X128243064Y-115543000D02*
X127788936Y-115543000D01*
X128243064Y-114073000D02*
X127788936Y-114073000D01*
%TO.C,R617*%
X162279064Y-74449000D02*
X161824936Y-74449000D01*
X162279064Y-75919000D02*
X161824936Y-75919000D01*
%TO.C,D604*%
X159676000Y-74152000D02*
X159676000Y-72152000D01*
X159676000Y-74152000D02*
X163576000Y-74152000D01*
X159676000Y-72152000D02*
X163576000Y-72152000D01*
%TO.C,C301*%
X126011000Y-122075752D02*
X126011000Y-121553248D01*
X127481000Y-122075752D02*
X127481000Y-121553248D01*
%TO.C,R504*%
X117629000Y-78512936D02*
X117629000Y-78967064D01*
X119099000Y-78512936D02*
X119099000Y-78967064D01*
%TO.C,R614*%
X166851000Y-76427064D02*
X166851000Y-75972936D01*
X165381000Y-76427064D02*
X165381000Y-75972936D01*
%TO.C,C604*%
X155186748Y-77951000D02*
X155709252Y-77951000D01*
X155186748Y-76481000D02*
X155709252Y-76481000D01*
%TO.C,D605*%
X154096000Y-75836000D02*
X152686000Y-75836000D01*
X152686000Y-73516000D02*
X154716000Y-73516000D01*
X152686000Y-73516000D02*
X152686000Y-74176000D01*
X152686000Y-75176000D02*
X152686000Y-75836000D01*
%TO.C,R601*%
X153188936Y-90705000D02*
X153643064Y-90705000D01*
X153188936Y-92175000D02*
X153643064Y-92175000D01*
%TO.C,D701*%
X164762984Y-116118122D02*
X164762984Y-120018122D01*
X166762984Y-116118122D02*
X166762984Y-120018122D01*
X164762984Y-116118122D02*
X166762984Y-116118122D01*
%TO.C,R505*%
X119353000Y-73797936D02*
X119353000Y-74252064D01*
X117883000Y-73797936D02*
X117883000Y-74252064D01*
%TO.C,R502*%
X128312936Y-88262494D02*
X128767064Y-88262494D01*
X128312936Y-86792494D02*
X128767064Y-86792494D01*
%TO.C,R702*%
X152569000Y-120103737D02*
X152569000Y-118656263D01*
X155279000Y-120103737D02*
X155279000Y-118656263D01*
%TO.C,C801*%
X153135000Y-108973252D02*
X153135000Y-108450748D01*
X151665000Y-108973252D02*
X151665000Y-108450748D01*
%TO.C,R303*%
X129902936Y-122614000D02*
X134257064Y-122614000D01*
X129902936Y-119194000D02*
X134257064Y-119194000D01*
%TO.C,R616*%
X162333000Y-89180936D02*
X162333000Y-89635064D01*
X163803000Y-89180936D02*
X163803000Y-89635064D01*
%TO.C,D601*%
X154448000Y-82586000D02*
X154448000Y-86486000D01*
X154448000Y-82586000D02*
X156448000Y-82586000D01*
X156448000Y-82586000D02*
X156448000Y-86486000D01*
%TO.C,C507*%
X112362752Y-77792500D02*
X111840248Y-77792500D01*
X112362752Y-76322500D02*
X111840248Y-76322500D01*
%TO.C,R701*%
X155729000Y-116120936D02*
X155729000Y-116575064D01*
X157199000Y-116120936D02*
X157199000Y-116575064D01*
%TO.C,R703*%
X149013000Y-120103737D02*
X149013000Y-118656263D01*
X151723000Y-120103737D02*
X151723000Y-118656263D01*
%TO.C,C505*%
X128218807Y-85375565D02*
X128741311Y-85375565D01*
X128218807Y-83905565D02*
X128741311Y-83905565D01*
%TO.C,R609*%
X168936936Y-86587000D02*
X169391064Y-86587000D01*
X168936936Y-85117000D02*
X169391064Y-85117000D01*
%TO.C,C512*%
X112422000Y-80151248D02*
X112422000Y-80673752D01*
X113892000Y-80151248D02*
X113892000Y-80673752D01*
%TO.C,R704*%
X164311000Y-118083064D02*
X164311000Y-117628936D01*
X162841000Y-118083064D02*
X162841000Y-117628936D01*
%TO.C,C511*%
X117194000Y-73674248D02*
X117194000Y-74196752D01*
X115724000Y-73674248D02*
X115724000Y-74196752D01*
%TO.C,C503*%
X122201000Y-88166752D02*
X122201000Y-87644248D01*
X123671000Y-88166752D02*
X123671000Y-87644248D01*
%TO.C,Q601*%
X151856000Y-87962500D02*
X151856000Y-88612500D01*
X151856000Y-87962500D02*
X151856000Y-87312500D01*
X154976000Y-87962500D02*
X154976000Y-87312500D01*
X154976000Y-87962500D02*
X154976000Y-89637500D01*
%TD*%
M02*
