%TF.GenerationSoftware,KiCad,Pcbnew,6.0.11-2627ca5db0~126~ubuntu22.04.1*%
%TF.CreationDate,2023-02-07T19:59:45-05:00*%
%TF.ProjectId,qwiic-obd,71776969-632d-46f6-9264-2e6b69636164,rev?*%
%TF.SameCoordinates,Original*%
%TF.FileFunction,Copper,L1,Top*%
%TF.FilePolarity,Positive*%
%FSLAX46Y46*%
G04 Gerber Fmt 4.6, Leading zero omitted, Abs format (unit mm)*
G04 Created by KiCad (PCBNEW 6.0.11-2627ca5db0~126~ubuntu22.04.1) date 2023-02-07 19:59:45*
%MOMM*%
%LPD*%
G01*
G04 APERTURE LIST*
G04 Aperture macros list*
%AMRoundRect*
0 Rectangle with rounded corners*
0 $1 Rounding radius*
0 $2 $3 $4 $5 $6 $7 $8 $9 X,Y pos of 4 corners*
0 Add a 4 corners polygon primitive as box body*
4,1,4,$2,$3,$4,$5,$6,$7,$8,$9,$2,$3,0*
0 Add four circle primitives for the rounded corners*
1,1,$1+$1,$2,$3*
1,1,$1+$1,$4,$5*
1,1,$1+$1,$6,$7*
1,1,$1+$1,$8,$9*
0 Add four rect primitives between the rounded corners*
20,1,$1+$1,$2,$3,$4,$5,0*
20,1,$1+$1,$4,$5,$6,$7,0*
20,1,$1+$1,$6,$7,$8,$9,0*
20,1,$1+$1,$8,$9,$2,$3,0*%
%AMFreePoly0*
4,1,9,3.862500,-0.866500,0.737500,-0.866500,0.737500,-0.450000,-0.737500,-0.450000,-0.737500,0.450000,0.737500,0.450000,0.737500,0.866500,3.862500,0.866500,3.862500,-0.866500,3.862500,-0.866500,$1*%
G04 Aperture macros list end*
%TA.AperFunction,ComponentPad*%
%ADD10R,1.879600X1.879600*%
%TD*%
%TA.AperFunction,ComponentPad*%
%ADD11C,1.879600*%
%TD*%
%TA.AperFunction,SMDPad,CuDef*%
%ADD12RoundRect,0.100000X0.637500X0.100000X-0.637500X0.100000X-0.637500X-0.100000X0.637500X-0.100000X0*%
%TD*%
%TA.AperFunction,SMDPad,CuDef*%
%ADD13RoundRect,0.250000X0.450000X-0.350000X0.450000X0.350000X-0.450000X0.350000X-0.450000X-0.350000X0*%
%TD*%
%TA.AperFunction,SMDPad,CuDef*%
%ADD14RoundRect,0.250000X-0.450000X0.325000X-0.450000X-0.325000X0.450000X-0.325000X0.450000X0.325000X0*%
%TD*%
%TA.AperFunction,SMDPad,CuDef*%
%ADD15RoundRect,0.250000X-0.350000X-0.450000X0.350000X-0.450000X0.350000X0.450000X-0.350000X0.450000X0*%
%TD*%
%TA.AperFunction,SMDPad,CuDef*%
%ADD16R,0.635000X0.558800*%
%TD*%
%TA.AperFunction,SMDPad,CuDef*%
%ADD17R,0.900000X1.200000*%
%TD*%
%TA.AperFunction,SMDPad,CuDef*%
%ADD18RoundRect,0.250000X-0.450000X0.350000X-0.450000X-0.350000X0.450000X-0.350000X0.450000X0.350000X0*%
%TD*%
%TA.AperFunction,SMDPad,CuDef*%
%ADD19R,1.168400X0.254000*%
%TD*%
%TA.AperFunction,SMDPad,CuDef*%
%ADD20RoundRect,0.150000X-0.150000X0.587500X-0.150000X-0.587500X0.150000X-0.587500X0.150000X0.587500X0*%
%TD*%
%TA.AperFunction,SMDPad,CuDef*%
%ADD21RoundRect,0.250000X-0.475000X0.337500X-0.475000X-0.337500X0.475000X-0.337500X0.475000X0.337500X0*%
%TD*%
%TA.AperFunction,SMDPad,CuDef*%
%ADD22RoundRect,0.250000X0.475000X-0.337500X0.475000X0.337500X-0.475000X0.337500X-0.475000X-0.337500X0*%
%TD*%
%TA.AperFunction,SMDPad,CuDef*%
%ADD23RoundRect,0.250000X0.337500X0.475000X-0.337500X0.475000X-0.337500X-0.475000X0.337500X-0.475000X0*%
%TD*%
%TA.AperFunction,SMDPad,CuDef*%
%ADD24R,1.981200X0.508000*%
%TD*%
%TA.AperFunction,SMDPad,CuDef*%
%ADD25R,0.609600X1.549400*%
%TD*%
%TA.AperFunction,SMDPad,CuDef*%
%ADD26R,1.193800X1.803400*%
%TD*%
%TA.AperFunction,ComponentPad*%
%ADD27R,1.700000X1.700000*%
%TD*%
%TA.AperFunction,ComponentPad*%
%ADD28O,1.700000X1.700000*%
%TD*%
%TA.AperFunction,SMDPad,CuDef*%
%ADD29RoundRect,0.250000X-0.337500X-0.475000X0.337500X-0.475000X0.337500X0.475000X-0.337500X0.475000X0*%
%TD*%
%TA.AperFunction,SMDPad,CuDef*%
%ADD30RoundRect,0.250000X0.350000X0.450000X-0.350000X0.450000X-0.350000X-0.450000X0.350000X-0.450000X0*%
%TD*%
%TA.AperFunction,SMDPad,CuDef*%
%ADD31R,2.500000X1.800000*%
%TD*%
%TA.AperFunction,SMDPad,CuDef*%
%ADD32RoundRect,0.150000X0.587500X0.150000X-0.587500X0.150000X-0.587500X-0.150000X0.587500X-0.150000X0*%
%TD*%
%TA.AperFunction,SMDPad,CuDef*%
%ADD33RoundRect,0.100000X0.100000X-0.637500X0.100000X0.637500X-0.100000X0.637500X-0.100000X-0.637500X0*%
%TD*%
%TA.AperFunction,SMDPad,CuDef*%
%ADD34RoundRect,0.150000X-0.587500X-0.150000X0.587500X-0.150000X0.587500X0.150000X-0.587500X0.150000X0*%
%TD*%
%TA.AperFunction,SMDPad,CuDef*%
%ADD35R,0.600000X0.700000*%
%TD*%
%TA.AperFunction,SMDPad,CuDef*%
%ADD36RoundRect,0.150000X0.150000X-0.512500X0.150000X0.512500X-0.150000X0.512500X-0.150000X-0.512500X0*%
%TD*%
%TA.AperFunction,SMDPad,CuDef*%
%ADD37R,1.800000X2.500000*%
%TD*%
%TA.AperFunction,SMDPad,CuDef*%
%ADD38R,1.409700X0.355600*%
%TD*%
%TA.AperFunction,SMDPad,CuDef*%
%ADD39RoundRect,0.150000X0.150000X-0.587500X0.150000X0.587500X-0.150000X0.587500X-0.150000X-0.587500X0*%
%TD*%
%TA.AperFunction,ComponentPad*%
%ADD40C,4.000000*%
%TD*%
%TA.AperFunction,ComponentPad*%
%ADD41R,1.600000X1.600000*%
%TD*%
%TA.AperFunction,ComponentPad*%
%ADD42C,1.600000*%
%TD*%
%TA.AperFunction,SMDPad,CuDef*%
%ADD43R,2.000000X1.800000*%
%TD*%
%TA.AperFunction,ComponentPad*%
%ADD44O,1.600000X1.600000*%
%TD*%
%TA.AperFunction,SMDPad,CuDef*%
%ADD45RoundRect,0.250000X-0.875000X-1.025000X0.875000X-1.025000X0.875000X1.025000X-0.875000X1.025000X0*%
%TD*%
%TA.AperFunction,SMDPad,CuDef*%
%ADD46R,0.508000X1.270000*%
%TD*%
%TA.AperFunction,ComponentPad*%
%ADD47C,2.000000*%
%TD*%
%TA.AperFunction,SMDPad,CuDef*%
%ADD48R,1.200000X0.900000*%
%TD*%
%TA.AperFunction,SMDPad,CuDef*%
%ADD49RoundRect,0.237500X-0.287500X-0.237500X0.287500X-0.237500X0.287500X0.237500X-0.287500X0.237500X0*%
%TD*%
%TA.AperFunction,SMDPad,CuDef*%
%ADD50R,0.900000X1.300000*%
%TD*%
%TA.AperFunction,SMDPad,CuDef*%
%ADD51FreePoly0,270.000000*%
%TD*%
%TA.AperFunction,SMDPad,CuDef*%
%ADD52RoundRect,0.100000X-0.637500X-0.100000X0.637500X-0.100000X0.637500X0.100000X-0.637500X0.100000X0*%
%TD*%
%TA.AperFunction,SMDPad,CuDef*%
%ADD53R,0.914400X0.508000*%
%TD*%
%TA.AperFunction,SMDPad,CuDef*%
%ADD54RoundRect,0.237500X0.237500X-0.287500X0.237500X0.287500X-0.237500X0.287500X-0.237500X-0.287500X0*%
%TD*%
%TA.AperFunction,SMDPad,CuDef*%
%ADD55RoundRect,0.100000X-0.100000X0.637500X-0.100000X-0.637500X0.100000X-0.637500X0.100000X0.637500X0*%
%TD*%
%TA.AperFunction,SMDPad,CuDef*%
%ADD56RoundRect,0.250000X0.875000X1.025000X-0.875000X1.025000X-0.875000X-1.025000X0.875000X-1.025000X0*%
%TD*%
%TA.AperFunction,SMDPad,CuDef*%
%ADD57R,1.400000X0.300000*%
%TD*%
%TA.AperFunction,SMDPad,CuDef*%
%ADD58R,0.650000X0.350000*%
%TD*%
%TA.AperFunction,SMDPad,CuDef*%
%ADD59R,1.550000X2.400000*%
%TD*%
%TA.AperFunction,ViaPad*%
%ADD60C,0.800000*%
%TD*%
%TA.AperFunction,Conductor*%
%ADD61C,0.250000*%
%TD*%
%TA.AperFunction,Conductor*%
%ADD62C,0.200000*%
%TD*%
G04 APERTURE END LIST*
D10*
%TO.P,J6,1,GND*%
%TO.N,GND*%
X201600000Y-78760000D03*
D11*
%TO.P,J6,2,CTS*%
%TO.N,unconnected-(J6-Pad2)*%
X201600000Y-81300000D03*
%TO.P,J6,3,VCC*%
%TO.N,Net-(JP2-Pad1)*%
X201600000Y-83840000D03*
%TO.P,J6,4,TXD*%
%TO.N,Net-(R48-Pad2)*%
X201600000Y-86380000D03*
%TO.P,J6,5,RXD*%
%TO.N,UPDI*%
X201600000Y-88920000D03*
%TO.P,J6,6,RTS*%
%TO.N,unconnected-(J6-Pad6)*%
X201600000Y-91460000D03*
%TD*%
%TO.P,J5,6,RTS*%
%TO.N,unconnected-(J5-Pad6)*%
X198800000Y-86520000D03*
%TO.P,J5,5,RXD*%
%TO.N,AVR_RX*%
X198800000Y-83980000D03*
%TO.P,J5,4,TXD*%
%TO.N,AVR_TX*%
X198800000Y-81440000D03*
%TO.P,J5,3,VCC*%
%TO.N,Net-(JP1-Pad1)*%
X198800000Y-78900000D03*
%TO.P,J5,2,CTS*%
%TO.N,unconnected-(J5-Pad2)*%
X198800000Y-76360000D03*
D10*
%TO.P,J5,1,GND*%
%TO.N,GND*%
X198800000Y-73820000D03*
%TD*%
D12*
%TO.P,U16,14,GND*%
%TO.N,GND*%
X181537500Y-85350000D03*
%TO.P,U16,13,PA3*%
%TO.N,~{J1850_INT}*%
X181537500Y-84700000D03*
%TO.P,U16,12,PA2*%
%TO.N,J1850_RX*%
X181537500Y-84050000D03*
%TO.P,U16,11,PA1*%
%TO.N,J1850_TX*%
X181537500Y-83400000D03*
%TO.P,U16,10,~{RESET}/PA0*%
%TO.N,UPDI*%
X181537500Y-82750000D03*
%TO.P,U16,9,PB0*%
%TO.N,SCL*%
X181537500Y-82100000D03*
%TO.P,U16,8,PB1*%
%TO.N,SDA*%
X181537500Y-81450000D03*
%TO.P,U16,7,PB2*%
%TO.N,AVR_TX*%
X187262500Y-81450000D03*
%TO.P,U16,6,PB3*%
%TO.N,AVR_RX*%
X187262500Y-82100000D03*
%TO.P,U16,5,PA7*%
%TO.N,~{J1850_LED}*%
X187262500Y-82750000D03*
%TO.P,U16,4,PA6*%
%TO.N,~{AVR_LED}*%
X187262500Y-83400000D03*
%TO.P,U16,3,PA5*%
%TO.N,SAE_PWM*%
X187262500Y-84050000D03*
%TO.P,U16,2,PA4*%
%TO.N,~{RESET}*%
X187262500Y-84700000D03*
%TO.P,U16,1,VCC*%
%TO.N,+3V3_NOSW*%
X187262500Y-85350000D03*
%TD*%
D13*
%TO.P,R36,2*%
%TO.N,Net-(D15-Pad2)*%
X194900000Y-88100000D03*
%TO.P,R36,1*%
%TO.N,+3V3*%
X194900000Y-90100000D03*
%TD*%
%TO.P,R35,1*%
%TO.N,+3V3*%
X192700000Y-90100000D03*
%TO.P,R35,2*%
%TO.N,Net-(D14-Pad2)*%
X192700000Y-88100000D03*
%TD*%
D14*
%TO.P,D15,1,K*%
%TO.N,~{J1850_LED}*%
X194900000Y-84400000D03*
%TO.P,D15,2,A*%
%TO.N,Net-(D15-Pad2)*%
X194900000Y-86450000D03*
%TD*%
%TO.P,D14,1,K*%
%TO.N,~{AVR_LED}*%
X192700000Y-84400000D03*
%TO.P,D14,2,A*%
%TO.N,Net-(D14-Pad2)*%
X192700000Y-86450000D03*
%TD*%
D15*
%TO.P,R46,1*%
%TO.N,Net-(D16-Pad1)*%
X164608000Y-82804000D03*
%TO.P,R46,2*%
%TO.N,Net-(Q17-Pad3)*%
X166608000Y-82804000D03*
%TD*%
D16*
%TO.P,RN2,1,R1.1*%
%TO.N,ISO_K*%
X178117178Y-101288460D03*
%TO.P,RN2,2,R2.1*%
%TO.N,PWR_CTRL*%
X178117178Y-100488460D03*
%TO.P,RN2,3,R3.1*%
%TO.N,SAE_PWM*%
X178117178Y-99688461D03*
%TO.P,RN2,4,R4.1*%
%TO.N,SW_CAN_LOAD*%
X178117178Y-98888460D03*
%TO.P,RN2,5,R5.1*%
%TO.N,SW_CAN_MODE1*%
X178117178Y-98088462D03*
%TO.P,RN2,6,R6.1*%
%TO.N,SW_CAN_MODE0*%
X178117178Y-97288461D03*
%TO.P,RN2,7,R7.1*%
%TO.N,CAN_SEL1*%
X178117178Y-96488460D03*
%TO.P,RN2,8,R8.1*%
%TO.N,CAN_SEL0*%
X178117178Y-95688462D03*
%TO.P,RN2,9,R8.2*%
%TO.N,GND*%
X176034378Y-95688462D03*
%TO.P,RN2,10,R7.2*%
X176034378Y-96488462D03*
%TO.P,RN2,11,R6.2*%
X176034378Y-97288461D03*
%TO.P,RN2,12,R5.2*%
X176034378Y-98088462D03*
%TO.P,RN2,13,R4.2*%
X176034378Y-98888460D03*
%TO.P,RN2,14,R3.2*%
X176034378Y-99688461D03*
%TO.P,RN2,15,R2.2*%
X176034378Y-100488462D03*
%TO.P,RN2,16,R1.2*%
X176034378Y-101288460D03*
%TD*%
D17*
%TO.P,D11,1,K*%
%TO.N,Net-(D9-Pad1)*%
X117604000Y-73660000D03*
%TO.P,D11,2,A*%
%TO.N,Net-(C13-Pad2)*%
X120904000Y-73660000D03*
%TD*%
D18*
%TO.P,R14,1*%
%TO.N,VBAT*%
X137668000Y-85884000D03*
%TO.P,R14,2*%
%TO.N,Net-(C6-Pad1)*%
X137668000Y-87884000D03*
%TD*%
D19*
%TO.P,U3,1,NO0*%
%TO.N,~{MUX_CAN_EN}*%
X131216400Y-116089999D03*
%TO.P,U3,2,NO1*%
X131216400Y-116590000D03*
%TO.P,U3,3,NO2*%
%TO.N,unconnected-(U3-Pad3)*%
X131216400Y-117090000D03*
%TO.P,U3,4,GND*%
%TO.N,GND*%
X131216400Y-117590001D03*
%TO.P,U3,5,IN2*%
%TO.N,CAN_SEL1*%
X133959600Y-117590001D03*
%TO.P,U3,6,IN1*%
%TO.N,CAN_SEL0*%
X133959600Y-117090000D03*
%TO.P,U3,7,COM*%
%TO.N,~{CAN_EN}*%
X133959600Y-116590000D03*
%TO.P,U3,8,V+*%
%TO.N,+3V3*%
X133959600Y-116089999D03*
%TD*%
D20*
%TO.P,Q20,1,B*%
%TO.N,Net-(Q20-Pad1)*%
X158430000Y-120474500D03*
%TO.P,Q20,2,E*%
%TO.N,GND*%
X156530000Y-120474500D03*
%TO.P,Q20,3,C*%
%TO.N,ISO_LINE*%
X157480000Y-122349500D03*
%TD*%
D18*
%TO.P,R42,1*%
%TO.N,+3V3*%
X162560000Y-84852000D03*
%TO.P,R42,2*%
%TO.N,Net-(Q15-Pad1)*%
X162560000Y-86852000D03*
%TD*%
D15*
%TO.P,R60,1*%
%TO.N,~{CAN_CS}*%
X156988000Y-106680000D03*
%TO.P,R60,2*%
%TO.N,+3V3*%
X158988000Y-106680000D03*
%TD*%
D21*
%TO.P,C2,1*%
%TO.N,GND*%
X123317000Y-113241000D03*
%TO.P,C2,2*%
%TO.N,Net-(C2-Pad2)*%
X123317000Y-115316000D03*
%TD*%
D22*
%TO.P,C19,1*%
%TO.N,+5V*%
X149352000Y-79269500D03*
%TO.P,C19,2*%
%TO.N,GND*%
X149352000Y-77194500D03*
%TD*%
D18*
%TO.P,R20,1*%
%TO.N,+3V3_NOSW*%
X191516000Y-74692000D03*
%TO.P,R20,2*%
%TO.N,~{PIC_BL_ENTRY}*%
X191516000Y-76692000D03*
%TD*%
D13*
%TO.P,R54,1*%
%TO.N,+3V3*%
X180340000Y-115808000D03*
%TO.P,R54,2*%
%TO.N,~{ISO_RX}*%
X180340000Y-113808000D03*
%TD*%
D23*
%TO.P,C7,1*%
%TO.N,Net-(C5-Pad2)*%
X137181500Y-101600000D03*
%TO.P,C7,2*%
%TO.N,GND*%
X135106500Y-101600000D03*
%TD*%
D24*
%TO.P,U6,1,TXD*%
%TO.N,SW_CAN_TX*%
X132003800Y-123317000D03*
%TO.P,U6,2,MODE0*%
%TO.N,SW_CAN_MODE0*%
X132003800Y-122047000D03*
%TO.P,U6,3,MODE1*%
%TO.N,SW_CAN_MODE1*%
X132003800Y-120777000D03*
%TO.P,U6,4,RXD*%
%TO.N,SW_CAN_RX*%
X132003800Y-119507000D03*
%TO.P,U6,5,VBAT*%
%TO.N,VBAT*%
X127076200Y-119507000D03*
%TO.P,U6,6,LOAD*%
%TO.N,Net-(R8-Pad2)*%
X127076200Y-120777000D03*
%TO.P,U6,7,CANH*%
%TO.N,SW_CAN*%
X127076200Y-122047000D03*
%TO.P,U6,8,GND*%
%TO.N,GND*%
X127076200Y-123317000D03*
%TD*%
D25*
%TO.P,J2,1,1*%
%TO.N,GND*%
X206229999Y-119903001D03*
%TO.P,J2,2,2*%
%TO.N,+3V3_NOSW*%
X205229998Y-119903001D03*
%TO.P,J2,3,3*%
%TO.N,SDA*%
X204230000Y-119903001D03*
%TO.P,J2,4,4*%
%TO.N,SCL*%
X203229999Y-119903001D03*
D26*
%TO.P,J2,5*%
%TO.N,N/C*%
X207529998Y-122428000D03*
%TO.P,J2,6*%
X201930000Y-122428000D03*
%TD*%
D21*
%TO.P,C27,1*%
%TO.N,V_J1850*%
X148336000Y-92434500D03*
%TO.P,C27,2*%
%TO.N,GND*%
X148336000Y-94509500D03*
%TD*%
D27*
%TO.P,J4,1,1*%
%TO.N,~{CAN_INT}*%
X185557000Y-121641000D03*
D28*
%TO.P,J4,2,2*%
%TO.N,~{UART_INT}*%
X188097000Y-121641000D03*
%TO.P,J4,3,3*%
%TO.N,~{SPI_INT}*%
X190637000Y-121641000D03*
%TO.P,J4,4,4*%
%TO.N,~{J1850_INT}*%
X193177000Y-121641000D03*
%TD*%
D13*
%TO.P,R2,1*%
%TO.N,+3V3*%
X135636000Y-108696000D03*
%TO.P,R2,2*%
%TO.N,MUX_CAN_RX*%
X135636000Y-106696000D03*
%TD*%
D29*
%TO.P,C18,1*%
%TO.N,+12V_NOSW*%
X130534500Y-80772000D03*
%TO.P,C18,2*%
%TO.N,GND*%
X132609500Y-80772000D03*
%TD*%
D15*
%TO.P,R47,1*%
%TO.N,J1850_BUS+*%
X155448000Y-83312000D03*
%TO.P,R47,2*%
%TO.N,Net-(D19-Pad2)*%
X157448000Y-83312000D03*
%TD*%
D30*
%TO.P,R13,1*%
%TO.N,+3V3_NOSW*%
X206213998Y-116601001D03*
%TO.P,R13,2*%
%TO.N,SDA*%
X204213998Y-116601001D03*
%TD*%
D21*
%TO.P,C29,1*%
%TO.N,GND*%
X167939067Y-121193052D03*
%TO.P,C29,2*%
%TO.N,+3V3*%
X167939067Y-123268052D03*
%TD*%
D23*
%TO.P,C17,1*%
%TO.N,+3V3_NOSW*%
X111527500Y-75184000D03*
%TO.P,C17,2*%
%TO.N,GND*%
X109452500Y-75184000D03*
%TD*%
D29*
%TO.P,C6,1*%
%TO.N,Net-(C6-Pad1)*%
X137646500Y-91440000D03*
%TO.P,C6,2*%
%TO.N,GND*%
X139721500Y-91440000D03*
%TD*%
D15*
%TO.P,R18,1*%
%TO.N,+3V3_NOSW*%
X190373000Y-103886000D03*
%TO.P,R18,2*%
%TO.N,Net-(R18-Pad2)*%
X192373000Y-103886000D03*
%TD*%
D31*
%TO.P,D6,1,K*%
%TO.N,Net-(D6-Pad1)*%
X132556000Y-98552000D03*
%TO.P,D6,2,A*%
%TO.N,J1850_BUS+*%
X128556000Y-98552000D03*
%TD*%
D13*
%TO.P,R56,1*%
%TO.N,+3V3*%
X178308000Y-117332000D03*
%TO.P,R56,2*%
%TO.N,Net-(R56-Pad2)*%
X178308000Y-115332000D03*
%TD*%
D32*
%TO.P,Q18,1,G*%
%TO.N,ISO_K*%
X157360988Y-117180297D03*
%TO.P,Q18,2,S*%
%TO.N,GND*%
X157360988Y-115280297D03*
%TO.P,Q18,3,D*%
%TO.N,ISO_L*%
X155485988Y-116230297D03*
%TD*%
D33*
%TO.P,U9,1,A0*%
%TO.N,+3V3_NOSW*%
X164857000Y-101414500D03*
%TO.P,U9,2,A1*%
%TO.N,GND*%
X165507000Y-101414500D03*
%TO.P,U9,3,A2*%
X166157000Y-101414500D03*
%TO.P,U9,4,P0*%
%TO.N,~{CAN_RX0BF}*%
X166807000Y-101414500D03*
%TO.P,U9,5,P1*%
%TO.N,~{CAN_RX1BF}*%
X167457000Y-101414500D03*
%TO.P,U9,6,P2*%
%TO.N,~{CAN_TX0RTS}*%
X168107000Y-101414500D03*
%TO.P,U9,7,P3*%
%TO.N,~{CAN_TX1RTS}*%
X168757000Y-101414500D03*
%TO.P,U9,8,GND*%
%TO.N,GND*%
X169407000Y-101414500D03*
%TO.P,U9,9,P4*%
%TO.N,~{CAN_TX2RTS}*%
X169407000Y-95689500D03*
%TO.P,U9,10,P5*%
%TO.N,Net-(RN3-Pad6)*%
X168757000Y-95689500D03*
%TO.P,U9,11,P6*%
%TO.N,~{RESET}*%
X168107000Y-95689500D03*
%TO.P,U9,12,P7*%
%TO.N,CAN_SOF*%
X167457000Y-95689500D03*
%TO.P,U9,13,~{INT}*%
%TO.N,unconnected-(U9-Pad13)*%
X166807000Y-95689500D03*
%TO.P,U9,14,SCL*%
%TO.N,SCL*%
X166157000Y-95689500D03*
%TO.P,U9,15,SDA*%
%TO.N,SDA*%
X165507000Y-95689500D03*
%TO.P,U9,16,VDD*%
%TO.N,+3V3_NOSW*%
X164857000Y-95689500D03*
%TD*%
D34*
%TO.P,Q6,1,G*%
%TO.N,Net-(C13-Pad2)*%
X123014500Y-74742000D03*
%TO.P,Q6,2,S*%
%TO.N,Net-(D9-Pad1)*%
X123014500Y-76642000D03*
%TO.P,Q6,3,D*%
%TO.N,+12V_NOSW*%
X124889500Y-75692000D03*
%TD*%
D35*
%TO.P,D7,1,K*%
%TO.N,Net-(C5-Pad2)*%
X135626715Y-95258337D03*
%TO.P,D7,2,A*%
%TO.N,GND*%
X134226715Y-95258337D03*
%TD*%
D13*
%TO.P,R24,1*%
%TO.N,+5V*%
X146812000Y-79232000D03*
%TO.P,R24,2*%
%TO.N,GND*%
X146812000Y-77232000D03*
%TD*%
D17*
%TO.P,D10,1,K*%
%TO.N,Net-(D10-Pad1)*%
X118872000Y-81280000D03*
%TO.P,D10,2,A*%
%TO.N,GND*%
X115572000Y-81280000D03*
%TD*%
D36*
%TO.P,U13,1,FB*%
%TO.N,+3V3_NOSW*%
X111699000Y-79343500D03*
%TO.P,U13,2,EN*%
%TO.N,+12V_NOSW*%
X112649000Y-79343500D03*
%TO.P,U13,3,IN*%
X113599000Y-79343500D03*
%TO.P,U13,4,GND*%
%TO.N,GND*%
X113599000Y-77068500D03*
%TO.P,U13,5,SW*%
%TO.N,Net-(C11-Pad1)*%
X112649000Y-77068500D03*
%TO.P,U13,6,BST*%
%TO.N,Net-(C11-Pad2)*%
X111699000Y-77068500D03*
%TD*%
D15*
%TO.P,R22,1*%
%TO.N,Net-(Q5-Pad1)*%
X116840000Y-79248000D03*
%TO.P,R22,2*%
%TO.N,Net-(D10-Pad1)*%
X118840000Y-79248000D03*
%TD*%
D35*
%TO.P,D8,1,K*%
%TO.N,Net-(C6-Pad1)*%
X135587389Y-93598657D03*
%TO.P,D8,2,A*%
%TO.N,GND*%
X134187389Y-93598657D03*
%TD*%
D37*
%TO.P,D9,1,K*%
%TO.N,Net-(D9-Pad1)*%
X123952000Y-80328000D03*
%TO.P,D9,2,A*%
%TO.N,Net-(C9-Pad2)*%
X123952000Y-84328000D03*
%TD*%
D19*
%TO.P,U2,1,NO0*%
%TO.N,MUX_CAN_RX*%
X139329838Y-106215142D03*
%TO.P,U2,2,NO1*%
X139329838Y-106715143D03*
%TO.P,U2,3,NO2*%
%TO.N,SW_CAN_RX*%
X139329838Y-107215143D03*
%TO.P,U2,4,GND*%
%TO.N,GND*%
X139329838Y-107715144D03*
%TO.P,U2,5,IN2*%
%TO.N,CAN_SEL1*%
X142073038Y-107715144D03*
%TO.P,U2,6,IN1*%
%TO.N,CAN_SEL0*%
X142073038Y-107215143D03*
%TO.P,U2,7,COM*%
%TO.N,CAN_RX*%
X142073038Y-106715143D03*
%TO.P,U2,8,V+*%
%TO.N,+3V3*%
X142073038Y-106215142D03*
%TD*%
D38*
%TO.P,U20,1,\u002ASS0/GPIO0*%
%TO.N,~{CAN_CS}*%
X157067250Y-108469001D03*
%TO.P,U20,2,\u002ASS1/GPIO1*%
%TO.N,unconnected-(U20-Pad2)*%
X157067250Y-109118999D03*
%TO.P,U20,3,\u002ARESET*%
%TO.N,~{RESET}*%
X157067250Y-109769001D03*
%TO.P,U20,4,VSS*%
%TO.N,GND*%
X157067250Y-110418999D03*
%TO.P,U20,5,MISO*%
%TO.N,MISO*%
X157067250Y-111068998D03*
%TO.P,U20,6,MOSI*%
%TO.N,MOSI*%
X157067250Y-111718999D03*
%TO.P,U20,7,SDA*%
%TO.N,SDA*%
X157067250Y-112368998D03*
%TO.P,U20,8,SCL*%
%TO.N,SCL*%
X157067250Y-113018999D03*
%TO.P,U20,9,\u002AINT*%
%TO.N,~{SPI_INT}*%
X162972750Y-113018999D03*
%TO.P,U20,10,\u002ASS2/GPIO2*%
%TO.N,unconnected-(U20-Pad10)*%
X162972750Y-112369001D03*
%TO.P,U20,11,SPICLK*%
%TO.N,SCK*%
X162972750Y-111718999D03*
%TO.P,U20,12,VDD*%
%TO.N,+3V3*%
X162972750Y-111069001D03*
%TO.P,U20,13,\u002ASS3/GPIO3*%
%TO.N,unconnected-(U20-Pad13)*%
X162972750Y-110419002D03*
%TO.P,U20,14,A0*%
%TO.N,GND*%
X162972750Y-109769001D03*
%TO.P,U20,15,A1*%
X162972750Y-109119002D03*
%TO.P,U20,16,A2*%
X162972750Y-108469001D03*
%TD*%
D18*
%TO.P,R21,1*%
%TO.N,Net-(D9-Pad1)*%
X120523000Y-79756000D03*
%TO.P,R21,2*%
%TO.N,Net-(D10-Pad1)*%
X120523000Y-81756000D03*
%TD*%
D21*
%TO.P,C28,1*%
%TO.N,V_J1850*%
X146304000Y-92434500D03*
%TO.P,C28,2*%
%TO.N,GND*%
X146304000Y-94509500D03*
%TD*%
D34*
%TO.P,Q5,1,B*%
%TO.N,Net-(Q5-Pad1)*%
X118521000Y-75758000D03*
%TO.P,Q5,2,E*%
%TO.N,Net-(Q5-Pad2)*%
X118521000Y-77658000D03*
%TO.P,Q5,3,C*%
%TO.N,Net-(D9-Pad1)*%
X120396000Y-76708000D03*
%TD*%
D20*
%TO.P,Q8,1,G*%
%TO.N,PWR_CTRL*%
X128524000Y-79314000D03*
%TO.P,Q8,2,S*%
%TO.N,+12V_NOSW*%
X126624000Y-79314000D03*
%TO.P,Q8,3,D*%
%TO.N,+12V*%
X127574000Y-81189000D03*
%TD*%
D39*
%TO.P,Q15,1,G*%
%TO.N,Net-(Q15-Pad1)*%
X165674000Y-86789500D03*
%TO.P,Q15,2,S*%
%TO.N,GND*%
X167574000Y-86789500D03*
%TO.P,Q15,3,D*%
%TO.N,Net-(Q17-Pad3)*%
X166624000Y-84914500D03*
%TD*%
D32*
%TO.P,Q1,1,G*%
%TO.N,+3V3*%
X133525500Y-112710000D03*
%TO.P,Q1,2,S*%
%TO.N,MUX_CAN_TX*%
X133525500Y-110810000D03*
%TO.P,Q1,3,D*%
%TO.N,CAN_TX_5V*%
X131650500Y-111760000D03*
%TD*%
D22*
%TO.P,C8,1*%
%TO.N,GND*%
X137160000Y-81301500D03*
%TO.P,C8,2*%
%TO.N,+3V3*%
X137160000Y-79226500D03*
%TD*%
D32*
%TO.P,Q14,1,G*%
%TO.N,J1850_TX*%
X158339000Y-91882000D03*
%TO.P,Q14,2,S*%
%TO.N,GND*%
X158339000Y-89982000D03*
%TO.P,Q14,3,D*%
%TO.N,Net-(Q16-Pad1)*%
X156464000Y-90932000D03*
%TD*%
D12*
%TO.P,U14,1*%
%TO.N,VPW_RX*%
X163390500Y-75651000D03*
%TO.P,U14,2,-*%
%TO.N,Net-(R27-Pad2)*%
X163390500Y-75001000D03*
%TO.P,U14,3,+*%
%TO.N,Net-(D13-Pad1)*%
X163390500Y-74351000D03*
%TO.P,U14,4,V-*%
%TO.N,GND*%
X163390500Y-73701000D03*
%TO.P,U14,5,+*%
%TO.N,Net-(D12-Pad1)*%
X157665500Y-73701000D03*
%TO.P,U14,6,-*%
%TO.N,Net-(D12-Pad2)*%
X157665500Y-74351000D03*
%TO.P,U14,7*%
%TO.N,PWM_RX*%
X157665500Y-75001000D03*
%TO.P,U14,8,V+*%
%TO.N,+3V3*%
X157665500Y-75651000D03*
%TD*%
D15*
%TO.P,R16,1*%
%TO.N,Net-(D6-Pad1)*%
X135144000Y-97536000D03*
%TO.P,R16,2*%
%TO.N,Net-(C5-Pad2)*%
X137144000Y-97536000D03*
%TD*%
D40*
%TO.P,J3,0*%
%TO.N,GND*%
X118633342Y-110765651D03*
X118633342Y-85765651D03*
D41*
%TO.P,J3,1*%
%TO.N,SW_CAN*%
X120053342Y-102580651D03*
D42*
%TO.P,J3,2*%
%TO.N,J1850_BUS+*%
X120053342Y-100290651D03*
%TO.P,J3,3*%
%TO.N,MS_CAN_HI*%
X120053342Y-98000651D03*
%TO.P,J3,4*%
%TO.N,GND*%
X120053342Y-95710651D03*
%TO.P,J3,5*%
X120053342Y-93420651D03*
%TO.P,J3,6*%
%TO.N,HS_CAN_HI*%
X118073342Y-103725651D03*
%TO.P,J3,7*%
%TO.N,K_LINE*%
X118073342Y-101435651D03*
%TO.P,J3,8*%
%TO.N,unconnected-(J3-Pad8)*%
X118073342Y-99145651D03*
%TO.P,J3,9*%
%TO.N,J1850_BUS-*%
X118073342Y-96855651D03*
%TO.P,J3,10*%
%TO.N,MS_CAN_LO*%
X118073342Y-94565651D03*
%TO.P,J3,11*%
%TO.N,unconnected-(J3-Pad11)*%
X116093342Y-102580651D03*
%TO.P,J3,12*%
%TO.N,unconnected-(J3-Pad12)*%
X116093342Y-100290651D03*
%TO.P,J3,13*%
%TO.N,HS_CAN_LO*%
X116093342Y-98000651D03*
%TO.P,J3,14*%
%TO.N,L_LINE*%
X116093342Y-95710651D03*
%TO.P,J3,15*%
%TO.N,VBAT*%
X116093342Y-93420651D03*
%TD*%
D23*
%TO.P,C4,1*%
%TO.N,Net-(C4-Pad1)*%
X121920000Y-121539000D03*
%TO.P,C4,2*%
%TO.N,GND*%
X119845000Y-121539000D03*
%TD*%
D39*
%TO.P,Q3,1,G*%
%TO.N,+3V3*%
X126558000Y-115237500D03*
%TO.P,Q3,2,S*%
%TO.N,~{MUX_CAN_EN}*%
X128458000Y-115237500D03*
%TO.P,Q3,3,D*%
%TO.N,~{CAN_EN_5V}*%
X127508000Y-113362500D03*
%TD*%
D43*
%TO.P,X1,1,EN*%
%TO.N,+3V3*%
X176276000Y-104648000D03*
%TO.P,X1,2,GND*%
%TO.N,GND*%
X176276000Y-109728000D03*
%TO.P,X1,3,OUT*%
%TO.N,Net-(U18-Pad15)*%
X180276000Y-109728000D03*
%TO.P,X1,4,Vdd*%
%TO.N,+3V3*%
X180276000Y-104648000D03*
%TD*%
D23*
%TO.P,C5,1*%
%TO.N,GND*%
X140737500Y-100584000D03*
%TO.P,C5,2*%
%TO.N,Net-(C5-Pad2)*%
X138662500Y-100584000D03*
%TD*%
D41*
%TO.P,RN1,1,common*%
%TO.N,+3V3_NOSW*%
X183007000Y-118364000D03*
D44*
%TO.P,RN1,2,R1*%
%TO.N,~{CAN_INT}*%
X185547000Y-118364000D03*
%TO.P,RN1,3,R2*%
%TO.N,~{UART_INT}*%
X188087000Y-118364000D03*
%TO.P,RN1,4,R3*%
%TO.N,~{SPI_INT}*%
X190627000Y-118364000D03*
%TO.P,RN1,5,R4*%
%TO.N,~{J1850_INT}*%
X193167000Y-118364000D03*
%TD*%
D32*
%TO.P,Q17,1,G*%
%TO.N,SAE_VPW*%
X170609500Y-82738000D03*
%TO.P,Q17,2,S*%
%TO.N,J1850_BUS-*%
X170609500Y-80838000D03*
%TO.P,Q17,3,D*%
%TO.N,Net-(Q17-Pad3)*%
X168734500Y-81788000D03*
%TD*%
D45*
%TO.P,C15,1*%
%TO.N,+12V_NOSW*%
X128016000Y-75692000D03*
%TO.P,C15,2*%
%TO.N,GND*%
X134416000Y-75692000D03*
%TD*%
D15*
%TO.P,R9,1*%
%TO.N,CAN_HI*%
X119793000Y-115316000D03*
%TO.P,R9,2*%
%TO.N,Net-(C2-Pad2)*%
X121793000Y-115316000D03*
%TD*%
%TO.P,R15,1*%
%TO.N,Net-(C6-Pad1)*%
X139700000Y-87884000D03*
%TO.P,R15,2*%
%TO.N,GND*%
X141700000Y-87884000D03*
%TD*%
D20*
%TO.P,Q10,1,G*%
%TO.N,SAE_PWM*%
X176210000Y-76786500D03*
%TO.P,Q10,2,S*%
%TO.N,J1850_RX*%
X174310000Y-76786500D03*
%TO.P,Q10,3,D*%
%TO.N,PWM_RX*%
X175260000Y-78661500D03*
%TD*%
D19*
%TO.P,U1,1,NO0*%
%TO.N,MUX_CAN_TX*%
X139344400Y-110501999D03*
%TO.P,U1,2,NO1*%
X139344400Y-111002000D03*
%TO.P,U1,3,NO2*%
%TO.N,SW_CAN_TX*%
X139344400Y-111502000D03*
%TO.P,U1,4,GND*%
%TO.N,GND*%
X139344400Y-112002001D03*
%TO.P,U1,5,IN2*%
%TO.N,CAN_SEL1*%
X142087600Y-112002001D03*
%TO.P,U1,6,IN1*%
%TO.N,CAN_SEL0*%
X142087600Y-111502000D03*
%TO.P,U1,7,COM*%
%TO.N,CAN_TX*%
X142087600Y-111002000D03*
%TO.P,U1,8,V+*%
%TO.N,+3V3*%
X142087600Y-110501999D03*
%TD*%
D15*
%TO.P,R3,1*%
%TO.N,+3V3*%
X126508000Y-117348000D03*
%TO.P,R3,2*%
%TO.N,~{MUX_CAN_EN}*%
X128508000Y-117348000D03*
%TD*%
D46*
%TO.P,U10,1,\u002ARESET*%
%TO.N,~{RESET}*%
X190422999Y-101549200D03*
%TO.P,U10,2,GND*%
%TO.N,GND*%
X191373000Y-101549200D03*
%TO.P,U10,3,\u002AMR*%
%TO.N,Net-(R18-Pad2)*%
X192323001Y-101549200D03*
%TO.P,U10,4,WDI*%
%TO.N,unconnected-(U10-Pad4)*%
X192323001Y-99110800D03*
%TO.P,U10,5,VCC*%
%TO.N,+3V3_NOSW*%
X190422999Y-99110800D03*
%TD*%
D18*
%TO.P,F1,1*%
%TO.N,Net-(C9-Pad2)*%
X122936000Y-86868000D03*
%TO.P,F1,2*%
%TO.N,VBAT*%
X122936000Y-88868000D03*
%TD*%
%TO.P,R57,1*%
%TO.N,Net-(Q20-Pad1)*%
X160171152Y-120568417D03*
%TO.P,R57,2*%
%TO.N,~{ISO_TX}*%
X160171152Y-122568417D03*
%TD*%
D47*
%TO.P,SW1,1,1*%
%TO.N,GND*%
X192405000Y-111252000D03*
X185905000Y-111252000D03*
%TO.P,SW1,2,2*%
%TO.N,Net-(R18-Pad2)*%
X192405000Y-106752000D03*
X185905000Y-106752000D03*
%TD*%
D15*
%TO.P,R7,1*%
%TO.N,+3V3*%
X136160000Y-115316000D03*
%TO.P,R7,2*%
%TO.N,SW_CAN_RX*%
X138160000Y-115316000D03*
%TD*%
D23*
%TO.P,C25,1*%
%TO.N,GND*%
X146833500Y-84836000D03*
%TO.P,C25,2*%
%TO.N,+12V*%
X144758500Y-84836000D03*
%TD*%
D39*
%TO.P,Q11,1,G*%
%TO.N,SAE_PWM*%
X169230000Y-87727000D03*
%TO.P,Q11,2,S*%
%TO.N,GND*%
X171130000Y-87727000D03*
%TO.P,Q11,3,D*%
%TO.N,SAE_VPW*%
X170180000Y-85852000D03*
%TD*%
D13*
%TO.P,R39,1*%
%TO.N,V_J1850*%
X149860000Y-89376000D03*
%TO.P,R39,2*%
%TO.N,Net-(R39-Pad2)*%
X149860000Y-87376000D03*
%TD*%
D15*
%TO.P,R29,1*%
%TO.N,J1850_BUS-*%
X152908000Y-75184000D03*
%TO.P,R29,2*%
%TO.N,Net-(D12-Pad2)*%
X154908000Y-75184000D03*
%TD*%
D45*
%TO.P,C21,1*%
%TO.N,+12V*%
X128372000Y-85852000D03*
%TO.P,C21,2*%
%TO.N,GND*%
X134772000Y-85852000D03*
%TD*%
%TO.P,C20,1*%
%TO.N,+3V3*%
X128372000Y-90424000D03*
%TO.P,C20,2*%
%TO.N,GND*%
X134772000Y-90424000D03*
%TD*%
D48*
%TO.P,D19,1,K*%
%TO.N,GND*%
X160528000Y-86486000D03*
%TO.P,D19,2,A*%
%TO.N,Net-(D19-Pad2)*%
X160528000Y-83186000D03*
%TD*%
D20*
%TO.P,Q19,1,G*%
%TO.N,ISO_K*%
X154874000Y-118950500D03*
%TO.P,Q19,2,S*%
%TO.N,K_LINE*%
X152974000Y-118950500D03*
%TO.P,Q19,3,D*%
%TO.N,ISO_LINE*%
X153924000Y-120825500D03*
%TD*%
D21*
%TO.P,C12,1*%
%TO.N,GND*%
X144272000Y-77194500D03*
%TO.P,C12,2*%
%TO.N,+5V*%
X144272000Y-79269500D03*
%TD*%
D13*
%TO.P,R41,1*%
%TO.N,Net-(Q12-Pad3)*%
X152908000Y-84836000D03*
%TO.P,R41,2*%
%TO.N,GND*%
X152908000Y-82836000D03*
%TD*%
D30*
%TO.P,R51,1*%
%TO.N,Net-(R50-Pad2)*%
X163068000Y-114808000D03*
%TO.P,R51,2*%
%TO.N,GND*%
X161068000Y-114808000D03*
%TD*%
D19*
%TO.P,U5,1,NO0*%
%TO.N,HS_CAN_LO*%
X115468400Y-119010999D03*
%TO.P,U5,2,NO1*%
%TO.N,MS_CAN_LO*%
X115468400Y-119511000D03*
%TO.P,U5,3,NO2*%
%TO.N,unconnected-(U5-Pad3)*%
X115468400Y-120011000D03*
%TO.P,U5,4,GND*%
%TO.N,GND*%
X115468400Y-120511001D03*
%TO.P,U5,5,IN2*%
%TO.N,CAN_SEL1*%
X118211600Y-120511001D03*
%TO.P,U5,6,IN1*%
%TO.N,CAN_SEL0*%
X118211600Y-120011000D03*
%TO.P,U5,7,COM*%
%TO.N,CAN_LO*%
X118211600Y-119511000D03*
%TO.P,U5,8,V+*%
%TO.N,+5V*%
X118211600Y-119010999D03*
%TD*%
D13*
%TO.P,R8,1*%
%TO.N,SW_CAN*%
X124079000Y-122809000D03*
%TO.P,R8,2*%
%TO.N,Net-(R8-Pad2)*%
X124079000Y-120809000D03*
%TD*%
D30*
%TO.P,R17,1*%
%TO.N,Net-(C5-Pad2)*%
X137144000Y-99568000D03*
%TO.P,R17,2*%
%TO.N,GND*%
X135144000Y-99568000D03*
%TD*%
D49*
%TO.P,L1,1,1*%
%TO.N,+3V3*%
X139841000Y-81280000D03*
%TO.P,L1,2,2*%
%TO.N,Net-(L1-Pad2)*%
X141591000Y-81280000D03*
%TD*%
D19*
%TO.P,U4,1,NO0*%
%TO.N,HS_CAN_HI*%
X115214400Y-115454999D03*
%TO.P,U4,2,NO1*%
%TO.N,MS_CAN_HI*%
X115214400Y-115955000D03*
%TO.P,U4,3,NO2*%
%TO.N,unconnected-(U4-Pad3)*%
X115214400Y-116455000D03*
%TO.P,U4,4,GND*%
%TO.N,GND*%
X115214400Y-116955001D03*
%TO.P,U4,5,IN2*%
%TO.N,CAN_SEL1*%
X117957600Y-116955001D03*
%TO.P,U4,6,IN1*%
%TO.N,CAN_SEL0*%
X117957600Y-116455000D03*
%TO.P,U4,7,COM*%
%TO.N,CAN_HI*%
X117957600Y-115955000D03*
%TO.P,U4,8,V+*%
%TO.N,+5V*%
X117957600Y-115454999D03*
%TD*%
D18*
%TO.P,R37,1*%
%TO.N,+3V3*%
X156972000Y-86376000D03*
%TO.P,R37,2*%
%TO.N,SAE_PWM*%
X156972000Y-88376000D03*
%TD*%
D20*
%TO.P,Q21,1,G*%
%TO.N,ISO_L*%
X151318000Y-118950500D03*
%TO.P,Q21,2,S*%
%TO.N,L_LINE*%
X149418000Y-118950500D03*
%TO.P,Q21,3,D*%
%TO.N,ISO_LINE*%
X150368000Y-120825500D03*
%TD*%
D25*
%TO.P,J1,1,1*%
%TO.N,GND*%
X203737999Y-76215001D03*
%TO.P,J1,2,2*%
%TO.N,+3V3_NOSW*%
X204738000Y-76215001D03*
%TO.P,J1,3,3*%
%TO.N,SDA*%
X205737998Y-76215001D03*
%TO.P,J1,4,4*%
%TO.N,SCL*%
X206737999Y-76215001D03*
D26*
%TO.P,J1,5*%
%TO.N,N/C*%
X202438000Y-73690002D03*
%TO.P,J1,6*%
X208037998Y-73690002D03*
%TD*%
D50*
%TO.P,U15,1,ADJ*%
%TO.N,Net-(R39-Pad2)*%
X147804000Y-87250000D03*
D51*
%TO.P,U15,2,VO*%
%TO.N,V_J1850*%
X146304000Y-87337500D03*
D50*
%TO.P,U15,3,VI*%
%TO.N,+12V*%
X144804000Y-87250000D03*
%TD*%
D52*
%TO.P,U19,1,TXCAN*%
%TO.N,CAN_TX*%
X146997500Y-108327000D03*
%TO.P,U19,2,RXCAN*%
%TO.N,CAN_RX*%
X146997500Y-108977000D03*
%TO.P,U19,3,CLKOUT/SOF*%
%TO.N,CAN_SOF*%
X146997500Y-109627000D03*
%TO.P,U19,4,~{TX0RTS}*%
%TO.N,~{CAN_TX0RTS}*%
X146997500Y-110277000D03*
%TO.P,U19,5,~{TX1RTS}*%
%TO.N,~{CAN_TX1RTS}*%
X146997500Y-110927000D03*
%TO.P,U19,6,NC*%
%TO.N,unconnected-(U19-Pad6)*%
X146997500Y-111577000D03*
%TO.P,U19,7,~{TX2RTS}*%
%TO.N,~{CAN_TX2RTS}*%
X146997500Y-112227000D03*
%TO.P,U19,8,OSC2*%
%TO.N,unconnected-(U19-Pad8)*%
X146997500Y-112877000D03*
%TO.P,U19,9,OSC1*%
%TO.N,Net-(U19-Pad9)*%
X146997500Y-113527000D03*
%TO.P,U19,10,VSS*%
%TO.N,GND*%
X146997500Y-114177000D03*
%TO.P,U19,11,~{RX1BF}*%
%TO.N,~{CAN_RX1BF}*%
X152722500Y-114177000D03*
%TO.P,U19,12,~{RX0BF}*%
%TO.N,~{CAN_RX0BF}*%
X152722500Y-113527000D03*
%TO.P,U19,13,~{INT}*%
%TO.N,~{CAN_INT}*%
X152722500Y-112877000D03*
%TO.P,U19,14,SCK*%
%TO.N,SCK*%
X152722500Y-112227000D03*
%TO.P,U19,15,NC*%
%TO.N,unconnected-(U19-Pad15)*%
X152722500Y-111577000D03*
%TO.P,U19,16,SI*%
%TO.N,MOSI*%
X152722500Y-110927000D03*
%TO.P,U19,17,SO*%
%TO.N,MISO*%
X152722500Y-110277000D03*
%TO.P,U19,18,~{CS}*%
%TO.N,~{CAN_CS}*%
X152722500Y-109627000D03*
%TO.P,U19,19,~{RESET}*%
%TO.N,~{RESET}*%
X152722500Y-108977000D03*
%TO.P,U19,20,VDD*%
%TO.N,+3V3*%
X152722500Y-108327000D03*
%TD*%
D18*
%TO.P,R34,1*%
%TO.N,PWM_RX*%
X174752000Y-80788000D03*
%TO.P,R34,2*%
%TO.N,+3V3*%
X174752000Y-82788000D03*
%TD*%
D30*
%TO.P,R33,1*%
%TO.N,+3V3*%
X173720000Y-74168000D03*
%TO.P,R33,2*%
%TO.N,VPW_RX*%
X171720000Y-74168000D03*
%TD*%
D13*
%TO.P,R19,1*%
%TO.N,+3V3_NOSW*%
X187309000Y-103886000D03*
%TO.P,R19,2*%
%TO.N,~{RESET}*%
X187309000Y-101886000D03*
%TD*%
D17*
%TO.P,D16,1,K*%
%TO.N,Net-(D16-Pad1)*%
X162560000Y-81280000D03*
%TO.P,D16,2,A*%
%TO.N,+5V*%
X159260000Y-81280000D03*
%TD*%
D15*
%TO.P,R40,1*%
%TO.N,Net-(R39-Pad2)*%
X148637508Y-84821826D03*
%TO.P,R40,2*%
%TO.N,Net-(Q12-Pad3)*%
X150637508Y-84821826D03*
%TD*%
D53*
%TO.P,U12,1,CE*%
%TO.N,PWR_CTRL*%
X139319000Y-77282040D03*
%TO.P,U12,2,GND*%
%TO.N,GND*%
X139319000Y-78232000D03*
%TO.P,U12,3,BAT*%
%TO.N,+3V3*%
X139319000Y-79181960D03*
%TO.P,U12,4,VOUT*%
%TO.N,+5V*%
X142113000Y-79181960D03*
%TO.P,U12,5,LX*%
%TO.N,Net-(L1-Pad2)*%
X142113000Y-77282040D03*
%TD*%
D54*
%TO.P,L2,1,1*%
%TO.N,Net-(C11-Pad1)*%
X112715000Y-75519500D03*
%TO.P,L2,2,2*%
%TO.N,+3V3_NOSW*%
X112715000Y-73769500D03*
%TD*%
D13*
%TO.P,R1,1*%
%TO.N,+3V3*%
X135636000Y-112760000D03*
%TO.P,R1,2*%
%TO.N,MUX_CAN_TX*%
X135636000Y-110760000D03*
%TD*%
D15*
%TO.P,R10,1*%
%TO.N,CAN_LO*%
X119904000Y-119507000D03*
%TO.P,R10,2*%
%TO.N,Net-(C4-Pad1)*%
X121904000Y-119507000D03*
%TD*%
D13*
%TO.P,R44,1*%
%TO.N,J1850_TX*%
X160528000Y-91948000D03*
%TO.P,R44,2*%
%TO.N,GND*%
X160528000Y-89948000D03*
%TD*%
D55*
%TO.P,U17,1*%
%TO.N,~{ISO_RX}*%
X165567000Y-117025500D03*
%TO.P,U17,2,-*%
%TO.N,Net-(D20-Pad1)*%
X164917000Y-117025500D03*
%TO.P,U17,3,+*%
%TO.N,Net-(R50-Pad2)*%
X164267000Y-117025500D03*
%TO.P,U17,4,V-*%
%TO.N,GND*%
X163617000Y-117025500D03*
%TO.P,U17,5,+*%
X163617000Y-122750500D03*
%TO.P,U17,6,-*%
X164267000Y-122750500D03*
%TO.P,U17,7*%
%TO.N,unconnected-(U17-Pad7)*%
X164917000Y-122750500D03*
%TO.P,U17,8,V+*%
%TO.N,+3V3*%
X165567000Y-122750500D03*
%TD*%
D30*
%TO.P,R30,1*%
%TO.N,Net-(D12-Pad1)*%
X154940000Y-73152000D03*
%TO.P,R30,2*%
%TO.N,J1850_BUS+*%
X152940000Y-73152000D03*
%TD*%
D56*
%TO.P,C16,1*%
%TO.N,+5V*%
X149352000Y-74168000D03*
%TO.P,C16,2*%
%TO.N,GND*%
X142952000Y-74168000D03*
%TD*%
D43*
%TO.P,X2,1,EN*%
%TO.N,+3V3*%
X147288000Y-121920000D03*
%TO.P,X2,2,GND*%
%TO.N,GND*%
X147288000Y-116840000D03*
%TO.P,X2,3,OUT*%
%TO.N,Net-(U19-Pad9)*%
X143288000Y-116840000D03*
%TO.P,X2,4,Vdd*%
%TO.N,+3V3*%
X143288000Y-121920000D03*
%TD*%
D33*
%TO.P,U8,1,A0*%
%TO.N,GND*%
X179589000Y-101414500D03*
%TO.P,U8,2,A1*%
X180239000Y-101414500D03*
%TO.P,U8,3,A2*%
X180889000Y-101414500D03*
%TO.P,U8,4,P0*%
%TO.N,ISO_K*%
X181539000Y-101414500D03*
%TO.P,U8,5,P1*%
%TO.N,PWR_CTRL*%
X182189000Y-101414500D03*
%TO.P,U8,6,P2*%
%TO.N,SAE_PWM*%
X182839000Y-101414500D03*
%TO.P,U8,7,P3*%
%TO.N,SW_CAN_LOAD*%
X183489000Y-101414500D03*
%TO.P,U8,8,GND*%
%TO.N,GND*%
X184139000Y-101414500D03*
%TO.P,U8,9,P4*%
%TO.N,SW_CAN_MODE1*%
X184139000Y-95689500D03*
%TO.P,U8,10,P5*%
%TO.N,SW_CAN_MODE0*%
X183489000Y-95689500D03*
%TO.P,U8,11,P6*%
%TO.N,CAN_SEL1*%
X182839000Y-95689500D03*
%TO.P,U8,12,P7*%
%TO.N,CAN_SEL0*%
X182189000Y-95689500D03*
%TO.P,U8,13,~{INT}*%
%TO.N,unconnected-(U8-Pad13)*%
X181539000Y-95689500D03*
%TO.P,U8,14,SCL*%
%TO.N,SCL*%
X180889000Y-95689500D03*
%TO.P,U8,15,SDA*%
%TO.N,SDA*%
X180239000Y-95689500D03*
%TO.P,U8,16,VDD*%
%TO.N,+3V3_NOSW*%
X179589000Y-95689500D03*
%TD*%
D16*
%TO.P,RN3,1,R1.1*%
%TO.N,~{CAN_RX0BF}*%
X163133405Y-101185950D03*
%TO.P,RN3,2,R2.1*%
%TO.N,~{CAN_RX1BF}*%
X163133405Y-100385950D03*
%TO.P,RN3,3,R3.1*%
%TO.N,~{CAN_TX0RTS}*%
X163133405Y-99585951D03*
%TO.P,RN3,4,R4.1*%
%TO.N,~{CAN_TX1RTS}*%
X163133405Y-98785950D03*
%TO.P,RN3,5,R5.1*%
%TO.N,~{CAN_TX2RTS}*%
X163133405Y-97985952D03*
%TO.P,RN3,6,R6.1*%
%TO.N,Net-(RN3-Pad6)*%
X163133405Y-97185951D03*
%TO.P,RN3,7,R7.1*%
%TO.N,~{RESET}*%
X163133405Y-96385950D03*
%TO.P,RN3,8,R8.1*%
%TO.N,CAN_SOF*%
X163133405Y-95585952D03*
%TO.P,RN3,9,R8.2*%
%TO.N,GND*%
X161050605Y-95585952D03*
%TO.P,RN3,10,R7.2*%
%TO.N,+3V3_NOSW*%
X161050605Y-96385952D03*
%TO.P,RN3,11,R6.2*%
X161050605Y-97185951D03*
%TO.P,RN3,12,R5.2*%
X161050605Y-97985952D03*
%TO.P,RN3,13,R4.2*%
X161050605Y-98785950D03*
%TO.P,RN3,14,R3.2*%
X161050605Y-99585951D03*
%TO.P,RN3,15,R2.2*%
X161050605Y-100385952D03*
%TO.P,RN3,16,R1.2*%
X161050605Y-101185950D03*
%TD*%
D52*
%TO.P,U18,1,VDD*%
%TO.N,+3V3*%
X170365500Y-111517000D03*
%TO.P,U18,2,A0/~{CS}*%
%TO.N,GND*%
X170365500Y-112167000D03*
%TO.P,U18,3,A1/SI*%
X170365500Y-112817000D03*
%TO.P,U18,4,SO*%
%TO.N,unconnected-(U18-Pad4)*%
X170365500Y-113467000D03*
%TO.P,U18,5,SCL/SCLK*%
%TO.N,SCL*%
X170365500Y-114117000D03*
%TO.P,U18,6,SDA*%
%TO.N,SDA*%
X170365500Y-114767000D03*
%TO.P,U18,7,~{IRQ}*%
%TO.N,~{UART_INT}*%
X170365500Y-115417000D03*
%TO.P,U18,8,I2C/~{SPI}*%
%TO.N,+3V3*%
X170365500Y-116067000D03*
%TO.P,U18,9,VSS*%
%TO.N,GND*%
X176090500Y-116067000D03*
%TO.P,U18,10,~{RTS}*%
%TO.N,Net-(R56-Pad2)*%
X176090500Y-115417000D03*
%TO.P,U18,11,~{CTS}*%
X176090500Y-114767000D03*
%TO.P,U18,12,TX*%
%TO.N,~{ISO_TX}*%
X176090500Y-114117000D03*
%TO.P,U18,13,RX*%
%TO.N,~{ISO_RX}*%
X176090500Y-113467000D03*
%TO.P,U18,14,~{RESET}*%
%TO.N,~{RESET}*%
X176090500Y-112817000D03*
%TO.P,U18,15,XTAL1*%
%TO.N,Net-(U18-Pad15)*%
X176090500Y-112167000D03*
%TO.P,U18,16,XTAL2*%
%TO.N,unconnected-(U18-Pad16)*%
X176090500Y-111517000D03*
%TD*%
D30*
%TO.P,R12,1*%
%TO.N,+3V3_NOSW*%
X205197998Y-114823001D03*
%TO.P,R12,2*%
%TO.N,SCL*%
X203197998Y-114823001D03*
%TD*%
D47*
%TO.P,SW2,1,1*%
%TO.N,GND*%
X182372000Y-73660000D03*
X188872000Y-73660000D03*
%TO.P,SW2,2,2*%
%TO.N,~{PIC_BL_ENTRY}*%
X188872000Y-78160000D03*
X182372000Y-78160000D03*
%TD*%
D23*
%TO.P,C14,1*%
%TO.N,+3V3_NOSW*%
X111527500Y-73152000D03*
%TO.P,C14,2*%
%TO.N,GND*%
X109452500Y-73152000D03*
%TD*%
D15*
%TO.P,R31,1*%
%TO.N,J1850_RX*%
X176800000Y-74168000D03*
%TO.P,R31,2*%
%TO.N,GND*%
X178800000Y-74168000D03*
%TD*%
D18*
%TO.P,R49,1*%
%TO.N,J1850_BUS-*%
X172720000Y-80788000D03*
%TO.P,R49,2*%
%TO.N,GND*%
X172720000Y-82788000D03*
%TD*%
D57*
%TO.P,U11,1,CH1+*%
%TO.N,Net-(C6-Pad1)*%
X137500000Y-93488000D03*
%TO.P,U11,2,CH1-*%
%TO.N,GND*%
X137500000Y-93988000D03*
%TO.P,U11,3,Vss*%
X137500000Y-94488000D03*
%TO.P,U11,4,CH2+*%
%TO.N,Net-(C5-Pad2)*%
X137500000Y-94988000D03*
%TO.P,U11,5,CH2-*%
%TO.N,GND*%
X137500000Y-95488000D03*
%TO.P,U11,6,Vdd*%
%TO.N,+3V3*%
X141900000Y-95488000D03*
%TO.P,U11,7,SDA*%
%TO.N,SDA*%
X141900000Y-94988000D03*
%TO.P,U11,8,SCL*%
%TO.N,SCL*%
X141900000Y-94488000D03*
%TO.P,U11,9,A0*%
%TO.N,GND*%
X141900000Y-93988000D03*
%TO.P,U11,10,A1*%
X141900000Y-93488000D03*
%TD*%
D32*
%TO.P,Q2,1,G*%
%TO.N,+3V3*%
X133447000Y-108646000D03*
%TO.P,Q2,2,S*%
%TO.N,MUX_CAN_RX*%
X133447000Y-106746000D03*
%TO.P,Q2,3,D*%
%TO.N,CAN_RX_5V*%
X131572000Y-107696000D03*
%TD*%
D39*
%TO.P,Q9,1,G*%
%TO.N,SAE_VPW*%
X170754000Y-78661500D03*
%TO.P,Q9,2,S*%
%TO.N,J1850_RX*%
X172654000Y-78661500D03*
%TO.P,Q9,3,D*%
%TO.N,VPW_RX*%
X171704000Y-76786500D03*
%TD*%
D58*
%TO.P,U7,1,TXD*%
%TO.N,CAN_TX_5V*%
X129058000Y-110195000D03*
%TO.P,U7,2,VSS*%
%TO.N,GND*%
X129058000Y-109545000D03*
%TO.P,U7,3,VDD*%
%TO.N,+5V*%
X129058000Y-108895000D03*
%TO.P,U7,4,RXD*%
%TO.N,CAN_RX_5V*%
X129058000Y-108245000D03*
%TO.P,U7,5,NC*%
%TO.N,unconnected-(U7-Pad5)*%
X125958000Y-108245000D03*
%TO.P,U7,6,CANL*%
%TO.N,CAN_LO*%
X125958000Y-108895000D03*
%TO.P,U7,7,CANH*%
%TO.N,CAN_HI*%
X125958000Y-109545000D03*
%TO.P,U7,8,S*%
%TO.N,~{CAN_EN_5V}*%
X125958000Y-110195000D03*
D59*
%TO.P,U7,9,VSS*%
%TO.N,GND*%
X127508000Y-109220000D03*
%TD*%
D30*
%TO.P,R32,1*%
%TO.N,Net-(D13-Pad1)*%
X161274000Y-72898000D03*
%TO.P,R32,2*%
%TO.N,J1850_BUS+*%
X159274000Y-72898000D03*
%TD*%
D32*
%TO.P,Q12,1,G*%
%TO.N,SAE_PWM*%
X154861500Y-88326000D03*
%TO.P,Q12,2,S*%
%TO.N,GND*%
X154861500Y-86426000D03*
%TO.P,Q12,3,D*%
%TO.N,Net-(Q12-Pad3)*%
X152986500Y-87376000D03*
%TD*%
D13*
%TO.P,R52,1*%
%TO.N,Net-(D20-Pad1)*%
X166116000Y-115300000D03*
%TO.P,R52,2*%
%TO.N,ISO_LINE*%
X166116000Y-113300000D03*
%TD*%
D60*
%TO.N,UPDI*%
X183100000Y-81200000D03*
%TO.N,+3V3_NOSW*%
X206900000Y-83900000D03*
X193400000Y-79000000D03*
X185700000Y-73600000D03*
%TO.N,+3V3*%
X192800000Y-91500000D03*
%TO.N,SAE_PWM*%
X190400000Y-84200000D03*
X177500000Y-89100000D03*
X177500000Y-82500000D03*
%TO.N,SDA*%
X180100000Y-81000000D03*
X182200000Y-86800000D03*
%TO.N,SCL*%
X181356000Y-87413500D03*
X179900000Y-82100000D03*
%TO.N,+3V3_NOSW*%
X185700000Y-85400000D03*
%TO.N,~{J1850_INT}*%
X190881000Y-89919000D03*
X185500000Y-86900000D03*
%TO.N,GND*%
X180200000Y-85800000D03*
X164592000Y-73660000D03*
X115572000Y-82548000D03*
X142240000Y-100584000D03*
X114046000Y-120523000D03*
X191881000Y-100330000D03*
X170180000Y-88900000D03*
X137668000Y-77724000D03*
X141224000Y-91440000D03*
X184912000Y-103124000D03*
X158496000Y-88900000D03*
X114808000Y-77089000D03*
X109452500Y-74189500D03*
X115214400Y-117576600D03*
X134620000Y-79248000D03*
X178308000Y-109855000D03*
X142240000Y-92456000D03*
X170180000Y-100076000D03*
X165100000Y-103124000D03*
X162560000Y-123952000D03*
X141224000Y-89408000D03*
X135636000Y-81280000D03*
X169799000Y-122132201D03*
X176276000Y-116840000D03*
X158496000Y-110744000D03*
X118745000Y-121539000D03*
X152908000Y-81280000D03*
X140716000Y-112776000D03*
X140716000Y-108204000D03*
X133096000Y-101092000D03*
X122794843Y-123319728D03*
X168656000Y-112268000D03*
X180340000Y-74168000D03*
X158968297Y-115280297D03*
X148336000Y-114300000D03*
X166624000Y-87376000D03*
X139192000Y-94488000D03*
X132588000Y-85852000D03*
X146812000Y-83312000D03*
X173736000Y-84328000D03*
X180340000Y-102616000D03*
X124206000Y-112268000D03*
X127518750Y-107198750D03*
X162052000Y-117348000D03*
X145796000Y-96012000D03*
X129032000Y-123444000D03*
X175768000Y-102108000D03*
X207769998Y-119903001D03*
X130048000Y-117856000D03*
X160020000Y-95795500D03*
X144272000Y-75692000D03*
X160528000Y-85344000D03*
X156464000Y-118872000D03*
X165481000Y-109982000D03*
X155448000Y-84836000D03*
%TO.N,SW_CAN*%
X125349000Y-122809000D03*
X123952000Y-117856000D03*
%TO.N,+12V_NOSW*%
X114649500Y-79343500D03*
X125476000Y-78486000D03*
%TO.N,+12V*%
X161036000Y-117856000D03*
X137668000Y-83312000D03*
X109220000Y-91313000D03*
X127574000Y-83246000D03*
X115316000Y-90678000D03*
X143256000Y-84836000D03*
X150876000Y-123444000D03*
X157988000Y-118872000D03*
%TO.N,+3V3_NOSW*%
X190373000Y-96774000D03*
X165608000Y-91948000D03*
X206245998Y-117871001D03*
X161050605Y-102601395D03*
X112649000Y-72136000D03*
X191008000Y-73152000D03*
X180340000Y-91948000D03*
X204800000Y-74300000D03*
X110617000Y-79629000D03*
X109877000Y-76835000D03*
X164084000Y-102616000D03*
X188833000Y-103886000D03*
%TO.N,+3V3*%
X149352000Y-122936000D03*
X143764000Y-96012000D03*
X114935000Y-73279000D03*
X167132000Y-122211500D03*
X138557000Y-80518000D03*
X162560000Y-83566000D03*
X156972000Y-84963000D03*
X153416000Y-105955500D03*
X175255701Y-84323701D03*
X133604000Y-109728000D03*
X141732000Y-109728000D03*
X160020000Y-105664000D03*
X175260000Y-73152000D03*
X170180000Y-116840000D03*
X156972000Y-113796301D03*
X133604000Y-115316000D03*
X134620000Y-114300000D03*
X155956000Y-75692000D03*
X164592000Y-111252000D03*
X176784000Y-117856000D03*
X168148000Y-84328000D03*
X130556000Y-90424000D03*
X125222000Y-117348000D03*
X141732000Y-105156000D03*
X170180000Y-110236000D03*
X178308000Y-104648000D03*
%TO.N,VBAT*%
X125222000Y-119761000D03*
X137160000Y-84328000D03*
X120904000Y-89408000D03*
%TO.N,V_J1850*%
X151384000Y-88900000D03*
%TO.N,K_LINE*%
X114427000Y-103505000D03*
X147574000Y-105156000D03*
X153928299Y-116327701D03*
X149103839Y-112907866D03*
X133608299Y-102611701D03*
%TO.N,L_LINE*%
X150368000Y-116332000D03*
X144780000Y-112776000D03*
X145288000Y-105156000D03*
X118110000Y-106680000D03*
X134112000Y-104140000D03*
X111633000Y-101854000D03*
%TO.N,J1850_BUS+*%
X157353000Y-72898000D03*
X155956000Y-92456000D03*
X126111000Y-98552000D03*
X151384000Y-73152000D03*
X110744000Y-99949000D03*
X155448000Y-81788000D03*
X147320000Y-98552000D03*
%TO.N,J1850_BUS-*%
X112644701Y-95880701D03*
X166624000Y-79756000D03*
X133096000Y-96012000D03*
X147767685Y-91252640D03*
X151130000Y-82423000D03*
X153223500Y-77343000D03*
X158496000Y-78232000D03*
%TO.N,HS_CAN_HI*%
X115189000Y-114554000D03*
%TO.N,HS_CAN_LO*%
X114386893Y-118137169D03*
X115316000Y-104521000D03*
%TO.N,MS_CAN_HI*%
X123317000Y-105537000D03*
X123317000Y-101219000D03*
X122809000Y-97917000D03*
X113792000Y-115951000D03*
%TO.N,MS_CAN_LO*%
X121920000Y-94488000D03*
X112903000Y-118491000D03*
X112357500Y-101073519D03*
%TO.N,+5V*%
X151383989Y-74676000D03*
X129032000Y-102616000D03*
X157988000Y-79756000D03*
X118211600Y-118389400D03*
X130048000Y-109220000D03*
X130048000Y-112776000D03*
X164592000Y-77724000D03*
X117983000Y-114681000D03*
X150600500Y-79269500D03*
%TO.N,SDA*%
X144180394Y-93278560D03*
X159004000Y-111760000D03*
X182372000Y-91948000D03*
X159004000Y-95795500D03*
X159004000Y-103632000D03*
X150811185Y-93270715D03*
X191389000Y-93255500D03*
X165500603Y-93273451D03*
X204213998Y-88407001D03*
X205737998Y-77739001D03*
X180344712Y-93290947D03*
X204213998Y-118379001D03*
X161036000Y-93273462D03*
X204213998Y-109235001D03*
X168152299Y-114803701D03*
X204213998Y-93263088D03*
%TO.N,SCL*%
X204213998Y-82311001D03*
X143256000Y-93980000D03*
X162560000Y-93997962D03*
X206753998Y-78247001D03*
X203197998Y-93995001D03*
X161668398Y-110429205D03*
X166624000Y-93980000D03*
X181356000Y-93980000D03*
X168156598Y-113783402D03*
X203197998Y-89423001D03*
X151892000Y-93980000D03*
X203197998Y-117871001D03*
X190500000Y-93980000D03*
X158496000Y-113792000D03*
X203197998Y-110251001D03*
%TO.N,~{RESET}*%
X154286250Y-108566250D03*
X189849000Y-100330000D03*
X161290000Y-108585000D03*
X187071000Y-100457000D03*
X186055000Y-88138000D03*
X180200000Y-88100000D03*
X158496000Y-109220000D03*
X187579000Y-108585000D03*
X162052000Y-96520000D03*
%TO.N,CAN_TX_5V*%
X130302000Y-110490000D03*
%TO.N,CAN_RX_5V*%
X130048000Y-107696000D03*
%TO.N,~{CAN_EN_5V}*%
X125984000Y-113284000D03*
%TO.N,SW_CAN_LOAD*%
X168656000Y-119888000D03*
X175895000Y-119888000D03*
X142748000Y-119888000D03*
X183489000Y-107087000D03*
%TO.N,PWR_CTRL*%
X116078000Y-76835000D03*
X177292000Y-100584000D03*
X137668000Y-76708000D03*
X174942500Y-91249500D03*
X128524000Y-77566500D03*
X142693640Y-81707545D03*
X151388307Y-90419693D03*
%TO.N,SAE_VPW*%
X170688000Y-84328000D03*
X169672000Y-78740000D03*
%TO.N,J1850_RX*%
X175260000Y-75184000D03*
X178300000Y-84124500D03*
%TO.N,SAE_PWM*%
X182372000Y-103632000D03*
X167921974Y-88562626D03*
X184300000Y-89100000D03*
X158496000Y-87884000D03*
X185420000Y-95504000D03*
%TO.N,PWM_RX*%
X176276000Y-80264000D03*
X159004000Y-75184000D03*
%TO.N,J1850_TX*%
X162560000Y-91948000D03*
%TO.N,ISO_K*%
X177292000Y-101600000D03*
X169545000Y-105918000D03*
X159004000Y-116840000D03*
%TO.N,ISO_L*%
X154940000Y-115316000D03*
%TO.N,ISO_LINE*%
X159512000Y-118872000D03*
X160528000Y-116840000D03*
X156464000Y-122428000D03*
X158496000Y-122428000D03*
X164632817Y-114202848D03*
%TO.N,SW_CAN_MODE0*%
X177241675Y-97074993D03*
X173228000Y-107188000D03*
X136647701Y-121407701D03*
%TO.N,SW_CAN_MODE1*%
X172503500Y-109220000D03*
X136652000Y-120396000D03*
X177293514Y-98073151D03*
%TO.N,SW_CAN_RX*%
X138146136Y-107696000D03*
X141224000Y-116332000D03*
%TO.N,CAN_LO*%
X120142000Y-117983000D03*
X124041500Y-108188000D03*
%TO.N,~{ISO_RX}*%
X167640000Y-117348000D03*
X171704000Y-114300000D03*
%TO.N,~{ISO_TX}*%
X174244000Y-114591500D03*
X162052000Y-122936000D03*
%TO.N,~{UART_INT}*%
X171704000Y-115316000D03*
%TO.N,~{SPI_INT}*%
X175895000Y-121920000D03*
X161544000Y-113284000D03*
X168656000Y-117856000D03*
%TO.N,CAN_SEL1*%
X144780000Y-107696000D03*
X171704000Y-107696000D03*
X117745497Y-121539000D03*
X177202842Y-96024327D03*
X117348000Y-117602000D03*
X135636000Y-118364000D03*
X144780000Y-111252000D03*
%TO.N,CAN_SEL0*%
X170815000Y-106934000D03*
X143764000Y-107188000D03*
X116586000Y-116459000D03*
X135636000Y-117348000D03*
X143764000Y-111252000D03*
X116840000Y-120396000D03*
X177292000Y-94996000D03*
%TO.N,CAN_SOF*%
X162052000Y-95504000D03*
X150241000Y-104521000D03*
%TO.N,~{CAN_TX2RTS}*%
X150372299Y-105668299D03*
X162052000Y-97536000D03*
X148336000Y-112268000D03*
%TO.N,~{CAN_TX1RTS}*%
X151388299Y-105668299D03*
X149352000Y-111760000D03*
X162051126Y-98553100D03*
%TO.N,~{CAN_TX0RTS}*%
X162052000Y-99568000D03*
X152404299Y-105668299D03*
%TO.N,~{CAN_RX1BF}*%
X155448000Y-104648000D03*
X155642456Y-113986456D03*
X162052000Y-100584000D03*
%TO.N,~{CAN_RX0BF}*%
X154935701Y-113279701D03*
X155448000Y-105664000D03*
X162052000Y-101600000D03*
%TO.N,~{CAN_INT}*%
X174371000Y-120904000D03*
X151384000Y-113284000D03*
X168656000Y-118872000D03*
%TO.N,SW_CAN_TX*%
X141224000Y-117856000D03*
X138171987Y-111759210D03*
%TO.N,SCK*%
X154228946Y-112572946D03*
X160629248Y-112561776D03*
%TO.N,Net-(C13-Pad2)*%
X121920000Y-75692000D03*
%TO.N,Net-(D12-Pad2)*%
X156154906Y-74594520D03*
%TO.N,Net-(D20-Pad1)*%
X167635701Y-116336299D03*
%TO.N,Net-(C9-Pad2)*%
X124773000Y-86868000D03*
%TO.N,Net-(C11-Pad1)*%
X113858000Y-75787500D03*
%TO.N,Net-(C11-Pad2)*%
X110556000Y-78327500D03*
%TO.N,Net-(D13-Pad1)*%
X161919245Y-74060124D03*
%TO.N,Net-(D12-Pad1)*%
X156164677Y-73152000D03*
%TO.N,Net-(Q5-Pad2)*%
X117856000Y-76708000D03*
%TO.N,Net-(Q16-Pad1)*%
X156662755Y-91749245D03*
%TO.N,Net-(Q15-Pad1)*%
X160528000Y-88392000D03*
X164592000Y-88392000D03*
%TO.N,Net-(R27-Pad2)*%
X164614301Y-74926500D03*
%TO.N,Net-(R50-Pad2)*%
X164267000Y-115133000D03*
%TD*%
D61*
%TO.N,AVR_TX*%
X187262500Y-81450000D02*
X187272500Y-81440000D01*
X187272500Y-81440000D02*
X198800000Y-81440000D01*
%TO.N,AVR_RX*%
X187262500Y-82100000D02*
X196920000Y-82100000D01*
X196920000Y-82100000D02*
X198800000Y-83980000D01*
%TO.N,UPDI*%
X183100000Y-81876041D02*
X183100000Y-81200000D01*
X182226041Y-82750000D02*
X183100000Y-81876041D01*
X181537500Y-82750000D02*
X182226041Y-82750000D01*
%TO.N,GND*%
X203197998Y-77739001D02*
X202620999Y-77739001D01*
X202620999Y-77739001D02*
X201600000Y-78760000D01*
%TO.N,+3V3_NOSW*%
X204800000Y-74300000D02*
X204800000Y-76153001D01*
X204800000Y-76153001D02*
X204738000Y-76215001D01*
%TO.N,~{J1850_LED}*%
X194450000Y-82750000D02*
X194900000Y-83200000D01*
X187262500Y-82750000D02*
X194450000Y-82750000D01*
X194900000Y-83200000D02*
X194900000Y-84400000D01*
%TO.N,~{AVR_LED}*%
X187262500Y-83400000D02*
X192400000Y-83400000D01*
X192400000Y-83400000D02*
X192700000Y-83700000D01*
X192700000Y-83700000D02*
X192700000Y-84400000D01*
%TO.N,Net-(D15-Pad2)*%
X194900000Y-88100000D02*
X194900000Y-86450000D01*
%TO.N,Net-(D14-Pad2)*%
X192700000Y-88100000D02*
X192700000Y-86450000D01*
%TO.N,+3V3*%
X192700000Y-91400000D02*
X192800000Y-91500000D01*
X192700000Y-90100000D02*
X192700000Y-91400000D01*
X194900000Y-90100000D02*
X192700000Y-90100000D01*
%TO.N,~{RESET}*%
X186055000Y-88138000D02*
X188462000Y-88138000D01*
X188462000Y-88138000D02*
X189200000Y-87400000D01*
X189200000Y-87400000D02*
X189200000Y-85200000D01*
X189200000Y-85200000D02*
X188700000Y-84700000D01*
X188700000Y-84700000D02*
X187262500Y-84700000D01*
%TO.N,SAE_PWM*%
X187262500Y-84050000D02*
X190250000Y-84050000D01*
X190250000Y-84050000D02*
X190400000Y-84200000D01*
X178308000Y-81692000D02*
X177500000Y-82500000D01*
X178308000Y-79692000D02*
X178308000Y-81692000D01*
X178308000Y-79756000D02*
X178308000Y-79692000D01*
X178308000Y-79692000D02*
X178308000Y-77724000D01*
%TO.N,SDA*%
X180100000Y-81000000D02*
X180550000Y-81450000D01*
X180550000Y-81450000D02*
X181537500Y-81450000D01*
X182372000Y-86972000D02*
X182200000Y-86800000D01*
X182372000Y-87376000D02*
X182372000Y-86972000D01*
%TO.N,SCL*%
X181537500Y-82100000D02*
X179900000Y-82100000D01*
%TO.N,SAE_PWM*%
X184300000Y-89100000D02*
X185420000Y-90220000D01*
X185420000Y-90220000D02*
X185420000Y-95504000D01*
%TO.N,~{RESET}*%
X180200000Y-88100000D02*
X174028000Y-88100000D01*
X174028000Y-88100000D02*
X168107000Y-94021000D01*
X168107000Y-94021000D02*
X168107000Y-95689500D01*
%TO.N,+3V3_NOSW*%
X185750000Y-85350000D02*
X185700000Y-85400000D01*
X187262500Y-85350000D02*
X185750000Y-85350000D01*
%TO.N,~{J1850_INT}*%
X190881000Y-91694000D02*
X190881000Y-89919000D01*
X183300000Y-84700000D02*
X185500000Y-86900000D01*
X181537500Y-84700000D02*
X183300000Y-84700000D01*
%TO.N,GND*%
X180650000Y-85350000D02*
X180200000Y-85800000D01*
X181537500Y-85350000D02*
X180650000Y-85350000D01*
%TO.N,J1850_RX*%
X181537500Y-84050000D02*
X178374500Y-84050000D01*
X178374500Y-84050000D02*
X178300000Y-84124500D01*
%TO.N,J1850_TX*%
X181537500Y-83400000D02*
X177204000Y-83400000D01*
X169455489Y-91148511D02*
X163359489Y-91148511D01*
X177204000Y-83400000D02*
X169455489Y-91148511D01*
X163359489Y-91148511D02*
X162560000Y-91948000D01*
%TO.N,GND*%
X128905000Y-123317000D02*
X129032000Y-123444000D01*
X158170999Y-110418999D02*
X158496000Y-110744000D01*
X156530000Y-118938000D02*
X156464000Y-118872000D01*
X169407000Y-101414500D02*
X169407000Y-100849000D01*
X134187389Y-93598657D02*
X134187389Y-91008611D01*
X113599000Y-77068500D02*
X114736000Y-77068500D01*
X165481000Y-109982000D02*
X164618002Y-109119002D01*
X133604000Y-101600000D02*
X133096000Y-101092000D01*
X140737500Y-100584000D02*
X142240000Y-100584000D01*
X203737999Y-77199000D02*
X203197998Y-77739001D01*
X170180000Y-88280500D02*
X170180000Y-88900000D01*
X146774500Y-77194500D02*
X144272000Y-77194500D01*
X144272000Y-75488000D02*
X142952000Y-74168000D01*
X134187389Y-91008611D02*
X134772000Y-90424000D01*
X134772000Y-90424000D02*
X134772000Y-85852000D01*
X138692000Y-93988000D02*
X137500000Y-93988000D01*
X163617000Y-122750500D02*
X164267000Y-122750500D01*
X146812000Y-77232000D02*
X146774500Y-77194500D01*
X137500000Y-95488000D02*
X138499022Y-95488000D01*
X170365500Y-112817000D02*
X170365500Y-112167000D01*
X131216400Y-117590001D02*
X130313999Y-117590001D01*
X127833000Y-109545000D02*
X127508000Y-109220000D01*
X109452500Y-75184000D02*
X109452500Y-74189500D01*
X139344400Y-112002001D02*
X139942001Y-112002001D01*
X191373000Y-100838000D02*
X191881000Y-100330000D01*
X184139000Y-102351000D02*
X184912000Y-103124000D01*
X149352000Y-77194500D02*
X146849500Y-77194500D01*
X123317000Y-113241000D02*
X123317000Y-113157000D01*
X162972750Y-109769001D02*
X162972750Y-109119002D01*
X139319000Y-78232000D02*
X138176000Y-78232000D01*
X148213000Y-114177000D02*
X148336000Y-114300000D01*
X158339000Y-89057000D02*
X158496000Y-88900000D01*
X114736000Y-77068500D02*
X114787500Y-77068500D01*
X157360988Y-115280297D02*
X158968297Y-115280297D01*
X207769998Y-119903001D02*
X206229999Y-119903001D01*
X158339000Y-89982000D02*
X158339000Y-89057000D01*
X141900000Y-93988000D02*
X141900000Y-93488000D01*
X203737999Y-76215001D02*
X203737999Y-77199000D01*
X160229548Y-95585952D02*
X161050605Y-95585952D01*
X114787500Y-77068500D02*
X114808000Y-77089000D01*
X146849500Y-77194500D02*
X146812000Y-77232000D01*
X115189000Y-117602000D02*
X115214400Y-117576600D01*
X147288000Y-116364000D02*
X148336000Y-115316000D01*
X146304000Y-95504000D02*
X145796000Y-96012000D01*
X115468400Y-120511001D02*
X114057999Y-120511001D01*
X164592000Y-73660000D02*
X163431500Y-73660000D01*
X170365500Y-112167000D02*
X168757000Y-112167000D01*
X132609500Y-80772000D02*
X134133500Y-79248000D01*
X137500000Y-94488000D02*
X139192000Y-94488000D01*
X141700000Y-87884000D02*
X141700000Y-88932000D01*
X176034378Y-98888460D02*
X176034378Y-99688461D01*
X176090500Y-116067000D02*
X176090500Y-116654500D01*
X162972750Y-109119002D02*
X162972750Y-108469001D01*
X154861500Y-86426000D02*
X154861500Y-85422500D01*
X167210500Y-86789500D02*
X166624000Y-87376000D01*
X139942001Y-112002001D02*
X140716000Y-112776000D01*
X109452500Y-73152000D02*
X109452500Y-74189500D01*
X164618002Y-109119002D02*
X162972750Y-109119002D01*
X169799000Y-122132201D02*
X168859851Y-121193052D01*
X139992006Y-107715144D02*
X140480862Y-108204000D01*
X129058000Y-109545000D02*
X127833000Y-109545000D01*
X184139000Y-101414500D02*
X184139000Y-102351000D01*
X166157000Y-101414500D02*
X165507000Y-101414500D01*
X134772000Y-85852000D02*
X132588000Y-85852000D01*
X167574000Y-86789500D02*
X167210500Y-86789500D01*
X134226715Y-93637983D02*
X134187389Y-93598657D01*
X138176000Y-78232000D02*
X137668000Y-77724000D01*
X176034378Y-98088462D02*
X176034378Y-98888460D01*
X134226715Y-95258337D02*
X134226715Y-93637983D01*
X176034378Y-100488462D02*
X176034378Y-101288460D01*
X134133500Y-79248000D02*
X134620000Y-79248000D01*
X165507000Y-101414500D02*
X165507000Y-102717000D01*
X137160000Y-81301500D02*
X135657500Y-81301500D01*
X127508000Y-109220000D02*
X127508000Y-107209500D01*
X123317000Y-113157000D02*
X124206000Y-112268000D01*
X165507000Y-102717000D02*
X165100000Y-103124000D01*
X163068000Y-123952000D02*
X162560000Y-123952000D01*
X138499022Y-95488000D02*
X139192000Y-94795022D01*
X178308000Y-109855000D02*
X176403000Y-109855000D01*
X139721500Y-91440000D02*
X141224000Y-91440000D01*
X146997500Y-114177000D02*
X148213000Y-114177000D01*
X134416000Y-75692000D02*
X134416000Y-79044000D01*
X147288000Y-116840000D02*
X147288000Y-116364000D01*
X180239000Y-101414500D02*
X179589000Y-101414500D01*
X115572000Y-81280000D02*
X115572000Y-82548000D01*
X180889000Y-101414500D02*
X180239000Y-101414500D01*
X146304000Y-94509500D02*
X146304000Y-95504000D01*
X148336000Y-115316000D02*
X148336000Y-114300000D01*
X135106500Y-99605500D02*
X135144000Y-99568000D01*
X115214400Y-116955001D02*
X115214400Y-117576600D01*
X176034378Y-96488462D02*
X176034378Y-97288461D01*
X180340000Y-102616000D02*
X180239000Y-102515000D01*
X169407000Y-100849000D02*
X170180000Y-100076000D01*
X139192000Y-94795022D02*
X139192000Y-94488000D01*
X171130000Y-87727000D02*
X170733500Y-87727000D01*
X114057999Y-120511001D02*
X114046000Y-120523000D01*
X163431500Y-73660000D02*
X163390500Y-73701000D01*
X141900000Y-92796000D02*
X142240000Y-92456000D01*
X160020000Y-95795500D02*
X160229548Y-95585952D01*
X162374500Y-117025500D02*
X162052000Y-117348000D01*
X154861500Y-85422500D02*
X155448000Y-84836000D01*
X141700000Y-88932000D02*
X141224000Y-89408000D01*
X161068000Y-114808000D02*
X159440594Y-114808000D01*
X135106500Y-101600000D02*
X135106500Y-99605500D01*
X144272000Y-77194500D02*
X144272000Y-75692000D01*
X156530000Y-120474500D02*
X156530000Y-118938000D01*
X141900000Y-93488000D02*
X141900000Y-92796000D01*
X176034378Y-101841622D02*
X175768000Y-102108000D01*
X172720000Y-83312000D02*
X173736000Y-84328000D01*
X130313999Y-117590001D02*
X130048000Y-117856000D01*
X163617000Y-123403000D02*
X163068000Y-123952000D01*
X135657500Y-81301500D02*
X135636000Y-81280000D01*
X176034378Y-101288460D02*
X176034378Y-101841622D01*
X168859851Y-121193052D02*
X167939067Y-121193052D01*
X176090500Y-116654500D02*
X176276000Y-116840000D01*
X176034378Y-95688462D02*
X176034378Y-96488462D01*
X135106500Y-101600000D02*
X133604000Y-101600000D01*
X176034378Y-99688461D02*
X176034378Y-100488462D01*
X158373000Y-89948000D02*
X158339000Y-89982000D01*
X180239000Y-102515000D02*
X180239000Y-101414500D01*
X170733500Y-87727000D02*
X170180000Y-88280500D01*
X139192000Y-94488000D02*
X138692000Y-93988000D01*
X168757000Y-112167000D02*
X168656000Y-112268000D01*
X144272000Y-75692000D02*
X144272000Y-75488000D01*
X140480862Y-108204000D02*
X140716000Y-108204000D01*
X139329838Y-107715144D02*
X139992006Y-107715144D01*
X146833500Y-84836000D02*
X146833500Y-83333500D01*
X160528000Y-89948000D02*
X158373000Y-89948000D01*
X157067250Y-110418999D02*
X158170999Y-110418999D01*
X152908000Y-82836000D02*
X152908000Y-81280000D01*
X176034378Y-97288461D02*
X176034378Y-98088462D01*
X146833500Y-83333500D02*
X146812000Y-83312000D01*
X127076200Y-123317000D02*
X128905000Y-123317000D01*
X127508000Y-107209500D02*
X127518750Y-107198750D01*
X163617000Y-117025500D02*
X162374500Y-117025500D01*
X178800000Y-74168000D02*
X180340000Y-74168000D01*
X159440594Y-114808000D02*
X158968297Y-115280297D01*
X148336000Y-94509500D02*
X146304000Y-94509500D01*
X163617000Y-122750500D02*
X163617000Y-123403000D01*
X119845000Y-121539000D02*
X118745000Y-121539000D01*
X176403000Y-109855000D02*
X176276000Y-109728000D01*
X191373000Y-101549200D02*
X191373000Y-100838000D01*
X134416000Y-79044000D02*
X134620000Y-79248000D01*
X172720000Y-82788000D02*
X172720000Y-83312000D01*
X160528000Y-86486000D02*
X160528000Y-85344000D01*
%TO.N,SW_CAN*%
X126111000Y-122047000D02*
X127076200Y-122047000D01*
X125349000Y-122809000D02*
X126111000Y-122047000D01*
X124079000Y-122809000D02*
X125349000Y-122809000D01*
%TO.N,+12V_NOSW*%
X114681000Y-79375000D02*
X114649500Y-79343500D01*
X126304000Y-79314000D02*
X125476000Y-78486000D01*
X112649000Y-79343500D02*
X113599000Y-79343500D01*
X126624000Y-77084000D02*
X128016000Y-75692000D01*
X130534500Y-80772000D02*
X130534500Y-78210500D01*
X126624000Y-79314000D02*
X126624000Y-77084000D01*
X126624000Y-79314000D02*
X126304000Y-79314000D01*
X130534500Y-78210500D02*
X128016000Y-75692000D01*
X113599000Y-79343500D02*
X114649500Y-79343500D01*
X124811000Y-75758000D02*
X127950000Y-75758000D01*
%TO.N,+12V*%
X127574000Y-83246000D02*
X127574000Y-85054000D01*
X127574000Y-81189000D02*
X127574000Y-83246000D01*
X144758500Y-84836000D02*
X143256000Y-84836000D01*
X144804000Y-87250000D02*
X144804000Y-84881500D01*
X127574000Y-85054000D02*
X128372000Y-85852000D01*
X144804000Y-84881500D02*
X144758500Y-84836000D01*
%TO.N,+3V3_NOSW*%
X112715000Y-73996500D02*
X111527500Y-75184000D01*
X164776092Y-92779908D02*
X164776092Y-95608592D01*
X164776092Y-95608592D02*
X164857000Y-95689500D01*
X112715000Y-73769500D02*
X112715000Y-73996500D01*
X161050605Y-98785950D02*
X161050605Y-99585951D01*
X205229998Y-119903001D02*
X205229998Y-118887001D01*
X111527500Y-75184500D02*
X109877000Y-76835000D01*
X111527500Y-75184000D02*
X111527500Y-73152000D01*
X111633000Y-73152000D02*
X112649000Y-72136000D01*
X190373000Y-103886000D02*
X188833000Y-103886000D01*
X205197998Y-114823001D02*
X205197998Y-115585001D01*
X191008000Y-75184000D02*
X191008000Y-73152000D01*
X161050605Y-100385952D02*
X161050605Y-101185950D01*
X190373000Y-96774000D02*
X190373000Y-99060801D01*
X111527500Y-73152000D02*
X111633000Y-73152000D01*
X205229998Y-118887001D02*
X206245998Y-117871001D01*
X161050605Y-97185951D02*
X161050605Y-97985952D01*
X161050605Y-97985952D02*
X161050605Y-98785950D01*
X187309000Y-103886000D02*
X188833000Y-103886000D01*
X179589000Y-92699000D02*
X179589000Y-95689500D01*
X206213998Y-116601001D02*
X206213998Y-117839001D01*
X165608000Y-91948000D02*
X164776092Y-92779908D01*
X111527500Y-75184000D02*
X111527500Y-75184500D01*
X161050605Y-99585951D02*
X161050605Y-100385952D01*
X180340000Y-91948000D02*
X179589000Y-92699000D01*
X161050605Y-96385952D02*
X161050605Y-97185951D01*
X164857000Y-101414500D02*
X164857000Y-101843000D01*
X110902500Y-79343500D02*
X110617000Y-79629000D01*
X206213998Y-117839001D02*
X206245998Y-117871001D01*
X111699000Y-79343500D02*
X110902500Y-79343500D01*
X190373000Y-99060801D02*
X190422999Y-99110800D01*
X205197998Y-115585001D02*
X206213998Y-116601001D01*
X164857000Y-101843000D02*
X164084000Y-102616000D01*
X161050605Y-101185950D02*
X161050605Y-102601395D01*
%TO.N,+3V3*%
X141900000Y-95488000D02*
X143240000Y-95488000D01*
X142087600Y-110501999D02*
X142087600Y-110083600D01*
X178308000Y-117332000D02*
X177308000Y-117332000D01*
X133525500Y-112710000D02*
X135586000Y-112710000D01*
X133959600Y-116089999D02*
X133959600Y-115671600D01*
X125222000Y-117348000D02*
X126508000Y-117348000D01*
X170365500Y-116067000D02*
X170365500Y-116654500D01*
X135586000Y-108646000D02*
X135636000Y-108696000D01*
X158988000Y-106680000D02*
X160004000Y-105664000D01*
X143288000Y-121920000D02*
X147288000Y-121920000D01*
X170365500Y-111517000D02*
X170365500Y-110421500D01*
X133959600Y-115671600D02*
X133604000Y-115316000D01*
X138557000Y-80518000D02*
X139079000Y-80518000D01*
X180340000Y-115808000D02*
X178816000Y-117332000D01*
X149352000Y-122936000D02*
X148336000Y-121920000D01*
X156972000Y-84963000D02*
X156972000Y-86376000D01*
X174244000Y-74168000D02*
X175260000Y-73152000D01*
X167939067Y-123018567D02*
X167132000Y-122211500D01*
X139274460Y-79226500D02*
X139319000Y-79181960D01*
X178816000Y-117332000D02*
X178308000Y-117332000D01*
X135586000Y-112710000D02*
X135636000Y-112760000D01*
X136160000Y-115316000D02*
X135636000Y-115316000D01*
X133447000Y-109571000D02*
X133604000Y-109728000D01*
X142073038Y-106215142D02*
X142073038Y-105497038D01*
X165567000Y-122750500D02*
X166593000Y-122750500D01*
X139319000Y-79756000D02*
X139319000Y-79181960D01*
X135636000Y-115316000D02*
X134620000Y-114300000D01*
X133447000Y-108646000D02*
X135586000Y-108646000D01*
X126558000Y-117298000D02*
X126508000Y-117348000D01*
X142073038Y-105497038D02*
X141732000Y-105156000D01*
X155956000Y-75692000D02*
X157624500Y-75692000D01*
X128372000Y-90424000D02*
X130556000Y-90424000D01*
X133447000Y-108646000D02*
X133447000Y-109571000D01*
X167939067Y-123268052D02*
X167939067Y-123018567D01*
X177308000Y-117332000D02*
X176784000Y-117856000D01*
X174752000Y-82788000D02*
X174752000Y-83820000D01*
X143240000Y-95488000D02*
X143764000Y-96012000D01*
X180276000Y-104648000D02*
X178308000Y-104648000D01*
X126558000Y-115237500D02*
X126558000Y-117298000D01*
X153416000Y-105955500D02*
X152722500Y-106649000D01*
X139079000Y-80518000D02*
X139841000Y-81280000D01*
X138557000Y-80518000D02*
X139319000Y-79756000D01*
X170365500Y-110421500D02*
X170180000Y-110236000D01*
X135636000Y-112760000D02*
X135636000Y-113284000D01*
X160004000Y-105664000D02*
X160020000Y-105664000D01*
X174752000Y-83820000D02*
X175255701Y-84323701D01*
X148336000Y-121920000D02*
X147288000Y-121920000D01*
X137160000Y-79226500D02*
X139274460Y-79226500D01*
X135636000Y-113284000D02*
X134620000Y-114300000D01*
X166593000Y-122750500D02*
X167132000Y-122211500D01*
X162560000Y-83566000D02*
X162560000Y-84852000D01*
X162972750Y-111069001D02*
X164409001Y-111069001D01*
X142087600Y-110083600D02*
X141732000Y-109728000D01*
X157624500Y-75692000D02*
X157665500Y-75651000D01*
X170365500Y-116654500D02*
X170180000Y-116840000D01*
X152722500Y-106649000D02*
X152722500Y-108327000D01*
X173720000Y-74168000D02*
X174244000Y-74168000D01*
X164409001Y-111069001D02*
X164592000Y-111252000D01*
X178308000Y-104648000D02*
X176276000Y-104648000D01*
%TO.N,VBAT*%
X125476000Y-119507000D02*
X125222000Y-119761000D01*
X127076200Y-119507000D02*
X125476000Y-119507000D01*
X122936000Y-88868000D02*
X121444000Y-88868000D01*
X137668000Y-85884000D02*
X137668000Y-84836000D01*
X137668000Y-84836000D02*
X137160000Y-84328000D01*
X121444000Y-88868000D02*
X120904000Y-89408000D01*
%TO.N,V_J1850*%
X146304000Y-92434500D02*
X148336000Y-92434500D01*
X146812000Y-88900000D02*
X149384000Y-88900000D01*
X149860000Y-89376000D02*
X150400000Y-89376000D01*
X146304000Y-92434500D02*
X146304000Y-87337500D01*
X146304000Y-88392000D02*
X146812000Y-88900000D01*
X150400000Y-89376000D02*
X150876000Y-88900000D01*
X150876000Y-88900000D02*
X151384000Y-88900000D01*
X149384000Y-88900000D02*
X149860000Y-89376000D01*
%TO.N,K_LINE*%
X133646118Y-102649520D02*
X133608299Y-102611701D01*
X152974000Y-117282000D02*
X153928299Y-116327701D01*
X152974000Y-118950500D02*
X152974000Y-117282000D01*
X115648042Y-101435651D02*
X118073342Y-101435651D01*
X114427000Y-103505000D02*
X114427000Y-102656693D01*
X145067520Y-102649520D02*
X133646118Y-102649520D01*
X147574000Y-105156000D02*
X145067520Y-102649520D01*
X114427000Y-102656693D02*
X115648042Y-101435651D01*
%TO.N,L_LINE*%
X114093349Y-95710651D02*
X116093342Y-95710651D01*
X115697000Y-106680000D02*
X111633000Y-102616000D01*
X149418000Y-118950500D02*
X149418000Y-117282000D01*
X111633000Y-102616000D02*
X111633000Y-98171000D01*
X149418000Y-117282000D02*
X150368000Y-116332000D01*
X134112000Y-104140000D02*
X144272000Y-104140000D01*
X111633000Y-98171000D02*
X114093349Y-95710651D01*
X144272000Y-104140000D02*
X145288000Y-105156000D01*
X118110000Y-106680000D02*
X115697000Y-106680000D01*
D62*
%TO.N,J1850_BUS+*%
X151384000Y-73152000D02*
X152940000Y-73152000D01*
X124333000Y-98552000D02*
X122594349Y-100290651D01*
X159274000Y-72898000D02*
X157353000Y-72898000D01*
X155448000Y-83312000D02*
X155448000Y-81788000D01*
X128556000Y-98552000D02*
X124333000Y-98552000D01*
X122594349Y-100290651D02*
X120053342Y-100290651D01*
%TO.N,J1850_BUS-*%
X170609500Y-80838000D02*
X172670000Y-80838000D01*
X153223500Y-77343000D02*
X152908000Y-77027500D01*
X167767000Y-79756000D02*
X166624000Y-79756000D01*
X172670000Y-80838000D02*
X172720000Y-80788000D01*
X152908000Y-77027500D02*
X152908000Y-75184000D01*
X153035000Y-75311000D02*
X152908000Y-75184000D01*
X152083511Y-81469489D02*
X151130000Y-82423000D01*
X170609500Y-80838000D02*
X168849000Y-80838000D01*
X153223500Y-77343000D02*
X152083511Y-78482989D01*
X152083511Y-78482989D02*
X152083511Y-81469489D01*
X168849000Y-80838000D02*
X167767000Y-79756000D01*
D61*
%TO.N,HS_CAN_HI*%
X115214400Y-115454999D02*
X115214400Y-114579400D01*
X115214400Y-114579400D02*
X115189000Y-114554000D01*
%TO.N,HS_CAN_LO*%
X114613724Y-118364000D02*
X114386893Y-118137169D01*
X115468400Y-118770400D02*
X115062000Y-118364000D01*
X115062000Y-118364000D02*
X114613724Y-118364000D01*
X115468400Y-119010999D02*
X115468400Y-118770400D01*
%TO.N,MS_CAN_HI*%
X113796000Y-115955000D02*
X113792000Y-115951000D01*
X123317000Y-105537000D02*
X123317000Y-101219000D01*
X115214400Y-115955000D02*
X113796000Y-115955000D01*
X122809000Y-97917000D02*
X122725349Y-98000651D01*
X122725349Y-98000651D02*
X120053342Y-98000651D01*
%TO.N,MS_CAN_LO*%
X113923000Y-119511000D02*
X112903000Y-118491000D01*
X121842349Y-94565651D02*
X118073342Y-94565651D01*
X121920000Y-94488000D02*
X121842349Y-94565651D01*
X115468400Y-119511000D02*
X113923000Y-119511000D01*
%TO.N,+5V*%
X129723000Y-108895000D02*
X130048000Y-109220000D01*
X144272000Y-79269500D02*
X146774500Y-79269500D01*
X146812000Y-79232000D02*
X149314500Y-79232000D01*
X150622000Y-79248000D02*
X150600500Y-79269500D01*
X129058000Y-108895000D02*
X129723000Y-108895000D01*
X149860000Y-74676000D02*
X149352000Y-74168000D01*
X118237000Y-118364000D02*
X118211600Y-118389400D01*
X157988000Y-79756000D02*
X157988000Y-80008000D01*
X144184460Y-79181960D02*
X144272000Y-79269500D01*
X149314500Y-79232000D02*
X149352000Y-79269500D01*
X157988000Y-80008000D02*
X159260000Y-81280000D01*
X146774500Y-79269500D02*
X146812000Y-79232000D01*
X149352000Y-79269500D02*
X149352000Y-79248000D01*
X118211600Y-119010999D02*
X118211600Y-118389400D01*
X151383989Y-74676000D02*
X149860000Y-74676000D01*
X117957600Y-114706400D02*
X117957600Y-115454999D01*
X149352000Y-79269500D02*
X150600500Y-79269500D01*
X117983000Y-114681000D02*
X117957600Y-114706400D01*
X142113000Y-79181960D02*
X144184460Y-79181960D01*
%TO.N,SDA*%
X144180394Y-94080220D02*
X143272614Y-94988000D01*
X144180394Y-93278560D02*
X144180394Y-94080220D01*
X143272614Y-94988000D02*
X141900000Y-94988000D01*
X180344712Y-93290947D02*
X180239000Y-93396659D01*
X204230000Y-119903001D02*
X204230000Y-118395003D01*
X165507000Y-93279848D02*
X165507000Y-95689500D01*
X182372000Y-87376000D02*
X182372000Y-91948000D01*
X204213998Y-116601001D02*
X204213998Y-118379001D01*
X170365500Y-114767000D02*
X168189000Y-114767000D01*
X158395002Y-112368998D02*
X159004000Y-111760000D01*
X180239000Y-93396659D02*
X180239000Y-95689500D01*
X165500603Y-93273451D02*
X165507000Y-93279848D01*
X204230000Y-118395003D02*
X204213998Y-118379001D01*
X157067250Y-112368998D02*
X158395002Y-112368998D01*
X168189000Y-114767000D02*
X168152299Y-114803701D01*
X205737998Y-76215001D02*
X205737998Y-77739001D01*
%TO.N,SCL*%
X170365500Y-114117000D02*
X168490196Y-114117000D01*
X157067250Y-113018999D02*
X157722999Y-113018999D01*
X206737999Y-78231002D02*
X206753998Y-78247001D01*
X142748000Y-94488000D02*
X143256000Y-93980000D01*
X168490196Y-114117000D02*
X168156598Y-113783402D01*
X166624000Y-93980000D02*
X166157000Y-94447000D01*
X203213998Y-117855001D02*
X203197998Y-117871001D01*
X180889000Y-94447000D02*
X181356000Y-93980000D01*
X203197998Y-114823001D02*
X203197998Y-117871001D01*
X180889000Y-95689500D02*
X180889000Y-94447000D01*
X181356000Y-87483901D02*
X181356000Y-93980000D01*
X203229999Y-119903001D02*
X203229999Y-117903002D01*
X141900000Y-94488000D02*
X142748000Y-94488000D01*
X157722999Y-113018999D02*
X158496000Y-113792000D01*
X166157000Y-94447000D02*
X166157000Y-95689500D01*
X203229999Y-117903002D02*
X203197998Y-117871001D01*
X206737999Y-76215001D02*
X206737999Y-78231002D01*
%TO.N,~{RESET}*%
X176090500Y-112817000D02*
X179736022Y-112817000D01*
X187309000Y-100695000D02*
X187071000Y-100457000D01*
X187071000Y-100457000D02*
X187071000Y-89154000D01*
X152722500Y-108977000D02*
X153875500Y-108977000D01*
X187309000Y-101886000D02*
X188293000Y-101886000D01*
X167283321Y-97201040D02*
X168107000Y-96377361D01*
X187309000Y-101886000D02*
X187309000Y-100695000D01*
X153875500Y-108977000D02*
X154286250Y-108566250D01*
X187071000Y-89154000D02*
X186055000Y-88138000D01*
X157946999Y-109769001D02*
X158496000Y-109220000D01*
X163579872Y-96385950D02*
X164394962Y-97201040D01*
X190422999Y-101549200D02*
X190422999Y-100903999D01*
X190422999Y-100903999D02*
X189849000Y-100330000D01*
X168107000Y-96377361D02*
X168107000Y-95689500D01*
X188293000Y-101886000D02*
X189849000Y-100330000D01*
X179736022Y-112817000D02*
X183968022Y-108585000D01*
X164394962Y-97201040D02*
X167283321Y-97201040D01*
X183968022Y-108585000D02*
X187579000Y-108585000D01*
X157067250Y-109769001D02*
X157946999Y-109769001D01*
X162186050Y-96385950D02*
X162052000Y-96520000D01*
X154286250Y-108566250D02*
X154432000Y-108420500D01*
X163133405Y-96385950D02*
X162186050Y-96385950D01*
X163133405Y-96385950D02*
X163579872Y-96385950D01*
%TO.N,MUX_CAN_TX*%
X135894001Y-110501999D02*
X135636000Y-110760000D01*
X139344400Y-110501999D02*
X135894001Y-110501999D01*
X133525500Y-110810000D02*
X135586000Y-110810000D01*
X135586000Y-110810000D02*
X135636000Y-110760000D01*
X139344400Y-110501999D02*
X139344400Y-111002000D01*
%TO.N,CAN_TX_5V*%
X130007000Y-110195000D02*
X130302000Y-110490000D01*
X131064000Y-110744000D02*
X131650500Y-111330500D01*
X130556000Y-110744000D02*
X131064000Y-110744000D01*
X130302000Y-110490000D02*
X130556000Y-110744000D01*
X129058000Y-110195000D02*
X130007000Y-110195000D01*
X131650500Y-111330500D02*
X131650500Y-111760000D01*
%TO.N,MUX_CAN_RX*%
X135655143Y-106715143D02*
X139329838Y-106715143D01*
X135586000Y-106746000D02*
X135636000Y-106696000D01*
X133447000Y-106746000D02*
X135586000Y-106746000D01*
X139329838Y-106715143D02*
X139329838Y-106215142D01*
X135636000Y-106696000D02*
X135655143Y-106715143D01*
%TO.N,CAN_RX_5V*%
X129058000Y-108245000D02*
X129499000Y-108245000D01*
X130048000Y-107696000D02*
X131572000Y-107696000D01*
X129499000Y-108245000D02*
X130048000Y-107696000D01*
%TO.N,~{MUX_CAN_EN}*%
X128508000Y-117348000D02*
X129266000Y-116590000D01*
X128508000Y-117348000D02*
X128508000Y-115287500D01*
X131216400Y-116590000D02*
X131216400Y-116089999D01*
X128508000Y-115287500D02*
X128458000Y-115237500D01*
X129266000Y-116590000D02*
X131216400Y-116590000D01*
%TO.N,~{CAN_EN_5V}*%
X127508000Y-113362500D02*
X126062500Y-113362500D01*
X126062500Y-113362500D02*
X125984000Y-113284000D01*
X125958000Y-110195000D02*
X125958000Y-113258000D01*
X125958000Y-113258000D02*
X125984000Y-113284000D01*
%TO.N,SW_CAN_LOAD*%
X183489000Y-101414500D02*
X183489000Y-107087000D01*
X181650821Y-98888460D02*
X183489000Y-100726639D01*
X178117178Y-98888460D02*
X181650821Y-98888460D01*
X183489000Y-100726639D02*
X183489000Y-101414500D01*
%TO.N,PWR_CTRL*%
X178117178Y-100488460D02*
X178541461Y-100488460D01*
X179126961Y-99902960D02*
X181365321Y-99902960D01*
X128524000Y-77566500D02*
X128524000Y-79314000D01*
X137676614Y-76708000D02*
X138250654Y-77282040D01*
X178541461Y-100488460D02*
X179126961Y-99902960D01*
X182189000Y-100726639D02*
X182189000Y-101414500D01*
X178117178Y-100488460D02*
X177387540Y-100488460D01*
X138250654Y-77282040D02*
X139319000Y-77282040D01*
X181365321Y-99902960D02*
X182189000Y-100726639D01*
X177387540Y-100488460D02*
X177292000Y-100584000D01*
X137668000Y-76708000D02*
X137676614Y-76708000D01*
%TO.N,SAE_VPW*%
X170688000Y-84328000D02*
X170688000Y-82816500D01*
X170180000Y-84836000D02*
X170688000Y-84328000D01*
X170180000Y-85852000D02*
X170180000Y-84836000D01*
X170754000Y-78661500D02*
X169750500Y-78661500D01*
X170688000Y-82816500D02*
X170609500Y-82738000D01*
X169750500Y-78661500D02*
X169672000Y-78740000D01*
%TO.N,J1850_RX*%
X176800000Y-74168000D02*
X176276000Y-74168000D01*
X176276000Y-74168000D02*
X175260000Y-75184000D01*
X174310000Y-76786500D02*
X174310000Y-76134000D01*
X174310000Y-76134000D02*
X175260000Y-75184000D01*
X173306500Y-78661500D02*
X172654000Y-78661500D01*
X174310000Y-76786500D02*
X174310000Y-77658000D01*
X174310000Y-77658000D02*
X173306500Y-78661500D01*
%TO.N,VPW_RX*%
X169631000Y-75651000D02*
X170766500Y-76786500D01*
X171704000Y-74184000D02*
X171720000Y-74168000D01*
X163390500Y-75651000D02*
X169631000Y-75651000D01*
X171704000Y-76786500D02*
X171704000Y-74184000D01*
X170766500Y-76786500D02*
X171704000Y-76786500D01*
%TO.N,SAE_PWM*%
X182839000Y-103165000D02*
X182372000Y-103632000D01*
X182839000Y-101414500D02*
X182839000Y-103165000D01*
X177370500Y-76786500D02*
X176210000Y-76786500D01*
X178705742Y-99688461D02*
X178940764Y-99453440D01*
X181565801Y-99453440D02*
X182839000Y-100726639D01*
X169230000Y-87727000D02*
X168757600Y-87727000D01*
X182839000Y-100726639D02*
X182839000Y-101414500D01*
X156972000Y-88376000D02*
X157464000Y-87884000D01*
X168757600Y-87727000D02*
X167921974Y-88562626D01*
X178117178Y-99688461D02*
X178705742Y-99688461D01*
X178940764Y-99453440D02*
X181565801Y-99453440D01*
X156972000Y-88376000D02*
X154911500Y-88376000D01*
X157464000Y-87884000D02*
X158496000Y-87884000D01*
X178308000Y-77724000D02*
X177370500Y-76786500D01*
X154911500Y-88376000D02*
X154861500Y-88326000D01*
%TO.N,PWM_RX*%
X157665500Y-75001000D02*
X158821000Y-75001000D01*
X175260000Y-78661500D02*
X175260000Y-79248000D01*
X175752000Y-80788000D02*
X176276000Y-80264000D01*
X174752000Y-80788000D02*
X175752000Y-80788000D01*
X175260000Y-79248000D02*
X176276000Y-80264000D01*
X158821000Y-75001000D02*
X159004000Y-75184000D01*
%TO.N,J1850_TX*%
X160462000Y-91882000D02*
X160528000Y-91948000D01*
X162560000Y-91948000D02*
X160528000Y-91948000D01*
X158339000Y-91882000D02*
X160462000Y-91882000D01*
%TO.N,ISO_K*%
X157360988Y-117180297D02*
X155615703Y-117180297D01*
X158663703Y-117180297D02*
X159004000Y-116840000D01*
X178816000Y-101157138D02*
X178816000Y-100849639D01*
X178816000Y-100849639D02*
X179313159Y-100352480D01*
X155615703Y-117180297D02*
X154874000Y-117922000D01*
X157360988Y-117180297D02*
X158663703Y-117180297D01*
X179313159Y-100352480D02*
X181164841Y-100352480D01*
X181164841Y-100352480D02*
X181539000Y-100726639D01*
X178117178Y-101288460D02*
X178684678Y-101288460D01*
X178117178Y-101288460D02*
X177603540Y-101288460D01*
X178684678Y-101288460D02*
X178816000Y-101157138D01*
X181539000Y-100726639D02*
X181539000Y-101414500D01*
X154874000Y-117922000D02*
X154874000Y-118950500D01*
X177603540Y-101288460D02*
X177292000Y-101600000D01*
%TO.N,ISO_L*%
X154940000Y-115316000D02*
X155485988Y-115861988D01*
X151318000Y-116906000D02*
X152908000Y-115316000D01*
X152908000Y-115316000D02*
X154940000Y-115316000D01*
X151318000Y-118950500D02*
X151318000Y-116906000D01*
X155485988Y-115861988D02*
X155485988Y-116230297D01*
%TO.N,ISO_LINE*%
X153924000Y-120825500D02*
X154861500Y-120825500D01*
X166116000Y-113300000D02*
X165535665Y-113300000D01*
X158417500Y-122349500D02*
X158496000Y-122428000D01*
X150368000Y-120825500D02*
X153924000Y-120825500D01*
X157480000Y-122349500D02*
X156542500Y-122349500D01*
X157480000Y-122349500D02*
X158417500Y-122349500D01*
X165535665Y-113300000D02*
X164632817Y-114202848D01*
X156542500Y-122349500D02*
X156464000Y-122428000D01*
X154861500Y-120825500D02*
X156464000Y-122428000D01*
%TO.N,SW_CAN_MODE0*%
X178578664Y-97288461D02*
X178940764Y-97650560D01*
X177455143Y-97288461D02*
X177241675Y-97074993D01*
X178940764Y-97650560D02*
X182257440Y-97650560D01*
X178117178Y-97288461D02*
X177455143Y-97288461D01*
X183489000Y-96419000D02*
X183489000Y-95689500D01*
X178117178Y-97288461D02*
X178578664Y-97288461D01*
X132003800Y-122047000D02*
X136008402Y-122047000D01*
X136008402Y-122047000D02*
X136647701Y-121407701D01*
X182257440Y-97650560D02*
X183489000Y-96419000D01*
%TO.N,SW_CAN_MODE1*%
X178128796Y-98100080D02*
X182443638Y-98100080D01*
X136271000Y-120777000D02*
X136652000Y-120396000D01*
X132003800Y-120777000D02*
X136271000Y-120777000D01*
X178117178Y-98088462D02*
X178128796Y-98100080D01*
X178117178Y-98088462D02*
X177308825Y-98088462D01*
X184139000Y-96404718D02*
X184139000Y-95689500D01*
X177308825Y-98088462D02*
X177293514Y-98073151D01*
X182443638Y-98100080D02*
X184139000Y-96404718D01*
%TO.N,SW_CAN_RX*%
X139329838Y-107215143D02*
X138656857Y-107215143D01*
X140208000Y-115316000D02*
X141224000Y-116332000D01*
X138176000Y-107696000D02*
X138146136Y-107696000D01*
X138160000Y-115316000D02*
X140208000Y-115316000D01*
X138656857Y-107215143D02*
X138176000Y-107696000D01*
X138049000Y-119507000D02*
X141224000Y-116332000D01*
X132003800Y-119507000D02*
X138049000Y-119507000D01*
%TO.N,CAN_HI*%
X123947425Y-109986575D02*
X119793000Y-114141000D01*
X124372806Y-109545000D02*
X123947425Y-109970381D01*
X119793000Y-114141000D02*
X119793000Y-115316000D01*
X123947425Y-109970381D02*
X123947425Y-109986575D01*
X119154000Y-115955000D02*
X119793000Y-115316000D01*
X117957600Y-115955000D02*
X119154000Y-115955000D01*
X125958000Y-109545000D02*
X124372806Y-109545000D01*
%TO.N,CAN_LO*%
X124659000Y-108895000D02*
X124404500Y-108640500D01*
X124041500Y-108277500D02*
X124041500Y-108188000D01*
X124404500Y-108640500D02*
X123952000Y-108188000D01*
X118215600Y-119507000D02*
X118211600Y-119511000D01*
X119904000Y-119507000D02*
X118215600Y-119507000D01*
X119904000Y-118221000D02*
X120142000Y-117983000D01*
X124404500Y-108640500D02*
X124041500Y-108277500D01*
X119904000Y-119507000D02*
X119904000Y-118221000D01*
X125958000Y-108895000D02*
X124659000Y-108895000D01*
%TO.N,~{J1850_INT}*%
X193167000Y-121631000D02*
X193177000Y-121641000D01*
X194056000Y-114173000D02*
X194056000Y-94869000D01*
X194056000Y-94869000D02*
X190881000Y-91694000D01*
X193167000Y-115062000D02*
X194056000Y-114173000D01*
X193167000Y-118364000D02*
X193167000Y-121631000D01*
X193167000Y-118364000D02*
X193167000Y-115062000D01*
%TO.N,~{ISO_RX}*%
X172537000Y-113467000D02*
X171704000Y-114300000D01*
X176090500Y-113467000D02*
X179999000Y-113467000D01*
X167317500Y-117025500D02*
X167640000Y-117348000D01*
X176090500Y-113467000D02*
X172537000Y-113467000D01*
X165567000Y-117025500D02*
X167317500Y-117025500D01*
X179999000Y-113467000D02*
X180340000Y-113808000D01*
%TO.N,~{ISO_TX}*%
X176090500Y-114117000D02*
X174718500Y-114117000D01*
X174718500Y-114117000D02*
X174244000Y-114591500D01*
X161684417Y-122568417D02*
X162052000Y-122936000D01*
X160171152Y-122568417D02*
X161684417Y-122568417D01*
%TO.N,~{UART_INT}*%
X170365500Y-115417000D02*
X171603000Y-115417000D01*
X171603000Y-115417000D02*
X171704000Y-115316000D01*
X188087000Y-121631000D02*
X188097000Y-121641000D01*
X188087000Y-118364000D02*
X188087000Y-121631000D01*
%TO.N,~{CAN_CS}*%
X156112400Y-108469001D02*
X157067250Y-108469001D01*
X157067250Y-108469001D02*
X157067250Y-106759250D01*
X157067250Y-106759250D02*
X156988000Y-106680000D01*
X152722500Y-109627000D02*
X154954401Y-109627000D01*
X154954401Y-109627000D02*
X156112400Y-108469001D01*
%TO.N,~{SPI_INT}*%
X190627000Y-118364000D02*
X190627000Y-121631000D01*
X161544000Y-113284000D02*
X161809001Y-113018999D01*
X190627000Y-121631000D02*
X190637000Y-121641000D01*
X175895000Y-121285000D02*
X172466000Y-117856000D01*
X161809001Y-113018999D02*
X162972750Y-113018999D01*
X172466000Y-117856000D02*
X168656000Y-117856000D01*
X175895000Y-121920000D02*
X175895000Y-121285000D01*
%TO.N,CAN_SEL1*%
X179126961Y-97201040D02*
X182015321Y-97201040D01*
X142073038Y-107715144D02*
X142092182Y-107696000D01*
X178117178Y-96488460D02*
X178414381Y-96488460D01*
X182839000Y-96377361D02*
X182839000Y-95689500D01*
X178414381Y-96488460D02*
X179126961Y-97201040D01*
X117745497Y-121539000D02*
X117745497Y-121395503D01*
X142092182Y-107696000D02*
X143247386Y-107696000D01*
X144780000Y-111260614D02*
X144780000Y-111252000D01*
X144563489Y-107912511D02*
X144780000Y-107696000D01*
X144038613Y-112002001D02*
X144780000Y-111260614D01*
X118211600Y-120929400D02*
X118211600Y-120511001D01*
X117983000Y-117348000D02*
X117729000Y-117602000D01*
X178117178Y-96488460D02*
X177666975Y-96488460D01*
X117957600Y-117322600D02*
X117983000Y-117348000D01*
X117745497Y-121395503D02*
X118211600Y-120929400D01*
X143463897Y-107912511D02*
X144563489Y-107912511D01*
X142087600Y-112002001D02*
X144038613Y-112002001D01*
X135627386Y-118364000D02*
X135636000Y-118364000D01*
X182015321Y-97201040D02*
X182839000Y-96377361D01*
X143247386Y-107696000D02*
X143463897Y-107912511D01*
X117729000Y-117602000D02*
X117348000Y-117602000D01*
X133959600Y-117590001D02*
X134853387Y-117590001D01*
X117957600Y-116955001D02*
X117957600Y-117322600D01*
X177666975Y-96488460D02*
X177202842Y-96024327D01*
X134853387Y-117590001D02*
X135627386Y-118364000D01*
%TO.N,CAN_SEL0*%
X178117178Y-95688462D02*
X177984462Y-95688462D01*
X142073038Y-107215143D02*
X143736857Y-107215143D01*
X178117178Y-95688462D02*
X178492462Y-95688462D01*
X178816000Y-96012000D02*
X178816000Y-96254361D01*
X179313159Y-96751520D02*
X181814841Y-96751520D01*
X135378000Y-117090000D02*
X135636000Y-117348000D01*
X181814841Y-96751520D02*
X182189000Y-96377361D01*
X143736857Y-107215143D02*
X143764000Y-107188000D01*
X178816000Y-96254361D02*
X179313159Y-96751520D01*
X116586000Y-116459000D02*
X117953600Y-116459000D01*
X177984462Y-95688462D02*
X177292000Y-94996000D01*
X117225000Y-120011000D02*
X116840000Y-120396000D01*
X142087600Y-111502000D02*
X143514000Y-111502000D01*
X178492462Y-95688462D02*
X178816000Y-96012000D01*
X117953600Y-116459000D02*
X117957600Y-116455000D01*
X133959600Y-117090000D02*
X135378000Y-117090000D01*
X118211600Y-120011000D02*
X117225000Y-120011000D01*
X143514000Y-111502000D02*
X143764000Y-111252000D01*
X182189000Y-96377361D02*
X182189000Y-95689500D01*
%TO.N,CAN_SOF*%
X164084000Y-96012000D02*
X164084000Y-96254361D01*
X167082841Y-96751520D02*
X167457000Y-96377361D01*
X164084000Y-96254361D02*
X164581159Y-96751520D01*
X148971000Y-109084402D02*
X148839701Y-109215701D01*
X150241000Y-104521000D02*
X148971000Y-105791000D01*
X146997500Y-109627000D02*
X148445598Y-109627000D01*
X163657952Y-95585952D02*
X164084000Y-96012000D01*
X148971000Y-105791000D02*
X148971000Y-109084402D01*
X148445598Y-109627000D02*
X148848299Y-109224299D01*
X163133405Y-95585952D02*
X163657952Y-95585952D01*
X167457000Y-96377361D02*
X167457000Y-95689500D01*
X162133952Y-95585952D02*
X162052000Y-95504000D01*
X164581159Y-96751520D02*
X167082841Y-96751520D01*
X163133405Y-95585952D02*
X162133952Y-95585952D01*
%TO.N,~{CAN_TX2RTS}*%
X163815033Y-98100080D02*
X167684281Y-98100080D01*
X169407000Y-96377361D02*
X169407000Y-95689500D01*
X148295000Y-112227000D02*
X148336000Y-112268000D01*
X167684281Y-98100080D02*
X169407000Y-96377361D01*
X163133405Y-97985952D02*
X162501952Y-97985952D01*
X163133405Y-97985952D02*
X163700905Y-97985952D01*
X146997500Y-112227000D02*
X148295000Y-112227000D01*
X162501952Y-97985952D02*
X162052000Y-97536000D01*
X163700905Y-97985952D02*
X163815033Y-98100080D01*
%TO.N,~{CAN_TX1RTS}*%
X163133405Y-98785950D02*
X167493668Y-98785950D01*
X167493668Y-98785950D02*
X168757000Y-100049282D01*
X162283976Y-98785950D02*
X162051126Y-98553100D01*
X147959511Y-111159419D02*
X147727092Y-110927000D01*
X149352000Y-111760000D02*
X148751419Y-111159419D01*
X148751419Y-111159419D02*
X147959511Y-111159419D01*
X168757000Y-100049282D02*
X168757000Y-101414500D01*
X147727092Y-110927000D02*
X146997500Y-110927000D01*
X163133405Y-98785950D02*
X162283976Y-98785950D01*
%TO.N,~{CAN_TX0RTS}*%
X163265916Y-99453440D02*
X167525440Y-99453440D01*
X149819000Y-110277000D02*
X146997500Y-110277000D01*
X163133405Y-99585951D02*
X163265916Y-99453440D01*
X150876000Y-109220000D02*
X149819000Y-110277000D01*
X168107000Y-100035000D02*
X168107000Y-101414500D01*
X152404299Y-105676913D02*
X150893212Y-107188000D01*
X162069951Y-99585951D02*
X162052000Y-99568000D01*
X150876000Y-107188000D02*
X150876000Y-109220000D01*
X163133405Y-99585951D02*
X162069951Y-99585951D01*
X167525440Y-99453440D02*
X168107000Y-100035000D01*
%TO.N,~{CAN_RX1BF}*%
X163646332Y-100385950D02*
X164129322Y-99902960D01*
X167457000Y-100401001D02*
X167457000Y-101414500D01*
X155642456Y-113986456D02*
X155451912Y-114177000D01*
X164129322Y-99902960D02*
X166958959Y-99902960D01*
X155451912Y-114177000D02*
X152722500Y-114177000D01*
X166958959Y-99902960D02*
X167457000Y-100401001D01*
X163133405Y-100385950D02*
X162250050Y-100385950D01*
X163133405Y-100385950D02*
X163646332Y-100385950D01*
X162250050Y-100385950D02*
X162052000Y-100584000D01*
%TO.N,~{CAN_RX0BF}*%
X166432841Y-100352480D02*
X166807000Y-100726639D01*
X164315520Y-100352480D02*
X166432841Y-100352480D01*
X154688402Y-113527000D02*
X154935701Y-113279701D01*
X163133405Y-101185950D02*
X162466050Y-101185950D01*
X163133405Y-101185950D02*
X163482050Y-101185950D01*
X166807000Y-100726639D02*
X166807000Y-101414500D01*
X162466050Y-101185950D02*
X162052000Y-101600000D01*
X152722500Y-113527000D02*
X154688402Y-113527000D01*
X163482050Y-101185950D02*
X164315520Y-100352480D01*
%TO.N,~{CAN_INT}*%
X152722500Y-112877000D02*
X151791000Y-112877000D01*
X172339000Y-118872000D02*
X168656000Y-118872000D01*
X185547000Y-121631000D02*
X185557000Y-121641000D01*
X185547000Y-118364000D02*
X185547000Y-121631000D01*
X174371000Y-120904000D02*
X172339000Y-118872000D01*
X151791000Y-112877000D02*
X151384000Y-113284000D01*
%TO.N,SW_CAN_TX*%
X139344400Y-111502000D02*
X138434000Y-111502000D01*
X135763000Y-123317000D02*
X141224000Y-117856000D01*
X138434000Y-111502000D02*
X138176000Y-111760000D01*
X138175210Y-111759210D02*
X138171987Y-111759210D01*
X138176000Y-111760000D02*
X138175210Y-111759210D01*
X132003800Y-123317000D02*
X135763000Y-123317000D01*
%TO.N,CAN_TX*%
X145664386Y-108327000D02*
X142989386Y-111002000D01*
X146997500Y-108327000D02*
X145664386Y-108327000D01*
X142989386Y-111002000D02*
X142087600Y-111002000D01*
%TO.N,CAN_RX*%
X142073038Y-106715143D02*
X142798480Y-106715143D01*
X148336000Y-107696000D02*
X147103489Y-106463489D01*
X142798480Y-106715143D02*
X143050134Y-106463489D01*
X146997500Y-108977000D02*
X148071000Y-108977000D01*
X148336000Y-108712000D02*
X148336000Y-107696000D01*
X148071000Y-108977000D02*
X148336000Y-108712000D01*
X147103489Y-106463489D02*
X143050134Y-106463489D01*
%TO.N,MISO*%
X155320402Y-110277000D02*
X156112400Y-111068998D01*
X152722500Y-110277000D02*
X155320402Y-110277000D01*
X156112400Y-111068998D02*
X157067250Y-111068998D01*
%TO.N,MOSI*%
X152722500Y-110927000D02*
X154107000Y-110927000D01*
X154898999Y-111718999D02*
X157067250Y-111718999D01*
X154107000Y-110927000D02*
X154898999Y-111718999D01*
%TO.N,SCK*%
X160629248Y-112561776D02*
X161472025Y-111718999D01*
X152722500Y-112227000D02*
X153883000Y-112227000D01*
X161472025Y-111718999D02*
X162972750Y-111718999D01*
X153883000Y-112227000D02*
X154228946Y-112572946D01*
%TO.N,Net-(C4-Pad1)*%
X121920000Y-121539000D02*
X121920000Y-119523000D01*
X121920000Y-119523000D02*
X121904000Y-119507000D01*
%TO.N,Net-(C13-Pad2)*%
X123014500Y-74246500D02*
X122428000Y-73660000D01*
X123014500Y-75105500D02*
X122428000Y-75692000D01*
X122428000Y-73660000D02*
X120904000Y-73660000D01*
X123014500Y-74742000D02*
X123014500Y-74246500D01*
X122428000Y-75692000D02*
X121920000Y-75692000D01*
X123014500Y-74742000D02*
X123014500Y-75105500D01*
%TO.N,Net-(D9-Pad1)*%
X120396000Y-75692000D02*
X118364000Y-73660000D01*
X120904000Y-78740000D02*
X120396000Y-78232000D01*
X120396000Y-76708000D02*
X122948500Y-76708000D01*
X120904000Y-79756000D02*
X120904000Y-78740000D01*
X118364000Y-73660000D02*
X117604000Y-73660000D01*
X120396000Y-76708000D02*
X120396000Y-75692000D01*
X121476000Y-80328000D02*
X120904000Y-79756000D01*
X122948500Y-76708000D02*
X123014500Y-76642000D01*
X120396000Y-78232000D02*
X120396000Y-76708000D01*
X123952000Y-80328000D02*
X121476000Y-80328000D01*
%TO.N,Net-(D16-Pad1)*%
X164608000Y-82804000D02*
X164084000Y-82804000D01*
X164084000Y-82804000D02*
X162560000Y-81280000D01*
%TO.N,Net-(D12-Pad2)*%
X156154906Y-74594520D02*
X156398426Y-74351000D01*
X155497480Y-74594520D02*
X156154906Y-74594520D01*
X154908000Y-75184000D02*
X155497480Y-74594520D01*
X156398426Y-74351000D02*
X157665500Y-74351000D01*
%TO.N,Net-(D20-Pad1)*%
X165116000Y-115300000D02*
X166116000Y-115300000D01*
X164917000Y-117025500D02*
X164917000Y-115499000D01*
X166599402Y-115300000D02*
X167635701Y-116336299D01*
X166116000Y-115300000D02*
X166599402Y-115300000D01*
X164917000Y-115499000D02*
X165116000Y-115300000D01*
%TO.N,Net-(Q12-Pad3)*%
X152893826Y-84821826D02*
X152908000Y-84836000D01*
X152986500Y-87376000D02*
X152986500Y-84914500D01*
X152986500Y-84914500D02*
X152908000Y-84836000D01*
X150637508Y-84821826D02*
X152893826Y-84821826D01*
%TO.N,Net-(Q17-Pad3)*%
X166624000Y-82820000D02*
X166608000Y-82804000D01*
X166608000Y-82804000D02*
X166624000Y-82804000D01*
X166624000Y-84914500D02*
X166624000Y-82820000D01*
X166624000Y-82804000D02*
X167640000Y-81788000D01*
X167640000Y-81788000D02*
X168734500Y-81788000D01*
%TO.N,Net-(R8-Pad2)*%
X124111000Y-120777000D02*
X124079000Y-120809000D01*
X127062468Y-120763268D02*
X127076200Y-120777000D01*
X127076200Y-120777000D02*
X124111000Y-120777000D01*
%TO.N,Net-(U18-Pad15)*%
X180276000Y-111316000D02*
X180276000Y-109728000D01*
X176090500Y-112167000D02*
X179425000Y-112167000D01*
X179425000Y-112167000D02*
X180276000Y-111316000D01*
%TO.N,Net-(C2-Pad2)*%
X121793000Y-115316000D02*
X123317000Y-115316000D01*
%TO.N,Net-(C6-Pad1)*%
X137500000Y-93488000D02*
X137500000Y-91586500D01*
X137500000Y-93488000D02*
X135698046Y-93488000D01*
X137668000Y-87884000D02*
X139700000Y-87884000D01*
X137500000Y-91586500D02*
X137646500Y-91440000D01*
X135698046Y-93488000D02*
X135587389Y-93598657D01*
X137646500Y-91440000D02*
X137646500Y-87905500D01*
X137646500Y-87905500D02*
X137668000Y-87884000D01*
%TO.N,Net-(C5-Pad2)*%
X137181500Y-99605500D02*
X137144000Y-99568000D01*
X138662500Y-100562500D02*
X137668000Y-99568000D01*
X137144000Y-97012000D02*
X135626715Y-95494715D01*
X135626715Y-95494715D02*
X135626715Y-95258337D01*
X138662500Y-100584000D02*
X138662500Y-100562500D01*
X137144000Y-99568000D02*
X137144000Y-97536000D01*
X137500000Y-94988000D02*
X135897052Y-94988000D01*
X137668000Y-99568000D02*
X137144000Y-99568000D01*
X137181500Y-101600000D02*
X137181500Y-99605500D01*
X137144000Y-97536000D02*
X137144000Y-97012000D01*
X135897052Y-94988000D02*
X135626715Y-95258337D01*
%TO.N,Net-(C9-Pad2)*%
X123952000Y-84328000D02*
X123952000Y-86047000D01*
X123952000Y-86047000D02*
X124773000Y-86868000D01*
X122936000Y-86868000D02*
X124773000Y-86868000D01*
%TO.N,Net-(C11-Pad1)*%
X112715000Y-75519500D02*
X113590000Y-75519500D01*
X112649000Y-75585500D02*
X112715000Y-75519500D01*
X112649000Y-77068500D02*
X112649000Y-75585500D01*
X113590000Y-75519500D02*
X113858000Y-75787500D01*
%TO.N,Net-(C11-Pad2)*%
X111699000Y-77068500D02*
X111699000Y-77184500D01*
X111699000Y-77184500D02*
X110556000Y-78327500D01*
%TO.N,Net-(D6-Pad1)*%
X135144000Y-97536000D02*
X133572000Y-97536000D01*
X133572000Y-97536000D02*
X132556000Y-98552000D01*
%TO.N,Net-(D10-Pad1)*%
X119348000Y-81756000D02*
X118872000Y-81280000D01*
X118872000Y-81280000D02*
X118872000Y-79280000D01*
X120904000Y-81756000D02*
X119348000Y-81756000D01*
X118872000Y-79280000D02*
X118840000Y-79248000D01*
%TO.N,Net-(D19-Pad2)*%
X157448000Y-83312000D02*
X157574000Y-83186000D01*
X157574000Y-83186000D02*
X160528000Y-83186000D01*
%TO.N,Net-(D13-Pad1)*%
X162411763Y-74060124D02*
X161919245Y-74060124D01*
X161480500Y-73977500D02*
X161563124Y-74060124D01*
X162702639Y-74351000D02*
X162411763Y-74060124D01*
X163390500Y-74351000D02*
X162702639Y-74351000D01*
X161274000Y-73771000D02*
X161274000Y-72898000D01*
X161854000Y-74351000D02*
X161480500Y-73977500D01*
X161480500Y-73977500D02*
X161274000Y-73771000D01*
X161563124Y-74060124D02*
X161919245Y-74060124D01*
%TO.N,Net-(D12-Pad1)*%
X156713677Y-73701000D02*
X157665500Y-73701000D01*
X154940000Y-73152000D02*
X156164677Y-73152000D01*
X156164677Y-73152000D02*
X156713677Y-73701000D01*
%TO.N,Net-(L1-Pad2)*%
X140716000Y-78679040D02*
X142113000Y-77282040D01*
X140716000Y-80264000D02*
X140716000Y-78679040D01*
X141591000Y-81139000D02*
X140716000Y-80264000D01*
X141591000Y-81280000D02*
X141591000Y-81139000D01*
%TO.N,Net-(Q5-Pad1)*%
X118521000Y-75758000D02*
X117414000Y-75758000D01*
X117414000Y-75758000D02*
X116840000Y-76332000D01*
X116840000Y-76332000D02*
X116840000Y-79248000D01*
%TO.N,Net-(Q5-Pad2)*%
X118521000Y-77373000D02*
X117856000Y-76708000D01*
X118521000Y-77658000D02*
X118521000Y-77373000D01*
%TO.N,Net-(Q16-Pad1)*%
X156662755Y-91749245D02*
X156662755Y-91130755D01*
X156662755Y-91130755D02*
X156464000Y-90932000D01*
%TO.N,Net-(Q15-Pad1)*%
X161544000Y-87884000D02*
X162560000Y-86868000D01*
X161036000Y-87884000D02*
X161544000Y-87884000D01*
X165100000Y-88392000D02*
X165674000Y-87818000D01*
X160528000Y-88392000D02*
X161036000Y-87884000D01*
X164592000Y-88392000D02*
X165100000Y-88392000D01*
X165674000Y-87818000D02*
X165674000Y-86789500D01*
X162560000Y-86868000D02*
X162560000Y-86852000D01*
%TO.N,Net-(Q20-Pad1)*%
X158430000Y-120474500D02*
X160077235Y-120474500D01*
X160077235Y-120474500D02*
X160171152Y-120568417D01*
%TO.N,Net-(R39-Pad2)*%
X147804000Y-85655334D02*
X147804000Y-87250000D01*
X148637508Y-84821826D02*
X147804000Y-85655334D01*
X149734000Y-87250000D02*
X149860000Y-87376000D01*
X147804000Y-87250000D02*
X149734000Y-87250000D01*
%TO.N,Net-(R27-Pad2)*%
X163390500Y-75001000D02*
X164539801Y-75001000D01*
X164539801Y-75001000D02*
X164614301Y-74926500D01*
%TO.N,Net-(R50-Pad2)*%
X164084000Y-114808000D02*
X163068000Y-114808000D01*
X164267000Y-114991000D02*
X164084000Y-114808000D01*
X164267000Y-115133000D02*
X164267000Y-114991000D01*
X164267000Y-117025500D02*
X164267000Y-115133000D01*
%TO.N,Net-(R56-Pad2)*%
X178223000Y-115417000D02*
X178308000Y-115332000D01*
X176090500Y-114767000D02*
X176090500Y-115417000D01*
X176090500Y-115417000D02*
X178223000Y-115417000D01*
%TO.N,Net-(RN3-Pad6)*%
X168757000Y-96377361D02*
X168757000Y-95689500D01*
X163133405Y-97185951D02*
X163744155Y-97185951D01*
X167483801Y-97650560D02*
X168757000Y-96377361D01*
X163744155Y-97185951D02*
X164208765Y-97650560D01*
X164208765Y-97650560D02*
X167483801Y-97650560D01*
%TO.N,Net-(R18-Pad2)*%
X192373000Y-103886000D02*
X192373000Y-104450000D01*
X192405000Y-106752000D02*
X192405000Y-103918000D01*
X192373000Y-101599199D02*
X192323001Y-101549200D01*
X192405000Y-103918000D02*
X192373000Y-103886000D01*
X185905000Y-106752000D02*
X192405000Y-106752000D01*
X192373000Y-103886000D02*
X192373000Y-101599199D01*
%TO.N,Net-(U19-Pad9)*%
X143288000Y-114840000D02*
X143288000Y-116840000D01*
X144537000Y-113527000D02*
X143256000Y-114808000D01*
X143256000Y-114808000D02*
X143288000Y-114840000D01*
X146997500Y-113527000D02*
X144537000Y-113527000D01*
%TO.N,~{PIC_BL_ENTRY}*%
X189848000Y-77184000D02*
X188872000Y-78160000D01*
X188872000Y-78160000D02*
X182372000Y-78160000D01*
X191008000Y-77184000D02*
X189848000Y-77184000D01*
%TD*%
M02*
