%TF.GenerationSoftware,KiCad,Pcbnew,6.0.11-2627ca5db0~126~ubuntu22.04.1*%
%TF.CreationDate,2023-02-07T19:59:45-05:00*%
%TF.ProjectId,qwiic-obd,71776969-632d-46f6-9264-2e6b69636164,rev?*%
%TF.SameCoordinates,Original*%
%TF.FileFunction,Legend,Top*%
%TF.FilePolarity,Positive*%
%FSLAX46Y46*%
G04 Gerber Fmt 4.6, Leading zero omitted, Abs format (unit mm)*
G04 Created by KiCad (PCBNEW 6.0.11-2627ca5db0~126~ubuntu22.04.1) date 2023-02-07 19:59:45*
%MOMM*%
%LPD*%
G01*
G04 APERTURE LIST*
%ADD10C,0.150000*%
%ADD11C,0.127000*%
%ADD12C,0.101600*%
%ADD13C,0.066040*%
%ADD14C,0.203200*%
%ADD15C,0.120000*%
%ADD16C,0.100000*%
%ADD17C,0.010000*%
G04 APERTURE END LIST*
D10*
X197317809Y-122322238D02*
X197244000Y-122469857D01*
X197096380Y-122617476D01*
X196874952Y-122838904D01*
X196801142Y-122986523D01*
X196801142Y-123134142D01*
X197170190Y-123060333D02*
X197096380Y-123207952D01*
X196948761Y-123355571D01*
X196653523Y-123429380D01*
X196136857Y-123429380D01*
X195841619Y-123355571D01*
X195694000Y-123207952D01*
X195620190Y-123060333D01*
X195620190Y-122765095D01*
X195694000Y-122617476D01*
X195841619Y-122469857D01*
X196136857Y-122396047D01*
X196653523Y-122396047D01*
X196948761Y-122469857D01*
X197096380Y-122617476D01*
X197170190Y-122765095D01*
X197170190Y-123060333D01*
X195620190Y-121879380D02*
X197170190Y-121510333D01*
X196063047Y-121215095D01*
X197170190Y-120919857D01*
X195620190Y-120550809D01*
X197170190Y-119960333D02*
X195620190Y-119960333D01*
X197170190Y-119222238D02*
X195620190Y-119222238D01*
X197022571Y-117598428D02*
X197096380Y-117672238D01*
X197170190Y-117893666D01*
X197170190Y-118041285D01*
X197096380Y-118262714D01*
X196948761Y-118410333D01*
X196801142Y-118484142D01*
X196505904Y-118557952D01*
X196284476Y-118557952D01*
X195989238Y-118484142D01*
X195841619Y-118410333D01*
X195694000Y-118262714D01*
X195620190Y-118041285D01*
X195620190Y-117893666D01*
X195694000Y-117672238D01*
X195767809Y-117598428D01*
X195620190Y-115457952D02*
X195620190Y-115162714D01*
X195694000Y-115015095D01*
X195841619Y-114867476D01*
X196136857Y-114793666D01*
X196653523Y-114793666D01*
X196948761Y-114867476D01*
X197096380Y-115015095D01*
X197170190Y-115162714D01*
X197170190Y-115457952D01*
X197096380Y-115605571D01*
X196948761Y-115753190D01*
X196653523Y-115827000D01*
X196136857Y-115827000D01*
X195841619Y-115753190D01*
X195694000Y-115605571D01*
X195620190Y-115457952D01*
X196358285Y-113612714D02*
X196432095Y-113391285D01*
X196505904Y-113317476D01*
X196653523Y-113243666D01*
X196874952Y-113243666D01*
X197022571Y-113317476D01*
X197096380Y-113391285D01*
X197170190Y-113538904D01*
X197170190Y-114129380D01*
X195620190Y-114129380D01*
X195620190Y-113612714D01*
X195694000Y-113465095D01*
X195767809Y-113391285D01*
X195915428Y-113317476D01*
X196063047Y-113317476D01*
X196210666Y-113391285D01*
X196284476Y-113465095D01*
X196358285Y-113612714D01*
X196358285Y-114129380D01*
X197170190Y-112579380D02*
X195620190Y-112579380D01*
X195620190Y-112210333D01*
X195694000Y-111988904D01*
X195841619Y-111841285D01*
X195989238Y-111767476D01*
X196284476Y-111693666D01*
X196505904Y-111693666D01*
X196801142Y-111767476D01*
X196948761Y-111841285D01*
X197096380Y-111988904D01*
X197170190Y-112210333D01*
X197170190Y-112579380D01*
X197170190Y-111029380D02*
X195620190Y-111029380D01*
X197170190Y-110291285D02*
X195620190Y-110291285D01*
X197170190Y-108372238D02*
X195620190Y-108372238D01*
X196136857Y-107634142D02*
X197170190Y-107634142D01*
X196284476Y-107634142D02*
X196210666Y-107560333D01*
X196136857Y-107412714D01*
X196136857Y-107191285D01*
X196210666Y-107043666D01*
X196358285Y-106969857D01*
X197170190Y-106969857D01*
X196136857Y-106453190D02*
X196136857Y-105862714D01*
X195620190Y-106231761D02*
X196948761Y-106231761D01*
X197096380Y-106157952D01*
X197170190Y-106010333D01*
X197170190Y-105862714D01*
X197096380Y-104755571D02*
X197170190Y-104903190D01*
X197170190Y-105198428D01*
X197096380Y-105346047D01*
X196948761Y-105419857D01*
X196358285Y-105419857D01*
X196210666Y-105346047D01*
X196136857Y-105198428D01*
X196136857Y-104903190D01*
X196210666Y-104755571D01*
X196358285Y-104681761D01*
X196505904Y-104681761D01*
X196653523Y-105419857D01*
X197170190Y-104017476D02*
X196136857Y-104017476D01*
X196432095Y-104017476D02*
X196284476Y-103943666D01*
X196210666Y-103869857D01*
X196136857Y-103722238D01*
X196136857Y-103574619D01*
X196136857Y-103279380D02*
X196136857Y-102688904D01*
X197170190Y-103057952D02*
X195841619Y-103057952D01*
X195694000Y-102984142D01*
X195620190Y-102836523D01*
X195620190Y-102688904D01*
X197170190Y-101507952D02*
X196358285Y-101507952D01*
X196210666Y-101581761D01*
X196136857Y-101729380D01*
X196136857Y-102024619D01*
X196210666Y-102172238D01*
X197096380Y-101507952D02*
X197170190Y-101655571D01*
X197170190Y-102024619D01*
X197096380Y-102172238D01*
X196948761Y-102246047D01*
X196801142Y-102246047D01*
X196653523Y-102172238D01*
X196579714Y-102024619D01*
X196579714Y-101655571D01*
X196505904Y-101507952D01*
X197096380Y-100105571D02*
X197170190Y-100253190D01*
X197170190Y-100548428D01*
X197096380Y-100696047D01*
X197022571Y-100769857D01*
X196874952Y-100843666D01*
X196432095Y-100843666D01*
X196284476Y-100769857D01*
X196210666Y-100696047D01*
X196136857Y-100548428D01*
X196136857Y-100253190D01*
X196210666Y-100105571D01*
X197096380Y-98850809D02*
X197170190Y-98998428D01*
X197170190Y-99293666D01*
X197096380Y-99441285D01*
X196948761Y-99515095D01*
X196358285Y-99515095D01*
X196210666Y-99441285D01*
X196136857Y-99293666D01*
X196136857Y-98998428D01*
X196210666Y-98850809D01*
X196358285Y-98777000D01*
X196505904Y-98777000D01*
X196653523Y-99515095D01*
X196136857Y-97079380D02*
X197170190Y-96710333D01*
X196136857Y-96341285D01*
X197170190Y-94938904D02*
X197170190Y-95824619D01*
X197170190Y-95381761D02*
X195620190Y-95381761D01*
X195841619Y-95529380D01*
X195989238Y-95677000D01*
X196063047Y-95824619D01*
X197022571Y-94274619D02*
X197096380Y-94200809D01*
X197170190Y-94274619D01*
X197096380Y-94348428D01*
X197022571Y-94274619D01*
X197170190Y-94274619D01*
X195620190Y-93241285D02*
X195620190Y-93093666D01*
X195694000Y-92946047D01*
X195767809Y-92872238D01*
X195915428Y-92798428D01*
X196210666Y-92724619D01*
X196579714Y-92724619D01*
X196874952Y-92798428D01*
X197022571Y-92872238D01*
X197096380Y-92946047D01*
X197170190Y-93093666D01*
X197170190Y-93241285D01*
X197096380Y-93388904D01*
X197022571Y-93462714D01*
X196874952Y-93536523D01*
X196579714Y-93610333D01*
X196210666Y-93610333D01*
X195915428Y-93536523D01*
X195767809Y-93462714D01*
X195694000Y-93388904D01*
X195620190Y-93241285D01*
X200259000Y-121537428D02*
X200187571Y-121608857D01*
X199973285Y-121751714D01*
X199830428Y-121823142D01*
X199616142Y-121894571D01*
X199259000Y-121966000D01*
X198973285Y-121966000D01*
X198616142Y-121894571D01*
X198401857Y-121823142D01*
X198259000Y-121751714D01*
X198044714Y-121608857D01*
X197973285Y-121537428D01*
X199616142Y-120323142D02*
X199687571Y-120466000D01*
X199687571Y-120751714D01*
X199616142Y-120894571D01*
X199544714Y-120966000D01*
X199401857Y-121037428D01*
X198973285Y-121037428D01*
X198830428Y-120966000D01*
X198759000Y-120894571D01*
X198687571Y-120751714D01*
X198687571Y-120466000D01*
X198759000Y-120323142D01*
X200259000Y-119823142D02*
X200187571Y-119751714D01*
X199973285Y-119608857D01*
X199830428Y-119537428D01*
X199616142Y-119466000D01*
X199259000Y-119394571D01*
X198973285Y-119394571D01*
X198616142Y-119466000D01*
X198401857Y-119537428D01*
X198259000Y-119608857D01*
X198044714Y-119751714D01*
X197973285Y-119823142D01*
X198330428Y-117608857D02*
X198259000Y-117537428D01*
X198187571Y-117394571D01*
X198187571Y-117037428D01*
X198259000Y-116894571D01*
X198330428Y-116823142D01*
X198473285Y-116751714D01*
X198616142Y-116751714D01*
X198830428Y-116823142D01*
X199687571Y-117680285D01*
X199687571Y-116751714D01*
X198187571Y-115823142D02*
X198187571Y-115680285D01*
X198259000Y-115537428D01*
X198330428Y-115466000D01*
X198473285Y-115394571D01*
X198759000Y-115323142D01*
X199116142Y-115323142D01*
X199401857Y-115394571D01*
X199544714Y-115466000D01*
X199616142Y-115537428D01*
X199687571Y-115680285D01*
X199687571Y-115823142D01*
X199616142Y-115966000D01*
X199544714Y-116037428D01*
X199401857Y-116108857D01*
X199116142Y-116180285D01*
X198759000Y-116180285D01*
X198473285Y-116108857D01*
X198330428Y-116037428D01*
X198259000Y-115966000D01*
X198187571Y-115823142D01*
X198330428Y-114751714D02*
X198259000Y-114680285D01*
X198187571Y-114537428D01*
X198187571Y-114180285D01*
X198259000Y-114037428D01*
X198330428Y-113966000D01*
X198473285Y-113894571D01*
X198616142Y-113894571D01*
X198830428Y-113966000D01*
X199687571Y-114823142D01*
X199687571Y-113894571D01*
X198187571Y-113394571D02*
X198187571Y-112466000D01*
X198759000Y-112966000D01*
X198759000Y-112751714D01*
X198830428Y-112608857D01*
X198901857Y-112537428D01*
X199044714Y-112466000D01*
X199401857Y-112466000D01*
X199544714Y-112537428D01*
X199616142Y-112608857D01*
X199687571Y-112751714D01*
X199687571Y-113180285D01*
X199616142Y-113323142D01*
X199544714Y-113394571D01*
X198259000Y-109894571D02*
X198187571Y-110037428D01*
X198187571Y-110251714D01*
X198259000Y-110466000D01*
X198401857Y-110608857D01*
X198544714Y-110680285D01*
X198830428Y-110751714D01*
X199044714Y-110751714D01*
X199330428Y-110680285D01*
X199473285Y-110608857D01*
X199616142Y-110466000D01*
X199687571Y-110251714D01*
X199687571Y-110108857D01*
X199616142Y-109894571D01*
X199544714Y-109823142D01*
X199044714Y-109823142D01*
X199044714Y-110108857D01*
X199687571Y-108537428D02*
X198901857Y-108537428D01*
X198759000Y-108608857D01*
X198687571Y-108751714D01*
X198687571Y-109037428D01*
X198759000Y-109180285D01*
X199616142Y-108537428D02*
X199687571Y-108680285D01*
X199687571Y-109037428D01*
X199616142Y-109180285D01*
X199473285Y-109251714D01*
X199330428Y-109251714D01*
X199187571Y-109180285D01*
X199116142Y-109037428D01*
X199116142Y-108680285D01*
X199044714Y-108537428D01*
X198687571Y-107966000D02*
X199687571Y-107608857D01*
X198687571Y-107251714D01*
X199687571Y-106680285D02*
X198687571Y-106680285D01*
X198187571Y-106680285D02*
X198259000Y-106751714D01*
X198330428Y-106680285D01*
X198259000Y-106608857D01*
X198187571Y-106680285D01*
X198330428Y-106680285D01*
X198687571Y-105966000D02*
X199687571Y-105966000D01*
X198830428Y-105966000D02*
X198759000Y-105894571D01*
X198687571Y-105751714D01*
X198687571Y-105537428D01*
X198759000Y-105394571D01*
X198901857Y-105323142D01*
X199687571Y-105323142D01*
X199687571Y-103466000D02*
X198187571Y-103466000D01*
X198901857Y-103466000D02*
X198901857Y-102608857D01*
X199687571Y-102608857D02*
X198187571Y-102608857D01*
X198687571Y-101251714D02*
X199687571Y-101251714D01*
X198687571Y-101894571D02*
X199473285Y-101894571D01*
X199616142Y-101823142D01*
X199687571Y-101680285D01*
X199687571Y-101466000D01*
X199616142Y-101323142D01*
X199544714Y-101251714D01*
X199687571Y-100537428D02*
X198687571Y-100537428D01*
X198973285Y-100537428D02*
X198830428Y-100466000D01*
X198759000Y-100394571D01*
X198687571Y-100251714D01*
X198687571Y-100108857D01*
X199687571Y-99394571D02*
X199616142Y-99537428D01*
X199473285Y-99608857D01*
X198187571Y-99608857D01*
X199687571Y-98823142D02*
X198187571Y-98823142D01*
X198759000Y-98823142D02*
X198687571Y-98680285D01*
X198687571Y-98394571D01*
X198759000Y-98251714D01*
X198830428Y-98180285D01*
X198973285Y-98108857D01*
X199401857Y-98108857D01*
X199544714Y-98180285D01*
X199616142Y-98251714D01*
X199687571Y-98394571D01*
X199687571Y-98680285D01*
X199616142Y-98823142D01*
X198687571Y-96823142D02*
X199687571Y-96823142D01*
X198687571Y-97466000D02*
X199473285Y-97466000D01*
X199616142Y-97394571D01*
X199687571Y-97251714D01*
X199687571Y-97037428D01*
X199616142Y-96894571D01*
X199544714Y-96823142D01*
X198687571Y-96323142D02*
X198687571Y-95751714D01*
X198187571Y-96108857D02*
X199473285Y-96108857D01*
X199616142Y-96037428D01*
X199687571Y-95894571D01*
X199687571Y-95751714D01*
D11*
%TO.C,J6*%
X205004523Y-87023333D02*
X205911666Y-87023333D01*
X206093095Y-87083809D01*
X206214047Y-87204761D01*
X206274523Y-87386190D01*
X206274523Y-87507142D01*
X205004523Y-85874285D02*
X205004523Y-86116190D01*
X205065000Y-86237142D01*
X205125476Y-86297619D01*
X205306904Y-86418571D01*
X205548809Y-86479047D01*
X206032619Y-86479047D01*
X206153571Y-86418571D01*
X206214047Y-86358095D01*
X206274523Y-86237142D01*
X206274523Y-85995238D01*
X206214047Y-85874285D01*
X206153571Y-85813809D01*
X206032619Y-85753333D01*
X205730238Y-85753333D01*
X205609285Y-85813809D01*
X205548809Y-85874285D01*
X205488333Y-85995238D01*
X205488333Y-86237142D01*
X205548809Y-86358095D01*
X205609285Y-86418571D01*
X205730238Y-86479047D01*
D12*
X203932380Y-90965000D02*
X203811428Y-90904523D01*
X203630000Y-90904523D01*
X203448571Y-90965000D01*
X203327619Y-91085952D01*
X203267142Y-91206904D01*
X203206666Y-91448809D01*
X203206666Y-91630238D01*
X203267142Y-91872142D01*
X203327619Y-91993095D01*
X203448571Y-92114047D01*
X203630000Y-92174523D01*
X203750952Y-92174523D01*
X203932380Y-92114047D01*
X203992857Y-92053571D01*
X203992857Y-91630238D01*
X203750952Y-91630238D01*
X205262857Y-92174523D02*
X204839523Y-91569761D01*
X204537142Y-92174523D02*
X204537142Y-90904523D01*
X205020952Y-90904523D01*
X205141904Y-90965000D01*
X205202380Y-91025476D01*
X205262857Y-91146428D01*
X205262857Y-91327857D01*
X205202380Y-91448809D01*
X205141904Y-91509285D01*
X205020952Y-91569761D01*
X204537142Y-91569761D01*
X205807142Y-92174523D02*
X205807142Y-90904523D01*
X206532857Y-92174523D01*
X206532857Y-90904523D01*
X203641666Y-79109285D02*
X203823095Y-79169761D01*
X203883571Y-79230238D01*
X203944047Y-79351190D01*
X203944047Y-79532619D01*
X203883571Y-79653571D01*
X203823095Y-79714047D01*
X203702142Y-79774523D01*
X203218333Y-79774523D01*
X203218333Y-78504523D01*
X203641666Y-78504523D01*
X203762619Y-78565000D01*
X203823095Y-78625476D01*
X203883571Y-78746428D01*
X203883571Y-78867380D01*
X203823095Y-78988333D01*
X203762619Y-79048809D01*
X203641666Y-79109285D01*
X203218333Y-79109285D01*
X205093095Y-79774523D02*
X204488333Y-79774523D01*
X204488333Y-78504523D01*
X205516428Y-79774523D02*
X205516428Y-78504523D01*
X206242142Y-79774523D02*
X205697857Y-79048809D01*
X206242142Y-78504523D02*
X205516428Y-79230238D01*
D11*
%TO.C,J5*%
X193904523Y-77223333D02*
X194811666Y-77223333D01*
X194993095Y-77283809D01*
X195114047Y-77404761D01*
X195174523Y-77586190D01*
X195174523Y-77707142D01*
X193904523Y-76013809D02*
X193904523Y-76618571D01*
X194509285Y-76679047D01*
X194448809Y-76618571D01*
X194388333Y-76497619D01*
X194388333Y-76195238D01*
X194448809Y-76074285D01*
X194509285Y-76013809D01*
X194630238Y-75953333D01*
X194932619Y-75953333D01*
X195053571Y-76013809D01*
X195114047Y-76074285D01*
X195174523Y-76195238D01*
X195174523Y-76497619D01*
X195114047Y-76618571D01*
X195053571Y-76679047D01*
D12*
X200909285Y-74858333D02*
X200969761Y-74676904D01*
X201030238Y-74616428D01*
X201151190Y-74555952D01*
X201332619Y-74555952D01*
X201453571Y-74616428D01*
X201514047Y-74676904D01*
X201574523Y-74797857D01*
X201574523Y-75281666D01*
X200304523Y-75281666D01*
X200304523Y-74858333D01*
X200365000Y-74737380D01*
X200425476Y-74676904D01*
X200546428Y-74616428D01*
X200667380Y-74616428D01*
X200788333Y-74676904D01*
X200848809Y-74737380D01*
X200909285Y-74858333D01*
X200909285Y-75281666D01*
X201574523Y-73406904D02*
X201574523Y-74011666D01*
X200304523Y-74011666D01*
X201574523Y-72983571D02*
X200304523Y-72983571D01*
X201574523Y-72257857D02*
X200848809Y-72802142D01*
X200304523Y-72257857D02*
X201030238Y-72983571D01*
X198265000Y-91267619D02*
X198204523Y-91388571D01*
X198204523Y-91570000D01*
X198265000Y-91751428D01*
X198385952Y-91872380D01*
X198506904Y-91932857D01*
X198748809Y-91993333D01*
X198930238Y-91993333D01*
X199172142Y-91932857D01*
X199293095Y-91872380D01*
X199414047Y-91751428D01*
X199474523Y-91570000D01*
X199474523Y-91449047D01*
X199414047Y-91267619D01*
X199353571Y-91207142D01*
X198930238Y-91207142D01*
X198930238Y-91449047D01*
X199474523Y-89937142D02*
X198869761Y-90360476D01*
X199474523Y-90662857D02*
X198204523Y-90662857D01*
X198204523Y-90179047D01*
X198265000Y-90058095D01*
X198325476Y-89997619D01*
X198446428Y-89937142D01*
X198627857Y-89937142D01*
X198748809Y-89997619D01*
X198809285Y-90058095D01*
X198869761Y-90179047D01*
X198869761Y-90662857D01*
X199474523Y-89392857D02*
X198204523Y-89392857D01*
X199474523Y-88667142D01*
X198204523Y-88667142D01*
D10*
%TO.C,U16*%
X183461904Y-79552380D02*
X183461904Y-80361904D01*
X183509523Y-80457142D01*
X183557142Y-80504761D01*
X183652380Y-80552380D01*
X183842857Y-80552380D01*
X183938095Y-80504761D01*
X183985714Y-80457142D01*
X184033333Y-80361904D01*
X184033333Y-79552380D01*
X185033333Y-80552380D02*
X184461904Y-80552380D01*
X184747619Y-80552380D02*
X184747619Y-79552380D01*
X184652380Y-79695238D01*
X184557142Y-79790476D01*
X184461904Y-79838095D01*
X185890476Y-79552380D02*
X185700000Y-79552380D01*
X185604761Y-79600000D01*
X185557142Y-79647619D01*
X185461904Y-79790476D01*
X185414285Y-79980952D01*
X185414285Y-80361904D01*
X185461904Y-80457142D01*
X185509523Y-80504761D01*
X185604761Y-80552380D01*
X185795238Y-80552380D01*
X185890476Y-80504761D01*
X185938095Y-80457142D01*
X185985714Y-80361904D01*
X185985714Y-80123809D01*
X185938095Y-80028571D01*
X185890476Y-79980952D01*
X185795238Y-79933333D01*
X185604761Y-79933333D01*
X185509523Y-79980952D01*
X185461904Y-80028571D01*
X185414285Y-80123809D01*
X188400000Y-86347619D02*
X188400000Y-86109523D01*
X188638095Y-86204761D02*
X188400000Y-86109523D01*
X188161904Y-86204761D01*
X188542857Y-85919047D02*
X188400000Y-86109523D01*
X188257142Y-85919047D01*
%TO.C,R36*%
X197152380Y-89642857D02*
X196676190Y-89976190D01*
X197152380Y-90214285D02*
X196152380Y-90214285D01*
X196152380Y-89833333D01*
X196200000Y-89738095D01*
X196247619Y-89690476D01*
X196342857Y-89642857D01*
X196485714Y-89642857D01*
X196580952Y-89690476D01*
X196628571Y-89738095D01*
X196676190Y-89833333D01*
X196676190Y-90214285D01*
X196152380Y-89309523D02*
X196152380Y-88690476D01*
X196533333Y-89023809D01*
X196533333Y-88880952D01*
X196580952Y-88785714D01*
X196628571Y-88738095D01*
X196723809Y-88690476D01*
X196961904Y-88690476D01*
X197057142Y-88738095D01*
X197104761Y-88785714D01*
X197152380Y-88880952D01*
X197152380Y-89166666D01*
X197104761Y-89261904D01*
X197057142Y-89309523D01*
X196152380Y-87833333D02*
X196152380Y-88023809D01*
X196200000Y-88119047D01*
X196247619Y-88166666D01*
X196390476Y-88261904D01*
X196580952Y-88309523D01*
X196961904Y-88309523D01*
X197057142Y-88261904D01*
X197104761Y-88214285D01*
X197152380Y-88119047D01*
X197152380Y-87928571D01*
X197104761Y-87833333D01*
X197057142Y-87785714D01*
X196961904Y-87738095D01*
X196723809Y-87738095D01*
X196628571Y-87785714D01*
X196580952Y-87833333D01*
X196533333Y-87928571D01*
X196533333Y-88119047D01*
X196580952Y-88214285D01*
X196628571Y-88261904D01*
X196723809Y-88309523D01*
%TO.C,R35*%
X191502380Y-89742857D02*
X191026190Y-90076190D01*
X191502380Y-90314285D02*
X190502380Y-90314285D01*
X190502380Y-89933333D01*
X190550000Y-89838095D01*
X190597619Y-89790476D01*
X190692857Y-89742857D01*
X190835714Y-89742857D01*
X190930952Y-89790476D01*
X190978571Y-89838095D01*
X191026190Y-89933333D01*
X191026190Y-90314285D01*
X190502380Y-89409523D02*
X190502380Y-88790476D01*
X190883333Y-89123809D01*
X190883333Y-88980952D01*
X190930952Y-88885714D01*
X190978571Y-88838095D01*
X191073809Y-88790476D01*
X191311904Y-88790476D01*
X191407142Y-88838095D01*
X191454761Y-88885714D01*
X191502380Y-88980952D01*
X191502380Y-89266666D01*
X191454761Y-89361904D01*
X191407142Y-89409523D01*
X190502380Y-87885714D02*
X190502380Y-88361904D01*
X190978571Y-88409523D01*
X190930952Y-88361904D01*
X190883333Y-88266666D01*
X190883333Y-88028571D01*
X190930952Y-87933333D01*
X190978571Y-87885714D01*
X191073809Y-87838095D01*
X191311904Y-87838095D01*
X191407142Y-87885714D01*
X191454761Y-87933333D01*
X191502380Y-88028571D01*
X191502380Y-88266666D01*
X191454761Y-88361904D01*
X191407142Y-88409523D01*
%TO.C,D15*%
X197152380Y-86514285D02*
X196152380Y-86514285D01*
X196152380Y-86276190D01*
X196200000Y-86133333D01*
X196295238Y-86038095D01*
X196390476Y-85990476D01*
X196580952Y-85942857D01*
X196723809Y-85942857D01*
X196914285Y-85990476D01*
X197009523Y-86038095D01*
X197104761Y-86133333D01*
X197152380Y-86276190D01*
X197152380Y-86514285D01*
X197152380Y-84990476D02*
X197152380Y-85561904D01*
X197152380Y-85276190D02*
X196152380Y-85276190D01*
X196295238Y-85371428D01*
X196390476Y-85466666D01*
X196438095Y-85561904D01*
X196152380Y-84085714D02*
X196152380Y-84561904D01*
X196628571Y-84609523D01*
X196580952Y-84561904D01*
X196533333Y-84466666D01*
X196533333Y-84228571D01*
X196580952Y-84133333D01*
X196628571Y-84085714D01*
X196723809Y-84038095D01*
X196961904Y-84038095D01*
X197057142Y-84085714D01*
X197104761Y-84133333D01*
X197152380Y-84228571D01*
X197152380Y-84466666D01*
X197104761Y-84561904D01*
X197057142Y-84609523D01*
%TO.C,D14*%
X191452380Y-87014285D02*
X190452380Y-87014285D01*
X190452380Y-86776190D01*
X190500000Y-86633333D01*
X190595238Y-86538095D01*
X190690476Y-86490476D01*
X190880952Y-86442857D01*
X191023809Y-86442857D01*
X191214285Y-86490476D01*
X191309523Y-86538095D01*
X191404761Y-86633333D01*
X191452380Y-86776190D01*
X191452380Y-87014285D01*
X191452380Y-85490476D02*
X191452380Y-86061904D01*
X191452380Y-85776190D02*
X190452380Y-85776190D01*
X190595238Y-85871428D01*
X190690476Y-85966666D01*
X190738095Y-86061904D01*
X190785714Y-84633333D02*
X191452380Y-84633333D01*
X190404761Y-84871428D02*
X191119047Y-85109523D01*
X191119047Y-84490476D01*
%TO.C,R46*%
X164965142Y-81606380D02*
X164631809Y-81130190D01*
X164393714Y-81606380D02*
X164393714Y-80606380D01*
X164774666Y-80606380D01*
X164869904Y-80654000D01*
X164917523Y-80701619D01*
X164965142Y-80796857D01*
X164965142Y-80939714D01*
X164917523Y-81034952D01*
X164869904Y-81082571D01*
X164774666Y-81130190D01*
X164393714Y-81130190D01*
X165822285Y-80939714D02*
X165822285Y-81606380D01*
X165584190Y-80558761D02*
X165346095Y-81273047D01*
X165965142Y-81273047D01*
X166774666Y-80606380D02*
X166584190Y-80606380D01*
X166488952Y-80654000D01*
X166441333Y-80701619D01*
X166346095Y-80844476D01*
X166298476Y-81034952D01*
X166298476Y-81415904D01*
X166346095Y-81511142D01*
X166393714Y-81558761D01*
X166488952Y-81606380D01*
X166679428Y-81606380D01*
X166774666Y-81558761D01*
X166822285Y-81511142D01*
X166869904Y-81415904D01*
X166869904Y-81177809D01*
X166822285Y-81082571D01*
X166774666Y-81034952D01*
X166679428Y-80987333D01*
X166488952Y-80987333D01*
X166393714Y-81034952D01*
X166346095Y-81082571D01*
X166298476Y-81177809D01*
%TO.C,RN2*%
X176385301Y-94495841D02*
X176051968Y-94019651D01*
X175813873Y-94495841D02*
X175813873Y-93495841D01*
X176194825Y-93495841D01*
X176290063Y-93543461D01*
X176337682Y-93591080D01*
X176385301Y-93686318D01*
X176385301Y-93829175D01*
X176337682Y-93924413D01*
X176290063Y-93972032D01*
X176194825Y-94019651D01*
X175813873Y-94019651D01*
X176813873Y-94495841D02*
X176813873Y-93495841D01*
X177385301Y-94495841D01*
X177385301Y-93495841D01*
X177813873Y-93591080D02*
X177861492Y-93543461D01*
X177956730Y-93495841D01*
X178194825Y-93495841D01*
X178290063Y-93543461D01*
X178337682Y-93591080D01*
X178385301Y-93686318D01*
X178385301Y-93781556D01*
X178337682Y-93924413D01*
X177766254Y-94495841D01*
X178385301Y-94495841D01*
X178612478Y-101579041D02*
X178612478Y-101817137D01*
X178374382Y-101721899D02*
X178612478Y-101817137D01*
X178850573Y-101721899D01*
X178469620Y-102007613D02*
X178612478Y-101817137D01*
X178755335Y-102007613D01*
X178612478Y-101579041D02*
X178612478Y-101817137D01*
X178374382Y-101721899D02*
X178612478Y-101817137D01*
X178850573Y-101721899D01*
X178469620Y-102007613D02*
X178612478Y-101817137D01*
X178755335Y-102007613D01*
%TO.C,D11*%
X117657714Y-72842380D02*
X117657714Y-71842380D01*
X117895809Y-71842380D01*
X118038666Y-71890000D01*
X118133904Y-71985238D01*
X118181523Y-72080476D01*
X118229142Y-72270952D01*
X118229142Y-72413809D01*
X118181523Y-72604285D01*
X118133904Y-72699523D01*
X118038666Y-72794761D01*
X117895809Y-72842380D01*
X117657714Y-72842380D01*
X119181523Y-72842380D02*
X118610095Y-72842380D01*
X118895809Y-72842380D02*
X118895809Y-71842380D01*
X118800571Y-71985238D01*
X118705333Y-72080476D01*
X118610095Y-72128095D01*
X120133904Y-72842380D02*
X119562476Y-72842380D01*
X119848190Y-72842380D02*
X119848190Y-71842380D01*
X119752952Y-71985238D01*
X119657714Y-72080476D01*
X119562476Y-72128095D01*
%TO.C,R14*%
X139057142Y-84780380D02*
X138723809Y-84304190D01*
X138485714Y-84780380D02*
X138485714Y-83780380D01*
X138866666Y-83780380D01*
X138961904Y-83828000D01*
X139009523Y-83875619D01*
X139057142Y-83970857D01*
X139057142Y-84113714D01*
X139009523Y-84208952D01*
X138961904Y-84256571D01*
X138866666Y-84304190D01*
X138485714Y-84304190D01*
X140009523Y-84780380D02*
X139438095Y-84780380D01*
X139723809Y-84780380D02*
X139723809Y-83780380D01*
X139628571Y-83923238D01*
X139533333Y-84018476D01*
X139438095Y-84066095D01*
X140866666Y-84113714D02*
X140866666Y-84780380D01*
X140628571Y-83732761D02*
X140390476Y-84447047D01*
X141009523Y-84447047D01*
%TO.C,U3*%
X130302095Y-114768380D02*
X130302095Y-115577904D01*
X130349714Y-115673142D01*
X130397333Y-115720761D01*
X130492571Y-115768380D01*
X130683047Y-115768380D01*
X130778285Y-115720761D01*
X130825904Y-115673142D01*
X130873523Y-115577904D01*
X130873523Y-114768380D01*
X131254476Y-114768380D02*
X131873523Y-114768380D01*
X131540190Y-115149333D01*
X131683047Y-115149333D01*
X131778285Y-115196952D01*
X131825904Y-115244571D01*
X131873523Y-115339809D01*
X131873523Y-115577904D01*
X131825904Y-115673142D01*
X131778285Y-115720761D01*
X131683047Y-115768380D01*
X131397333Y-115768380D01*
X131302095Y-115720761D01*
X131254476Y-115673142D01*
X130048000Y-115784380D02*
X130048000Y-116022476D01*
X129809904Y-115927238D02*
X130048000Y-116022476D01*
X130286095Y-115927238D01*
X129905142Y-116212952D02*
X130048000Y-116022476D01*
X130190857Y-116212952D01*
X130048000Y-115784380D02*
X130048000Y-116022476D01*
X129809904Y-115927238D02*
X130048000Y-116022476D01*
X130286095Y-115927238D01*
X129905142Y-116212952D02*
X130048000Y-116022476D01*
X130190857Y-116212952D01*
%TO.C,Q20*%
X156908571Y-124499619D02*
X156813333Y-124452000D01*
X156718095Y-124356761D01*
X156575238Y-124213904D01*
X156480000Y-124166285D01*
X156384761Y-124166285D01*
X156432380Y-124404380D02*
X156337142Y-124356761D01*
X156241904Y-124261523D01*
X156194285Y-124071047D01*
X156194285Y-123737714D01*
X156241904Y-123547238D01*
X156337142Y-123452000D01*
X156432380Y-123404380D01*
X156622857Y-123404380D01*
X156718095Y-123452000D01*
X156813333Y-123547238D01*
X156860952Y-123737714D01*
X156860952Y-124071047D01*
X156813333Y-124261523D01*
X156718095Y-124356761D01*
X156622857Y-124404380D01*
X156432380Y-124404380D01*
X157241904Y-123499619D02*
X157289523Y-123452000D01*
X157384761Y-123404380D01*
X157622857Y-123404380D01*
X157718095Y-123452000D01*
X157765714Y-123499619D01*
X157813333Y-123594857D01*
X157813333Y-123690095D01*
X157765714Y-123832952D01*
X157194285Y-124404380D01*
X157813333Y-124404380D01*
X158432380Y-123404380D02*
X158527619Y-123404380D01*
X158622857Y-123452000D01*
X158670476Y-123499619D01*
X158718095Y-123594857D01*
X158765714Y-123785333D01*
X158765714Y-124023428D01*
X158718095Y-124213904D01*
X158670476Y-124309142D01*
X158622857Y-124356761D01*
X158527619Y-124404380D01*
X158432380Y-124404380D01*
X158337142Y-124356761D01*
X158289523Y-124309142D01*
X158241904Y-124213904D01*
X158194285Y-124023428D01*
X158194285Y-123785333D01*
X158241904Y-123594857D01*
X158289523Y-123499619D01*
X158337142Y-123452000D01*
X158432380Y-123404380D01*
%TO.C,R42*%
X164662380Y-86494857D02*
X164186190Y-86828190D01*
X164662380Y-87066285D02*
X163662380Y-87066285D01*
X163662380Y-86685333D01*
X163710000Y-86590095D01*
X163757619Y-86542476D01*
X163852857Y-86494857D01*
X163995714Y-86494857D01*
X164090952Y-86542476D01*
X164138571Y-86590095D01*
X164186190Y-86685333D01*
X164186190Y-87066285D01*
X163995714Y-85637714D02*
X164662380Y-85637714D01*
X163614761Y-85875809D02*
X164329047Y-86113904D01*
X164329047Y-85494857D01*
X163757619Y-85161523D02*
X163710000Y-85113904D01*
X163662380Y-85018666D01*
X163662380Y-84780571D01*
X163710000Y-84685333D01*
X163757619Y-84637714D01*
X163852857Y-84590095D01*
X163948095Y-84590095D01*
X164090952Y-84637714D01*
X164662380Y-85209142D01*
X164662380Y-84590095D01*
%TO.C,R60*%
X157345142Y-105482380D02*
X157011809Y-105006190D01*
X156773714Y-105482380D02*
X156773714Y-104482380D01*
X157154666Y-104482380D01*
X157249904Y-104530000D01*
X157297523Y-104577619D01*
X157345142Y-104672857D01*
X157345142Y-104815714D01*
X157297523Y-104910952D01*
X157249904Y-104958571D01*
X157154666Y-105006190D01*
X156773714Y-105006190D01*
X158202285Y-104482380D02*
X158011809Y-104482380D01*
X157916571Y-104530000D01*
X157868952Y-104577619D01*
X157773714Y-104720476D01*
X157726095Y-104910952D01*
X157726095Y-105291904D01*
X157773714Y-105387142D01*
X157821333Y-105434761D01*
X157916571Y-105482380D01*
X158107047Y-105482380D01*
X158202285Y-105434761D01*
X158249904Y-105387142D01*
X158297523Y-105291904D01*
X158297523Y-105053809D01*
X158249904Y-104958571D01*
X158202285Y-104910952D01*
X158107047Y-104863333D01*
X157916571Y-104863333D01*
X157821333Y-104910952D01*
X157773714Y-104958571D01*
X157726095Y-105053809D01*
X158916571Y-104482380D02*
X159011809Y-104482380D01*
X159107047Y-104530000D01*
X159154666Y-104577619D01*
X159202285Y-104672857D01*
X159249904Y-104863333D01*
X159249904Y-105101428D01*
X159202285Y-105291904D01*
X159154666Y-105387142D01*
X159107047Y-105434761D01*
X159011809Y-105482380D01*
X158916571Y-105482380D01*
X158821333Y-105434761D01*
X158773714Y-105387142D01*
X158726095Y-105291904D01*
X158678476Y-105101428D01*
X158678476Y-104863333D01*
X158726095Y-104672857D01*
X158773714Y-104577619D01*
X158821333Y-104530000D01*
X158916571Y-104482380D01*
%TO.C,C2*%
X123166142Y-110656666D02*
X123213761Y-110704285D01*
X123261380Y-110847142D01*
X123261380Y-110942380D01*
X123213761Y-111085238D01*
X123118523Y-111180476D01*
X123023285Y-111228095D01*
X122832809Y-111275714D01*
X122689952Y-111275714D01*
X122499476Y-111228095D01*
X122404238Y-111180476D01*
X122309000Y-111085238D01*
X122261380Y-110942380D01*
X122261380Y-110847142D01*
X122309000Y-110704285D01*
X122356619Y-110656666D01*
X122356619Y-110275714D02*
X122309000Y-110228095D01*
X122261380Y-110132857D01*
X122261380Y-109894761D01*
X122309000Y-109799523D01*
X122356619Y-109751904D01*
X122451857Y-109704285D01*
X122547095Y-109704285D01*
X122689952Y-109751904D01*
X123261380Y-110323333D01*
X123261380Y-109704285D01*
%TO.C,C19*%
X148201142Y-82145142D02*
X148153523Y-82192761D01*
X148010666Y-82240380D01*
X147915428Y-82240380D01*
X147772571Y-82192761D01*
X147677333Y-82097523D01*
X147629714Y-82002285D01*
X147582095Y-81811809D01*
X147582095Y-81668952D01*
X147629714Y-81478476D01*
X147677333Y-81383238D01*
X147772571Y-81288000D01*
X147915428Y-81240380D01*
X148010666Y-81240380D01*
X148153523Y-81288000D01*
X148201142Y-81335619D01*
X149153523Y-82240380D02*
X148582095Y-82240380D01*
X148867809Y-82240380D02*
X148867809Y-81240380D01*
X148772571Y-81383238D01*
X148677333Y-81478476D01*
X148582095Y-81526095D01*
X149629714Y-82240380D02*
X149820190Y-82240380D01*
X149915428Y-82192761D01*
X149963047Y-82145142D01*
X150058285Y-82002285D01*
X150105904Y-81811809D01*
X150105904Y-81430857D01*
X150058285Y-81335619D01*
X150010666Y-81288000D01*
X149915428Y-81240380D01*
X149724952Y-81240380D01*
X149629714Y-81288000D01*
X149582095Y-81335619D01*
X149534476Y-81430857D01*
X149534476Y-81668952D01*
X149582095Y-81764190D01*
X149629714Y-81811809D01*
X149724952Y-81859428D01*
X149915428Y-81859428D01*
X150010666Y-81811809D01*
X150058285Y-81764190D01*
X150105904Y-81668952D01*
%TO.C,R20*%
X193618380Y-74826857D02*
X193142190Y-75160190D01*
X193618380Y-75398285D02*
X192618380Y-75398285D01*
X192618380Y-75017333D01*
X192666000Y-74922095D01*
X192713619Y-74874476D01*
X192808857Y-74826857D01*
X192951714Y-74826857D01*
X193046952Y-74874476D01*
X193094571Y-74922095D01*
X193142190Y-75017333D01*
X193142190Y-75398285D01*
X192713619Y-74445904D02*
X192666000Y-74398285D01*
X192618380Y-74303047D01*
X192618380Y-74064952D01*
X192666000Y-73969714D01*
X192713619Y-73922095D01*
X192808857Y-73874476D01*
X192904095Y-73874476D01*
X193046952Y-73922095D01*
X193618380Y-74493523D01*
X193618380Y-73874476D01*
X192618380Y-73255428D02*
X192618380Y-73160190D01*
X192666000Y-73064952D01*
X192713619Y-73017333D01*
X192808857Y-72969714D01*
X192999333Y-72922095D01*
X193237428Y-72922095D01*
X193427904Y-72969714D01*
X193523142Y-73017333D01*
X193570761Y-73064952D01*
X193618380Y-73160190D01*
X193618380Y-73255428D01*
X193570761Y-73350666D01*
X193523142Y-73398285D01*
X193427904Y-73445904D01*
X193237428Y-73493523D01*
X192999333Y-73493523D01*
X192808857Y-73445904D01*
X192713619Y-73398285D01*
X192666000Y-73350666D01*
X192618380Y-73255428D01*
%TO.C,R54*%
X182824380Y-115450857D02*
X182348190Y-115784190D01*
X182824380Y-116022285D02*
X181824380Y-116022285D01*
X181824380Y-115641333D01*
X181872000Y-115546095D01*
X181919619Y-115498476D01*
X182014857Y-115450857D01*
X182157714Y-115450857D01*
X182252952Y-115498476D01*
X182300571Y-115546095D01*
X182348190Y-115641333D01*
X182348190Y-116022285D01*
X181824380Y-114546095D02*
X181824380Y-115022285D01*
X182300571Y-115069904D01*
X182252952Y-115022285D01*
X182205333Y-114927047D01*
X182205333Y-114688952D01*
X182252952Y-114593714D01*
X182300571Y-114546095D01*
X182395809Y-114498476D01*
X182633904Y-114498476D01*
X182729142Y-114546095D01*
X182776761Y-114593714D01*
X182824380Y-114688952D01*
X182824380Y-114927047D01*
X182776761Y-115022285D01*
X182729142Y-115069904D01*
X182157714Y-113641333D02*
X182824380Y-113641333D01*
X181776761Y-113879428D02*
X182491047Y-114117523D01*
X182491047Y-113498476D01*
%TO.C,C7*%
X131913333Y-102973142D02*
X131865714Y-103020761D01*
X131722857Y-103068380D01*
X131627619Y-103068380D01*
X131484761Y-103020761D01*
X131389523Y-102925523D01*
X131341904Y-102830285D01*
X131294285Y-102639809D01*
X131294285Y-102496952D01*
X131341904Y-102306476D01*
X131389523Y-102211238D01*
X131484761Y-102116000D01*
X131627619Y-102068380D01*
X131722857Y-102068380D01*
X131865714Y-102116000D01*
X131913333Y-102163619D01*
X132246666Y-102068380D02*
X132913333Y-102068380D01*
X132484761Y-103068380D01*
%TO.C,U6*%
X132331800Y-117816380D02*
X132331800Y-118625904D01*
X132379419Y-118721142D01*
X132427038Y-118768761D01*
X132522276Y-118816380D01*
X132712752Y-118816380D01*
X132807990Y-118768761D01*
X132855609Y-118721142D01*
X132903228Y-118625904D01*
X132903228Y-117816380D01*
X133807990Y-117816380D02*
X133617514Y-117816380D01*
X133522276Y-117864000D01*
X133474657Y-117911619D01*
X133379419Y-118054476D01*
X133331800Y-118244952D01*
X133331800Y-118625904D01*
X133379419Y-118721142D01*
X133427038Y-118768761D01*
X133522276Y-118816380D01*
X133712752Y-118816380D01*
X133807990Y-118768761D01*
X133855609Y-118721142D01*
X133903228Y-118625904D01*
X133903228Y-118387809D01*
X133855609Y-118292571D01*
X133807990Y-118244952D01*
X133712752Y-118197333D01*
X133522276Y-118197333D01*
X133427038Y-118244952D01*
X133379419Y-118292571D01*
X133331800Y-118387809D01*
X134112000Y-123404380D02*
X134112000Y-123642476D01*
X133873904Y-123547238D02*
X134112000Y-123642476D01*
X134350095Y-123547238D01*
X133969142Y-123832952D02*
X134112000Y-123642476D01*
X134254857Y-123832952D01*
X134112000Y-123404380D02*
X134112000Y-123642476D01*
X133873904Y-123547238D02*
X134112000Y-123642476D01*
X134350095Y-123547238D01*
X133969142Y-123832952D02*
X134112000Y-123642476D01*
X134254857Y-123832952D01*
%TO.C,J2*%
X203533065Y-117297181D02*
X203533065Y-118011467D01*
X203485446Y-118154324D01*
X203390208Y-118249562D01*
X203247351Y-118297181D01*
X203152113Y-118297181D01*
X203961637Y-117392420D02*
X204009256Y-117344801D01*
X204104494Y-117297181D01*
X204342589Y-117297181D01*
X204437827Y-117344801D01*
X204485446Y-117392420D01*
X204533065Y-117487658D01*
X204533065Y-117582896D01*
X204485446Y-117725753D01*
X203914018Y-118297181D01*
X204533065Y-118297181D01*
X207244599Y-117347981D02*
X207244599Y-117586077D01*
X207006503Y-117490839D02*
X207244599Y-117586077D01*
X207482694Y-117490839D01*
X207101741Y-117776553D02*
X207244599Y-117586077D01*
X207387456Y-117776553D01*
%TO.C,C27*%
X150373142Y-94114857D02*
X150420761Y-94162476D01*
X150468380Y-94305333D01*
X150468380Y-94400571D01*
X150420761Y-94543428D01*
X150325523Y-94638666D01*
X150230285Y-94686285D01*
X150039809Y-94733904D01*
X149896952Y-94733904D01*
X149706476Y-94686285D01*
X149611238Y-94638666D01*
X149516000Y-94543428D01*
X149468380Y-94400571D01*
X149468380Y-94305333D01*
X149516000Y-94162476D01*
X149563619Y-94114857D01*
X149563619Y-93733904D02*
X149516000Y-93686285D01*
X149468380Y-93591047D01*
X149468380Y-93352952D01*
X149516000Y-93257714D01*
X149563619Y-93210095D01*
X149658857Y-93162476D01*
X149754095Y-93162476D01*
X149896952Y-93210095D01*
X150468380Y-93781523D01*
X150468380Y-93162476D01*
X149468380Y-92829142D02*
X149468380Y-92162476D01*
X150468380Y-92591047D01*
%TO.C,J4*%
X181403666Y-120483380D02*
X181403666Y-121197666D01*
X181356047Y-121340523D01*
X181260809Y-121435761D01*
X181117952Y-121483380D01*
X181022714Y-121483380D01*
X182308428Y-120816714D02*
X182308428Y-121483380D01*
X182070333Y-120435761D02*
X181832238Y-121150047D01*
X182451285Y-121150047D01*
%TO.C,R2*%
X137612380Y-107862666D02*
X137136190Y-108196000D01*
X137612380Y-108434095D02*
X136612380Y-108434095D01*
X136612380Y-108053142D01*
X136660000Y-107957904D01*
X136707619Y-107910285D01*
X136802857Y-107862666D01*
X136945714Y-107862666D01*
X137040952Y-107910285D01*
X137088571Y-107957904D01*
X137136190Y-108053142D01*
X137136190Y-108434095D01*
X136707619Y-107481714D02*
X136660000Y-107434095D01*
X136612380Y-107338857D01*
X136612380Y-107100761D01*
X136660000Y-107005523D01*
X136707619Y-106957904D01*
X136802857Y-106910285D01*
X136898095Y-106910285D01*
X137040952Y-106957904D01*
X137612380Y-107529333D01*
X137612380Y-106910285D01*
%TO.C,C18*%
X130929142Y-79449142D02*
X130881523Y-79496761D01*
X130738666Y-79544380D01*
X130643428Y-79544380D01*
X130500571Y-79496761D01*
X130405333Y-79401523D01*
X130357714Y-79306285D01*
X130310095Y-79115809D01*
X130310095Y-78972952D01*
X130357714Y-78782476D01*
X130405333Y-78687238D01*
X130500571Y-78592000D01*
X130643428Y-78544380D01*
X130738666Y-78544380D01*
X130881523Y-78592000D01*
X130929142Y-78639619D01*
X131881523Y-79544380D02*
X131310095Y-79544380D01*
X131595809Y-79544380D02*
X131595809Y-78544380D01*
X131500571Y-78687238D01*
X131405333Y-78782476D01*
X131310095Y-78830095D01*
X132452952Y-78972952D02*
X132357714Y-78925333D01*
X132310095Y-78877714D01*
X132262476Y-78782476D01*
X132262476Y-78734857D01*
X132310095Y-78639619D01*
X132357714Y-78592000D01*
X132452952Y-78544380D01*
X132643428Y-78544380D01*
X132738666Y-78592000D01*
X132786285Y-78639619D01*
X132833904Y-78734857D01*
X132833904Y-78782476D01*
X132786285Y-78877714D01*
X132738666Y-78925333D01*
X132643428Y-78972952D01*
X132452952Y-78972952D01*
X132357714Y-79020571D01*
X132310095Y-79068190D01*
X132262476Y-79163428D01*
X132262476Y-79353904D01*
X132310095Y-79449142D01*
X132357714Y-79496761D01*
X132452952Y-79544380D01*
X132643428Y-79544380D01*
X132738666Y-79496761D01*
X132786285Y-79449142D01*
X132833904Y-79353904D01*
X132833904Y-79163428D01*
X132786285Y-79068190D01*
X132738666Y-79020571D01*
X132643428Y-78972952D01*
%TO.C,R47*%
X155805142Y-82114380D02*
X155471809Y-81638190D01*
X155233714Y-82114380D02*
X155233714Y-81114380D01*
X155614666Y-81114380D01*
X155709904Y-81162000D01*
X155757523Y-81209619D01*
X155805142Y-81304857D01*
X155805142Y-81447714D01*
X155757523Y-81542952D01*
X155709904Y-81590571D01*
X155614666Y-81638190D01*
X155233714Y-81638190D01*
X156662285Y-81447714D02*
X156662285Y-82114380D01*
X156424190Y-81066761D02*
X156186095Y-81781047D01*
X156805142Y-81781047D01*
X157090857Y-81114380D02*
X157757523Y-81114380D01*
X157328952Y-82114380D01*
%TO.C,R13*%
X207462380Y-114561857D02*
X206986190Y-114895190D01*
X207462380Y-115133285D02*
X206462380Y-115133285D01*
X206462380Y-114752333D01*
X206510000Y-114657095D01*
X206557619Y-114609476D01*
X206652857Y-114561857D01*
X206795714Y-114561857D01*
X206890952Y-114609476D01*
X206938571Y-114657095D01*
X206986190Y-114752333D01*
X206986190Y-115133285D01*
X207462380Y-113609476D02*
X207462380Y-114180904D01*
X207462380Y-113895190D02*
X206462380Y-113895190D01*
X206605238Y-113990428D01*
X206700476Y-114085666D01*
X206748095Y-114180904D01*
X206462380Y-113276142D02*
X206462380Y-112657095D01*
X206843333Y-112990428D01*
X206843333Y-112847571D01*
X206890952Y-112752333D01*
X206938571Y-112704714D01*
X207033809Y-112657095D01*
X207271904Y-112657095D01*
X207367142Y-112704714D01*
X207414761Y-112752333D01*
X207462380Y-112847571D01*
X207462380Y-113133285D01*
X207414761Y-113228523D01*
X207367142Y-113276142D01*
%TO.C,C29*%
X169976209Y-122873409D02*
X170023828Y-122921028D01*
X170071447Y-123063885D01*
X170071447Y-123159123D01*
X170023828Y-123301980D01*
X169928590Y-123397218D01*
X169833352Y-123444837D01*
X169642876Y-123492456D01*
X169500019Y-123492456D01*
X169309543Y-123444837D01*
X169214305Y-123397218D01*
X169119067Y-123301980D01*
X169071447Y-123159123D01*
X169071447Y-123063885D01*
X169119067Y-122921028D01*
X169166686Y-122873409D01*
X169166686Y-122492456D02*
X169119067Y-122444837D01*
X169071447Y-122349599D01*
X169071447Y-122111504D01*
X169119067Y-122016266D01*
X169166686Y-121968647D01*
X169261924Y-121921028D01*
X169357162Y-121921028D01*
X169500019Y-121968647D01*
X170071447Y-122540075D01*
X170071447Y-121921028D01*
X170071447Y-121444837D02*
X170071447Y-121254361D01*
X170023828Y-121159123D01*
X169976209Y-121111504D01*
X169833352Y-121016266D01*
X169642876Y-120968647D01*
X169261924Y-120968647D01*
X169166686Y-121016266D01*
X169119067Y-121063885D01*
X169071447Y-121159123D01*
X169071447Y-121349599D01*
X169119067Y-121444837D01*
X169166686Y-121492456D01*
X169261924Y-121540075D01*
X169500019Y-121540075D01*
X169595257Y-121492456D01*
X169642876Y-121444837D01*
X169690495Y-121349599D01*
X169690495Y-121159123D01*
X169642876Y-121063885D01*
X169595257Y-121016266D01*
X169500019Y-120968647D01*
%TO.C,C17*%
X110974142Y-78493857D02*
X111021761Y-78541476D01*
X111069380Y-78684333D01*
X111069380Y-78779571D01*
X111021761Y-78922428D01*
X110926523Y-79017666D01*
X110831285Y-79065285D01*
X110640809Y-79112904D01*
X110497952Y-79112904D01*
X110307476Y-79065285D01*
X110212238Y-79017666D01*
X110117000Y-78922428D01*
X110069380Y-78779571D01*
X110069380Y-78684333D01*
X110117000Y-78541476D01*
X110164619Y-78493857D01*
X111069380Y-77541476D02*
X111069380Y-78112904D01*
X111069380Y-77827190D02*
X110069380Y-77827190D01*
X110212238Y-77922428D01*
X110307476Y-78017666D01*
X110355095Y-78112904D01*
X110069380Y-77208142D02*
X110069380Y-76541476D01*
X111069380Y-76970047D01*
%TO.C,C6*%
X138517333Y-90117142D02*
X138469714Y-90164761D01*
X138326857Y-90212380D01*
X138231619Y-90212380D01*
X138088761Y-90164761D01*
X137993523Y-90069523D01*
X137945904Y-89974285D01*
X137898285Y-89783809D01*
X137898285Y-89640952D01*
X137945904Y-89450476D01*
X137993523Y-89355238D01*
X138088761Y-89260000D01*
X138231619Y-89212380D01*
X138326857Y-89212380D01*
X138469714Y-89260000D01*
X138517333Y-89307619D01*
X139374476Y-89212380D02*
X139184000Y-89212380D01*
X139088761Y-89260000D01*
X139041142Y-89307619D01*
X138945904Y-89450476D01*
X138898285Y-89640952D01*
X138898285Y-90021904D01*
X138945904Y-90117142D01*
X138993523Y-90164761D01*
X139088761Y-90212380D01*
X139279238Y-90212380D01*
X139374476Y-90164761D01*
X139422095Y-90117142D01*
X139469714Y-90021904D01*
X139469714Y-89783809D01*
X139422095Y-89688571D01*
X139374476Y-89640952D01*
X139279238Y-89593333D01*
X139088761Y-89593333D01*
X138993523Y-89640952D01*
X138945904Y-89688571D01*
X138898285Y-89783809D01*
%TO.C,R18*%
X194508380Y-104909857D02*
X194032190Y-105243190D01*
X194508380Y-105481285D02*
X193508380Y-105481285D01*
X193508380Y-105100333D01*
X193556000Y-105005095D01*
X193603619Y-104957476D01*
X193698857Y-104909857D01*
X193841714Y-104909857D01*
X193936952Y-104957476D01*
X193984571Y-105005095D01*
X194032190Y-105100333D01*
X194032190Y-105481285D01*
X194508380Y-103957476D02*
X194508380Y-104528904D01*
X194508380Y-104243190D02*
X193508380Y-104243190D01*
X193651238Y-104338428D01*
X193746476Y-104433666D01*
X193794095Y-104528904D01*
X193936952Y-103386047D02*
X193889333Y-103481285D01*
X193841714Y-103528904D01*
X193746476Y-103576523D01*
X193698857Y-103576523D01*
X193603619Y-103528904D01*
X193556000Y-103481285D01*
X193508380Y-103386047D01*
X193508380Y-103195571D01*
X193556000Y-103100333D01*
X193603619Y-103052714D01*
X193698857Y-103005095D01*
X193746476Y-103005095D01*
X193841714Y-103052714D01*
X193889333Y-103100333D01*
X193936952Y-103195571D01*
X193936952Y-103386047D01*
X193984571Y-103481285D01*
X194032190Y-103528904D01*
X194127428Y-103576523D01*
X194317904Y-103576523D01*
X194413142Y-103528904D01*
X194460761Y-103481285D01*
X194508380Y-103386047D01*
X194508380Y-103195571D01*
X194460761Y-103100333D01*
X194413142Y-103052714D01*
X194317904Y-103005095D01*
X194127428Y-103005095D01*
X194032190Y-103052714D01*
X193984571Y-103100333D01*
X193936952Y-103195571D01*
%TO.C,D6*%
X129817904Y-101504380D02*
X129817904Y-100504380D01*
X130056000Y-100504380D01*
X130198857Y-100552000D01*
X130294095Y-100647238D01*
X130341714Y-100742476D01*
X130389333Y-100932952D01*
X130389333Y-101075809D01*
X130341714Y-101266285D01*
X130294095Y-101361523D01*
X130198857Y-101456761D01*
X130056000Y-101504380D01*
X129817904Y-101504380D01*
X131246476Y-100504380D02*
X131056000Y-100504380D01*
X130960761Y-100552000D01*
X130913142Y-100599619D01*
X130817904Y-100742476D01*
X130770285Y-100932952D01*
X130770285Y-101313904D01*
X130817904Y-101409142D01*
X130865523Y-101456761D01*
X130960761Y-101504380D01*
X131151238Y-101504380D01*
X131246476Y-101456761D01*
X131294095Y-101409142D01*
X131341714Y-101313904D01*
X131341714Y-101075809D01*
X131294095Y-100980571D01*
X131246476Y-100932952D01*
X131151238Y-100885333D01*
X130960761Y-100885333D01*
X130865523Y-100932952D01*
X130817904Y-100980571D01*
X130770285Y-101075809D01*
%TO.C,R56*%
X178173142Y-119324380D02*
X177839809Y-118848190D01*
X177601714Y-119324380D02*
X177601714Y-118324380D01*
X177982666Y-118324380D01*
X178077904Y-118372000D01*
X178125523Y-118419619D01*
X178173142Y-118514857D01*
X178173142Y-118657714D01*
X178125523Y-118752952D01*
X178077904Y-118800571D01*
X177982666Y-118848190D01*
X177601714Y-118848190D01*
X179077904Y-118324380D02*
X178601714Y-118324380D01*
X178554095Y-118800571D01*
X178601714Y-118752952D01*
X178696952Y-118705333D01*
X178935047Y-118705333D01*
X179030285Y-118752952D01*
X179077904Y-118800571D01*
X179125523Y-118895809D01*
X179125523Y-119133904D01*
X179077904Y-119229142D01*
X179030285Y-119276761D01*
X178935047Y-119324380D01*
X178696952Y-119324380D01*
X178601714Y-119276761D01*
X178554095Y-119229142D01*
X179982666Y-118324380D02*
X179792190Y-118324380D01*
X179696952Y-118372000D01*
X179649333Y-118419619D01*
X179554095Y-118562476D01*
X179506476Y-118752952D01*
X179506476Y-119133904D01*
X179554095Y-119229142D01*
X179601714Y-119276761D01*
X179696952Y-119324380D01*
X179887428Y-119324380D01*
X179982666Y-119276761D01*
X180030285Y-119229142D01*
X180077904Y-119133904D01*
X180077904Y-118895809D01*
X180030285Y-118800571D01*
X179982666Y-118752952D01*
X179887428Y-118705333D01*
X179696952Y-118705333D01*
X179601714Y-118752952D01*
X179554095Y-118800571D01*
X179506476Y-118895809D01*
%TO.C,Q18*%
X157416571Y-119419619D02*
X157321333Y-119372000D01*
X157226095Y-119276761D01*
X157083238Y-119133904D01*
X156988000Y-119086285D01*
X156892761Y-119086285D01*
X156940380Y-119324380D02*
X156845142Y-119276761D01*
X156749904Y-119181523D01*
X156702285Y-118991047D01*
X156702285Y-118657714D01*
X156749904Y-118467238D01*
X156845142Y-118372000D01*
X156940380Y-118324380D01*
X157130857Y-118324380D01*
X157226095Y-118372000D01*
X157321333Y-118467238D01*
X157368952Y-118657714D01*
X157368952Y-118991047D01*
X157321333Y-119181523D01*
X157226095Y-119276761D01*
X157130857Y-119324380D01*
X156940380Y-119324380D01*
X158321333Y-119324380D02*
X157749904Y-119324380D01*
X158035619Y-119324380D02*
X158035619Y-118324380D01*
X157940380Y-118467238D01*
X157845142Y-118562476D01*
X157749904Y-118610095D01*
X158892761Y-118752952D02*
X158797523Y-118705333D01*
X158749904Y-118657714D01*
X158702285Y-118562476D01*
X158702285Y-118514857D01*
X158749904Y-118419619D01*
X158797523Y-118372000D01*
X158892761Y-118324380D01*
X159083238Y-118324380D01*
X159178476Y-118372000D01*
X159226095Y-118419619D01*
X159273714Y-118514857D01*
X159273714Y-118562476D01*
X159226095Y-118657714D01*
X159178476Y-118705333D01*
X159083238Y-118752952D01*
X158892761Y-118752952D01*
X158797523Y-118800571D01*
X158749904Y-118848190D01*
X158702285Y-118943428D01*
X158702285Y-119133904D01*
X158749904Y-119229142D01*
X158797523Y-119276761D01*
X158892761Y-119324380D01*
X159083238Y-119324380D01*
X159178476Y-119276761D01*
X159226095Y-119229142D01*
X159273714Y-119133904D01*
X159273714Y-118943428D01*
X159226095Y-118848190D01*
X159178476Y-118800571D01*
X159083238Y-118752952D01*
%TO.C,U9*%
X166635095Y-102576380D02*
X166635095Y-103385904D01*
X166682714Y-103481142D01*
X166730333Y-103528761D01*
X166825571Y-103576380D01*
X167016047Y-103576380D01*
X167111285Y-103528761D01*
X167158904Y-103481142D01*
X167206523Y-103385904D01*
X167206523Y-102576380D01*
X167730333Y-103576380D02*
X167920809Y-103576380D01*
X168016047Y-103528761D01*
X168063666Y-103481142D01*
X168158904Y-103338285D01*
X168206523Y-103147809D01*
X168206523Y-102766857D01*
X168158904Y-102671619D01*
X168111285Y-102624000D01*
X168016047Y-102576380D01*
X167825571Y-102576380D01*
X167730333Y-102624000D01*
X167682714Y-102671619D01*
X167635095Y-102766857D01*
X167635095Y-103004952D01*
X167682714Y-103100190D01*
X167730333Y-103147809D01*
X167825571Y-103195428D01*
X168016047Y-103195428D01*
X168111285Y-103147809D01*
X168158904Y-103100190D01*
X168206523Y-103004952D01*
%TO.C,Q6*%
X123856761Y-73633619D02*
X123761523Y-73586000D01*
X123666285Y-73490761D01*
X123523428Y-73347904D01*
X123428190Y-73300285D01*
X123332952Y-73300285D01*
X123380571Y-73538380D02*
X123285333Y-73490761D01*
X123190095Y-73395523D01*
X123142476Y-73205047D01*
X123142476Y-72871714D01*
X123190095Y-72681238D01*
X123285333Y-72586000D01*
X123380571Y-72538380D01*
X123571047Y-72538380D01*
X123666285Y-72586000D01*
X123761523Y-72681238D01*
X123809142Y-72871714D01*
X123809142Y-73205047D01*
X123761523Y-73395523D01*
X123666285Y-73490761D01*
X123571047Y-73538380D01*
X123380571Y-73538380D01*
X124666285Y-72538380D02*
X124475809Y-72538380D01*
X124380571Y-72586000D01*
X124332952Y-72633619D01*
X124237714Y-72776476D01*
X124190095Y-72966952D01*
X124190095Y-73347904D01*
X124237714Y-73443142D01*
X124285333Y-73490761D01*
X124380571Y-73538380D01*
X124571047Y-73538380D01*
X124666285Y-73490761D01*
X124713904Y-73443142D01*
X124761523Y-73347904D01*
X124761523Y-73109809D01*
X124713904Y-73014571D01*
X124666285Y-72966952D01*
X124571047Y-72919333D01*
X124380571Y-72919333D01*
X124285333Y-72966952D01*
X124237714Y-73014571D01*
X124190095Y-73109809D01*
%TO.C,D7*%
X131087904Y-95448380D02*
X131087904Y-94448380D01*
X131326000Y-94448380D01*
X131468857Y-94496000D01*
X131564095Y-94591238D01*
X131611714Y-94686476D01*
X131659333Y-94876952D01*
X131659333Y-95019809D01*
X131611714Y-95210285D01*
X131564095Y-95305523D01*
X131468857Y-95400761D01*
X131326000Y-95448380D01*
X131087904Y-95448380D01*
X131992666Y-94448380D02*
X132659333Y-94448380D01*
X132230761Y-95448380D01*
%TO.C,R24*%
X145661142Y-81224380D02*
X145327809Y-80748190D01*
X145089714Y-81224380D02*
X145089714Y-80224380D01*
X145470666Y-80224380D01*
X145565904Y-80272000D01*
X145613523Y-80319619D01*
X145661142Y-80414857D01*
X145661142Y-80557714D01*
X145613523Y-80652952D01*
X145565904Y-80700571D01*
X145470666Y-80748190D01*
X145089714Y-80748190D01*
X146042095Y-80319619D02*
X146089714Y-80272000D01*
X146184952Y-80224380D01*
X146423047Y-80224380D01*
X146518285Y-80272000D01*
X146565904Y-80319619D01*
X146613523Y-80414857D01*
X146613523Y-80510095D01*
X146565904Y-80652952D01*
X145994476Y-81224380D01*
X146613523Y-81224380D01*
X147470666Y-80557714D02*
X147470666Y-81224380D01*
X147232571Y-80176761D02*
X146994476Y-80891047D01*
X147613523Y-80891047D01*
%TO.C,D10*%
X111561714Y-82240380D02*
X111561714Y-81240380D01*
X111799809Y-81240380D01*
X111942666Y-81288000D01*
X112037904Y-81383238D01*
X112085523Y-81478476D01*
X112133142Y-81668952D01*
X112133142Y-81811809D01*
X112085523Y-82002285D01*
X112037904Y-82097523D01*
X111942666Y-82192761D01*
X111799809Y-82240380D01*
X111561714Y-82240380D01*
X113085523Y-82240380D02*
X112514095Y-82240380D01*
X112799809Y-82240380D02*
X112799809Y-81240380D01*
X112704571Y-81383238D01*
X112609333Y-81478476D01*
X112514095Y-81526095D01*
X113704571Y-81240380D02*
X113799809Y-81240380D01*
X113895047Y-81288000D01*
X113942666Y-81335619D01*
X113990285Y-81430857D01*
X114037904Y-81621333D01*
X114037904Y-81859428D01*
X113990285Y-82049904D01*
X113942666Y-82145142D01*
X113895047Y-82192761D01*
X113799809Y-82240380D01*
X113704571Y-82240380D01*
X113609333Y-82192761D01*
X113561714Y-82145142D01*
X113514095Y-82049904D01*
X113466476Y-81859428D01*
X113466476Y-81621333D01*
X113514095Y-81430857D01*
X113561714Y-81335619D01*
X113609333Y-81288000D01*
X113704571Y-81240380D01*
%TO.C,U13*%
X111349904Y-80446880D02*
X111349904Y-81256404D01*
X111397523Y-81351642D01*
X111445142Y-81399261D01*
X111540380Y-81446880D01*
X111730857Y-81446880D01*
X111826095Y-81399261D01*
X111873714Y-81351642D01*
X111921333Y-81256404D01*
X111921333Y-80446880D01*
X112921333Y-81446880D02*
X112349904Y-81446880D01*
X112635619Y-81446880D02*
X112635619Y-80446880D01*
X112540380Y-80589738D01*
X112445142Y-80684976D01*
X112349904Y-80732595D01*
X113254666Y-80446880D02*
X113873714Y-80446880D01*
X113540380Y-80827833D01*
X113683238Y-80827833D01*
X113778476Y-80875452D01*
X113826095Y-80923071D01*
X113873714Y-81018309D01*
X113873714Y-81256404D01*
X113826095Y-81351642D01*
X113778476Y-81399261D01*
X113683238Y-81446880D01*
X113397523Y-81446880D01*
X113302285Y-81399261D01*
X113254666Y-81351642D01*
%TO.C,R22*%
X116022380Y-78747857D02*
X115546190Y-79081190D01*
X116022380Y-79319285D02*
X115022380Y-79319285D01*
X115022380Y-78938333D01*
X115070000Y-78843095D01*
X115117619Y-78795476D01*
X115212857Y-78747857D01*
X115355714Y-78747857D01*
X115450952Y-78795476D01*
X115498571Y-78843095D01*
X115546190Y-78938333D01*
X115546190Y-79319285D01*
X115117619Y-78366904D02*
X115070000Y-78319285D01*
X115022380Y-78224047D01*
X115022380Y-77985952D01*
X115070000Y-77890714D01*
X115117619Y-77843095D01*
X115212857Y-77795476D01*
X115308095Y-77795476D01*
X115450952Y-77843095D01*
X116022380Y-78414523D01*
X116022380Y-77795476D01*
X115117619Y-77414523D02*
X115070000Y-77366904D01*
X115022380Y-77271666D01*
X115022380Y-77033571D01*
X115070000Y-76938333D01*
X115117619Y-76890714D01*
X115212857Y-76843095D01*
X115308095Y-76843095D01*
X115450952Y-76890714D01*
X116022380Y-77462142D01*
X116022380Y-76843095D01*
%TO.C,D8*%
X131087904Y-94051380D02*
X131087904Y-93051380D01*
X131326000Y-93051380D01*
X131468857Y-93099000D01*
X131564095Y-93194238D01*
X131611714Y-93289476D01*
X131659333Y-93479952D01*
X131659333Y-93622809D01*
X131611714Y-93813285D01*
X131564095Y-93908523D01*
X131468857Y-94003761D01*
X131326000Y-94051380D01*
X131087904Y-94051380D01*
X132230761Y-93479952D02*
X132135523Y-93432333D01*
X132087904Y-93384714D01*
X132040285Y-93289476D01*
X132040285Y-93241857D01*
X132087904Y-93146619D01*
X132135523Y-93099000D01*
X132230761Y-93051380D01*
X132421238Y-93051380D01*
X132516476Y-93099000D01*
X132564095Y-93146619D01*
X132611714Y-93241857D01*
X132611714Y-93289476D01*
X132564095Y-93384714D01*
X132516476Y-93432333D01*
X132421238Y-93479952D01*
X132230761Y-93479952D01*
X132135523Y-93527571D01*
X132087904Y-93575190D01*
X132040285Y-93670428D01*
X132040285Y-93860904D01*
X132087904Y-93956142D01*
X132135523Y-94003761D01*
X132230761Y-94051380D01*
X132421238Y-94051380D01*
X132516476Y-94003761D01*
X132564095Y-93956142D01*
X132611714Y-93860904D01*
X132611714Y-93670428D01*
X132564095Y-93575190D01*
X132516476Y-93527571D01*
X132421238Y-93479952D01*
%TO.C,D9*%
X123403425Y-78527187D02*
X123403425Y-77527187D01*
X123641521Y-77527187D01*
X123784378Y-77574807D01*
X123879616Y-77670045D01*
X123927235Y-77765283D01*
X123974854Y-77955759D01*
X123974854Y-78098616D01*
X123927235Y-78289092D01*
X123879616Y-78384330D01*
X123784378Y-78479568D01*
X123641521Y-78527187D01*
X123403425Y-78527187D01*
X124451044Y-78527187D02*
X124641521Y-78527187D01*
X124736759Y-78479568D01*
X124784378Y-78431949D01*
X124879616Y-78289092D01*
X124927235Y-78098616D01*
X124927235Y-77717664D01*
X124879616Y-77622426D01*
X124831997Y-77574807D01*
X124736759Y-77527187D01*
X124546282Y-77527187D01*
X124451044Y-77574807D01*
X124403425Y-77622426D01*
X124355806Y-77717664D01*
X124355806Y-77955759D01*
X124403425Y-78050997D01*
X124451044Y-78098616D01*
X124546282Y-78146235D01*
X124736759Y-78146235D01*
X124831997Y-78098616D01*
X124879616Y-78050997D01*
X124927235Y-77955759D01*
%TO.C,U2*%
X139939533Y-108722423D02*
X139939533Y-109531947D01*
X139987152Y-109627185D01*
X140034771Y-109674804D01*
X140130009Y-109722423D01*
X140320485Y-109722423D01*
X140415723Y-109674804D01*
X140463342Y-109627185D01*
X140510961Y-109531947D01*
X140510961Y-108722423D01*
X140939533Y-108817662D02*
X140987152Y-108770043D01*
X141082390Y-108722423D01*
X141320485Y-108722423D01*
X141415723Y-108770043D01*
X141463342Y-108817662D01*
X141510961Y-108912900D01*
X141510961Y-109008138D01*
X141463342Y-109150995D01*
X140891914Y-109722423D01*
X141510961Y-109722423D01*
X138176000Y-105624380D02*
X138176000Y-105862476D01*
X137937904Y-105767238D02*
X138176000Y-105862476D01*
X138414095Y-105767238D01*
X138033142Y-106052952D02*
X138176000Y-105862476D01*
X138318857Y-106052952D01*
X138176000Y-105624380D02*
X138176000Y-105862476D01*
X137937904Y-105767238D02*
X138176000Y-105862476D01*
X138414095Y-105767238D01*
X138033142Y-106052952D02*
X138176000Y-105862476D01*
X138318857Y-106052952D01*
%TO.C,U20*%
X158781904Y-112876080D02*
X158781904Y-113685604D01*
X158829523Y-113780842D01*
X158877142Y-113828461D01*
X158972380Y-113876080D01*
X159162857Y-113876080D01*
X159258095Y-113828461D01*
X159305714Y-113780842D01*
X159353333Y-113685604D01*
X159353333Y-112876080D01*
X159781904Y-112971319D02*
X159829523Y-112923700D01*
X159924761Y-112876080D01*
X160162857Y-112876080D01*
X160258095Y-112923700D01*
X160305714Y-112971319D01*
X160353333Y-113066557D01*
X160353333Y-113161795D01*
X160305714Y-113304652D01*
X159734285Y-113876080D01*
X160353333Y-113876080D01*
X160972380Y-112876080D02*
X161067619Y-112876080D01*
X161162857Y-112923700D01*
X161210476Y-112971319D01*
X161258095Y-113066557D01*
X161305714Y-113257033D01*
X161305714Y-113495128D01*
X161258095Y-113685604D01*
X161210476Y-113780842D01*
X161162857Y-113828461D01*
X161067619Y-113876080D01*
X160972380Y-113876080D01*
X160877142Y-113828461D01*
X160829523Y-113780842D01*
X160781904Y-113685604D01*
X160734285Y-113495128D01*
X160734285Y-113257033D01*
X160781904Y-113066557D01*
X160829523Y-112971319D01*
X160877142Y-112923700D01*
X160972380Y-112876080D01*
X155448000Y-108164380D02*
X155448000Y-108402476D01*
X155209904Y-108307238D02*
X155448000Y-108402476D01*
X155686095Y-108307238D01*
X155305142Y-108592952D02*
X155448000Y-108402476D01*
X155590857Y-108592952D01*
X155448000Y-108164380D02*
X155448000Y-108402476D01*
X155209904Y-108307238D02*
X155448000Y-108402476D01*
X155686095Y-108307238D01*
X155305142Y-108592952D02*
X155448000Y-108402476D01*
X155590857Y-108592952D01*
%TO.C,R21*%
X122372380Y-81287857D02*
X121896190Y-81621190D01*
X122372380Y-81859285D02*
X121372380Y-81859285D01*
X121372380Y-81478333D01*
X121420000Y-81383095D01*
X121467619Y-81335476D01*
X121562857Y-81287857D01*
X121705714Y-81287857D01*
X121800952Y-81335476D01*
X121848571Y-81383095D01*
X121896190Y-81478333D01*
X121896190Y-81859285D01*
X121467619Y-80906904D02*
X121420000Y-80859285D01*
X121372380Y-80764047D01*
X121372380Y-80525952D01*
X121420000Y-80430714D01*
X121467619Y-80383095D01*
X121562857Y-80335476D01*
X121658095Y-80335476D01*
X121800952Y-80383095D01*
X122372380Y-80954523D01*
X122372380Y-80335476D01*
X122372380Y-79383095D02*
X122372380Y-79954523D01*
X122372380Y-79668809D02*
X121372380Y-79668809D01*
X121515238Y-79764047D01*
X121610476Y-79859285D01*
X121658095Y-79954523D01*
%TO.C,C28*%
X145137142Y-94114857D02*
X145184761Y-94162476D01*
X145232380Y-94305333D01*
X145232380Y-94400571D01*
X145184761Y-94543428D01*
X145089523Y-94638666D01*
X144994285Y-94686285D01*
X144803809Y-94733904D01*
X144660952Y-94733904D01*
X144470476Y-94686285D01*
X144375238Y-94638666D01*
X144280000Y-94543428D01*
X144232380Y-94400571D01*
X144232380Y-94305333D01*
X144280000Y-94162476D01*
X144327619Y-94114857D01*
X144327619Y-93733904D02*
X144280000Y-93686285D01*
X144232380Y-93591047D01*
X144232380Y-93352952D01*
X144280000Y-93257714D01*
X144327619Y-93210095D01*
X144422857Y-93162476D01*
X144518095Y-93162476D01*
X144660952Y-93210095D01*
X145232380Y-93781523D01*
X145232380Y-93162476D01*
X144660952Y-92591047D02*
X144613333Y-92686285D01*
X144565714Y-92733904D01*
X144470476Y-92781523D01*
X144422857Y-92781523D01*
X144327619Y-92733904D01*
X144280000Y-92686285D01*
X144232380Y-92591047D01*
X144232380Y-92400571D01*
X144280000Y-92305333D01*
X144327619Y-92257714D01*
X144422857Y-92210095D01*
X144470476Y-92210095D01*
X144565714Y-92257714D01*
X144613333Y-92305333D01*
X144660952Y-92400571D01*
X144660952Y-92591047D01*
X144708571Y-92686285D01*
X144756190Y-92733904D01*
X144851428Y-92781523D01*
X145041904Y-92781523D01*
X145137142Y-92733904D01*
X145184761Y-92686285D01*
X145232380Y-92591047D01*
X145232380Y-92400571D01*
X145184761Y-92305333D01*
X145137142Y-92257714D01*
X145041904Y-92210095D01*
X144851428Y-92210095D01*
X144756190Y-92257714D01*
X144708571Y-92305333D01*
X144660952Y-92400571D01*
%TO.C,Q5*%
X117133619Y-76549238D02*
X117086000Y-76644476D01*
X116990761Y-76739714D01*
X116847904Y-76882571D01*
X116800285Y-76977809D01*
X116800285Y-77073047D01*
X117038380Y-77025428D02*
X116990761Y-77120666D01*
X116895523Y-77215904D01*
X116705047Y-77263523D01*
X116371714Y-77263523D01*
X116181238Y-77215904D01*
X116086000Y-77120666D01*
X116038380Y-77025428D01*
X116038380Y-76834952D01*
X116086000Y-76739714D01*
X116181238Y-76644476D01*
X116371714Y-76596857D01*
X116705047Y-76596857D01*
X116895523Y-76644476D01*
X116990761Y-76739714D01*
X117038380Y-76834952D01*
X117038380Y-77025428D01*
X116038380Y-75692095D02*
X116038380Y-76168285D01*
X116514571Y-76215904D01*
X116466952Y-76168285D01*
X116419333Y-76073047D01*
X116419333Y-75834952D01*
X116466952Y-75739714D01*
X116514571Y-75692095D01*
X116609809Y-75644476D01*
X116847904Y-75644476D01*
X116943142Y-75692095D01*
X116990761Y-75739714D01*
X117038380Y-75834952D01*
X117038380Y-76073047D01*
X116990761Y-76168285D01*
X116943142Y-76215904D01*
%TO.C,Q8*%
X127412761Y-83351619D02*
X127317523Y-83304000D01*
X127222285Y-83208761D01*
X127079428Y-83065904D01*
X126984190Y-83018285D01*
X126888952Y-83018285D01*
X126936571Y-83256380D02*
X126841333Y-83208761D01*
X126746095Y-83113523D01*
X126698476Y-82923047D01*
X126698476Y-82589714D01*
X126746095Y-82399238D01*
X126841333Y-82304000D01*
X126936571Y-82256380D01*
X127127047Y-82256380D01*
X127222285Y-82304000D01*
X127317523Y-82399238D01*
X127365142Y-82589714D01*
X127365142Y-82923047D01*
X127317523Y-83113523D01*
X127222285Y-83208761D01*
X127127047Y-83256380D01*
X126936571Y-83256380D01*
X127936571Y-82684952D02*
X127841333Y-82637333D01*
X127793714Y-82589714D01*
X127746095Y-82494476D01*
X127746095Y-82446857D01*
X127793714Y-82351619D01*
X127841333Y-82304000D01*
X127936571Y-82256380D01*
X128127047Y-82256380D01*
X128222285Y-82304000D01*
X128269904Y-82351619D01*
X128317523Y-82446857D01*
X128317523Y-82494476D01*
X128269904Y-82589714D01*
X128222285Y-82637333D01*
X128127047Y-82684952D01*
X127936571Y-82684952D01*
X127841333Y-82732571D01*
X127793714Y-82780190D01*
X127746095Y-82875428D01*
X127746095Y-83065904D01*
X127793714Y-83161142D01*
X127841333Y-83208761D01*
X127936571Y-83256380D01*
X128127047Y-83256380D01*
X128222285Y-83208761D01*
X128269904Y-83161142D01*
X128317523Y-83065904D01*
X128317523Y-82875428D01*
X128269904Y-82780190D01*
X128222285Y-82732571D01*
X128127047Y-82684952D01*
%TO.C,Q15*%
X166560571Y-89955619D02*
X166465333Y-89908000D01*
X166370095Y-89812761D01*
X166227238Y-89669904D01*
X166132000Y-89622285D01*
X166036761Y-89622285D01*
X166084380Y-89860380D02*
X165989142Y-89812761D01*
X165893904Y-89717523D01*
X165846285Y-89527047D01*
X165846285Y-89193714D01*
X165893904Y-89003238D01*
X165989142Y-88908000D01*
X166084380Y-88860380D01*
X166274857Y-88860380D01*
X166370095Y-88908000D01*
X166465333Y-89003238D01*
X166512952Y-89193714D01*
X166512952Y-89527047D01*
X166465333Y-89717523D01*
X166370095Y-89812761D01*
X166274857Y-89860380D01*
X166084380Y-89860380D01*
X167465333Y-89860380D02*
X166893904Y-89860380D01*
X167179619Y-89860380D02*
X167179619Y-88860380D01*
X167084380Y-89003238D01*
X166989142Y-89098476D01*
X166893904Y-89146095D01*
X168370095Y-88860380D02*
X167893904Y-88860380D01*
X167846285Y-89336571D01*
X167893904Y-89288952D01*
X167989142Y-89241333D01*
X168227238Y-89241333D01*
X168322476Y-89288952D01*
X168370095Y-89336571D01*
X168417714Y-89431809D01*
X168417714Y-89669904D01*
X168370095Y-89765142D01*
X168322476Y-89812761D01*
X168227238Y-89860380D01*
X167989142Y-89860380D01*
X167893904Y-89812761D01*
X167846285Y-89765142D01*
%TO.C,Q1*%
X132492761Y-114707619D02*
X132397523Y-114660000D01*
X132302285Y-114564761D01*
X132159428Y-114421904D01*
X132064190Y-114374285D01*
X131968952Y-114374285D01*
X132016571Y-114612380D02*
X131921333Y-114564761D01*
X131826095Y-114469523D01*
X131778476Y-114279047D01*
X131778476Y-113945714D01*
X131826095Y-113755238D01*
X131921333Y-113660000D01*
X132016571Y-113612380D01*
X132207047Y-113612380D01*
X132302285Y-113660000D01*
X132397523Y-113755238D01*
X132445142Y-113945714D01*
X132445142Y-114279047D01*
X132397523Y-114469523D01*
X132302285Y-114564761D01*
X132207047Y-114612380D01*
X132016571Y-114612380D01*
X133397523Y-114612380D02*
X132826095Y-114612380D01*
X133111809Y-114612380D02*
X133111809Y-113612380D01*
X133016571Y-113755238D01*
X132921333Y-113850476D01*
X132826095Y-113898095D01*
%TO.C,C8*%
X135837142Y-80430666D02*
X135884761Y-80478285D01*
X135932380Y-80621142D01*
X135932380Y-80716380D01*
X135884761Y-80859238D01*
X135789523Y-80954476D01*
X135694285Y-81002095D01*
X135503809Y-81049714D01*
X135360952Y-81049714D01*
X135170476Y-81002095D01*
X135075238Y-80954476D01*
X134980000Y-80859238D01*
X134932380Y-80716380D01*
X134932380Y-80621142D01*
X134980000Y-80478285D01*
X135027619Y-80430666D01*
X135360952Y-79859238D02*
X135313333Y-79954476D01*
X135265714Y-80002095D01*
X135170476Y-80049714D01*
X135122857Y-80049714D01*
X135027619Y-80002095D01*
X134980000Y-79954476D01*
X134932380Y-79859238D01*
X134932380Y-79668761D01*
X134980000Y-79573523D01*
X135027619Y-79525904D01*
X135122857Y-79478285D01*
X135170476Y-79478285D01*
X135265714Y-79525904D01*
X135313333Y-79573523D01*
X135360952Y-79668761D01*
X135360952Y-79859238D01*
X135408571Y-79954476D01*
X135456190Y-80002095D01*
X135551428Y-80049714D01*
X135741904Y-80049714D01*
X135837142Y-80002095D01*
X135884761Y-79954476D01*
X135932380Y-79859238D01*
X135932380Y-79668761D01*
X135884761Y-79573523D01*
X135837142Y-79525904D01*
X135741904Y-79478285D01*
X135551428Y-79478285D01*
X135456190Y-79525904D01*
X135408571Y-79573523D01*
X135360952Y-79668761D01*
%TO.C,Q14*%
X156830071Y-93879619D02*
X156734833Y-93832000D01*
X156639595Y-93736761D01*
X156496738Y-93593904D01*
X156401500Y-93546285D01*
X156306261Y-93546285D01*
X156353880Y-93784380D02*
X156258642Y-93736761D01*
X156163404Y-93641523D01*
X156115785Y-93451047D01*
X156115785Y-93117714D01*
X156163404Y-92927238D01*
X156258642Y-92832000D01*
X156353880Y-92784380D01*
X156544357Y-92784380D01*
X156639595Y-92832000D01*
X156734833Y-92927238D01*
X156782452Y-93117714D01*
X156782452Y-93451047D01*
X156734833Y-93641523D01*
X156639595Y-93736761D01*
X156544357Y-93784380D01*
X156353880Y-93784380D01*
X157734833Y-93784380D02*
X157163404Y-93784380D01*
X157449119Y-93784380D02*
X157449119Y-92784380D01*
X157353880Y-92927238D01*
X157258642Y-93022476D01*
X157163404Y-93070095D01*
X158591976Y-93117714D02*
X158591976Y-93784380D01*
X158353880Y-92736761D02*
X158115785Y-93451047D01*
X158734833Y-93451047D01*
%TO.C,U14*%
X159289904Y-76578380D02*
X159289904Y-77387904D01*
X159337523Y-77483142D01*
X159385142Y-77530761D01*
X159480380Y-77578380D01*
X159670857Y-77578380D01*
X159766095Y-77530761D01*
X159813714Y-77483142D01*
X159861333Y-77387904D01*
X159861333Y-76578380D01*
X160861333Y-77578380D02*
X160289904Y-77578380D01*
X160575619Y-77578380D02*
X160575619Y-76578380D01*
X160480380Y-76721238D01*
X160385142Y-76816476D01*
X160289904Y-76864095D01*
X161718476Y-76911714D02*
X161718476Y-77578380D01*
X161480380Y-76530761D02*
X161242285Y-77245047D01*
X161861333Y-77245047D01*
%TO.C,R16*%
X139565142Y-98496380D02*
X139231809Y-98020190D01*
X138993714Y-98496380D02*
X138993714Y-97496380D01*
X139374666Y-97496380D01*
X139469904Y-97544000D01*
X139517523Y-97591619D01*
X139565142Y-97686857D01*
X139565142Y-97829714D01*
X139517523Y-97924952D01*
X139469904Y-97972571D01*
X139374666Y-98020190D01*
X138993714Y-98020190D01*
X140517523Y-98496380D02*
X139946095Y-98496380D01*
X140231809Y-98496380D02*
X140231809Y-97496380D01*
X140136571Y-97639238D01*
X140041333Y-97734476D01*
X139946095Y-97782095D01*
X141374666Y-97496380D02*
X141184190Y-97496380D01*
X141088952Y-97544000D01*
X141041333Y-97591619D01*
X140946095Y-97734476D01*
X140898476Y-97924952D01*
X140898476Y-98305904D01*
X140946095Y-98401142D01*
X140993714Y-98448761D01*
X141088952Y-98496380D01*
X141279428Y-98496380D01*
X141374666Y-98448761D01*
X141422285Y-98401142D01*
X141469904Y-98305904D01*
X141469904Y-98067809D01*
X141422285Y-97972571D01*
X141374666Y-97924952D01*
X141279428Y-97877333D01*
X141088952Y-97877333D01*
X140993714Y-97924952D01*
X140946095Y-97972571D01*
X140898476Y-98067809D01*
%TO.C,J3*%
X122085722Y-98598984D02*
X122800008Y-98598984D01*
X122942865Y-98646603D01*
X123038103Y-98741841D01*
X123085722Y-98884698D01*
X123085722Y-98979936D01*
X122085722Y-98218031D02*
X122085722Y-97598984D01*
X122466675Y-97932317D01*
X122466675Y-97789460D01*
X122514294Y-97694222D01*
X122561913Y-97646603D01*
X122657151Y-97598984D01*
X122895246Y-97598984D01*
X122990484Y-97646603D01*
X123038103Y-97694222D01*
X123085722Y-97789460D01*
X123085722Y-98075174D01*
X123038103Y-98170412D01*
X122990484Y-98218031D01*
%TO.C,C4*%
X119975333Y-123576142D02*
X119927714Y-123623761D01*
X119784857Y-123671380D01*
X119689619Y-123671380D01*
X119546761Y-123623761D01*
X119451523Y-123528523D01*
X119403904Y-123433285D01*
X119356285Y-123242809D01*
X119356285Y-123099952D01*
X119403904Y-122909476D01*
X119451523Y-122814238D01*
X119546761Y-122719000D01*
X119689619Y-122671380D01*
X119784857Y-122671380D01*
X119927714Y-122719000D01*
X119975333Y-122766619D01*
X120832476Y-123004714D02*
X120832476Y-123671380D01*
X120594380Y-122623761D02*
X120356285Y-123338047D01*
X120975333Y-123338047D01*
%TO.C,Q3*%
X125655619Y-114395238D02*
X125608000Y-114490476D01*
X125512761Y-114585714D01*
X125369904Y-114728571D01*
X125322285Y-114823809D01*
X125322285Y-114919047D01*
X125560380Y-114871428D02*
X125512761Y-114966666D01*
X125417523Y-115061904D01*
X125227047Y-115109523D01*
X124893714Y-115109523D01*
X124703238Y-115061904D01*
X124608000Y-114966666D01*
X124560380Y-114871428D01*
X124560380Y-114680952D01*
X124608000Y-114585714D01*
X124703238Y-114490476D01*
X124893714Y-114442857D01*
X125227047Y-114442857D01*
X125417523Y-114490476D01*
X125512761Y-114585714D01*
X125560380Y-114680952D01*
X125560380Y-114871428D01*
X124560380Y-114109523D02*
X124560380Y-113490476D01*
X124941333Y-113823809D01*
X124941333Y-113680952D01*
X124988952Y-113585714D01*
X125036571Y-113538095D01*
X125131809Y-113490476D01*
X125369904Y-113490476D01*
X125465142Y-113538095D01*
X125512761Y-113585714D01*
X125560380Y-113680952D01*
X125560380Y-113966666D01*
X125512761Y-114061904D01*
X125465142Y-114109523D01*
%TO.C,X1*%
X181728380Y-107997523D02*
X182728380Y-107330857D01*
X181728380Y-107330857D02*
X182728380Y-107997523D01*
X182728380Y-106426095D02*
X182728380Y-106997523D01*
X182728380Y-106711809D02*
X181728380Y-106711809D01*
X181871238Y-106807047D01*
X181966476Y-106902285D01*
X182014095Y-106997523D01*
%TO.C,C5*%
X141057333Y-102465142D02*
X141009714Y-102512761D01*
X140866857Y-102560380D01*
X140771619Y-102560380D01*
X140628761Y-102512761D01*
X140533523Y-102417523D01*
X140485904Y-102322285D01*
X140438285Y-102131809D01*
X140438285Y-101988952D01*
X140485904Y-101798476D01*
X140533523Y-101703238D01*
X140628761Y-101608000D01*
X140771619Y-101560380D01*
X140866857Y-101560380D01*
X141009714Y-101608000D01*
X141057333Y-101655619D01*
X141962095Y-101560380D02*
X141485904Y-101560380D01*
X141438285Y-102036571D01*
X141485904Y-101988952D01*
X141581142Y-101941333D01*
X141819238Y-101941333D01*
X141914476Y-101988952D01*
X141962095Y-102036571D01*
X142009714Y-102131809D01*
X142009714Y-102369904D01*
X141962095Y-102465142D01*
X141914476Y-102512761D01*
X141819238Y-102560380D01*
X141581142Y-102560380D01*
X141485904Y-102512761D01*
X141438285Y-102465142D01*
%TO.C,RN1*%
X191079523Y-116276380D02*
X190746190Y-115800190D01*
X190508095Y-116276380D02*
X190508095Y-115276380D01*
X190889047Y-115276380D01*
X190984285Y-115324000D01*
X191031904Y-115371619D01*
X191079523Y-115466857D01*
X191079523Y-115609714D01*
X191031904Y-115704952D01*
X190984285Y-115752571D01*
X190889047Y-115800190D01*
X190508095Y-115800190D01*
X191508095Y-116276380D02*
X191508095Y-115276380D01*
X192079523Y-116276380D01*
X192079523Y-115276380D01*
X193079523Y-116276380D02*
X192508095Y-116276380D01*
X192793809Y-116276380D02*
X192793809Y-115276380D01*
X192698571Y-115419238D01*
X192603333Y-115514476D01*
X192508095Y-115562095D01*
%TO.C,Q17*%
X170116571Y-84735619D02*
X170021333Y-84688000D01*
X169926095Y-84592761D01*
X169783238Y-84449904D01*
X169688000Y-84402285D01*
X169592761Y-84402285D01*
X169640380Y-84640380D02*
X169545142Y-84592761D01*
X169449904Y-84497523D01*
X169402285Y-84307047D01*
X169402285Y-83973714D01*
X169449904Y-83783238D01*
X169545142Y-83688000D01*
X169640380Y-83640380D01*
X169830857Y-83640380D01*
X169926095Y-83688000D01*
X170021333Y-83783238D01*
X170068952Y-83973714D01*
X170068952Y-84307047D01*
X170021333Y-84497523D01*
X169926095Y-84592761D01*
X169830857Y-84640380D01*
X169640380Y-84640380D01*
X171021333Y-84640380D02*
X170449904Y-84640380D01*
X170735619Y-84640380D02*
X170735619Y-83640380D01*
X170640380Y-83783238D01*
X170545142Y-83878476D01*
X170449904Y-83926095D01*
X171354666Y-83640380D02*
X172021333Y-83640380D01*
X171592761Y-84640380D01*
%TO.C,C15*%
X130105642Y-73001142D02*
X130058023Y-73048761D01*
X129915166Y-73096380D01*
X129819928Y-73096380D01*
X129677071Y-73048761D01*
X129581833Y-72953523D01*
X129534214Y-72858285D01*
X129486595Y-72667809D01*
X129486595Y-72524952D01*
X129534214Y-72334476D01*
X129581833Y-72239238D01*
X129677071Y-72144000D01*
X129819928Y-72096380D01*
X129915166Y-72096380D01*
X130058023Y-72144000D01*
X130105642Y-72191619D01*
X131058023Y-73096380D02*
X130486595Y-73096380D01*
X130772309Y-73096380D02*
X130772309Y-72096380D01*
X130677071Y-72239238D01*
X130581833Y-72334476D01*
X130486595Y-72382095D01*
X131962785Y-72096380D02*
X131486595Y-72096380D01*
X131438976Y-72572571D01*
X131486595Y-72524952D01*
X131581833Y-72477333D01*
X131819928Y-72477333D01*
X131915166Y-72524952D01*
X131962785Y-72572571D01*
X132010404Y-72667809D01*
X132010404Y-72905904D01*
X131962785Y-73001142D01*
X131915166Y-73048761D01*
X131819928Y-73096380D01*
X131581833Y-73096380D01*
X131486595Y-73048761D01*
X131438976Y-73001142D01*
%TO.C,R9*%
X120737333Y-117292380D02*
X120404000Y-116816190D01*
X120165904Y-117292380D02*
X120165904Y-116292380D01*
X120546857Y-116292380D01*
X120642095Y-116340000D01*
X120689714Y-116387619D01*
X120737333Y-116482857D01*
X120737333Y-116625714D01*
X120689714Y-116720952D01*
X120642095Y-116768571D01*
X120546857Y-116816190D01*
X120165904Y-116816190D01*
X121213523Y-117292380D02*
X121404000Y-117292380D01*
X121499238Y-117244761D01*
X121546857Y-117197142D01*
X121642095Y-117054285D01*
X121689714Y-116863809D01*
X121689714Y-116482857D01*
X121642095Y-116387619D01*
X121594476Y-116340000D01*
X121499238Y-116292380D01*
X121308761Y-116292380D01*
X121213523Y-116340000D01*
X121165904Y-116387619D01*
X121118285Y-116482857D01*
X121118285Y-116720952D01*
X121165904Y-116816190D01*
X121213523Y-116863809D01*
X121308761Y-116911428D01*
X121499238Y-116911428D01*
X121594476Y-116863809D01*
X121642095Y-116816190D01*
X121689714Y-116720952D01*
%TO.C,R15*%
X140057142Y-86686380D02*
X139723809Y-86210190D01*
X139485714Y-86686380D02*
X139485714Y-85686380D01*
X139866666Y-85686380D01*
X139961904Y-85734000D01*
X140009523Y-85781619D01*
X140057142Y-85876857D01*
X140057142Y-86019714D01*
X140009523Y-86114952D01*
X139961904Y-86162571D01*
X139866666Y-86210190D01*
X139485714Y-86210190D01*
X141009523Y-86686380D02*
X140438095Y-86686380D01*
X140723809Y-86686380D02*
X140723809Y-85686380D01*
X140628571Y-85829238D01*
X140533333Y-85924476D01*
X140438095Y-85972095D01*
X141914285Y-85686380D02*
X141438095Y-85686380D01*
X141390476Y-86162571D01*
X141438095Y-86114952D01*
X141533333Y-86067333D01*
X141771428Y-86067333D01*
X141866666Y-86114952D01*
X141914285Y-86162571D01*
X141961904Y-86257809D01*
X141961904Y-86495904D01*
X141914285Y-86591142D01*
X141866666Y-86638761D01*
X141771428Y-86686380D01*
X141533333Y-86686380D01*
X141438095Y-86638761D01*
X141390476Y-86591142D01*
%TO.C,Q10*%
X178207619Y-78295428D02*
X178160000Y-78390666D01*
X178064761Y-78485904D01*
X177921904Y-78628761D01*
X177874285Y-78724000D01*
X177874285Y-78819238D01*
X178112380Y-78771619D02*
X178064761Y-78866857D01*
X177969523Y-78962095D01*
X177779047Y-79009714D01*
X177445714Y-79009714D01*
X177255238Y-78962095D01*
X177160000Y-78866857D01*
X177112380Y-78771619D01*
X177112380Y-78581142D01*
X177160000Y-78485904D01*
X177255238Y-78390666D01*
X177445714Y-78343047D01*
X177779047Y-78343047D01*
X177969523Y-78390666D01*
X178064761Y-78485904D01*
X178112380Y-78581142D01*
X178112380Y-78771619D01*
X178112380Y-77390666D02*
X178112380Y-77962095D01*
X178112380Y-77676380D02*
X177112380Y-77676380D01*
X177255238Y-77771619D01*
X177350476Y-77866857D01*
X177398095Y-77962095D01*
X177112380Y-76771619D02*
X177112380Y-76676380D01*
X177160000Y-76581142D01*
X177207619Y-76533523D01*
X177302857Y-76485904D01*
X177493333Y-76438285D01*
X177731428Y-76438285D01*
X177921904Y-76485904D01*
X178017142Y-76533523D01*
X178064761Y-76581142D01*
X178112380Y-76676380D01*
X178112380Y-76771619D01*
X178064761Y-76866857D01*
X178017142Y-76914476D01*
X177921904Y-76962095D01*
X177731428Y-77009714D01*
X177493333Y-77009714D01*
X177302857Y-76962095D01*
X177207619Y-76914476D01*
X177160000Y-76866857D01*
X177112380Y-76771619D01*
%TO.C,U1*%
X139566495Y-113009280D02*
X139566495Y-113818804D01*
X139614114Y-113914042D01*
X139661733Y-113961661D01*
X139756971Y-114009280D01*
X139947447Y-114009280D01*
X140042685Y-113961661D01*
X140090304Y-113914042D01*
X140137923Y-113818804D01*
X140137923Y-113009280D01*
X141137923Y-114009280D02*
X140566495Y-114009280D01*
X140852209Y-114009280D02*
X140852209Y-113009280D01*
X140756971Y-113152138D01*
X140661733Y-113247376D01*
X140566495Y-113294995D01*
X138176000Y-109688380D02*
X138176000Y-109926476D01*
X137937904Y-109831238D02*
X138176000Y-109926476D01*
X138414095Y-109831238D01*
X138033142Y-110116952D02*
X138176000Y-109926476D01*
X138318857Y-110116952D01*
X138176000Y-109688380D02*
X138176000Y-109926476D01*
X137937904Y-109831238D02*
X138176000Y-109926476D01*
X138414095Y-109831238D01*
X138033142Y-110116952D02*
X138176000Y-109926476D01*
X138318857Y-110116952D01*
%TO.C,R3*%
X126960333Y-119070380D02*
X126627000Y-118594190D01*
X126388904Y-119070380D02*
X126388904Y-118070380D01*
X126769857Y-118070380D01*
X126865095Y-118118000D01*
X126912714Y-118165619D01*
X126960333Y-118260857D01*
X126960333Y-118403714D01*
X126912714Y-118498952D01*
X126865095Y-118546571D01*
X126769857Y-118594190D01*
X126388904Y-118594190D01*
X127293666Y-118070380D02*
X127912714Y-118070380D01*
X127579380Y-118451333D01*
X127722238Y-118451333D01*
X127817476Y-118498952D01*
X127865095Y-118546571D01*
X127912714Y-118641809D01*
X127912714Y-118879904D01*
X127865095Y-118975142D01*
X127817476Y-119022761D01*
X127722238Y-119070380D01*
X127436523Y-119070380D01*
X127341285Y-119022761D01*
X127293666Y-118975142D01*
%TO.C,U10*%
X191420904Y-96988380D02*
X191420904Y-97797904D01*
X191468523Y-97893142D01*
X191516142Y-97940761D01*
X191611380Y-97988380D01*
X191801857Y-97988380D01*
X191897095Y-97940761D01*
X191944714Y-97893142D01*
X191992333Y-97797904D01*
X191992333Y-96988380D01*
X192992333Y-97988380D02*
X192420904Y-97988380D01*
X192706619Y-97988380D02*
X192706619Y-96988380D01*
X192611380Y-97131238D01*
X192516142Y-97226476D01*
X192420904Y-97274095D01*
X193611380Y-96988380D02*
X193706619Y-96988380D01*
X193801857Y-97036000D01*
X193849476Y-97083619D01*
X193897095Y-97178857D01*
X193944714Y-97369333D01*
X193944714Y-97607428D01*
X193897095Y-97797904D01*
X193849476Y-97893142D01*
X193801857Y-97940761D01*
X193706619Y-97988380D01*
X193611380Y-97988380D01*
X193516142Y-97940761D01*
X193468523Y-97893142D01*
X193420904Y-97797904D01*
X193373285Y-97607428D01*
X193373285Y-97369333D01*
X193420904Y-97178857D01*
X193468523Y-97083619D01*
X193516142Y-97036000D01*
X193611380Y-96988380D01*
X188793380Y-102362000D02*
X189031476Y-102362000D01*
X188936238Y-102600095D02*
X189031476Y-102362000D01*
X188936238Y-102123904D01*
X189221952Y-102504857D02*
X189031476Y-102362000D01*
X189221952Y-102219142D01*
X188793380Y-102362000D02*
X189031476Y-102362000D01*
X188936238Y-102600095D02*
X189031476Y-102362000D01*
X188936238Y-102123904D01*
X189221952Y-102504857D02*
X189031476Y-102362000D01*
X189221952Y-102219142D01*
%TO.C,F1*%
X120791136Y-87386610D02*
X120791136Y-87719943D01*
X121314945Y-87719943D02*
X120314945Y-87719943D01*
X120314945Y-87243753D01*
X121314945Y-86338991D02*
X121314945Y-86910419D01*
X121314945Y-86624705D02*
X120314945Y-86624705D01*
X120457803Y-86719943D01*
X120553041Y-86815181D01*
X120600660Y-86910419D01*
%TO.C,R57*%
X162273532Y-122211274D02*
X161797342Y-122544607D01*
X162273532Y-122782702D02*
X161273532Y-122782702D01*
X161273532Y-122401750D01*
X161321152Y-122306512D01*
X161368771Y-122258893D01*
X161464009Y-122211274D01*
X161606866Y-122211274D01*
X161702104Y-122258893D01*
X161749723Y-122306512D01*
X161797342Y-122401750D01*
X161797342Y-122782702D01*
X161273532Y-121306512D02*
X161273532Y-121782702D01*
X161749723Y-121830321D01*
X161702104Y-121782702D01*
X161654485Y-121687464D01*
X161654485Y-121449369D01*
X161702104Y-121354131D01*
X161749723Y-121306512D01*
X161844961Y-121258893D01*
X162083056Y-121258893D01*
X162178294Y-121306512D01*
X162225913Y-121354131D01*
X162273532Y-121449369D01*
X162273532Y-121687464D01*
X162225913Y-121782702D01*
X162178294Y-121830321D01*
X161273532Y-120925559D02*
X161273532Y-120258893D01*
X162273532Y-120687464D01*
%TO.C,SW1*%
X187821666Y-113656761D02*
X187964523Y-113704380D01*
X188202619Y-113704380D01*
X188297857Y-113656761D01*
X188345476Y-113609142D01*
X188393095Y-113513904D01*
X188393095Y-113418666D01*
X188345476Y-113323428D01*
X188297857Y-113275809D01*
X188202619Y-113228190D01*
X188012142Y-113180571D01*
X187916904Y-113132952D01*
X187869285Y-113085333D01*
X187821666Y-112990095D01*
X187821666Y-112894857D01*
X187869285Y-112799619D01*
X187916904Y-112752000D01*
X188012142Y-112704380D01*
X188250238Y-112704380D01*
X188393095Y-112752000D01*
X188726428Y-112704380D02*
X188964523Y-113704380D01*
X189155000Y-112990095D01*
X189345476Y-113704380D01*
X189583571Y-112704380D01*
X190488333Y-113704380D02*
X189916904Y-113704380D01*
X190202619Y-113704380D02*
X190202619Y-112704380D01*
X190107380Y-112847238D01*
X190012142Y-112942476D01*
X189916904Y-112990095D01*
%TO.C,R7*%
X138009333Y-117800380D02*
X137676000Y-117324190D01*
X137437904Y-117800380D02*
X137437904Y-116800380D01*
X137818857Y-116800380D01*
X137914095Y-116848000D01*
X137961714Y-116895619D01*
X138009333Y-116990857D01*
X138009333Y-117133714D01*
X137961714Y-117228952D01*
X137914095Y-117276571D01*
X137818857Y-117324190D01*
X137437904Y-117324190D01*
X138342666Y-116800380D02*
X139009333Y-116800380D01*
X138580761Y-117800380D01*
%TO.C,C25*%
X143629142Y-83669142D02*
X143581523Y-83716761D01*
X143438666Y-83764380D01*
X143343428Y-83764380D01*
X143200571Y-83716761D01*
X143105333Y-83621523D01*
X143057714Y-83526285D01*
X143010095Y-83335809D01*
X143010095Y-83192952D01*
X143057714Y-83002476D01*
X143105333Y-82907238D01*
X143200571Y-82812000D01*
X143343428Y-82764380D01*
X143438666Y-82764380D01*
X143581523Y-82812000D01*
X143629142Y-82859619D01*
X144010095Y-82859619D02*
X144057714Y-82812000D01*
X144152952Y-82764380D01*
X144391047Y-82764380D01*
X144486285Y-82812000D01*
X144533904Y-82859619D01*
X144581523Y-82954857D01*
X144581523Y-83050095D01*
X144533904Y-83192952D01*
X143962476Y-83764380D01*
X144581523Y-83764380D01*
X145486285Y-82764380D02*
X145010095Y-82764380D01*
X144962476Y-83240571D01*
X145010095Y-83192952D01*
X145105333Y-83145333D01*
X145343428Y-83145333D01*
X145438666Y-83192952D01*
X145486285Y-83240571D01*
X145533904Y-83335809D01*
X145533904Y-83573904D01*
X145486285Y-83669142D01*
X145438666Y-83716761D01*
X145343428Y-83764380D01*
X145105333Y-83764380D01*
X145010095Y-83716761D01*
X144962476Y-83669142D01*
%TO.C,Q11*%
X170624571Y-89955619D02*
X170529333Y-89908000D01*
X170434095Y-89812761D01*
X170291238Y-89669904D01*
X170196000Y-89622285D01*
X170100761Y-89622285D01*
X170148380Y-89860380D02*
X170053142Y-89812761D01*
X169957904Y-89717523D01*
X169910285Y-89527047D01*
X169910285Y-89193714D01*
X169957904Y-89003238D01*
X170053142Y-88908000D01*
X170148380Y-88860380D01*
X170338857Y-88860380D01*
X170434095Y-88908000D01*
X170529333Y-89003238D01*
X170576952Y-89193714D01*
X170576952Y-89527047D01*
X170529333Y-89717523D01*
X170434095Y-89812761D01*
X170338857Y-89860380D01*
X170148380Y-89860380D01*
X171529333Y-89860380D02*
X170957904Y-89860380D01*
X171243619Y-89860380D02*
X171243619Y-88860380D01*
X171148380Y-89003238D01*
X171053142Y-89098476D01*
X170957904Y-89146095D01*
X172481714Y-89860380D02*
X171910285Y-89860380D01*
X172196000Y-89860380D02*
X172196000Y-88860380D01*
X172100761Y-89003238D01*
X172005523Y-89098476D01*
X171910285Y-89146095D01*
%TO.C,R39*%
X151836380Y-88018857D02*
X151360190Y-88352190D01*
X151836380Y-88590285D02*
X150836380Y-88590285D01*
X150836380Y-88209333D01*
X150884000Y-88114095D01*
X150931619Y-88066476D01*
X151026857Y-88018857D01*
X151169714Y-88018857D01*
X151264952Y-88066476D01*
X151312571Y-88114095D01*
X151360190Y-88209333D01*
X151360190Y-88590285D01*
X150836380Y-87685523D02*
X150836380Y-87066476D01*
X151217333Y-87399809D01*
X151217333Y-87256952D01*
X151264952Y-87161714D01*
X151312571Y-87114095D01*
X151407809Y-87066476D01*
X151645904Y-87066476D01*
X151741142Y-87114095D01*
X151788761Y-87161714D01*
X151836380Y-87256952D01*
X151836380Y-87542666D01*
X151788761Y-87637904D01*
X151741142Y-87685523D01*
X151836380Y-86590285D02*
X151836380Y-86399809D01*
X151788761Y-86304571D01*
X151741142Y-86256952D01*
X151598285Y-86161714D01*
X151407809Y-86114095D01*
X151026857Y-86114095D01*
X150931619Y-86161714D01*
X150884000Y-86209333D01*
X150836380Y-86304571D01*
X150836380Y-86495047D01*
X150884000Y-86590285D01*
X150931619Y-86637904D01*
X151026857Y-86685523D01*
X151264952Y-86685523D01*
X151360190Y-86637904D01*
X151407809Y-86590285D01*
X151455428Y-86495047D01*
X151455428Y-86304571D01*
X151407809Y-86209333D01*
X151360190Y-86161714D01*
X151264952Y-86114095D01*
%TO.C,R29*%
X153492206Y-77668380D02*
X153158873Y-77192190D01*
X152920778Y-77668380D02*
X152920778Y-76668380D01*
X153301730Y-76668380D01*
X153396968Y-76716000D01*
X153444587Y-76763619D01*
X153492206Y-76858857D01*
X153492206Y-77001714D01*
X153444587Y-77096952D01*
X153396968Y-77144571D01*
X153301730Y-77192190D01*
X152920778Y-77192190D01*
X153873159Y-76763619D02*
X153920778Y-76716000D01*
X154016016Y-76668380D01*
X154254111Y-76668380D01*
X154349349Y-76716000D01*
X154396968Y-76763619D01*
X154444587Y-76858857D01*
X154444587Y-76954095D01*
X154396968Y-77096952D01*
X153825540Y-77668380D01*
X154444587Y-77668380D01*
X154920778Y-77668380D02*
X155111254Y-77668380D01*
X155206492Y-77620761D01*
X155254111Y-77573142D01*
X155349349Y-77430285D01*
X155396968Y-77239809D01*
X155396968Y-76858857D01*
X155349349Y-76763619D01*
X155301730Y-76716000D01*
X155206492Y-76668380D01*
X155016016Y-76668380D01*
X154920778Y-76716000D01*
X154873159Y-76763619D01*
X154825540Y-76858857D01*
X154825540Y-77096952D01*
X154873159Y-77192190D01*
X154920778Y-77239809D01*
X155016016Y-77287428D01*
X155206492Y-77287428D01*
X155301730Y-77239809D01*
X155349349Y-77192190D01*
X155396968Y-77096952D01*
%TO.C,C21*%
X126087142Y-86875857D02*
X126134761Y-86923476D01*
X126182380Y-87066333D01*
X126182380Y-87161571D01*
X126134761Y-87304428D01*
X126039523Y-87399666D01*
X125944285Y-87447285D01*
X125753809Y-87494904D01*
X125610952Y-87494904D01*
X125420476Y-87447285D01*
X125325238Y-87399666D01*
X125230000Y-87304428D01*
X125182380Y-87161571D01*
X125182380Y-87066333D01*
X125230000Y-86923476D01*
X125277619Y-86875857D01*
X125277619Y-86494904D02*
X125230000Y-86447285D01*
X125182380Y-86352047D01*
X125182380Y-86113952D01*
X125230000Y-86018714D01*
X125277619Y-85971095D01*
X125372857Y-85923476D01*
X125468095Y-85923476D01*
X125610952Y-85971095D01*
X126182380Y-86542523D01*
X126182380Y-85923476D01*
X126182380Y-84971095D02*
X126182380Y-85542523D01*
X126182380Y-85256809D02*
X125182380Y-85256809D01*
X125325238Y-85352047D01*
X125420476Y-85447285D01*
X125468095Y-85542523D01*
%TO.C,C20*%
X126341142Y-91193857D02*
X126388761Y-91241476D01*
X126436380Y-91384333D01*
X126436380Y-91479571D01*
X126388761Y-91622428D01*
X126293523Y-91717666D01*
X126198285Y-91765285D01*
X126007809Y-91812904D01*
X125864952Y-91812904D01*
X125674476Y-91765285D01*
X125579238Y-91717666D01*
X125484000Y-91622428D01*
X125436380Y-91479571D01*
X125436380Y-91384333D01*
X125484000Y-91241476D01*
X125531619Y-91193857D01*
X125531619Y-90812904D02*
X125484000Y-90765285D01*
X125436380Y-90670047D01*
X125436380Y-90431952D01*
X125484000Y-90336714D01*
X125531619Y-90289095D01*
X125626857Y-90241476D01*
X125722095Y-90241476D01*
X125864952Y-90289095D01*
X126436380Y-90860523D01*
X126436380Y-90241476D01*
X125436380Y-89622428D02*
X125436380Y-89527190D01*
X125484000Y-89431952D01*
X125531619Y-89384333D01*
X125626857Y-89336714D01*
X125817333Y-89289095D01*
X126055428Y-89289095D01*
X126245904Y-89336714D01*
X126341142Y-89384333D01*
X126388761Y-89431952D01*
X126436380Y-89527190D01*
X126436380Y-89622428D01*
X126388761Y-89717666D01*
X126341142Y-89765285D01*
X126245904Y-89812904D01*
X126055428Y-89860523D01*
X125817333Y-89860523D01*
X125626857Y-89812904D01*
X125531619Y-89765285D01*
X125484000Y-89717666D01*
X125436380Y-89622428D01*
%TO.C,D19*%
X159821714Y-88844380D02*
X159821714Y-87844380D01*
X160059809Y-87844380D01*
X160202666Y-87892000D01*
X160297904Y-87987238D01*
X160345523Y-88082476D01*
X160393142Y-88272952D01*
X160393142Y-88415809D01*
X160345523Y-88606285D01*
X160297904Y-88701523D01*
X160202666Y-88796761D01*
X160059809Y-88844380D01*
X159821714Y-88844380D01*
X161345523Y-88844380D02*
X160774095Y-88844380D01*
X161059809Y-88844380D02*
X161059809Y-87844380D01*
X160964571Y-87987238D01*
X160869333Y-88082476D01*
X160774095Y-88130095D01*
X161821714Y-88844380D02*
X162012190Y-88844380D01*
X162107428Y-88796761D01*
X162155047Y-88749142D01*
X162250285Y-88606285D01*
X162297904Y-88415809D01*
X162297904Y-88034857D01*
X162250285Y-87939619D01*
X162202666Y-87892000D01*
X162107428Y-87844380D01*
X161916952Y-87844380D01*
X161821714Y-87892000D01*
X161774095Y-87939619D01*
X161726476Y-88034857D01*
X161726476Y-88272952D01*
X161774095Y-88368190D01*
X161821714Y-88415809D01*
X161916952Y-88463428D01*
X162107428Y-88463428D01*
X162202666Y-88415809D01*
X162250285Y-88368190D01*
X162297904Y-88272952D01*
%TO.C,Q19*%
X153860571Y-122975619D02*
X153765333Y-122928000D01*
X153670095Y-122832761D01*
X153527238Y-122689904D01*
X153432000Y-122642285D01*
X153336761Y-122642285D01*
X153384380Y-122880380D02*
X153289142Y-122832761D01*
X153193904Y-122737523D01*
X153146285Y-122547047D01*
X153146285Y-122213714D01*
X153193904Y-122023238D01*
X153289142Y-121928000D01*
X153384380Y-121880380D01*
X153574857Y-121880380D01*
X153670095Y-121928000D01*
X153765333Y-122023238D01*
X153812952Y-122213714D01*
X153812952Y-122547047D01*
X153765333Y-122737523D01*
X153670095Y-122832761D01*
X153574857Y-122880380D01*
X153384380Y-122880380D01*
X154765333Y-122880380D02*
X154193904Y-122880380D01*
X154479619Y-122880380D02*
X154479619Y-121880380D01*
X154384380Y-122023238D01*
X154289142Y-122118476D01*
X154193904Y-122166095D01*
X155241523Y-122880380D02*
X155432000Y-122880380D01*
X155527238Y-122832761D01*
X155574857Y-122785142D01*
X155670095Y-122642285D01*
X155717714Y-122451809D01*
X155717714Y-122070857D01*
X155670095Y-121975619D01*
X155622476Y-121928000D01*
X155527238Y-121880380D01*
X155336761Y-121880380D01*
X155241523Y-121928000D01*
X155193904Y-121975619D01*
X155146285Y-122070857D01*
X155146285Y-122308952D01*
X155193904Y-122404190D01*
X155241523Y-122451809D01*
X155336761Y-122499428D01*
X155527238Y-122499428D01*
X155622476Y-122451809D01*
X155670095Y-122404190D01*
X155717714Y-122308952D01*
%TO.C,C12*%
X143629142Y-82145142D02*
X143581523Y-82192761D01*
X143438666Y-82240380D01*
X143343428Y-82240380D01*
X143200571Y-82192761D01*
X143105333Y-82097523D01*
X143057714Y-82002285D01*
X143010095Y-81811809D01*
X143010095Y-81668952D01*
X143057714Y-81478476D01*
X143105333Y-81383238D01*
X143200571Y-81288000D01*
X143343428Y-81240380D01*
X143438666Y-81240380D01*
X143581523Y-81288000D01*
X143629142Y-81335619D01*
X144581523Y-82240380D02*
X144010095Y-82240380D01*
X144295809Y-82240380D02*
X144295809Y-81240380D01*
X144200571Y-81383238D01*
X144105333Y-81478476D01*
X144010095Y-81526095D01*
X144962476Y-81335619D02*
X145010095Y-81288000D01*
X145105333Y-81240380D01*
X145343428Y-81240380D01*
X145438666Y-81288000D01*
X145486285Y-81335619D01*
X145533904Y-81430857D01*
X145533904Y-81526095D01*
X145486285Y-81668952D01*
X144914857Y-82240380D01*
X145533904Y-82240380D01*
%TO.C,R41*%
X154884380Y-83954857D02*
X154408190Y-84288190D01*
X154884380Y-84526285D02*
X153884380Y-84526285D01*
X153884380Y-84145333D01*
X153932000Y-84050095D01*
X153979619Y-84002476D01*
X154074857Y-83954857D01*
X154217714Y-83954857D01*
X154312952Y-84002476D01*
X154360571Y-84050095D01*
X154408190Y-84145333D01*
X154408190Y-84526285D01*
X154217714Y-83097714D02*
X154884380Y-83097714D01*
X153836761Y-83335809D02*
X154551047Y-83573904D01*
X154551047Y-82954857D01*
X154884380Y-82050095D02*
X154884380Y-82621523D01*
X154884380Y-82335809D02*
X153884380Y-82335809D01*
X154027238Y-82431047D01*
X154122476Y-82526285D01*
X154170095Y-82621523D01*
%TO.C,R51*%
X159885142Y-116910380D02*
X159551809Y-116434190D01*
X159313714Y-116910380D02*
X159313714Y-115910380D01*
X159694666Y-115910380D01*
X159789904Y-115958000D01*
X159837523Y-116005619D01*
X159885142Y-116100857D01*
X159885142Y-116243714D01*
X159837523Y-116338952D01*
X159789904Y-116386571D01*
X159694666Y-116434190D01*
X159313714Y-116434190D01*
X160789904Y-115910380D02*
X160313714Y-115910380D01*
X160266095Y-116386571D01*
X160313714Y-116338952D01*
X160408952Y-116291333D01*
X160647047Y-116291333D01*
X160742285Y-116338952D01*
X160789904Y-116386571D01*
X160837523Y-116481809D01*
X160837523Y-116719904D01*
X160789904Y-116815142D01*
X160742285Y-116862761D01*
X160647047Y-116910380D01*
X160408952Y-116910380D01*
X160313714Y-116862761D01*
X160266095Y-116815142D01*
X161789904Y-116910380D02*
X161218476Y-116910380D01*
X161504190Y-116910380D02*
X161504190Y-115910380D01*
X161408952Y-116053238D01*
X161313714Y-116148476D01*
X161218476Y-116196095D01*
%TO.C,U5*%
X114046095Y-121245380D02*
X114046095Y-122054904D01*
X114093714Y-122150142D01*
X114141333Y-122197761D01*
X114236571Y-122245380D01*
X114427047Y-122245380D01*
X114522285Y-122197761D01*
X114569904Y-122150142D01*
X114617523Y-122054904D01*
X114617523Y-121245380D01*
X115569904Y-121245380D02*
X115093714Y-121245380D01*
X115046095Y-121721571D01*
X115093714Y-121673952D01*
X115188952Y-121626333D01*
X115427047Y-121626333D01*
X115522285Y-121673952D01*
X115569904Y-121721571D01*
X115617523Y-121816809D01*
X115617523Y-122054904D01*
X115569904Y-122150142D01*
X115522285Y-122197761D01*
X115427047Y-122245380D01*
X115188952Y-122245380D01*
X115093714Y-122197761D01*
X115046095Y-122150142D01*
X113792000Y-118705380D02*
X113792000Y-118943476D01*
X113553904Y-118848238D02*
X113792000Y-118943476D01*
X114030095Y-118848238D01*
X113649142Y-119133952D02*
X113792000Y-118943476D01*
X113934857Y-119133952D01*
X113792000Y-118705380D02*
X113792000Y-118943476D01*
X113553904Y-118848238D02*
X113792000Y-118943476D01*
X114030095Y-118848238D01*
X113649142Y-119133952D02*
X113792000Y-118943476D01*
X113934857Y-119133952D01*
%TO.C,R8*%
X124150380Y-118530666D02*
X123674190Y-118864000D01*
X124150380Y-119102095D02*
X123150380Y-119102095D01*
X123150380Y-118721142D01*
X123198000Y-118625904D01*
X123245619Y-118578285D01*
X123340857Y-118530666D01*
X123483714Y-118530666D01*
X123578952Y-118578285D01*
X123626571Y-118625904D01*
X123674190Y-118721142D01*
X123674190Y-119102095D01*
X123578952Y-117959238D02*
X123531333Y-118054476D01*
X123483714Y-118102095D01*
X123388476Y-118149714D01*
X123340857Y-118149714D01*
X123245619Y-118102095D01*
X123198000Y-118054476D01*
X123150380Y-117959238D01*
X123150380Y-117768761D01*
X123198000Y-117673523D01*
X123245619Y-117625904D01*
X123340857Y-117578285D01*
X123388476Y-117578285D01*
X123483714Y-117625904D01*
X123531333Y-117673523D01*
X123578952Y-117768761D01*
X123578952Y-117959238D01*
X123626571Y-118054476D01*
X123674190Y-118102095D01*
X123769428Y-118149714D01*
X123959904Y-118149714D01*
X124055142Y-118102095D01*
X124102761Y-118054476D01*
X124150380Y-117959238D01*
X124150380Y-117768761D01*
X124102761Y-117673523D01*
X124055142Y-117625904D01*
X123959904Y-117578285D01*
X123769428Y-117578285D01*
X123674190Y-117625904D01*
X123626571Y-117673523D01*
X123578952Y-117768761D01*
%TO.C,R17*%
X139318394Y-99512380D02*
X138985061Y-99036190D01*
X138746966Y-99512380D02*
X138746966Y-98512380D01*
X139127918Y-98512380D01*
X139223156Y-98560000D01*
X139270775Y-98607619D01*
X139318394Y-98702857D01*
X139318394Y-98845714D01*
X139270775Y-98940952D01*
X139223156Y-98988571D01*
X139127918Y-99036190D01*
X138746966Y-99036190D01*
X140270775Y-99512380D02*
X139699347Y-99512380D01*
X139985061Y-99512380D02*
X139985061Y-98512380D01*
X139889823Y-98655238D01*
X139794585Y-98750476D01*
X139699347Y-98798095D01*
X140604109Y-98512380D02*
X141270775Y-98512380D01*
X140842204Y-99512380D01*
%TO.C,L1*%
X140549333Y-83256380D02*
X140073142Y-83256380D01*
X140073142Y-82256380D01*
X141406476Y-83256380D02*
X140835047Y-83256380D01*
X141120761Y-83256380D02*
X141120761Y-82256380D01*
X141025523Y-82399238D01*
X140930285Y-82494476D01*
X140835047Y-82542095D01*
%TO.C,U4*%
X111760095Y-116165380D02*
X111760095Y-116974904D01*
X111807714Y-117070142D01*
X111855333Y-117117761D01*
X111950571Y-117165380D01*
X112141047Y-117165380D01*
X112236285Y-117117761D01*
X112283904Y-117070142D01*
X112331523Y-116974904D01*
X112331523Y-116165380D01*
X113236285Y-116498714D02*
X113236285Y-117165380D01*
X112998190Y-116117761D02*
X112760095Y-116832047D01*
X113379142Y-116832047D01*
X113538000Y-115149380D02*
X113538000Y-115387476D01*
X113299904Y-115292238D02*
X113538000Y-115387476D01*
X113776095Y-115292238D01*
X113395142Y-115577952D02*
X113538000Y-115387476D01*
X113680857Y-115577952D01*
X113538000Y-115149380D02*
X113538000Y-115387476D01*
X113299904Y-115292238D02*
X113538000Y-115387476D01*
X113776095Y-115292238D01*
X113395142Y-115577952D02*
X113538000Y-115387476D01*
X113680857Y-115577952D01*
%TO.C,R37*%
X159136912Y-87089427D02*
X158660722Y-87422760D01*
X159136912Y-87660855D02*
X158136912Y-87660855D01*
X158136912Y-87279903D01*
X158184532Y-87184665D01*
X158232151Y-87137046D01*
X158327389Y-87089427D01*
X158470246Y-87089427D01*
X158565484Y-87137046D01*
X158613103Y-87184665D01*
X158660722Y-87279903D01*
X158660722Y-87660855D01*
X158136912Y-86756093D02*
X158136912Y-86137046D01*
X158517865Y-86470379D01*
X158517865Y-86327522D01*
X158565484Y-86232284D01*
X158613103Y-86184665D01*
X158708341Y-86137046D01*
X158946436Y-86137046D01*
X159041674Y-86184665D01*
X159089293Y-86232284D01*
X159136912Y-86327522D01*
X159136912Y-86613236D01*
X159089293Y-86708474D01*
X159041674Y-86756093D01*
X158136912Y-85803712D02*
X158136912Y-85137046D01*
X159136912Y-85565617D01*
%TO.C,Q21*%
X149796571Y-122975619D02*
X149701333Y-122928000D01*
X149606095Y-122832761D01*
X149463238Y-122689904D01*
X149368000Y-122642285D01*
X149272761Y-122642285D01*
X149320380Y-122880380D02*
X149225142Y-122832761D01*
X149129904Y-122737523D01*
X149082285Y-122547047D01*
X149082285Y-122213714D01*
X149129904Y-122023238D01*
X149225142Y-121928000D01*
X149320380Y-121880380D01*
X149510857Y-121880380D01*
X149606095Y-121928000D01*
X149701333Y-122023238D01*
X149748952Y-122213714D01*
X149748952Y-122547047D01*
X149701333Y-122737523D01*
X149606095Y-122832761D01*
X149510857Y-122880380D01*
X149320380Y-122880380D01*
X150129904Y-121975619D02*
X150177523Y-121928000D01*
X150272761Y-121880380D01*
X150510857Y-121880380D01*
X150606095Y-121928000D01*
X150653714Y-121975619D01*
X150701333Y-122070857D01*
X150701333Y-122166095D01*
X150653714Y-122308952D01*
X150082285Y-122880380D01*
X150701333Y-122880380D01*
X151653714Y-122880380D02*
X151082285Y-122880380D01*
X151368000Y-122880380D02*
X151368000Y-121880380D01*
X151272761Y-122023238D01*
X151177523Y-122118476D01*
X151082285Y-122166095D01*
%TO.C,J1*%
X207966666Y-77052380D02*
X207966666Y-77766666D01*
X207919047Y-77909523D01*
X207823809Y-78004761D01*
X207680952Y-78052380D01*
X207585714Y-78052380D01*
X208966666Y-78052380D02*
X208395238Y-78052380D01*
X208680952Y-78052380D02*
X208680952Y-77052380D01*
X208585714Y-77195238D01*
X208490476Y-77290476D01*
X208395238Y-77338095D01*
X202723399Y-77674781D02*
X202723399Y-77912877D01*
X202485303Y-77817639D02*
X202723399Y-77912877D01*
X202961494Y-77817639D01*
X202580541Y-78103353D02*
X202723399Y-77912877D01*
X202866256Y-78103353D01*
%TO.C,U15*%
X142708380Y-90438095D02*
X143517904Y-90438095D01*
X143613142Y-90390476D01*
X143660761Y-90342857D01*
X143708380Y-90247619D01*
X143708380Y-90057142D01*
X143660761Y-89961904D01*
X143613142Y-89914285D01*
X143517904Y-89866666D01*
X142708380Y-89866666D01*
X143708380Y-88866666D02*
X143708380Y-89438095D01*
X143708380Y-89152380D02*
X142708380Y-89152380D01*
X142851238Y-89247619D01*
X142946476Y-89342857D01*
X142994095Y-89438095D01*
X142708380Y-87961904D02*
X142708380Y-88438095D01*
X143184571Y-88485714D01*
X143136952Y-88438095D01*
X143089333Y-88342857D01*
X143089333Y-88104761D01*
X143136952Y-88009523D01*
X143184571Y-87961904D01*
X143279809Y-87914285D01*
X143517904Y-87914285D01*
X143613142Y-87961904D01*
X143660761Y-88009523D01*
X143708380Y-88104761D01*
X143708380Y-88342857D01*
X143660761Y-88438095D01*
X143613142Y-88485714D01*
%TO.C,U19*%
X148621904Y-106504380D02*
X148621904Y-107313904D01*
X148669523Y-107409142D01*
X148717142Y-107456761D01*
X148812380Y-107504380D01*
X149002857Y-107504380D01*
X149098095Y-107456761D01*
X149145714Y-107409142D01*
X149193333Y-107313904D01*
X149193333Y-106504380D01*
X150193333Y-107504380D02*
X149621904Y-107504380D01*
X149907619Y-107504380D02*
X149907619Y-106504380D01*
X149812380Y-106647238D01*
X149717142Y-106742476D01*
X149621904Y-106790095D01*
X150669523Y-107504380D02*
X150860000Y-107504380D01*
X150955238Y-107456761D01*
X151002857Y-107409142D01*
X151098095Y-107266285D01*
X151145714Y-107075809D01*
X151145714Y-106694857D01*
X151098095Y-106599619D01*
X151050476Y-106552000D01*
X150955238Y-106504380D01*
X150764761Y-106504380D01*
X150669523Y-106552000D01*
X150621904Y-106599619D01*
X150574285Y-106694857D01*
X150574285Y-106932952D01*
X150621904Y-107028190D01*
X150669523Y-107075809D01*
X150764761Y-107123428D01*
X150955238Y-107123428D01*
X151050476Y-107075809D01*
X151098095Y-107028190D01*
X151145714Y-106932952D01*
%TO.C,R34*%
X176854380Y-82430857D02*
X176378190Y-82764190D01*
X176854380Y-83002285D02*
X175854380Y-83002285D01*
X175854380Y-82621333D01*
X175902000Y-82526095D01*
X175949619Y-82478476D01*
X176044857Y-82430857D01*
X176187714Y-82430857D01*
X176282952Y-82478476D01*
X176330571Y-82526095D01*
X176378190Y-82621333D01*
X176378190Y-83002285D01*
X175854380Y-82097523D02*
X175854380Y-81478476D01*
X176235333Y-81811809D01*
X176235333Y-81668952D01*
X176282952Y-81573714D01*
X176330571Y-81526095D01*
X176425809Y-81478476D01*
X176663904Y-81478476D01*
X176759142Y-81526095D01*
X176806761Y-81573714D01*
X176854380Y-81668952D01*
X176854380Y-81954666D01*
X176806761Y-82049904D01*
X176759142Y-82097523D01*
X176187714Y-80621333D02*
X176854380Y-80621333D01*
X175806761Y-80859428D02*
X176521047Y-81097523D01*
X176521047Y-80478476D01*
%TO.C,R33*%
X172077142Y-76270380D02*
X171743809Y-75794190D01*
X171505714Y-76270380D02*
X171505714Y-75270380D01*
X171886666Y-75270380D01*
X171981904Y-75318000D01*
X172029523Y-75365619D01*
X172077142Y-75460857D01*
X172077142Y-75603714D01*
X172029523Y-75698952D01*
X171981904Y-75746571D01*
X171886666Y-75794190D01*
X171505714Y-75794190D01*
X172410476Y-75270380D02*
X173029523Y-75270380D01*
X172696190Y-75651333D01*
X172839047Y-75651333D01*
X172934285Y-75698952D01*
X172981904Y-75746571D01*
X173029523Y-75841809D01*
X173029523Y-76079904D01*
X172981904Y-76175142D01*
X172934285Y-76222761D01*
X172839047Y-76270380D01*
X172553333Y-76270380D01*
X172458095Y-76222761D01*
X172410476Y-76175142D01*
X173362857Y-75270380D02*
X173981904Y-75270380D01*
X173648571Y-75651333D01*
X173791428Y-75651333D01*
X173886666Y-75698952D01*
X173934285Y-75746571D01*
X173981904Y-75841809D01*
X173981904Y-76079904D01*
X173934285Y-76175142D01*
X173886666Y-76222761D01*
X173791428Y-76270380D01*
X173505714Y-76270380D01*
X173410476Y-76222761D01*
X173362857Y-76175142D01*
%TO.C,R19*%
X186253380Y-100972857D02*
X185777190Y-101306190D01*
X186253380Y-101544285D02*
X185253380Y-101544285D01*
X185253380Y-101163333D01*
X185301000Y-101068095D01*
X185348619Y-101020476D01*
X185443857Y-100972857D01*
X185586714Y-100972857D01*
X185681952Y-101020476D01*
X185729571Y-101068095D01*
X185777190Y-101163333D01*
X185777190Y-101544285D01*
X186253380Y-100020476D02*
X186253380Y-100591904D01*
X186253380Y-100306190D02*
X185253380Y-100306190D01*
X185396238Y-100401428D01*
X185491476Y-100496666D01*
X185539095Y-100591904D01*
X186253380Y-99544285D02*
X186253380Y-99353809D01*
X186205761Y-99258571D01*
X186158142Y-99210952D01*
X186015285Y-99115714D01*
X185824809Y-99068095D01*
X185443857Y-99068095D01*
X185348619Y-99115714D01*
X185301000Y-99163333D01*
X185253380Y-99258571D01*
X185253380Y-99449047D01*
X185301000Y-99544285D01*
X185348619Y-99591904D01*
X185443857Y-99639523D01*
X185681952Y-99639523D01*
X185777190Y-99591904D01*
X185824809Y-99544285D01*
X185872428Y-99449047D01*
X185872428Y-99258571D01*
X185824809Y-99163333D01*
X185777190Y-99115714D01*
X185681952Y-99068095D01*
%TO.C,D16*%
X159995714Y-79700380D02*
X159995714Y-78700380D01*
X160233809Y-78700380D01*
X160376666Y-78748000D01*
X160471904Y-78843238D01*
X160519523Y-78938476D01*
X160567142Y-79128952D01*
X160567142Y-79271809D01*
X160519523Y-79462285D01*
X160471904Y-79557523D01*
X160376666Y-79652761D01*
X160233809Y-79700380D01*
X159995714Y-79700380D01*
X161519523Y-79700380D02*
X160948095Y-79700380D01*
X161233809Y-79700380D02*
X161233809Y-78700380D01*
X161138571Y-78843238D01*
X161043333Y-78938476D01*
X160948095Y-78986095D01*
X162376666Y-78700380D02*
X162186190Y-78700380D01*
X162090952Y-78748000D01*
X162043333Y-78795619D01*
X161948095Y-78938476D01*
X161900476Y-79128952D01*
X161900476Y-79509904D01*
X161948095Y-79605142D01*
X161995714Y-79652761D01*
X162090952Y-79700380D01*
X162281428Y-79700380D01*
X162376666Y-79652761D01*
X162424285Y-79605142D01*
X162471904Y-79509904D01*
X162471904Y-79271809D01*
X162424285Y-79176571D01*
X162376666Y-79128952D01*
X162281428Y-79081333D01*
X162090952Y-79081333D01*
X161995714Y-79128952D01*
X161948095Y-79176571D01*
X161900476Y-79271809D01*
%TO.C,R40*%
X148994650Y-83624206D02*
X148661317Y-83148016D01*
X148423222Y-83624206D02*
X148423222Y-82624206D01*
X148804174Y-82624206D01*
X148899412Y-82671826D01*
X148947031Y-82719445D01*
X148994650Y-82814683D01*
X148994650Y-82957540D01*
X148947031Y-83052778D01*
X148899412Y-83100397D01*
X148804174Y-83148016D01*
X148423222Y-83148016D01*
X149851793Y-82957540D02*
X149851793Y-83624206D01*
X149613698Y-82576587D02*
X149375603Y-83290873D01*
X149994650Y-83290873D01*
X150566079Y-82624206D02*
X150661317Y-82624206D01*
X150756555Y-82671826D01*
X150804174Y-82719445D01*
X150851793Y-82814683D01*
X150899412Y-83005159D01*
X150899412Y-83243254D01*
X150851793Y-83433730D01*
X150804174Y-83528968D01*
X150756555Y-83576587D01*
X150661317Y-83624206D01*
X150566079Y-83624206D01*
X150470841Y-83576587D01*
X150423222Y-83528968D01*
X150375603Y-83433730D01*
X150327984Y-83243254D01*
X150327984Y-83005159D01*
X150375603Y-82814683D01*
X150423222Y-82719445D01*
X150470841Y-82671826D01*
X150566079Y-82624206D01*
%TO.C,U12*%
X137953904Y-74128380D02*
X137953904Y-74937904D01*
X138001523Y-75033142D01*
X138049142Y-75080761D01*
X138144380Y-75128380D01*
X138334857Y-75128380D01*
X138430095Y-75080761D01*
X138477714Y-75033142D01*
X138525333Y-74937904D01*
X138525333Y-74128380D01*
X139525333Y-75128380D02*
X138953904Y-75128380D01*
X139239619Y-75128380D02*
X139239619Y-74128380D01*
X139144380Y-74271238D01*
X139049142Y-74366476D01*
X138953904Y-74414095D01*
X139906285Y-74223619D02*
X139953904Y-74176000D01*
X140049142Y-74128380D01*
X140287238Y-74128380D01*
X140382476Y-74176000D01*
X140430095Y-74223619D01*
X140477714Y-74318857D01*
X140477714Y-74414095D01*
X140430095Y-74556952D01*
X139858666Y-75128380D01*
X140477714Y-75128380D01*
X139192000Y-75652380D02*
X139192000Y-75890476D01*
X138953904Y-75795238D02*
X139192000Y-75890476D01*
X139430095Y-75795238D01*
X139049142Y-76080952D02*
X139192000Y-75890476D01*
X139334857Y-76080952D01*
X139192000Y-75652380D02*
X139192000Y-75890476D01*
X138953904Y-75795238D02*
X139192000Y-75890476D01*
X139430095Y-75795238D01*
X139049142Y-76080952D02*
X139192000Y-75890476D01*
X139334857Y-76080952D01*
%TO.C,L2*%
X114498380Y-73826666D02*
X114498380Y-74302857D01*
X113498380Y-74302857D01*
X113593619Y-73540952D02*
X113546000Y-73493333D01*
X113498380Y-73398095D01*
X113498380Y-73160000D01*
X113546000Y-73064761D01*
X113593619Y-73017142D01*
X113688857Y-72969523D01*
X113784095Y-72969523D01*
X113926952Y-73017142D01*
X114498380Y-73588571D01*
X114498380Y-72969523D01*
%TO.C,R1*%
X137612380Y-112434666D02*
X137136190Y-112768000D01*
X137612380Y-113006095D02*
X136612380Y-113006095D01*
X136612380Y-112625142D01*
X136660000Y-112529904D01*
X136707619Y-112482285D01*
X136802857Y-112434666D01*
X136945714Y-112434666D01*
X137040952Y-112482285D01*
X137088571Y-112529904D01*
X137136190Y-112625142D01*
X137136190Y-113006095D01*
X137612380Y-111482285D02*
X137612380Y-112053714D01*
X137612380Y-111768000D02*
X136612380Y-111768000D01*
X136755238Y-111863238D01*
X136850476Y-111958476D01*
X136898095Y-112053714D01*
%TO.C,R10*%
X120515142Y-118562380D02*
X120181809Y-118086190D01*
X119943714Y-118562380D02*
X119943714Y-117562380D01*
X120324666Y-117562380D01*
X120419904Y-117610000D01*
X120467523Y-117657619D01*
X120515142Y-117752857D01*
X120515142Y-117895714D01*
X120467523Y-117990952D01*
X120419904Y-118038571D01*
X120324666Y-118086190D01*
X119943714Y-118086190D01*
X121467523Y-118562380D02*
X120896095Y-118562380D01*
X121181809Y-118562380D02*
X121181809Y-117562380D01*
X121086571Y-117705238D01*
X120991333Y-117800476D01*
X120896095Y-117848095D01*
X122086571Y-117562380D02*
X122181809Y-117562380D01*
X122277047Y-117610000D01*
X122324666Y-117657619D01*
X122372285Y-117752857D01*
X122419904Y-117943333D01*
X122419904Y-118181428D01*
X122372285Y-118371904D01*
X122324666Y-118467142D01*
X122277047Y-118514761D01*
X122181809Y-118562380D01*
X122086571Y-118562380D01*
X121991333Y-118514761D01*
X121943714Y-118467142D01*
X121896095Y-118371904D01*
X121848476Y-118181428D01*
X121848476Y-117943333D01*
X121896095Y-117752857D01*
X121943714Y-117657619D01*
X121991333Y-117610000D01*
X122086571Y-117562380D01*
%TO.C,R44*%
X163012380Y-91590857D02*
X162536190Y-91924190D01*
X163012380Y-92162285D02*
X162012380Y-92162285D01*
X162012380Y-91781333D01*
X162060000Y-91686095D01*
X162107619Y-91638476D01*
X162202857Y-91590857D01*
X162345714Y-91590857D01*
X162440952Y-91638476D01*
X162488571Y-91686095D01*
X162536190Y-91781333D01*
X162536190Y-92162285D01*
X162345714Y-90733714D02*
X163012380Y-90733714D01*
X161964761Y-90971809D02*
X162679047Y-91209904D01*
X162679047Y-90590857D01*
X162345714Y-89781333D02*
X163012380Y-89781333D01*
X161964761Y-90019428D02*
X162679047Y-90257523D01*
X162679047Y-89638476D01*
%TO.C,U17*%
X166494380Y-121126095D02*
X167303904Y-121126095D01*
X167399142Y-121078476D01*
X167446761Y-121030857D01*
X167494380Y-120935619D01*
X167494380Y-120745142D01*
X167446761Y-120649904D01*
X167399142Y-120602285D01*
X167303904Y-120554666D01*
X166494380Y-120554666D01*
X167494380Y-119554666D02*
X167494380Y-120126095D01*
X167494380Y-119840380D02*
X166494380Y-119840380D01*
X166637238Y-119935619D01*
X166732476Y-120030857D01*
X166780095Y-120126095D01*
X166494380Y-119221333D02*
X166494380Y-118554666D01*
X167494380Y-118983238D01*
%TO.C,R30*%
X151963380Y-76207857D02*
X151487190Y-76541190D01*
X151963380Y-76779285D02*
X150963380Y-76779285D01*
X150963380Y-76398333D01*
X151011000Y-76303095D01*
X151058619Y-76255476D01*
X151153857Y-76207857D01*
X151296714Y-76207857D01*
X151391952Y-76255476D01*
X151439571Y-76303095D01*
X151487190Y-76398333D01*
X151487190Y-76779285D01*
X150963380Y-75874523D02*
X150963380Y-75255476D01*
X151344333Y-75588809D01*
X151344333Y-75445952D01*
X151391952Y-75350714D01*
X151439571Y-75303095D01*
X151534809Y-75255476D01*
X151772904Y-75255476D01*
X151868142Y-75303095D01*
X151915761Y-75350714D01*
X151963380Y-75445952D01*
X151963380Y-75731666D01*
X151915761Y-75826904D01*
X151868142Y-75874523D01*
X150963380Y-74636428D02*
X150963380Y-74541190D01*
X151011000Y-74445952D01*
X151058619Y-74398333D01*
X151153857Y-74350714D01*
X151344333Y-74303095D01*
X151582428Y-74303095D01*
X151772904Y-74350714D01*
X151868142Y-74398333D01*
X151915761Y-74445952D01*
X151963380Y-74541190D01*
X151963380Y-74636428D01*
X151915761Y-74731666D01*
X151868142Y-74779285D01*
X151772904Y-74826904D01*
X151582428Y-74874523D01*
X151344333Y-74874523D01*
X151153857Y-74826904D01*
X151058619Y-74779285D01*
X151011000Y-74731666D01*
X150963380Y-74636428D01*
%TO.C,C16*%
X145509142Y-77625142D02*
X145461523Y-77672761D01*
X145318666Y-77720380D01*
X145223428Y-77720380D01*
X145080571Y-77672761D01*
X144985333Y-77577523D01*
X144937714Y-77482285D01*
X144890095Y-77291809D01*
X144890095Y-77148952D01*
X144937714Y-76958476D01*
X144985333Y-76863238D01*
X145080571Y-76768000D01*
X145223428Y-76720380D01*
X145318666Y-76720380D01*
X145461523Y-76768000D01*
X145509142Y-76815619D01*
X146461523Y-77720380D02*
X145890095Y-77720380D01*
X146175809Y-77720380D02*
X146175809Y-76720380D01*
X146080571Y-76863238D01*
X145985333Y-76958476D01*
X145890095Y-77006095D01*
X147318666Y-76720380D02*
X147128190Y-76720380D01*
X147032952Y-76768000D01*
X146985333Y-76815619D01*
X146890095Y-76958476D01*
X146842476Y-77148952D01*
X146842476Y-77529904D01*
X146890095Y-77625142D01*
X146937714Y-77672761D01*
X147032952Y-77720380D01*
X147223428Y-77720380D01*
X147318666Y-77672761D01*
X147366285Y-77625142D01*
X147413904Y-77529904D01*
X147413904Y-77291809D01*
X147366285Y-77196571D01*
X147318666Y-77148952D01*
X147223428Y-77101333D01*
X147032952Y-77101333D01*
X146937714Y-77148952D01*
X146890095Y-77196571D01*
X146842476Y-77291809D01*
%TO.C,X2*%
X139398476Y-122532380D02*
X140065142Y-123532380D01*
X140065142Y-122532380D02*
X139398476Y-123532380D01*
X140398476Y-122627619D02*
X140446095Y-122580000D01*
X140541333Y-122532380D01*
X140779428Y-122532380D01*
X140874666Y-122580000D01*
X140922285Y-122627619D01*
X140969904Y-122722857D01*
X140969904Y-122818095D01*
X140922285Y-122960952D01*
X140350857Y-123532380D01*
X140969904Y-123532380D01*
%TO.C,U8*%
X181610095Y-102576380D02*
X181610095Y-103385904D01*
X181657714Y-103481142D01*
X181705333Y-103528761D01*
X181800571Y-103576380D01*
X181991047Y-103576380D01*
X182086285Y-103528761D01*
X182133904Y-103481142D01*
X182181523Y-103385904D01*
X182181523Y-102576380D01*
X182800571Y-103004952D02*
X182705333Y-102957333D01*
X182657714Y-102909714D01*
X182610095Y-102814476D01*
X182610095Y-102766857D01*
X182657714Y-102671619D01*
X182705333Y-102624000D01*
X182800571Y-102576380D01*
X182991047Y-102576380D01*
X183086285Y-102624000D01*
X183133904Y-102671619D01*
X183181523Y-102766857D01*
X183181523Y-102814476D01*
X183133904Y-102909714D01*
X183086285Y-102957333D01*
X182991047Y-103004952D01*
X182800571Y-103004952D01*
X182705333Y-103052571D01*
X182657714Y-103100190D01*
X182610095Y-103195428D01*
X182610095Y-103385904D01*
X182657714Y-103481142D01*
X182705333Y-103528761D01*
X182800571Y-103576380D01*
X182991047Y-103576380D01*
X183086285Y-103528761D01*
X183133904Y-103481142D01*
X183181523Y-103385904D01*
X183181523Y-103195428D01*
X183133904Y-103100190D01*
X183086285Y-103052571D01*
X182991047Y-103004952D01*
%TO.C,RN3*%
X161401528Y-103752282D02*
X161068195Y-103276092D01*
X160830100Y-103752282D02*
X160830100Y-102752282D01*
X161211052Y-102752282D01*
X161306290Y-102799902D01*
X161353909Y-102847521D01*
X161401528Y-102942759D01*
X161401528Y-103085616D01*
X161353909Y-103180854D01*
X161306290Y-103228473D01*
X161211052Y-103276092D01*
X160830100Y-103276092D01*
X161830100Y-103752282D02*
X161830100Y-102752282D01*
X162401528Y-103752282D01*
X162401528Y-102752282D01*
X162782481Y-102752282D02*
X163401528Y-102752282D01*
X163068195Y-103133235D01*
X163211052Y-103133235D01*
X163306290Y-103180854D01*
X163353909Y-103228473D01*
X163401528Y-103323711D01*
X163401528Y-103561806D01*
X163353909Y-103657044D01*
X163306290Y-103704663D01*
X163211052Y-103752282D01*
X162925338Y-103752282D01*
X162830100Y-103704663D01*
X162782481Y-103657044D01*
X163628705Y-101476531D02*
X163628705Y-101714627D01*
X163390609Y-101619389D02*
X163628705Y-101714627D01*
X163866800Y-101619389D01*
X163485847Y-101905103D02*
X163628705Y-101714627D01*
X163771562Y-101905103D01*
X163628705Y-101476531D02*
X163628705Y-101714627D01*
X163390609Y-101619389D02*
X163628705Y-101714627D01*
X163866800Y-101619389D01*
X163485847Y-101905103D02*
X163628705Y-101714627D01*
X163771562Y-101905103D01*
%TO.C,U18*%
X171989904Y-109794380D02*
X171989904Y-110603904D01*
X172037523Y-110699142D01*
X172085142Y-110746761D01*
X172180380Y-110794380D01*
X172370857Y-110794380D01*
X172466095Y-110746761D01*
X172513714Y-110699142D01*
X172561333Y-110603904D01*
X172561333Y-109794380D01*
X173561333Y-110794380D02*
X172989904Y-110794380D01*
X173275619Y-110794380D02*
X173275619Y-109794380D01*
X173180380Y-109937238D01*
X173085142Y-110032476D01*
X172989904Y-110080095D01*
X174132761Y-110222952D02*
X174037523Y-110175333D01*
X173989904Y-110127714D01*
X173942285Y-110032476D01*
X173942285Y-109984857D01*
X173989904Y-109889619D01*
X174037523Y-109842000D01*
X174132761Y-109794380D01*
X174323238Y-109794380D01*
X174418476Y-109842000D01*
X174466095Y-109889619D01*
X174513714Y-109984857D01*
X174513714Y-110032476D01*
X174466095Y-110127714D01*
X174418476Y-110175333D01*
X174323238Y-110222952D01*
X174132761Y-110222952D01*
X174037523Y-110270571D01*
X173989904Y-110318190D01*
X173942285Y-110413428D01*
X173942285Y-110603904D01*
X173989904Y-110699142D01*
X174037523Y-110746761D01*
X174132761Y-110794380D01*
X174323238Y-110794380D01*
X174418476Y-110746761D01*
X174466095Y-110699142D01*
X174513714Y-110603904D01*
X174513714Y-110413428D01*
X174466095Y-110318190D01*
X174418476Y-110270571D01*
X174323238Y-110222952D01*
%TO.C,R12*%
X203065142Y-113355380D02*
X202731809Y-112879190D01*
X202493714Y-113355380D02*
X202493714Y-112355380D01*
X202874666Y-112355380D01*
X202969904Y-112403000D01*
X203017523Y-112450619D01*
X203065142Y-112545857D01*
X203065142Y-112688714D01*
X203017523Y-112783952D01*
X202969904Y-112831571D01*
X202874666Y-112879190D01*
X202493714Y-112879190D01*
X204017523Y-113355380D02*
X203446095Y-113355380D01*
X203731809Y-113355380D02*
X203731809Y-112355380D01*
X203636571Y-112498238D01*
X203541333Y-112593476D01*
X203446095Y-112641095D01*
X204398476Y-112450619D02*
X204446095Y-112403000D01*
X204541333Y-112355380D01*
X204779428Y-112355380D01*
X204874666Y-112403000D01*
X204922285Y-112450619D01*
X204969904Y-112545857D01*
X204969904Y-112641095D01*
X204922285Y-112783952D01*
X204350857Y-113355380D01*
X204969904Y-113355380D01*
%TO.C,SW2*%
X180744761Y-78549333D02*
X180792380Y-78406476D01*
X180792380Y-78168380D01*
X180744761Y-78073142D01*
X180697142Y-78025523D01*
X180601904Y-77977904D01*
X180506666Y-77977904D01*
X180411428Y-78025523D01*
X180363809Y-78073142D01*
X180316190Y-78168380D01*
X180268571Y-78358857D01*
X180220952Y-78454095D01*
X180173333Y-78501714D01*
X180078095Y-78549333D01*
X179982857Y-78549333D01*
X179887619Y-78501714D01*
X179840000Y-78454095D01*
X179792380Y-78358857D01*
X179792380Y-78120761D01*
X179840000Y-77977904D01*
X179792380Y-77644571D02*
X180792380Y-77406476D01*
X180078095Y-77216000D01*
X180792380Y-77025523D01*
X179792380Y-76787428D01*
X179887619Y-76454095D02*
X179840000Y-76406476D01*
X179792380Y-76311238D01*
X179792380Y-76073142D01*
X179840000Y-75977904D01*
X179887619Y-75930285D01*
X179982857Y-75882666D01*
X180078095Y-75882666D01*
X180220952Y-75930285D01*
X180792380Y-76501714D01*
X180792380Y-75882666D01*
%TO.C,C14*%
X109704142Y-78747857D02*
X109751761Y-78795476D01*
X109799380Y-78938333D01*
X109799380Y-79033571D01*
X109751761Y-79176428D01*
X109656523Y-79271666D01*
X109561285Y-79319285D01*
X109370809Y-79366904D01*
X109227952Y-79366904D01*
X109037476Y-79319285D01*
X108942238Y-79271666D01*
X108847000Y-79176428D01*
X108799380Y-79033571D01*
X108799380Y-78938333D01*
X108847000Y-78795476D01*
X108894619Y-78747857D01*
X109799380Y-77795476D02*
X109799380Y-78366904D01*
X109799380Y-78081190D02*
X108799380Y-78081190D01*
X108942238Y-78176428D01*
X109037476Y-78271666D01*
X109085095Y-78366904D01*
X109132714Y-76938333D02*
X109799380Y-76938333D01*
X108751761Y-77176428D02*
X109466047Y-77414523D01*
X109466047Y-76795476D01*
%TO.C,R31*%
X177157142Y-72970380D02*
X176823809Y-72494190D01*
X176585714Y-72970380D02*
X176585714Y-71970380D01*
X176966666Y-71970380D01*
X177061904Y-72018000D01*
X177109523Y-72065619D01*
X177157142Y-72160857D01*
X177157142Y-72303714D01*
X177109523Y-72398952D01*
X177061904Y-72446571D01*
X176966666Y-72494190D01*
X176585714Y-72494190D01*
X177490476Y-71970380D02*
X178109523Y-71970380D01*
X177776190Y-72351333D01*
X177919047Y-72351333D01*
X178014285Y-72398952D01*
X178061904Y-72446571D01*
X178109523Y-72541809D01*
X178109523Y-72779904D01*
X178061904Y-72875142D01*
X178014285Y-72922761D01*
X177919047Y-72970380D01*
X177633333Y-72970380D01*
X177538095Y-72922761D01*
X177490476Y-72875142D01*
X179061904Y-72970380D02*
X178490476Y-72970380D01*
X178776190Y-72970380D02*
X178776190Y-71970380D01*
X178680952Y-72113238D01*
X178585714Y-72208476D01*
X178490476Y-72256095D01*
%TO.C,R49*%
X173680380Y-86494857D02*
X173204190Y-86828190D01*
X173680380Y-87066285D02*
X172680380Y-87066285D01*
X172680380Y-86685333D01*
X172728000Y-86590095D01*
X172775619Y-86542476D01*
X172870857Y-86494857D01*
X173013714Y-86494857D01*
X173108952Y-86542476D01*
X173156571Y-86590095D01*
X173204190Y-86685333D01*
X173204190Y-87066285D01*
X173013714Y-85637714D02*
X173680380Y-85637714D01*
X172632761Y-85875809D02*
X173347047Y-86113904D01*
X173347047Y-85494857D01*
X173680380Y-85066285D02*
X173680380Y-84875809D01*
X173632761Y-84780571D01*
X173585142Y-84732952D01*
X173442285Y-84637714D01*
X173251809Y-84590095D01*
X172870857Y-84590095D01*
X172775619Y-84637714D01*
X172728000Y-84685333D01*
X172680380Y-84780571D01*
X172680380Y-84971047D01*
X172728000Y-85066285D01*
X172775619Y-85113904D01*
X172870857Y-85161523D01*
X173108952Y-85161523D01*
X173204190Y-85113904D01*
X173251809Y-85066285D01*
X173299428Y-84971047D01*
X173299428Y-84780571D01*
X173251809Y-84685333D01*
X173204190Y-84637714D01*
X173108952Y-84590095D01*
%TO.C,U11*%
X138969904Y-96480380D02*
X138969904Y-97289904D01*
X139017523Y-97385142D01*
X139065142Y-97432761D01*
X139160380Y-97480380D01*
X139350857Y-97480380D01*
X139446095Y-97432761D01*
X139493714Y-97385142D01*
X139541333Y-97289904D01*
X139541333Y-96480380D01*
X140541333Y-97480380D02*
X139969904Y-97480380D01*
X140255619Y-97480380D02*
X140255619Y-96480380D01*
X140160380Y-96623238D01*
X140065142Y-96718476D01*
X139969904Y-96766095D01*
X141493714Y-97480380D02*
X140922285Y-97480380D01*
X141208000Y-97480380D02*
X141208000Y-96480380D01*
X141112761Y-96623238D01*
X141017523Y-96718476D01*
X140922285Y-96766095D01*
%TO.C,Q2*%
X131984761Y-105703619D02*
X131889523Y-105656000D01*
X131794285Y-105560761D01*
X131651428Y-105417904D01*
X131556190Y-105370285D01*
X131460952Y-105370285D01*
X131508571Y-105608380D02*
X131413333Y-105560761D01*
X131318095Y-105465523D01*
X131270476Y-105275047D01*
X131270476Y-104941714D01*
X131318095Y-104751238D01*
X131413333Y-104656000D01*
X131508571Y-104608380D01*
X131699047Y-104608380D01*
X131794285Y-104656000D01*
X131889523Y-104751238D01*
X131937142Y-104941714D01*
X131937142Y-105275047D01*
X131889523Y-105465523D01*
X131794285Y-105560761D01*
X131699047Y-105608380D01*
X131508571Y-105608380D01*
X132318095Y-104703619D02*
X132365714Y-104656000D01*
X132460952Y-104608380D01*
X132699047Y-104608380D01*
X132794285Y-104656000D01*
X132841904Y-104703619D01*
X132889523Y-104798857D01*
X132889523Y-104894095D01*
X132841904Y-105036952D01*
X132270476Y-105608380D01*
X132889523Y-105608380D01*
%TO.C,Q9*%
X169851619Y-77819238D02*
X169804000Y-77914476D01*
X169708761Y-78009714D01*
X169565904Y-78152571D01*
X169518285Y-78247809D01*
X169518285Y-78343047D01*
X169756380Y-78295428D02*
X169708761Y-78390666D01*
X169613523Y-78485904D01*
X169423047Y-78533523D01*
X169089714Y-78533523D01*
X168899238Y-78485904D01*
X168804000Y-78390666D01*
X168756380Y-78295428D01*
X168756380Y-78104952D01*
X168804000Y-78009714D01*
X168899238Y-77914476D01*
X169089714Y-77866857D01*
X169423047Y-77866857D01*
X169613523Y-77914476D01*
X169708761Y-78009714D01*
X169756380Y-78104952D01*
X169756380Y-78295428D01*
X169756380Y-77390666D02*
X169756380Y-77200190D01*
X169708761Y-77104952D01*
X169661142Y-77057333D01*
X169518285Y-76962095D01*
X169327809Y-76914476D01*
X168946857Y-76914476D01*
X168851619Y-76962095D01*
X168804000Y-77009714D01*
X168756380Y-77104952D01*
X168756380Y-77295428D01*
X168804000Y-77390666D01*
X168851619Y-77438285D01*
X168946857Y-77485904D01*
X169184952Y-77485904D01*
X169280190Y-77438285D01*
X169327809Y-77390666D01*
X169375428Y-77295428D01*
X169375428Y-77104952D01*
X169327809Y-77009714D01*
X169280190Y-76962095D01*
X169184952Y-76914476D01*
%TO.C,U7*%
X126746095Y-111222380D02*
X126746095Y-112031904D01*
X126793714Y-112127142D01*
X126841333Y-112174761D01*
X126936571Y-112222380D01*
X127127047Y-112222380D01*
X127222285Y-112174761D01*
X127269904Y-112127142D01*
X127317523Y-112031904D01*
X127317523Y-111222380D01*
X127698476Y-111222380D02*
X128365142Y-111222380D01*
X127936571Y-112222380D01*
%TO.C,R32*%
X163314142Y-73096380D02*
X162980809Y-72620190D01*
X162742714Y-73096380D02*
X162742714Y-72096380D01*
X163123666Y-72096380D01*
X163218904Y-72144000D01*
X163266523Y-72191619D01*
X163314142Y-72286857D01*
X163314142Y-72429714D01*
X163266523Y-72524952D01*
X163218904Y-72572571D01*
X163123666Y-72620190D01*
X162742714Y-72620190D01*
X163647476Y-72096380D02*
X164266523Y-72096380D01*
X163933190Y-72477333D01*
X164076047Y-72477333D01*
X164171285Y-72524952D01*
X164218904Y-72572571D01*
X164266523Y-72667809D01*
X164266523Y-72905904D01*
X164218904Y-73001142D01*
X164171285Y-73048761D01*
X164076047Y-73096380D01*
X163790333Y-73096380D01*
X163695095Y-73048761D01*
X163647476Y-73001142D01*
X164647476Y-72191619D02*
X164695095Y-72144000D01*
X164790333Y-72096380D01*
X165028428Y-72096380D01*
X165123666Y-72144000D01*
X165171285Y-72191619D01*
X165218904Y-72286857D01*
X165218904Y-72382095D01*
X165171285Y-72524952D01*
X164599857Y-73096380D01*
X165218904Y-73096380D01*
%TO.C,Q12*%
X153352571Y-90323619D02*
X153257333Y-90276000D01*
X153162095Y-90180761D01*
X153019238Y-90037904D01*
X152924000Y-89990285D01*
X152828761Y-89990285D01*
X152876380Y-90228380D02*
X152781142Y-90180761D01*
X152685904Y-90085523D01*
X152638285Y-89895047D01*
X152638285Y-89561714D01*
X152685904Y-89371238D01*
X152781142Y-89276000D01*
X152876380Y-89228380D01*
X153066857Y-89228380D01*
X153162095Y-89276000D01*
X153257333Y-89371238D01*
X153304952Y-89561714D01*
X153304952Y-89895047D01*
X153257333Y-90085523D01*
X153162095Y-90180761D01*
X153066857Y-90228380D01*
X152876380Y-90228380D01*
X154257333Y-90228380D02*
X153685904Y-90228380D01*
X153971619Y-90228380D02*
X153971619Y-89228380D01*
X153876380Y-89371238D01*
X153781142Y-89466476D01*
X153685904Y-89514095D01*
X154638285Y-89323619D02*
X154685904Y-89276000D01*
X154781142Y-89228380D01*
X155019238Y-89228380D01*
X155114476Y-89276000D01*
X155162095Y-89323619D01*
X155209714Y-89418857D01*
X155209714Y-89514095D01*
X155162095Y-89656952D01*
X154590666Y-90228380D01*
X155209714Y-90228380D01*
%TO.C,R52*%
X164918380Y-114942857D02*
X164442190Y-115276190D01*
X164918380Y-115514285D02*
X163918380Y-115514285D01*
X163918380Y-115133333D01*
X163966000Y-115038095D01*
X164013619Y-114990476D01*
X164108857Y-114942857D01*
X164251714Y-114942857D01*
X164346952Y-114990476D01*
X164394571Y-115038095D01*
X164442190Y-115133333D01*
X164442190Y-115514285D01*
X163918380Y-114038095D02*
X163918380Y-114514285D01*
X164394571Y-114561904D01*
X164346952Y-114514285D01*
X164299333Y-114419047D01*
X164299333Y-114180952D01*
X164346952Y-114085714D01*
X164394571Y-114038095D01*
X164489809Y-113990476D01*
X164727904Y-113990476D01*
X164823142Y-114038095D01*
X164870761Y-114085714D01*
X164918380Y-114180952D01*
X164918380Y-114419047D01*
X164870761Y-114514285D01*
X164823142Y-114561904D01*
X164013619Y-113609523D02*
X163966000Y-113561904D01*
X163918380Y-113466666D01*
X163918380Y-113228571D01*
X163966000Y-113133333D01*
X164013619Y-113085714D01*
X164108857Y-113038095D01*
X164204095Y-113038095D01*
X164346952Y-113085714D01*
X164918380Y-113657142D01*
X164918380Y-113038095D01*
D13*
%TO.C,J6*%
X201346000Y-78506000D02*
X201346000Y-79014000D01*
D14*
X202235000Y-82570000D02*
X202870000Y-81935000D01*
D13*
X201346000Y-86126000D02*
X201854000Y-86126000D01*
X201346000Y-81046000D02*
X201346000Y-81554000D01*
D14*
X200965000Y-92730000D02*
X200330000Y-92095000D01*
X200330000Y-79395000D02*
X200965000Y-80030000D01*
X202870000Y-88285000D02*
X202235000Y-87650000D01*
D13*
X201346000Y-83586000D02*
X201346000Y-84094000D01*
D14*
X202870000Y-84475000D02*
X202870000Y-83205000D01*
X200330000Y-85745000D02*
X200330000Y-87015000D01*
X200330000Y-80665000D02*
X200330000Y-81935000D01*
X200965000Y-87650000D02*
X200330000Y-88285000D01*
X202235000Y-77490000D02*
X200965000Y-77490000D01*
X200330000Y-87015000D02*
X200965000Y-87650000D01*
X202870000Y-92095000D02*
X202235000Y-92730000D01*
D13*
X201346000Y-89174000D02*
X201854000Y-89174000D01*
X201346000Y-88666000D02*
X201346000Y-89174000D01*
D14*
X202870000Y-81935000D02*
X202870000Y-80665000D01*
X200330000Y-90825000D02*
X200330000Y-92095000D01*
X202235000Y-92730000D02*
X200965000Y-92730000D01*
X202870000Y-87015000D02*
X202870000Y-85745000D01*
X200965000Y-90190000D02*
X200330000Y-90825000D01*
D13*
X201854000Y-83586000D02*
X201854000Y-84094000D01*
D14*
X202870000Y-78125000D02*
X202235000Y-77490000D01*
D13*
X201346000Y-91714000D02*
X201854000Y-91714000D01*
D14*
X200965000Y-85110000D02*
X200330000Y-85745000D01*
X200330000Y-78125000D02*
X200330000Y-79395000D01*
D13*
X201854000Y-81046000D02*
X201854000Y-81554000D01*
X201346000Y-81554000D02*
X201854000Y-81554000D01*
X201346000Y-91206000D02*
X201346000Y-91714000D01*
D14*
X202870000Y-84475000D02*
X202235000Y-85110000D01*
X202870000Y-85745000D02*
X202235000Y-85110000D01*
X200330000Y-88285000D02*
X200330000Y-89555000D01*
X200330000Y-83205000D02*
X200330000Y-84475000D01*
X200965000Y-85110000D02*
X200330000Y-84475000D01*
X202870000Y-80665000D02*
X202235000Y-80030000D01*
D13*
X201346000Y-79014000D02*
X201854000Y-79014000D01*
D14*
X200965000Y-77490000D02*
X200330000Y-78125000D01*
D13*
X201346000Y-91206000D02*
X201854000Y-91206000D01*
D14*
X202870000Y-79395000D02*
X202870000Y-78125000D01*
D13*
X201346000Y-81046000D02*
X201854000Y-81046000D01*
X201346000Y-78506000D02*
X201854000Y-78506000D01*
D14*
X202235000Y-80030000D02*
X202870000Y-79395000D01*
D13*
X201346000Y-88666000D02*
X201854000Y-88666000D01*
X201346000Y-84094000D02*
X201854000Y-84094000D01*
D14*
X202235000Y-87650000D02*
X202870000Y-87015000D01*
X200330000Y-81935000D02*
X200965000Y-82570000D01*
X200965000Y-80030000D02*
X200330000Y-80665000D01*
X200965000Y-82570000D02*
X200330000Y-83205000D01*
X202235000Y-90190000D02*
X202870000Y-89555000D01*
X202870000Y-90825000D02*
X202235000Y-90190000D01*
X202870000Y-83205000D02*
X202235000Y-82570000D01*
D13*
X201854000Y-91206000D02*
X201854000Y-91714000D01*
D14*
X202870000Y-92095000D02*
X202870000Y-90825000D01*
X200330000Y-89555000D02*
X200965000Y-90190000D01*
D13*
X201854000Y-78506000D02*
X201854000Y-79014000D01*
D14*
X202870000Y-89555000D02*
X202870000Y-88285000D01*
D13*
X201854000Y-88666000D02*
X201854000Y-89174000D01*
X201346000Y-83586000D02*
X201854000Y-83586000D01*
%TO.C,J5*%
X198546000Y-78646000D02*
X199054000Y-78646000D01*
X199054000Y-83726000D02*
X199054000Y-84234000D01*
D14*
X200070000Y-84615000D02*
X200070000Y-83345000D01*
D13*
X199054000Y-73566000D02*
X199054000Y-74074000D01*
D14*
X197530000Y-84615000D02*
X198165000Y-85250000D01*
X200070000Y-87155000D02*
X200070000Y-85885000D01*
D13*
X199054000Y-86266000D02*
X199054000Y-86774000D01*
D14*
X200070000Y-78265000D02*
X199435000Y-77630000D01*
X200070000Y-85885000D02*
X199435000Y-85250000D01*
X199435000Y-85250000D02*
X200070000Y-84615000D01*
X198165000Y-77630000D02*
X197530000Y-78265000D01*
X198165000Y-75090000D02*
X197530000Y-75725000D01*
X197530000Y-76995000D02*
X198165000Y-77630000D01*
X199435000Y-82710000D02*
X200070000Y-82075000D01*
D13*
X198546000Y-79154000D02*
X199054000Y-79154000D01*
X198546000Y-83726000D02*
X199054000Y-83726000D01*
D14*
X199435000Y-75090000D02*
X200070000Y-74455000D01*
D13*
X198546000Y-73566000D02*
X199054000Y-73566000D01*
X198546000Y-76106000D02*
X199054000Y-76106000D01*
D14*
X200070000Y-74455000D02*
X200070000Y-73185000D01*
D13*
X198546000Y-86266000D02*
X199054000Y-86266000D01*
D14*
X198165000Y-72550000D02*
X197530000Y-73185000D01*
D13*
X198546000Y-74074000D02*
X199054000Y-74074000D01*
D14*
X200070000Y-75725000D02*
X199435000Y-75090000D01*
X198165000Y-80170000D02*
X197530000Y-79535000D01*
X197530000Y-78265000D02*
X197530000Y-79535000D01*
X197530000Y-83345000D02*
X197530000Y-84615000D01*
X200070000Y-80805000D02*
X199435000Y-80170000D01*
X200070000Y-79535000D02*
X199435000Y-80170000D01*
D13*
X198546000Y-86266000D02*
X198546000Y-86774000D01*
X198546000Y-76614000D02*
X199054000Y-76614000D01*
X199054000Y-76106000D02*
X199054000Y-76614000D01*
D14*
X197530000Y-73185000D02*
X197530000Y-74455000D01*
X198165000Y-80170000D02*
X197530000Y-80805000D01*
D13*
X198546000Y-86774000D02*
X199054000Y-86774000D01*
D14*
X200070000Y-73185000D02*
X199435000Y-72550000D01*
D13*
X199054000Y-78646000D02*
X199054000Y-79154000D01*
D14*
X198165000Y-85250000D02*
X197530000Y-85885000D01*
X200070000Y-82075000D02*
X200070000Y-80805000D01*
X199435000Y-87790000D02*
X198165000Y-87790000D01*
X197530000Y-85885000D02*
X197530000Y-87155000D01*
X200070000Y-76995000D02*
X200070000Y-75725000D01*
D13*
X198546000Y-83726000D02*
X198546000Y-84234000D01*
X198546000Y-84234000D02*
X199054000Y-84234000D01*
D14*
X200070000Y-87155000D02*
X199435000Y-87790000D01*
X197530000Y-82075000D02*
X198165000Y-82710000D01*
X199435000Y-72550000D02*
X198165000Y-72550000D01*
X198165000Y-82710000D02*
X197530000Y-83345000D01*
X197530000Y-75725000D02*
X197530000Y-76995000D01*
X197530000Y-80805000D02*
X197530000Y-82075000D01*
X200070000Y-79535000D02*
X200070000Y-78265000D01*
D13*
X198546000Y-78646000D02*
X198546000Y-79154000D01*
D14*
X200070000Y-83345000D02*
X199435000Y-82710000D01*
X197530000Y-74455000D02*
X198165000Y-75090000D01*
X198165000Y-87790000D02*
X197530000Y-87155000D01*
D13*
X198546000Y-76106000D02*
X198546000Y-76614000D01*
X198546000Y-81186000D02*
X199054000Y-81186000D01*
D14*
X199435000Y-77630000D02*
X200070000Y-76995000D01*
D13*
X198546000Y-73566000D02*
X198546000Y-74074000D01*
D15*
%TO.C,U16*%
X184400000Y-86010000D02*
X188000000Y-86010000D01*
X184400000Y-80790000D02*
X186600000Y-80790000D01*
X184400000Y-80790000D02*
X182200000Y-80790000D01*
X184400000Y-86010000D02*
X182200000Y-86010000D01*
%TO.C,R36*%
X195635000Y-89327064D02*
X195635000Y-88872936D01*
X194165000Y-89327064D02*
X194165000Y-88872936D01*
%TO.C,R35*%
X191965000Y-89327064D02*
X191965000Y-88872936D01*
X193435000Y-89327064D02*
X193435000Y-88872936D01*
%TO.C,D15*%
X193940000Y-83565000D02*
X193940000Y-86425000D01*
X195860000Y-86425000D02*
X195860000Y-83565000D01*
X195860000Y-83565000D02*
X193940000Y-83565000D01*
%TO.C,D14*%
X191740000Y-83565000D02*
X191740000Y-86425000D01*
X193660000Y-86425000D02*
X193660000Y-83565000D01*
X193660000Y-83565000D02*
X191740000Y-83565000D01*
%TO.C,R46*%
X165380936Y-82069000D02*
X165835064Y-82069000D01*
X165380936Y-83539000D02*
X165835064Y-83539000D01*
%TO.C,RN2*%
X178104478Y-95059461D02*
X176047078Y-95059461D01*
X178104478Y-101917461D02*
X176047078Y-101917461D01*
%TO.C,D11*%
X117004000Y-74660000D02*
X120904000Y-74660000D01*
X117004000Y-72660000D02*
X117004000Y-74660000D01*
X117004000Y-72660000D02*
X120904000Y-72660000D01*
%TO.C,R14*%
X138403000Y-86656936D02*
X138403000Y-87111064D01*
X136933000Y-86656936D02*
X136933000Y-87111064D01*
%TO.C,U3*%
X132082295Y-117894100D02*
X133093705Y-117894100D01*
X133093705Y-115785900D02*
X132082295Y-115785900D01*
X132283200Y-115785900D02*
G75*
G03*
X132892800Y-115785900I304800J0D01*
G01*
%TO.C,Q20*%
X159040000Y-121412000D02*
X159040000Y-122062000D01*
X159040000Y-121412000D02*
X159040000Y-119737000D01*
X155920000Y-121412000D02*
X155920000Y-120762000D01*
X155920000Y-121412000D02*
X155920000Y-122062000D01*
%TO.C,R42*%
X161825000Y-85624936D02*
X161825000Y-86079064D01*
X163295000Y-85624936D02*
X163295000Y-86079064D01*
%TO.C,R60*%
X157760936Y-105945000D02*
X158215064Y-105945000D01*
X157760936Y-107415000D02*
X158215064Y-107415000D01*
%TO.C,C2*%
X122582000Y-114017248D02*
X122582000Y-114539752D01*
X124052000Y-114017248D02*
X124052000Y-114539752D01*
%TO.C,C19*%
X150087000Y-78493252D02*
X150087000Y-77970748D01*
X148617000Y-78493252D02*
X148617000Y-77970748D01*
%TO.C,R20*%
X192251000Y-75464936D02*
X192251000Y-75919064D01*
X190781000Y-75464936D02*
X190781000Y-75919064D01*
%TO.C,R54*%
X179605000Y-115035064D02*
X179605000Y-114580936D01*
X181075000Y-115035064D02*
X181075000Y-114580936D01*
%TO.C,C7*%
X136405252Y-100865000D02*
X135882748Y-100865000D01*
X136405252Y-102335000D02*
X135882748Y-102335000D01*
%TO.C,U6*%
X127419100Y-124028200D02*
X131660900Y-124028200D01*
X131660900Y-118795800D02*
X127419100Y-118795800D01*
%TO.C,J2*%
X207854199Y-119394201D02*
X206867539Y-119394201D01*
X207854199Y-121193560D02*
X207854199Y-119394201D01*
X202859640Y-123255001D02*
X206600358Y-123255001D01*
X202592459Y-119394201D02*
X201605799Y-119394201D01*
X201605799Y-119394201D02*
X201605799Y-121193560D01*
%TO.C,G\u002A\u002A\u002A*%
G36*
X204763228Y-104797371D02*
G01*
X205054761Y-104797371D01*
X204977977Y-104876136D01*
X204881093Y-104993222D01*
X204808277Y-105122992D01*
X204776772Y-105202450D01*
X204757798Y-105279747D01*
X204745668Y-105377121D01*
X204740507Y-105485407D01*
X204742442Y-105595438D01*
X204751599Y-105698047D01*
X204768106Y-105784068D01*
X204768708Y-105786267D01*
X204828882Y-105949647D01*
X204914017Y-106096873D01*
X205022932Y-106226522D01*
X205154445Y-106337170D01*
X205295833Y-106421690D01*
X205434867Y-106478104D01*
X205592271Y-106519059D01*
X205759980Y-106543287D01*
X205929927Y-106549523D01*
X206057368Y-106541251D01*
X206177981Y-106524980D01*
X206278894Y-106504761D01*
X206370394Y-106477714D01*
X206462770Y-106440957D01*
X206533577Y-106407851D01*
X206675939Y-106323052D01*
X206801092Y-106217510D01*
X206905237Y-106094967D01*
X206980591Y-105967601D01*
X207043592Y-105804023D01*
X207079259Y-105631992D01*
X207088686Y-105476288D01*
X207075560Y-105311876D01*
X207036425Y-105161240D01*
X206971648Y-105025341D01*
X206881594Y-104905138D01*
X206863690Y-104886224D01*
X206776747Y-104797371D01*
X207898846Y-104797371D01*
X207896324Y-105161192D01*
X207895388Y-105266358D01*
X207894126Y-105364714D01*
X207892633Y-105451235D01*
X207891004Y-105520897D01*
X207889333Y-105568673D01*
X207888325Y-105585026D01*
X207852341Y-105821037D01*
X207789176Y-106049164D01*
X207700521Y-106267133D01*
X207588069Y-106472669D01*
X207453511Y-106663499D01*
X207298538Y-106837348D01*
X207124844Y-106991941D01*
X206934120Y-107125006D01*
X206728057Y-107234268D01*
X206631096Y-107274940D01*
X206404446Y-107348514D01*
X206174736Y-107395959D01*
X205946464Y-107416603D01*
X205724879Y-107409849D01*
X205475794Y-107372439D01*
X205241099Y-107308740D01*
X205020282Y-107218505D01*
X204812829Y-107101490D01*
X204618229Y-106957447D01*
X204445680Y-106796268D01*
X204288602Y-106613682D01*
X204157568Y-106418181D01*
X204051330Y-106207500D01*
X203968641Y-105979377D01*
X203941614Y-105881693D01*
X203900558Y-105720052D01*
X203900558Y-102229888D01*
X204762699Y-102229888D01*
X204886738Y-102267285D01*
X204927623Y-102279410D01*
X204993643Y-102298740D01*
X205081093Y-102324200D01*
X205186265Y-102354715D01*
X205305456Y-102389211D01*
X205434958Y-102426615D01*
X205571065Y-102465850D01*
X205648403Y-102488111D01*
X205781414Y-102526517D01*
X205905525Y-102562627D01*
X206017762Y-102595555D01*
X206115151Y-102624417D01*
X206194717Y-102648327D01*
X206253487Y-102666400D01*
X206288487Y-102677751D01*
X206297274Y-102681242D01*
X206285502Y-102687191D01*
X206247526Y-102700699D01*
X206185954Y-102720952D01*
X206103396Y-102747137D01*
X206002461Y-102778439D01*
X205885758Y-102814046D01*
X205755898Y-102853143D01*
X205615488Y-102894917D01*
X205552038Y-102913641D01*
X205406828Y-102956487D01*
X205270157Y-102997005D01*
X205144761Y-103034368D01*
X205033379Y-103067753D01*
X204938746Y-103096335D01*
X204863600Y-103119290D01*
X204810678Y-103135793D01*
X204782716Y-103145019D01*
X204779129Y-103146491D01*
X204773513Y-103162502D01*
X204769459Y-103203397D01*
X204766927Y-103270354D01*
X204765882Y-103364550D01*
X204766284Y-103487162D01*
X204766716Y-103532966D01*
X204770730Y-103909288D01*
X207058164Y-103079532D01*
X207058680Y-102327382D01*
X206364794Y-102112321D01*
X206226313Y-102069273D01*
X206096572Y-102028693D01*
X205978394Y-101991482D01*
X205874598Y-101958540D01*
X205788005Y-101930767D01*
X205721436Y-101909063D01*
X205677711Y-101894327D01*
X205659653Y-101887459D01*
X205659428Y-101887301D01*
X205671018Y-101881085D01*
X205708642Y-101867049D01*
X205769618Y-101846069D01*
X205851261Y-101819022D01*
X205950887Y-101786783D01*
X206065813Y-101750230D01*
X206193355Y-101710237D01*
X206330830Y-101667681D01*
X206353296Y-101660776D01*
X207058645Y-101444211D01*
X207058662Y-101069045D01*
X207058680Y-100693880D01*
X205920650Y-100277639D01*
X205744044Y-100213088D01*
X205575593Y-100151600D01*
X205417418Y-100093946D01*
X205271642Y-100040895D01*
X205140387Y-99993217D01*
X205025776Y-99951682D01*
X204929930Y-99917059D01*
X204854971Y-99890117D01*
X204803022Y-99871627D01*
X204776205Y-99862358D01*
X204772924Y-99861399D01*
X204770238Y-99875723D01*
X204767838Y-99915978D01*
X204765831Y-99978092D01*
X204764327Y-100057990D01*
X204763433Y-100151598D01*
X204763228Y-100226130D01*
X204763228Y-100590861D01*
X205494622Y-100805786D01*
X205638484Y-100848147D01*
X205774685Y-100888417D01*
X205900299Y-100925721D01*
X206012401Y-100959181D01*
X206108064Y-100987921D01*
X206184364Y-101011065D01*
X206238375Y-101027736D01*
X206267172Y-101037058D01*
X206269880Y-101038054D01*
X206277381Y-101041380D01*
X206281692Y-101044964D01*
X206281126Y-101049341D01*
X206273995Y-101055044D01*
X206258612Y-101062608D01*
X206233291Y-101072565D01*
X206196342Y-101085450D01*
X206146080Y-101101797D01*
X206080817Y-101122139D01*
X205998866Y-101147010D01*
X205898538Y-101176944D01*
X205778148Y-101212475D01*
X205636008Y-101254137D01*
X205470430Y-101302463D01*
X205279727Y-101357987D01*
X205062211Y-101421243D01*
X205018279Y-101434015D01*
X204770730Y-101505983D01*
X204766715Y-101867936D01*
X204762699Y-102229888D01*
X203900558Y-102229888D01*
X203900558Y-101249172D01*
X203900563Y-100814910D01*
X203900581Y-100409624D01*
X203900618Y-100032284D01*
X203900668Y-99756378D01*
X204763228Y-99756378D01*
X207058680Y-99756378D01*
X207058680Y-99006231D01*
X204763228Y-99006231D01*
X204763228Y-99756378D01*
X203900668Y-99756378D01*
X203900682Y-99681860D01*
X203900777Y-99357322D01*
X203900911Y-99057641D01*
X203901090Y-98781785D01*
X203901320Y-98528725D01*
X203901607Y-98297432D01*
X203901926Y-98106053D01*
X204763228Y-98106053D01*
X204763228Y-98856201D01*
X207058680Y-98856201D01*
X207058680Y-98106053D01*
X204763228Y-98106053D01*
X203901926Y-98106053D01*
X203901958Y-98086875D01*
X203902379Y-97896024D01*
X203902876Y-97723850D01*
X203903456Y-97569322D01*
X203904125Y-97431410D01*
X203904889Y-97309085D01*
X203905755Y-97201316D01*
X203906728Y-97107074D01*
X203907816Y-97025329D01*
X203909024Y-96955050D01*
X203910359Y-96895207D01*
X203911827Y-96844771D01*
X203913434Y-96802712D01*
X203915187Y-96768000D01*
X203917092Y-96739605D01*
X203919155Y-96716496D01*
X203921383Y-96697644D01*
X203923781Y-96682019D01*
X203926357Y-96668591D01*
X203928659Y-96658268D01*
X203937457Y-96628263D01*
X204740724Y-96628263D01*
X204743134Y-96815799D01*
X204750740Y-96965129D01*
X204770945Y-97096286D01*
X204806065Y-97219289D01*
X204858417Y-97344154D01*
X204871496Y-97370909D01*
X204945154Y-97491484D01*
X205040846Y-97607114D01*
X205151248Y-97710372D01*
X205269040Y-97793826D01*
X205311685Y-97817510D01*
X205409946Y-97864714D01*
X205499523Y-97899532D01*
X205588184Y-97923640D01*
X205683694Y-97938716D01*
X205793817Y-97946435D01*
X205918456Y-97948481D01*
X206038624Y-97947027D01*
X206136404Y-97941665D01*
X206219322Y-97930828D01*
X206294904Y-97912950D01*
X206370678Y-97886463D01*
X206454168Y-97849802D01*
X206501117Y-97827186D01*
X206647284Y-97739063D01*
X206774264Y-97628169D01*
X206880602Y-97495942D01*
X206941288Y-97392804D01*
X207004633Y-97254806D01*
X207047910Y-97123355D01*
X207073380Y-96988558D01*
X207083301Y-96840522D01*
X207083357Y-96770791D01*
X207081185Y-96628263D01*
X206779225Y-96624207D01*
X206477264Y-96620152D01*
X206470923Y-96752779D01*
X206458169Y-96860010D01*
X206429614Y-96946304D01*
X206382655Y-97017673D01*
X206336694Y-97062598D01*
X206240453Y-97126295D01*
X206130025Y-97170513D01*
X206010835Y-97195418D01*
X205888307Y-97201174D01*
X205767864Y-97187947D01*
X205654932Y-97155902D01*
X205554933Y-97105203D01*
X205473563Y-97036316D01*
X205417564Y-96963427D01*
X205383063Y-96888686D01*
X205366503Y-96802389D01*
X205363676Y-96736730D01*
X205363346Y-96620152D01*
X205052035Y-96624207D01*
X204740724Y-96628263D01*
X203937457Y-96628263D01*
X204000139Y-96414480D01*
X204096299Y-96186544D01*
X204216246Y-95975626D01*
X204359089Y-95782893D01*
X204523936Y-95609507D01*
X204709895Y-95456636D01*
X204916073Y-95325444D01*
X204971795Y-95295590D01*
X205178507Y-95201830D01*
X205385665Y-95134988D01*
X205599332Y-95093605D01*
X205825571Y-95076224D01*
X205887771Y-95075457D01*
X206137120Y-95088920D01*
X206373713Y-95129488D01*
X206598217Y-95197428D01*
X206811296Y-95293007D01*
X207013616Y-95416492D01*
X207205841Y-95568150D01*
X207276088Y-95632944D01*
X207435644Y-95802515D01*
X207569893Y-95981541D01*
X207680848Y-96173643D01*
X207770522Y-96382442D01*
X207840929Y-96611560D01*
X207856992Y-96677787D01*
X207890456Y-96823301D01*
X207894949Y-100427760D01*
X207899442Y-104032220D01*
X204763228Y-104032220D01*
X204763228Y-104797371D01*
G37*
G36*
X207476807Y-95536641D02*
G01*
X207379802Y-95517576D01*
X207332716Y-95497572D01*
X207246436Y-95438141D01*
X207181691Y-95361746D01*
X207139606Y-95273271D01*
X207121781Y-95180102D01*
X207212049Y-95180102D01*
X207232213Y-95264558D01*
X207278135Y-95342431D01*
X207331363Y-95395117D01*
X207404086Y-95434899D01*
X207486595Y-95450844D01*
X207570726Y-95443161D01*
X207648315Y-95412055D01*
X207683979Y-95386157D01*
X207745465Y-95314523D01*
X207781931Y-95232356D01*
X207791985Y-95145066D01*
X207774238Y-95058065D01*
X207770604Y-95048925D01*
X207724417Y-94972344D01*
X207661234Y-94915141D01*
X207586542Y-94878637D01*
X207505826Y-94864154D01*
X207424571Y-94873012D01*
X207348263Y-94906534D01*
X207308606Y-94937634D01*
X207249995Y-95011601D01*
X207217893Y-95094103D01*
X207212049Y-95180102D01*
X207121781Y-95180102D01*
X207121302Y-95177598D01*
X207127903Y-95079614D01*
X207160531Y-94984201D01*
X207200114Y-94920694D01*
X207235563Y-94884669D01*
X207284859Y-94846838D01*
X207317416Y-94826679D01*
X207368214Y-94801722D01*
X207414477Y-94788500D01*
X207470288Y-94783697D01*
X207501267Y-94783397D01*
X207609073Y-94797174D01*
X207702806Y-94837291D01*
X207781067Y-94902888D01*
X207842142Y-94992499D01*
X207863298Y-95052120D01*
X207875866Y-95125264D01*
X207878797Y-95199550D01*
X207871046Y-95262597D01*
X207866283Y-95277997D01*
X207816994Y-95370392D01*
X207748643Y-95444412D01*
X207665987Y-95498100D01*
X207573789Y-95529495D01*
X207486595Y-95535920D01*
X207476807Y-95536641D01*
G37*
G36*
X207298811Y-95221736D02*
G01*
X207304121Y-95141678D01*
X207318773Y-95076227D01*
X207341120Y-95031079D01*
X207358409Y-95015622D01*
X207408500Y-95001336D01*
X207464032Y-95003497D01*
X207511427Y-95020844D01*
X207524368Y-95031045D01*
X207546814Y-95050904D01*
X207564873Y-95052323D01*
X207592344Y-95035777D01*
X207595632Y-95033505D01*
X207637934Y-95005046D01*
X207661321Y-94993939D01*
X207671394Y-95000241D01*
X207673758Y-95024008D01*
X207673801Y-95034285D01*
X207669354Y-95070531D01*
X207650512Y-95093688D01*
X207621291Y-95109943D01*
X207585325Y-95131894D01*
X207570663Y-95157860D01*
X207568781Y-95180235D01*
X207571684Y-95210634D01*
X207586462Y-95223102D01*
X207621291Y-95225486D01*
X207656802Y-95228289D01*
X207671339Y-95240899D01*
X207673801Y-95262994D01*
X207673801Y-95300501D01*
X207298727Y-95300501D01*
X207298807Y-95225486D01*
X207372017Y-95225486D01*
X207495491Y-95225486D01*
X207490878Y-95163252D01*
X207480324Y-95112503D01*
X207460009Y-95084563D01*
X207425570Y-95075891D01*
X207397987Y-95093955D01*
X207380494Y-95135702D01*
X207376630Y-95163252D01*
X207372017Y-95225486D01*
X207298807Y-95225486D01*
X207298811Y-95221736D01*
G37*
G36*
X205974358Y-104800915D02*
G01*
X206046172Y-104805835D01*
X206099624Y-104813704D01*
X206146358Y-104827507D01*
X206198017Y-104850225D01*
X206230830Y-104866623D01*
X206333009Y-104930959D01*
X206408996Y-105007783D01*
X206460825Y-105100162D01*
X206490526Y-105211163D01*
X206497267Y-105268666D01*
X206496818Y-105330649D01*
X206488470Y-105394513D01*
X206483929Y-105413552D01*
X206437626Y-105528240D01*
X206369605Y-105622457D01*
X206280514Y-105695735D01*
X206171000Y-105747607D01*
X206041710Y-105777606D01*
X205970398Y-105784229D01*
X205826073Y-105781936D01*
X205701107Y-105758252D01*
X205592935Y-105712271D01*
X205498988Y-105643087D01*
X205460771Y-105604256D01*
X205399615Y-105519322D01*
X205363016Y-105425381D01*
X205348723Y-105316195D01*
X205348343Y-105292468D01*
X205358203Y-105181029D01*
X205389556Y-105085705D01*
X205445064Y-104999252D01*
X205464383Y-104976663D01*
X205549642Y-104899398D01*
X205647498Y-104844781D01*
X205760950Y-104811780D01*
X205892999Y-104799361D01*
X205974358Y-104800915D01*
G37*
%TO.C,C27*%
X147601000Y-93210748D02*
X147601000Y-93733252D01*
X149071000Y-93210748D02*
X149071000Y-93733252D01*
%TO.C,J4*%
X194507000Y-122971000D02*
X194507000Y-120311000D01*
X186827000Y-120311000D02*
X194507000Y-120311000D01*
X186827000Y-122971000D02*
X194507000Y-122971000D01*
X184227000Y-120311000D02*
X185557000Y-120311000D01*
X184227000Y-121641000D02*
X184227000Y-120311000D01*
X186827000Y-122971000D02*
X186827000Y-120311000D01*
%TO.C,R2*%
X136371000Y-107923064D02*
X136371000Y-107468936D01*
X134901000Y-107923064D02*
X134901000Y-107468936D01*
%TO.C,C18*%
X131310748Y-81507000D02*
X131833252Y-81507000D01*
X131310748Y-80037000D02*
X131833252Y-80037000D01*
%TO.C,R47*%
X156220936Y-82577000D02*
X156675064Y-82577000D01*
X156220936Y-84047000D02*
X156675064Y-84047000D01*
%TO.C,R13*%
X205441062Y-117336001D02*
X204986934Y-117336001D01*
X205441062Y-115866001D02*
X204986934Y-115866001D01*
%TO.C,C29*%
X167204067Y-121969300D02*
X167204067Y-122491804D01*
X168674067Y-121969300D02*
X168674067Y-122491804D01*
%TO.C,C17*%
X110751252Y-74449000D02*
X110228748Y-74449000D01*
X110751252Y-75919000D02*
X110228748Y-75919000D01*
%TO.C,C6*%
X138422748Y-90705000D02*
X138945252Y-90705000D01*
X138422748Y-92175000D02*
X138945252Y-92175000D01*
%TO.C,R18*%
X191145936Y-104621000D02*
X191600064Y-104621000D01*
X191145936Y-103151000D02*
X191600064Y-103151000D01*
%TO.C,D6*%
X133956000Y-100202000D02*
X133956000Y-96902000D01*
X133956000Y-100202000D02*
X128556000Y-100202000D01*
X133956000Y-96902000D02*
X128556000Y-96902000D01*
%TO.C,R56*%
X177573000Y-116559064D02*
X177573000Y-116104936D01*
X179043000Y-116559064D02*
X179043000Y-116104936D01*
%TO.C,Q18*%
X156423488Y-114670297D02*
X155773488Y-114670297D01*
X156423488Y-117790297D02*
X158098488Y-117790297D01*
X156423488Y-117790297D02*
X155773488Y-117790297D01*
X156423488Y-114670297D02*
X157073488Y-114670297D01*
%TO.C,U9*%
X169867000Y-98552000D02*
X169867000Y-100752000D01*
X164397000Y-98552000D02*
X164397000Y-96352000D01*
X169867000Y-98552000D02*
X169867000Y-96352000D01*
X164397000Y-98552000D02*
X164397000Y-102152000D01*
%TO.C,Q6*%
X123952000Y-77252000D02*
X124602000Y-77252000D01*
X123952000Y-77252000D02*
X123302000Y-77252000D01*
X123952000Y-74132000D02*
X124602000Y-74132000D01*
X123952000Y-74132000D02*
X122277000Y-74132000D01*
%TO.C,D7*%
X134226715Y-95858337D02*
X136076715Y-95858337D01*
X136076715Y-95858337D02*
X136076715Y-94658337D01*
X134226715Y-94658337D02*
X136076715Y-94658337D01*
%TO.C,R24*%
X147547000Y-78459064D02*
X147547000Y-78004936D01*
X146077000Y-78459064D02*
X146077000Y-78004936D01*
%TO.C,D10*%
X119472000Y-82280000D02*
X119472000Y-80280000D01*
X119472000Y-80280000D02*
X115572000Y-80280000D01*
X119472000Y-82280000D02*
X115572000Y-82280000D01*
%TO.C,U13*%
X111089000Y-78206000D02*
X111089000Y-80006000D01*
X114209000Y-78206000D02*
X114209000Y-79006000D01*
X111089000Y-78206000D02*
X111089000Y-77406000D01*
X114209000Y-78206000D02*
X114209000Y-77406000D01*
%TO.C,R22*%
X117612936Y-78513000D02*
X118067064Y-78513000D01*
X117612936Y-79983000D02*
X118067064Y-79983000D01*
%TO.C,D8*%
X134187389Y-92998657D02*
X136037389Y-92998657D01*
X136037389Y-94198657D02*
X136037389Y-92998657D01*
X134187389Y-94198657D02*
X136037389Y-94198657D01*
%TO.C,D9*%
X125602000Y-78928000D02*
X125602000Y-84328000D01*
X125602000Y-78928000D02*
X122302000Y-78928000D01*
X122302000Y-78928000D02*
X122302000Y-84328000D01*
%TO.C,U2*%
X141207143Y-105911043D02*
X140195733Y-105911043D01*
X140195733Y-108019243D02*
X141207143Y-108019243D01*
X140396638Y-105911043D02*
G75*
G03*
X141006238Y-105911043I304800J0D01*
G01*
%TO.C,U20*%
X162024524Y-108064300D02*
X158015476Y-108064300D01*
X158015476Y-113423700D02*
X162024524Y-113423700D01*
G36*
X164185600Y-112559501D02*
G01*
X163931600Y-112559501D01*
X163931600Y-112178501D01*
X164185600Y-112178501D01*
X164185600Y-112559501D01*
G37*
D16*
X164185600Y-112559501D02*
X163931600Y-112559501D01*
X163931600Y-112178501D01*
X164185600Y-112178501D01*
X164185600Y-112559501D01*
D15*
%TO.C,R21*%
X121258000Y-80528936D02*
X121258000Y-80983064D01*
X119788000Y-80528936D02*
X119788000Y-80983064D01*
%TO.C,C28*%
X147039000Y-93210748D02*
X147039000Y-93733252D01*
X145569000Y-93210748D02*
X145569000Y-93733252D01*
%TO.C,Q5*%
X119458500Y-78268000D02*
X118808500Y-78268000D01*
X119458500Y-78268000D02*
X120108500Y-78268000D01*
X119458500Y-75148000D02*
X117783500Y-75148000D01*
X119458500Y-75148000D02*
X120108500Y-75148000D01*
%TO.C,Q8*%
X126014000Y-80251500D02*
X126014000Y-80901500D01*
X129134000Y-80251500D02*
X129134000Y-78576500D01*
X129134000Y-80251500D02*
X129134000Y-80901500D01*
X126014000Y-80251500D02*
X126014000Y-79601500D01*
%TO.C,Q15*%
X165064000Y-85852000D02*
X165064000Y-87527000D01*
X168184000Y-85852000D02*
X168184000Y-85202000D01*
X168184000Y-85852000D02*
X168184000Y-86502000D01*
X165064000Y-85852000D02*
X165064000Y-85202000D01*
%TO.C,Q1*%
X132588000Y-113320000D02*
X134263000Y-113320000D01*
X132588000Y-110200000D02*
X133238000Y-110200000D01*
X132588000Y-113320000D02*
X131938000Y-113320000D01*
X132588000Y-110200000D02*
X131938000Y-110200000D01*
%TO.C,C8*%
X137895000Y-80525252D02*
X137895000Y-80002748D01*
X136425000Y-80525252D02*
X136425000Y-80002748D01*
%TO.C,Q14*%
X157401500Y-89372000D02*
X156751500Y-89372000D01*
X157401500Y-92492000D02*
X159076500Y-92492000D01*
X157401500Y-92492000D02*
X156751500Y-92492000D01*
X157401500Y-89372000D02*
X158051500Y-89372000D01*
%TO.C,U14*%
X160528000Y-73066000D02*
X158328000Y-73066000D01*
X160528000Y-76286000D02*
X158328000Y-76286000D01*
X160528000Y-76286000D02*
X164128000Y-76286000D01*
X160528000Y-73066000D02*
X162728000Y-73066000D01*
%TO.C,R16*%
X135916936Y-96801000D02*
X136371064Y-96801000D01*
X135916936Y-98271000D02*
X136371064Y-98271000D01*
%TO.C,J3*%
X122154667Y-102580651D02*
X122587680Y-102330651D01*
X121693342Y-82780651D02*
X121693342Y-113750651D01*
X121693342Y-113750651D02*
X107803342Y-113750651D01*
X122587680Y-102830651D02*
X122154667Y-102580651D01*
X107803342Y-82780651D02*
X121693342Y-82780651D01*
X122587680Y-102330651D02*
X122587680Y-102830651D01*
%TO.C,C4*%
X121143752Y-122274000D02*
X120621248Y-122274000D01*
X121143752Y-120804000D02*
X120621248Y-120804000D01*
%TO.C,Q3*%
X129068000Y-114300000D02*
X129068000Y-114950000D01*
X125948000Y-114300000D02*
X125948000Y-115975000D01*
X125948000Y-114300000D02*
X125948000Y-113650000D01*
X129068000Y-114300000D02*
X129068000Y-113650000D01*
%TO.C,X1*%
X181016000Y-105748000D02*
X181016000Y-108628000D01*
X181016000Y-110888000D02*
X175536000Y-110888000D01*
X175536000Y-103488000D02*
X181016000Y-103488000D01*
X175536000Y-103548000D02*
X175536000Y-103488000D01*
X175536000Y-105748000D02*
X175076000Y-105748000D01*
X181016000Y-103488000D02*
X181016000Y-103548000D01*
X175536000Y-110888000D02*
X175536000Y-110828000D01*
X175076000Y-103548000D02*
X175536000Y-103548000D01*
X181016000Y-110828000D02*
X181016000Y-110888000D01*
X175536000Y-108628000D02*
X175536000Y-105748000D01*
%TO.C,C5*%
X139961252Y-101319000D02*
X139438748Y-101319000D01*
X139961252Y-99849000D02*
X139438748Y-99849000D01*
%TO.C,RN1*%
X181567000Y-116964000D02*
X181567000Y-119764000D01*
X184277000Y-116964000D02*
X184277000Y-119764000D01*
X194607000Y-116964000D02*
X181567000Y-116964000D01*
X181567000Y-119764000D02*
X194607000Y-119764000D01*
X194607000Y-119764000D02*
X194607000Y-116964000D01*
%TO.C,Q17*%
X169672000Y-83348000D02*
X169022000Y-83348000D01*
X169672000Y-80228000D02*
X170322000Y-80228000D01*
X169672000Y-83348000D02*
X171347000Y-83348000D01*
X169672000Y-80228000D02*
X169022000Y-80228000D01*
%TO.C,C15*%
X134866000Y-73432000D02*
X126631000Y-73432000D01*
X126631000Y-77952000D02*
X134866000Y-77952000D01*
X126631000Y-73432000D02*
X126631000Y-77952000D01*
%TO.C,R9*%
X120565936Y-114581000D02*
X121020064Y-114581000D01*
X120565936Y-116051000D02*
X121020064Y-116051000D01*
%TO.C,R15*%
X140472936Y-88619000D02*
X140927064Y-88619000D01*
X140472936Y-87149000D02*
X140927064Y-87149000D01*
%TO.C,Q10*%
X173700000Y-77724000D02*
X173700000Y-77074000D01*
X176820000Y-77724000D02*
X176820000Y-76049000D01*
X173700000Y-77724000D02*
X173700000Y-78374000D01*
X176820000Y-77724000D02*
X176820000Y-78374000D01*
%TO.C,U1*%
X141221705Y-110197900D02*
X140210295Y-110197900D01*
X140210295Y-112306100D02*
X141221705Y-112306100D01*
X140411200Y-110197900D02*
G75*
G03*
X141020800Y-110197900I304800J0D01*
G01*
%TO.C,R3*%
X127280936Y-116613000D02*
X127735064Y-116613000D01*
X127280936Y-118083000D02*
X127735064Y-118083000D01*
%TO.C,U10*%
X192998600Y-101307900D02*
X192998600Y-99352100D01*
X189747400Y-99352100D02*
X189747400Y-101307900D01*
X191736261Y-99352100D02*
X191009739Y-99352100D01*
%TO.C,F1*%
X122201000Y-87640936D02*
X122201000Y-88095064D01*
X123671000Y-87640936D02*
X123671000Y-88095064D01*
%TO.C,R57*%
X160906152Y-121341353D02*
X160906152Y-121795481D01*
X159436152Y-121341353D02*
X159436152Y-121795481D01*
%TO.C,SW1*%
X191405000Y-105752000D02*
X186905000Y-105752000D01*
X185655000Y-108252000D02*
X185655000Y-109752000D01*
X186905000Y-112252000D02*
X191405000Y-112252000D01*
X192655000Y-109752000D02*
X192655000Y-108252000D01*
%TO.C,R7*%
X136932936Y-114581000D02*
X137387064Y-114581000D01*
X136932936Y-116051000D02*
X137387064Y-116051000D01*
%TO.C,C25*%
X146057252Y-85571000D02*
X145534748Y-85571000D01*
X146057252Y-84101000D02*
X145534748Y-84101000D01*
%TO.C,Q11*%
X168620000Y-86789500D02*
X168620000Y-86139500D01*
X171740000Y-86789500D02*
X171740000Y-87439500D01*
X171740000Y-86789500D02*
X171740000Y-86139500D01*
X168620000Y-86789500D02*
X168620000Y-88464500D01*
%TO.C,R39*%
X150595000Y-88603064D02*
X150595000Y-88148936D01*
X149125000Y-88603064D02*
X149125000Y-88148936D01*
%TO.C,R29*%
X153680936Y-75919000D02*
X154135064Y-75919000D01*
X153680936Y-74449000D02*
X154135064Y-74449000D01*
%TO.C,C21*%
X135222000Y-83592000D02*
X126987000Y-83592000D01*
X126987000Y-83592000D02*
X126987000Y-88112000D01*
X126987000Y-88112000D02*
X135222000Y-88112000D01*
%TO.C,C20*%
X135222000Y-88164000D02*
X126987000Y-88164000D01*
X126987000Y-88164000D02*
X126987000Y-92684000D01*
X126987000Y-92684000D02*
X135222000Y-92684000D01*
%TO.C,D19*%
X161528000Y-87086000D02*
X161528000Y-83186000D01*
X159528000Y-87086000D02*
X159528000Y-83186000D01*
X159528000Y-87086000D02*
X161528000Y-87086000D01*
%TO.C,Q19*%
X152364000Y-119888000D02*
X152364000Y-120538000D01*
X155484000Y-119888000D02*
X155484000Y-120538000D01*
X155484000Y-119888000D02*
X155484000Y-118213000D01*
X152364000Y-119888000D02*
X152364000Y-119238000D01*
%TO.C,C12*%
X145007000Y-77970748D02*
X145007000Y-78493252D01*
X143537000Y-77970748D02*
X143537000Y-78493252D01*
%TO.C,R41*%
X153643000Y-84063064D02*
X153643000Y-83608936D01*
X152173000Y-84063064D02*
X152173000Y-83608936D01*
%TO.C,R51*%
X162295064Y-114073000D02*
X161840936Y-114073000D01*
X162295064Y-115543000D02*
X161840936Y-115543000D01*
%TO.C,U5*%
X117345705Y-118706900D02*
X116334295Y-118706900D01*
X116334295Y-120815100D02*
X117345705Y-120815100D01*
X116535200Y-118706900D02*
G75*
G03*
X117144800Y-118706900I304800J0D01*
G01*
%TO.C,R8*%
X123344000Y-122036064D02*
X123344000Y-121581936D01*
X124814000Y-122036064D02*
X124814000Y-121581936D01*
%TO.C,R17*%
X136371064Y-100303000D02*
X135916936Y-100303000D01*
X136371064Y-98833000D02*
X135916936Y-98833000D01*
%TO.C,L1*%
X140544733Y-80770000D02*
X140887267Y-80770000D01*
X140544733Y-81790000D02*
X140887267Y-81790000D01*
%TO.C,U4*%
X117091705Y-115150900D02*
X116080295Y-115150900D01*
X116080295Y-117259100D02*
X117091705Y-117259100D01*
X116281200Y-115150900D02*
G75*
G03*
X116890800Y-115150900I304800J0D01*
G01*
%TO.C,R37*%
X157707000Y-87148936D02*
X157707000Y-87603064D01*
X156237000Y-87148936D02*
X156237000Y-87603064D01*
%TO.C,Q21*%
X148808000Y-119888000D02*
X148808000Y-120538000D01*
X151928000Y-119888000D02*
X151928000Y-120538000D01*
X151928000Y-119888000D02*
X151928000Y-118213000D01*
X148808000Y-119888000D02*
X148808000Y-119238000D01*
%TO.C,J1*%
X208362199Y-76723801D02*
X208362199Y-74924442D01*
X202113799Y-76723801D02*
X203100459Y-76723801D01*
X207108358Y-72863001D02*
X203367640Y-72863001D01*
X207375539Y-76723801D02*
X208362199Y-76723801D01*
X202113799Y-74924442D02*
X202113799Y-76723801D01*
%TO.C,U15*%
X143944000Y-87840000D02*
X144174000Y-87840000D01*
X145254000Y-90560000D02*
X143944000Y-90560000D01*
X148664000Y-87840000D02*
X148434000Y-87840000D01*
X148664000Y-90560000D02*
X147354000Y-90560000D01*
X148434000Y-86700000D02*
X148434000Y-87840000D01*
X143944000Y-90560000D02*
X143944000Y-87840000D01*
X148664000Y-87840000D02*
X148664000Y-90560000D01*
%TO.C,U19*%
X149860000Y-114637000D02*
X152060000Y-114637000D01*
X149860000Y-107867000D02*
X152060000Y-107867000D01*
X149860000Y-107867000D02*
X146260000Y-107867000D01*
X149860000Y-114637000D02*
X147660000Y-114637000D01*
%TO.C,R34*%
X175487000Y-81560936D02*
X175487000Y-82015064D01*
X174017000Y-81560936D02*
X174017000Y-82015064D01*
%TO.C,R33*%
X172947064Y-73433000D02*
X172492936Y-73433000D01*
X172947064Y-74903000D02*
X172492936Y-74903000D01*
%TO.C,R19*%
X186574000Y-103113064D02*
X186574000Y-102658936D01*
X188044000Y-103113064D02*
X188044000Y-102658936D01*
%TO.C,D16*%
X163160000Y-80280000D02*
X159260000Y-80280000D01*
X163160000Y-82280000D02*
X163160000Y-80280000D01*
X163160000Y-82280000D02*
X159260000Y-82280000D01*
%TO.C,R40*%
X149410444Y-84086826D02*
X149864572Y-84086826D01*
X149410444Y-85556826D02*
X149864572Y-85556826D01*
%TO.C,U12*%
X141744700Y-76555600D02*
X139687300Y-76555600D01*
X141744700Y-78595220D02*
X141744700Y-77868780D01*
X139687300Y-79908400D02*
X141744700Y-79908400D01*
%TO.C,L2*%
X112205000Y-74815767D02*
X112205000Y-74473233D01*
X113225000Y-74815767D02*
X113225000Y-74473233D01*
%TO.C,REF\u002A\u002A*%
G36*
X187645135Y-88180673D02*
G01*
X187748868Y-88183410D01*
X187838241Y-88187669D01*
X187906826Y-88193445D01*
X187948197Y-88200733D01*
X187956810Y-88205105D01*
X187967133Y-88231236D01*
X187981892Y-88286607D01*
X187999352Y-88363893D01*
X188017780Y-88455770D01*
X188023741Y-88487842D01*
X188052066Y-88642476D01*
X188074876Y-88764625D01*
X188093080Y-88858327D01*
X188107583Y-88927616D01*
X188119292Y-88976529D01*
X188129115Y-89009103D01*
X188137956Y-89029372D01*
X188146724Y-89041374D01*
X188148457Y-89043053D01*
X188176371Y-89059816D01*
X188230695Y-89085386D01*
X188304777Y-89117212D01*
X188391965Y-89152740D01*
X188485608Y-89189417D01*
X188579052Y-89224689D01*
X188665647Y-89256004D01*
X188738740Y-89280807D01*
X188791678Y-89296546D01*
X188817811Y-89300668D01*
X188818726Y-89300324D01*
X188840086Y-89286359D01*
X188887084Y-89254678D01*
X188954827Y-89208609D01*
X189038423Y-89151482D01*
X189132982Y-89086627D01*
X189159854Y-89068157D01*
X189257275Y-89002301D01*
X189346163Y-88944350D01*
X189421412Y-88897462D01*
X189477920Y-88864793D01*
X189510581Y-88849500D01*
X189514593Y-88848759D01*
X189535684Y-88861608D01*
X189577464Y-88897112D01*
X189635445Y-88950707D01*
X189705135Y-89017829D01*
X189782045Y-89093913D01*
X189861683Y-89174396D01*
X189939561Y-89254713D01*
X190011186Y-89330301D01*
X190072070Y-89396595D01*
X190117721Y-89449031D01*
X190143650Y-89483045D01*
X190147883Y-89492455D01*
X190137912Y-89514357D01*
X190111020Y-89559200D01*
X190071736Y-89619679D01*
X190040117Y-89666211D01*
X189982098Y-89750525D01*
X189913784Y-89850374D01*
X189845579Y-89950527D01*
X189809075Y-90004373D01*
X189685800Y-90186629D01*
X189768520Y-90339619D01*
X189804759Y-90409318D01*
X189832926Y-90468586D01*
X189848991Y-90508689D01*
X189851226Y-90518897D01*
X189834722Y-90531171D01*
X189788082Y-90555387D01*
X189715609Y-90589737D01*
X189621606Y-90632412D01*
X189510374Y-90681606D01*
X189386215Y-90735510D01*
X189253432Y-90792316D01*
X189116327Y-90850218D01*
X188979202Y-90907407D01*
X188846358Y-90962076D01*
X188722098Y-91012416D01*
X188610725Y-91056620D01*
X188516539Y-91092881D01*
X188443844Y-91119391D01*
X188396941Y-91134342D01*
X188380833Y-91136746D01*
X188360286Y-91117689D01*
X188326933Y-91075964D01*
X188287702Y-91020294D01*
X188284599Y-91015622D01*
X188169423Y-90871736D01*
X188035053Y-90755717D01*
X187885784Y-90668570D01*
X187725913Y-90611301D01*
X187559737Y-90584914D01*
X187391552Y-90590415D01*
X187225655Y-90628810D01*
X187066342Y-90701105D01*
X187031487Y-90722374D01*
X186890737Y-90833004D01*
X186777714Y-90963698D01*
X186693003Y-91109936D01*
X186637194Y-91267192D01*
X186610874Y-91430943D01*
X186614630Y-91596667D01*
X186649050Y-91759838D01*
X186714723Y-91915935D01*
X186812235Y-92060433D01*
X186851813Y-92105131D01*
X186975703Y-92218888D01*
X187106124Y-92301782D01*
X187252315Y-92358644D01*
X187397088Y-92390313D01*
X187559860Y-92398131D01*
X187723440Y-92372062D01*
X187882298Y-92314755D01*
X188030906Y-92228856D01*
X188163735Y-92117014D01*
X188275256Y-91981877D01*
X188287011Y-91964117D01*
X188325508Y-91907850D01*
X188358863Y-91865077D01*
X188380160Y-91844628D01*
X188380833Y-91844331D01*
X188403871Y-91848721D01*
X188456157Y-91866124D01*
X188533390Y-91894732D01*
X188631268Y-91932735D01*
X188745491Y-91978326D01*
X188871758Y-92029697D01*
X189005767Y-92085038D01*
X189143218Y-92142542D01*
X189279808Y-92200399D01*
X189411237Y-92256802D01*
X189533205Y-92309942D01*
X189641409Y-92358010D01*
X189731549Y-92399199D01*
X189799323Y-92431699D01*
X189840430Y-92453703D01*
X189851226Y-92462564D01*
X189842819Y-92489640D01*
X189820272Y-92540303D01*
X189787613Y-92605817D01*
X189768520Y-92641841D01*
X189685800Y-92794832D01*
X189809075Y-92977088D01*
X189872228Y-93070125D01*
X189941727Y-93171985D01*
X190007165Y-93267438D01*
X190040117Y-93315250D01*
X190085273Y-93382495D01*
X190121057Y-93439436D01*
X190142938Y-93478646D01*
X190147563Y-93491381D01*
X190135085Y-93509917D01*
X190100252Y-93550941D01*
X190046678Y-93610475D01*
X189977983Y-93684542D01*
X189897781Y-93769165D01*
X189846286Y-93822685D01*
X189754286Y-93916319D01*
X189671999Y-93997241D01*
X189602945Y-94062177D01*
X189550644Y-94107858D01*
X189518616Y-94131011D01*
X189512116Y-94133232D01*
X189487394Y-94122924D01*
X189437405Y-94094439D01*
X189367212Y-94050937D01*
X189281875Y-93995577D01*
X189186456Y-93931520D01*
X189159854Y-93913303D01*
X189063167Y-93846927D01*
X188976117Y-93787378D01*
X188903595Y-93737984D01*
X188850493Y-93702075D01*
X188821703Y-93682981D01*
X188818726Y-93681136D01*
X188795782Y-93683895D01*
X188745336Y-93698538D01*
X188674041Y-93722513D01*
X188588547Y-93753266D01*
X188495507Y-93788244D01*
X188401574Y-93824893D01*
X188313399Y-93860661D01*
X188237634Y-93892994D01*
X188180931Y-93919338D01*
X188149943Y-93937142D01*
X188148457Y-93938407D01*
X188139601Y-93949294D01*
X188130843Y-93967682D01*
X188121277Y-93997606D01*
X188109996Y-94043103D01*
X188096093Y-94108209D01*
X188078663Y-94196961D01*
X188056798Y-94313393D01*
X188029591Y-94461542D01*
X188023741Y-94493618D01*
X188005374Y-94588686D01*
X187987405Y-94671565D01*
X187971569Y-94734930D01*
X187959600Y-94771458D01*
X187956810Y-94776356D01*
X187932072Y-94784427D01*
X187876790Y-94790987D01*
X187797389Y-94796033D01*
X187700296Y-94799559D01*
X187591938Y-94801561D01*
X187478740Y-94802036D01*
X187367128Y-94800977D01*
X187263529Y-94798382D01*
X187174368Y-94794246D01*
X187106072Y-94788563D01*
X187065066Y-94781331D01*
X187056674Y-94776971D01*
X187048208Y-94752698D01*
X187034435Y-94697426D01*
X187016550Y-94616662D01*
X186995748Y-94515912D01*
X186973223Y-94400683D01*
X186961418Y-94337902D01*
X186939151Y-94218787D01*
X186918979Y-94112565D01*
X186901915Y-94024427D01*
X186888969Y-93959566D01*
X186881155Y-93923174D01*
X186879422Y-93917184D01*
X186859890Y-93907061D01*
X186812843Y-93885662D01*
X186745003Y-93855839D01*
X186663091Y-93820445D01*
X186573828Y-93782332D01*
X186483935Y-93744353D01*
X186400135Y-93709360D01*
X186329147Y-93680206D01*
X186277694Y-93659743D01*
X186252497Y-93650823D01*
X186251396Y-93650657D01*
X186231519Y-93660769D01*
X186185777Y-93689117D01*
X186118717Y-93732723D01*
X186034884Y-93788606D01*
X185938826Y-93853787D01*
X185883650Y-93891679D01*
X185782481Y-93960725D01*
X185690630Y-94022050D01*
X185612744Y-94072663D01*
X185553469Y-94109571D01*
X185517451Y-94129782D01*
X185509377Y-94132701D01*
X185490584Y-94120153D01*
X185450457Y-94085463D01*
X185393493Y-94033063D01*
X185324185Y-93967384D01*
X185247031Y-93892856D01*
X185166525Y-93813913D01*
X185087163Y-93734983D01*
X185013440Y-93660500D01*
X184949852Y-93594894D01*
X184900894Y-93542596D01*
X184871061Y-93508039D01*
X184863942Y-93496478D01*
X184873953Y-93477654D01*
X184902078Y-93432631D01*
X184945454Y-93365787D01*
X185001218Y-93281499D01*
X185066506Y-93184144D01*
X185116246Y-93110707D01*
X185368551Y-92739667D01*
X185113555Y-92121095D01*
X184668931Y-92037275D01*
X184224307Y-91953454D01*
X184224307Y-91028006D01*
X184668931Y-90944186D01*
X185113555Y-90860365D01*
X185241053Y-90551080D01*
X185368551Y-90241794D01*
X185116246Y-89870754D01*
X185045996Y-89766843D01*
X184983272Y-89672913D01*
X184930938Y-89593348D01*
X184891857Y-89532530D01*
X184868893Y-89494843D01*
X184863942Y-89484579D01*
X184876676Y-89466090D01*
X184911882Y-89426580D01*
X184965062Y-89370478D01*
X185031718Y-89302213D01*
X185107354Y-89226214D01*
X185187472Y-89146908D01*
X185267574Y-89068725D01*
X185343164Y-88996093D01*
X185409745Y-88933441D01*
X185462818Y-88885197D01*
X185497887Y-88855790D01*
X185509623Y-88848759D01*
X185531260Y-88858877D01*
X185578662Y-88887241D01*
X185647193Y-88930871D01*
X185732215Y-88986782D01*
X185829093Y-89051994D01*
X185884350Y-89089781D01*
X185985248Y-89158657D01*
X186076299Y-89219860D01*
X186152970Y-89270422D01*
X186210728Y-89307372D01*
X186245043Y-89327742D01*
X186252254Y-89330803D01*
X186272748Y-89323864D01*
X186320513Y-89304949D01*
X186388832Y-89276913D01*
X186470989Y-89242609D01*
X186560270Y-89204891D01*
X186649958Y-89166613D01*
X186733338Y-89130630D01*
X186803694Y-89099794D01*
X186854310Y-89076961D01*
X186878471Y-89064983D01*
X186879422Y-89064276D01*
X186884036Y-89045469D01*
X186894328Y-88995382D01*
X186909287Y-88919207D01*
X186927901Y-88822135D01*
X186949159Y-88709357D01*
X186961418Y-88643558D01*
X186984362Y-88523050D01*
X187006195Y-88414203D01*
X187025722Y-88322524D01*
X187041748Y-88253519D01*
X187053079Y-88212696D01*
X187056674Y-88204489D01*
X187081006Y-88196452D01*
X187135959Y-88189967D01*
X187215108Y-88185030D01*
X187312026Y-88181636D01*
X187420287Y-88179782D01*
X187533465Y-88179462D01*
X187645135Y-88180673D01*
G37*
D17*
X187645135Y-88180673D02*
X187748868Y-88183410D01*
X187838241Y-88187669D01*
X187906826Y-88193445D01*
X187948197Y-88200733D01*
X187956810Y-88205105D01*
X187967133Y-88231236D01*
X187981892Y-88286607D01*
X187999352Y-88363893D01*
X188017780Y-88455770D01*
X188023741Y-88487842D01*
X188052066Y-88642476D01*
X188074876Y-88764625D01*
X188093080Y-88858327D01*
X188107583Y-88927616D01*
X188119292Y-88976529D01*
X188129115Y-89009103D01*
X188137956Y-89029372D01*
X188146724Y-89041374D01*
X188148457Y-89043053D01*
X188176371Y-89059816D01*
X188230695Y-89085386D01*
X188304777Y-89117212D01*
X188391965Y-89152740D01*
X188485608Y-89189417D01*
X188579052Y-89224689D01*
X188665647Y-89256004D01*
X188738740Y-89280807D01*
X188791678Y-89296546D01*
X188817811Y-89300668D01*
X188818726Y-89300324D01*
X188840086Y-89286359D01*
X188887084Y-89254678D01*
X188954827Y-89208609D01*
X189038423Y-89151482D01*
X189132982Y-89086627D01*
X189159854Y-89068157D01*
X189257275Y-89002301D01*
X189346163Y-88944350D01*
X189421412Y-88897462D01*
X189477920Y-88864793D01*
X189510581Y-88849500D01*
X189514593Y-88848759D01*
X189535684Y-88861608D01*
X189577464Y-88897112D01*
X189635445Y-88950707D01*
X189705135Y-89017829D01*
X189782045Y-89093913D01*
X189861683Y-89174396D01*
X189939561Y-89254713D01*
X190011186Y-89330301D01*
X190072070Y-89396595D01*
X190117721Y-89449031D01*
X190143650Y-89483045D01*
X190147883Y-89492455D01*
X190137912Y-89514357D01*
X190111020Y-89559200D01*
X190071736Y-89619679D01*
X190040117Y-89666211D01*
X189982098Y-89750525D01*
X189913784Y-89850374D01*
X189845579Y-89950527D01*
X189809075Y-90004373D01*
X189685800Y-90186629D01*
X189768520Y-90339619D01*
X189804759Y-90409318D01*
X189832926Y-90468586D01*
X189848991Y-90508689D01*
X189851226Y-90518897D01*
X189834722Y-90531171D01*
X189788082Y-90555387D01*
X189715609Y-90589737D01*
X189621606Y-90632412D01*
X189510374Y-90681606D01*
X189386215Y-90735510D01*
X189253432Y-90792316D01*
X189116327Y-90850218D01*
X188979202Y-90907407D01*
X188846358Y-90962076D01*
X188722098Y-91012416D01*
X188610725Y-91056620D01*
X188516539Y-91092881D01*
X188443844Y-91119391D01*
X188396941Y-91134342D01*
X188380833Y-91136746D01*
X188360286Y-91117689D01*
X188326933Y-91075964D01*
X188287702Y-91020294D01*
X188284599Y-91015622D01*
X188169423Y-90871736D01*
X188035053Y-90755717D01*
X187885784Y-90668570D01*
X187725913Y-90611301D01*
X187559737Y-90584914D01*
X187391552Y-90590415D01*
X187225655Y-90628810D01*
X187066342Y-90701105D01*
X187031487Y-90722374D01*
X186890737Y-90833004D01*
X186777714Y-90963698D01*
X186693003Y-91109936D01*
X186637194Y-91267192D01*
X186610874Y-91430943D01*
X186614630Y-91596667D01*
X186649050Y-91759838D01*
X186714723Y-91915935D01*
X186812235Y-92060433D01*
X186851813Y-92105131D01*
X186975703Y-92218888D01*
X187106124Y-92301782D01*
X187252315Y-92358644D01*
X187397088Y-92390313D01*
X187559860Y-92398131D01*
X187723440Y-92372062D01*
X187882298Y-92314755D01*
X188030906Y-92228856D01*
X188163735Y-92117014D01*
X188275256Y-91981877D01*
X188287011Y-91964117D01*
X188325508Y-91907850D01*
X188358863Y-91865077D01*
X188380160Y-91844628D01*
X188380833Y-91844331D01*
X188403871Y-91848721D01*
X188456157Y-91866124D01*
X188533390Y-91894732D01*
X188631268Y-91932735D01*
X188745491Y-91978326D01*
X188871758Y-92029697D01*
X189005767Y-92085038D01*
X189143218Y-92142542D01*
X189279808Y-92200399D01*
X189411237Y-92256802D01*
X189533205Y-92309942D01*
X189641409Y-92358010D01*
X189731549Y-92399199D01*
X189799323Y-92431699D01*
X189840430Y-92453703D01*
X189851226Y-92462564D01*
X189842819Y-92489640D01*
X189820272Y-92540303D01*
X189787613Y-92605817D01*
X189768520Y-92641841D01*
X189685800Y-92794832D01*
X189809075Y-92977088D01*
X189872228Y-93070125D01*
X189941727Y-93171985D01*
X190007165Y-93267438D01*
X190040117Y-93315250D01*
X190085273Y-93382495D01*
X190121057Y-93439436D01*
X190142938Y-93478646D01*
X190147563Y-93491381D01*
X190135085Y-93509917D01*
X190100252Y-93550941D01*
X190046678Y-93610475D01*
X189977983Y-93684542D01*
X189897781Y-93769165D01*
X189846286Y-93822685D01*
X189754286Y-93916319D01*
X189671999Y-93997241D01*
X189602945Y-94062177D01*
X189550644Y-94107858D01*
X189518616Y-94131011D01*
X189512116Y-94133232D01*
X189487394Y-94122924D01*
X189437405Y-94094439D01*
X189367212Y-94050937D01*
X189281875Y-93995577D01*
X189186456Y-93931520D01*
X189159854Y-93913303D01*
X189063167Y-93846927D01*
X188976117Y-93787378D01*
X188903595Y-93737984D01*
X188850493Y-93702075D01*
X188821703Y-93682981D01*
X188818726Y-93681136D01*
X188795782Y-93683895D01*
X188745336Y-93698538D01*
X188674041Y-93722513D01*
X188588547Y-93753266D01*
X188495507Y-93788244D01*
X188401574Y-93824893D01*
X188313399Y-93860661D01*
X188237634Y-93892994D01*
X188180931Y-93919338D01*
X188149943Y-93937142D01*
X188148457Y-93938407D01*
X188139601Y-93949294D01*
X188130843Y-93967682D01*
X188121277Y-93997606D01*
X188109996Y-94043103D01*
X188096093Y-94108209D01*
X188078663Y-94196961D01*
X188056798Y-94313393D01*
X188029591Y-94461542D01*
X188023741Y-94493618D01*
X188005374Y-94588686D01*
X187987405Y-94671565D01*
X187971569Y-94734930D01*
X187959600Y-94771458D01*
X187956810Y-94776356D01*
X187932072Y-94784427D01*
X187876790Y-94790987D01*
X187797389Y-94796033D01*
X187700296Y-94799559D01*
X187591938Y-94801561D01*
X187478740Y-94802036D01*
X187367128Y-94800977D01*
X187263529Y-94798382D01*
X187174368Y-94794246D01*
X187106072Y-94788563D01*
X187065066Y-94781331D01*
X187056674Y-94776971D01*
X187048208Y-94752698D01*
X187034435Y-94697426D01*
X187016550Y-94616662D01*
X186995748Y-94515912D01*
X186973223Y-94400683D01*
X186961418Y-94337902D01*
X186939151Y-94218787D01*
X186918979Y-94112565D01*
X186901915Y-94024427D01*
X186888969Y-93959566D01*
X186881155Y-93923174D01*
X186879422Y-93917184D01*
X186859890Y-93907061D01*
X186812843Y-93885662D01*
X186745003Y-93855839D01*
X186663091Y-93820445D01*
X186573828Y-93782332D01*
X186483935Y-93744353D01*
X186400135Y-93709360D01*
X186329147Y-93680206D01*
X186277694Y-93659743D01*
X186252497Y-93650823D01*
X186251396Y-93650657D01*
X186231519Y-93660769D01*
X186185777Y-93689117D01*
X186118717Y-93732723D01*
X186034884Y-93788606D01*
X185938826Y-93853787D01*
X185883650Y-93891679D01*
X185782481Y-93960725D01*
X185690630Y-94022050D01*
X185612744Y-94072663D01*
X185553469Y-94109571D01*
X185517451Y-94129782D01*
X185509377Y-94132701D01*
X185490584Y-94120153D01*
X185450457Y-94085463D01*
X185393493Y-94033063D01*
X185324185Y-93967384D01*
X185247031Y-93892856D01*
X185166525Y-93813913D01*
X185087163Y-93734983D01*
X185013440Y-93660500D01*
X184949852Y-93594894D01*
X184900894Y-93542596D01*
X184871061Y-93508039D01*
X184863942Y-93496478D01*
X184873953Y-93477654D01*
X184902078Y-93432631D01*
X184945454Y-93365787D01*
X185001218Y-93281499D01*
X185066506Y-93184144D01*
X185116246Y-93110707D01*
X185368551Y-92739667D01*
X185113555Y-92121095D01*
X184668931Y-92037275D01*
X184224307Y-91953454D01*
X184224307Y-91028006D01*
X184668931Y-90944186D01*
X185113555Y-90860365D01*
X185241053Y-90551080D01*
X185368551Y-90241794D01*
X185116246Y-89870754D01*
X185045996Y-89766843D01*
X184983272Y-89672913D01*
X184930938Y-89593348D01*
X184891857Y-89532530D01*
X184868893Y-89494843D01*
X184863942Y-89484579D01*
X184876676Y-89466090D01*
X184911882Y-89426580D01*
X184965062Y-89370478D01*
X185031718Y-89302213D01*
X185107354Y-89226214D01*
X185187472Y-89146908D01*
X185267574Y-89068725D01*
X185343164Y-88996093D01*
X185409745Y-88933441D01*
X185462818Y-88885197D01*
X185497887Y-88855790D01*
X185509623Y-88848759D01*
X185531260Y-88858877D01*
X185578662Y-88887241D01*
X185647193Y-88930871D01*
X185732215Y-88986782D01*
X185829093Y-89051994D01*
X185884350Y-89089781D01*
X185985248Y-89158657D01*
X186076299Y-89219860D01*
X186152970Y-89270422D01*
X186210728Y-89307372D01*
X186245043Y-89327742D01*
X186252254Y-89330803D01*
X186272748Y-89323864D01*
X186320513Y-89304949D01*
X186388832Y-89276913D01*
X186470989Y-89242609D01*
X186560270Y-89204891D01*
X186649958Y-89166613D01*
X186733338Y-89130630D01*
X186803694Y-89099794D01*
X186854310Y-89076961D01*
X186878471Y-89064983D01*
X186879422Y-89064276D01*
X186884036Y-89045469D01*
X186894328Y-88995382D01*
X186909287Y-88919207D01*
X186927901Y-88822135D01*
X186949159Y-88709357D01*
X186961418Y-88643558D01*
X186984362Y-88523050D01*
X187006195Y-88414203D01*
X187025722Y-88322524D01*
X187041748Y-88253519D01*
X187053079Y-88212696D01*
X187056674Y-88204489D01*
X187081006Y-88196452D01*
X187135959Y-88189967D01*
X187215108Y-88185030D01*
X187312026Y-88181636D01*
X187420287Y-88179782D01*
X187533465Y-88179462D01*
X187645135Y-88180673D01*
D15*
%TO.C,R1*%
X134901000Y-111987064D02*
X134901000Y-111532936D01*
X136371000Y-111987064D02*
X136371000Y-111532936D01*
%TO.C,R10*%
X120676936Y-120242000D02*
X121131064Y-120242000D01*
X120676936Y-118772000D02*
X121131064Y-118772000D01*
%TO.C,R44*%
X161263000Y-91175064D02*
X161263000Y-90720936D01*
X159793000Y-91175064D02*
X159793000Y-90720936D01*
%TO.C,U17*%
X166202000Y-119888000D02*
X166202000Y-116288000D01*
X166202000Y-119888000D02*
X166202000Y-122088000D01*
X162982000Y-119888000D02*
X162982000Y-122088000D01*
X162982000Y-119888000D02*
X162982000Y-117688000D01*
%TO.C,R30*%
X154167064Y-72417000D02*
X153712936Y-72417000D01*
X154167064Y-73887000D02*
X153712936Y-73887000D01*
%TO.C,C16*%
X150737000Y-76428000D02*
X150737000Y-71908000D01*
X142502000Y-76428000D02*
X150737000Y-76428000D01*
X150737000Y-71908000D02*
X142502000Y-71908000D01*
%TO.C,X2*%
X142548000Y-115680000D02*
X148028000Y-115680000D01*
X148028000Y-115680000D02*
X148028000Y-115740000D01*
X142548000Y-123080000D02*
X142548000Y-123020000D01*
X148028000Y-120820000D02*
X148488000Y-120820000D01*
X148028000Y-123080000D02*
X142548000Y-123080000D01*
X142548000Y-115740000D02*
X142548000Y-115680000D01*
X148488000Y-123020000D02*
X148028000Y-123020000D01*
X142548000Y-120820000D02*
X142548000Y-117940000D01*
X148028000Y-123020000D02*
X148028000Y-123080000D01*
X148028000Y-117940000D02*
X148028000Y-120820000D01*
%TO.C,U8*%
X184599000Y-98552000D02*
X184599000Y-100752000D01*
X184599000Y-98552000D02*
X184599000Y-96352000D01*
X179129000Y-98552000D02*
X179129000Y-96352000D01*
X179129000Y-98552000D02*
X179129000Y-102152000D01*
%TO.C,RN3*%
X163120705Y-94956951D02*
X161063305Y-94956951D01*
X163120705Y-101814951D02*
X161063305Y-101814951D01*
%TO.C,U18*%
X173228000Y-111057000D02*
X175428000Y-111057000D01*
X173228000Y-116527000D02*
X171028000Y-116527000D01*
X173228000Y-111057000D02*
X169628000Y-111057000D01*
X173228000Y-116527000D02*
X175428000Y-116527000D01*
%TO.C,R12*%
X204425062Y-114088001D02*
X203970934Y-114088001D01*
X204425062Y-115558001D02*
X203970934Y-115558001D01*
%TO.C,SW2*%
X183372000Y-79160000D02*
X187872000Y-79160000D01*
X187872000Y-72660000D02*
X183372000Y-72660000D01*
X189122000Y-76660000D02*
X189122000Y-75160000D01*
X182122000Y-75160000D02*
X182122000Y-76660000D01*
%TO.C,C14*%
X110751252Y-72417000D02*
X110228748Y-72417000D01*
X110751252Y-73887000D02*
X110228748Y-73887000D01*
%TO.C,R31*%
X177572936Y-73433000D02*
X178027064Y-73433000D01*
X177572936Y-74903000D02*
X178027064Y-74903000D01*
%TO.C,R49*%
X171985000Y-81560936D02*
X171985000Y-82015064D01*
X173455000Y-81560936D02*
X173455000Y-82015064D01*
D10*
%TO.C,U11*%
X138025000Y-92813000D02*
X141375000Y-92813000D01*
X141375000Y-96163000D02*
X141375000Y-95863000D01*
X138025000Y-96163000D02*
X141375000Y-96163000D01*
X138025000Y-96163000D02*
X138025000Y-95863000D01*
X138025000Y-92813000D02*
X138025000Y-93038000D01*
X138025000Y-93038000D02*
X136800000Y-93038000D01*
X141375000Y-92813000D02*
X141375000Y-93113000D01*
D15*
%TO.C,Q2*%
X132509500Y-106136000D02*
X131859500Y-106136000D01*
X132509500Y-109256000D02*
X131859500Y-109256000D01*
X132509500Y-106136000D02*
X133159500Y-106136000D01*
X132509500Y-109256000D02*
X134184500Y-109256000D01*
%TO.C,Q9*%
X170144000Y-77724000D02*
X170144000Y-79399000D01*
X170144000Y-77724000D02*
X170144000Y-77074000D01*
X173264000Y-77724000D02*
X173264000Y-78374000D01*
X173264000Y-77724000D02*
X173264000Y-77074000D01*
%TO.C,U7*%
X129068000Y-107660000D02*
X129068000Y-107810000D01*
X129068000Y-107660000D02*
X125948000Y-107660000D01*
X125948000Y-107660000D02*
X125948000Y-107810000D01*
X127508000Y-110780000D02*
X125948000Y-110780000D01*
X125948000Y-110780000D02*
X125948000Y-110630000D01*
%TO.C,R32*%
X160501064Y-72163000D02*
X160046936Y-72163000D01*
X160501064Y-73633000D02*
X160046936Y-73633000D01*
%TO.C,Q12*%
X153924000Y-88936000D02*
X155599000Y-88936000D01*
X153924000Y-88936000D02*
X153274000Y-88936000D01*
X153924000Y-85816000D02*
X154574000Y-85816000D01*
X153924000Y-85816000D02*
X153274000Y-85816000D01*
%TO.C,R52*%
X166851000Y-114527064D02*
X166851000Y-114072936D01*
X165381000Y-114527064D02*
X165381000Y-114072936D01*
%TD*%
M02*
