M48
; DRILL file {KiCad 6.0.2+dfsg-1} date Thu 05 Jan 2023 11:37:25 AM EST
; FORMAT={-:-/ absolute / inch / decimal}
; #@! TF.CreationDate,2023-01-05T11:37:25-05:00
; #@! TF.GenerationSoftware,Kicad,Pcbnew,6.0.2+dfsg-1
; #@! TF.FileFunction,Plated,1,4,PTH
FMAT,2
INCH
; #@! TA.AperFunction,Plated,PTH,ViaDrill
T1C0.0157
; #@! TA.AperFunction,Plated,PTH,ComponentDrill
T2C0.0315
; #@! TA.AperFunction,Plated,PTH,ComponentDrill
T3C0.0394
; #@! TA.AperFunction,Plated,PTH,ComponentDrill
T4C0.0400
; #@! TA.AperFunction,Plated,PTH,ComponentDrill
T5C0.0433
%
G90
G05
T1
X4.32Y-3.4
X4.33Y-3.03
X4.38Y-4.32
X4.38Y-4.52
X4.3902Y-2.8702
X4.4Y-3.22
X4.4Y-3.9
X4.42Y-4.38
X4.4504Y-3.4561
X4.46Y-3.08
X4.46Y-4.14
X4.4807Y-3.9807
X4.5Y-4.38
X4.54Y-3.1
X4.5602Y-4.2802
X4.58Y-2.88
X4.58Y-4.14
X4.62Y-3.56
X4.64Y-2.9119
X4.6457Y-4.1143
X4.66Y-2.96
X4.68Y-3.44
X4.7Y-4.12
X4.7Y-4.24
X4.7Y-4.28
X4.7Y-4.34
X4.74Y-4.68
X4.76Y-4.14
X4.8Y-4.1515
X4.8Y-4.24
X4.8Y-4.36
X4.8Y-4.66
X4.8278Y-4.2122
X4.8285Y-4.3198
X4.8285Y-4.62
X4.84Y-2.88
X4.8606Y-3.4794
X4.88Y-4.84
X4.8963Y-3.7037
X4.8987Y-3.2587
X4.92Y-2.94
X4.92Y-4.58
X4.9272Y-4.3157
X4.94Y-3.78
X4.94Y-4.02
X4.96Y-4.46
X5.02Y-3.78
X5.0204Y-4.2204
X5.0226Y-3.2774
X5.08Y-3.18
X5.08Y-4.04
X5.08Y-4.86
X5.12Y-4.24
X5.12Y-4.3
X5.12Y-4.44
X5.12Y-4.64
X5.13Y-4.35
X5.14Y-3.56
X5.22Y-3.38
X5.24Y-3.78
X5.24Y-3.98
X5.26Y-4.32
X5.26Y-4.54
X5.2602Y-4.0398
X5.28Y-4.1
X5.3Y-3.12
X5.3Y-4.5
X5.34Y-3.2
X5.34Y-4.62
X5.34Y-4.66
X5.3798Y-4.7798
X5.38Y-4.74
X5.4Y-3.32
X5.4108Y-4.1729
X5.42Y-3.02
X5.42Y-3.06
X5.42Y-3.28
X5.4388Y-4.24
X5.4398Y-4.4
X5.48Y-3.72
X5.49Y-3.15
X5.54Y-4.26
X5.54Y-4.44
X5.56Y-3.52
X5.56Y-3.6
X5.56Y-4.58
X5.56Y-4.64
X5.58Y-4.14
X5.58Y-4.32
X5.6Y-3.64
X5.6Y-3.96
X5.62Y-4.72
X5.64Y-3.34
X5.64Y-3.7
X5.66Y-3.78
X5.66Y-4.22
X5.66Y-4.38
X5.6764Y-3.6724
X5.68Y-2.98
X5.7Y-4.24
X5.7Y-4.38
X5.7Y-4.44
X5.72Y-3.82
X5.72Y-4.14
X5.74Y-3.78
X5.76Y-4.12
X5.78Y-3.28
X5.8Y-3.88
X5.84Y-4.42
X5.84Y-4.5
X5.86Y-4.1
X5.86Y-4.46
X5.8602Y-4.3002
X5.88Y-4.4
X5.88Y-4.84
X5.92Y-4.58
X5.9202Y-4.1602
X5.9374Y-3.6721
X5.94Y-4.3
X5.94Y-4.86
X5.96Y-2.88
X5.96Y-3.04
X5.96Y-3.5
X5.96Y-4.46
X5.9602Y-2.9598
X5.9602Y-4.1602
X5.9602Y-3.5598
X5.975Y-4.055
X5.98Y-3.7
X6.0002Y-4.1602
X6.02Y-3.2
X6.04Y-4.1715
X6.0505Y-3.1695
X6.0602Y-4.5798
X6.072Y-4.432
X6.0743Y-4.2743
X6.0998Y-4.4598
X6.1Y-3.76
X6.1Y-4.54
X6.12Y-3.22
X6.12Y-3.34
X6.12Y-4.12
X6.12Y-4.16
X6.1277Y-4.4877
X6.14Y-2.98
X6.14Y-3.64
X6.1478Y-2.9368
X6.1482Y-2.88
X6.16Y-3.34
X6.16Y-4.68
X6.16Y-4.82
X6.1678Y-3.6122
X6.1798Y-3.7398
X6.18Y-4.4802
X6.22Y-3.14
X6.22Y-4.68
X6.24Y-3.08
X6.24Y-3.46
X6.24Y-3.5
X6.24Y-4.3
X6.24Y-4.36
X6.24Y-4.48
X6.24Y-4.82
X6.2586Y-4.5386
X6.26Y-2.96
X6.26Y-3.7715
X6.26Y-4.08
X6.26Y-4.4
X6.26Y-4.6
X6.28Y-4.68
X6.3Y-3.7715
X6.3Y-4.16
X6.32Y-3.36
X6.32Y-3.48
X6.32Y-4.6
X6.324Y-4.4316
X6.34Y-3.32
X6.34Y-3.6722
X6.34Y-4.64
X6.3406Y-4.0394
X6.36Y-4.46
X6.3649Y-4.3476
X6.38Y-3.88
X6.38Y-2.88
X6.38Y-3.76
X6.38Y-3.8
X6.38Y-3.84
X6.38Y-3.92
X6.38Y-3.96
X6.38Y-4.0
X6.38Y-4.62
X6.38Y-4.84
X6.4Y-3.62
X6.4Y-3.7007
X6.4Y-4.88
X6.44Y-3.64
X6.46Y-4.04
X6.4672Y-4.5328
X6.48Y-3.06
X6.48Y-3.48
X6.48Y-4.3
X6.48Y-4.38
X6.4809Y-2.9499
X6.4816Y-4.4962
X6.4884Y-2.88
X6.5Y-4.06
X6.5158Y-3.6722
X6.52Y-3.62
X6.56Y-3.14
X6.56Y-3.44
X6.56Y-3.7
X6.58Y-4.8115
X6.5998Y-4.5802
X6.6Y-3.04
X6.6Y-3.56
X6.6Y-4.62
X6.6111Y-3.4867
X6.62Y-3.32
X6.6202Y-4.5198
X6.6203Y-4.4797
X6.64Y-3.16
X6.64Y-4.42
X6.64Y-4.64
X6.64Y-4.68
X6.64Y-4.72
X6.68Y-2.88
X6.68Y-3.1
X6.68Y-4.12
X6.7Y-3.5
X6.7Y-3.94
X6.7Y-4.34
X6.7Y-4.6
X6.7Y-4.8115
X6.72Y-3.32
X6.72Y-4.2
X6.76Y-4.24
X6.76Y-4.42
X6.76Y-4.5
X6.76Y-4.54
X6.7915Y-4.3
X6.8Y-4.76
X6.82Y-3.8
X6.82Y-4.22
X6.84Y-3.32
X6.8485Y-4.42
X6.86Y-4.3
X6.86Y-4.5115
X6.88Y-4.66
X6.88Y-4.72
X6.88Y-4.8
X6.8998Y-3.3198
X6.9Y-2.88
X6.9Y-2.96
X6.92Y-4.02
X6.92Y-4.84
X6.94Y-3.16
X6.94Y-4.6
X6.96Y-4.64
X6.9765Y-3.7805
X6.978Y-3.8219
X6.98Y-3.74
X6.98Y-3.96
X6.98Y-4.0
X6.9801Y-3.8611
X7.02Y-3.22
X7.02Y-3.38
X7.02Y-4.12
X7.0602Y-3.2198
X7.1Y-2.92
X7.1Y-3.62
X7.1Y-4.04
X7.1002Y-3.6729
X7.14Y-3.7
X7.18Y-3.16
X7.18Y-3.2
X7.18Y-3.62
X7.18Y-4.08
X7.224Y-4.216
X7.24Y-3.2
X7.24Y-3.44
X7.26Y-4.5
X7.28Y-4.06
X7.2962Y-3.2143
X7.3Y-3.76
X7.42Y-3.28
X7.44Y-3.14
X7.44Y-3.38
X7.5Y-3.7
X7.52Y-2.88
X7.5485Y-3.6715
X7.74Y-3.3862
X7.88Y-2.9
X8.08Y-3.9
X8.08Y-4.46
X8.08Y-4.56
X8.1198Y-4.4798
X8.12Y-3.92
X8.16Y-3.76
X8.2Y-3.06
X8.2Y-3.52
X8.2Y-3.7
X8.2Y-4.34
X8.2Y-4.64
X8.24Y-3.12
X8.24Y-3.24
X8.24Y-3.48
X8.24Y-3.6712
X8.24Y-4.3
X8.24Y-4.66
X8.3Y-3.06
X8.32Y-4.64
X8.34Y-3.08
X8.38Y-4.72
T2
X8.32Y-3.62
X8.32Y-3.72
X8.32Y-3.82
X8.32Y-3.92
X8.32Y-4.02
T3
X4.639Y-3.6587
X4.639Y-3.7488
X4.639Y-3.839
X4.639Y-3.9291
X4.639Y-4.0193
X4.739Y-3.7037
X4.739Y-3.7939
X4.739Y-3.8841
X4.739Y-3.9742
X4.739Y-4.0644
X4.839Y-3.6587
X4.839Y-3.7488
X4.839Y-3.839
X4.839Y-3.9291
X4.839Y-4.0193
X7.58Y-3.14
X7.58Y-3.24
X7.58Y-3.34
X7.58Y-3.44
X7.74Y-3.1
X7.74Y-3.2
X7.74Y-3.3
X8.46Y-3.7208
X8.46Y-3.8208
X8.46Y-3.9208
X8.46Y-4.0208
T4
X8.0Y-3.0
X8.0Y-3.1
X8.0Y-3.2
X8.0Y-3.3
X8.0Y-3.4
X8.0Y-3.5
T5
X4.3441Y-4.6228
X4.3441Y-4.8
X4.6Y-4.6228
X4.6Y-4.8
X7.18Y-2.9
X7.18Y-3.0772
X7.4359Y-2.9
X7.4359Y-3.0772
T0
M30
