%TF.GenerationSoftware,KiCad,Pcbnew,6.0.11-2627ca5db0~126~ubuntu22.04.1*%
%TF.CreationDate,2023-02-07T19:59:45-05:00*%
%TF.ProjectId,qwiic-obd,71776969-632d-46f6-9264-2e6b69636164,rev?*%
%TF.SameCoordinates,Original*%
%TF.FileFunction,Legend,Bot*%
%TF.FilePolarity,Positive*%
%FSLAX46Y46*%
G04 Gerber Fmt 4.6, Leading zero omitted, Abs format (unit mm)*
G04 Created by KiCad (PCBNEW 6.0.11-2627ca5db0~126~ubuntu22.04.1) date 2023-02-07 19:59:45*
%MOMM*%
%LPD*%
G01*
G04 APERTURE LIST*
%ADD10C,0.150000*%
%ADD11C,0.127000*%
%ADD12C,0.120000*%
%ADD13C,0.203200*%
G04 APERTURE END LIST*
D10*
%TO.C,JP1*%
X196433333Y-76652380D02*
X196433333Y-77366666D01*
X196480952Y-77509523D01*
X196576190Y-77604761D01*
X196719047Y-77652380D01*
X196814285Y-77652380D01*
X195957142Y-77652380D02*
X195957142Y-76652380D01*
X195576190Y-76652380D01*
X195480952Y-76700000D01*
X195433333Y-76747619D01*
X195385714Y-76842857D01*
X195385714Y-76985714D01*
X195433333Y-77080952D01*
X195480952Y-77128571D01*
X195576190Y-77176190D01*
X195957142Y-77176190D01*
X194433333Y-77652380D02*
X195004761Y-77652380D01*
X194719047Y-77652380D02*
X194719047Y-76652380D01*
X194814285Y-76795238D01*
X194909523Y-76890476D01*
X195004761Y-76938095D01*
%TO.C,R48*%
X193942857Y-89652380D02*
X194276190Y-89176190D01*
X194514285Y-89652380D02*
X194514285Y-88652380D01*
X194133333Y-88652380D01*
X194038095Y-88700000D01*
X193990476Y-88747619D01*
X193942857Y-88842857D01*
X193942857Y-88985714D01*
X193990476Y-89080952D01*
X194038095Y-89128571D01*
X194133333Y-89176190D01*
X194514285Y-89176190D01*
X193085714Y-88985714D02*
X193085714Y-89652380D01*
X193323809Y-88604761D02*
X193561904Y-89319047D01*
X192942857Y-89319047D01*
X192419047Y-89080952D02*
X192514285Y-89033333D01*
X192561904Y-88985714D01*
X192609523Y-88890476D01*
X192609523Y-88842857D01*
X192561904Y-88747619D01*
X192514285Y-88700000D01*
X192419047Y-88652380D01*
X192228571Y-88652380D01*
X192133333Y-88700000D01*
X192085714Y-88747619D01*
X192038095Y-88842857D01*
X192038095Y-88890476D01*
X192085714Y-88985714D01*
X192133333Y-89033333D01*
X192228571Y-89080952D01*
X192419047Y-89080952D01*
X192514285Y-89128571D01*
X192561904Y-89176190D01*
X192609523Y-89271428D01*
X192609523Y-89461904D01*
X192561904Y-89557142D01*
X192514285Y-89604761D01*
X192419047Y-89652380D01*
X192228571Y-89652380D01*
X192133333Y-89604761D01*
X192085714Y-89557142D01*
X192038095Y-89461904D01*
X192038095Y-89271428D01*
X192085714Y-89176190D01*
X192133333Y-89128571D01*
X192228571Y-89080952D01*
%TO.C,JP2*%
X205633333Y-85152380D02*
X205633333Y-85866666D01*
X205680952Y-86009523D01*
X205776190Y-86104761D01*
X205919047Y-86152380D01*
X206014285Y-86152380D01*
X205157142Y-86152380D02*
X205157142Y-85152380D01*
X204776190Y-85152380D01*
X204680952Y-85200000D01*
X204633333Y-85247619D01*
X204585714Y-85342857D01*
X204585714Y-85485714D01*
X204633333Y-85580952D01*
X204680952Y-85628571D01*
X204776190Y-85676190D01*
X205157142Y-85676190D01*
X204204761Y-85247619D02*
X204157142Y-85200000D01*
X204061904Y-85152380D01*
X203823809Y-85152380D01*
X203728571Y-85200000D01*
X203680952Y-85247619D01*
X203633333Y-85342857D01*
X203633333Y-85438095D01*
X203680952Y-85580952D01*
X204252380Y-86152380D01*
X203633333Y-86152380D01*
%TO.C,D18*%
X198764285Y-93952380D02*
X198764285Y-92952380D01*
X198526190Y-92952380D01*
X198383333Y-93000000D01*
X198288095Y-93095238D01*
X198240476Y-93190476D01*
X198192857Y-93380952D01*
X198192857Y-93523809D01*
X198240476Y-93714285D01*
X198288095Y-93809523D01*
X198383333Y-93904761D01*
X198526190Y-93952380D01*
X198764285Y-93952380D01*
X197240476Y-93952380D02*
X197811904Y-93952380D01*
X197526190Y-93952380D02*
X197526190Y-92952380D01*
X197621428Y-93095238D01*
X197716666Y-93190476D01*
X197811904Y-93238095D01*
X196669047Y-93380952D02*
X196764285Y-93333333D01*
X196811904Y-93285714D01*
X196859523Y-93190476D01*
X196859523Y-93142857D01*
X196811904Y-93047619D01*
X196764285Y-93000000D01*
X196669047Y-92952380D01*
X196478571Y-92952380D01*
X196383333Y-93000000D01*
X196335714Y-93047619D01*
X196288095Y-93142857D01*
X196288095Y-93190476D01*
X196335714Y-93285714D01*
X196383333Y-93333333D01*
X196478571Y-93380952D01*
X196669047Y-93380952D01*
X196764285Y-93428571D01*
X196811904Y-93476190D01*
X196859523Y-93571428D01*
X196859523Y-93761904D01*
X196811904Y-93857142D01*
X196764285Y-93904761D01*
X196669047Y-93952380D01*
X196478571Y-93952380D01*
X196383333Y-93904761D01*
X196335714Y-93857142D01*
X196288095Y-93761904D01*
X196288095Y-93571428D01*
X196335714Y-93476190D01*
X196383333Y-93428571D01*
X196478571Y-93380952D01*
%TO.C,C26*%
X183777142Y-82519642D02*
X183824761Y-82472023D01*
X183872380Y-82329166D01*
X183872380Y-82233928D01*
X183824761Y-82091071D01*
X183729523Y-81995833D01*
X183634285Y-81948214D01*
X183443809Y-81900595D01*
X183300952Y-81900595D01*
X183110476Y-81948214D01*
X183015238Y-81995833D01*
X182920000Y-82091071D01*
X182872380Y-82233928D01*
X182872380Y-82329166D01*
X182920000Y-82472023D01*
X182967619Y-82519642D01*
X182967619Y-82900595D02*
X182920000Y-82948214D01*
X182872380Y-83043452D01*
X182872380Y-83281547D01*
X182920000Y-83376785D01*
X182967619Y-83424404D01*
X183062857Y-83472023D01*
X183158095Y-83472023D01*
X183300952Y-83424404D01*
X183872380Y-82852976D01*
X183872380Y-83472023D01*
X182872380Y-84329166D02*
X182872380Y-84138690D01*
X182920000Y-84043452D01*
X182967619Y-83995833D01*
X183110476Y-83900595D01*
X183300952Y-83852976D01*
X183681904Y-83852976D01*
X183777142Y-83900595D01*
X183824761Y-83948214D01*
X183872380Y-84043452D01*
X183872380Y-84233928D01*
X183824761Y-84329166D01*
X183777142Y-84376785D01*
X183681904Y-84424404D01*
X183443809Y-84424404D01*
X183348571Y-84376785D01*
X183300952Y-84329166D01*
X183253333Y-84233928D01*
X183253333Y-84043452D01*
X183300952Y-83948214D01*
X183348571Y-83900595D01*
X183443809Y-83852976D01*
%TO.C,R4*%
X133674380Y-112101333D02*
X133198190Y-111768000D01*
X133674380Y-111529904D02*
X132674380Y-111529904D01*
X132674380Y-111910857D01*
X132722000Y-112006095D01*
X132769619Y-112053714D01*
X132864857Y-112101333D01*
X133007714Y-112101333D01*
X133102952Y-112053714D01*
X133150571Y-112006095D01*
X133198190Y-111910857D01*
X133198190Y-111529904D01*
X133007714Y-112958476D02*
X133674380Y-112958476D01*
X132626761Y-112720380D02*
X133341047Y-112482285D01*
X133341047Y-113101333D01*
%TO.C,Q7*%
X111865619Y-74151261D02*
X111818000Y-74056023D01*
X111722761Y-73960785D01*
X111579904Y-73817928D01*
X111532285Y-73722690D01*
X111532285Y-73627452D01*
X111770380Y-73675071D02*
X111722761Y-73579833D01*
X111627523Y-73484595D01*
X111437047Y-73436976D01*
X111103714Y-73436976D01*
X110913238Y-73484595D01*
X110818000Y-73579833D01*
X110770380Y-73675071D01*
X110770380Y-73865547D01*
X110818000Y-73960785D01*
X110913238Y-74056023D01*
X111103714Y-74103642D01*
X111437047Y-74103642D01*
X111627523Y-74056023D01*
X111722761Y-73960785D01*
X111770380Y-73865547D01*
X111770380Y-73675071D01*
X110770380Y-74436976D02*
X110770380Y-75103642D01*
X111770380Y-74675071D01*
D11*
%TO.C,D4*%
X113116722Y-101631931D02*
X113116722Y-101022331D01*
X112971580Y-101022331D01*
X112884494Y-101051360D01*
X112826437Y-101109417D01*
X112797408Y-101167474D01*
X112768380Y-101283588D01*
X112768380Y-101370674D01*
X112797408Y-101486788D01*
X112826437Y-101544845D01*
X112884494Y-101602902D01*
X112971580Y-101631931D01*
X113116722Y-101631931D01*
X112245865Y-101225531D02*
X112245865Y-101631931D01*
X112391008Y-100993302D02*
X112536151Y-101428731D01*
X112158780Y-101428731D01*
D10*
%TO.C,Q13*%
X160083428Y-94527619D02*
X160178666Y-94480000D01*
X160273904Y-94384761D01*
X160416761Y-94241904D01*
X160512000Y-94194285D01*
X160607238Y-94194285D01*
X160559619Y-94432380D02*
X160654857Y-94384761D01*
X160750095Y-94289523D01*
X160797714Y-94099047D01*
X160797714Y-93765714D01*
X160750095Y-93575238D01*
X160654857Y-93480000D01*
X160559619Y-93432380D01*
X160369142Y-93432380D01*
X160273904Y-93480000D01*
X160178666Y-93575238D01*
X160131047Y-93765714D01*
X160131047Y-94099047D01*
X160178666Y-94289523D01*
X160273904Y-94384761D01*
X160369142Y-94432380D01*
X160559619Y-94432380D01*
X159178666Y-94432380D02*
X159750095Y-94432380D01*
X159464380Y-94432380D02*
X159464380Y-93432380D01*
X159559619Y-93575238D01*
X159654857Y-93670476D01*
X159750095Y-93718095D01*
X158845333Y-93432380D02*
X158226285Y-93432380D01*
X158559619Y-93813333D01*
X158416761Y-93813333D01*
X158321523Y-93860952D01*
X158273904Y-93908571D01*
X158226285Y-94003809D01*
X158226285Y-94241904D01*
X158273904Y-94337142D01*
X158321523Y-94384761D01*
X158416761Y-94432380D01*
X158702476Y-94432380D01*
X158797714Y-94384761D01*
X158845333Y-94337142D01*
D11*
%TO.C,D3*%
X119604971Y-105595057D02*
X118995371Y-105595057D01*
X118995371Y-105740200D01*
X119024400Y-105827285D01*
X119082457Y-105885342D01*
X119140514Y-105914371D01*
X119256628Y-105943400D01*
X119343714Y-105943400D01*
X119459828Y-105914371D01*
X119517885Y-105885342D01*
X119575942Y-105827285D01*
X119604971Y-105740200D01*
X119604971Y-105595057D01*
X118995371Y-106146600D02*
X118995371Y-106523971D01*
X119227600Y-106320771D01*
X119227600Y-106407857D01*
X119256628Y-106465914D01*
X119285657Y-106494942D01*
X119343714Y-106523971D01*
X119488857Y-106523971D01*
X119546914Y-106494942D01*
X119575942Y-106465914D01*
X119604971Y-106407857D01*
X119604971Y-106233685D01*
X119575942Y-106175628D01*
X119546914Y-106146600D01*
D10*
%TO.C,Q4*%
X139795238Y-119559619D02*
X139890476Y-119512000D01*
X139985714Y-119416761D01*
X140128571Y-119273904D01*
X140223809Y-119226285D01*
X140319047Y-119226285D01*
X140271428Y-119464380D02*
X140366666Y-119416761D01*
X140461904Y-119321523D01*
X140509523Y-119131047D01*
X140509523Y-118797714D01*
X140461904Y-118607238D01*
X140366666Y-118512000D01*
X140271428Y-118464380D01*
X140080952Y-118464380D01*
X139985714Y-118512000D01*
X139890476Y-118607238D01*
X139842857Y-118797714D01*
X139842857Y-119131047D01*
X139890476Y-119321523D01*
X139985714Y-119416761D01*
X140080952Y-119464380D01*
X140271428Y-119464380D01*
X138985714Y-118797714D02*
X138985714Y-119464380D01*
X139223809Y-118416761D02*
X139461904Y-119131047D01*
X138842857Y-119131047D01*
%TO.C,C1*%
X125007666Y-111609142D02*
X125055285Y-111656761D01*
X125198142Y-111704380D01*
X125293380Y-111704380D01*
X125436238Y-111656761D01*
X125531476Y-111561523D01*
X125579095Y-111466285D01*
X125626714Y-111275809D01*
X125626714Y-111132952D01*
X125579095Y-110942476D01*
X125531476Y-110847238D01*
X125436238Y-110752000D01*
X125293380Y-110704380D01*
X125198142Y-110704380D01*
X125055285Y-110752000D01*
X125007666Y-110799619D01*
X124055285Y-111704380D02*
X124626714Y-111704380D01*
X124341000Y-111704380D02*
X124341000Y-110704380D01*
X124436238Y-110847238D01*
X124531476Y-110942476D01*
X124626714Y-110990095D01*
%TO.C,R58*%
X158630857Y-123896380D02*
X158964190Y-123420190D01*
X159202285Y-123896380D02*
X159202285Y-122896380D01*
X158821333Y-122896380D01*
X158726095Y-122944000D01*
X158678476Y-122991619D01*
X158630857Y-123086857D01*
X158630857Y-123229714D01*
X158678476Y-123324952D01*
X158726095Y-123372571D01*
X158821333Y-123420190D01*
X159202285Y-123420190D01*
X157726095Y-122896380D02*
X158202285Y-122896380D01*
X158249904Y-123372571D01*
X158202285Y-123324952D01*
X158107047Y-123277333D01*
X157868952Y-123277333D01*
X157773714Y-123324952D01*
X157726095Y-123372571D01*
X157678476Y-123467809D01*
X157678476Y-123705904D01*
X157726095Y-123801142D01*
X157773714Y-123848761D01*
X157868952Y-123896380D01*
X158107047Y-123896380D01*
X158202285Y-123848761D01*
X158249904Y-123801142D01*
X157107047Y-123324952D02*
X157202285Y-123277333D01*
X157249904Y-123229714D01*
X157297523Y-123134476D01*
X157297523Y-123086857D01*
X157249904Y-122991619D01*
X157202285Y-122944000D01*
X157107047Y-122896380D01*
X156916571Y-122896380D01*
X156821333Y-122944000D01*
X156773714Y-122991619D01*
X156726095Y-123086857D01*
X156726095Y-123134476D01*
X156773714Y-123229714D01*
X156821333Y-123277333D01*
X156916571Y-123324952D01*
X157107047Y-123324952D01*
X157202285Y-123372571D01*
X157249904Y-123420190D01*
X157297523Y-123515428D01*
X157297523Y-123705904D01*
X157249904Y-123801142D01*
X157202285Y-123848761D01*
X157107047Y-123896380D01*
X156916571Y-123896380D01*
X156821333Y-123848761D01*
X156773714Y-123801142D01*
X156726095Y-123705904D01*
X156726095Y-123515428D01*
X156773714Y-123420190D01*
X156821333Y-123372571D01*
X156916571Y-123324952D01*
%TO.C,C13*%
X125610857Y-72845142D02*
X125658476Y-72892761D01*
X125801333Y-72940380D01*
X125896571Y-72940380D01*
X126039428Y-72892761D01*
X126134666Y-72797523D01*
X126182285Y-72702285D01*
X126229904Y-72511809D01*
X126229904Y-72368952D01*
X126182285Y-72178476D01*
X126134666Y-72083238D01*
X126039428Y-71988000D01*
X125896571Y-71940380D01*
X125801333Y-71940380D01*
X125658476Y-71988000D01*
X125610857Y-72035619D01*
X124658476Y-72940380D02*
X125229904Y-72940380D01*
X124944190Y-72940380D02*
X124944190Y-71940380D01*
X125039428Y-72083238D01*
X125134666Y-72178476D01*
X125229904Y-72226095D01*
X124325142Y-71940380D02*
X123706095Y-71940380D01*
X124039428Y-72321333D01*
X123896571Y-72321333D01*
X123801333Y-72368952D01*
X123753714Y-72416571D01*
X123706095Y-72511809D01*
X123706095Y-72749904D01*
X123753714Y-72845142D01*
X123801333Y-72892761D01*
X123896571Y-72940380D01*
X124182285Y-72940380D01*
X124277523Y-72892761D01*
X124325142Y-72845142D01*
%TO.C,R5*%
X128850380Y-104989333D02*
X128374190Y-104656000D01*
X128850380Y-104417904D02*
X127850380Y-104417904D01*
X127850380Y-104798857D01*
X127898000Y-104894095D01*
X127945619Y-104941714D01*
X128040857Y-104989333D01*
X128183714Y-104989333D01*
X128278952Y-104941714D01*
X128326571Y-104894095D01*
X128374190Y-104798857D01*
X128374190Y-104417904D01*
X127850380Y-105894095D02*
X127850380Y-105417904D01*
X128326571Y-105370285D01*
X128278952Y-105417904D01*
X128231333Y-105513142D01*
X128231333Y-105751238D01*
X128278952Y-105846476D01*
X128326571Y-105894095D01*
X128421809Y-105941714D01*
X128659904Y-105941714D01*
X128755142Y-105894095D01*
X128802761Y-105846476D01*
X128850380Y-105751238D01*
X128850380Y-105513142D01*
X128802761Y-105417904D01*
X128755142Y-105370285D01*
%TO.C,R6*%
X128182666Y-113610380D02*
X128516000Y-113134190D01*
X128754095Y-113610380D02*
X128754095Y-112610380D01*
X128373142Y-112610380D01*
X128277904Y-112658000D01*
X128230285Y-112705619D01*
X128182666Y-112800857D01*
X128182666Y-112943714D01*
X128230285Y-113038952D01*
X128277904Y-113086571D01*
X128373142Y-113134190D01*
X128754095Y-113134190D01*
X127325523Y-112610380D02*
X127516000Y-112610380D01*
X127611238Y-112658000D01*
X127658857Y-112705619D01*
X127754095Y-112848476D01*
X127801714Y-113038952D01*
X127801714Y-113419904D01*
X127754095Y-113515142D01*
X127706476Y-113562761D01*
X127611238Y-113610380D01*
X127420761Y-113610380D01*
X127325523Y-113562761D01*
X127277904Y-113515142D01*
X127230285Y-113419904D01*
X127230285Y-113181809D01*
X127277904Y-113086571D01*
X127325523Y-113038952D01*
X127420761Y-112991333D01*
X127611238Y-112991333D01*
X127706476Y-113038952D01*
X127754095Y-113086571D01*
X127801714Y-113181809D01*
D11*
%TO.C,D2*%
X113956011Y-106085277D02*
X113346411Y-106085277D01*
X113346411Y-106230420D01*
X113375440Y-106317505D01*
X113433497Y-106375562D01*
X113491554Y-106404591D01*
X113607668Y-106433620D01*
X113694754Y-106433620D01*
X113810868Y-106404591D01*
X113868925Y-106375562D01*
X113926982Y-106317505D01*
X113956011Y-106230420D01*
X113956011Y-106085277D01*
X113404468Y-106665848D02*
X113375440Y-106694877D01*
X113346411Y-106752934D01*
X113346411Y-106898077D01*
X113375440Y-106956134D01*
X113404468Y-106985162D01*
X113462525Y-107014191D01*
X113520582Y-107014191D01*
X113607668Y-106985162D01*
X113956011Y-106636820D01*
X113956011Y-107014191D01*
D10*
%TO.C,R28*%
X162694857Y-77668380D02*
X163028190Y-77192190D01*
X163266285Y-77668380D02*
X163266285Y-76668380D01*
X162885333Y-76668380D01*
X162790095Y-76716000D01*
X162742476Y-76763619D01*
X162694857Y-76858857D01*
X162694857Y-77001714D01*
X162742476Y-77096952D01*
X162790095Y-77144571D01*
X162885333Y-77192190D01*
X163266285Y-77192190D01*
X162313904Y-76763619D02*
X162266285Y-76716000D01*
X162171047Y-76668380D01*
X161932952Y-76668380D01*
X161837714Y-76716000D01*
X161790095Y-76763619D01*
X161742476Y-76858857D01*
X161742476Y-76954095D01*
X161790095Y-77096952D01*
X162361523Y-77668380D01*
X161742476Y-77668380D01*
X161171047Y-77096952D02*
X161266285Y-77049333D01*
X161313904Y-77001714D01*
X161361523Y-76906476D01*
X161361523Y-76858857D01*
X161313904Y-76763619D01*
X161266285Y-76716000D01*
X161171047Y-76668380D01*
X160980571Y-76668380D01*
X160885333Y-76716000D01*
X160837714Y-76763619D01*
X160790095Y-76858857D01*
X160790095Y-76906476D01*
X160837714Y-77001714D01*
X160885333Y-77049333D01*
X160980571Y-77096952D01*
X161171047Y-77096952D01*
X161266285Y-77144571D01*
X161313904Y-77192190D01*
X161361523Y-77287428D01*
X161361523Y-77477904D01*
X161313904Y-77573142D01*
X161266285Y-77620761D01*
X161171047Y-77668380D01*
X160980571Y-77668380D01*
X160885333Y-77620761D01*
X160837714Y-77573142D01*
X160790095Y-77477904D01*
X160790095Y-77287428D01*
X160837714Y-77192190D01*
X160885333Y-77144571D01*
X160980571Y-77096952D01*
%TO.C,D13*%
X167586285Y-74112380D02*
X167586285Y-73112380D01*
X167348190Y-73112380D01*
X167205333Y-73160000D01*
X167110095Y-73255238D01*
X167062476Y-73350476D01*
X167014857Y-73540952D01*
X167014857Y-73683809D01*
X167062476Y-73874285D01*
X167110095Y-73969523D01*
X167205333Y-74064761D01*
X167348190Y-74112380D01*
X167586285Y-74112380D01*
X166062476Y-74112380D02*
X166633904Y-74112380D01*
X166348190Y-74112380D02*
X166348190Y-73112380D01*
X166443428Y-73255238D01*
X166538666Y-73350476D01*
X166633904Y-73398095D01*
X165729142Y-73112380D02*
X165110095Y-73112380D01*
X165443428Y-73493333D01*
X165300571Y-73493333D01*
X165205333Y-73540952D01*
X165157714Y-73588571D01*
X165110095Y-73683809D01*
X165110095Y-73921904D01*
X165157714Y-74017142D01*
X165205333Y-74064761D01*
X165300571Y-74112380D01*
X165586285Y-74112380D01*
X165681523Y-74064761D01*
X165729142Y-74017142D01*
%TO.C,C3*%
X128783142Y-121647833D02*
X128830761Y-121600214D01*
X128878380Y-121457357D01*
X128878380Y-121362119D01*
X128830761Y-121219261D01*
X128735523Y-121124023D01*
X128640285Y-121076404D01*
X128449809Y-121028785D01*
X128306952Y-121028785D01*
X128116476Y-121076404D01*
X128021238Y-121124023D01*
X127926000Y-121219261D01*
X127878380Y-121362119D01*
X127878380Y-121457357D01*
X127926000Y-121600214D01*
X127973619Y-121647833D01*
X127878380Y-121981166D02*
X127878380Y-122600214D01*
X128259333Y-122266880D01*
X128259333Y-122409738D01*
X128306952Y-122504976D01*
X128354571Y-122552595D01*
X128449809Y-122600214D01*
X128687904Y-122600214D01*
X128783142Y-122552595D01*
X128830761Y-122504976D01*
X128878380Y-122409738D01*
X128878380Y-122124023D01*
X128830761Y-122028785D01*
X128783142Y-121981166D01*
%TO.C,R23*%
X118466892Y-82698404D02*
X118800225Y-82222214D01*
X119038320Y-82698404D02*
X119038320Y-81698404D01*
X118657368Y-81698404D01*
X118562130Y-81746024D01*
X118514511Y-81793643D01*
X118466892Y-81888881D01*
X118466892Y-82031738D01*
X118514511Y-82126976D01*
X118562130Y-82174595D01*
X118657368Y-82222214D01*
X119038320Y-82222214D01*
X118085939Y-81793643D02*
X118038320Y-81746024D01*
X117943082Y-81698404D01*
X117704987Y-81698404D01*
X117609749Y-81746024D01*
X117562130Y-81793643D01*
X117514511Y-81888881D01*
X117514511Y-81984119D01*
X117562130Y-82126976D01*
X118133558Y-82698404D01*
X117514511Y-82698404D01*
X117181177Y-81698404D02*
X116562130Y-81698404D01*
X116895463Y-82079357D01*
X116752606Y-82079357D01*
X116657368Y-82126976D01*
X116609749Y-82174595D01*
X116562130Y-82269833D01*
X116562130Y-82507928D01*
X116609749Y-82603166D01*
X116657368Y-82650785D01*
X116752606Y-82698404D01*
X117038320Y-82698404D01*
X117133558Y-82650785D01*
X117181177Y-82603166D01*
%TO.C,R27*%
X168218380Y-75557142D02*
X167742190Y-75223809D01*
X168218380Y-74985714D02*
X167218380Y-74985714D01*
X167218380Y-75366666D01*
X167266000Y-75461904D01*
X167313619Y-75509523D01*
X167408857Y-75557142D01*
X167551714Y-75557142D01*
X167646952Y-75509523D01*
X167694571Y-75461904D01*
X167742190Y-75366666D01*
X167742190Y-74985714D01*
X167313619Y-75938095D02*
X167266000Y-75985714D01*
X167218380Y-76080952D01*
X167218380Y-76319047D01*
X167266000Y-76414285D01*
X167313619Y-76461904D01*
X167408857Y-76509523D01*
X167504095Y-76509523D01*
X167646952Y-76461904D01*
X168218380Y-75890476D01*
X168218380Y-76509523D01*
X167218380Y-76842857D02*
X167218380Y-77509523D01*
X168218380Y-77080952D01*
D11*
%TO.C,D1*%
X124384162Y-97293611D02*
X124384162Y-96684011D01*
X124239020Y-96684011D01*
X124151934Y-96713040D01*
X124093877Y-96771097D01*
X124064848Y-96829154D01*
X124035820Y-96945268D01*
X124035820Y-97032354D01*
X124064848Y-97148468D01*
X124093877Y-97206525D01*
X124151934Y-97264582D01*
X124239020Y-97293611D01*
X124384162Y-97293611D01*
X123455248Y-97293611D02*
X123803591Y-97293611D01*
X123629420Y-97293611D02*
X123629420Y-96684011D01*
X123687477Y-96771097D01*
X123745534Y-96829154D01*
X123803591Y-96858182D01*
D10*
%TO.C,C24*%
X156090857Y-79253142D02*
X156138476Y-79300761D01*
X156281333Y-79348380D01*
X156376571Y-79348380D01*
X156519428Y-79300761D01*
X156614666Y-79205523D01*
X156662285Y-79110285D01*
X156709904Y-78919809D01*
X156709904Y-78776952D01*
X156662285Y-78586476D01*
X156614666Y-78491238D01*
X156519428Y-78396000D01*
X156376571Y-78348380D01*
X156281333Y-78348380D01*
X156138476Y-78396000D01*
X156090857Y-78443619D01*
X155709904Y-78443619D02*
X155662285Y-78396000D01*
X155567047Y-78348380D01*
X155328952Y-78348380D01*
X155233714Y-78396000D01*
X155186095Y-78443619D01*
X155138476Y-78538857D01*
X155138476Y-78634095D01*
X155186095Y-78776952D01*
X155757523Y-79348380D01*
X155138476Y-79348380D01*
X154281333Y-78681714D02*
X154281333Y-79348380D01*
X154519428Y-78300761D02*
X154757523Y-79015047D01*
X154138476Y-79015047D01*
%TO.C,D12*%
X154680285Y-73178380D02*
X154680285Y-72178380D01*
X154442190Y-72178380D01*
X154299333Y-72226000D01*
X154204095Y-72321238D01*
X154156476Y-72416476D01*
X154108857Y-72606952D01*
X154108857Y-72749809D01*
X154156476Y-72940285D01*
X154204095Y-73035523D01*
X154299333Y-73130761D01*
X154442190Y-73178380D01*
X154680285Y-73178380D01*
X153156476Y-73178380D02*
X153727904Y-73178380D01*
X153442190Y-73178380D02*
X153442190Y-72178380D01*
X153537428Y-72321238D01*
X153632666Y-72416476D01*
X153727904Y-72464095D01*
X152775523Y-72273619D02*
X152727904Y-72226000D01*
X152632666Y-72178380D01*
X152394571Y-72178380D01*
X152299333Y-72226000D01*
X152251714Y-72273619D01*
X152204095Y-72368857D01*
X152204095Y-72464095D01*
X152251714Y-72606952D01*
X152823142Y-73178380D01*
X152204095Y-73178380D01*
%TO.C,R43*%
X154058857Y-93542380D02*
X154392190Y-93066190D01*
X154630285Y-93542380D02*
X154630285Y-92542380D01*
X154249333Y-92542380D01*
X154154095Y-92590000D01*
X154106476Y-92637619D01*
X154058857Y-92732857D01*
X154058857Y-92875714D01*
X154106476Y-92970952D01*
X154154095Y-93018571D01*
X154249333Y-93066190D01*
X154630285Y-93066190D01*
X153201714Y-92875714D02*
X153201714Y-93542380D01*
X153439809Y-92494761D02*
X153677904Y-93209047D01*
X153058857Y-93209047D01*
X152773142Y-92542380D02*
X152154095Y-92542380D01*
X152487428Y-92923333D01*
X152344571Y-92923333D01*
X152249333Y-92970952D01*
X152201714Y-93018571D01*
X152154095Y-93113809D01*
X152154095Y-93351904D01*
X152201714Y-93447142D01*
X152249333Y-93494761D01*
X152344571Y-93542380D01*
X152630285Y-93542380D01*
X152725523Y-93494761D01*
X152773142Y-93447142D01*
%TO.C,D20*%
X168092380Y-117153836D02*
X167092380Y-117153836D01*
X167092380Y-117391931D01*
X167140000Y-117534788D01*
X167235238Y-117630026D01*
X167330476Y-117677645D01*
X167520952Y-117725264D01*
X167663809Y-117725264D01*
X167854285Y-117677645D01*
X167949523Y-117630026D01*
X168044761Y-117534788D01*
X168092380Y-117391931D01*
X168092380Y-117153836D01*
X167187619Y-118106217D02*
X167140000Y-118153836D01*
X167092380Y-118249074D01*
X167092380Y-118487169D01*
X167140000Y-118582407D01*
X167187619Y-118630026D01*
X167282857Y-118677645D01*
X167378095Y-118677645D01*
X167520952Y-118630026D01*
X168092380Y-118058598D01*
X168092380Y-118677645D01*
X167092380Y-119296693D02*
X167092380Y-119391931D01*
X167140000Y-119487169D01*
X167187619Y-119534788D01*
X167282857Y-119582407D01*
X167473333Y-119630026D01*
X167711428Y-119630026D01*
X167901904Y-119582407D01*
X167997142Y-119534788D01*
X168044761Y-119487169D01*
X168092380Y-119391931D01*
X168092380Y-119296693D01*
X168044761Y-119201455D01*
X167997142Y-119153836D01*
X167901904Y-119106217D01*
X167711428Y-119058598D01*
X167473333Y-119058598D01*
X167282857Y-119106217D01*
X167187619Y-119153836D01*
X167140000Y-119201455D01*
X167092380Y-119296693D01*
%TO.C,R25*%
X121102380Y-75398142D02*
X120626190Y-75064809D01*
X121102380Y-74826714D02*
X120102380Y-74826714D01*
X120102380Y-75207666D01*
X120150000Y-75302904D01*
X120197619Y-75350523D01*
X120292857Y-75398142D01*
X120435714Y-75398142D01*
X120530952Y-75350523D01*
X120578571Y-75302904D01*
X120626190Y-75207666D01*
X120626190Y-74826714D01*
X120197619Y-75779095D02*
X120150000Y-75826714D01*
X120102380Y-75921952D01*
X120102380Y-76160047D01*
X120150000Y-76255285D01*
X120197619Y-76302904D01*
X120292857Y-76350523D01*
X120388095Y-76350523D01*
X120530952Y-76302904D01*
X121102380Y-75731476D01*
X121102380Y-76350523D01*
X120102380Y-77255285D02*
X120102380Y-76779095D01*
X120578571Y-76731476D01*
X120530952Y-76779095D01*
X120483333Y-76874333D01*
X120483333Y-77112428D01*
X120530952Y-77207666D01*
X120578571Y-77255285D01*
X120673809Y-77302904D01*
X120911904Y-77302904D01*
X121007142Y-77255285D01*
X121054761Y-77207666D01*
X121102380Y-77112428D01*
X121102380Y-76874333D01*
X121054761Y-76779095D01*
X121007142Y-76731476D01*
%TO.C,R26*%
X129182857Y-89629874D02*
X129516190Y-89153684D01*
X129754285Y-89629874D02*
X129754285Y-88629874D01*
X129373333Y-88629874D01*
X129278095Y-88677494D01*
X129230476Y-88725113D01*
X129182857Y-88820351D01*
X129182857Y-88963208D01*
X129230476Y-89058446D01*
X129278095Y-89106065D01*
X129373333Y-89153684D01*
X129754285Y-89153684D01*
X128801904Y-88725113D02*
X128754285Y-88677494D01*
X128659047Y-88629874D01*
X128420952Y-88629874D01*
X128325714Y-88677494D01*
X128278095Y-88725113D01*
X128230476Y-88820351D01*
X128230476Y-88915589D01*
X128278095Y-89058446D01*
X128849523Y-89629874D01*
X128230476Y-89629874D01*
X127373333Y-88629874D02*
X127563809Y-88629874D01*
X127659047Y-88677494D01*
X127706666Y-88725113D01*
X127801904Y-88867970D01*
X127849523Y-89058446D01*
X127849523Y-89439398D01*
X127801904Y-89534636D01*
X127754285Y-89582255D01*
X127659047Y-89629874D01*
X127468571Y-89629874D01*
X127373333Y-89582255D01*
X127325714Y-89534636D01*
X127278095Y-89439398D01*
X127278095Y-89201303D01*
X127325714Y-89106065D01*
X127373333Y-89058446D01*
X127468571Y-89010827D01*
X127659047Y-89010827D01*
X127754285Y-89058446D01*
X127801904Y-89106065D01*
X127849523Y-89201303D01*
%TO.C,R55*%
X154058857Y-115768380D02*
X154392190Y-115292190D01*
X154630285Y-115768380D02*
X154630285Y-114768380D01*
X154249333Y-114768380D01*
X154154095Y-114816000D01*
X154106476Y-114863619D01*
X154058857Y-114958857D01*
X154058857Y-115101714D01*
X154106476Y-115196952D01*
X154154095Y-115244571D01*
X154249333Y-115292190D01*
X154630285Y-115292190D01*
X153154095Y-114768380D02*
X153630285Y-114768380D01*
X153677904Y-115244571D01*
X153630285Y-115196952D01*
X153535047Y-115149333D01*
X153296952Y-115149333D01*
X153201714Y-115196952D01*
X153154095Y-115244571D01*
X153106476Y-115339809D01*
X153106476Y-115577904D01*
X153154095Y-115673142D01*
X153201714Y-115720761D01*
X153296952Y-115768380D01*
X153535047Y-115768380D01*
X153630285Y-115720761D01*
X153677904Y-115673142D01*
X152201714Y-114768380D02*
X152677904Y-114768380D01*
X152725523Y-115244571D01*
X152677904Y-115196952D01*
X152582666Y-115149333D01*
X152344571Y-115149333D01*
X152249333Y-115196952D01*
X152201714Y-115244571D01*
X152154095Y-115339809D01*
X152154095Y-115577904D01*
X152201714Y-115673142D01*
X152249333Y-115720761D01*
X152344571Y-115768380D01*
X152582666Y-115768380D01*
X152677904Y-115720761D01*
X152725523Y-115673142D01*
%TO.C,C30*%
X153550857Y-111609142D02*
X153598476Y-111656761D01*
X153741333Y-111704380D01*
X153836571Y-111704380D01*
X153979428Y-111656761D01*
X154074666Y-111561523D01*
X154122285Y-111466285D01*
X154169904Y-111275809D01*
X154169904Y-111132952D01*
X154122285Y-110942476D01*
X154074666Y-110847238D01*
X153979428Y-110752000D01*
X153836571Y-110704380D01*
X153741333Y-110704380D01*
X153598476Y-110752000D01*
X153550857Y-110799619D01*
X153217523Y-110704380D02*
X152598476Y-110704380D01*
X152931809Y-111085333D01*
X152788952Y-111085333D01*
X152693714Y-111132952D01*
X152646095Y-111180571D01*
X152598476Y-111275809D01*
X152598476Y-111513904D01*
X152646095Y-111609142D01*
X152693714Y-111656761D01*
X152788952Y-111704380D01*
X153074666Y-111704380D01*
X153169904Y-111656761D01*
X153217523Y-111609142D01*
X151979428Y-110704380D02*
X151884190Y-110704380D01*
X151788952Y-110752000D01*
X151741333Y-110799619D01*
X151693714Y-110894857D01*
X151646095Y-111085333D01*
X151646095Y-111323428D01*
X151693714Y-111513904D01*
X151741333Y-111609142D01*
X151788952Y-111656761D01*
X151884190Y-111704380D01*
X151979428Y-111704380D01*
X152074666Y-111656761D01*
X152122285Y-111609142D01*
X152169904Y-111513904D01*
X152217523Y-111323428D01*
X152217523Y-111085333D01*
X152169904Y-110894857D01*
X152122285Y-110799619D01*
X152074666Y-110752000D01*
X151979428Y-110704380D01*
%TO.C,R11*%
X132722857Y-123976380D02*
X133056190Y-123500190D01*
X133294285Y-123976380D02*
X133294285Y-122976380D01*
X132913333Y-122976380D01*
X132818095Y-123024000D01*
X132770476Y-123071619D01*
X132722857Y-123166857D01*
X132722857Y-123309714D01*
X132770476Y-123404952D01*
X132818095Y-123452571D01*
X132913333Y-123500190D01*
X133294285Y-123500190D01*
X131770476Y-123976380D02*
X132341904Y-123976380D01*
X132056190Y-123976380D02*
X132056190Y-122976380D01*
X132151428Y-123119238D01*
X132246666Y-123214476D01*
X132341904Y-123262095D01*
X130818095Y-123976380D02*
X131389523Y-123976380D01*
X131103809Y-123976380D02*
X131103809Y-122976380D01*
X131199047Y-123119238D01*
X131294285Y-123214476D01*
X131389523Y-123262095D01*
%TO.C,R45*%
X165044380Y-88765142D02*
X164568190Y-88431809D01*
X165044380Y-88193714D02*
X164044380Y-88193714D01*
X164044380Y-88574666D01*
X164092000Y-88669904D01*
X164139619Y-88717523D01*
X164234857Y-88765142D01*
X164377714Y-88765142D01*
X164472952Y-88717523D01*
X164520571Y-88669904D01*
X164568190Y-88574666D01*
X164568190Y-88193714D01*
X164377714Y-89622285D02*
X165044380Y-89622285D01*
X163996761Y-89384190D02*
X164711047Y-89146095D01*
X164711047Y-89765142D01*
X164044380Y-90622285D02*
X164044380Y-90146095D01*
X164520571Y-90098476D01*
X164472952Y-90146095D01*
X164425333Y-90241333D01*
X164425333Y-90479428D01*
X164472952Y-90574666D01*
X164520571Y-90622285D01*
X164615809Y-90669904D01*
X164853904Y-90669904D01*
X164949142Y-90622285D01*
X164996761Y-90574666D01*
X165044380Y-90479428D01*
X165044380Y-90241333D01*
X164996761Y-90146095D01*
X164949142Y-90098476D01*
%TO.C,D17*%
X153868380Y-82605714D02*
X152868380Y-82605714D01*
X152868380Y-82843809D01*
X152916000Y-82986666D01*
X153011238Y-83081904D01*
X153106476Y-83129523D01*
X153296952Y-83177142D01*
X153439809Y-83177142D01*
X153630285Y-83129523D01*
X153725523Y-83081904D01*
X153820761Y-82986666D01*
X153868380Y-82843809D01*
X153868380Y-82605714D01*
X153868380Y-84129523D02*
X153868380Y-83558095D01*
X153868380Y-83843809D02*
X152868380Y-83843809D01*
X153011238Y-83748571D01*
X153106476Y-83653333D01*
X153154095Y-83558095D01*
X152868380Y-84462857D02*
X152868380Y-85129523D01*
X153868380Y-84700952D01*
%TO.C,C11*%
X113291857Y-78970142D02*
X113339476Y-79017761D01*
X113482333Y-79065380D01*
X113577571Y-79065380D01*
X113720428Y-79017761D01*
X113815666Y-78922523D01*
X113863285Y-78827285D01*
X113910904Y-78636809D01*
X113910904Y-78493952D01*
X113863285Y-78303476D01*
X113815666Y-78208238D01*
X113720428Y-78113000D01*
X113577571Y-78065380D01*
X113482333Y-78065380D01*
X113339476Y-78113000D01*
X113291857Y-78160619D01*
X112339476Y-79065380D02*
X112910904Y-79065380D01*
X112625190Y-79065380D02*
X112625190Y-78065380D01*
X112720428Y-78208238D01*
X112815666Y-78303476D01*
X112910904Y-78351095D01*
X111387095Y-79065380D02*
X111958523Y-79065380D01*
X111672809Y-79065380D02*
X111672809Y-78065380D01*
X111768047Y-78208238D01*
X111863285Y-78303476D01*
X111958523Y-78351095D01*
%TO.C,R53*%
X158440380Y-115705142D02*
X157964190Y-115371809D01*
X158440380Y-115133714D02*
X157440380Y-115133714D01*
X157440380Y-115514666D01*
X157488000Y-115609904D01*
X157535619Y-115657523D01*
X157630857Y-115705142D01*
X157773714Y-115705142D01*
X157868952Y-115657523D01*
X157916571Y-115609904D01*
X157964190Y-115514666D01*
X157964190Y-115133714D01*
X157440380Y-116609904D02*
X157440380Y-116133714D01*
X157916571Y-116086095D01*
X157868952Y-116133714D01*
X157821333Y-116228952D01*
X157821333Y-116467047D01*
X157868952Y-116562285D01*
X157916571Y-116609904D01*
X158011809Y-116657523D01*
X158249904Y-116657523D01*
X158345142Y-116609904D01*
X158392761Y-116562285D01*
X158440380Y-116467047D01*
X158440380Y-116228952D01*
X158392761Y-116133714D01*
X158345142Y-116086095D01*
X157440380Y-116990857D02*
X157440380Y-117609904D01*
X157821333Y-117276571D01*
X157821333Y-117419428D01*
X157868952Y-117514666D01*
X157916571Y-117562285D01*
X158011809Y-117609904D01*
X158249904Y-117609904D01*
X158345142Y-117562285D01*
X158392761Y-117514666D01*
X158440380Y-117419428D01*
X158440380Y-117133714D01*
X158392761Y-117038476D01*
X158345142Y-116990857D01*
D11*
%TO.C,D5*%
X115261571Y-98483057D02*
X114651971Y-98483057D01*
X114651971Y-98628200D01*
X114681000Y-98715285D01*
X114739057Y-98773342D01*
X114797114Y-98802371D01*
X114913228Y-98831400D01*
X115000314Y-98831400D01*
X115116428Y-98802371D01*
X115174485Y-98773342D01*
X115232542Y-98715285D01*
X115261571Y-98628200D01*
X115261571Y-98483057D01*
X114651971Y-99382942D02*
X114651971Y-99092657D01*
X114942257Y-99063628D01*
X114913228Y-99092657D01*
X114884200Y-99150714D01*
X114884200Y-99295857D01*
X114913228Y-99353914D01*
X114942257Y-99382942D01*
X115000314Y-99411971D01*
X115145457Y-99411971D01*
X115203514Y-99382942D01*
X115232542Y-99353914D01*
X115261571Y-99295857D01*
X115261571Y-99150714D01*
X115232542Y-99092657D01*
X115203514Y-99063628D01*
D10*
%TO.C,R59*%
X146946857Y-120848380D02*
X147280190Y-120372190D01*
X147518285Y-120848380D02*
X147518285Y-119848380D01*
X147137333Y-119848380D01*
X147042095Y-119896000D01*
X146994476Y-119943619D01*
X146946857Y-120038857D01*
X146946857Y-120181714D01*
X146994476Y-120276952D01*
X147042095Y-120324571D01*
X147137333Y-120372190D01*
X147518285Y-120372190D01*
X146042095Y-119848380D02*
X146518285Y-119848380D01*
X146565904Y-120324571D01*
X146518285Y-120276952D01*
X146423047Y-120229333D01*
X146184952Y-120229333D01*
X146089714Y-120276952D01*
X146042095Y-120324571D01*
X145994476Y-120419809D01*
X145994476Y-120657904D01*
X146042095Y-120753142D01*
X146089714Y-120800761D01*
X146184952Y-120848380D01*
X146423047Y-120848380D01*
X146518285Y-120800761D01*
X146565904Y-120753142D01*
X145518285Y-120848380D02*
X145327809Y-120848380D01*
X145232571Y-120800761D01*
X145184952Y-120753142D01*
X145089714Y-120610285D01*
X145042095Y-120419809D01*
X145042095Y-120038857D01*
X145089714Y-119943619D01*
X145137333Y-119896000D01*
X145232571Y-119848380D01*
X145423047Y-119848380D01*
X145518285Y-119896000D01*
X145565904Y-119943619D01*
X145613523Y-120038857D01*
X145613523Y-120276952D01*
X145565904Y-120372190D01*
X145518285Y-120419809D01*
X145423047Y-120467428D01*
X145232571Y-120467428D01*
X145137333Y-120419809D01*
X145089714Y-120372190D01*
X145042095Y-120276952D01*
%TO.C,C23*%
X131377201Y-85013707D02*
X131424820Y-84966088D01*
X131472439Y-84823231D01*
X131472439Y-84727993D01*
X131424820Y-84585136D01*
X131329582Y-84489898D01*
X131234344Y-84442279D01*
X131043868Y-84394660D01*
X130901011Y-84394660D01*
X130710535Y-84442279D01*
X130615297Y-84489898D01*
X130520059Y-84585136D01*
X130472439Y-84727993D01*
X130472439Y-84823231D01*
X130520059Y-84966088D01*
X130567678Y-85013707D01*
X130567678Y-85394660D02*
X130520059Y-85442279D01*
X130472439Y-85537517D01*
X130472439Y-85775612D01*
X130520059Y-85870850D01*
X130567678Y-85918469D01*
X130662916Y-85966088D01*
X130758154Y-85966088D01*
X130901011Y-85918469D01*
X131472439Y-85347041D01*
X131472439Y-85966088D01*
X130472439Y-86299422D02*
X130472439Y-86918469D01*
X130853392Y-86585136D01*
X130853392Y-86727993D01*
X130901011Y-86823231D01*
X130948630Y-86870850D01*
X131043868Y-86918469D01*
X131281963Y-86918469D01*
X131377201Y-86870850D01*
X131424820Y-86823231D01*
X131472439Y-86727993D01*
X131472439Y-86442279D01*
X131424820Y-86347041D01*
X131377201Y-86299422D01*
%TO.C,R38*%
X169806857Y-87954380D02*
X170140190Y-87478190D01*
X170378285Y-87954380D02*
X170378285Y-86954380D01*
X169997333Y-86954380D01*
X169902095Y-87002000D01*
X169854476Y-87049619D01*
X169806857Y-87144857D01*
X169806857Y-87287714D01*
X169854476Y-87382952D01*
X169902095Y-87430571D01*
X169997333Y-87478190D01*
X170378285Y-87478190D01*
X169473523Y-86954380D02*
X168854476Y-86954380D01*
X169187809Y-87335333D01*
X169044952Y-87335333D01*
X168949714Y-87382952D01*
X168902095Y-87430571D01*
X168854476Y-87525809D01*
X168854476Y-87763904D01*
X168902095Y-87859142D01*
X168949714Y-87906761D01*
X169044952Y-87954380D01*
X169330666Y-87954380D01*
X169425904Y-87906761D01*
X169473523Y-87859142D01*
X168283047Y-87382952D02*
X168378285Y-87335333D01*
X168425904Y-87287714D01*
X168473523Y-87192476D01*
X168473523Y-87144857D01*
X168425904Y-87049619D01*
X168378285Y-87002000D01*
X168283047Y-86954380D01*
X168092571Y-86954380D01*
X167997333Y-87002000D01*
X167949714Y-87049619D01*
X167902095Y-87144857D01*
X167902095Y-87192476D01*
X167949714Y-87287714D01*
X167997333Y-87335333D01*
X168092571Y-87382952D01*
X168283047Y-87382952D01*
X168378285Y-87430571D01*
X168425904Y-87478190D01*
X168473523Y-87573428D01*
X168473523Y-87763904D01*
X168425904Y-87859142D01*
X168378285Y-87906761D01*
X168283047Y-87954380D01*
X168092571Y-87954380D01*
X167997333Y-87906761D01*
X167949714Y-87859142D01*
X167902095Y-87763904D01*
X167902095Y-87573428D01*
X167949714Y-87478190D01*
X167997333Y-87430571D01*
X168092571Y-87382952D01*
%TO.C,C10*%
X114815857Y-83288142D02*
X114863476Y-83335761D01*
X115006333Y-83383380D01*
X115101571Y-83383380D01*
X115244428Y-83335761D01*
X115339666Y-83240523D01*
X115387285Y-83145285D01*
X115434904Y-82954809D01*
X115434904Y-82811952D01*
X115387285Y-82621476D01*
X115339666Y-82526238D01*
X115244428Y-82431000D01*
X115101571Y-82383380D01*
X115006333Y-82383380D01*
X114863476Y-82431000D01*
X114815857Y-82478619D01*
X113863476Y-83383380D02*
X114434904Y-83383380D01*
X114149190Y-83383380D02*
X114149190Y-82383380D01*
X114244428Y-82526238D01*
X114339666Y-82621476D01*
X114434904Y-82669095D01*
X113244428Y-82383380D02*
X113149190Y-82383380D01*
X113053952Y-82431000D01*
X113006333Y-82478619D01*
X112958714Y-82573857D01*
X112911095Y-82764333D01*
X112911095Y-83002428D01*
X112958714Y-83192904D01*
X113006333Y-83288142D01*
X113053952Y-83335761D01*
X113149190Y-83383380D01*
X113244428Y-83383380D01*
X113339666Y-83335761D01*
X113387285Y-83288142D01*
X113434904Y-83192904D01*
X113482523Y-83002428D01*
X113482523Y-82764333D01*
X113434904Y-82573857D01*
X113387285Y-82478619D01*
X113339666Y-82431000D01*
X113244428Y-82383380D01*
%TO.C,R50*%
X162504380Y-117213142D02*
X162028190Y-116879809D01*
X162504380Y-116641714D02*
X161504380Y-116641714D01*
X161504380Y-117022666D01*
X161552000Y-117117904D01*
X161599619Y-117165523D01*
X161694857Y-117213142D01*
X161837714Y-117213142D01*
X161932952Y-117165523D01*
X161980571Y-117117904D01*
X162028190Y-117022666D01*
X162028190Y-116641714D01*
X161504380Y-118117904D02*
X161504380Y-117641714D01*
X161980571Y-117594095D01*
X161932952Y-117641714D01*
X161885333Y-117736952D01*
X161885333Y-117975047D01*
X161932952Y-118070285D01*
X161980571Y-118117904D01*
X162075809Y-118165523D01*
X162313904Y-118165523D01*
X162409142Y-118117904D01*
X162456761Y-118070285D01*
X162504380Y-117975047D01*
X162504380Y-117736952D01*
X162456761Y-117641714D01*
X162409142Y-117594095D01*
X161504380Y-118784571D02*
X161504380Y-118879809D01*
X161552000Y-118975047D01*
X161599619Y-119022666D01*
X161694857Y-119070285D01*
X161885333Y-119117904D01*
X162123428Y-119117904D01*
X162313904Y-119070285D01*
X162409142Y-119022666D01*
X162456761Y-118975047D01*
X162504380Y-118879809D01*
X162504380Y-118784571D01*
X162456761Y-118689333D01*
X162409142Y-118641714D01*
X162313904Y-118594095D01*
X162123428Y-118546476D01*
X161885333Y-118546476D01*
X161694857Y-118594095D01*
X161599619Y-118641714D01*
X161552000Y-118689333D01*
X161504380Y-118784571D01*
%TO.C,C22*%
X115136142Y-73292642D02*
X115183761Y-73245023D01*
X115231380Y-73102166D01*
X115231380Y-73006928D01*
X115183761Y-72864071D01*
X115088523Y-72768833D01*
X114993285Y-72721214D01*
X114802809Y-72673595D01*
X114659952Y-72673595D01*
X114469476Y-72721214D01*
X114374238Y-72768833D01*
X114279000Y-72864071D01*
X114231380Y-73006928D01*
X114231380Y-73102166D01*
X114279000Y-73245023D01*
X114326619Y-73292642D01*
X114326619Y-73673595D02*
X114279000Y-73721214D01*
X114231380Y-73816452D01*
X114231380Y-74054547D01*
X114279000Y-74149785D01*
X114326619Y-74197404D01*
X114421857Y-74245023D01*
X114517095Y-74245023D01*
X114659952Y-74197404D01*
X115231380Y-73625976D01*
X115231380Y-74245023D01*
X114326619Y-74625976D02*
X114279000Y-74673595D01*
X114231380Y-74768833D01*
X114231380Y-75006928D01*
X114279000Y-75102166D01*
X114326619Y-75149785D01*
X114421857Y-75197404D01*
X114517095Y-75197404D01*
X114659952Y-75149785D01*
X115231380Y-74578357D01*
X115231380Y-75197404D01*
%TO.C,C9*%
X124973142Y-87738833D02*
X125020761Y-87691214D01*
X125068380Y-87548357D01*
X125068380Y-87453119D01*
X125020761Y-87310261D01*
X124925523Y-87215023D01*
X124830285Y-87167404D01*
X124639809Y-87119785D01*
X124496952Y-87119785D01*
X124306476Y-87167404D01*
X124211238Y-87215023D01*
X124116000Y-87310261D01*
X124068380Y-87453119D01*
X124068380Y-87548357D01*
X124116000Y-87691214D01*
X124163619Y-87738833D01*
X125068380Y-88215023D02*
X125068380Y-88405500D01*
X125020761Y-88500738D01*
X124973142Y-88548357D01*
X124830285Y-88643595D01*
X124639809Y-88691214D01*
X124258857Y-88691214D01*
X124163619Y-88643595D01*
X124116000Y-88595976D01*
X124068380Y-88500738D01*
X124068380Y-88310261D01*
X124116000Y-88215023D01*
X124163619Y-88167404D01*
X124258857Y-88119785D01*
X124496952Y-88119785D01*
X124592190Y-88167404D01*
X124639809Y-88215023D01*
X124687428Y-88310261D01*
X124687428Y-88500738D01*
X124639809Y-88595976D01*
X124592190Y-88643595D01*
X124496952Y-88691214D01*
%TO.C,Q16*%
X150915619Y-87312571D02*
X150868000Y-87217333D01*
X150772761Y-87122095D01*
X150629904Y-86979238D01*
X150582285Y-86884000D01*
X150582285Y-86788761D01*
X150820380Y-86836380D02*
X150772761Y-86741142D01*
X150677523Y-86645904D01*
X150487047Y-86598285D01*
X150153714Y-86598285D01*
X149963238Y-86645904D01*
X149868000Y-86741142D01*
X149820380Y-86836380D01*
X149820380Y-87026857D01*
X149868000Y-87122095D01*
X149963238Y-87217333D01*
X150153714Y-87264952D01*
X150487047Y-87264952D01*
X150677523Y-87217333D01*
X150772761Y-87122095D01*
X150820380Y-87026857D01*
X150820380Y-86836380D01*
X150820380Y-88217333D02*
X150820380Y-87645904D01*
X150820380Y-87931619D02*
X149820380Y-87931619D01*
X149963238Y-87836380D01*
X150058476Y-87741142D01*
X150106095Y-87645904D01*
X149820380Y-89074476D02*
X149820380Y-88884000D01*
X149868000Y-88788761D01*
X149915619Y-88741142D01*
X150058476Y-88645904D01*
X150248952Y-88598285D01*
X150629904Y-88598285D01*
X150725142Y-88645904D01*
X150772761Y-88693523D01*
X150820380Y-88788761D01*
X150820380Y-88979238D01*
X150772761Y-89074476D01*
X150725142Y-89122095D01*
X150629904Y-89169714D01*
X150391809Y-89169714D01*
X150296571Y-89122095D01*
X150248952Y-89074476D01*
X150201333Y-88979238D01*
X150201333Y-88788761D01*
X150248952Y-88693523D01*
X150296571Y-88645904D01*
X150391809Y-88598285D01*
D12*
%TO.C,JP1*%
X197000000Y-80000000D02*
X197000000Y-78000000D01*
X194200000Y-80000000D02*
X197000000Y-80000000D01*
X194200000Y-78000000D02*
X194200000Y-80000000D01*
X197000000Y-78000000D02*
X194200000Y-78000000D01*
%TO.C,R48*%
X196872936Y-89935000D02*
X197327064Y-89935000D01*
X196872936Y-88465000D02*
X197327064Y-88465000D01*
%TO.C,JP2*%
X203400000Y-82900000D02*
X203400000Y-84900000D01*
X206200000Y-82900000D02*
X203400000Y-82900000D01*
X206200000Y-84900000D02*
X206200000Y-82900000D01*
X203400000Y-84900000D02*
X206200000Y-84900000D01*
%TO.C,D18*%
X195300000Y-92500000D02*
X199200000Y-92500000D01*
X195300000Y-92500000D02*
X195300000Y-90500000D01*
X195300000Y-90500000D02*
X199200000Y-90500000D01*
%TO.C,C26*%
X185835000Y-82901248D02*
X185835000Y-83423752D01*
X184365000Y-82901248D02*
X184365000Y-83423752D01*
%TO.C,R4*%
X132307000Y-112495064D02*
X132307000Y-112040936D01*
X130837000Y-112495064D02*
X130837000Y-112040936D01*
%TO.C,Q7*%
X112298000Y-74246500D02*
X112298000Y-73596500D01*
X112298000Y-74246500D02*
X112298000Y-74896500D01*
X115418000Y-74246500D02*
X115418000Y-75921500D01*
X115418000Y-74246500D02*
X115418000Y-73596500D01*
D13*
%TO.C,D4*%
X111968280Y-102514400D02*
X111968280Y-101912420D01*
X111968280Y-104711500D02*
X112765840Y-104711500D01*
X111968280Y-101912420D02*
X112765840Y-101912420D01*
X111968280Y-104109520D02*
X111968280Y-104711500D01*
D12*
%TO.C,Q13*%
X162088000Y-90932000D02*
X162088000Y-92607000D01*
X162088000Y-90932000D02*
X162088000Y-90282000D01*
X158968000Y-90932000D02*
X158968000Y-90282000D01*
X158968000Y-90932000D02*
X158968000Y-91582000D01*
D13*
%TO.C,D3*%
X119885460Y-106743500D02*
X119885460Y-105945940D01*
X122082560Y-106743500D02*
X122684540Y-106743500D01*
X120487440Y-106743500D02*
X119885460Y-106743500D01*
X122684540Y-106743500D02*
X122684540Y-105945940D01*
D12*
%TO.C,Q4*%
X139700000Y-119852000D02*
X141375000Y-119852000D01*
X139700000Y-119852000D02*
X139050000Y-119852000D01*
X139700000Y-122972000D02*
X139050000Y-122972000D01*
X139700000Y-122972000D02*
X140350000Y-122972000D01*
%TO.C,C1*%
X128243000Y-109989252D02*
X128243000Y-109466748D01*
X126773000Y-109989252D02*
X126773000Y-109466748D01*
%TO.C,R58*%
X153188936Y-122201000D02*
X153643064Y-122201000D01*
X153188936Y-123671000D02*
X153643064Y-123671000D01*
%TO.C,C13*%
X125229252Y-74903000D02*
X124706748Y-74903000D01*
X125229252Y-73433000D02*
X124706748Y-73433000D01*
%TO.C,R5*%
X130783000Y-104928936D02*
X130783000Y-105383064D01*
X129313000Y-104928936D02*
X129313000Y-105383064D01*
%TO.C,R6*%
X128243064Y-115543000D02*
X127788936Y-115543000D01*
X128243064Y-114073000D02*
X127788936Y-114073000D01*
D13*
%TO.C,D2*%
X114838480Y-107233720D02*
X114236500Y-107233720D01*
X116433600Y-107233720D02*
X117035580Y-107233720D01*
X114236500Y-107233720D02*
X114236500Y-106436160D01*
X117035580Y-107233720D02*
X117035580Y-106436160D01*
D12*
%TO.C,R28*%
X162279064Y-74449000D02*
X161824936Y-74449000D01*
X162279064Y-75919000D02*
X161824936Y-75919000D01*
%TO.C,D13*%
X159676000Y-74152000D02*
X159676000Y-72152000D01*
X159676000Y-74152000D02*
X163576000Y-74152000D01*
X159676000Y-72152000D02*
X163576000Y-72152000D01*
%TO.C,C3*%
X126011000Y-122075752D02*
X126011000Y-121553248D01*
X127481000Y-122075752D02*
X127481000Y-121553248D01*
%TO.C,R23*%
X117629000Y-78512936D02*
X117629000Y-78967064D01*
X119099000Y-78512936D02*
X119099000Y-78967064D01*
%TO.C,R27*%
X166851000Y-76427064D02*
X166851000Y-75972936D01*
X165381000Y-76427064D02*
X165381000Y-75972936D01*
D13*
%TO.C,D1*%
X124632720Y-96461580D02*
X123835160Y-96461580D01*
X124632720Y-93662500D02*
X123835160Y-93662500D01*
X124632720Y-94264480D02*
X124632720Y-93662500D01*
X124632720Y-95859600D02*
X124632720Y-96461580D01*
D12*
%TO.C,C24*%
X155186748Y-77951000D02*
X155709252Y-77951000D01*
X155186748Y-76481000D02*
X155709252Y-76481000D01*
%TO.C,D12*%
X154096000Y-75836000D02*
X152686000Y-75836000D01*
X152686000Y-73516000D02*
X154716000Y-73516000D01*
X152686000Y-73516000D02*
X152686000Y-74176000D01*
X152686000Y-75176000D02*
X152686000Y-75836000D01*
%TO.C,R43*%
X153188936Y-90705000D02*
X153643064Y-90705000D01*
X153188936Y-92175000D02*
X153643064Y-92175000D01*
%TO.C,D20*%
X164762984Y-116118122D02*
X164762984Y-120018122D01*
X166762984Y-116118122D02*
X166762984Y-120018122D01*
X164762984Y-116118122D02*
X166762984Y-116118122D01*
%TO.C,R25*%
X119353000Y-73797936D02*
X119353000Y-74252064D01*
X117883000Y-73797936D02*
X117883000Y-74252064D01*
%TO.C,R26*%
X128312936Y-88262494D02*
X128767064Y-88262494D01*
X128312936Y-86792494D02*
X128767064Y-86792494D01*
%TO.C,R55*%
X152569000Y-120103737D02*
X152569000Y-118656263D01*
X155279000Y-120103737D02*
X155279000Y-118656263D01*
%TO.C,C30*%
X153135000Y-108973252D02*
X153135000Y-108450748D01*
X151665000Y-108973252D02*
X151665000Y-108450748D01*
%TO.C,R11*%
X129902936Y-122614000D02*
X134257064Y-122614000D01*
X129902936Y-119194000D02*
X134257064Y-119194000D01*
%TO.C,R45*%
X162333000Y-89180936D02*
X162333000Y-89635064D01*
X163803000Y-89180936D02*
X163803000Y-89635064D01*
%TO.C,D17*%
X154448000Y-82586000D02*
X154448000Y-86486000D01*
X154448000Y-82586000D02*
X156448000Y-82586000D01*
X156448000Y-82586000D02*
X156448000Y-86486000D01*
%TO.C,C11*%
X112362752Y-77792500D02*
X111840248Y-77792500D01*
X112362752Y-76322500D02*
X111840248Y-76322500D01*
%TO.C,R53*%
X155729000Y-116120936D02*
X155729000Y-116575064D01*
X157199000Y-116120936D02*
X157199000Y-116575064D01*
D13*
%TO.C,D5*%
X113827560Y-98234500D02*
X114429540Y-98234500D01*
X112232440Y-98234500D02*
X111630460Y-98234500D01*
X114429540Y-98234500D02*
X114429540Y-99032060D01*
X111630460Y-98234500D02*
X111630460Y-99032060D01*
D12*
%TO.C,R59*%
X149013000Y-120103737D02*
X149013000Y-118656263D01*
X151723000Y-120103737D02*
X151723000Y-118656263D01*
%TO.C,C23*%
X128218807Y-85375565D02*
X128741311Y-85375565D01*
X128218807Y-83905565D02*
X128741311Y-83905565D01*
%TO.C,R38*%
X168936936Y-86587000D02*
X169391064Y-86587000D01*
X168936936Y-85117000D02*
X169391064Y-85117000D01*
%TO.C,C10*%
X112422000Y-80151248D02*
X112422000Y-80673752D01*
X113892000Y-80151248D02*
X113892000Y-80673752D01*
%TO.C,R50*%
X164311000Y-118083064D02*
X164311000Y-117628936D01*
X162841000Y-118083064D02*
X162841000Y-117628936D01*
%TO.C,C22*%
X117194000Y-73674248D02*
X117194000Y-74196752D01*
X115724000Y-73674248D02*
X115724000Y-74196752D01*
%TO.C,C9*%
X122201000Y-88166752D02*
X122201000Y-87644248D01*
X123671000Y-88166752D02*
X123671000Y-87644248D01*
%TO.C,Q16*%
X151856000Y-87962500D02*
X151856000Y-88612500D01*
X151856000Y-87962500D02*
X151856000Y-87312500D01*
X154976000Y-87962500D02*
X154976000Y-87312500D01*
X154976000Y-87962500D02*
X154976000Y-89637500D01*
%TD*%
M02*
