%TF.GenerationSoftware,KiCad,Pcbnew,6.0.2+dfsg-1*%
%TF.CreationDate,2023-01-09T09:44:04-05:00*%
%TF.ProjectId,qwiic-obd,71776969-632d-46f6-9264-2e6b69636164,rev?*%
%TF.SameCoordinates,Original*%
%TF.FileFunction,Paste,Bot*%
%TF.FilePolarity,Positive*%
%FSLAX46Y46*%
G04 Gerber Fmt 4.6, Leading zero omitted, Abs format (unit mm)*
G04 Created by KiCad (PCBNEW 6.0.2+dfsg-1) date 2023-01-09 09:44:04*
%MOMM*%
%LPD*%
G01*
G04 APERTURE LIST*
G04 Aperture macros list*
%AMRoundRect*
0 Rectangle with rounded corners*
0 $1 Rounding radius*
0 $2 $3 $4 $5 $6 $7 $8 $9 X,Y pos of 4 corners*
0 Add a 4 corners polygon primitive as box body*
4,1,4,$2,$3,$4,$5,$6,$7,$8,$9,$2,$3,0*
0 Add four circle primitives for the rounded corners*
1,1,$1+$1,$2,$3*
1,1,$1+$1,$4,$5*
1,1,$1+$1,$6,$7*
1,1,$1+$1,$8,$9*
0 Add four rect primitives between the rounded corners*
20,1,$1+$1,$2,$3,$4,$5,0*
20,1,$1+$1,$4,$5,$6,$7,0*
20,1,$1+$1,$6,$7,$8,$9,0*
20,1,$1+$1,$8,$9,$2,$3,0*%
G04 Aperture macros list end*
%ADD10R,0.797560X0.899160*%
%ADD11R,0.899160X0.797560*%
%ADD12RoundRect,0.250000X0.475000X-0.337500X0.475000X0.337500X-0.475000X0.337500X-0.475000X-0.337500X0*%
%ADD13RoundRect,0.250000X-0.450000X0.350000X-0.450000X-0.350000X0.450000X-0.350000X0.450000X0.350000X0*%
%ADD14RoundRect,0.250000X-0.350000X-0.450000X0.350000X-0.450000X0.350000X0.450000X-0.350000X0.450000X0*%
%ADD15RoundRect,0.250000X-0.337500X-0.475000X0.337500X-0.475000X0.337500X0.475000X-0.337500X0.475000X0*%
%ADD16RoundRect,0.250000X-0.475000X0.337500X-0.475000X-0.337500X0.475000X-0.337500X0.475000X0.337500X0*%
%ADD17RoundRect,0.250000X0.450000X-0.350000X0.450000X0.350000X-0.450000X0.350000X-0.450000X-0.350000X0*%
%ADD18RoundRect,0.150000X0.150000X-0.587500X0.150000X0.587500X-0.150000X0.587500X-0.150000X-0.587500X0*%
%ADD19RoundRect,0.150000X0.587500X0.150000X-0.587500X0.150000X-0.587500X-0.150000X0.587500X-0.150000X0*%
%ADD20RoundRect,0.250000X0.337500X0.475000X-0.337500X0.475000X-0.337500X-0.475000X0.337500X-0.475000X0*%
%ADD21RoundRect,0.250000X0.350000X0.450000X-0.350000X0.450000X-0.350000X-0.450000X0.350000X-0.450000X0*%
%ADD22R,0.900000X1.200000*%
%ADD23R,0.700000X0.450000*%
%ADD24R,1.200000X0.900000*%
%ADD25RoundRect,0.250000X1.075000X-0.400000X1.075000X0.400000X-1.075000X0.400000X-1.075000X-0.400000X0*%
%ADD26RoundRect,0.249999X-0.450001X-1.425001X0.450001X-1.425001X0.450001X1.425001X-0.450001X1.425001X0*%
G04 APERTURE END LIST*
D10*
%TO.C,D102*%
X113979960Y-99931220D03*
X112080040Y-99931220D03*
X113030000Y-97833180D03*
%TD*%
D11*
%TO.C,D101*%
X113665000Y-102362000D03*
X113665000Y-104261920D03*
X111566960Y-103311960D03*
%TD*%
D12*
%TO.C,C301*%
X126746000Y-122852000D03*
X126746000Y-120777000D03*
%TD*%
D13*
%TO.C,R504*%
X118364000Y-77740000D03*
X118364000Y-79740000D03*
%TD*%
D14*
%TO.C,R502*%
X127540000Y-87527494D03*
X129540000Y-87527494D03*
%TD*%
D15*
%TO.C,C505*%
X127442559Y-84640565D03*
X129517559Y-84640565D03*
%TD*%
D16*
%TO.C,C512*%
X113157000Y-79375000D03*
X113157000Y-81450000D03*
%TD*%
D17*
%TO.C,R202*%
X131572000Y-113268000D03*
X131572000Y-111268000D03*
%TD*%
D18*
%TO.C,Q504*%
X114808000Y-75184000D03*
X112908000Y-75184000D03*
X113858000Y-73309000D03*
%TD*%
%TO.C,Q609*%
X161478000Y-91869500D03*
X159578000Y-91869500D03*
X160528000Y-89994500D03*
%TD*%
D10*
%TO.C,D103*%
X120335040Y-105046780D03*
X122234960Y-105046780D03*
X121285000Y-107144820D03*
%TD*%
D19*
%TO.C,Q301*%
X140637500Y-120462000D03*
X140637500Y-122362000D03*
X138762500Y-121412000D03*
%TD*%
D12*
%TO.C,C302*%
X127508000Y-110765500D03*
X127508000Y-108690500D03*
%TD*%
D14*
%TO.C,R706*%
X152416000Y-122936000D03*
X154416000Y-122936000D03*
%TD*%
D20*
%TO.C,C506*%
X126005500Y-74168000D03*
X123930500Y-74168000D03*
%TD*%
D13*
%TO.C,R204*%
X130048000Y-104156000D03*
X130048000Y-106156000D03*
%TD*%
D21*
%TO.C,R206*%
X129016000Y-114808000D03*
X127016000Y-114808000D03*
%TD*%
D10*
%TO.C,D104*%
X114686080Y-105537000D03*
X116586000Y-105537000D03*
X115636040Y-107635040D03*
%TD*%
D21*
%TO.C,R617*%
X163052000Y-75184000D03*
X161052000Y-75184000D03*
%TD*%
D22*
%TO.C,D604*%
X160276000Y-73152000D03*
X163576000Y-73152000D03*
%TD*%
D17*
%TO.C,R614*%
X166116000Y-77200000D03*
X166116000Y-75200000D03*
%TD*%
D11*
%TO.C,D105*%
X122936000Y-96012000D03*
X122936000Y-94112080D03*
X125034040Y-95062040D03*
%TD*%
D15*
%TO.C,C604*%
X154410500Y-77216000D03*
X156485500Y-77216000D03*
%TD*%
D23*
%TO.C,D605*%
X154416000Y-74026000D03*
X154416000Y-75326000D03*
X152416000Y-74676000D03*
%TD*%
D14*
%TO.C,R601*%
X152416000Y-91440000D03*
X154416000Y-91440000D03*
%TD*%
D24*
%TO.C,D701*%
X165762984Y-116718122D03*
X165762984Y-120018122D03*
%TD*%
D13*
%TO.C,R505*%
X118618000Y-73025000D03*
X118618000Y-75025000D03*
%TD*%
D25*
%TO.C,R702*%
X153924000Y-120930000D03*
X153924000Y-117830000D03*
%TD*%
D12*
%TO.C,C801*%
X152400000Y-109749500D03*
X152400000Y-107674500D03*
%TD*%
D26*
%TO.C,R303*%
X129030000Y-120904000D03*
X135130000Y-120904000D03*
%TD*%
D13*
%TO.C,R616*%
X163068000Y-88408000D03*
X163068000Y-90408000D03*
%TD*%
D24*
%TO.C,D601*%
X155448000Y-83186000D03*
X155448000Y-86486000D03*
%TD*%
D20*
%TO.C,C507*%
X113139000Y-77057500D03*
X111064000Y-77057500D03*
%TD*%
D13*
%TO.C,R701*%
X156464000Y-115348000D03*
X156464000Y-117348000D03*
%TD*%
D25*
%TO.C,R703*%
X150368000Y-120930000D03*
X150368000Y-117830000D03*
%TD*%
D14*
%TO.C,R609*%
X168164000Y-85852000D03*
X170164000Y-85852000D03*
%TD*%
D17*
%TO.C,R704*%
X163576000Y-118856000D03*
X163576000Y-116856000D03*
%TD*%
D16*
%TO.C,C511*%
X116459000Y-72898000D03*
X116459000Y-74973000D03*
%TD*%
D12*
%TO.C,C503*%
X122936000Y-88943000D03*
X122936000Y-86868000D03*
%TD*%
D18*
%TO.C,Q601*%
X154366000Y-88900000D03*
X152466000Y-88900000D03*
X153416000Y-87025000D03*
%TD*%
M02*
